<?xml version="1.0" encoding="utf-8"?>
<!-- Generator: Adobe Illustrator 16.0.0, SVG Export Plug-In . SVG Version: 6.00 Build 0)  -->
<!DOCTYPE svg PUBLIC "-//W3C//DTD SVG 1.1//EN" "http://www.w3.org/Graphics/SVG/1.1/DTD/svg11.dtd" [
	<!ENTITY ns_flows "http://ns.adobe.com/Flows/1.0/">
	<!ENTITY ns_extend "http://ns.adobe.com/Extensibility/1.0/">
	<!ENTITY ns_ai "http://ns.adobe.com/AdobeIllustrator/10.0/">
	<!ENTITY ns_graphs "http://ns.adobe.com/Graphs/1.0/">
]>
<svg version="1.1" id="Vrstva_1" xmlns:x="&ns_extend;" xmlns:i="&ns_ai;" xmlns:graph="&ns_graphs;"
	 xmlns="http://www.w3.org/2000/svg" xmlns:xlink="http://www.w3.org/1999/xlink" xmlns:a="http://ns.adobe.com/AdobeSVGViewerExtensions/3.0/"
	 x="0px" y="0px" width="299px" height="65.2px" viewBox="0 0 299 65.2" style="enable-background:new 0 0 299 65.2;"
	 xml:space="preserve">
<style type="text/css">
<![CDATA[
	.st0{fill:#FFFFFF;}
]]>
</style>
<g>
	<path class="st0" d="M23.9,30.6c3.2-2.9,4.8-6.4,4.8-10.5c0-2.3-0.5-4.5-1.5-6.7c-0.9-2.2-2.2-4-3.9-5.5c-1.6-1.4-3.6-2.4-5.9-3
		C15.2,4.3,12.1,4,8.2,4H0v58h12.8c3.9,0,7.2-0.5,9.8-1.3c2.4-0.8,4.6-2.2,6.5-4.1c3.2-3.1,4.8-7,4.8-11.5c0-3.4-0.9-6.5-2.7-9.1
		C29.4,33.5,27,31.7,23.9,30.6z M8,12h3.3c2.9,0,5.2,0.7,6.7,2.1c1.5,1.4,2.3,3.4,2.3,6.2c0,2.8-0.8,5-2.3,6.5
		C16.6,28.2,14.2,29,11,29H8V12z M22.3,51c-1.8,1.5-4.7,2.1-8.7,2.1H8V36h4.7c4.7,0,7.9,0.8,9.8,2.5c1.9,1.7,2.8,3.7,2.8,6.2
		C25.3,47.3,24.3,49.3,22.3,51z"/>
	<path class="st0" d="M77.7,57L63.2,37.1c3.8-0.8,6.9-2.7,9.3-5.7C74.8,28.5,76,25,76,20.9c0-5.2-1.9-9.4-5.6-12.6
		C67,5.4,61.4,4,53.8,4H44v58h8V38h1.9l16.5,24h5.1h5.6h3.8l6.4-14H116l6.1,14h9.5L104.1,0.5L77.7,57z M52,30V12h3.4
		c8,0,12.1,2.8,12.1,8.7c0,6.3-4.1,9.3-12.4,9.3H52z M94.9,39l9-19.6l8.6,19.6H94.9z"/>
	<rect x="136" y="4" class="st0" width="9" height="45"/>
	<polygon class="st0" points="201,44.1 159,0 159,62 168,62 168,21.3 210,65.2 210,4 201,4 	"/>
	<polygon class="st0" points="224,62 256,62 256,53 232,53 232,34 255,34 255,26 232,26 232,12 256,12 256,4 224,4 	"/>
	<polygon class="st0" points="299,12 299,4 267,4 267,62 299,62 299,53 276,53 276,34 298,34 298,26 276,26 276,12 	"/>
	<circle class="st0" cx="140.6" cy="58.2" r="4.7"/>
</g>
</svg>
