<?xml version="1.0" encoding="utf-8"?>
<!-- Generator: Adobe Illustrator 16.0.3, SVG Export Plug-In . SVG Version: 6.00 Build 0)  -->
<!DOCTYPE svg PUBLIC "-//W3C//DTD SVG 1.1//EN" "http://www.w3.org/Graphics/SVG/1.1/DTD/svg11.dtd" [
	<!ENTITY ns_flows "http://ns.adobe.com/Flows/1.0/">
	<!ENTITY ns_extend "http://ns.adobe.com/Extensibility/1.0/">
	<!ENTITY ns_ai "http://ns.adobe.com/AdobeIllustrator/10.0/">
	<!ENTITY ns_graphs "http://ns.adobe.com/Graphs/1.0/">
]>
<svg version="1.1" id="Vrstva_1" xmlns:x="&ns_extend;" xmlns:i="&ns_ai;" xmlns:graph="&ns_graphs;"
	 xmlns="http://www.w3.org/2000/svg" xmlns:xlink="http://www.w3.org/1999/xlink" xmlns:a="http://ns.adobe.com/AdobeSVGViewerExtensions/3.0/"
	 x="0px" y="0px" width="299.1px" height="227.2px" viewBox="0 0 299.1 227.2" style="enable-background:new 0 0 299.1 227.2;"
	 xml:space="preserve">
<style type="text/css">
<![CDATA[
	.st0{fill-rule:evenodd;clip-rule:evenodd;fill:#FFFFFF;}
]]>
</style>
<g>
	<path class="st0" d="M160.7,87.2c-0.2,16.2-3.8,30.4-12.9,42.9c-6.6,9-15,15.5-26.1,18.2c-6.8,1.7-13.6,1.6-20.2-0.8
		c-8.1-2.9-13.7-8.5-17.6-15.9c-3-5.7-4.6-11.9-5.4-18.2c-0.6-4.7-0.8-9.4-0.5-14c0.7-13.3,3.6-26,11-37.3
		c5.3-8.1,12.1-14.5,21.3-17.9c9.4-3.5,18.8-3.7,28.1,0c8,3.2,13.4,9.1,17.1,16.7c2.9,5.9,4.3,12.3,4.9,18.8
		C160.5,82.4,160.6,85.2,160.7,87.2z M109.6,118.7c0,1.3-0.1,3,0,4.7c0.2,1.8,0.4,3.7,1,5.5c0.7,2.5,2.8,3.4,5.3,2.9
		c2.2-0.5,3.5-2,4.2-3.9c1-2.5,1.9-5.2,2.5-7.8c1-5.4,1.9-10.8,2.6-16.3c0.6-4.7,1-9.5,1.5-14.3c0.3-2.8,0.5-5.5,0.6-8.3
		c0.2-4.2,0.5-8.3,0.5-12.5c0-1.9-0.3-3.9-0.8-5.8c-0.7-2.6-2.7-3.6-5.4-3.2c-2,0.3-3.3,1.6-4.3,3.3c-1.7,3.2-2.6,6.7-3.1,10.2
		c-1.3,8.3-2.5,16.6-3.5,25C110,104.8,109.5,111.6,109.6,118.7z"/>
	<path class="st0" d="M168.1,103.2c0.2-11.6,2.1-22.9,7-33.5c4.8-10.6,11.9-19.2,22.4-24.4c6.2-3.1,12.9-4.4,19.9-3.9
		c15,1.1,24.8,9.2,30,23.1c2.1,5.7,3.1,11.6,3.5,17.6c0.7,10.7-0.4,21.1-3.9,31.2c-3,8.6-7.4,16.4-13.9,22.9
		c-6.4,6.4-14,10.9-23.1,12.5c-8.6,1.5-16.8,0.4-24.3-4.4c-4.9-3.1-8.5-7.5-11.3-12.6c-3-5.7-4.7-11.8-5.5-18.2
		C168.5,110.2,168.4,106.7,168.1,103.2z M218.6,70.7c-0.1-2.1-0.1-3.5-0.3-4.9c-0.2-1.3-0.6-2.6-1-3.8c-0.4-1.1-1.3-1.9-2.6-2.1
		c-2.1-0.5-4,0-5.5,1.6c-1.5,1.6-2.3,3.7-2.9,5.8c-1.7,5.6-2.4,11.5-3.2,17.3c-0.8,5.3-1.4,10.6-1.9,15.9c-0.4,4.3-0.8,8.6-1,12.9
		c-0.2,3.5-0.1,7,0,10.5c0.1,1.7,0.4,3.4,0.9,5.1c0.9,2.9,3.4,4,6.1,2.8c1-0.5,2-1.4,2.7-2.4c0.8-1.2,1.4-2.6,1.8-3.9
		c2.6-8.3,3.5-16.8,4.5-25.4c0.5-4.4,0.9-8.8,1.3-13.3C217.9,81.1,218.2,75.5,218.6,70.7z"/>
	<path class="st0" d="M33.4,149.2c-1.4,0.1-2.7,0.3-4.1,0.3C22.2,149.3,15,149,8,147.2c-0.9-0.2-1.8-0.6-2.7-0.9
		c-4.7-2.1-6.7-8.1-4.3-12.7c1.2-2.3,3.3-3.1,5.7-3.5c1.5-0.2,3-0.4,4.5-0.7c2.3-0.3,4.1-1.5,5-3.7c1-2.2,1.8-4.6,2.3-6.9
		c0.8-4.5,1.3-9,1.9-13.5c0.5-4.2,1-8.4,1.3-12.5c0.3-4.4,0.8-8.9-0.3-13.3c-0.8-3-2.8-4.6-5.5-4.5c-0.7,0-1.5,0.3-2.1,0.6
		c-1.6,0.7-3.2,1.6-4.8,2.3c-2.7,1.3-4.7,0.7-5.7-2.2c-1.8-5-1.2-9.8,2.6-13.7c1.6-1.7,3.6-3.1,5.7-4.3c5.2-3.2,10.8-5.5,16.6-7.5
		c7.1-2.4,14.2-4.6,21.4-6.5c3.1-0.9,6.5-1.1,9.8-1.3c1.4-0.1,2.8,0.2,4.2,0.6c2.7,0.8,4.3,3.2,4.4,6.4c0.2,4.1-1.3,7.6-4.8,9.7
		c-3.1,1.9-4.3,4.6-4.8,8c-0.7,5.6-1.8,11.1-2.5,16.7c-0.5,3.9-0.8,7.9-1.1,11.9c-0.4,4.3-0.8,8.6-0.9,12.9c-0.2,4.9-0.1,9.8,0,14.6
		c0,2.3,1.3,3.7,3.5,4.2c1.9,0.4,3.8,0.6,5.7,0.8c1,0.1,2,0.1,3,0.3c3.1,0.4,4.8,2.6,5,5.9c0.2,5-2.3,8.9-7.4,10.5
		c-3.6,1.1-7.4,1.9-11.2,2.5c-5,0.7-10,1-15.1,1.5c-1.3,0.1-2.6,0.2-4,0.3C33.4,149.3,33.4,149.2,33.4,149.2z"/>
	<path class="st0" d="M37.8,197.3c0-2.3,0-4.5,0-6.8c-0.1-2.1-0.7-2.6-2.8-2.5c-0.9,0-1.4-0.5-1.5-1.4c-0.1-1.5,0.5-2.9,1.7-3.7
		c1.3-1,2.7-1.9,4.2-2.5c2.2-0.8,4.4-1.5,6.7-2c2.4-0.5,3.5,0.5,3.5,3c0,4-0.1,8-0.2,12c0,0.4-0.1,0.8,0,1.1
		c0.2,0.6,0.4,1.1,0.7,1.7c0.6-0.2,1.2-0.4,1.7-0.7c1.1-0.9,2-1.9,3.1-2.8c1.9-1.5,4-2.4,6.4-2.2c3.5,0.3,5.6,2.4,6.3,5.9
		c0.8,4.2-0.5,7.5-3.8,10.1c-2.5,2-2.5,2.1-0.7,4.8c0.6,0.9,1,1.8,1.6,2.6c0.7,0.9,1.5,1.7,2.4,2.4c1.4,1,1.8,2.1,0.9,3.6
		c-2.2,3.3-5.5,5.1-9.3,5.7c-1.4,0.2-2.7-0.5-3.3-1.7c-1-1.8-1.7-3.7-2.6-5.6c-0.4-0.8-0.7-1.6-1.2-2.2c-0.3-0.4-0.9-0.8-1.3-0.7
		c-0.4,0.1-0.8,0.7-1,1.1c-0.2,0.7-0.1,1.5-0.2,2.2c-0.1,1-0.1,2-0.2,2.9c-0.2,1.9-1.3,3.3-3,4c-1.7,0.7-3.5,1.2-5.3,1.6
		c-1.9,0.4-3.4-0.7-3.5-2.6c-0.2-2.4-0.1-4.7,0-7.1c0.1-2.4,0.4-4.9,0.5-7.3C37.8,205.8,37.9,197.9,37.8,197.3z M55.6,203.1
		c-0.1-1-0.1-2-1.1-2.4c-1-0.4-1.8,0-2.6,0.6c-0.1,0.1-0.2,0.2-0.4,0.4c-1.8,2.2-2.4,4.7-2.5,7.5c0,1.2,0.8,1.6,1.8,1
		C53.6,208.6,55.2,206.1,55.6,203.1z"/>
	<path class="st0" d="M280,173.8c0,0.3,0,0.7,0,1c0.1,1.1,0.9,1.5,1.8,0.8c0.6-0.4,1.1-1,1.6-1.5c2-1.9,4.3-3.5,7.2-3.9
		c2.8-0.4,5.5,1,6.7,3.6c1.7,3.8,1.5,8.4-2.2,11.6c-0.7,0.6-1.4,1.1-2.1,1.7c-0.9,0.7-1,1.7-0.4,2.6c1,1.5,1.9,3.1,3,4.6
		c0.5,0.7,1.2,1.2,1.9,1.6c1.5,1,1.9,2.1,0.9,3.6c-2.2,3.4-5.5,5.2-9.4,5.7c-1.4,0.2-2.6-0.5-3.3-1.8c-0.8-1.5-1.4-3-2.1-4.5
		c-0.5-1-0.9-2.1-1.5-3c-0.3-0.5-1.1-1.1-1.5-1c-0.5,0.2-1,0.9-1.1,1.5c-0.2,0.9-0.1,2-0.1,2.9c0,3.5-1.1,5.1-4.3,6.3
		c-1.3,0.5-2.7,0.8-4.1,1.1c-1.9,0.3-3.3-0.7-3.6-2.6c-0.2-1.5-0.2-3-0.1-4.5c0.2-4.2,0.6-8.3,0.8-12.5c0.2-4,0.3-8.1,0.4-12.1
		c0-1.7-0.1-3.5-0.2-5.2c-0.1-1.9-0.8-2.5-2.7-2.3c-0.9,0.1-1.5-0.5-1.5-1.5c-0.1-1.7,0.7-3.1,2-4c1.4-0.9,2.8-1.8,4.4-2.4
		c2-0.8,4.1-1.3,6.1-1.8c2.4-0.5,3.5,0.5,3.5,3c0,0.9,0,1.8,0,2.8C280.2,165.1,280,170.5,280,173.8z M279.7,188.3
		c0,1.7,0.5,2.2,1.7,1.8c2.5-1,4.9-4.7,4.8-7.4c0-0.9-0.1-1.7-1-2.1c-1-0.4-1.8-0.1-2.5,0.6c-0.4,0.3-0.7,0.7-1,1.2
		C280.3,184.1,279.9,186.3,279.7,188.3z"/>
	<path class="st0" d="M148.1,202.6c0.1-8.9,5.5-17.2,13.3-20.2c3.2-1.2,6.4-1.8,9.8-0.8c4.7,1.3,7.3,4.6,8.5,9.2
		c2.4,8.5-2,18.3-7.8,22.5c-3.9,2.8-8.2,4-13,3.4c-5.3-0.7-9.3-4.7-10.3-10.2C148.3,205.2,148.2,203.9,148.1,202.6z M161.4,202.1
		c0,1.2-0.1,2.4,0,3.6c0.1,0.9,0.2,1.9,0.5,2.8c0.2,0.8,0.7,1.3,1.6,1.4c0.9,0.1,1.7-0.1,2.2-1c0.3-0.5,0.5-1,0.6-1.6
		c0.3-1.6,0.5-3.3,0.6-4.9c0.2-2.4,0.4-4.7,0.4-7.1c0-1.9-0.2-3.7-0.4-5.6c-0.1-0.9-0.7-1.6-1.8-1.7c-1.1-0.1-1.8,0.4-2.3,1.3
		c-0.2,0.5-0.5,1-0.5,1.5C161.8,194.6,161.3,202.1,161.4,202.1z"/>
	<path class="st0" d="M234.7,196.3c0.2-10.3,7.9-20.1,17.9-22.4c1.9-0.4,3.8-0.7,5.7-0.1c3,1,4.6,3.2,5,6.2c0.6,4.5-1,8.4-4.2,11.5
		c-2.5,2.5-5.5,4.4-9.2,4.7c-0.5,0-1.1,0.5-1.3,0.9c-0.4,0.8-0.2,1.7,0.5,2.4c1,1.1,2.3,1.5,3.7,1.2c1.3-0.3,2.5-0.8,3.6-1.4
		c1.2-0.6,2.2-1.5,3.2-2.3c0.7-0.5,1.4-1,2.2-0.6c0.9,0.5,1.5,1.3,1.4,2.3c-0.1,1-0.4,2.1-1,3c-1.6,2.5-4.1,4.2-6.7,5.4
		c-3.4,1.6-7,2.7-10.9,2.1c-5.3-0.8-8.9-4.5-9.6-9.9C234.9,198.4,234.7,197.6,234.7,196.3z M252.7,183.2c0-0.3,0-0.6,0-0.8
		c-0.2-0.9-0.2-1.9-1.4-2.2c-0.9-0.2-1.8,0.3-2.3,1.5c-0.5,1.2-0.9,2.5-1.1,3.8c-0.2,1.3-0.3,2.6-0.2,3.9c0.1,1.3,1.3,1.6,2.4,0.8
		c0.3-0.3,0.6-0.6,0.9-1C252,187.4,252.6,185.4,252.7,183.2z"/>
	<path class="st0" d="M206.2,193.9c0.2-2.8-0.6-5.4-2-7.8c-0.6-0.9-1.1-1.9-1.6-2.9c-0.8-1.7-0.4-3.1,1-4.3c2.4-2,5.9-1.4,7.2,1.4
		c0.8,1.7,1.3,3.7,1.4,5.6c0.5,5.7-0.2,11.3-2.6,16.6c-2.2,4.8-5.4,8.6-10.4,10.4c-3.6,1.3-7.1,1.3-10.5-0.8
		c-2.7-1.7-4.2-4.2-4.3-7.3c-0.2-3.3,0.1-6.6,0.2-9.9c0-1.5,0.1-3.1,0.1-4.6c0-0.9-0.5-1.4-1.4-1.6c-2.4-0.5-3-2.1-1.6-4.2
		c0.4-0.5,0.9-1.1,1.4-1.5c2.9-2.2,6.1-3.6,9.6-4.1c2.5-0.3,4.1,1.2,4.2,4c0.1,2.5-0.2,5-0.3,7.6c0,0.4,0,0.8,0,1.2
		c-0.1,2.7-0.2,5.5-0.2,8.2c0,0.6,0.1,1.2,0.2,1.8c0.6,2.9,3.4,3.9,5.8,2.1c1.3-1,2.3-2.4,2.8-3.9
		C205.8,198,206.1,194.9,206.2,193.9z"/>
	<path class="st0" d="M146.5,207.5c-0.1,3.1-0.8,5.8-2.3,8.4c-0.8,1.5-2,2.1-3.8,2.2c-4.9,0.3-9.9,0.7-14.8,1.1
		c-0.6,0-1.3,0-1.9-0.1c-1.4-0.3-2.1-1.4-1.7-2.7c0.4-1.3,1.1-2.5,1.7-3.6c2.6-4.3,5.2-8.5,7.8-12.8c0.4-0.6,0.7-1.2,1-1.9
		c0.5-1.3-0.1-2.2-1.5-2.2c-1.2,0-2.4,0.2-3.5,0.5c-0.6,0.2-1.1,0.8-1.7,1.2c-0.2,0.2-0.3,0.5-0.5,0.8c-0.5,0.8-0.9,1.7-2,1.6
		c-1.1-0.1-1.6-1-2-2c-1-2.8-0.5-5.5,0.2-8.2c0.3-1.3,0.9-2.5,1.5-3.6c0.5-1,1.4-1.3,2.7-1.3c2.7,0.1,5.4,0,8.1-0.2
		c2.7-0.2,5.3-0.6,8-0.9c0.5,0,1,0,1.4,0c1.7,0.3,2.6,1.6,2,3.3c-0.3,0.9-0.7,1.8-1.2,2.6c-2.6,4.5-5.2,8.9-7.8,13.4
		c-0.5,0.8-0.8,1.8-1,2.7c-0.2,0.9,0.4,1.4,1.3,1.5c2.3,0.1,4.6-0.4,5.4-3c0.3-1,1-1.6,2.1-1.6c1.1,0.1,1.6,0.8,2,1.8
		c0.1,0.4,0.2,0.8,0.3,1.2C146.5,206.4,146.5,207,146.5,207.5z"/>
	<path class="st0" d="M88,205.1c0,3.7,0,7.4,0,11.1c0,1-0.2,2-0.4,2.9c-0.4,1.7-1.5,2.8-3.1,3.3c-1.7,0.6-3.4,1.1-5.2,1.4
		c-2.8,0.5-4.7-1.1-4.6-4c0-2,0.4-4.1,0.4-6.1c0.2-4,0.3-8,0.3-12c0-1.5-0.6-2-2-2.1c-2.4-0.2-3.6-2.5-2.2-4.6
		c0.4-0.6,1-1.2,1.6-1.6c2.1-1.4,4.3-2.8,6.5-4c2.8-1.5,4.3-0.8,5.1,2.2c0.1,0.5,0.2,0.9,0.4,1.4c0.2,0.7,0.5,1.5,1.3,1.4
		c0.5-0.1,1-0.8,1.4-1.3c0.4-0.6,0.6-1.4,0.9-2.1c1.6-3.9,5.7-4.6,8.5-1.5c2.6,2.9,3.3,7.1,1.3,10.8c-0.4,0.7-1,1.4-1.7,1.9
		c-1.5,1.1-3.4,1.4-4.9-0.5c-0.4-0.5-0.7-1.1-1.2-1.5c-0.4-0.4-0.9-0.8-1.4-0.8c-0.3,0-0.7,0.8-0.8,1.3
		C87.9,202.2,88,203.7,88,205.1z"/>
	<path class="st0" d="M116,193.4c-0.2,4.2-0.5,8.7-0.7,13.2c0,0.9,0,1.9,0,2.8c0.1,0.9,0.6,1.4,1.5,1.5c1.8,0.1,2.4,1.1,1.8,2.8
		c-0.7,2.1-2.3,3.5-4,4.8c-1.7,1.3-3.7,2.2-5.9,2.6c-2.9,0.6-6.1-1-6-5.4c0-2,0.2-3.9,0.3-5.9c0.2-3.5,0.3-7,0.4-10.5
		c0.1-1.8-0.1-2-1.8-2.4c-1.8-0.5-2.3-1.5-1.6-3.2c0.3-0.8,0.8-1.6,1.4-2.1c3.4-2.7,7.1-4.7,11.4-5.5c1.5-0.3,2.6,0.5,2.9,2
		C116,189.8,115.9,191.4,116,193.4z"/>
	<path class="st0" d="M230.2,183.3c-0.2,4.3-0.5,8.8-0.7,13.3c0,0.9,0,1.8,0,2.8c0,0.9,0.5,1.5,1.5,1.5c1.8,0.1,2.4,1.1,1.7,2.9
		c-0.8,2.1-2.4,3.5-4.1,4.8c-1.7,1.3-3.6,2.1-5.7,2.6c-3.1,0.6-6.1-1.1-6.1-5.4c0-1.9,0.2-3.9,0.3-5.8c0.2-3.5,0.3-7,0.4-10.6
		c0.1-1.8-0.1-1.9-1.8-2.4c-1.4-0.4-2.2-1.4-1.7-2.8c0.3-0.9,0.8-2,1.5-2.5c3.3-2.7,7.1-4.6,11.4-5.4c1.5-0.3,2.6,0.5,2.8,1.9
		C230.1,179.7,230.1,181.4,230.2,183.3z"/>
	<path class="st0" d="M38.5,15.5c0.6,2.3,2.8,3.2,4.8,1.9c0.8-0.5,1.5-1.4,2.2-2.1c0.6-0.5,1.1-1.3,2-0.8c0.9,0.5,0.9,1.5,0.7,2.4
		c-0.4,1.7-1.2,3.2-3.2,3.7c-1.7,0.5-3.2,1.5-4.9,1.8c-4.6,0.9-8.1-1.9-9-6.4c-0.8-4.1,2.3-11.4,6.6-13.6c2-1,4.1-1.7,6.4-1
		c0.4,0.1,0.8,0.2,1.2,0.2c2.5,0.2,3.8,1.6,3.9,4.1c0,0.4,0,0.8-0.1,1.1c-0.3,0.9-0.8,1.7-1.8,1.9c-1,0.2-1.5-0.6-2-1.3
		c-0.2-0.3-0.4-0.7-0.7-1c-1.2-1.7-3.1-1.7-4.4,0c-1.2,1.6-1.7,3.5-1.8,5.5c0,0.4,0,0.7,0,1.1C38.2,13.1,38.3,14.7,38.5,15.5z"/>
	<path class="st0" d="M57.7,9.7c0.8-0.4,1.4-0.7,1.9-1c0.7-0.4,1.3-1,2.1-1.3c2.3-1,4.4,0.6,4.2,3c-0.2,1.8-0.5,3.5-0.8,5.2
		c-0.2,1-0.1,2,0.6,2.9c0.2,0.3,0.2,1.1,0,1.4c-1.2,1.4-2.8,2.2-4.6,2.3c-1.3,0.1-2.1-1-1.9-2.5c0.2-1.7,0.5-3.5,0.8-5.2
		c0.1-0.5,0.2-1.1,0.1-1.6c-0.1-0.4-0.4-0.9-0.7-1c-0.4-0.1-1.2,0.1-1.4,0.4c-0.5,0.7-0.7,1.5-0.9,2.3c-0.4,1.6-0.5,3.3-0.8,4.9
		c-0.4,1.9-2.1,3.1-4.1,2.7c-1-0.2-1.6-0.9-1.5-2.1c0.3-2,0.7-4,0.9-6c0.3-2.6,0.6-5.1,0.9-7.7c0.1-0.9-0.2-1.5-1-1.9
		c-0.8-0.5-0.9-1-0.1-1.6c1.7-1.3,3.6-1.8,5.7-1.7C58,1.3,58.4,2,58.3,2.8c-0.2,1.6-0.4,3.1-0.5,4.7C57.7,8.1,57.7,8.7,57.7,9.7z"/>
	<path class="st0" d="M116.2,9.1c0.5-0.3,1.1-0.5,1.6-0.8c0.7-0.4,1.4-0.8,2.2-1.1c1.3-0.4,2.4-0.1,3.4,0.8c0.9,0.9,1.1,2.1,0.6,3.2
		c-0.4,0.9-1.2,1.8-1.9,2.5c-1,1-1.2,1.3-0.6,2.5c0.4,0.8,1,1.6,1.6,2.3c0.5,0.6,0.6,1.1,0.1,1.7c-1.1,1.2-2.5,1.9-4.2,1.8
		c-0.6,0-1.2-0.7-1.6-1.2c-0.4-0.6-0.5-1.5-0.9-2.2c-0.2-0.5-0.8-1.4-1-1.4c-0.1,0-0.3,0-0.4,0c-0.3,0-0.5,1-0.6,1.5
		c-0.4,2.3-1.3,3.2-3.6,3.3c-1.3,0.1-2.1-0.5-1.9-1.8c0.2-1.8,0.5-3.5,0.7-5.3c0.3-2.9,0.6-5.7,0.9-8.6c0.1-0.9-0.1-1.6-1.1-2
		c-0.7-0.3-0.7-0.9-0.3-1.3c0.4-0.4,0.9-0.9,1.4-1.1c1.2-0.4,2.5-0.8,3.8-1c1.2-0.2,1.7,0.3,1.6,1.5c-0.1,1.4-0.3,2.7-0.4,4
		c-0.1,0.7,0,1.4,0,2.2C115.9,9,116.1,9.1,116.2,9.1z M115.2,15.3c1.6,0,3-1.3,3.1-2.9c0-0.4-0.2-1.1-0.4-1.2c-0.4-0.2-1,0-1.4,0.2
		C115.4,12.2,114.9,13.9,115.2,15.3z"/>
	<path class="st0" d="M166.5,10.8c-0.2,1.4-0.4,3.2-0.7,4.9c-0.2,1.1-0.2,2.1,0.6,3c0.2,0.3,0.2,1.1-0.1,1.3
		c-1.2,1.5-2.8,2.3-4.7,2.2c-1.2,0-1.8-1-1.7-2.3c0.2-1.7,0.5-3.4,0.7-5.1c0.1-0.6,0.2-1.2,0.1-1.8c-0.1-0.4-0.4-1-0.7-1.1
		c-0.4-0.1-1.1,0-1.4,0.3c-0.4,0.5-0.8,1.2-0.9,1.9c-0.3,1.8-0.5,3.6-0.8,5.4c-0.3,2-2.6,3.4-4.5,2.7c-0.9-0.3-1.2-1.1-1-2
		c0.3-2.1,0.6-4.3,1-6.4c0.2-1.1,0.1-2.1-1-2.7c-0.6-0.4-0.5-0.9-0.1-1.4c1.4-1.4,3.1-2,5-2.2c0.4,0,1.1,0.6,1.4,1.1
		c0.7,1.1,1,1.3,2.2,0.6c0.9-0.6,1.8-1.2,2.8-1.6C164.8,6.7,166.7,8.1,166.5,10.8z"/>
	<path class="st0" d="M141,9.1c-0.2,2.5-0.4,5-0.5,7.5c0,0.6,0.3,1.4,0.6,1.9c0.4,0.6,0.3,1-0.1,1.5c-1,1.2-2.2,2-3.7,2.3
		c-1.2,0.2-1.7,0-2.2-1.1c-0.6-1.3-1-1.3-2.1-0.4c-0.7,0.5-1.4,1.1-2.2,1.5c-1.2,0.6-2.2,0.4-3.2-0.5c-1.4-1.5-1.6-3.3-1.3-5.2
		c0.6-3.2,1.9-6.1,4.6-8.1c1.5-1.1,3-1.4,4.7-0.4c0.9,0.5,1.8,0.5,2.6,0c0.2-0.1,0.5-0.2,0.7-0.3C140.6,7,141.1,7.4,141,9.1z
		 M131.7,16.7c0.2,0.3,0.3,1.1,0.7,1.3c0.7,0.3,1.3-0.2,1.7-0.8c1-1.6,1.7-3.3,1.9-5.2c0.1-0.5-0.3-1.1-0.5-1.6
		c-0.5,0.2-1.2,0.3-1.5,0.7C132.6,12.5,132.1,14.4,131.7,16.7z"/>
	<path class="st0" d="M183.4,9.1c-0.2,2.5-0.4,5-0.5,7.5c0,0.6,0.5,1.3,0.6,1.9c0.1,0.4,0.2,1,0,1.3c-0.9,1.3-2.3,2.1-3.9,2.4
		c-1,0.2-1.6-0.1-2.1-1c-0.7-1.4-1-1.5-2.2-0.4c-0.5,0.4-1,0.8-1.5,1.1c-2,1.2-3.7,0.6-4.7-1.5c-0.6-1.3-0.7-2.6-0.4-4
		c0.6-3.2,1.9-6,4.5-8c1.5-1.1,3.1-1.5,4.8-0.5c0.9,0.5,1.8,0.4,2.6,0c0.2-0.1,0.5-0.2,0.7-0.3C183,7,183.5,7.4,183.4,9.1z
		 M174.1,16.6c-0.1,0.6,0.3,1.1,0.7,1.3c0.3,0.2,1.2-0.2,1.5-0.5c1.3-1.7,2-3.6,2.2-5.7c0-0.5-0.3-1.1-0.6-1.3
		c-0.2-0.1-1,0.2-1.3,0.5C175,12.3,174.6,14.3,174.1,16.6z"/>
	<path class="st0" d="M145.5,170c-0.1,1.1-0.8,2.2-1.7,3c-1.9,1.7-3.8,3.3-5.7,4.9c-0.9,0.7-1.8,1.4-2.7,2c-0.9,0.6-1.8,0.7-2.7,0.1
		c-2.8-1.8-5.4-3.9-7.2-6.8c-0.5-0.8-0.7-1.9-0.6-2.8c0.2-1.7,1.9-2.4,3.4-1.5c1,0.7,2,1.5,3,2.3c2,1.6,3.2,1.6,5.3,0.2
		c1.8-1.3,3.5-2.6,5.3-3.8C143.5,166.6,145.5,167.8,145.5,170z"/>
	<path class="st0" d="M226.6,159.5c3.5,0.1,5.3,3.1,3.5,6.1c-1.9,3.1-4.9,4.8-8.4,5.7c-1.3,0.3-2.6,0.5-3.9,0
		c-2.3-0.8-3.2-2.8-2.1-5c1.5-3.2,4.4-4.9,7.6-6C224.3,159.9,225.5,159.8,226.6,159.5z"/>
	<path class="st0" d="M80.1,13.6c0.2-1.2-0.6-2.2-1-3.3C78.8,9.6,78.2,8.7,79,8c0.4-0.4,1.2-0.7,1.8-0.6c1,0.1,1.5,1,1.7,2
		c0.5,2.5-0.1,4.9-1,7.2c-1.1,2.8-3,4.9-6,5.7c-3.4,1-7-1.7-6.2-5.3c0.3-1.2,0.4-2.3,0.5-3.5c0.2-1.1,0.2-2.2-0.9-2.9
		c-0.5-0.4-0.4-0.9-0.1-1.3c0.9-1.2,4.3-2.4,5.7-1.9c0.9,0.3,1.2,1,1.1,1.8c-0.2,2-0.5,3.9-0.7,5.9c-0.1,0.6-0.1,1.1-0.1,1.7
		c0,0.8,0.1,1.7,1,2c1,0.4,1.8,0.1,2.5-0.6C79.5,16.9,79.8,15.4,80.1,13.6z"/>
	<path class="st0" d="M102.1,3.3c-0.4,4-0.8,8-1.2,11.9c-0.1,1.2-0.4,2.5,1.1,3.2c0.2,0.1,0.4,0.9,0.2,1.2c-0.4,0.6-0.9,1.2-1.6,1.5
		c-1,0.5-2.1,0.9-3.2,1.1c-1.7,0.3-2.7-0.8-2.6-2.5c0.2-2.3,0.5-4.6,0.8-6.9c0.2-2.1,0.5-4.2,0.7-6.3c0.1-0.8-0.1-1.5-1.1-1.8
		c-0.8-0.3-0.9-0.8-0.4-1.5c0.3-0.4,0.8-0.8,1.3-1c1.2-0.4,2.5-0.8,3.8-1.1C101.7,1,102.2,1.6,102.1,3.3z"/>
	<path class="st0" d="M113.9,169.7c0.3,0,0.5,0,0.7,0.1c3.6,0.5,4.5,2.3,2.7,5.5c-2.1,3.7-5.4,5.9-9.4,7.2c-1,0.3-1.9,0.1-2.6-0.7
		c-0.7-0.9-0.5-1.8,0-2.7c0.4-0.7,0.9-1.4,1.4-2.1c0.6-0.9,0.9-1.9,0.5-3c-0.4-1.1,0-1.8,0.8-2.4
		C109.7,170.2,111.8,169.9,113.9,169.7z"/>
	<path class="st0" d="M91.7,10.2c-0.2,1.6-0.5,3.9-0.9,6.1c-0.1,1-0.1,1.8,0.8,2.4c0.2,0.1,0.3,0.9,0.1,1.2
		c-1.2,1.5-2.8,2.3-4.7,2.3c-1.3,0-2.2-1-2.1-2.4c0.2-2,0.5-4,0.7-5.9c0.2-1.1,0.3-2.1-0.9-2.8c-0.2-0.1-0.3-1-0.1-1.2
		c0.4-0.5,1-1,1.6-1.3c1-0.5,2-0.8,3-1.1C91.2,7,91.8,7.6,91.7,10.2z"/>
	<path class="st0" d="M88.6,4.9c-0.9,0-1.3-0.5-1-1.2C88,2.9,88.4,1.9,88.8,1c0.1-0.3,0.4-0.6,0.7-0.6c0.7-0.2,1.4-0.4,2.1-0.4
		c0.6,0.1,1.5,0.4,1.7,0.9c0.2,0.4-0.2,1.3-0.6,1.7C91.6,3.9,90,4.6,88.6,4.9z"/>
	<path class="st0" d="M104.6,7.6c0.1-0.4,0.2-0.7,0.4-1.1c0.4-0.8,0.4-1.6-0.3-2.2c-0.6-0.6-0.9-1.3-0.3-2.1c0.5-0.7,1.1-1.2,2-0.8
		c0.9,0.3,1.4,1.1,1.2,2c-0.2,1.6-0.9,2.9-2,4c-0.2,0.2-0.5,0.3-0.7,0.4C104.7,7.9,104.5,7.9,104.6,7.6z"/>
</g>
</svg>
