<?xml version="1.0" encoding="utf-8"?>
<!-- Generator: Adobe Illustrator 16.0.0, SVG Export Plug-In . SVG Version: 6.00 Build 0)  -->
<!DOCTYPE svg PUBLIC "-//W3C//DTD SVG 1.1//EN" "http://www.w3.org/Graphics/SVG/1.1/DTD/svg11.dtd" [
	<!ENTITY ns_flows "http://ns.adobe.com/Flows/1.0/">
	<!ENTITY ns_extend "http://ns.adobe.com/Extensibility/1.0/">
	<!ENTITY ns_ai "http://ns.adobe.com/AdobeIllustrator/10.0/">
	<!ENTITY ns_graphs "http://ns.adobe.com/Graphs/1.0/">
]>
<svg version="1.1" id="Vrstva_1" xmlns:x="&ns_extend;" xmlns:i="&ns_ai;" xmlns:graph="&ns_graphs;"
	 xmlns="http://www.w3.org/2000/svg" xmlns:xlink="http://www.w3.org/1999/xlink" xmlns:a="http://ns.adobe.com/AdobeSVGViewerExtensions/3.0/"
	 x="0px" y="0px" width="298.7px" height="73.9px" viewBox="0 0 298.7 73.9" style="enable-background:new 0 0 298.7 73.9;"
	 xml:space="preserve">
<style type="text/css">
<![CDATA[
	.st0{fill:#FFFFFF;}
]]>
</style>
<g>
	<path class="st0" d="M280.1,36.4c-11.7,0-19.4,7.1-19.4,17.9c0,10.9,7.8,18.2,19.3,18.2c11.3,0,18.7-7.2,18.7-18.1
		C298.7,43.7,291.2,36.4,280.1,36.4z M279.7,66.9c-7.3,0-12.2-4.9-12.2-12.3c0-7.7,4.9-12.6,12.6-12.6c7.1,0,12,5,12,12.4
		C292,61.9,287,66.9,279.7,66.9z"/>
	<path class="st0" d="M254.1,64.6l-10.6-11.8l8.8-9.1c3.9-4,5.5-5.1,9.1-5.8v-0.6c-2,0.1-4.4,0.1-10.5,0.1c-0.5,0-1.8,0-3.6-0.1v0.6
		c0.9,0.1,1.4,0.4,1.4,0.8c0,0.4-0.4,1-0.9,1.6L238,50.8v-5.9c0-5,0.7-6.6,3.2-6.9v-0.6c-5.4,0.1-5.4,0.1-6.6,0.1
		c-1.4,0-1.4,0-6.4-0.1v0.6c2.5,0.4,3.2,1.9,3.2,6.9V64c0,5.1-0.6,6.6-3.2,7v0.6c3.4-0.1,4.9-0.1,6.7-0.1c1.9,0,3.2,0,6.2,0.1V71
		c-2.5-0.5-3.2-1.9-3.2-7v-8.9l10.7,13.2c2.1,2.6,4.3,3.4,8.7,3.4c1.6,0,2.6-0.1,5.1-0.3v-0.6C259.9,69.9,257.2,67.9,254.1,64.6z"/>
	<path class="st0" d="M18.1,44.6c-4.6-2.4-6.6-3.6-7.6-4.4c-1.9-1.6-2.7-3.2-2.7-5.1c0-3.6,3.5-6.5,8-6.5c3.9,0,7.5,1.6,9.6,4.4H26
		V24h-0.7c-0.4,0.3-0.7,0.4-1.1,0.4c-0.6,0-1.2-0.1-1.9-0.3c-3.7-1.1-5.1-1.3-7.4-1.3c-8.1,0-14.1,5.4-14.1,12.7
		c0,6.1,3,9.6,12.1,14.4c5.7,2.9,7.6,5.2,7.6,8.9c0,4.7-3.9,8.4-9,8.4c-4.3,0-8.4-1.9-10.8-4.9H0l0.6,8.6c3.9,1.4,7.1,2.1,10.7,2.1
		c10,0,16.4-5.6,16.4-14.2C27.8,52.2,24.9,48.1,18.1,44.6z"/>
	<path class="st0" d="M47,66.3h-2.2c-1.8,0-2.1-0.1-2.4-0.6c-0.2-0.4-0.2-0.4-0.3-5.5V44.8c0-4.9,0.7-6.6,3.1-6.9v-0.6
		c-5.5,0.1-5.9,0.1-6.4,0.1c-0.3,0-2.4,0-6.5-0.1v0.6c2.5,0.4,3.2,1.9,3.2,6.9V64c0,5.2-0.6,6.6-3.2,7v0.6h21.1l1.1-7.9l-0.8-0.1
		C52.6,65.8,51.1,66.3,47,66.3z"/>
	<path class="st0" d="M193.2,37.3c-0.4,0-1.4,0-2.9-0.1h-3.9v0.6c2.9,0,3.7,1.5,3.7,6.9v14.9l-23.7-25.1h-0.7V64
		c0,5.1-0.6,6.6-3.2,7v0.6c3.3-0.1,4.7-0.1,6.2-0.1c1.4,0,1.4,0,6.6,0.1V71c-2.7-0.1-3.6-1.7-3.6-7V48.9l23.7,24.9h0.6v-29
		c0-5.1,0.6-6.6,3.2-6.9v-0.6H196C194.7,37.3,193.6,37.3,193.2,37.3z"/>
	<path class="st0" d="M213.1,49.7c-2.4-1.1-3.3-2.1-3.3-3.6c0-2.5,2.4-4.1,6.2-4.1c2.8,0,4.5,0.6,6.6,2.5h0.7v-7.9h-0.7
		c-0.5,0.4-0.9,0.6-1.3,0.6c-0.2,0-0.6-0.1-1-0.1c-1.7-0.4-3.8-0.6-5.8-0.6c-7,0-11.5,3.8-11.5,9.6c0,4.8,2.6,7.6,9.2,10.5
		c4.5,1.9,6,3.3,6,5.6c0,3.1-2.6,4.9-7.2,4.9c-3.3,0-5.6-0.8-7.9-2.9h-0.9L203,71c3.4,1.1,5.7,1.5,8.7,1.5c8.3,0,13.3-3.9,13.3-10.4
		c0-2.9-1-5.4-2.7-6.9C220.6,53.5,218.5,52.3,213.1,49.7z"/>
	<path class="st0" d="M76.6,36.4c-11.7,0-19.4,7.1-19.4,17.9c0,10.9,7.8,18.2,19.3,18.2c11.3,0,18.7-7.2,18.7-18.1
		C95.2,43.7,87.7,36.4,76.6,36.4z M76.1,66.9c-7.3,0-12.2-4.9-12.2-12.3c0-7.7,4.9-12.6,12.6-12.6c7.1,0,12,5,12,12.4
		C88.5,61.9,83.5,66.9,76.1,66.9z"/>
	<path class="st0" d="M121.6,37.3v0.6c1.3,0.1,1.7,0.6,1.7,1.5c0,0.6-0.2,1.4-0.6,2.2l-8.8,20.1l-7.5-18c-0.8-1.7-1.3-3.4-1.3-4.1
		c0-1,0.6-1.6,1.9-1.8v-0.6c-2.8,0.1-4.1,0.1-7.2,0.1c-3.6,0-3.6,0-5.4-0.1v0.6c1.5,0.3,2.4,1.2,3.9,4.2l15.2,31.7h0.9l14.2-30.1
		c1.9-4.1,2.9-5.3,5-5.9v-0.6c-1.8,0.1-1.8,0.1-5,0.1C124.9,37.3,124,37.3,121.6,37.3z"/>
	<path class="st0" d="M150.9,66.3h-2.3c-2.7,0-3.1-0.4-3.1-3.1v-7.1h3.9c4.6,0,6.8,0.8,7.4,2.6h0.7c-0.1-2.2-0.1-3.4-0.1-5.1
		c0-1.7,0.1-3,0.1-5.5h-0.7c-0.9,1.9-2.9,2.6-7.4,2.6h-3.9v-8.1h4.9c5.5,0,6.6,0.3,7.6,2.4h0.8v-7.7h-23v0.6c2.6,0.5,3.2,1.8,3.2,7
		V64c0,5.2-0.6,6.6-3.2,7v0.6h22.6l1.1-8.1l-0.7-0.1C157.9,65.5,155.6,66.3,150.9,66.3z"/>
	<polygon class="st0" points="68.9,2.6 69.1,2.8 69.4,3.2 69.6,3.4 69.9,3.8 70.2,4 70.7,4.5 71,4.8 71.4,5 71.7,5.2 72.1,5.3 
		72.5,5.2 72.9,5.2 73.3,5 73.7,4.9 74,4.7 75.2,3.9 76.3,3.1 76.9,2.7 77.3,2.3 77.6,2.2 78,1.8 78.4,1.4 78.5,1 78.4,0.7 78,0.4 
		77.7,0.3 77.2,0.2 76.8,0.2 76.4,0.4 76.1,0.6 75.8,0.8 75.5,1.1 75.2,1.2 74.9,1.5 74.6,1.7 74,2.2 73.6,2.5 73.4,2.6 73,2.9 
		72.7,3 72.4,3 72.1,2.8 71.9,2.4 71.6,2.1 71.3,1.8 71,1.6 70.6,1.3 70.3,1.2 69.9,1.1 69.5,1.1 69.1,1.1 68.8,1.3 68.5,1.6 
		68.5,1.9 68.7,2.2 	"/>
	<path class="st0" d="M163.2,26.3h0.4l0.4,0l0.3,0l0.4-0.1l0.4-0.1l0.3-0.1l0.7-0.3l0.3-0.2l0.3-0.3l0.3-0.3l0.6-0.5l0.3-0.3
		l0.5-0.5l0.3-0.3l0.3-0.4l0.3-0.3l0.2-0.2l0.3-0.4l0.4-0.7l0.2-0.4l0.1-0.3l0.1-0.1l0,0.4l0.1,0.4l0.1,0.3l0.1,0.4l0.1,0.4l0.1,0.3
		l0.2,0.4l0.2,0.3l0.2,0.3l0.3,0.3l0.3,0.3l0.2,0.2l0.3,0.3l0.3,0.3l0.3,0.2l0.7,0.4l0.3,0.2l0.4,0.2l0.4,0.1l0.3,0.1l1.5,0.2h0.4
		l0.5,0l0.6,0l0.9-0.1l0.5-0.1l0.6-0.1l0.4-0.1l0.3-0.1l1.1-0.5l0.7-0.4l0.4-0.3l0.4-0.3l0.6-0.5l0.3-0.3l0.3-0.3l0.1-0.2l0.3-0.3
		l0.3-0.3l0.3-0.3l0.3-0.3l0.4-0.6l0.3-0.4l0.1-0.3l0.4-0.7l0.3-0.4l0.3-0.5l0.2-0.5L188,18l0.2-0.5l0.2-0.4l0-0.4l-0.2-0.4
		l-0.4-0.3h-0.4l-0.3,0.2l-0.2,0.3l-0.2,0.3l-0.2,0.4l-0.2,0.3l-0.2,0.3l-0.2,0.3l-0.2,0.3l-0.2,0.3l-0.2,0.3l-0.4,0.6l-0.3,0.3
		l-0.2,0.3l-0.5,0.6l-0.6,0.6l-0.3,0.3l-0.3,0.2l-0.6,0.5l-0.7,0.3l-0.7,0.3l-0.3,0.1l-0.4,0.1l-0.4,0.1l-1.1,0.2l-0.4,0h-0.4
		l-0.4,0l-0.4-0.1l-0.3,0l-0.4-0.1l-0.4-0.1l-0.7-0.4l-0.3-0.3l-0.3-0.3l-0.4-0.7l-0.3-0.8l-0.1-0.3l0-0.4v-0.7l0-0.4v-0.4l0.1-0.3
		l0.2-0.2h0.3l1.1,0.3l0.4,0l0.8,0l0.8,0.1h0.4l0.4,0l0.5-0.1l0.5,0l0.4-0.1l0.4,0l0.4-0.1l0.4-0.1l0.4-0.2l0.3-0.1l0.4-0.3l0.3-0.1
		l0.4-0.2l0.3-0.2l0.6-0.5l0.5-0.6l0.2-0.3l0.2-0.3l0.2-0.4l0.1-0.2l0.2-0.4l0.2-0.5l0.1-0.5l0-0.4l0-0.5v-0.5l0-0.4l-0.1-0.4
		l-0.1-0.4l-0.2-0.5l-0.3-0.4l-0.3-0.3L183.8,9l-0.3-0.2l-0.3-0.2l-0.4-0.2l-0.4-0.1l-0.6-0.1l-0.7-0.1L180.7,8h-0.9l-0.6,0.1
		l-0.8,0.2l-0.9,0.3L177,8.8L176.6,9l-0.4,0.2l-0.4,0.3l-0.4,0.3l-0.4,0.3l-0.4,0.3l-0.3,0.3l-0.6,0.6l-0.6,0.7l-0.3,0.3l-0.2,0.3
		l-0.2,0.4l-0.3,0.4l-0.3,0.5l-0.2,0.4l-0.2,0.5l-0.2,0.5l-0.1,0.4l-0.1,0.4l-0.1,0.4l0,0.2l-0.1,0.2l-0.1,0.4l-0.1,0.3l-0.2,0.4
		l-0.3,0.7l-0.2,0.4l-0.3,0.4l-0.1,0.2l-0.3,0.4l-0.4,0.6l-0.3,0.4l-0.2,0.3l-0.3,0.3l-0.2,0.3l-0.3,0.3l-0.2,0.3l-0.6,0.6l-0.3,0.3
		l-0.3,0.2l-0.3,0.2l-0.4,0.2l-0.4,0.1l-0.4,0l-0.3-0.2l-0.2-0.3v-0.8l0-0.4l0.3-1.1l0.1-0.3l0.1-0.4l0.1-0.4l0.1-0.3l0.1-0.4
		l0.2-0.6l0.2-0.7l0.2-0.7l0.1-0.5l0.1-0.4l0.2-0.5l0.2-0.6l0.1-0.6l0.1-0.4l0.1-0.3l0.1-0.4l0.1-0.4l0-0.3v-0.4l0-0.4v-0.8
		l-0.1-0.5l-0.1-0.5l-0.1-0.4l-0.2-0.3l-0.2-0.3l-0.2-0.3l-0.3-0.3L165,8.3l-0.4-0.2l-0.5-0.1L163.4,8h-1l-0.5,0.1l-0.6,0.1L161,8.3
		l-0.3,0.1l-0.3,0.2L160,8.9l-0.3,0.2l-0.8,0.7l-0.6,0.6l-0.3,0.3l-0.5,0.5l-0.3,0.3l-0.5,0.6l-0.2,0.3l-0.3,0.3l-0.2,0.2l0,0l0-0.3
		l0.1-0.4l0.1-0.4l0.1-0.4l0.1-0.3l0.1-0.4l0.1-0.4l0.1-0.3l0.1-0.4l-0.1-0.5l-0.4-0.4l-0.6-0.2L155,8.2l-0.7,0.1l-0.6,0.3L153.4,9
		l-0.2,0.8l-0.1,0.4l-0.1,0.3l-0.3,0.8l-0.1,0.4l-0.1,0.5l-0.1,0.6l-0.1,0.4l-0.1,0.4l-0.1,0.3l-0.1,0.4l-0.1,0.4l-0.1,0.4l-0.1,0.3
		l-0.2,0.8l-0.2,0.6l0,0.1l-0.2,0.4l-0.2,0.4l-0.2,0.5l-0.3,0.5l-0.2,0.3l-0.2,0.3l-0.2,0.3l-0.2,0.3l-1.1,1.1l-0.3,0.2l-0.5,0.3
		l-0.4,0.2l-0.4,0.2l-0.5,0.1l-0.4,0.1h-0.6l-0.6,0l-0.3-0.2l0.1-0.3l0.3-0.3l0.2-0.3l0.4-0.7l0.2-0.3l0.2-0.3l0.2-0.4l0.2-0.4
		l0.2-0.3l0.3-0.8l0.1-0.3l0.2-0.4l0.2-0.4l0.1-0.3l0.1-0.4l0.1-0.4l0.1-0.4l0-0.3l0.1-0.4l0.3-0.8l0.1-0.4l0-0.4l0.1-0.4l0.1-0.3
		l0.1-0.4l0.1-0.4l0-0.4l0.1-0.3l0.1-0.8l0-0.4l-0.2-0.3l-0.4-0.3l-0.6-0.2l-0.7-0.1l-0.7,0l-0.5,0.2l-0.3,0.3l-0.1,0.6l0,0.5l0,0.4
		l0,0.4v0.4l0,0.4l0,0.3l-0.1,0.4l-0.1,0.4l-0.1,0.3l-0.2,0.8l-0.1,0.3l-0.1,0.4l-0.3,0.9l-0.2,0.5l-0.2,0.4l-0.1,0.3l-0.2,0.4
		l-0.1,0.3l-0.1,0.4l-0.2,0.3l-0.2,0.3l-0.5,0.9l-0.3,0.3h-0.4l-0.6,0l-0.5,0.1l-0.3,0.3l-0.2,0.3l-0.1,0.4l0.1,0.6l0.2,0.6l0,0.5
		l-0.2,0.3l-0.4,0.3l-0.6,0.4l-0.6,0.3l-0.6,0.3l-0.7,0.1l-0.6,0l-0.3-0.1l-0.3-0.3l-0.2-0.3l-0.1-0.5l-0.1-0.6v-0.4l0-0.3l0-0.4
		l0-0.5l0.1-0.6l0.1-0.4l0.3-1l0.1-0.4l0.1-0.6l0.2-0.7l0.1-0.6l0.3-0.9l0.1-0.6l0.1-0.4l0.2-0.6l0.2-0.6l0.2-0.5l0.1-0.4l0.1-0.3
		l0.1-0.4l0.1-0.3l0.2-0.4l0.2-0.5l0.2-0.5l0.1-0.4V8.9L139,8.7l-0.3-0.2l-0.3-0.1l-0.4-0.1h-0.8l-0.4,0.1l-0.4,0.2l-0.3,0.2
		l-0.2,0.3l-0.1,0.4l-0.1,0.3l-0.1,0.4l-0.1,0.3l-0.1,0.4l-0.2,0.5l-0.2,0.4l-0.1,0.4l-0.2,0.5l-0.2,0.8l-0.1,0.4l-0.1,0.3l-0.2,0.3
		l-0.1,0.3l-0.1,0.4l-0.2,0.8l-0.2,0.5l0,0.1l-0.1,0.2l-0.1,0.3l-0.4,0.7l-0.3,0.7l-0.2,0.3l-0.2,0.3l-0.2,0.3l-0.5,0.6l-0.6,0.5
		l-0.3,0.3l-0.7,0.4l-0.3,0.2l-0.4,0.2l-0.4,0.1l-0.3,0l-0.5,0h-0.3l-0.3,0l0-0.3l0.2-0.5l0.4-0.8l0.3-0.5l0.1-0.4l0.2-0.5l0.2-0.4
		l0.1-0.4l0.2-0.6l0.3-1.3l0-0.4l0-0.5l0.1-0.5v-1.5l-0.2-0.8l0-0.3l0-0.4l-0.1-0.4l-0.5-0.9l-0.3-0.3L128,9.7l-0.2-0.3l-0.3-0.3
		L127,9l-0.8-0.5l-0.3-0.2l-0.4-0.1l-0.4-0.1L124.6,8L124,8h-1l-0.4,0l-0.4,0l-0.4,0.1l-0.4,0.1l-0.3,0.1l-0.5,0.2l-0.3,0.1L120,8.8
		l-0.3,0.2l-0.5,0.3l-0.5,0.3l-0.4,0.3L118,10l-0.3,0.2l-0.6,0.5l-0.6,0.5l-0.3,0.3l-0.4,0.7l-0.3,0.3l-0.2,0.3l-0.3,0.3l-0.2,0.3
		l-0.3,0.5l-0.2,0.5l-0.1,0.4l-0.2,0.3l-0.2,0.4l-0.1,0.4l-0.1,0.2l0,0l-0.2,0.3l-0.1,0.3l-0.2,0.3l-0.3,0.5l-0.1,0.3l-0.2,0.4
		l-0.2,0.3l-0.2,0.3l-0.2,0.4l-0.2,0.3l-0.6,1l-0.8,0.9l-0.3,0.3l-0.3,0.3l-0.3,0.3l-0.3,0.3l-0.6,0.4l-0.3,0.2l-0.4,0.2l-0.4,0.1
		l-0.4,0.1h-0.8l-0.4-0.1l-0.3-0.2l-0.3-0.3l-0.2-0.4l-0.2-0.3l-0.2-0.8v-0.4l0-0.4l0.1-0.4L105,20l0.1-0.4l0.1-0.3l0.1-0.4l0.7-1.4
		l0.2-0.3l0.3-0.3l0.2-0.3l0.3-0.3l0.2-0.3l0.2-0.3l0.3-0.3l0.4-0.7l0.3-0.3l0.2-0.3l0.1-0.4l0-0.4l-0.1-0.6l-0.1-0.5l-0.1-0.4
		l-0.4-0.7l-0.3-0.3l-0.3-0.3l-0.3-0.3l-0.2-0.2l-0.3-0.3L106,9l-0.3-0.3l-0.5-0.6L105,7.9l-0.3-0.3l-0.3-0.3L104.2,7l-0.1-0.3V6.4
		l0.1-0.4V4.8L104,4.4l-0.2-0.3l-0.3-0.3l-0.3-0.2l-0.4-0.1h-0.4l-0.4,0.1l-0.3,0.2L101.5,4l-0.3,0.3L101,4.6L100.9,5l-0.1,0.4v0.4
		l0,0.4l0.4,1.1l0.3,0.7l0.1,0.3v0.4l-0.1,0.4l-0.1,0.4l-0.1,0.4l-0.1,0.3l-0.1,0.4L101,11l-0.1,0.4l-0.1,0.4l-0.1,0.4l-0.3,0.8
		l-0.1,0.3l-0.1,0.4L99.9,14l-0.1,0.4l-0.2,0.3l-0.2,0.4l-0.1,0.3L99,16.1l-0.1,0.4L98.1,18l-0.2,0.3l-0.2,0.3l-0.7,1L97,20
		l-0.3,0.3l-0.2,0.3l-0.4,0.6l-0.5,0.6l-0.5,0.5l-0.3,0.3l-0.6,0.4l-0.4,0.2l-0.5,0.2l-0.6,0l-0.4-0.2L92,22.9l0-0.6l0-0.6l0.1-0.7
		l0.1-0.6l0.1-0.5l0.1-0.4l0.1-0.5l0.2-0.7l0.1-0.4l0.1-0.5l0-0.3l0.1-0.4l0.3-0.8l0.1-0.3l0.1-0.4l0.2-0.8l0.1-0.4l0.1-0.4l0.1-0.3
		l0-0.4l-0.2-0.3l-0.3-0.2l-0.7-0.3l-0.4-0.1l-0.4,0l-0.4,0.1l-0.4,0.2L91,12.7l-0.1,0.4l-0.2,0.5l-0.3,0.8l-0.2,0.5l-0.1,0.4
		L90,15.6L89.9,16l-0.1,0.3l-0.2,0.4l-0.5,1.1L88.9,18l-0.3,0.6l-0.3,0.5l-0.6,1l-0.2,0.3L87.1,21l-0.2,0.3l-0.3,0.3l-0.2,0.3
		l-0.3,0.3l-0.3,0.3l-0.3,0.3L85,23.2l-0.7,0.3l-0.4,0.1l-0.6,0l-0.5-0.1l-0.4-0.2l-0.3-0.3L82,22.9l-0.2-0.3l-0.1-0.4l0-0.4v-1.2
		l0.1-1.1l0.1-0.4l0.3-1.1l0.2-0.3l0.2-0.4l0.3-0.8L83,16l0.5-1l0.2-0.3l0.2-0.3l0.5-0.6l0.2-0.3l0.3-0.3l0.3-0.3l0.2-0.2l0.3-0.3
		l0.3-0.3l0.3-0.2l0.3-0.2l0.3-0.2l0.4-0.3l0.4-0.2l1.1-0.4l0.6-0.1l0.4,0l0.3,0H91l0.4,0.1l0.4,0.1l0.7,0.2l0.3,0.1l0.4,0.2
		l0.3,0.2l0.3,0.1l0.3,0.2l0.4,0.2l0.3,0.3l0.3,0.1l0.3,0l0.5-0.3l0.5-0.5l0.2-0.6l-0.1-0.5L96.4,10l-0.3-0.3l-0.3-0.2l-0.3-0.3
		l-1.7-0.8l-0.5-0.1L93,8.3L92,8.1L91,8l-0.8,0h-0.5l-0.4,0l-1.1,0.1l-0.4,0.1l-0.5,0.1l-0.5,0.2l-0.4,0.2L85.9,9l-0.5,0.2L85,9.4
		l-0.3,0.2l-0.3,0.2l-0.6,0.5l-0.5,0.3L83,11l-0.6,0.5l-0.3,0.3L81.9,12l-0.6,0.6l-0.3,0.3l-0.4,0.6l-0.2,0.3l-0.2,0.3L80,14.5l-1,2
		l-0.1,0l-0.3,0.6l-0.2,0.4l-0.3,0.4L78,18.3l-0.1,0.3L77.6,19l-0.4,0.6l-0.5,0.6l-0.3,0.3L75.9,21l-0.6,0.5l-0.4,0.3l-0.4,0.3
		l-1,0.6L73,23l-0.5,0.3l-0.4,0.2l-0.5,0.1l-0.4,0.1l-1,0.1h-0.9l-0.6-0.1l-0.4-0.1L68,23.4l-0.5-0.2l-0.3-0.3l-0.3-0.3l-0.3-0.3
		l-0.4-0.8L66.1,21L66,20.5l0-0.7v-0.6l0-0.4l0-0.6l0.1-0.5l0.1-0.4l0.1-0.5l0.1-0.5l0.1-0.4l0.1-0.3l0.1-0.4l0.2-0.3l0.2-0.3
		l0.2-0.3l0.2-0.4l0.3-0.5l0.4-0.5l0.3-0.4l0.3-0.3l0.3-0.4l0.3-0.3l0.3-0.2l0.3-0.3l0.3-0.2l0.4-0.2l0.5-0.2l0.5-0.1l0.4,0l0.4,0
		l0.4,0.1l0.4,0.3l0.3,0.4l0.1,0.4V12l-0.1,0.4l-0.1,0.3l-0.2,0.4l-0.3,0.4L72.9,14l-0.2,0.4v0.4l0.4,0.3l0.7,0.2h0.7l0.6-0.1
		l0.3-0.2l0.3-0.3l0.3-0.3l0.3-0.4l0.3-0.4l0.2-0.3l0.2-0.3l0.1-0.4l0.1-0.5l0-0.5l0-0.4L77,10.6l-0.2-0.5l-0.2-0.4l-0.3-0.3
		l-0.3-0.3l-0.3-0.3l-0.3-0.2l-0.3-0.2l-0.4-0.1l-0.6-0.2l-0.6-0.2L73.1,8l-0.4,0H72l-0.4,0l-0.4,0l-0.4,0.1l-0.5,0.1l-0.9,0.3
		L69,8.7l-0.3,0.2l-0.3,0.2L68,9.3l-0.3,0.2l-0.3,0.2l-0.3,0.3l-0.3,0.2l-0.3,0.3l-0.3,0.3l-0.3,0.3l-0.3,0.3l-0.1,0.2L64.9,12
		l-0.4,0.6L64.3,13l-0.7,1.4l-0.2,0.4l-0.2,0.5l-0.3,0.9l-0.1,0.4l-0.1,0.4l-0.1,0.6l-0.1,0.5l0,0.4l0,0.4l0,0.3v0.8l0,0.4l0,0.4
		l0.1,0.5l0.1,0.5l0.1,0.4l0.2,0.5l0.2,0.5l0.2,0.4l0.2,0.3l0.3,0.3l0.3,0.3l0.3,0.3l0.4,0.4l0.4,0.3l0.4,0.2l0.5,0.3l0.5,0.2
		l0.4,0.1l0.4,0.1l0.3,0l0.4,0.1l0.8,0.1l1.1-0.1l0.8-0.1l0.5-0.1l0.5-0.1l0.5-0.1l0.5-0.2l0.5-0.2l0.3-0.2l0.3-0.2l0.3-0.2l0.4-0.3
		l0.3-0.2l0.3-0.2l0.6-0.4l0.3-0.3l0.3-0.3l0.2-0.3l0.8-0.9l0.3-0.3l0.2-0.3L78,21l0-0.1v0.2l0,0.7l0.1,0.6l0,0.4l0.1,0.6l0.3,0.6
		l0.3,0.5l0.2,0.3l0.2,0.3l0.6,0.5l0.3,0.2l0.3,0.1l0.4,0.1l0.5,0.1l0.5,0.1l0.4,0l0.8-0.1l0.6-0.1l0.7-0.2l0.6-0.3l0.5-0.3l0.3-0.2
		l0.3-0.2l0.3-0.3l0.3-0.3l0.3-0.3l0.2-0.3l0.3-0.3l0.2-0.3l0.3-0.3l0.4-0.6l0.4-0.7l0.2-0.3l0.1,0.1l0,0.5l0,0.6v0.4l0,0.5l0.1,0.5
		l0.1,0.4l0.3,0.5l0.3,0.4l0.3,0.3l0.3,0.2l0.4,0.1l0.5,0.1l0.5,0h0.4l0.4-0.1l0.4-0.1l0.5-0.2l0.5-0.2l0.4-0.2l0.3-0.2l1.2-1
		l0.3-0.3l0.3-0.3l0.5-0.6l0.3-0.3l0.3-0.3l0.3-0.3l0.2-0.3l0.2-0.3l0.2-0.3l0.2-0.3l0.4-0.7l0.2-0.3l0.2-0.4l0.2-0.3l0.2-0.3
		l0.2-0.4l0-0.1l0.1-0.1l0.3-0.5l0.2-0.5l0.2-0.4l0.2-0.5l0.2-0.5l0.2-0.4l0.2-0.5l0.2-0.5l0.1-0.4l0.1-0.3l0.1-0.4l0.4-1l0.1-0.4
		l0.1-0.3l0.1-0.4l0.1-0.4l0.1-0.4l0.2-0.4l0.3-0.1l0.3,0.3l0.3,0.3l0.7,0.8l0.3,0.3l0.4,0.7l0.1,0.5l-0.1,0.6l-0.2,0.5l-0.5,0.7
		l-0.3,0.6l-0.3,0.3l-0.3,0.5l-0.3,0.5l-0.2,0.4l-0.3,0.4l-0.3,0.5l-0.2,0.4l-0.3,0.5l-0.2,0.5l-0.2,0.4l-0.1,0.3l-0.1,0.4l-0.2,1.5
		v0.4l0,0.4l0.1,0.4l0.1,0.4l0.1,0.4l0.2,0.3l0.2,0.4l0.2,0.3l0.3,0.3l0.3,0.3l0.3,0.3l0.6,0.4l0.4,0.2l0.3,0.1l0.8,0.2l0.6,0h1
		l0.4-0.1l0.3-0.1l0.4-0.1l0.3-0.2l0.4-0.2l0.7-0.3l0.4-0.3l0.3-0.3l0.5-0.5l0.3-0.3l0.5-0.6l0.3-0.4l0.3-0.5l0.5-0.7l0.4-0.7
		l0.2-0.4l0.1-0.1l0,0.3l0.1,0.8l0.2,0.8l0.3,0.8l0.2,0.3l0.2,0.3l0.2,0.3l0.5,0.6l0.3,0.3l0.7,0.4l0.3,0.2l0.4,0.1l0.3,0.1l0.4,0.1
		l0.5,0.1l0.8,0.1h0.4l0.5,0h0.4l0.3,0l0.4-0.1l0.3-0.1l0.8-0.1l0.4-0.1l0.8-0.3l0.3-0.2l0.7-0.4l0.3-0.2l0.7-0.4l0.6-0.5l0.3-0.3
		l0.3-0.2l0.3-0.1l0.3,0l0.3,0.1l0.4,0l0.5,0l1.5-0.2l0.3-0.1l0.4-0.2l0.7-0.3l0.3-0.2l0.3-0.3l0.3-0.2l0.3-0.3l0.3-0.3l0.5-0.5
		l-0.1,0.4l0,0.4v0.4l0,0.4V23l0.1,0.4l0.1,0.4l0.1,0.3l0.2,0.4l0.5,0.6l0.3,0.3l0.3,0.2l0.4,0.2l0.3,0.1l0.4,0.2l0.4,0.1h0.4
		l1.1,0.1l0.4,0l0.5,0l0.6-0.1l0.4-0.1l0.3-0.1l0.4-0.1l0.5-0.2l0.5-0.2l0.4-0.3l0.4-0.3l0.5-0.3l0.6-0.5l0.3-0.3l0.3-0.3l0.3-0.2
		l0.5,0l0.5,0.1l0.4,0.1l0.4,0l0.4,0l0.5,0l0.6-0.1l0.4,0l0.8-0.2l0.3-0.2l0.8-0.5l0.5-0.3l0.3-0.3l0.7-0.7l0,0.2l-0.1,0.4l-0.1,0.3
		l-0.1,0.4l-0.1,0.4l-0.1,0.4l-0.1,0.5l-0.1,0.6l-0.1,0.4l0,0.5l0.3,0.4l0.3,0.2l0.6,0.1l0.6,0l0.5,0l0.4,0l0.4-0.1l0.3-0.2l0.1-0.3
		l0.1-0.3l0-0.4l0.1-0.4l0.1-0.5l0.1-0.6l0.1-0.4l0.1-0.5l0.2-0.6l0.2-0.6l0.3-1.1l0.2-0.6l0.2-0.6l0.1-0.5l0.5-1.4l0.5-1l0.3-0.3
		l0.4-0.7l0.5-0.6l0.3-0.3l0.5-0.6l0.3-0.3l0.3-0.3l0.3-0.2l0.7-0.5l0.3-0.3l0.3-0.3l0.3-0.2l0.3-0.2l0.3-0.2l0.5-0.2l0.4,0l0.4,0
		l0.4,0.1l0.4,0.4l0.3,0.4l0.1,0.4l0,0.4l-0.2,0.8l0,0.4l-0.2,0.8l-0.2,0.6l-0.1,0.7l-0.2,0.7l-0.2,0.6l-0.1,0.4l-0.2,0.6l-0.2,0.7
		l-0.2,0.7l-0.1,0.7l-0.4,1.4l-0.1,0.6l0,0.4l-0.1,0.5v0.9l0.1,0.3l0.1,0.4l0.1,0.3l0.2,0.4l0.3,0.3l0.3,0.2l0.3,0.2l0.3,0.1
		l0.4,0.1l0.3,0.1L163.2,26.3z M174.6,15.9l0.1-0.3l0.2-0.4l0.2-0.5l0.3-0.5l0.2-0.4l0.3-0.4l0.3-0.5l0.3-0.3l0.3-0.4l0.4-0.4
		l0.6-0.5l0.3-0.2l0.5-0.3l0.6-0.3l0.5-0.1l0.4-0.1l0.4,0l0.4,0.1l0.4,0.2l0.3,0.3l0.3,0.3l0.2,0.4l0,0.4l0,0.4l-0.1,0.4l-0.3,0.8
		l-0.2,0.4l-0.2,0.3l-0.2,0.3l-0.3,0.3l-0.3,0.3l-0.3,0.3l-0.3,0.3l-0.3,0.2l-0.4,0.2l-0.3,0.1l-0.4,0.2l-0.4,0.1l-0.4,0.1h-1.2
		l-0.4,0l-0.8,0l-0.5-0.1l-0.2-0.2L174.6,15.9z M125.8,14.9l-0.1,0.7l-0.1,0.5l-0.3,1.1l-0.5,1.5l-0.1,0.3l-0.2,0.3l-0.3,0l-0.3-0.1
		l-0.4-0.1l-0.4,0l-0.3,0.2l-0.3,0.3l-0.2,0.5l-0.1,0.5l0.1,0.4l0.2,0.3l0.2,0.3v0.3l-0.2,0.3l-0.3,0.3L122,23l-0.3,0.2l-0.4,0.2
		l-0.3,0.2l-0.4,0.2l-0.4,0.1l-0.4,0h-0.6l-0.6-0.2l-0.5-0.2l-0.3-0.3l-0.3-0.4l-0.3-0.6l-0.2-0.7l-0.1-0.7l0-0.5l0-0.4l0-0.5
		l0.1-0.5v-0.4l0-0.4l0.1-0.4l0.1-0.3l0.3-0.8l0.1-0.3l0.1-0.4l0.8-1.7l0.2-0.3l0.4-0.6l0.2-0.3l0.3-0.3l0.2-0.3l0.3-0.3l0.3-0.3
		l0.4-0.3l0.4-0.3l0.3-0.2l0.4-0.3l0.4-0.1l0.3-0.1h0.4l0.6,0l0.6,0.1l0.5,0.2l0.3,0.3l0.3,0.4l0.3,0.6l0.2,0.7l0,0.7L125.8,14.9z"
		/>
	<polygon class="st0" points="178.9,5.2 179.3,5.3 179.7,5.3 180.1,5.2 180.4,5 180.8,4.6 181.3,4.1 181.8,3.6 182.1,3.1 182.8,2.5 
		183.2,2 183.7,1.5 183.9,0.9 183.8,0.6 183.5,0.3 183,0.1 182.4,0 182,0 181.5,0.2 181.1,0.5 180.8,0.8 180.6,1.2 180.4,1.5 
		180.1,1.9 179.9,2.1 179.7,2.5 179.4,2.8 179,3.4 178.5,4.1 178.3,4.4 178.3,4.8 178.6,5 	"/>
	<path class="st0" d="M56.7,16.8c-0.1-0.2-0.3-0.4-0.4-0.6c-0.3-0.4-0.7-0.8-1.1-1.1c0,0,0,0,0,0c-0.1-0.1-0.2-0.1-0.3-0.2
		c-0.1,0-0.2-0.1-0.3-0.2c-0.1,0-0.1-0.1-0.2-0.1c-0.1,0-0.2,0-0.2-0.1c-0.4-0.2-0.8-0.3-1.2-0.4c-0.2,0-0.3,0-0.5,0
		c-0.2,0-0.4-0.1-0.6-0.1c-0.1,0-0.3,0-0.4,0c-0.9-0.1-1.8,0.2-2.7,0.5h0c-0.1,0.1-0.3,0.1-0.4,0.1c-0.1,0.1-0.3,0.1-0.4,0.2
		c-0.3,0.1-0.6,0.3-0.9,0.4c-0.5,0.2-0.9,0.6-1.4,0.7c-0.3,0.1-0.5,0.2-0.8,0.4c-0.2,0.1-0.5,0.3-0.7,0.4l-0.7,0.3
		c-0.2,0.1-0.5,0.2-0.7,0.2c-0.1,0-0.3,0.1-0.4,0.1c-0.1,0-0.2,0.1-0.3,0.1c-0.1,0-0.3,0-0.4,0c0,0-0.1,0-0.1,0
		c-0.2,0-0.4,0.1-0.6,0.1c-0.5,0-1.1,0-1.6-0.2c-0.2-0.1-0.4-0.1-0.5-0.2l-0.5-0.3c-0.2-0.1-0.3-0.2-0.4-0.4
		c-0.1-0.1-0.3-0.3-0.4-0.4c0,0,0,0,0,0c-0.1-0.1-0.4-0.3-0.6-0.3c0,0,0,0,0,0c0,0,0,0,0,0c-0.2,0.1-0.3,0.2-0.4,0.3
		c0,0.1,0,0.1,0,0.2c0,0.1,0,0.2,0.1,0.3c0.2,0.3,0.4,0.7,0.7,1c0.3,0.3,0.6,0.5,0.9,0.7c0.3,0.2,0.7,0.3,1,0.4
		c0.3,0.1,0.8,0.2,1.2,0.2c0.3,0,0.7,0.1,1,0c0.1,0,0.2,0,0.3-0.1c0.2-0.1,0.4-0.1,0.6-0.1c0.2,0,0.5,0,0.7-0.1l0.4-0.1
		c0.4-0.1,0.7-0.2,1.1-0.4c0.4-0.2,0.7-0.3,1-0.5c0.3-0.2,0.7-0.4,1-0.6c0.4-0.2,0.8-0.4,1.1-0.6c0.4-0.2,0.7-0.4,1.1-0.5
		c0.2-0.1,0.4-0.2,0.6-0.3c0.2-0.1,0.3-0.1,0.5-0.2c0.2-0.1,0.4-0.2,0.5-0.2c0.2,0,0.4,0,0.5-0.1c0.3,0,0.5-0.1,0.7,0
		c0.4,0.1,0.8,0.1,1.1,0.2c0.2,0,0.3,0.1,0.5,0.2c0.2,0.1,0.4,0.1,0.6,0.2c0.2,0.1,0.4,0.2,0.6,0.3c0.2,0.1,0.4,0.2,0.5,0.4
		c0.3,0.2,0.5,0.6,0.7,0.9c0.1,0.2,0.2,0.4,0.2,0.5c0,0.2,0,0.4,0,0.5c0,0.4-0.2,0.6-0.4,0.9c-0.2,0.2-0.4,0.3-0.7,0.4
		c-0.2,0-0.3,0-0.5-0.1c-0.1-0.1-0.3-0.2-0.3-0.3c0-0.2,0.1-0.2,0.2-0.3c0.2-0.1,0.4-0.2,0.6-0.3c0.2-0.1,0.3-0.2,0.4-0.4
		c0.1-0.3,0.1-0.8-0.1-1.1c-0.2-0.4-0.7-0.6-1.1-0.6c-0.7,0-1.2,0.6-1.4,1.2c-0.2,0.3-0.2,0.7-0.3,1.1c0,0.2,0,0.4,0.1,0.5l0.2,0.5
		c0.1,0.2,0.2,0.4,0.3,0.5c0.2,0.1,0.3,0.2,0.5,0.3c0.1,0.1,0.3,0.2,0.4,0.2l0.3,0c0.3,0,0.6,0,0.9-0.1c0.2-0.1,0.4-0.1,0.6-0.2
		c0.2-0.1,0.4-0.2,0.5-0.3c0.3-0.2,0.5-0.6,0.7-0.9c0.1-0.2,0.2-0.4,0.3-0.6c0-0.2,0-0.4,0.1-0.6c0-0.3,0-0.6,0-0.9
		C56.9,17.3,56.8,17,56.7,16.8z M38.7,17.9C38.6,17.9,38.6,17.9,38.7,17.9c-0.2-0.1-0.4-0.2-0.5-0.2c-0.1,0-0.1,0-0.2-0.1
		c0,0-0.1,0-0.1-0.1c0-0.1,0.2,0,0.2,0C38.2,17.6,38.7,17.8,38.7,17.9C38.7,17.9,38.7,17.9,38.7,17.9z M43.4,18.1L43,18.2
		c-0.1,0-0.3,0.2-0.4,0.1c0-0.1,0.1-0.1,0.1-0.1c0.1,0,0.2,0,0.3-0.1c0,0,0,0,0,0c0.1,0,0.2-0.1,0.4-0.1C43.6,18,43.5,18,43.4,18.1z
		 M46.8,16.2C46.8,16.2,46.8,16.2,46.8,16.2c0-0.1,0.2-0.2,0.3-0.1C47.1,16.1,46.9,16.2,46.8,16.2z M50.9,14.7
		c0,0.1-0.3,0.1-0.3,0.1c-0.2,0-0.4,0-0.5,0.1l0,0c0,0,0.2-0.1,0.3-0.1L50.9,14.7C50.9,14.6,50.9,14.6,50.9,14.7z M55.2,16
		c-0.3-0.3-0.7-0.5-1-0.6c0,0-0.3-0.1-0.2-0.1c0-0.1,0.3,0,0.3,0C54.6,15.4,54.9,15.7,55.2,16C55.2,16,55.2,16,55.2,16z M53.5,20.4
		c-0.1,0-0.4-0.3-0.4-0.4c0,0,0.2,0.2,0.3,0.2C53.4,20.2,53.6,20.4,53.5,20.4z M53.4,18.4C53.4,18.4,53.4,18.4,53.4,18.4L53.4,18.4
		c-0.1-0.2,0.7-0.5,0.8-0.5c0.1,0,0.1,0,0.1,0h0C54.1,18,54,18,53.8,18.1C53.7,18.1,53.5,18.3,53.4,18.4z M56.3,18.6
		c-0.1,0,0-0.2,0-0.2l0,0c0-0.1,0.1-0.3,0.1-0.2C56.3,18.2,56.3,18.6,56.3,18.6z"/>
	<path class="st0" d="M204.3,17.3c0.3,0.2,0.7,0.4,1,0.6c0.4,0.2,0.7,0.3,1,0.5c0.3,0.1,0.7,0.3,1.1,0.4l0.4,0.1
		c0.2,0.1,0.4,0.1,0.7,0.1c0.2,0,0.4,0,0.6,0.1c0.1,0,0.2,0.1,0.3,0.1c0.3,0,0.7,0,1,0c0.4,0,0.8-0.1,1.2-0.2c0.3-0.1,0.7-0.3,1-0.4
		c0.3-0.2,0.7-0.4,0.9-0.7c0.3-0.3,0.5-0.6,0.7-1c0.1-0.1,0.1-0.2,0.1-0.3c0-0.1,0-0.1,0-0.2c-0.1-0.2-0.2-0.3-0.4-0.3c0,0,0,0,0,0
		s0,0,0,0c-0.2,0-0.5,0.2-0.6,0.3c0,0,0,0,0,0c-0.1,0.2-0.3,0.3-0.4,0.4c-0.1,0.1-0.3,0.3-0.4,0.4l-0.5,0.3
		c-0.1,0.1-0.3,0.1-0.5,0.2c-0.5,0.2-1,0.3-1.6,0.2c-0.2,0-0.4-0.1-0.6-0.1c0,0-0.1,0-0.1,0c-0.1,0-0.3,0-0.4,0
		c-0.1,0-0.2-0.1-0.3-0.1c-0.1,0-0.3-0.1-0.4-0.1c-0.3-0.1-0.5-0.1-0.7-0.2l-0.7-0.3c-0.3-0.1-0.5-0.2-0.8-0.4
		c-0.2-0.1-0.5-0.2-0.8-0.4c-0.5-0.2-0.9-0.5-1.4-0.7c-0.3-0.1-0.6-0.3-0.9-0.4c-0.1-0.1-0.3-0.1-0.4-0.2c-0.1,0-0.3-0.1-0.4-0.1h0
		c-0.8-0.4-1.8-0.6-2.7-0.5c-0.1,0-0.3,0-0.4,0c-0.2,0-0.4,0.1-0.6,0.1c-0.2,0-0.3,0-0.5,0c-0.4,0.1-0.8,0.3-1.2,0.4
		c-0.1,0-0.1,0-0.2,0.1c-0.1,0-0.1,0-0.2,0.1c-0.1,0-0.2,0.1-0.3,0.2c-0.1,0.1-0.2,0.1-0.3,0.2c0,0,0,0,0,0
		c-0.4,0.3-0.8,0.7-1.1,1.1c-0.1,0.2-0.3,0.4-0.4,0.6c-0.1,0.2-0.2,0.5-0.3,0.8c-0.1,0.3,0,0.6,0,0.9c0,0.2,0,0.4,0.1,0.6
		c0.1,0.2,0.2,0.4,0.3,0.6c0.2,0.3,0.4,0.6,0.7,0.9c0.1,0.1,0.3,0.2,0.5,0.3c0.2,0.1,0.4,0.1,0.6,0.2c0.3,0.1,0.6,0.1,0.9,0.1l0.3,0
		c0.2,0,0.3-0.1,0.4-0.2c0.2-0.1,0.3-0.1,0.5-0.3c0.2-0.1,0.3-0.3,0.3-0.5l0.2-0.5c0.1-0.2,0.1-0.4,0.1-0.5c0-0.4-0.1-0.8-0.3-1.1
		c-0.2-0.6-0.8-1.2-1.4-1.2c-0.4,0-0.9,0.2-1.1,0.6c-0.2,0.3-0.2,0.7-0.1,1.1c0.1,0.2,0.2,0.3,0.4,0.4c0.2,0.1,0.4,0.2,0.6,0.3
		c0.1,0.1,0.3,0.2,0.2,0.3c0,0.1-0.2,0.3-0.3,0.3c-0.2,0.1-0.3,0.1-0.5,0.1c-0.3,0-0.5-0.2-0.7-0.4c-0.3-0.3-0.4-0.5-0.4-0.9
		c0-0.2,0-0.4,0-0.5c0-0.2,0.1-0.4,0.2-0.5c0.1-0.3,0.4-0.7,0.7-0.9c0.2-0.1,0.3-0.3,0.5-0.4c0.2-0.1,0.3-0.2,0.6-0.3
		c0.2-0.1,0.4-0.1,0.6-0.2c0.2-0.1,0.3-0.1,0.5-0.2c0.4-0.1,0.8-0.1,1.1-0.2c0.3,0,0.5,0,0.7,0c0.2,0,0.3,0.1,0.5,0.1
		c0.2,0,0.4,0.1,0.5,0.2c0.2,0.1,0.3,0.1,0.5,0.2c0.2,0.1,0.4,0.2,0.6,0.3c0.4,0.1,0.7,0.3,1.1,0.5C203.6,16.9,204,17.1,204.3,17.3z
		 M212.6,17.6c0,0,0.2-0.1,0.2,0c0,0.1-0.1,0-0.1,0.1C212.7,17.6,212.6,17.6,212.6,17.6c-0.2,0.2-0.3,0.2-0.5,0.3c0,0,0,0-0.1,0
		c0,0,0,0,0,0C212,17.8,212.5,17.6,212.6,17.6z M207.2,18c0.1,0,0.2,0,0.4,0.1c0,0,0,0,0,0c0.1,0,0.2,0.1,0.3,0.1
		c0.1,0,0.2,0,0.1,0.1c0,0.1-0.3-0.1-0.4-0.1l-0.4-0.1C207.2,18,207.1,18,207.2,18z M203.9,16.2C203.9,16.2,203.9,16.2,203.9,16.2
		c-0.1,0-0.3,0-0.3-0.1C203.6,16,203.9,16.1,203.9,16.2z M194.5,18.6c0,0-0.1-0.4-0.1-0.4c0-0.2,0.1,0.1,0.1,0.2l0,0
		C194.5,18.4,194.6,18.5,194.5,18.6z M197.6,20c0,0.1-0.3,0.3-0.4,0.4c-0.1,0,0.1-0.1,0.1-0.2C197.4,20.2,197.6,20,197.6,20z
		 M196.9,18.1c-0.1-0.1-0.3-0.1-0.5-0.2h0c0,0,0,0,0.1,0c0.2,0,0.9,0.3,0.9,0.5l0,0c0,0,0,0,0,0C197.2,18.3,197,18.1,196.9,18.1z
		 M196.6,15.4c-0.4,0.2-0.7,0.4-1,0.6c0,0,0,0,0,0C195.8,15.7,196.1,15.4,196.6,15.4c0-0.1,0.2-0.2,0.2-0.1
		C196.8,15.3,196.6,15.4,196.6,15.4z M200.7,14.8c-0.2,0-0.4-0.1-0.5-0.1c-0.1,0-0.3,0-0.3-0.1c0,0,0,0,0,0l0.6,0.1
		C200.6,14.8,200.7,14.8,200.7,14.8L200.7,14.8z"/>
</g>
</svg>
