<?xml version="1.0" encoding="utf-8"?>
<!-- Generator: Adobe Illustrator 16.0.0, SVG Export Plug-In . SVG Version: 6.00 Build 0)  -->
<!DOCTYPE svg PUBLIC "-//W3C//DTD SVG 1.1//EN" "http://www.w3.org/Graphics/SVG/1.1/DTD/svg11.dtd" [
	<!ENTITY ns_flows "http://ns.adobe.com/Flows/1.0/">
	<!ENTITY ns_extend "http://ns.adobe.com/Extensibility/1.0/">
	<!ENTITY ns_ai "http://ns.adobe.com/AdobeIllustrator/10.0/">
	<!ENTITY ns_graphs "http://ns.adobe.com/Graphs/1.0/">
]>
<svg version="1.1" id="Vrstva_1" xmlns:x="&ns_extend;" xmlns:i="&ns_ai;" xmlns:graph="&ns_graphs;"
	 xmlns="http://www.w3.org/2000/svg" xmlns:xlink="http://www.w3.org/1999/xlink" xmlns:a="http://ns.adobe.com/AdobeSVGViewerExtensions/3.0/"
	 x="0px" y="0px" width="298.5px" height="50.6px" viewBox="0 0 298.5 50.6" style="enable-background:new 0 0 298.5 50.6;"
	 xml:space="preserve">
<style type="text/css">
<![CDATA[
	.st0{fill:#FFFFFF;}
]]>
</style>
<g>
	<path class="st0" d="M106.1,40.3V25.6c0-6.4-0.7-8.6-3.6-10.7c-2.7-2.1-7.1-3.1-13.7-3.1c-11.4,0-17.1,3.9-18.2,12.5h6.7
		c0.7-5.1,3.8-7,11.7-7c6.7,0,10.5,2.1,10.5,5.8c0,2.6-1.6,3.8-5.6,4.2c-9.4,1-12,1.3-13.2,1.5c-7.6,1.3-11.5,4.9-11.5,10.7
		c0,6.9,5.8,11.3,14.7,11.3c7.3,0,12.6-2.4,15.7-7.3c0.6,4.3,3,6.2,7.6,6.2c2.1,0,2.9-0.1,4.3-0.7v-4.6c-0.9,0.1-1.3,0.1-1.6,0.1
		C106.9,44.4,106.1,43.5,106.1,40.3z M99,37.7c-1.5,4.1-7.7,7.5-13.8,7.5c-5.1,0-9-2.5-9-5.8c0-1.3,0.7-2.8,1.9-3.7
		c1.2-1,2.8-1.5,6.5-2.1c11.4-1.9,11.4-1.9,15.1-3.4C99.8,33.2,99.6,36.3,99,37.7z"/>
	<rect x="53.2" y="13" class="st0" width="6.4" height="36.3"/>
	<rect x="53.2" class="st0" width="6.4" height="7"/>
	<path class="st0" d="M34.9,19.9c-3.3-5.3-8.4-7.9-15.3-7.9C8.1,12,0,19.8,0,31.2c0,11.2,8.1,19.2,19.5,19.2
		c6.7,0,11.8-2.5,15.3-7.6v6.5h6.4V0h-6.4V19.9z M20.9,45C12.5,45,7,39.4,7,30.7c0-7.8,5.7-13.3,13.8-13.3c8.3,0,14.4,5.9,14.4,14
		C35.2,39.3,29.2,45,20.9,45z"/>
	<polygon class="st0" points="279.5,26.9 297.2,13 287.1,13 267.3,29.1 267.3,0 260.9,0 260.9,49.4 267.3,49.4 267.3,36.4 
		274.1,31.2 289.5,49.4 298.5,49.4 	"/>
	<rect x="242.6" class="st0" width="6.4" height="7"/>
	<rect x="242.6" y="13" class="st0" width="6.4" height="36.3"/>
	<path class="st0" d="M140.8,12c-7,0-12.1,2.7-15.3,7.9V0h-6.4v49.4h6.4v-6.5c2.8,4.7,8.4,7.6,15.2,7.6c11.5,0,19.6-8,19.6-19.2
		C160.3,19.8,152.3,12,140.8,12z M139.5,45c-8.4,0-14.4-5.7-14.4-13.6c0-8.1,6.1-14,14.4-14c4.1,0,7.6,1.4,10.3,4.1
		c2.4,2.4,3.6,5.5,3.6,9.6C153.3,39.3,147.7,45,139.5,45z"/>
	<path class="st0" d="M206.7,23.3c-2.9-7.3-9.6-11.5-18.1-11.5c-11.7,0-20.1,8.4-20.1,20.1c0,11.3,8,18.8,20,18.8
		c9,0,15.9-4.4,18.7-11.8h-7c-1.8,4.2-5.6,6.4-11.3,6.4c-8.1,0-12.7-4-13.8-12h33.2C208.2,28.2,207.9,26.3,206.7,23.3z M175.1,28.3
		c1-3,1.8-4.9,2.9-6.4c2.2-3,6.1-4.7,10.4-4.7c7,0,12,4.3,13.1,11.1H175.1z"/>
	<path class="st0" d="M225.4,3.2H219V13h-6.1v5h6.1v22.8c0.1,4.7,0.1,5.1,0.7,6.2c1.1,2.4,3.8,3.4,8.9,3.4c2.1,0,3.5-0.1,5.6-0.5
		v-5.3c-1.6,0.4-2.5,0.4-4.4,0.4c-3.6,0-4.4-0.7-4.4-4.4V18h9v-5h-9V3.2z"/>
</g>
</svg>
