<?xml version="1.0" encoding="utf-8"?>
<!-- Generator: Adobe Illustrator 16.0.0, SVG Export Plug-In . SVG Version: 6.00 Build 0)  -->
<!DOCTYPE svg PUBLIC "-//W3C//DTD SVG 1.1//EN" "http://www.w3.org/Graphics/SVG/1.1/DTD/svg11.dtd" [
	<!ENTITY ns_flows "http://ns.adobe.com/Flows/1.0/">
	<!ENTITY ns_extend "http://ns.adobe.com/Extensibility/1.0/">
	<!ENTITY ns_ai "http://ns.adobe.com/AdobeIllustrator/10.0/">
	<!ENTITY ns_graphs "http://ns.adobe.com/Graphs/1.0/">
]>
<svg version="1.1" id="Vrstva_1" xmlns:x="&ns_extend;" xmlns:i="&ns_ai;" xmlns:graph="&ns_graphs;"
	 xmlns="http://www.w3.org/2000/svg" xmlns:xlink="http://www.w3.org/1999/xlink" xmlns:a="http://ns.adobe.com/AdobeSVGViewerExtensions/3.0/"
	 x="0px" y="0px" width="297.2px" height="89.6px" viewBox="0 0 297.2 89.6" style="enable-background:new 0 0 297.2 89.6;"
	 xml:space="preserve">
<style type="text/css">
<![CDATA[
	.st0{fill:none;stroke:#FFFFFF;stroke-linecap:round;stroke-linejoin:round;stroke-miterlimit:10;}
	.st1{fill:#FFFFFF;}
]]>
</style>
<g>
	<g>
		<path class="st1" d="M202.6,12.2c0.4,0,0.7-0.1,0.9-0.4c0.2-0.2,0.3-0.6,0.3-0.9c0-0.4-0.1-0.6-0.3-0.8s-0.5-0.3-0.9-0.3
			c-0.4,0-0.7,0.1-0.9,0.3c-0.2,0.2-0.3,0.5-0.3,0.9c0,0.3,0.1,0.6,0.3,0.8C201.9,12.1,202.2,12.2,202.6,12.2 M203,9.1
			c0.4,0,0.6-0.1,0.7-0.4c0.3-1,0.7-2.1,1.1-3.4c0.4-1.3,0.7-2.4,0.9-3.3c0-0.1,0-0.2,0-0.3c0-0.4-0.3-0.5-0.8-0.5
			c-0.6,0-1,0.3-1.1,0.8c-0.2,0.9-0.4,2-0.7,3.2c-0.2,1.2-0.4,2.3-0.6,3.3l0,0.1c0,0.2,0.1,0.3,0.2,0.4S202.9,9.1,203,9.1 M199,12.2
			c0.3,0,0.5-0.1,0.7-0.2c0.1-0.1,0.2-0.3,0.2-0.6c0.1-1.2,0.3-2.8,0.7-4.6c0-0.1,0-0.2,0-0.2c0-0.3-0.2-0.5-0.6-0.5
			c-0.4,0-0.6,0.1-0.8,0.2s-0.3,0.3-0.3,0.6c-0.3,1.3-0.5,2.7-0.7,4.3c0,0.2,0,0.3,0,0.4c0,0.2,0.1,0.4,0.2,0.5
			C198.6,12.1,198.7,12.2,199,12.2 M200.3,5.3c0.4,0,0.7-0.1,0.9-0.3c0.2-0.2,0.3-0.5,0.3-0.8c0-0.3-0.1-0.5-0.3-0.7
			s-0.5-0.2-0.8-0.2c-0.4,0-0.6,0.1-0.9,0.3c-0.2,0.2-0.4,0.5-0.4,0.8s0.1,0.5,0.3,0.7C199.6,5.2,199.9,5.3,200.3,5.3 M196.9,2.1
			c0.2,0,0.3,0.3,0.3,0.8c0,0.4-0.1,0.9-0.4,1.5c-0.3,0.5-0.6,1-1.1,1.5c0.1-0.7,0.2-1.3,0.4-1.9s0.3-1,0.5-1.3
			C196.6,2.3,196.8,2.1,196.9,2.1 M199.2,9.2c-0.1,0-0.2,0.1-0.3,0.2c-0.4,0.4-0.7,0.8-1,1s-0.6,0.3-1,0.3c-0.5,0-0.8-0.2-1-0.5
			c-0.2-0.4-0.3-1-0.3-1.9c0-0.2,0-0.6,0-1h1.6c1,0,1.5-0.3,1.5-0.9c0-0.2,0-0.3-0.1-0.3C198.4,6,198.3,6,198.2,6h-1.4
			c1.1-1,1.7-2.1,1.7-3.5c0-0.5-0.1-0.9-0.3-1.2c-0.2-0.3-0.5-0.5-0.8-0.5c-0.5,0-0.9,0.2-1.4,0.7s-0.8,1.1-1.1,1.9
			c-0.3,0.8-0.5,1.6-0.7,2.6h-0.7c-0.4,0-0.6,0.2-0.6,0.7c0,0.2,0,0.4,0.1,0.5c0.1,0.1,0.3,0.1,0.5,0.1h0.5c0,0.4,0,0.8,0,1.1
			c0,2.5,0.9,3.7,2.6,3.7c0.6,0,1.1-0.1,1.5-0.4c0.4-0.3,0.8-0.7,1.2-1.1c0.2-0.2,0.2-0.5,0.2-0.8c0-0.2,0-0.3-0.1-0.4
			C199.4,9.3,199.3,9.2,199.2,9.2 M190.3,12.5c0.5,0,0.9-0.1,1.2-0.4c0.6,0,1.1-0.1,1.4-0.3c0.4-0.2,0.8-0.6,1.2-1.1
			c0.2-0.2,0.2-0.5,0.2-0.8c0-0.2,0-0.3-0.1-0.4c-0.1-0.1-0.2-0.2-0.3-0.2c-0.1,0-0.2,0.1-0.3,0.2c-0.6,0.7-1.1,1.1-1.5,1.3
			c0-0.2,0-0.3,0-0.4c0-0.3-0.1-0.6-0.2-0.8c-0.1-0.3-0.4-0.6-0.6-0.9c-0.2-0.2-0.3-0.4-0.4-0.6s-0.1-0.3-0.1-0.4
			c0-0.2,0.1-0.5,0.2-0.8c0.1-0.1,0.1-0.2,0.1-0.3c0-0.1,0.1-0.2,0.1-0.2c0-0.1,0-0.2-0.1-0.2c-0.1,0-0.3-0.1-0.5-0.1
			c-0.5,0-0.9,0.2-1,0.6c-0.2,0.4-0.4,0.9-0.6,1.3c-0.2,0.4-0.4,0.7-0.5,1c-0.2,0.4-0.6,0.9-1.1,1.4l-0.2,0.2
			c-0.1,0.1-0.2,0.3-0.2,0.5c0,0.1,0,0.3,0.1,0.4c0.1,0.1,0.2,0.1,0.3,0.1c0.2,0,0.3-0.1,0.5-0.2c0.3-0.3,0.6-0.6,0.9-1
			c0.3-0.3,0.5-0.8,0.8-1.3c0.1,0.1,0.2,0.3,0.4,0.5c0.1,0.2,0.3,0.4,0.3,0.6c0.1,0.2,0.1,0.4,0.1,0.6c-0.1,0-0.2,0-0.3,0
			c-0.2,0-0.3,0-0.4,0c-0.3,0-0.6,0.1-0.7,0.2c-0.2,0.2-0.2,0.4-0.2,0.6c0,0.3,0.1,0.5,0.4,0.7C189.5,12.4,189.9,12.5,190.3,12.5
			 M184.5,10.8c-0.3,0-0.5-0.1-0.6-0.3c-0.2-0.2-0.3-0.6-0.3-1.1c0-0.6,0.1-1.1,0.3-1.4s0.5-0.5,0.8-0.5c0.2,0,0.4,0.1,0.6,0.4
			c0.2,0.2,0.3,0.6,0.3,1.1c0,0.6-0.1,1.1-0.3,1.4C185,10.6,184.8,10.8,184.5,10.8 M184.3,12.2c0.5,0,1-0.1,1.4-0.4s0.8-0.7,1-1.2
			c0.2-0.5,0.4-1.1,0.4-1.7c0-0.5-0.1-0.9-0.3-1.3c-0.2-0.4-0.5-0.7-0.8-1c-0.4-0.3-0.8-0.4-1.3-0.4c-0.5,0-1,0.1-1.4,0.4
			c-0.4,0.3-0.8,0.7-1,1.2c-0.2,0.5-0.4,1.1-0.4,1.7c0,0.5,0.1,0.9,0.3,1.3s0.4,0.7,0.8,1C183.4,12,183.8,12.2,184.3,12.2
			 M176.7,12.2c0.3,0,0.5-0.1,0.6-0.2c0.1-0.1,0.2-0.4,0.3-0.8c0.1-0.5,0.3-1,0.5-1.5s0.4-0.9,0.6-1.1c0.2-0.3,0.4-0.4,0.5-0.4
			c0.1,0,0.1,0.1,0.1,0.2c0,0.2-0.1,0.6-0.2,1.1c-0.1,0.6-0.2,1-0.2,1.3c0,0.5,0.1,0.8,0.3,1.1c0.2,0.3,0.6,0.4,1,0.4
			c0.5,0,1-0.1,1.4-0.4c0.4-0.3,0.8-0.7,1.2-1.1c0.2-0.2,0.2-0.5,0.2-0.8c0-0.2,0-0.3-0.1-0.4c-0.1-0.1-0.2-0.2-0.3-0.2
			c-0.1,0-0.2,0.1-0.3,0.2c-0.4,0.5-0.7,0.8-0.9,1c-0.2,0.2-0.4,0.3-0.6,0.3c-0.2,0-0.4-0.2-0.4-0.5c0-0.2,0.1-0.7,0.2-1.5
			c0.2-0.9,0.3-1.5,0.3-1.8c0-0.6-0.3-0.8-0.8-0.8c-0.3,0-0.6,0.1-0.9,0.3c-0.3,0.2-0.7,0.5-1,1c-0.4,0.5-0.7,1.1-1,1.8
			c0-0.4,0.1-0.7,0.1-1c0.1-0.3,0.1-0.6,0.2-0.9c0.1-0.5,0.2-0.8,0.2-0.9c0-0.1,0-0.2-0.1-0.2s-0.2-0.1-0.4-0.1
			c-0.3,0-0.6,0.1-0.7,0.2c-0.2,0.1-0.3,0.3-0.4,0.5c-0.3,1-0.5,2.1-0.5,3.2c0,0.8,0.1,1.3,0.2,1.6C176.1,12,176.3,12.2,176.7,12.2
			 M173.5,12.2c0.5,0,1.1-0.1,1.6-0.4c0.6-0.3,1-0.7,1.4-1.2c0.2-0.2,0.2-0.5,0.2-0.8c0-0.2,0-0.3-0.1-0.4c-0.1-0.1-0.2-0.2-0.3-0.2
			c-0.1,0-0.2,0.1-0.3,0.2c-0.4,0.5-0.8,0.8-1.2,1.1c-0.4,0.2-0.8,0.4-1.1,0.4c-0.9,0-1.3-0.5-1.3-1.5c0-0.4,0.1-0.7,0.2-1
			c0.1-0.3,0.2-0.5,0.4-0.7c0.2-0.2,0.4-0.3,0.6-0.3c0.1,0,0.2,0,0.2,0.1c0.1,0.1,0.1,0.1,0.1,0.3s0,0.2-0.1,0.4c0,0,0,0.1,0,0.2
			c0,0.1,0,0.1,0,0.2c0,0.1,0,0.2,0.1,0.3s0.2,0.1,0.4,0.1c0.3,0,0.5-0.1,0.6-0.4c0.2-0.2,0.2-0.6,0.2-0.9c0-0.4-0.1-0.8-0.4-1.1
			c-0.3-0.3-0.6-0.4-1.1-0.4c-0.5,0-0.9,0.1-1.4,0.4c-0.4,0.3-0.8,0.7-1.1,1.2c-0.3,0.5-0.4,1.1-0.4,1.8c0,0.8,0.2,1.4,0.7,1.9
			S172.6,12.2,173.5,12.2 M168.3,5.3c0.2,0,0.3-0.1,0.4-0.2l1.7-2.1c0.2-0.2,0.3-0.5,0.3-0.7c0-0.2-0.1-0.4-0.3-0.6
			s-0.4-0.2-0.6-0.2c-0.2,0-0.3,0-0.4,0.1c-0.1,0.1-0.2,0.2-0.3,0.4L168,4.5c0,0.1-0.1,0.2-0.1,0.2c0,0.1,0,0.2,0.1,0.3
			S168.2,5.3,168.3,5.3 M167,10.9c-0.2,0-0.3-0.1-0.4-0.2c-0.1-0.1-0.2-0.3-0.2-0.6c0-0.5,0.1-0.9,0.3-1.4c0.2-0.4,0.4-0.8,0.7-1
			s0.6-0.4,1-0.4l-0.5,2.4c-0.1,0.4-0.2,0.7-0.4,0.9C167.4,10.8,167.2,10.9,167,10.9 M166.6,12.2c0.7,0,1.2-0.4,1.7-1.1
			c0.1,0.3,0.3,0.6,0.5,0.8s0.5,0.3,0.8,0.3c0.4,0,0.8-0.1,1.1-0.5c0.4-0.3,0.8-0.7,1.1-1.1c0.2-0.2,0.2-0.5,0.2-0.8
			c0-0.2,0-0.3-0.1-0.4c-0.1-0.1-0.2-0.2-0.3-0.2c-0.1,0-0.2,0.1-0.3,0.2c-0.4,0.5-0.7,0.8-0.9,1c-0.2,0.2-0.4,0.3-0.6,0.3
			c-0.1,0-0.2,0-0.3-0.1c-0.1-0.1-0.1-0.2-0.1-0.3c0-0.4,0.1-1.1,0.3-2.1c0.1-0.7,0.2-1.1,0.2-1.3c0-0.3-0.2-0.5-0.6-0.5
			c-0.2,0-0.4,0-0.6,0.1c0-0.2-0.1-0.3-0.2-0.4c-0.1-0.1-0.2-0.1-0.4-0.1c-0.6,0-1.2,0.2-1.7,0.6c-0.5,0.4-1,0.9-1.3,1.5
			s-0.5,1.3-0.5,2c0,0.6,0.2,1.1,0.5,1.5C165.6,12,166,12.2,166.6,12.2 M156.3,12.2c0.3,0,0.5-0.1,0.6-0.2c0.1-0.1,0.2-0.4,0.3-0.8
			c0.1-0.5,0.3-0.9,0.4-1.4s0.4-0.9,0.6-1.2s0.4-0.5,0.5-0.5c0.1,0,0.1,0.1,0.1,0.2c0,0.2,0,0.5-0.1,1.1c-0.1,0.6-0.1,1.1-0.1,1.4
			c0,0.4,0.1,0.7,0.2,1c0.1,0.3,0.4,0.4,0.6,0.4c0.3,0,0.5-0.1,0.6-0.2c0.1-0.1,0.2-0.4,0.3-0.8c0.1-0.5,0.3-1,0.5-1.5
			c0.2-0.5,0.4-0.9,0.6-1.1c0.2-0.3,0.4-0.4,0.5-0.4c0.1,0,0.1,0.1,0.1,0.2c0,0.2-0.1,0.6-0.2,1.1c-0.1,0.6-0.2,1-0.2,1.3
			c0,0.5,0.1,0.8,0.3,1.1c0.2,0.3,0.6,0.4,1,0.4c0.5,0,1-0.1,1.4-0.4c0.4-0.3,0.8-0.7,1.2-1.1c0.2-0.2,0.2-0.5,0.2-0.8
			c0-0.2,0-0.3-0.1-0.4c-0.1-0.1-0.2-0.2-0.3-0.2c-0.1,0-0.2,0.1-0.3,0.2c-0.4,0.5-0.7,0.8-0.9,1c-0.2,0.2-0.4,0.3-0.6,0.3
			c-0.2,0-0.4-0.2-0.4-0.5c0-0.2,0.1-0.7,0.2-1.5c0.2-0.9,0.3-1.5,0.3-1.8c0-0.6-0.3-0.8-0.8-0.8c-0.5,0-0.9,0.2-1.5,0.7
			c-0.5,0.5-1,1.2-1.4,2.3c0-0.2,0.1-0.4,0.1-0.7c0.2-0.7,0.2-1.2,0.2-1.5c0-0.3-0.1-0.5-0.2-0.6c-0.1-0.1-0.3-0.2-0.6-0.2
			s-0.6,0.1-1,0.3c-0.3,0.2-0.7,0.6-1,1c-0.3,0.5-0.6,1-0.8,1.7c0-0.4,0.1-0.7,0.1-0.9c0.1-0.3,0.1-0.6,0.2-0.9
			c0.1-0.5,0.2-0.8,0.2-0.9c0-0.1,0-0.2-0.1-0.2s-0.2-0.1-0.4-0.1c-0.3,0-0.6,0.1-0.7,0.2c-0.2,0.1-0.3,0.3-0.4,0.5
			c-0.3,1-0.5,2.1-0.5,3.2c0,0.8,0.1,1.3,0.2,1.6C155.7,12,156,12.2,156.3,12.2 M151.9,10.8c-0.2,0-0.5-0.1-0.7-0.4
			c-0.2-0.2-0.3-0.6-0.3-1.1c0-0.6,0.1-1.1,0.3-1.4s0.5-0.5,0.9-0.5h0.1c0,0.1,0,0.3,0,0.4c0,0.3,0.1,0.6,0.2,0.9
			c0.1,0.3,0.3,0.5,0.6,0.7c-0.1,0.4-0.2,0.7-0.4,1C152.4,10.7,152.2,10.8,151.9,10.8 M156.1,8.2c-0.1,0-0.1,0-0.2,0
			c-0.6,0.1-1,0.2-1.4,0.3c-0.1-0.7-0.3-1.2-0.7-1.7s-0.9-0.7-1.6-0.7c-0.5,0-1,0.1-1.5,0.4c-0.4,0.3-0.8,0.7-1,1.2
			c-0.2,0.5-0.4,1.1-0.4,1.7c0,0.5,0.1,0.9,0.3,1.3c0.2,0.4,0.5,0.7,0.8,1c0.4,0.2,0.8,0.4,1.3,0.4c0.6,0,1.2-0.2,1.6-0.6
			c0.5-0.4,0.8-1,1-1.7c0.6,0,1.2-0.1,1.7-0.3c0.2-0.1,0.4-0.3,0.4-0.7c0-0.2,0-0.3-0.1-0.4C156.3,8.2,156.3,8.2,156.1,8.2
			 M145,10.9c-0.4,0-0.6-0.3-0.6-0.9c0-0.6,0.2-1.1,0.5-1.6c0.3-0.5,0.7-0.8,1.2-0.9c0,0.5,0,0.8,0,1c0,0.6,0,1.1,0.1,1.6
			c-0.2,0.4-0.5,0.6-0.6,0.7C145.4,10.8,145.2,10.9,145,10.9 M148.7,1.3c0.1,0,0.1,0.1,0.2,0.3C149,1.7,149,2,149,2.3
			c0,1.3-0.5,3-1.4,5c0.1-1,0.1-2,0.3-2.9c0.1-0.9,0.3-1.7,0.4-2.3C148.4,1.6,148.6,1.3,148.7,1.3 M150.3,9.2
			c-0.1,0-0.2,0.1-0.3,0.2c-0.4,0.5-0.7,0.8-1,1c-0.2,0.2-0.5,0.3-0.7,0.3c-0.2,0-0.3-0.1-0.4-0.3s-0.2-0.6-0.2-1.1
			c0.8-1.4,1.4-2.7,1.9-4c0.5-1.3,0.7-2.4,0.7-3.4c0-0.7-0.1-1.2-0.4-1.5c-0.2-0.3-0.6-0.5-0.9-0.5c-0.7,0-1.4,0.6-1.8,1.8
			c-0.5,1.2-0.8,2.6-0.9,4.3c-0.6,0.1-1.2,0.3-1.7,0.7c-0.5,0.4-0.9,0.9-1.2,1.4c-0.3,0.6-0.4,1.2-0.4,1.9c0,0.6,0.2,1.1,0.5,1.5
			c0.3,0.4,0.8,0.6,1.3,0.6c0.4,0,0.7-0.1,0.9-0.2c0.3-0.2,0.6-0.5,0.9-0.9c0.3,0.8,0.8,1.1,1.5,1.1c0.4,0,0.8-0.2,1.2-0.5
			c0.4-0.3,0.8-0.7,1.2-1.1c0.2-0.2,0.2-0.5,0.2-0.8c0-0.2,0-0.3-0.1-0.4C150.5,9.3,150.4,9.2,150.3,9.2 M136,10.8
			c-0.3,0-0.5-0.1-0.6-0.3s-0.3-0.6-0.3-1.1c0-0.6,0.1-1.1,0.3-1.4c0.2-0.3,0.5-0.5,0.8-0.5c0.2,0,0.4,0.1,0.6,0.4
			c0.2,0.2,0.3,0.6,0.3,1.1c0,0.6-0.1,1.1-0.3,1.4C136.5,10.6,136.3,10.8,136,10.8 M135.9,12.2c0.5,0,1-0.1,1.4-0.4s0.8-0.7,1-1.2
			c0.2-0.5,0.4-1.1,0.4-1.7c0-0.5-0.1-0.9-0.3-1.3c-0.2-0.4-0.5-0.7-0.8-1c-0.4-0.3-0.8-0.4-1.3-0.4c-0.5,0-1,0.1-1.4,0.4
			c-0.4,0.3-0.8,0.7-1,1.2c-0.2,0.5-0.4,1.1-0.4,1.7c0,0.5,0.1,0.9,0.3,1.3s0.4,0.7,0.8,1C134.9,12,135.4,12.2,135.9,12.2
			 M129.1,10.9c-0.4,0-0.6-0.3-0.6-0.9c0-0.6,0.2-1.1,0.5-1.6c0.3-0.5,0.7-0.8,1.2-0.9c0,0.5,0,0.8,0,1c0,0.6,0,1.1,0.1,1.6
			c-0.2,0.4-0.5,0.6-0.6,0.7C129.5,10.8,129.3,10.9,129.1,10.9 M132.9,1.3c0.1,0,0.1,0.1,0.2,0.3c0.1,0.2,0.1,0.4,0.1,0.8
			c0,1.3-0.5,3-1.4,5c0.1-1,0.1-2,0.3-2.9c0.1-0.9,0.3-1.7,0.4-2.3C132.5,1.6,132.7,1.3,132.9,1.3 M134.4,9.2
			c-0.1,0-0.2,0.1-0.3,0.2c-0.4,0.5-0.7,0.8-1,1c-0.2,0.2-0.5,0.3-0.7,0.3c-0.2,0-0.3-0.1-0.4-0.3c-0.1-0.2-0.2-0.6-0.2-1.1
			c0.8-1.4,1.4-2.7,1.9-4c0.5-1.3,0.7-2.4,0.7-3.4c0-0.7-0.1-1.2-0.4-1.5C133.7,0.2,133.4,0,133,0c-0.7,0-1.4,0.6-1.8,1.8
			c-0.5,1.2-0.8,2.6-0.9,4.3c-0.6,0.1-1.2,0.3-1.7,0.7s-0.9,0.9-1.2,1.4c-0.3,0.6-0.4,1.2-0.4,1.9c0,0.6,0.2,1.1,0.5,1.5
			c0.3,0.4,0.8,0.6,1.3,0.6c0.4,0,0.7-0.1,0.9-0.2c0.3-0.2,0.6-0.5,0.9-0.9c0.3,0.8,0.8,1.1,1.5,1.1c0.4,0,0.8-0.2,1.2-0.5
			c0.4-0.3,0.8-0.7,1.2-1.1c0.2-0.2,0.2-0.5,0.2-0.8c0-0.2,0-0.3-0.1-0.4C134.6,9.3,134.5,9.2,134.4,9.2 M120.3,1.3
			c0.1,0,0.2,0.1,0.3,0.2s0.1,0.4,0.1,0.6c0,0.6-0.2,1.3-0.5,2c-0.3,0.7-0.8,1.4-1.3,2c0.1-0.9,0.3-1.7,0.4-2.5
			c0.2-0.8,0.4-1.3,0.5-1.8C119.9,1.5,120.1,1.3,120.3,1.3 M122.4,10.8c-0.4-0.1-0.6-0.2-0.8-0.3c-0.2-0.1-0.3-0.3-0.3-0.5
			c0.6-0.3,1-0.7,1.2-1.1c0.2-0.4,0.4-0.8,0.4-1.3c0-0.4-0.1-0.8-0.4-1.1c-0.3-0.3-0.6-0.4-1-0.4c-0.5,0-1,0.2-1.5,0.7
			c-0.5,0.5-1,1.3-1.4,2.3c0-0.5,0-0.9,0-1.4c1.1-1.2,2-2.3,2.5-3.3c0.5-0.9,0.8-1.8,0.8-2.7c0-0.5-0.1-1-0.4-1.3
			c-0.2-0.3-0.6-0.5-1-0.5c-0.7,0-1.4,0.5-1.9,1.5c-0.5,1-0.9,2.2-1.2,3.6S117,7.9,117,9.2c0,0.8,0,1.4,0.1,1.8
			c0,0.4,0.1,0.7,0.3,0.9c0.1,0.2,0.3,0.3,0.6,0.3c0.3,0,0.5-0.1,0.6-0.2c0.1-0.1,0.2-0.4,0.3-0.8c0.1-0.6,0.3-1.1,0.6-1.6
			c0.2-0.5,0.5-1,0.8-1.3s0.5-0.5,0.8-0.5c0.1,0,0.2,0,0.2,0.1c0.1,0.1,0.1,0.2,0.1,0.3c0,0.3-0.1,0.5-0.2,0.7
			c-0.2,0.2-0.4,0.4-0.8,0.5c-0.3,0.1-0.5,0.4-0.5,0.7c0,0.6,0.2,1.1,0.6,1.5c0.4,0.4,0.9,0.6,1.5,0.6c0.4,0,0.6-0.1,0.8-0.3
			c0.2-0.2,0.3-0.4,0.3-0.6C122.9,11,122.8,10.8,122.4,10.8 M115.3,5.3c0.2,0,0.3-0.1,0.4-0.2l1.7-2.1c0.2-0.2,0.3-0.5,0.3-0.7
			c0-0.2-0.1-0.4-0.3-0.6c-0.2-0.2-0.4-0.2-0.6-0.2c-0.2,0-0.3,0-0.4,0.1c-0.1,0.1-0.2,0.2-0.3,0.4l-1.2,2.7c0,0.1-0.1,0.2-0.1,0.2
			c0,0.1,0,0.2,0.1,0.3S115.2,5.3,115.3,5.3 M115.3,12.2c0.7,0,1.5-0.5,2.4-1.6c0.2-0.2,0.2-0.5,0.2-0.8c0-0.2,0-0.3-0.1-0.4
			c-0.1-0.1-0.2-0.2-0.3-0.2c-0.1,0-0.2,0.1-0.3,0.2c-0.4,0.5-0.7,0.8-0.9,1s-0.4,0.3-0.6,0.3c-0.2,0-0.3-0.1-0.3-0.2
			c-0.1-0.1-0.1-0.3-0.1-0.6c0-0.3,0.1-1,0.3-1.9c0.2-0.8,0.2-1.3,0.2-1.5c0-0.3-0.2-0.4-0.7-0.4c-0.3,0-0.5,0.1-0.6,0.2
			c-0.1,0.1-0.2,0.3-0.3,0.6c-0.2,0.5-0.3,1.1-0.4,1.7c-0.1,0.6-0.1,1.1-0.1,1.5c0,0.7,0.1,1.2,0.4,1.6
			C114.4,12,114.8,12.2,115.3,12.2 M108.3,12.2c0.3,0,0.5-0.1,0.6-0.2c0.1-0.1,0.2-0.4,0.3-0.8c0.1-0.5,0.3-1,0.5-1.5
			c0.2-0.5,0.4-0.9,0.6-1.1c0.2-0.3,0.4-0.4,0.5-0.4c0.1,0,0.1,0.1,0.1,0.2c0,0.2-0.1,0.6-0.2,1.1c-0.1,0.6-0.2,1-0.2,1.3
			c0,0.5,0.1,0.8,0.3,1.1c0.2,0.3,0.6,0.4,1,0.4c0.5,0,1-0.1,1.4-0.4c0.4-0.3,0.8-0.7,1.2-1.1c0.2-0.2,0.2-0.5,0.2-0.8
			c0-0.2,0-0.3-0.1-0.4c-0.1-0.1-0.2-0.2-0.3-0.2c-0.1,0-0.2,0.1-0.3,0.2c-0.4,0.5-0.7,0.8-0.9,1c-0.2,0.2-0.4,0.3-0.6,0.3
			c-0.2,0-0.4-0.2-0.4-0.5c0-0.2,0.1-0.7,0.2-1.5c0.2-0.9,0.3-1.5,0.3-1.8c0-0.6-0.3-0.8-0.8-0.8c-0.3,0-0.6,0.1-0.9,0.3
			s-0.7,0.5-1,1c-0.4,0.5-0.7,1.1-1,1.8c0-0.4,0.1-0.7,0.1-1c0.1-0.3,0.1-0.6,0.2-0.9c0.1-0.5,0.2-0.8,0.2-0.9c0-0.1,0-0.2-0.1-0.2
			c-0.1,0-0.2-0.1-0.4-0.1c-0.3,0-0.6,0.1-0.7,0.2c-0.2,0.1-0.3,0.3-0.4,0.5c-0.3,1-0.5,2.1-0.5,3.2c0,0.8,0.1,1.3,0.2,1.6
			C107.7,12,108,12.2,108.3,12.2 M105.1,12.2c0.5,0,1.1-0.1,1.6-0.4c0.6-0.3,1-0.7,1.4-1.2c0.2-0.2,0.2-0.5,0.2-0.8
			c0-0.2,0-0.3-0.1-0.4c-0.1-0.1-0.2-0.2-0.3-0.2c-0.1,0-0.2,0.1-0.3,0.2c-0.4,0.5-0.8,0.8-1.2,1.1c-0.4,0.2-0.8,0.4-1.1,0.4
			c-0.9,0-1.3-0.5-1.3-1.5c0-0.4,0.1-0.7,0.2-1c0.1-0.3,0.2-0.5,0.4-0.7c0.2-0.2,0.4-0.3,0.6-0.3c0.1,0,0.2,0,0.2,0.1
			c0.1,0.1,0.1,0.1,0.1,0.3s0,0.2-0.1,0.4c0,0,0,0.1,0,0.2c0,0.1,0,0.1,0,0.2c0,0.1,0,0.2,0.1,0.3s0.2,0.1,0.4,0.1
			c0.3,0,0.5-0.1,0.6-0.4c0.2-0.2,0.2-0.6,0.2-0.9c0-0.4-0.1-0.8-0.4-1.1c-0.3-0.3-0.6-0.4-1.1-0.4c-0.5,0-0.9,0.1-1.4,0.4
			c-0.4,0.3-0.8,0.7-1.1,1.2c-0.3,0.5-0.4,1.1-0.4,1.8c0,0.8,0.2,1.4,0.7,1.9C103.6,11.9,104.3,12.2,105.1,12.2 M99.2,10.8
			c-0.2,0-0.5-0.1-0.7-0.4c-0.2-0.2-0.3-0.6-0.3-1.1c0-0.6,0.1-1.1,0.3-1.4c0.2-0.3,0.5-0.5,0.9-0.5h0.1c0,0.1,0,0.3,0,0.4
			c0,0.3,0.1,0.6,0.2,0.9c0.1,0.3,0.3,0.5,0.6,0.7c-0.1,0.4-0.2,0.7-0.4,1C99.7,10.7,99.4,10.8,99.2,10.8 M103.4,8.2
			c-0.1,0-0.1,0-0.2,0c-0.6,0.1-1,0.2-1.4,0.3c-0.1-0.7-0.3-1.2-0.7-1.7c-0.4-0.5-0.9-0.7-1.6-0.7c-0.5,0-1,0.1-1.5,0.4
			c-0.4,0.3-0.8,0.7-1,1.2c-0.2,0.5-0.4,1.1-0.4,1.7c0,0.5,0.1,0.9,0.3,1.3c0.2,0.4,0.5,0.7,0.8,1c0.4,0.2,0.8,0.4,1.3,0.4
			c0.6,0,1.2-0.2,1.6-0.6c0.5-0.4,0.8-1,1-1.7c0.6,0,1.2-0.1,1.7-0.3c0.2-0.1,0.4-0.3,0.4-0.7c0-0.2,0-0.3-0.1-0.4
			C103.6,8.2,103.5,8.2,103.4,8.2 M88.2,12.2c0.3,0,0.5-0.1,0.6-0.2c0.1-0.1,0.2-0.4,0.3-0.8c0.1-0.5,0.3-0.9,0.4-1.4
			s0.4-0.9,0.6-1.2c0.2-0.3,0.4-0.5,0.5-0.5c0.1,0,0.1,0.1,0.1,0.2c0,0.2,0,0.5-0.1,1.1c-0.1,0.6-0.1,1.1-0.1,1.4
			c0,0.4,0.1,0.7,0.2,1c0.1,0.3,0.4,0.4,0.6,0.4c0.3,0,0.5-0.1,0.6-0.2c0.1-0.1,0.2-0.4,0.3-0.8c0.1-0.5,0.3-1,0.5-1.5
			c0.2-0.5,0.4-0.9,0.6-1.1c0.2-0.3,0.4-0.4,0.5-0.4C94,8.1,94,8.1,94,8.3c0,0.2-0.1,0.6-0.2,1.1c-0.1,0.6-0.2,1-0.2,1.3
			c0,0.5,0.1,0.8,0.3,1.1c0.2,0.3,0.6,0.4,1,0.4c0.5,0,1-0.1,1.4-0.4c0.4-0.3,0.8-0.7,1.2-1.1c0.2-0.2,0.2-0.5,0.2-0.8
			c0-0.2,0-0.3-0.1-0.4c-0.1-0.1-0.2-0.2-0.3-0.2c-0.1,0-0.2,0.1-0.3,0.2c-0.4,0.5-0.7,0.8-0.9,1c-0.2,0.2-0.4,0.3-0.6,0.3
			c-0.2,0-0.4-0.2-0.4-0.5c0-0.2,0.1-0.7,0.2-1.5c0.2-0.9,0.3-1.5,0.3-1.8c0-0.6-0.3-0.8-0.8-0.8c-0.5,0-0.9,0.2-1.5,0.7
			c-0.5,0.5-1,1.2-1.4,2.3c0-0.2,0.1-0.4,0.1-0.7c0.2-0.7,0.2-1.2,0.2-1.5c0-0.3-0.1-0.5-0.2-0.6c-0.1-0.1-0.3-0.2-0.6-0.2
			c-0.3,0-0.6,0.1-1,0.3c-0.3,0.2-0.7,0.6-1,1c-0.3,0.5-0.6,1-0.8,1.7c0-0.4,0.1-0.7,0.1-0.9C89,8,89.1,7.7,89.1,7.3
			c0.1-0.5,0.2-0.8,0.2-0.9c0-0.1,0-0.2-0.1-0.2S89,6.1,88.9,6.1c-0.3,0-0.6,0.1-0.7,0.2c-0.2,0.1-0.3,0.3-0.4,0.5
			c-0.3,1-0.5,2.1-0.5,3.2c0,0.8,0.1,1.3,0.2,1.6C87.6,12,87.8,12.2,88.2,12.2 M83.8,10.8c-0.2,0-0.5-0.1-0.6-0.4
			c-0.2-0.2-0.3-0.6-0.3-1.1c0-0.6,0.1-1.1,0.3-1.4c0.2-0.3,0.5-0.5,0.9-0.5h0.1c0,0.1,0,0.3,0,0.4c0,0.3,0.1,0.6,0.2,0.9
			c0.1,0.3,0.3,0.5,0.6,0.7c-0.1,0.4-0.2,0.7-0.4,1C84.3,10.7,84.1,10.8,83.8,10.8 M88,8.2c-0.1,0-0.1,0-0.2,0
			c-0.6,0.1-1,0.2-1.4,0.3c-0.1-0.7-0.3-1.2-0.7-1.7c-0.4-0.5-0.9-0.7-1.6-0.7c-0.5,0-1,0.1-1.5,0.4c-0.4,0.3-0.8,0.7-1,1.2
			c-0.2,0.5-0.4,1.1-0.4,1.7c0,0.5,0.1,0.9,0.3,1.3c0.2,0.4,0.5,0.7,0.8,1c0.4,0.2,0.8,0.4,1.3,0.4c0.6,0,1.2-0.2,1.6-0.6
			c0.5-0.4,0.8-1,1-1.7c0.6,0,1.2-0.1,1.7-0.3c0.2-0.1,0.4-0.3,0.4-0.7c0-0.2,0-0.3-0.1-0.4S88.1,8.2,88,8.2 M74.6,16.7
			c-0.1,0-0.2-0.1-0.2-0.2c-0.1-0.1-0.1-0.4-0.1-0.6c0-0.5,0.1-1.2,0.3-2c0.2-0.8,0.5-1.6,0.9-2.5c0,1.5-0.1,2.8-0.3,3.8
			C75,16.2,74.8,16.7,74.6,16.7 M77,10.9c0-0.2,0-0.5,0-0.9c0-0.7,0-1.3,0-1.7c0.4-0.7,0.8-1,1.1-1c0.2,0,0.3,0.1,0.4,0.2
			c0.1,0.1,0.2,0.3,0.2,0.6c0,0.4-0.1,0.9-0.2,1.3s-0.4,0.7-0.6,1C77.6,10.7,77.3,10.9,77,10.9 M82.1,9.2c-0.1,0-0.2,0.1-0.3,0.2
			c-0.4,0.5-0.7,0.8-1,1c-0.3,0.2-0.5,0.3-0.8,0.3c-0.1,0-0.3,0-0.5-0.1c0.3-0.4,0.5-0.7,0.6-1.2c0.1-0.4,0.2-0.9,0.2-1.3
			c0-0.6-0.2-1.1-0.5-1.5c-0.3-0.4-0.7-0.6-1.2-0.6c-0.3,0-0.6,0.1-0.8,0.2C77.6,6.5,77.3,6.7,77,7c0-0.1,0-0.3,0-0.5
			c0-0.2-0.1-0.4-0.1-0.4C76.8,6.1,76.7,6,76.5,6c-0.3,0-0.6,0.1-0.8,0.2c-0.2,0.1-0.3,0.3-0.3,0.6c0,0.5,0,1.4,0,2.6
			c-0.8,1.3-1.4,2.6-1.8,3.7c-0.4,1.1-0.6,2.1-0.6,2.9c0,0.6,0.1,1.1,0.3,1.4s0.6,0.5,1,0.5c0.8,0,1.3-0.6,1.7-1.7
			c0.4-1.1,0.6-2.5,0.8-4.2c0.5,0,1-0.2,1.5-0.5c0.3,0.3,0.7,0.5,1.1,0.5c0.5,0,1-0.1,1.4-0.4c0.4-0.3,0.8-0.7,1.2-1.1
			c0.2-0.2,0.2-0.5,0.2-0.8c0-0.2,0-0.3-0.1-0.4C82.3,9.3,82.2,9.2,82.1,9.2 M70.6,5.3c0.2,0,0.3-0.1,0.4-0.2l1.7-2.1
			C72.9,2.7,73,2.4,73,2.2c0-0.2-0.1-0.4-0.3-0.6c-0.2-0.2-0.4-0.2-0.6-0.2c-0.2,0-0.3,0-0.4,0.1c-0.1,0.1-0.2,0.2-0.3,0.4l-1.2,2.7
			c0,0.1-0.1,0.2-0.1,0.2c0,0.1,0,0.2,0.1,0.3C70.4,5.2,70.5,5.3,70.6,5.3 M69.5,12.2c0.3,0,0.5-0.1,0.7-0.2
			c0.1-0.1,0.2-0.3,0.2-0.6c0.1-1.2,0.3-2.8,0.7-4.6c0-0.1,0-0.2,0-0.2c0-0.3-0.2-0.5-0.6-0.5c-0.4,0-0.6,0.1-0.8,0.2
			c-0.2,0.1-0.3,0.3-0.3,0.6c-0.3,1.3-0.5,2.7-0.7,4.3c0,0.2,0,0.3,0,0.4c0,0.2,0.1,0.4,0.2,0.5C69,12.1,69.2,12.2,69.5,12.2
			 M66.2,5.3c0.3,0,0.5-0.1,0.7-0.2c0.2-0.1,0.4-0.3,0.5-0.6L68.8,2C68.9,1.8,69,1.7,69,1.5c0-0.2-0.1-0.3-0.2-0.4
			C68.7,1.1,68.6,1,68.4,1s-0.3,0-0.5,0.1c-0.1,0.1-0.3,0.3-0.4,0.5L66.4,4l-0.3-2.3c0-0.3-0.1-0.4-0.2-0.5C65.7,1.1,65.6,1,65.4,1
			c-0.2,0-0.4,0.1-0.5,0.2c-0.1,0.1-0.2,0.3-0.2,0.5c0,0.1,0,0.2,0,0.3l0.6,2.3c0.1,0.3,0.2,0.6,0.3,0.7C65.7,5.2,65.9,5.3,66.2,5.3
			 M65.9,12.5c0.5,0,0.9-0.1,1.2-0.4c0.6,0,1.1-0.1,1.4-0.3c0.4-0.2,0.8-0.6,1.2-1.1c0.2-0.2,0.2-0.5,0.2-0.8c0-0.2,0-0.3-0.1-0.4
			c-0.1-0.1-0.2-0.2-0.3-0.2c-0.1,0-0.2,0.1-0.3,0.2c-0.6,0.7-1.1,1.1-1.5,1.3c0-0.2,0-0.3,0-0.4c0-0.3-0.1-0.6-0.2-0.8
			C67.5,9.3,67.3,9,67,8.6c-0.2-0.2-0.3-0.4-0.4-0.6s-0.1-0.3-0.1-0.4c0-0.2,0.1-0.5,0.2-0.8c0.1-0.1,0.1-0.2,0.1-0.3
			c0-0.1,0.1-0.2,0.1-0.2c0-0.1,0-0.2-0.1-0.2C66.6,6,66.5,6,66.2,6c-0.5,0-0.9,0.2-1,0.6C65,7,64.8,7.4,64.6,7.8
			c-0.2,0.4-0.4,0.7-0.5,1c-0.2,0.4-0.6,0.9-1.1,1.4l-0.2,0.2c-0.1,0.1-0.2,0.3-0.2,0.5c0,0.1,0,0.3,0.1,0.4
			c0.1,0.1,0.2,0.1,0.3,0.1c0.2,0,0.3-0.1,0.5-0.2c0.3-0.3,0.6-0.6,0.9-1C64.8,9.9,65,9.5,65.3,9c0.1,0.1,0.2,0.3,0.4,0.5
			c0.1,0.2,0.3,0.4,0.3,0.6c0.1,0.2,0.1,0.4,0.1,0.6c-0.1,0-0.2,0-0.3,0s-0.3,0-0.4,0c-0.3,0-0.6,0.1-0.7,0.2
			c-0.2,0.2-0.2,0.4-0.2,0.6c0,0.3,0.1,0.5,0.4,0.7S65.4,12.5,65.9,12.5 M57,16.7c-0.1,0-0.2-0.1-0.2-0.2c-0.1-0.1-0.1-0.4-0.1-0.6
			c0-0.5,0.1-1.2,0.3-2c0.2-0.8,0.5-1.6,0.9-2.5c0,1.5-0.1,2.8-0.3,3.8C57.4,16.2,57.2,16.7,57,16.7 M59.4,10.9c0-0.2,0-0.5,0-0.9
			c0-0.7,0-1.3,0-1.7c0.4-0.7,0.8-1,1.1-1c0.2,0,0.3,0.1,0.4,0.2c0.1,0.1,0.2,0.3,0.2,0.6c0,0.4-0.1,0.9-0.2,1.3
			c-0.2,0.4-0.4,0.7-0.6,1C60,10.7,59.7,10.9,59.4,10.9 M62.7,8.2c0-0.6-0.2-1.1-0.5-1.5c-0.3-0.4-0.7-0.6-1.2-0.6
			c-0.3,0-0.6,0.1-0.9,0.2C60,6.5,59.7,6.7,59.4,7c0-0.1,0-0.3,0-0.5c0-0.2-0.1-0.4-0.1-0.4C59.2,6.1,59.1,6,58.9,6
			c-0.3,0-0.6,0.1-0.8,0.2c-0.2,0.1-0.3,0.3-0.3,0.6c0,0.5,0,1.4,0,2.6c-0.8,1.3-1.4,2.6-1.8,3.7c-0.4,1.1-0.6,2.1-0.6,2.9
			c0,0.6,0.1,1.1,0.3,1.4c0.2,0.3,0.6,0.5,1,0.5c0.8,0,1.3-0.6,1.7-1.7c0.4-1.1,0.6-2.5,0.8-4.2c0.6,0,1.1-0.2,1.7-0.6
			s0.9-0.9,1.2-1.5C62.6,9.5,62.7,8.9,62.7,8.2 M54.8,7.4c0.2,0,0.3,0,0.4,0.1c0.1,0.1,0.1,0.2,0.1,0.4c0,0.3-0.1,0.6-0.4,0.8
			c-0.3,0.2-0.7,0.4-1.2,0.5v0c0-0.5,0.1-1,0.3-1.3C54.2,7.6,54.5,7.4,54.8,7.4 M58.1,9.2c-0.1,0-0.2,0.1-0.3,0.2
			c-0.4,0.4-0.8,0.8-1.3,1.1c-0.5,0.3-0.9,0.4-1.3,0.4c-0.6,0-1-0.2-1.2-0.6c1-0.2,1.7-0.6,2.2-1c0.4-0.4,0.6-0.9,0.6-1.5
			c0-0.5-0.1-0.9-0.5-1.2c-0.3-0.3-0.7-0.4-1.2-0.4c-0.6,0-1.1,0.2-1.5,0.5c-0.4,0.3-0.8,0.7-1,1.2c-0.2,0.5-0.4,1.1-0.4,1.7
			c0,0.9,0.2,1.5,0.7,2c0.5,0.5,1.2,0.7,2.1,0.7c0.7,0,1.3-0.2,1.9-0.5c0.6-0.3,1-0.7,1.3-1.1c0.2-0.2,0.2-0.5,0.2-0.8
			c0-0.2,0-0.3-0.1-0.4C58.3,9.3,58.2,9.2,58.1,9.2 M51.4,1.3c0.2,0,0.4,0.3,0.4,1c0,0.8-0.2,1.8-0.5,2.8c-0.4,1-0.8,2-1.5,3
			c0-1,0.1-2,0.3-3c0.2-1.1,0.4-1.9,0.7-2.7C51,1.6,51.2,1.3,51.4,1.3 M53,9.2c-0.1,0-0.2,0.1-0.3,0.2c-0.4,0.5-0.8,0.8-1,1
			c-0.3,0.2-0.6,0.3-0.9,0.3c-0.2,0-0.4-0.1-0.5-0.2c-0.1-0.2-0.2-0.4-0.3-0.8c1-1.3,1.7-2.7,2.3-4C52.7,4.4,53,3.2,53,2.2
			c0-0.7-0.1-1.3-0.4-1.6c-0.2-0.4-0.6-0.6-1-0.6c-0.7,0-1.4,0.5-1.9,1.4c-0.5,1-0.9,2.1-1.2,3.5c-0.3,1.3-0.4,2.5-0.4,3.6
			c0,1.1,0.2,2,0.5,2.7s0.9,1,1.7,1c0.5,0,1-0.1,1.5-0.4c0.4-0.3,0.8-0.7,1.2-1.1c0.2-0.2,0.2-0.5,0.2-0.8c0-0.2,0-0.3-0.1-0.4
			C53.2,9.3,53.1,9.2,53,9.2 M42.9,16.7c-0.2,0-0.4-0.2-0.4-0.5c0-0.3,0.1-0.7,0.4-1.2c0.3-0.5,0.8-1,1.4-1.5
			c-0.2,1.1-0.5,1.9-0.7,2.4C43.4,16.5,43.2,16.7,42.9,16.7 M48.5,9.3c-0.1,0-0.2,0-0.3,0.1c-0.6,0.4-1.2,0.8-1.9,1.3l0.1-0.9
			c0.3-1.8,0.4-2.9,0.4-3.3c0-0.1,0-0.2-0.1-0.3c-0.1-0.1-0.3-0.1-0.5-0.1c-0.3,0-0.6,0.1-0.7,0.2c-0.2,0.1-0.3,0.3-0.3,0.5
			c-0.1,0.9-0.2,1.6-0.2,2.1c-0.1,0.8-0.2,1.6-0.3,2.4L44.7,12c-1.3,1-2.2,1.9-2.7,2.6c-0.5,0.7-0.7,1.3-0.7,2
			c0,0.4,0.1,0.8,0.4,1.1s0.6,0.4,1.1,0.4c0.8,0,1.5-0.5,2-1.5c0.5-1,1-2.4,1.3-4.2c1-0.7,1.8-1.2,2.4-1.6c0.1-0.1,0.2-0.2,0.3-0.3
			c0.1-0.1,0.1-0.3,0.1-0.5c0-0.2,0-0.3-0.1-0.4C48.7,9.3,48.7,9.3,48.5,9.3 M46.2,5.3c0.4,0,0.7-0.1,0.9-0.3
			c0.2-0.2,0.3-0.5,0.3-0.8c0-0.3-0.1-0.5-0.3-0.7c-0.2-0.2-0.5-0.2-0.8-0.2c-0.4,0-0.6,0.1-0.9,0.3c-0.2,0.2-0.4,0.5-0.4,0.8
			s0.1,0.5,0.3,0.7C45.6,5.2,45.9,5.3,46.2,5.3 M40.8,10.9c-0.2,0-0.3-0.1-0.4-0.2c-0.1-0.1-0.2-0.3-0.2-0.6c0-0.5,0.1-0.9,0.3-1.4
			c0.2-0.4,0.4-0.8,0.7-1s0.6-0.4,1-0.4l-0.5,2.4c-0.1,0.4-0.2,0.7-0.4,0.9C41.2,10.8,41,10.9,40.8,10.9 M40.4,12.2
			c0.7,0,1.2-0.4,1.7-1.1c0.1,0.3,0.3,0.6,0.5,0.8s0.5,0.3,0.8,0.3c0.4,0,0.8-0.1,1.1-0.5c0.4-0.3,0.8-0.7,1.1-1.1
			c0.2-0.2,0.2-0.5,0.2-0.8c0-0.2,0-0.3-0.1-0.4c-0.1-0.1-0.2-0.2-0.3-0.2c-0.1,0-0.2,0.1-0.3,0.2c-0.4,0.5-0.7,0.8-0.9,1
			c-0.2,0.2-0.4,0.3-0.6,0.3c-0.1,0-0.2,0-0.3-0.1c-0.1-0.1-0.1-0.2-0.1-0.3c0-0.4,0.1-1.1,0.3-2.1c0.1-0.7,0.2-1.1,0.2-1.3
			c0-0.3-0.2-0.5-0.6-0.5c-0.2,0-0.4,0-0.6,0.1c0-0.2-0.1-0.3-0.2-0.4c-0.1-0.1-0.2-0.1-0.4-0.1c-0.6,0-1.2,0.2-1.7,0.6
			s-1,0.9-1.3,1.5c-0.3,0.6-0.5,1.3-0.5,2c0,0.6,0.2,1.1,0.5,1.5C39.4,12,39.9,12.2,40.4,12.2 M29.8,12.2c0.3,0,0.6-0.1,0.7-0.3
			c0.1-0.2,0.2-0.5,0.3-0.9c0.2-1.9,0.6-3.5,1-4.7c0.4-1.2,0.9-2.1,1.4-2.7c0.5-0.5,1-0.8,1.5-0.8c0.3,0,0.5,0.1,0.7,0.2
			c0.2,0.2,0.2,0.4,0.2,0.7c0,0.2,0,0.3,0,0.5c0,0.2-0.1,0.4-0.1,0.6c0,0.2-0.1,0.3-0.1,0.4l-0.5,2.4c-0.1,0.5-0.2,0.9-0.2,1.3
			c0,0.3-0.1,0.6-0.1,0.9c0,0.7,0.2,1.3,0.6,1.7c0.4,0.4,1,0.6,1.7,0.6c0.5,0,0.9-0.1,1.4-0.4c0.4-0.2,0.9-0.6,1.3-1.2
			c0.2-0.2,0.2-0.5,0.2-0.8c0-0.2,0-0.3-0.1-0.4c-0.1-0.1-0.2-0.2-0.3-0.2c-0.1,0-0.2,0.1-0.3,0.2c-0.4,0.4-0.7,0.8-1,0.9
			c-0.3,0.2-0.5,0.3-0.8,0.3c-0.3,0-0.5-0.1-0.7-0.3c-0.2-0.2-0.3-0.5-0.3-0.8c0-0.3,0-0.7,0.1-1.1l0.8-3.7c0.1-0.5,0.2-1,0.2-1.4
			c0-0.7-0.2-1.2-0.5-1.6c-0.4-0.4-0.9-0.6-1.6-0.6c-0.9,0-1.7,0.3-2.3,1s-1.2,1.6-1.6,2.9c0.1-0.9,0.2-1.7,0.2-2.2
			c0-0.6-0.1-1-0.4-1.3c-0.2-0.3-0.6-0.4-1.1-0.4c-0.6,0-1.1,0.2-1.6,0.5C28,2,27.6,2.4,27.1,3c-0.1,0.2-0.2,0.4-0.3,0.5
			c-0.1,0.1-0.1,0.3-0.1,0.4c0,0.1,0,0.3,0.1,0.4c0.1,0.1,0.2,0.2,0.3,0.2c0.1,0,0.3-0.1,0.4-0.2c0.4-0.5,0.7-0.9,1-1.1
			c0.3-0.2,0.6-0.3,0.8-0.3c0.3,0,0.4,0.2,0.4,0.6c0,0.3,0,0.9-0.1,1.5c-0.1,0.8-0.2,1.6-0.3,2.3c-0.1,0.7-0.2,1.2-0.2,1.3
			C29.1,9.2,29,9.8,29,10.2c-0.1,0.4-0.1,0.7-0.1,1c0,0.4,0.1,0.7,0.2,0.8C29.2,12.1,29.5,12.2,29.8,12.2"/>
		<path class="st1" d="M154,27.3c-0.5,0.4,1.9,5.4,2.1,6c0.8,3.2,0.4,6.6,0.1,9.8c-0.4,3.3-0.8,6.8-0.8,10.1c0,1,0.1,1.9,0.7,2.7
			c1.4,0,2-0.7,1.9-1.8c0-0.6,0-1.2,0-1.8c-0.1-2-0.6-4-0.6-6c0-1.8-0.3-3.7-0.3-5.6c0-2,0.3-4,0.5-6c0.4-3.2,3.2-5.4,3.5-8.7
			c0.2-2.2-0.7-5.9-3.4-6c-3.8-0.2-4.3,5.2-3.7,7.8c0.1,0.5-0.6,0.7-0.7,0.2c-0.6-2.5-0.4-6.1,1.9-7.8c2.3-1.7,4.8-0.8,6,1.7
			c1.4,2.9,0.8,6-0.8,8.6c-0.7,1.1-1.4,2.1-1.7,3.4c-0.3,1.3-0.4,2.8-0.6,4.2c-0.3,3,0.1,6,0.1,9c0,1.6,2.3,10.2-1.2,10.2
			c-3.4,0-2.2-6.2-2-8c0.3-2.6,0.4-5.2,0.7-7.9c0.3-2.6,0.3-5.2-0.2-7.8c-0.3-1.5-1.1-2.9-1.6-4.4c-0.2-0.5-0.6-1.7,0-2.2
			C153.9,26.9,154.1,27.2,154,27.3"/>
		<path class="st1" d="M155.7,28.8c0,2.2,2.1,1.3,2.6,0.5c0.3-0.5,0.4-1.3,0.5-1.9c0.2-1.5,0.2-2.7-0.5-4.1
			c-0.1-0.3,0.2-0.6,0.4-0.3c1,1.1,1,2.4,0.8,3.8c-0.1,1.1-0.2,2.2-0.8,3.1c-1,1.6-3.9,0.9-3.5-1.1
			C155.3,28.5,155.7,28.6,155.7,28.8"/>
		<path class="st1" d="M282,20.9V19h-11.4v1.9h0.9c2.2,0,3.1,0.5,3.1,1.8c0,0.6-0.2,1.3-0.7,2.1l-5,8.9l-6.7-10.9
			c-0.3-0.5-0.4-0.8-0.4-1.1c0-0.5,0.5-0.8,1.6-0.8h2.4V19h-12.9v1.9h0.9c1.7,0,2.3,0.4,3.2,1.8l8.7,13.7v7.7c0,1.7-0.4,1.9-3.6,1.9
			h-1v1.9h13.7V46h-1c-3.2,0-3.6-0.2-3.6-1.9v-8.2l6-10.8c1.9-3.4,2.8-4.3,5.2-4.3H282z M247.1,33.5c0,9-2.6,12.6-9.1,12.6h-2.7
			c-2,0-2.3-0.2-2.3-2.2V23.1c0-2,0.3-2.2,2.3-2.2h2.1C244.2,20.9,247.1,24.6,247.1,33.5 M252.4,33.3c0-5.4-2-9.9-5.7-12.3
			c-2.2-1.4-5.2-2-9.7-2h-12.7v1.9h0.8c3.2,0,3.6,0.2,3.6,1.9v21.4c0,1.7-0.4,1.9-3.6,1.9h-0.8v1.9h13.5
			C247.5,47.9,252.4,42.7,252.4,33.3 M211.3,36.4h-9l4.4-11.4L211.3,36.4z M222.8,47.9V46h-0.8c-2,0-2.2-0.3-3.2-2.6l-10.2-25H207
			l-9.2,23.4c-1.4,3.6-2,4.2-4,4.2h-0.6v1.9h10.6V46H203c-2.2,0-3.2-0.8-3.2-2.3c0-0.5,0.1-1,0.4-1.7l1.3-3.5h10.6l2.2,5.4
			c0.2,0.6,0.3,0.9,0.3,1.1c0,0.6-1,1-2.5,1h-1.7v1.9H222.8z M184.6,26.2c0,4.2-2.3,5.8-6.3,5.8h-4.4v-9.8c0-1.2,0.2-1.3,2.8-1.3
			h2.2C182.8,20.9,184.6,22.6,184.6,26.2 M192.6,41.5h-1.7c-0.2,2.8-0.6,4-1.7,4c-1,0-1.3-0.7-2-3.4l-0.6-2.5
			c-0.9-3.7-2.4-5.4-5.6-6.2c5.8-0.8,8.5-3.1,8.5-7.2c0-4.6-3.8-7.2-10.6-7.2h-13.9v1.9h0.7c3.2,0,3.6,0.2,3.6,1.9v21.4
			c0,1.7-0.4,1.9-3.6,1.9h-0.7v1.9h13.1V46h-0.7c-3.2,0-3.6-0.2-3.6-1.9V33.9h2.3c3.6,0,5.6,1.4,6.1,6.2l0.2,2
			c0.4,4.5,2,6.4,5.1,6.4C190.9,48.5,192.5,46.3,192.6,41.5 M142.5,12.2c0-0.7-0.8-1.2-1.7-1.2c-0.7,0-1.2,0.2-2.4,1.1l-6.7,5h2
			l7.7-3.5C142,13.2,142.5,12.7,142.5,12.2 M147.9,37.2h-1.8c-1.2,6.6-3,8.8-9.3,8.8h-2.6c-2,0-2.9-0.2-2.9-1.9V33.9h0.8
			c5,0,5.6,2,5.8,5.8h1.9V26.5h-1.9c-0.2,3.9-1.8,5.5-5.6,5.5h-1v-9.1c0-1.7,0.4-2,2.5-2h2.1c6.7,0,8.3,1.4,9.5,8.4h1.7V19h-24.6
			v1.9h0.7c3.2,0,3.6,0.2,3.6,1.9v21.4c0,1.7-0.4,1.9-3.6,1.9h-0.7v1.9h24.6L147.9,37.2z M112.4,26.2c0,4.2-2.3,5.8-6.3,5.8h-4.4
			v-9.8c0-1.2,0.2-1.3,2.8-1.3h2.2C110.6,20.9,112.4,22.6,112.4,26.2 M120.4,41.5h-1.7c-0.2,2.8-0.6,4-1.7,4c-1,0-1.3-0.7-2-3.4
			l-0.6-2.5c-0.9-3.7-2.4-5.4-5.6-6.2c5.8-0.8,8.5-3.1,8.5-7.2c0-4.6-3.8-7.2-10.6-7.2H92.9v1.9h0.7c3.2,0,3.6,0.2,3.6,1.9v21.4
			c0,1.7-0.4,1.9-3.6,1.9h-0.7v1.9H106V46h-0.7c-3.2,0-3.6-0.2-3.6-1.9V33.9h2.3c3.6,0,5.6,1.4,6.1,6.2l0.2,2c0.4,4.5,2,6.4,5.1,6.4
			C118.7,48.5,120.3,46.3,120.4,41.5 M84.2,39.9c0,4.7-2.4,6.1-7.9,6.1h-1.7c-2,0-2.3-0.3-2.3-2.5v-9.6h3.5
			C82.1,33.9,84.2,35.5,84.2,39.9 M83,26.6c0,3.9-2,5.4-7.1,5.4h-3.6v-9.1c0-1.6,0.6-2,2.6-2h1.6C81.3,20.9,83,22.8,83,26.6
			 M89.2,40.1c0-4-2.6-6.3-8-7.3c4.4-0.9,6.5-3.5,6.5-6.8c0-4.6-3.7-7.1-9.7-7.1H63.5v1.9h0.7c3.2,0,3.6,0.2,3.6,1.9v21.4
			c0,1.7-0.4,1.9-3.6,1.9h-0.7v1.9h14.5C85,47.9,89.2,45,89.2,40.1 M54.7,33.5c0,9.1-3,13.2-8.5,13.2c-5.6,0-8.5-4-8.5-13.3
			c0-9.1,2.9-13.1,8.6-13.1C51.6,20.3,54.7,24.2,54.7,33.5 M60,33.5C60,25,54,18.4,46.3,18.4c-8.3,0-13.9,6.9-13.9,15.1
			c0,8.5,6,15,13.8,15C54,48.5,60,42,60,33.5 M22.9,33.5c0,9-2.6,12.6-9.1,12.6h-2.7c-2,0-2.3-0.2-2.3-2.2V23.1c0-2,0.3-2.2,2.3-2.2
			h2.1C20,20.9,22.9,24.6,22.9,33.5 M28.2,33.3c0-5.4-2-9.9-5.7-12.3c-2.2-1.4-5.2-2-9.7-2H0v1.9h0.8c3.2,0,3.6,0.2,3.6,1.9v21.4
			C4.3,45.8,4,46,0.8,46H0v1.9h13.5C23.3,47.9,28.2,42.7,28.2,33.3"/>
	</g>
	<g>
		<path class="st0" d="M190.4,53l0.2-0.3L190.4,53c0.5,0.4,1.2,0.6,2,0.6c0.2,0,0.4,0,0.6,0c1.1-0.1,2-0.5,2.6-1.2
			c0.5-0.6,0.8-1.3,0.8-2.2c0-0.1,0-0.3,0-0.4c-0.1-0.9-0.5-1.6-1.1-2c-0.5-0.3-1.2-0.5-1.9-0.5c-0.2,0-0.3,0-0.5,0
			c-1,0.1-1.9,0.5-2.5,1.2c-0.6,0.6-0.9,1.3-0.9,2.1c0,0.1,0,0.2,0,0.3C189.4,51.8,189.7,52.5,190.4,53z"/>
		<path class="st0" d="M201.3,63.6L201.3,63.6c-0.2-0.3-0.6-0.5-1-0.5l-0.1,0c-0.3,0-0.6,0.2-1,0.4l0,0l0,0c-1.3,1-2.7,2.2-4.2,3.6
			l0.1-1.6l0,0c0.2-3.7,0.3-6.3,0.3-7.9c0-0.5,0-0.9,0-1.2c0-0.4-0.2-0.8-0.6-1.1l0,0c-0.3-0.2-0.7-0.3-1.1-0.3c-0.2,0-0.3,0-0.5,0
			c-0.9,0.1-1.6,0.3-2.1,0.8c-0.5,0.4-0.7,1.1-0.7,1.8v0v0c-0.1,2.5-0.1,4.4-0.1,5.7v0v0c0,0.1,0,0.3,0,0.4c0,0.5,0,1,0,1.5
			c-0.7,0.9-1.6,1.7-2.6,2.4c-1.2,0.8-2.4,1.3-3.3,1.4c-0.2,0-0.4,0-0.6,0c-0.6,0-1.1-0.1-1.5-0.3c-0.3-0.1-0.5-0.3-0.7-0.5
			c2.5-0.9,4.2-2,5.3-3.3c1-1.2,1.5-2.5,1.5-3.9c0-0.2,0-0.4,0-0.7c-0.1-1.5-0.7-2.6-1.7-3.4c-0.8-0.7-1.8-1-3-1c-0.2,0-0.4,0-0.6,0
			c-1.6,0.2-3,0.7-4.2,1.7c-1.2,1-2.1,2.2-2.6,3.7c-0.3,0.9-0.5,1.8-0.6,2.7c-0.2,0.1-0.4,0.2-0.5,0.2l-0.1,0c-0.2,0-0.2,0-0.3-0.1
			c-0.1-0.1-0.2-0.3-0.2-0.7l0-0.1c0-0.3,0-0.8,0.1-1.6l0,0v0c0.1-0.9,0.1-1.6,0.1-2c0-0.1,0-0.2,0-0.3c-0.1-0.7-0.3-1.4-0.7-1.8
			c-0.4-0.4-1-0.6-1.7-0.6c-0.1,0-0.3,0-0.4,0c-0.9,0.1-1.7,0.5-2.6,1.1c-0.9,0.7-1.8,1.7-2.7,3.1c-0.5,0.8-1,1.8-1.4,2.9
			c0,0,0-0.1,0-0.1c0.1-0.7,0.2-1.5,0.3-2.5l0,0c0.2-1.2,0.3-2,0.3-2.5c0-0.1,0-0.2,0-0.2c0-0.2-0.1-0.4-0.2-0.5
			c-0.1-0.2-0.2-0.3-0.4-0.4h0c-0.2-0.1-0.5-0.1-0.8-0.1c-0.1,0-0.3,0-0.4,0c-0.9,0.1-1.6,0.3-2.2,0.7c-0.5,0.4-0.9,1-1,1.8
			c-0.4,1.9-0.6,3.9-0.6,5.9c0,0.7,0,1.5,0.1,2.2c-0.6,0.8-1.1,1.4-1.5,1.9c-0.5,0.6-1,0.9-1.3,0.9l-0.1,0c-0.2,0-0.2,0-0.4-0.2
			c-0.1-0.1-0.2-0.3-0.2-0.6c0-0.3,0-0.6,0-1c0-1.1,0.1-2.6,0.3-4.6l0,0v0c0.1-1.5,0.2-2.5,0.2-3.2c0-0.2,0-0.3,0-0.4
			c0-0.4-0.2-0.8-0.6-1.1c-0.3-0.2-0.8-0.3-1.3-0.3c-0.1,0-0.3,0-0.4,0c-0.4,0-0.9,0.1-1.3,0.2c-0.1-0.4-0.3-0.7-0.5-0.9
			c-0.3-0.2-0.6-0.3-1-0.3c-0.1,0-0.2,0-0.3,0c-1.7,0.2-3.2,0.9-4.6,2.1c-1.4,1.2-2.4,2.7-3.2,4.5c-0.6,1.4-0.9,2.9-0.9,4.4
			c0,0.2,0,0.5,0,0.7c-0.4,0.5-0.8,0.9-1.1,1.3c-0.7,0.6-1.4,1-2.4,1.1c-0.1,0-0.3,0-0.4,0c-0.9,0-1.6-0.3-2.2-1.1
			c-0.6-0.8-1.1-2.5-1.3-4.9c-0.1-0.6-0.1-1.4-0.2-2.4l3.9-0.4c1.3-0.1,2.3-0.4,3-0.9c0.7-0.5,1.1-1.2,1.1-2c0-0.1,0-0.2,0-0.3
			c-0.1-0.5-0.2-0.9-0.5-1.1c-0.2-0.2-0.5-0.3-0.9-0.3c-0.1,0-0.2,0-0.2,0l-3,0.3c2.1-2.5,3.2-5.3,3.2-8.3c0-0.4,0-0.8-0.1-1.2
			c-0.1-1.4-0.5-2.5-1.2-3.4c-0.6-0.8-1.5-1.2-2.4-1.2c-0.1,0-0.2,0-0.3,0c-1.5,0.1-2.7,1-3.8,2.4c-1.1,1.4-1.9,3.3-2.5,5.5
			c-0.6,2.2-1,4.5-1.1,7l-1.7,0.2c-0.5,0-1,0.3-1.3,0.6c-0.3,0.4-0.4,0.9-0.4,1.4c0,0.1,0,0.3,0,0.4c0.1,0.6,0.2,1.1,0.6,1.4
			c0.3,0.3,0.7,0.4,1.3,0.4c0.1,0,0.3,0,0.5,0l1-0.1c0,0.9,0.1,1.9,0.2,2.8c0.1,0.7,0.2,1.3,0.3,1.9c-0.2,0.1-0.3,0.3-0.4,0.4l0,0
			l0,0c-1.1,1.7-2.2,2.9-3,3.5c0-0.1,0-0.3,0-0.4c-0.1-0.9-0.4-1.7-0.9-2.4c-0.5-0.7-1.1-1.5-2-2.4l0,0l0,0c-0.6-0.6-1-1.1-1.3-1.4
			c-0.3-0.4-0.4-0.7-0.4-1c0-0.1,0-0.1,0-0.2c0-0.5,0.1-1.1,0.4-1.8l0,0c0.1-0.3,0.2-0.7,0.3-1c0.1-0.3,0.1-0.5,0.1-0.7l0-0.1v0
			c0-0.2-0.1-0.4-0.2-0.5c-0.1-0.1-0.3-0.2-0.5-0.3c-0.2-0.1-0.5-0.1-0.8-0.1c-0.2,0-0.5,0-0.7,0c-0.7,0.1-1.4,0.3-1.9,0.6
			c-0.5,0.3-0.9,0.8-1.1,1.4l0,0c-0.4,1.3-0.8,2.5-1.2,3.7c-0.4,1.2-0.8,2.1-1.1,2.8c-0.5,1.1-1.4,2.5-2.5,4.2l-0.4,0.6l0,0
			c-0.3,0.4-0.4,0.9-0.4,1.4c0,0.1,0,0.1,0,0.2c0,0.5,0.2,0.9,0.6,1.2c0.3,0.3,0.7,0.4,1.1,0.4l0.2,0c0.6-0.1,1.1-0.4,1.5-0.9l0,0
			c0,0,0,0,0,0c0,0,0,0,0,0l0,0c0.8-0.9,1.5-1.9,2.1-2.9c0.6-0.9,1.1-2,1.6-3.2c0.3,0.3,0.5,0.5,0.8,0.8c0.4,0.5,0.8,0.9,1,1.4
			c0.2,0.4,0.3,0.7,0.4,1.1c-0.1,0-0.3,0-0.5,0c-0.2,0-0.3,0-0.5,0c-0.2,0-0.4,0-0.6,0c-0.9,0.1-1.7,0.4-2.1,1
			c-0.4,0.5-0.6,1-0.6,1.6c0,0.1,0,0.2,0,0.3c0.1,0.8,0.5,1.5,1.3,2.1c0.6,0.5,1.5,0.7,2.4,0.7c0.2,0,0.5,0,0.7,0
			c1.3-0.1,2.4-0.6,3.3-1.5c1.6-0.2,2.9-0.6,3.9-1.3c1-0.6,2-1.6,2.9-3c0.6,1,1.3,1.9,2.2,2.5c1,0.7,2.3,1,3.7,1c0.3,0,0.6,0,0.9,0
			c1.6-0.2,3-0.7,4.2-1.7c0.4-0.3,0.7-0.7,1.1-1c0.1,0.1,0.2,0.3,0.4,0.4c0.9,0.9,2,1.4,3.3,1.4c0.2,0,0.4,0,0.6,0
			c1-0.1,1.9-0.5,2.7-1.1c0.6-0.5,1.2-1.1,1.6-1.9c0.4,0.7,0.9,1.2,1.5,1.6c0.6,0.4,1.4,0.7,2.1,0.7c0.1,0,0.2,0,0.4,0
			c1.1-0.1,2.2-0.7,3.2-1.6c0.3-0.2,0.5-0.5,0.8-0.8c0,0.1,0.1,0.2,0.2,0.3c0.2,0.5,0.5,0.8,0.9,1.1c0.4,0.2,0.8,0.4,1.2,0.4
			c0.1,0,0.2,0,0.3,0c0.8-0.1,1.4-0.4,1.8-0.9c0.4-0.5,0.6-1.3,0.7-2.5h0c0.2-1.4,0.5-2.8,1-4.1c0.4-1.3,0.9-2.4,1.4-3.2
			c0.2-0.4,0.5-0.7,0.6-0.9c0.2-0.2,0.3-0.2,0.4-0.2h0c0,0,0,0.1,0,0.2c0,0.1,0,0.4,0,0.9v0.1l0,0c0,0.2,0,0.4,0,0.6
			c0,0.2,0,0.4,0,0.5c0.1,1.1,0.6,2.1,1.3,2.7c0.7,0.5,1.5,0.8,2.5,0.8c0.2,0,0.4,0,0.7,0c0.7-0.1,1.3-0.2,1.9-0.5
			c0.5,1.3,1.2,2.3,2.2,3.1c1.3,1.1,3,1.6,5,1.6c0.4,0,0.8,0,1.2-0.1c1.9-0.2,3.6-0.8,5.1-1.9c0.2-0.1,0.4-0.3,0.6-0.4l0,0.7
			c-3.2,3.1-5.4,5.6-6.6,7.7c-1,1.8-1.5,3.5-1.5,5c0,0.2,0,0.5,0,0.7c0.1,1.3,0.6,2.3,1.5,3c0.8,0.6,1.7,0.9,2.7,0.9
			c0.2,0,0.4,0,0.6,0c1.2-0.1,2.3-0.6,3.2-1.4c0.9-0.8,1.7-2,2.3-3.5c1.2-2.9,2-6.9,2.5-11.8c2.5-2.1,4.5-3.8,6-5l0,0
			c0.4-0.3,0.6-0.6,0.8-1c0.1-0.3,0.2-0.6,0.2-1c0-0.1,0-0.3,0-0.5C201.7,64.4,201.5,64,201.3,63.6z M180.4,64.5
			c0-1,0.2-1.9,0.6-2.7c0.2-0.5,0.5-0.9,0.8-1.1c0.3-0.2,0.6-0.4,1-0.4l0.1,0c0.3,0,0.5,0.1,0.6,0.2c0.2,0.2,0.3,0.4,0.4,0.8
			c0,0.1,0,0.2,0,0.2c0,0.7-0.3,1.3-0.9,1.9c-0.6,0.6-1.5,1.1-2.5,1.5C180.4,64.8,180.4,64.7,180.4,64.5z M150.9,71.5
			c-0.2,0.3-0.4,0.5-0.6,0.7c-0.2,0.1-0.4,0.2-0.6,0.2l-0.2,0c-0.3,0-0.6-0.1-0.8-0.3c-0.2-0.2-0.4-0.7-0.5-1.4c0-0.3,0-0.6,0-0.9
			c0-0.9,0.1-1.8,0.4-2.7c0.4-1.2,0.9-2.1,1.6-2.9c0.6-0.6,1.2-1,2-1.2l-0.6,6.1v0C151.6,70.1,151.3,70.9,150.9,71.5z M137,51.3
			c0.2-0.4,0.3-0.8,0.5-1c0.1-0.1,0.1-0.2,0.2-0.2l0.1,0l0,0l0.1,0c0.1,0.1,0.2,0.2,0.3,0.5c0.1,0.3,0.2,0.7,0.2,1.1
			c0,0.2,0,0.4,0,0.6c0,1-0.2,2.1-0.7,3.4c-0.4,1.2-1.1,2.3-2,3.4c0.1-1.5,0.2-2.9,0.4-4.2C136.3,53.5,136.6,52.2,137,51.3z
			 M188.3,82.9c-0.3,0.7-0.6,1.2-0.8,1.6c-0.3,0.3-0.5,0.5-0.7,0.5l-0.1,0c-0.2,0-0.3-0.1-0.4-0.2c-0.1-0.1-0.2-0.4-0.2-0.8
			c0-0.1,0-0.2,0-0.3c0-0.8,0.3-1.7,0.8-2.9c0.5-1.1,1.4-2.3,2.7-3.6C189.3,79.8,188.8,81.7,188.3,82.9l0.3,0.1L188.3,82.9z"/>
		<polygon class="st0" points="278.4,79.1 278.4,79.1 278.4,79.1 		"/>
		<polygon class="st0" points="251.4,51.7 251.4,51.7 251.4,51.7 		"/>
		<polygon class="st0" points="247.8,67.3 247.8,67.3 247.8,67.3 		"/>
		<path class="st0" d="M296.7,56.2c0-0.1,0-0.3,0-0.4l0,0c0-0.5-0.2-0.9-0.4-1.3l0,0l0,0c-0.2-0.3-0.6-0.5-1-0.5l-0.1,0l0,0
			c0,0,0,0,0,0l0,0v0c-0.3,0-0.6,0.2-1,0.4l0,0l0,0c-1.4,1.1-2.8,2.3-4.3,3.7l0.3-4.9l0,0c0.2-2.9,0.4-4.8,0.4-5.7
			c0-0.2,0-0.3,0-0.5v0c0-0.2-0.1-0.4-0.2-0.6c-0.1-0.2-0.2-0.3-0.4-0.4l0,0c0,0,0,0,0,0c0,0,0,0,0,0v0c-0.2-0.1-0.5-0.2-0.9-0.2
			c-0.1,0-0.3,0-0.5,0h0c-0.8,0.1-1.5,0.3-1.9,0.7l0,0c-0.4,0.4-0.7,1-0.8,1.8c-0.4,2.1-0.8,3.9-1.2,5.4c-0.5,1.5-0.9,2.6-1.3,3.3
			l0,0c-0.2,0.4-0.4,0.6-0.6,0.8c-0.2,0.2-0.3,0.2-0.4,0.2l0,0l-0.1,0c0,0-0.1-0.1-0.2-0.2c-0.1-0.2-0.1-0.4-0.1-0.7v0
			c0-0.3,0-0.6,0-0.9c0-0.4,0-0.8,0-1.2c0.1-0.9,0.1-1.8,0.2-2.8l0,0c0.1-0.7,0.2-1.5,0.3-2.4l0,0c0.1-1,0.2-1.6,0.2-1.9l0-0.1l0,0
			l0,0c0-0.4-0.2-0.8-0.5-1c-0.3-0.2-0.6-0.2-0.9-0.2c-0.1,0-0.3,0-0.4,0c-1,0.1-1.7,0.3-2.2,0.7c-0.5,0.4-0.8,1-1,1.8
			c-0.4,1.7-0.6,3.3-0.7,4.8c0,0.5-0.1,1.1-0.1,1.6c0,0.6,0,1.2,0.1,1.8c-0.6,0.8-1,1.4-1.4,1.8c-0.6,0.6-1,0.9-1.4,0.9l-0.1,0
			c-0.2,0-0.3-0.1-0.4-0.2c-0.1-0.1-0.2-0.4-0.2-0.8l0,0c0-0.1,0-0.3,0-0.4c0-0.7,0.1-1.9,0.3-3.6c0.2-1.9,0.3-3.3,0.3-4.3
			c0-0.3,0-0.6,0-0.8l0,0l0,0c-0.1-0.7-0.3-1.4-0.7-1.8c-0.4-0.4-1-0.6-1.7-0.6c-0.1,0-0.3,0-0.4,0c-1.4,0.1-2.7,1-4.1,2.5
			c-0.9,1-1.7,2.3-2.3,3.9c0.1-1,0.2-1.9,0.2-2.5c0-0.2,0-0.4,0-0.6l0,0c-0.1-0.8-0.3-1.5-0.8-1.9c-0.4-0.4-0.9-0.5-1.6-0.5
			c-0.1,0-0.3,0-0.5,0c-0.9,0.1-1.8,0.5-2.7,1.3l0,0c-0.9,0.8-1.8,1.8-2.5,3.2c-0.4,0.7-0.7,1.4-1,2.2c0.1-0.6,0.2-1.4,0.3-2.2l0,0
			c0.2-1.2,0.3-2,0.3-2.5c0-0.1,0-0.2,0-0.2v0c0-0.2-0.1-0.4-0.2-0.5s-0.2-0.3-0.4-0.4l0,0l0,0c-0.2-0.1-0.5-0.1-0.8-0.1
			c-0.1,0-0.3,0-0.4,0h0c-0.9,0.1-1.6,0.3-2.2,0.7l0,0c-0.5,0.4-0.9,1-1,1.8c-0.4,1.9-0.6,3.9-0.6,5.9c0,0.7,0,1.5,0.1,2.2
			c-0.6,0.8-1.1,1.4-1.5,1.9c-0.5,0.6-1,0.9-1.3,0.9h0l-0.1,0c-0.1,0-0.2,0-0.4-0.2c-0.1-0.1-0.2-0.3-0.2-0.6l0,0c0-0.3,0-0.6,0-1
			c0-1.1,0.1-2.6,0.3-4.6v0v0c0.1-1.5,0.2-2.6,0.2-3.2c0-0.2,0-0.3,0-0.4v0c0-0.4-0.2-0.8-0.6-1.1c-0.3-0.2-0.8-0.3-1.3-0.3
			c-0.1,0-0.3,0-0.4,0h0h0c-0.4,0-0.9,0.1-1.3,0.2c-0.1-0.4-0.3-0.7-0.5-0.9l0,0l0,0c-0.3-0.2-0.6-0.3-1-0.3c-0.1,0-0.2,0-0.3,0
			c-1.7,0.2-3.3,0.9-4.6,2.1l0,0c-1.4,1.2-2.4,2.7-3.2,4.5c-0.6,1.4-0.9,2.9-0.9,4.4c0,0.3,0,0.5,0,0.8c-0.4,0.5-0.7,0.9-1,1.2l0,0
			l0,0c-0.6,0.6-1,0.9-1.4,0.9l-0.1,0c-0.2,0-0.3-0.1-0.4-0.2c-0.1-0.1-0.2-0.4-0.2-0.8c0-0.1,0-0.3,0-0.5c0-0.7,0.1-1.9,0.3-3.6
			c0.2-1.9,0.3-3.3,0.3-4.3c0-0.3,0-0.6,0-0.8l0,0c-0.1-0.7-0.3-1.4-0.7-1.8c-0.4-0.4-1-0.6-1.7-0.6c-0.1,0-0.3,0-0.4,0
			c-1.4,0.1-2.7,1-4.1,2.5c-0.9,1-1.7,2.3-2.3,3.9c0.1-1,0.2-1.9,0.2-2.5c0-0.2,0-0.4,0-0.6l0,0v0c-0.1-0.8-0.3-1.5-0.8-1.9
			c-0.4-0.4-0.9-0.5-1.6-0.5c-0.1,0-0.3,0-0.5,0c-0.9,0.1-1.8,0.5-2.7,1.3l0,0c-0.9,0.8-1.7,1.8-2.5,3.2l0,0c-0.4,0.7-0.7,1.4-1,2.2
			c0.1-0.6,0.2-1.4,0.3-2.3h0c0.2-1.2,0.3-2,0.3-2.5c0-0.1,0-0.1,0-0.2l0,0v0c0-0.2-0.1-0.4-0.2-0.5c-0.1-0.2-0.2-0.3-0.4-0.4h0
			c0,0,0,0,0,0c0,0,0,0,0,0l0,0c-0.2-0.1-0.5-0.1-0.7-0.1c-0.1,0-0.3,0-0.4,0h0c-0.9,0.1-1.6,0.3-2.2,0.7l0,0c-0.5,0.4-0.9,1-1,1.8
			c-0.4,1.9-0.6,3.9-0.6,5.9c0,1,0,2,0.1,3c0.2,2.1,0.5,3.6,1,4.6l0,0c0.2,0.5,0.5,0.8,0.9,1.1c0.4,0.2,0.8,0.4,1.2,0.4
			c0.1,0,0.2,0,0.3,0c0.8-0.1,1.4-0.4,1.8-0.9c0.4-0.5,0.6-1.3,0.7-2.5l0,0c0.2-1.3,0.5-2.6,0.8-3.9v0c0.4-1.3,0.8-2.5,1.2-3.3v0
			c0.2-0.4,0.4-0.7,0.6-0.9c0.2-0.2,0.3-0.3,0.3-0.3l0,0h0c0,0,0,0.1,0,0.2v0c0,0.2,0,0.6,0,1.1c0,0.5,0,1.1,0,1.9l0,0
			c0,0.8,0,1.5,0,2.1c0,0.7,0,1.3,0.1,1.9c0.1,1.1,0.4,2,0.9,2.8l0,0c0.2,0.4,0.5,0.6,0.8,0.8s0.7,0.3,1.1,0.3c0.1,0,0.2,0,0.2,0
			c0.8-0.1,1.5-0.3,1.8-0.9c0.4-0.5,0.6-1.3,0.7-2.5l0,0c0.2-1.4,0.5-2.8,1-4.1v0c0.4-1.3,0.9-2.4,1.4-3.2c0.2-0.4,0.5-0.7,0.6-0.9
			c0.1-0.1,0.2-0.2,0.2-0.2l0.1,0h0l0,0l0,0c0,0,0,0.1,0,0.2v0c0,0.1,0,0.3,0,0.5c0,0.6-0.1,1.4-0.2,2.6v0v0
			c-0.1,1.2-0.2,2.2-0.2,2.9c0,0.3,0,0.5,0,0.7l0,0c0.1,1.4,0.5,2.4,1.3,3.1c0.6,0.6,1.5,0.9,2.5,0.9c0.2,0,0.4,0,0.6,0
			c1.5-0.1,2.9-0.7,4-1.7l0,0c0.4-0.3,0.7-0.6,1-1c0.1,0.1,0.2,0.3,0.4,0.4v0c0,0,0,0,0,0c0,0,0,0,0,0l0,0c0.9,0.9,2,1.4,3.3,1.4
			c0.2,0,0.4,0,0.6,0c1-0.1,1.9-0.5,2.7-1.1c0.6-0.5,1.2-1.1,1.6-1.9c0.4,0.6,0.9,1.2,1.5,1.6c0.6,0.4,1.3,0.7,2.1,0.7
			c0.1,0,0.2,0,0.4,0c1.1-0.1,2.2-0.7,3.2-1.6c0.3-0.2,0.5-0.5,0.8-0.8c0.1,0.1,0.1,0.2,0.2,0.3c0.2,0.5,0.5,0.8,0.9,1.1
			s0.8,0.4,1.2,0.4c0.1,0,0.2,0,0.3,0c0.8-0.1,1.4-0.4,1.8-0.9l0,0c0.4-0.5,0.6-1.3,0.7-2.5l0,0c0.2-1.3,0.5-2.6,0.8-3.9l0,0
			c0.4-1.3,0.8-2.5,1.2-3.3c0.2-0.4,0.4-0.8,0.6-0.9c0.2-0.2,0.3-0.3,0.3-0.3h0c0,0,0,0.1,0,0.2c0,0.2,0,0.6,0,1.1
			c0,0.5,0,1.1,0,1.9l0,0c0,0.8,0,1.5,0,2.1c0,0.7,0,1.4,0.1,1.9c0.1,1.1,0.4,2,0.9,2.8c0.2,0.4,0.5,0.6,0.8,0.8
			c0.3,0.2,0.7,0.3,1.1,0.3c0.1,0,0.2,0,0.2,0c0.8-0.1,1.5-0.3,1.8-0.9c0.4-0.5,0.6-1.3,0.7-2.5l0,0c0.2-1.4,0.5-2.8,1-4.1
			c0.4-1.3,0.9-2.4,1.4-3.2c0.2-0.4,0.4-0.7,0.6-0.9c0.1-0.1,0.2-0.2,0.2-0.2l0.1,0l0,0h0h0l0,0c0,0,0,0.1,0,0.2l0,0
			c0,0.1,0,0.3,0,0.5c0,0.6-0.1,1.4-0.2,2.5v0l0,0c-0.1,1.2-0.2,2.2-0.2,2.9c0,0.3,0,0.5,0,0.7v0c0.1,1.4,0.6,2.4,1.3,3.1
			c0.6,0.6,1.5,0.9,2.5,0.9c0.2,0,0.4,0,0.6,0c1.5-0.1,2.9-0.7,4-1.7c0.4-0.3,0.8-0.7,1.1-1.1c0.1,0.2,0.3,0.4,0.4,0.6
			c0.7,0.9,1.7,1.4,2.7,1.4c0.1,0,0.2,0,0.3,0c1.1-0.1,2-0.7,2.8-1.7c0.3-0.4,0.6-0.9,0.8-1.4c0,0.3,0,0.6-0.1,0.9l0,0l0,0.7
			c-2.3,2.1-4,4-5.3,5.6c-1.2,1.6-2.1,3.1-2.5,4.3c-0.3,1-0.5,1.9-0.5,2.8c0,0.3,0,0.5,0,0.8c0.1,1.3,0.6,2.3,1.5,3
			c0.8,0.6,1.7,0.9,2.7,0.9c0.2,0,0.4,0,0.6,0c1.2-0.1,2.3-0.6,3.2-1.4c0.9-0.8,1.6-2,2.2-3.5c1.2-2.9,2-6.8,2.4-11.7l6.2-5.1
			c0.4-0.3,0.6-0.6,0.8-1l0,0l0,0C296.6,56.9,296.7,56.6,296.7,56.2z M283.2,73.8c-0.3,0.7-0.6,1.2-0.8,1.5
			c-0.3,0.3-0.5,0.5-0.6,0.5l-0.1,0c-0.2,0-0.3-0.1-0.4-0.2l0,0l0,0c-0.1-0.2-0.2-0.4-0.3-0.8c0-0.1,0-0.2,0-0.3
			c0-0.8,0.3-1.8,0.9-2.9c0.6-1.1,1.4-2.3,2.7-3.6C284.1,70.6,283.7,72.6,283.2,73.8L283.2,73.8z M241.6,62.8L241.6,62.8L241.6,62.8
			c-0.2,0.3-0.4,0.5-0.6,0.7s-0.4,0.2-0.6,0.2l-0.2,0c-0.3,0-0.6-0.1-0.8-0.3l0,0c-0.2-0.2-0.4-0.7-0.5-1.4v0c0-0.3,0-0.6,0-0.9
			c0-0.9,0.1-1.8,0.4-2.7c0.4-1.2,0.9-2.1,1.6-2.9c0.6-0.6,1.2-1,1.9-1.2l-0.6,6.1v0C242.2,61.4,242,62.2,241.6,62.8z"/>
		<polygon class="st0" points="228.5,51.7 228.5,51.7 228.5,51.7 		"/>
		<polygon class="st0" points="271.1,47.6 271.1,47.6 271.1,47.6 		"/>
		<polygon class="st0" points="213.5,69.9 213.5,69.9 213.5,69.9 		"/>
		<polygon class="st0" points="208.8,55.9 208.8,55.8 208.8,55.8 		"/>
	</g>
</g>
</svg>
