<?xml version="1.0" encoding="utf-8"?>
<!-- Generator: Adobe Illustrator 16.0.0, SVG Export Plug-In . SVG Version: 6.00 Build 0)  -->
<!DOCTYPE svg PUBLIC "-//W3C//DTD SVG 1.1//EN" "http://www.w3.org/Graphics/SVG/1.1/DTD/svg11.dtd" [
	<!ENTITY ns_flows "http://ns.adobe.com/Flows/1.0/">
	<!ENTITY ns_extend "http://ns.adobe.com/Extensibility/1.0/">
	<!ENTITY ns_ai "http://ns.adobe.com/AdobeIllustrator/10.0/">
	<!ENTITY ns_graphs "http://ns.adobe.com/Graphs/1.0/">
]>
<svg version="1.1" id="Vrstva_1" xmlns:x="&ns_extend;" xmlns:i="&ns_ai;" xmlns:graph="&ns_graphs;"
	 xmlns="http://www.w3.org/2000/svg" xmlns:xlink="http://www.w3.org/1999/xlink" xmlns:a="http://ns.adobe.com/AdobeSVGViewerExtensions/3.0/"
	 x="0px" y="0px" width="296.3px" height="53.9px" viewBox="0 0 296.3 53.9" style="enable-background:new 0 0 296.3 53.9;"
	 xml:space="preserve">
<style type="text/css">
<![CDATA[
	.st0{fill:#FFFFFF;}
]]>
</style>
<g>
	<path class="st0" d="M58.1,14.1c-10.5,0-17.1,5.5-19.7,12.3c-1.8,4.7-1.8,9.9-0.2,14.5c2.6,7.2,9.5,13.1,20.5,12.8
		C72,53.8,78.3,48,79.4,41H64.7c-0.9,4-8.4,4.8-11.2-0.1c-0.6-1.1-1-1.9-1.1-3.9h28c0.2-2,0.1-6.2-1.6-10.5
		C76.4,20.3,70.7,14.1,58.1,14.1z M51.9,29c0.3-1,0.6-1.9,1.1-2.6c1.2-2.2,3.2-2.7,5.7-2.7c2.5,0,4.7,0.5,6.1,2.7
		c0.4,0.7,0.9,1.6,1.1,2.6H51.9z"/>
	<rect x="235.3" y="5" class="st0" width="15" height="7"/>
	<path class="st0" d="M26.8,14h-1.3l-0.3,0.5L25,15h1.1c0.8,0,1.2,0.2,1.2-0.3v-0.1c0-0.3,0.2-0.3,0-0.5S27.1,14,26.8,14z"/>
	<path class="st0" d="M30,40.9c-0.5-0.7-0.7-1.6-0.7-2.6V23h10.4l3.8-13L29.3,9.9V0h-15v9.9L3.8,10L0,23h14.3v20.3
		c0,9.9,8,10.5,22,9.4V42.2C33.3,42.6,31,42,30,40.9z M30.3,16.1L30.3,16.1c1-1.3,1.3-2.4,2.2-3.3c1-0.8,2.3-1.3,3.7-1.3
		c0.9,0,1.6,0.3,2.1,0.7c0.5,0.3,0.9,0.9,1,1.6c0.2,0.7-0.1,1.4-0.1,2.3v0.1c-1,1.3-1.1,2.4-2.1,3.2c-1.1,0.9-2.2,1.3-3.6,1.3
		c-0.8,0-1.4-0.1-2-0.3c-0.4-0.3-0.9-0.7-0.9-1.1c-0.3-0.4-0.5-1-0.5-1.5C30.2,17.2,30.3,16.7,30.3,16.1z M11.3,15l-0.6,2H7.3
		l-0.4,1H11l-0.6,3H3.7l2.5-9h6.6l-0.6,2H8.3l-0.4,1H11.3z M18.7,19.7c-0.8,0.7-1.8,0.9-3.1,0.9c-1.3,0-2.2-0.3-2.7-0.8
		c-0.5-0.7-0.5-1.6-0.1-3l1.5-4.8h2.6l-1.6,5.2c-0.1,0.6-0.2,0.9,0,1.1c0,0.3,0.3,0.3,0.8,0.3c0.4,0,0.8-0.1,1.1-0.4
		c0.3-0.3,0.4-0.6,0.6-1.1l1.6-5.2H22l-1.4,4.8C20.2,18.3,19.5,19.1,18.7,19.7z M28.8,18.7l-0.2,0.7c-0.2,0.5-0.2,1.1,0,1.1L28.6,21
		H26c0-1,0.1-0.9,0.3-1.5c0.1-0.5,0.2-1.1,0.3-1.3c0-0.3-0.2-0.2-0.3-0.2c-0.3-0.2-0.8,0-1.3,0h-0.4l-0.9,3h-2.6l1.8-5.9l0.8-3.1
		h3.9c1.4,0,2.3,0.1,2.6,0.5c0.3,0.4,0.4,0.9,0.2,1.8c-0.1,0.2-0.1,0.3-0.2,0.4c-0.2,0.3-0.3,0.7-0.6,0.9c-0.4,0.3-0.8,0.7-1.3,0.7
		c0.4,0.2,0.8,0.4,0.9,0.7C29.2,17.3,29.1,17.9,28.8,18.7z"/>
	<polygon class="st0" points="235.3,15 235.4,53 250.5,53 250.5,15 	"/>
	<polygon class="st0" points="202,5 188.2,5 182.8,12 194.1,12 	"/>
	<path class="st0" d="M34.2,18.6c1,0,1.8-0.8,2.3-2.3c0-0.1,0-0.1,0.1-0.2c0.2-0.7,0.2-1.3,0.1-1.8c-0.1-0.4-0.5-0.8-1-0.8
		c-0.5,0-0.9,0.3-1.3,0.7c-0.4,0.4-0.8,1-1,1.8c-0.2,0.8-0.3,1.4-0.1,1.8C33.4,18.4,33.7,18.6,34.2,18.6z"/>
	<polygon class="st0" points="181.3,52.8 196.3,52.7 196.3,15 181.2,15 	"/>
	<polygon class="st0" points="160.3,39 153,15 138.8,15 152,53 168.3,53 180,15 166.6,15 	"/>
	<rect x="82.3" class="st0" width="15" height="53"/>
	<polygon class="st0" points="199.3,26 214.9,26 198.3,42.2 198.3,52.8 233.3,52.7 233.3,42 217.2,42 233.3,25.5 233.3,15 199.3,15 
			"/>
	<path class="st0" d="M120,14.1c-10.6,0-17.1,5.5-19.8,12.3c-1.8,4.7-1.8,9.9-0.2,14.5c2.6,7.2,9.5,13.1,20.5,12.8
		c13.5,0,19.7-5.8,20.8-12.8h-14.6c-1,4-8.4,4.8-11.3-0.1c-0.6-1.1-1-1.9-1.1-3.9h28c0.3-2,0.1-6.2-1.6-10.5
		C138.3,20.3,132.6,14.1,120,14.1z M113.9,29c0.3-1,0.6-1.9,1.1-2.6c1.2-2.2,3.1-2.7,5.6-2.7c2.5,0,4.8,0.5,6.2,2.7
		c0.4,0.7,0.9,1.6,1.1,2.6H113.9z"/>
	<path class="st0" d="M294.3,47.2V27.6c0-0.4,0-0.7,0-1.1c-0.7-6.4-2.4-12.4-18.5-12.4c-17,0-20,4.3-21.8,12.4
		c0,0.2-0.1,0.4-0.1,0.4h15.1c0,0,0.1-0.4,0.2-0.5c0.7-2.3,2.8-2.7,5.5-2.7c3.1,0,4.2,1.5,4,2.8c-0.2,0.9-1,1.7-2.3,2.1
		c-5.1,1.8-16.9,1.1-21.4,6.2c-1.7,1.9-2.5,4-2.6,6c-0.4,3.2,0.8,6.1,1.5,7.5c5,8.3,21.4,6.2,25.9,0.7l0.5,3.9h16v-1.2
		C295.1,50.6,294.3,49,294.3,47.2z M278.4,40.9c-0.4,1.1-1,2-1.9,3c-2.3,2.2-8.5,1.7-8.5-1.7c0-0.5,0.1-1,0.3-1.3
		c1.3-2.9,7-2.3,10.5-4.3C278.9,37.9,278.9,39.4,278.4,40.9z"/>
</g>
</svg>
