<?xml version="1.0" encoding="utf-8"?>
<!-- Generator: Adobe Illustrator 16.0.0, SVG Export Plug-In . SVG Version: 6.00 Build 0)  -->
<!DOCTYPE svg PUBLIC "-//W3C//DTD SVG 1.1//EN" "http://www.w3.org/Graphics/SVG/1.1/DTD/svg11.dtd" [
	<!ENTITY ns_flows "http://ns.adobe.com/Flows/1.0/">
	<!ENTITY ns_extend "http://ns.adobe.com/Extensibility/1.0/">
	<!ENTITY ns_ai "http://ns.adobe.com/AdobeIllustrator/10.0/">
	<!ENTITY ns_graphs "http://ns.adobe.com/Graphs/1.0/">
]>
<svg version="1.1" id="Vrstva_1" xmlns:x="&ns_extend;" xmlns:i="&ns_ai;" xmlns:graph="&ns_graphs;"
	 xmlns="http://www.w3.org/2000/svg" xmlns:xlink="http://www.w3.org/1999/xlink" xmlns:a="http://ns.adobe.com/AdobeSVGViewerExtensions/3.0/"
	 x="0px" y="0px" width="296px" height="68.1px" viewBox="0 0 296 68.1" style="enable-background:new 0 0 296 68.1;"
	 xml:space="preserve">
<style type="text/css">
<![CDATA[
	.st0{fill:#FFFFFF;}
]]>
</style>
<g>
	<path class="st0" d="M0,0v56.1h56.1V0H0z M23.6,3.8c-0.5,0.1-1.1,0.4-1.5,0.8c-0.6,0.7-0.7,1.6-0.7,5.6V21c0,1.6,0,2.5,0.3,3.2
		c0.3,0.6,0.8,1.1,1.9,1.3v0.7c-1.2-0.1-3.1-0.1-4.2-0.1c-1.1,0-3.1,0-4.3,0.1v-0.7c0.5-0.1,1.1-0.4,1.5-0.8
		c0.6-0.7,0.7-1.6,0.7-5.6v-4H9.1V21c0,1.6,0,2.5,0.3,3.2c0.3,0.6,0.8,1.1,1.9,1.3v0.7c-1.2-0.1-3.1-0.1-4.2-0.1s-3.1,0-4.3,0.1
		v-0.7c0.5-0.1,1.1-0.4,1.5-0.8c0.6-0.7,0.7-1.6,0.7-5.6V8.3c0-1.6,0-2.5-0.3-3.2C4.4,4.5,3.9,4,2.8,3.8V3.1C4,3.2,5.9,3.2,7,3.2
		c1.1,0,3.1,0,4.3-0.1v0.7c-0.5,0.1-1.1,0.4-1.5,0.8c-0.6,0.7-0.7,1.6-0.7,5.6v3.2h8.1V8.3c0-1.6,0-2.5-0.3-3.2
		c-0.3-0.6-0.8-1.1-1.9-1.3V3.1c1.2,0.1,3.1,0.1,4.2,0.1c1.1,0,3.1,0,4.3-0.1V3.8z M46.1,3.8c-0.5,0.1-1.1,0.4-1.5,0.8
		c-0.6,0.7-0.7,1.6-0.7,5.6v16.1h-3.6L30.7,8.9C30.3,8.1,30,7.5,30,7.3V21c0,1.6,0,2.5,0.3,3.2c0.3,0.6,0.8,1.1,1.9,1.3v0.7
		c-1.2-0.1-2.1-0.1-3.2-0.1c-1.1,0-2.1,0-3.3,0.1v-0.7c0.5-0.1,1.1-0.4,1.5-0.8c0.6-0.7,0.7-1.6,0.7-5.6V8.3c0-1.6,0-2.5-0.3-3.2
		c-0.3-0.6-0.8-1.1-1.9-1.3V3.1c0.9,0.1,3,0.1,3.9,0.1c0.6,0,2.2,0,2.9-0.1l8.5,15.3c0.5,1,0.7,1.6,0.8,1.8V8.3c0-1.6,0-2.5-0.3-3.2
		c-0.3-0.6-0.8-1.1-1.9-1.3V3.1c1.2,0.1,2.1,0.1,3.2,0.1c1.1,0,2.1,0,3.3-0.1V3.8z"/>
	<g>
		<path class="st0" d="M107.7,56.1V38.4c0-6.9-3.1-9.8-8.2-9.8c-4.9,0-8.4,2.9-8.4,9.8v17.7h-4.2V38.3c0-6.8-3.6-9.6-8.3-9.6
			c-5.2,0-8.3,3.6-8.3,9.6v17.8h-4.2V25.6h4.2v3.5c2.4-3.1,4.8-4.2,8.7-4.2c4.6,0,7.7,1.8,10.1,5.9c2.6-4.1,5.9-5.9,10.7-5.9
			c7,0,12.1,4.3,12.1,13.2v18.1H107.7z"/>
		<path class="st0" d="M134,28.7c-6.7,0-12.1,5.4-12.1,12c0,7,5.3,12.4,12.3,12.4c6.6,0,11.8-5.4,11.8-12.3
			C146.1,33.9,140.8,28.7,134,28.7 M146.1,56.1v-5.3c-3.3,4.3-6.6,6.1-11.9,6.1c-9.5,0-16.5-6.8-16.5-15.9c0-9.1,7-16.1,16.2-16.1
			c5.3,0,9.1,1.9,12.2,6.1v-5.4h4.2v30.5H146.1z"/>
		<path class="st0" d="M172.1,28.7c-6.8,0-11.8,5-11.8,12c0,7.1,5.1,12.4,11.8,12.4c6.7,0,11.8-5.4,11.8-12.5
			C183.9,33.9,178.8,28.7,172.1,28.7 M185.2,62.6c-2.6,3.5-7.1,5.5-12.5,5.5c-7.8,0-13.2-3.9-15.5-11h4.1c3.2,5.5,6.1,7.2,11.3,7.2
			c7.4,0,11.3-4.3,11.3-12.3v-2.1c-2.4,4.7-6.2,6.9-11.8,6.9c-9,0-16-6.9-16-15.8c0-9.2,6.8-16.1,15.8-16.1c5.2,0,8.9,1.9,12,6.1
			v-5.4h4.2v25C188.1,56.6,187.3,59.8,185.2,62.6"/>
		<path class="st0" d="M210.3,28.7c-6.7,0-12.1,5.4-12.1,12c0,7,5.3,12.4,12.3,12.4c6.6,0,11.8-5.4,11.8-12.3
			C222.4,33.9,217.1,28.7,210.3,28.7 M222.4,56.1v-5.3c-3.3,4.3-6.6,6.1-11.9,6.1c-9.5,0-16.5-6.8-16.5-15.9c0-9.1,7-16.1,16.2-16.1
			c5.3,0,9.1,1.9,12.2,6.1v-5.4h4.2v30.5H222.4z"/>
	</g>
	<polygon class="st0" points="230.6,56.1 230.6,52.4 247.6,29.4 231.2,29.4 231.2,25.6 252.4,25.6 252.4,29.1 235.5,52.4 
		253.4,52.4 253.4,56.1 	"/>
	<path class="st0" d="M257.5,25.6h4.2v30.5h-4.2V25.6z M257.5,23l-1.9-3.1l10.9-6.5l1.9,3.2L257.5,23z"/>
	<g>
		<path class="st0" d="M291.9,56.1v-16c0-8.3-3.8-11.4-9.5-11.4c-5.6,0-9.4,3.2-9.4,10.6v16.8h-4.2V25.6h4.2v4
			c2.6-3.1,5.9-4.7,9.9-4.7c7.7,0,13.2,4.5,13.2,15.2v16H291.9z"/>
	</g>
</g>
</svg>
