<?xml version="1.0" encoding="utf-8"?>
<!-- Generator: Adobe Illustrator 16.0.0, SVG Export Plug-In . SVG Version: 6.00 Build 0)  -->
<!DOCTYPE svg PUBLIC "-//W3C//DTD SVG 1.1//EN" "http://www.w3.org/Graphics/SVG/1.1/DTD/svg11.dtd" [
	<!ENTITY ns_flows "http://ns.adobe.com/Flows/1.0/">
	<!ENTITY ns_extend "http://ns.adobe.com/Extensibility/1.0/">
	<!ENTITY ns_ai "http://ns.adobe.com/AdobeIllustrator/10.0/">
	<!ENTITY ns_graphs "http://ns.adobe.com/Graphs/1.0/">
]>
<svg version="1.1" id="Vrstva_1" xmlns:x="&ns_extend;" xmlns:i="&ns_ai;" xmlns:graph="&ns_graphs;"
	 xmlns="http://www.w3.org/2000/svg" xmlns:xlink="http://www.w3.org/1999/xlink" xmlns:a="http://ns.adobe.com/AdobeSVGViewerExtensions/3.0/"
	 x="0px" y="0px" width="297.5px" height="60.6px" viewBox="0 0 297.5 60.6" style="enable-background:new 0 0 297.5 60.6;"
	 xml:space="preserve">
<style type="text/css">
<![CDATA[
	.st0{display:none;fill:#FFFFFF;}
	.st1{fill:#FFFFFF;}
]]>
</style>
<g>
	<path class="st1" d="M0,0v60.6h60.6V0H0z M25.5,4.1c-0.6,0.1-1.2,0.4-1.6,0.9c-0.7,0.8-0.7,1.8-0.7,6.1v11.6c0,1.7,0,2.7,0.3,3.4
		c0.3,0.7,0.8,1.2,2,1.4v0.8c-1.3-0.1-3.4-0.1-4.6-0.1c-1.2,0-3.3,0-4.7,0.1v-0.8c0.6-0.1,1.2-0.4,1.6-0.9c0.7-0.8,0.7-1.8,0.7-6.1
		v-4.3H9.8v6.4c0,1.7,0,2.7,0.3,3.4c0.3,0.7,0.8,1.2,2,1.4v0.8c-1.3-0.1-3.4-0.1-4.5-0.1c-1.2,0-3.3,0-4.7,0.1v-0.8
		c0.6-0.1,1.2-0.4,1.6-0.9c0.7-0.8,0.7-1.8,0.7-6.1V8.9c0-1.7,0-2.7-0.3-3.4C4.7,4.8,4.2,4.3,3,4.1V3.3c1.3,0.1,3.4,0.1,4.5,0.1
		c1.2,0,3.3,0,4.7-0.1v0.8C11.6,4.2,11,4.5,10.5,5C9.9,5.8,9.8,6.7,9.8,11v3.4h8.8V8.9c0-1.7,0-2.7-0.3-3.4c-0.3-0.7-0.8-1.2-2-1.4
		V3.3c1.3,0.1,3.4,0.1,4.5,0.1c1.2,0,3.3,0,4.7-0.1V4.1z M49.7,4.1C49.1,4.2,48.5,4.5,48,5c-0.7,0.8-0.7,1.8-0.7,6.1v17.4h-3.9
		L33.1,9.6c-0.4-0.8-0.7-1.5-0.8-1.7v14.7c0,1.7,0,2.7,0.3,3.4c0.3,0.7,0.8,1.2,2,1.4v0.8c-1.3-0.1-2.3-0.1-3.4-0.1s-2.2,0-3.6,0.1
		v-0.8c0.6-0.1,1.2-0.4,1.6-0.9c0.7-0.8,0.7-1.8,0.7-6.1V8.9c0-1.7,0-2.7-0.3-3.4c-0.3-0.7-0.8-1.2-2-1.4V3.3c1,0.1,3.2,0.1,4.2,0.1
		c0.6,0,2.4,0,3.1-0.1l9.2,16.5c0.5,1,0.8,1.7,0.9,1.9V8.9c0-1.7,0-2.7-0.3-3.4c-0.3-0.7-0.8-1.2-2-1.4V3.3c1.3,0.1,2.3,0.1,3.4,0.1
		c1.2,0,2.2,0,3.6-0.1V4.1z"/>
	<g>
		<rect x="-0.1" y="0" class="st0" width="302.9" height="60.6"/>
		<path class="st1" d="M86.6,60.4c-11,0-19.8-7.8-19.8-17.7c0-10,8.6-17.7,19.8-17.7c10.7,0,19.3,7.9,19.3,17.7
			C105.9,52.7,97.5,60.4,86.6,60.4z M86.5,31.2c-7.2,0-12.7,5-12.7,11.6c0,6.5,5.6,11.6,12.7,11.6c7.1,0,12.4-4.9,12.4-11.5
			C98.9,36.2,93.5,31.2,86.5,31.2z"/>
		<polygon class="st1" points="131.3,59.8 115.6,35 115.6,59.8 108.6,59.8 108.6,25.7 116.5,25.7 132.1,50.5 132.1,25.7 139.1,25.7 
			139.1,59.8 		"/>
		<polygon class="st1" points="143.6,59.8 143.6,25.7 150.6,25.7 150.6,53.8 162.1,53.8 162.1,59.8 		"/>
		<rect x="163.9" y="25.7" class="st1" width="7" height="34.2"/>
		<polygon class="st1" points="199.1,59.8 183.4,35 183.4,59.8 176.4,59.8 176.4,25.7 184.3,25.7 199.9,50.5 199.9,25.7 206.9,25.7 
			206.9,59.8 		"/>
		<polygon class="st1" points="211.4,59.8 211.4,25.7 231.6,25.7 231.6,31.7 218.4,31.7 218.4,39.8 231,39.8 231,45.8 218.4,45.8 
			218.4,53.8 231.6,53.8 231.6,59.8 		"/>
		<rect x="235.8" y="53.9" class="st1" width="6.8" height="5.9"/>
		<path class="st1" d="M257.5,60.4c-6.8,0-11.4-4-11.7-10.2h4c0.6,4.6,3.6,7,7.8,7c4.3,0,7.4-2.9,7.4-6.8c0-3.7-1.9-5.4-8.4-7.2
			c-4.4-1.2-5.5-1.7-7-3c-1.7-1.4-2.6-3.7-2.6-6.1c0-5.3,4.4-9.2,10.4-9.2c6.2,0,10.5,3.7,10.5,9.2H264c0-3.7-2.9-6.1-6.7-6.1
			c-3.8,0-6.5,2.5-6.5,6c0,1.6,0.7,3.1,1.8,4c1,0.8,2.1,1.2,5.5,2.1c3.9,1.1,5.4,1.7,7,2.7c2.4,1.6,3.8,4.3,3.8,7.3
			C268.8,56.1,264,60.4,257.5,60.4z"/>
		<polygon class="st1" points="292.8,59.8 280.3,45 275.4,50.5 275.4,59.8 271.7,59.8 271.7,25.7 275.4,25.7 275.4,45.3 292.8,25.7 
			297.5,25.7 282.7,42.3 297.5,59.8 		"/>
	</g>
</g>
</svg>
