<?xml version="1.0" encoding="utf-8"?>
<!-- Generator: Adobe Illustrator 16.0.0, SVG Export Plug-In . SVG Version: 6.00 Build 0)  -->
<!DOCTYPE svg PUBLIC "-//W3C//DTD SVG 1.1//EN" "http://www.w3.org/Graphics/SVG/1.1/DTD/svg11.dtd" [
	<!ENTITY ns_flows "http://ns.adobe.com/Flows/1.0/">
	<!ENTITY ns_extend "http://ns.adobe.com/Extensibility/1.0/">
	<!ENTITY ns_ai "http://ns.adobe.com/AdobeIllustrator/10.0/">
	<!ENTITY ns_graphs "http://ns.adobe.com/Graphs/1.0/">
]>
<svg version="1.1" id="Vrstva_1" xmlns:x="&ns_extend;" xmlns:i="&ns_ai;" xmlns:graph="&ns_graphs;"
	 xmlns="http://www.w3.org/2000/svg" xmlns:xlink="http://www.w3.org/1999/xlink" xmlns:a="http://ns.adobe.com/AdobeSVGViewerExtensions/3.0/"
	 x="0px" y="0px" width="297.5px" height="194.4px" viewBox="0 0 297.5 194.4" style="enable-background:new 0 0 297.5 194.4;"
	 xml:space="preserve">
<style type="text/css">
<![CDATA[
	.st0{fill:none;stroke:#FFFFFF;stroke-width:2;stroke-miterlimit:10;}
	.st1{fill:#FFFFFF;}
	.st2{clip-path:url(#SVGID_2_);fill:#FFFFFF;}
]]>
</style>
<g>
	<path class="st0" d="M296.5,160.9c0,18-14.6,32.6-32.6,32.6H33.6c-18,0-32.6-14.6-32.6-32.6V33.6C1,15.6,15.6,1,33.6,1H264
		c18,0,32.6,14.6,32.6,32.6V160.9z"/>
	<path class="st1" d="M202.4,82c-14.5-21.6-20.7-46-50-41.1v112.1h27.3L179.7,82H202.4z"/>
	<path class="st1" d="M218.5,107.5h-25.9c13.8,20.9,23.1,53.6,53.3,45.4V40.8h-27.4V107.5z"/>
	<rect x="182.1" y="84.7" class="st1" width="33.4" height="20.2"/>
	<rect x="114.3" y="40.8" class="st1" width="27.1" height="41.1"/>
	<rect x="114.3" y="107.6" class="st1" width="27.1" height="45.3"/>
	<g>
		<defs>
			<path id="SVGID_1_" d="M46.7,40.8V92c0,27.4,6.1,42.7,28.9,60.9v-48h36.5v0H150V84.7h-35.7H75.5V40.8H46.7z"/>
		</defs>
		<use xlink:href="#SVGID_1_"  style="overflow:visible;fill:#FFFFFF;"/>
		<clipPath id="SVGID_2_">
			<use xlink:href="#SVGID_1_"  style="overflow:visible;"/>
		</clipPath>
		<rect x="46.7" y="40.8" class="st2" width="103.3" height="112.1"/>
	</g>
	<g>
		<polygon class="st1" points="51.9,169.4 51.9,178.9 49.7,178.9 49.7,169.4 46.7,169.4 46.7,167.4 54.9,167.4 54.9,169.4 		"/>
		<polygon class="st1" points="72.2,178.9 72.2,167.4 79.7,167.4 79.7,169.4 74.4,169.4 74.4,172.1 78.9,172.1 78.9,174.1 
			74.4,174.1 74.4,176.9 79.7,176.9 79.7,178.9 		"/>
		<polygon class="st1" points="97.4,178.9 97.4,167.4 99.6,167.4 99.6,176.9 104.8,176.9 104.8,178.9 		"/>
		<polygon class="st1" points="122.1,178.9 122.1,167.4 129.6,167.4 129.6,169.4 124.3,169.4 124.3,172.1 128.8,172.1 128.8,174.1 
			124.3,174.1 124.3,176.9 129.6,176.9 129.6,178.9 		"/>
		<polygon class="st1" points="151.4,178.9 149.8,178.9 146,167.4 148.3,167.4 150.6,174.9 152.9,167.4 155.2,167.4 		"/>
		<path class="st1" d="M173.5,166.3h-1.4l1-2.7h2.2L173.5,166.3z M172.1,167.4h2.2v11.5h-2.2V167.4z"/>
		<polygon class="st1" points="191.8,178.9 191.8,177.1 196.6,169.4 192,169.4 192,167.4 199.3,167.4 199.3,169.2 194.4,176.9 
			199.3,176.9 199.3,178.9 		"/>
		<rect x="216.7" y="167.4" class="st1" width="2.2" height="11.5"/>
		<path class="st1" d="M243.6,178.9l-0.7-2h-4.1l-0.7,2h-2.3l4.2-11.5h1.8l4.2,11.5H243.6z M240.9,170.8l-1.4,4.2h2.8L240.9,170.8z"
			/>
	</g>
</g>
</svg>
