<?xml version="1.0" encoding="utf-8"?>
<!-- Generator: Adobe Illustrator 16.0.0, SVG Export Plug-In . SVG Version: 6.00 Build 0)  -->
<!DOCTYPE svg PUBLIC "-//W3C//DTD SVG 1.1//EN" "http://www.w3.org/Graphics/SVG/1.1/DTD/svg11.dtd" [
	<!ENTITY ns_flows "http://ns.adobe.com/Flows/1.0/">
	<!ENTITY ns_extend "http://ns.adobe.com/Extensibility/1.0/">
	<!ENTITY ns_ai "http://ns.adobe.com/AdobeIllustrator/10.0/">
	<!ENTITY ns_graphs "http://ns.adobe.com/Graphs/1.0/">
]>
<svg version="1.1" id="Vrstva_1" xmlns:x="&ns_extend;" xmlns:i="&ns_ai;" xmlns:graph="&ns_graphs;"
	 xmlns="http://www.w3.org/2000/svg" xmlns:xlink="http://www.w3.org/1999/xlink" xmlns:a="http://ns.adobe.com/AdobeSVGViewerExtensions/3.0/"
	 x="0px" y="0px" width="294.7px" height="86px" viewBox="0 0 294.7 86" style="enable-background:new 0 0 294.7 86;"
	 xml:space="preserve">
<style type="text/css">
<![CDATA[
	.st0{fill:#FFFFFF;}
]]>
</style>
<g>
	<path class="st0" d="M247.2,56h9.8l4.3-13.4h19.6l4.2,13.4h9.6L276.2,0.6h-9.7L247.2,56z M263.8,34.6l7.6-22l7.3,22H263.8z
		 M199.9,28.1c0,17.1,4.7,28.2,18.7,28.3c6.4,0.1,13.9-0.6,19-2v-6.9c0,0-9.5,0.6-17.4,0.6c-9.2,0-11.5-7.5-11.5-19.9
		c0-17.3,3.1-20,11.5-20c7.3,0,17.3,0.9,17.4,0.9V2.3C231.9,0.8,225,0,218.6,0C203.6,0,199.9,10.4,199.9,28.1 M155.8,45.7
		c0,9.6,6.9,10.7,11.9,10.5c0,0,20.7-0.9,23.4-1.3v-7.1h-21.9c-2.2,0-4.6,0.1-4.7-3.9v-11l23.2-0.8V25l-23.2-0.8v-11
		c0-2,0-4.2,3.9-4.2h22.6V1.8c-3.1-0.5-24.2-1.2-24.2-1.2c-5.1-0.2-11.1,2.1-11.1,10.9V45.7z M106.2,56h8.8V33.4l11.4,1.1L136.4,56
		h9.8l-10.9-22.2c2.7-0.8,9.1-2.2,9.1-16.2c0-12.9-6.1-17-14.2-17h-24.1V56z M115,26.2V8.6h14.5c3.3,0,6.1,1.4,6.1,9
		c0,7.9-2.4,8.6-6.1,8.6H115z M51,28.7c0,25.2,8.4,27.6,22,27.6c13.6,0,21.9-3.2,21.9-27.6C94.9,2.7,86.1,0.2,73,0.2
		C60.3,0.2,51,2.7,51,28.7 M59.8,28.7C59.8,9.2,64.2,8.5,73,8.5c9.1,0,13.1,1,13.1,20.2C86.1,45,82.9,48,73,48
		C62.7,48,59.8,45.4,59.8,28.7 M0,56h8.8V33.3h21.7V56h8.8V0.6h-8.8v24.5H8.8V0.6H0V56z"/>
	<path class="st0" d="M99.9,71.5c1.6-1.6,2.6-2.1,3.9-2.1c1.1,0,1.5,0.5,1.5,1.8v7.9c0,0.3,0.1,0.4,0.2,0.4c0.1,0,0.1,0,0.2,0l2-0.5
		c0.2,0,0.2-0.1,0.2-0.2c0-0.1-0.1-0.2-0.1-0.2c0,0-0.1,0-0.1,0h-0.1c-0.1,0-0.1-0.1-0.1-0.4v-6.6c1.5-1.6,2.5-2.1,3.8-2.1
		c0.6,0,1.1,0.2,1.3,0.6c0.2,0.3,0.2,0.6,0.2,1.3V78c0,1.2,0.1,1.4,0.6,1.4c0.3,0,0.3,0,0.9-0.2l1.8-0.5l0.2-0.1
		c0.1,0,0.2-0.1,0.2-0.2c0,0-0.1-0.1-0.1-0.1c-0.1,0-0.1,0-0.2,0c-0.1,0-0.5,0.1-0.7,0.1c-0.4,0-0.6-0.2-0.6-0.8v-7
		c0-0.7-0.1-1.2-0.3-1.6c-0.4-0.6-1.2-1-2.1-1c-1.7,0-3.7,1.2-5.3,3.2c0.1-0.4,0.1-0.7,0.1-1c0-1.5-0.7-2.2-2.2-2.2
		c-1.8,0-3.6,1.1-5.4,3.2c0.1-0.4,0.1-0.5,0.1-0.7v-2c0-0.4-0.1-0.5-0.2-0.5c-0.1,0-0.4,0.1-0.5,0.1L96.6,69
		c-0.2,0.1-0.3,0.2-0.3,0.3c0,0.1,0.1,0.1,0.1,0.1c0.1,0,0.2,0,0.6-0.1c0.1,0,0.3-0.1,0.3-0.1c0.4,0,0.5,0.2,0.5,1.1v8.7
		c0,0.3,0,0.4,0.2,0.4c0.1,0,0.1,0,0.2,0l1.9-0.5c0.2,0,0.2-0.1,0.2-0.2c0-0.1-0.1-0.2-0.1-0.2c0,0-0.1,0-0.1,0c0,0-0.1,0-0.1,0
		c-0.1,0-0.1-0.1-0.1-0.4V71.5z M124.6,73c-4.4,0.8-6.2,2-6.2,4.2c0,1.4,0.9,2.2,2.4,2.2c1.5,0,2.9-0.8,3.9-2.4
		c-0.1,0.5-0.1,0.7-0.1,1.1c0,1,0.2,1.3,0.9,1.3c0.3,0,0.6,0,1-0.2l2-0.7c0.3-0.1,0.3-0.1,0.3-0.2c0-0.1-0.1-0.1-0.2-0.1
		c0,0-0.1,0-0.2,0c-0.3,0.1-0.9,0.2-1.1,0.2c-0.6,0-0.7-0.2-0.7-1.2v-7c0-1.5-0.6-2.1-2.1-2.1c-1.7,0-3.3,0.5-4.6,1.5
		c-0.7,0.5-1.1,1.1-1.1,1.5c0,0.1,0.1,0.2,0.2,0.2c0.1,0,0.3-0.1,0.9-0.3c0.6-0.2,0.6-0.2,0.7-0.5c0.1-0.5,0.6-1.1,1.3-1.5l0.8,0
		c1.4,0,1.8,0.4,1.8,1.9V73z M124.6,76.9c-0.9,1-1.6,1.4-2.5,1.4c-1,0-1.6-0.6-1.6-1.7c0-1.8,1.4-2.9,4.1-3.2V76.9z M136.8,68.3
		c-0.6-0.1-0.9-0.2-1.3-0.2c-2.5,0-4.6,1.8-4.6,4c0,1.3,0.7,2.5,1.8,3c0.4,0.2,0.8,0.3,1.5,0.4c-0.7,0.2-1.3,0.4-2.6,0.9
		c-0.8,0.4-1.2,0.7-1.2,1.1c0,0.4,0.4,0.8,1,1c0.8,0.3,2,0.6,2.9,0.6c-2.8,0.9-4.4,2.2-4.4,3.9c0,1.7,1.7,2.8,4.1,2.8
		c1.5,0,3.1-0.4,4.5-1.1c1.5-0.8,2.3-2,2.3-3.3c0-1.6-1-2.5-3.8-3c-2.6-0.6-2.9-0.6-3.5-0.8c-0.7-0.2-1-0.4-1-0.8
		c0-0.5,0.6-0.9,1.9-1.2h0.3c2.9,0,4.9-1.6,4.9-3.9c0-1.5-0.7-2.4-2.1-2.9c0.5,0.1,1.3,0.2,2.2,0.2c0.2,0,0.5-0.1,0.8-0.1l1.3-0.4
		c0.1,0,0.2-0.1,0.2-0.1c0,0,0-0.1-0.2-0.1H136.8z M136.8,85.2c-0.4,0.1-0.6,0.1-1,0.1c-0.9,0-1.6-0.1-2.2-0.3
		c-1.1-0.4-1.9-1.3-1.9-2.5c0-1.5,1.1-2.7,2.9-3.1c2.8,0.5,4,1.4,4,2.9C138.7,83.6,138.1,84.4,136.8,85.2 M134.4,68.8
		c2,0,3.3,1.4,3.3,3.5c0,1.1-0.3,2-1.1,2.9c-0.2,0-0.3,0-0.3,0c-2,0-3.3-1.4-3.3-3.5c0-1.1,0.4-2.1,1.1-2.8H134.4z M148,73
		c-4.4,0.8-6.2,2-6.2,4.2c0,1.4,0.9,2.2,2.4,2.2c1.5,0,2.9-0.8,3.9-2.4c-0.1,0.5-0.1,0.7-0.1,1.1c0,1,0.2,1.3,0.9,1.3
		c0.3,0,0.6,0,1-0.2l2-0.7c0.3-0.1,0.3-0.1,0.3-0.2c0-0.1-0.1-0.1-0.2-0.1c0,0-0.1,0-0.2,0c-0.3,0.1-0.9,0.2-1.1,0.2
		c-0.6,0-0.8-0.2-0.8-1.2v-7c0-1.5-0.6-2.1-2.1-2.1c-1.7,0-3.3,0.5-4.6,1.5c-0.7,0.5-1.1,1.1-1.1,1.5c0,0.1,0.1,0.2,0.2,0.2
		c0.1,0,0.3-0.1,0.9-0.3c0.6-0.2,0.6-0.2,0.7-0.5c0.1-0.5,0.6-1.1,1.3-1.5l0.8,0c1.4,0,1.8,0.4,1.8,1.9V73z M148,76.9
		c-0.9,1-1.6,1.4-2.5,1.4c-1,0-1.6-0.6-1.6-1.7c0-1.8,1.4-2.9,4.1-3.2V76.9z M162.2,68.6c0.1-0.1,0.1-0.2,0.1-0.2
		c0-0.1-0.1-0.1-0.3-0.1h-4.8c-1,0-1.2,0-1.8,0.2l-1.5,0.4c-0.2,0.1-0.2,0.1-0.2,0.1c0,0.1,0.1,0.1,0.2,0.1h4.4c0.9,0,1,0,1.4-0.1
		c-0.1,0.1-0.2,0.2-0.2,0.3c-0.1,0.1-0.3,0.5-0.7,1.1l-5.2,8.5c-0.1,0.1-0.1,0.2-0.1,0.3c0,0.1,0.1,0.1,0.2,0.1h4.6
		c1.3,0,1.8-0.1,2.6-0.3l1.4-0.4c0.4-0.1,0.5-0.2,0.5-0.3c0-0.1-0.1-0.1-0.1-0.1c-0.1,0-0.1,0-0.2,0c-0.4,0.1-1.4,0.2-2.4,0.2h-2.6
		c-0.7,0-0.9,0-1.5,0.1c0.3-0.4,0.3-0.4,1-1.5L162.2,68.6z M165.4,78c0,1.2,0.1,1.4,0.6,1.4c0.3,0,0.3,0,0.9-0.2l1.8-0.5l0.2-0.1
		c0.1,0,0.2-0.1,0.2-0.2c0,0-0.1-0.1-0.1-0.1c-0.1,0-0.1,0-0.2,0c-0.1,0-0.5,0.1-0.7,0.1c-0.4,0-0.6-0.2-0.6-0.8v-9.1
		c0-0.4-0.1-0.5-0.2-0.5c-0.1,0-0.1,0-0.4,0.1l-2.6,0.9c-0.3,0.1-0.4,0.2-0.4,0.3c0,0.1,0.1,0.1,0.2,0.1c0,0,0.1,0,0.2,0
		c0.2-0.1,0.5-0.2,0.7-0.2c0.4,0,0.6,0.2,0.6,0.9V78z M165,64c-0.2,0.1-0.3,0.2-0.3,0.3c0,0.5,0.7,1,1.4,1c0.4,0,0.7-0.1,1.3-0.3
		l1.1-0.4c0.2,0,0.2-0.1,0.2-0.2c0-0.1-0.1-0.2-0.1-0.2c0,0,0,0-0.2,0c-0.2,0-0.3,0.1-0.5,0.1c-0.4,0-0.9-0.3-0.9-0.7
		c0,0,0-0.1,0.1-0.1c0.1-0.2,0.1-0.2,0.1-0.2c0-0.1-0.1-0.2-0.2-0.2c-0.1,0-0.1,0-0.3,0.1L165,64z M173.9,71.5
		c1.2-1.4,2.6-2.1,3.9-2.1c0.6,0,1,0.2,1.3,0.5c0.2,0.3,0.2,0.5,0.2,1.4V78c0,1.2,0.1,1.4,0.6,1.4c0.3,0,0.3,0,0.9-0.2l1.8-0.5
		l0.2-0.1c0.1,0,0.2-0.1,0.2-0.2c0,0-0.1-0.1-0.1-0.1s-0.1,0-0.2,0c-0.1,0-0.5,0.1-0.7,0.1c-0.4,0-0.6-0.2-0.6-0.8v-6.8
		c0-1-0.1-1.5-0.5-1.9c-0.4-0.5-1.1-0.8-1.9-0.8c-1.7,0-3.5,1.1-5.4,3.2c0.1-0.3,0.1-0.5,0.1-0.8v-1.9c0-0.4-0.1-0.5-0.2-0.5
		c-0.1,0-0.4,0.1-0.5,0.1l-2.5,0.8c-0.2,0.1-0.3,0.2-0.3,0.3c0,0.1,0.1,0.1,0.1,0.1c0.1,0,0.2,0,0.6-0.1c0.1,0,0.3-0.1,0.3-0.1
		c0.4,0,0.5,0.2,0.5,1.1v8.7c0,0.3,0,0.4,0.2,0.4c0.1,0,0.1,0,0.2,0l1.9-0.5c0.2,0,0.2-0.1,0.2-0.2c0-0.1-0.1-0.2-0.1-0.2
		c0,0-0.1,0-0.1,0c0,0-0.1,0-0.1,0c-0.1,0-0.1-0.1-0.1-0.4V71.5z M190.3,72.9c1.1,0,2.1-0.2,3-0.4c0.5-0.2,0.7-0.4,0.7-1
		c0-1.9-1.5-3.4-3.5-3.4c-1.3,0-2.7,0.5-3.8,1.5c-1.5,1.2-2.3,2.9-2.3,4.8c0,3.1,1.8,5,4.7,5c1.2,0,2-0.3,3.8-1.2
		c0.7-0.4,0.8-0.4,0.8-0.5c0-0.1-0.1-0.2-0.2-0.2c0,0-0.2,0-0.2,0.1c-1.1,0.6-1.7,0.8-2.7,0.8c-2.5,0-4.1-1.9-4.1-4.7
		c0-0.2,0-0.4,0-0.8H190.3z M186.5,72c0.3-1.3,0.9-2.3,2.1-3.1l0.5,0c1.1,0,1.9,0.4,2.4,1.1c0.4,0.5,0.5,1.1,0.5,2H186.5z"/>
</g>
</svg>
