<?xml version="1.0" encoding="UTF-8"?>
<!DOCTYPE svg PUBLIC "-//W3C//DTD SVG 1.1//EN" "http://www.w3.org/Graphics/SVG/1.1/DTD/svg11.dtd">
<!-- Creator: CorelDRAW -->
<svg xmlns="http://www.w3.org/2000/svg" xml:space="preserve" width="180.413mm" height="52.5925mm" style="shape-rendering:geometricPrecision; text-rendering:geometricPrecision; image-rendering:optimizeQuality; fill-rule:evenodd; clip-rule:evenodd"
viewBox="0 0 179.956 52.4592"
 xmlns:xlink="http://www.w3.org/1999/xlink">
 <defs>
  <style type="text/css">
   <![CDATA[
    .str1 {stroke:white;stroke-width:1.79544}
    .str0 {stroke:white;stroke-width:2.7929}
    .fil1 {fill:none;fill-rule:nonzero}
    .fil0 {fill:white;fill-rule:nonzero}
   ]]>
  </style>
 </defs>
 <g id="Layer_x0020_1">
  <metadata id="CorelCorpID_0Corel-Layer"/>
  <path class="fil0" d="M24.0403 34.0848c0,0.521076 -0.223332,0.862109 -0.669898,1.01721 -0.36597,0.124085 -1.32114,0.179843 -2.8717,0.179843 -1.4947,0 -2.58014,-0.0557583 -3.27478,-0.179843 -0.32258,-0.0620423 -0.539629,-0.124085 -0.645061,-0.192311 -0.0992478,-0.0682266 -0.229517,-0.235601 -0.390807,-0.514792 -0.880662,-1.62497 -1.76142,-3.24994 -2.62972,-4.86883 -1.44523,-2.61735 -2.30734,-4.06248 -2.58024,-4.3292 -1.30867,0.471402 -1.9661,0.812535 -1.9661,1.01721 0,0.911683 0.0372054,2.2824 0.111616,4.11833 0.0682266,1.83583 0.105432,3.21283 0.105432,4.1307 0,0.378338 -0.16119,0.589302 -0.489955,0.638876 -0.626408,0.0992478 -1.76771,0.142638 -3.41751,0.142638 -1.56911,0 -2.61116,-0.0433897 -3.11977,-0.142638 -0.353502,-0.0744109 -0.52716,-0.260538 -0.52716,-0.564366 0,-1.30877 0.0620423,-3.28106 0.186027,-5.92325 0.130269,-2.64219 0.192311,-4.62076 0.192311,-5.9419 0,-1.40174 -0.0620423,-3.51666 -0.179843,-6.33261 -0.124085,-2.81584 -0.186127,-4.92458 -0.186127,-6.33251 0,-0.266722 0.130269,-0.396991 0.384523,-0.396991 0.378338,0 0.942804,0.0186526 1.69948,0.0496738 0.756677,0.0372054 1.32114,0.0557583 1.69948,0.0557583 0.384523,0 0.961357,-0.0185528 1.72422,-0.0557583 0.762861,-0.0310212 1.33351,-0.0496738 1.71185,-0.0496738 0.20468,0 0.303928,0.105432 0.303928,0.32258 0,0.899314 -0.0433897,2.25138 -0.136453,4.06248 -0.0868792,1.8111 -0.136453,3.16316 -0.136453,4.06258 0,1.04195 0.285275,1.56293 0.855925,1.56293 1.44513,0 2.56159,-0.396891 3.36166,-1.18459 0.595387,-0.576834 1.19087,-1.63744 1.79863,-3.17563 0.390807,-1.17841 1.0234,-2.90891 1.91035,-5.19759 0.130269,-0.303928 0.403175,-0.452749 0.818719,-0.452749 0.310112,0 0.787698,0.0186526 1.42657,0.0496738 0.632592,0.0372054 1.11018,0.0557583 1.42647,0.0557583 0.32258,0 0.812535,-0.0123686 1.4576,-0.0372054 0.651245,-0.0248369 1.13502,-0.0372054 1.44513,-0.0372054 0.291459,0 0.440381,0.142638 0.440381,0.421728 0,0.396991 -0.254354,1.3769 -0.762861,2.92756 -1.50717,4.57727 -3.23149,7.4366 -5.17904,8.57162 -0.403076,0.229517 -0.601571,0.421728 -0.601571,0.564366 0,-0.0123686 1.11636,1.80491 3.34929,5.45184 2.23901,3.64703 3.35547,5.81781 3.35547,6.50627z"/>
  <path id="1" class="fil0" d="M47.789 34.9221c0,0.0805952 -0.124085,0.142638 -0.36597,0.179843 -0.458934,0.0744109 -1.61879,0.111616 -3.46709,0.111616 -1.58776,0 -2.66702,-0.0372054 -3.23757,-0.111616 -0.266722,-0.0372054 -0.415644,-0.0682266 -0.452849,-0.0930635 -0.0744109,-0.0372054 -0.16119,-0.155006 -0.254254,-0.359686 -0.179843,-0.471402 -0.446565,-1.1785 -0.800067,-2.10884 -0.471402,-1.20943 -1.20953,-2.99569 -2.22046,-5.35878 -0.217148,-0.477586 -0.719472,-0.738124 -1.50717,-0.781514 0.36587,0.0248369 -0.260538,0.0372054 -1.86696,0.0372054 -0.186027,0 -0.272906,0.303928 -0.272906,0.924151 0,0.824904 0.0745106,2.05298 0.223332,3.69042 0.155006,1.63115 0.229517,2.86542 0.229517,3.68414 0,0.210864 -0.055858,0.328764 -0.16129,0.36597 -0.173659,0.0123686 -0.341133,0.0248369 -0.514792,0.0372054 -0.713287,0.0496738 -1.82347,0.0744109 -3.3431,0.0744109 -1.7304,0 -2.77245,-0.0372054 -3.12596,-0.111616 -0.347317,-0.0744109 -0.520976,-0.260538 -0.520976,-0.564366 0,-1.33351 0.0620423,-3.3431 0.186027,-6.02868 0.130269,-2.69186 0.192311,-4.70764 0.192311,-6.05352 0,-5.12318 -0.111616,-9.12361 -0.347317,-11.9953l-0.0186526 -0.254354c-0.00618428,-0.20458 0.179843,-0.341033 0.576834,-0.415544 0.390707,-0.0744109 2.24529,-0.148822 5.55109,-0.217048 2.23901,-0.049574 4.02537,-0.0744109 5.35878,-0.0744109 2.76009,0 5.01775,0.626408 6.76062,1.87314 1.97229,1.40164 2.95848,3.43607 2.95848,6.08444 0,1.76771 -0.254254,3.18181 -0.762861,4.23623 -0.508607,1.05432 -1.44513,2.07772 -2.81584,3.0701 -0.27919,0.192311 -0.415644,0.378338 -0.415644,0.545813 0,-0.0123686 0.738124,1.50717 2.21427,4.55871 1.48233,3.05154 2.22046,4.73866 2.22046,5.05495zm-7.6351 -16.2998c0,-1.48233 -0.483771,-2.50573 -1.45131,-3.0702 -0.750493,-0.440281 -1.929,-0.657429 -3.52295,-0.657429 -1.15367,0 -1.76771,0.179943 -1.83593,0.52726 -0.0744109,0.415544 -0.111616,1.60013 -0.111616,3.56015 0,0.279091 0.00618428,0.694635 0.0186526,1.24045 0.0123686,0.539629 0.0185528,0.948889 0.0185528,1.21561 0,0.0620423 0.192311,0.1179 0.583018,0.179943 0.738124,0.111616 1.51335,0.167375 2.32589,0.167375 2.64837,0 3.9757,-1.05432 3.9757,-3.16316z"/>
  <path id="12" class="fil0" d="M57.2166 21.6739c0,1.42657 0.0372054,3.5788 0.111616,6.45041 0.0682266,2.8717 0.105432,5.02393 0.105432,6.45051 0,0.241885 -0.0557583,0.396891 -0.16119,0.452749 -0.0248369,0.0123686 -0.186127,0.0372054 -0.471402,0.0744109 -0.787698,0.0992478 -1.84212,0.142638 -3.16316,0.142638 -1.76771,0 -2.89654,-0.0433897 -3.38031,-0.142638 -0.353502,-0.0744109 -0.52716,-0.260538 -0.52716,-0.564366 0,0.192212 0.0557583,-0.868393 0.16119,-3.19428 0.217148,-4.90603 0.328764,-8.13124 0.328764,-9.66943 0,-1.29631 -0.0433897,-3.24386 -0.124085,-5.83018 -0.0867795,-2.59261 -0.130269,-4.54006 -0.130269,-5.83637 0,-0.266722 0.142737,-0.396991 0.415644,-0.396991 0.378338,0 0.942704,0.0186526 1.69938,0.0496738 0.756677,0.0372054 1.32733,0.0557583 1.69948,0.0557583 0.378338,0 0.930336,-0.0185528 1.66218,-0.0557583 0.738124,-0.0310212 1.29012,-0.0496738 1.66228,-0.0496738 0.353502,0 0.52716,0.130269 0.52716,0.396991 0,1.29631 -0.0682266,3.24376 -0.20468,5.83637 -0.142638,2.58633 -0.210864,4.53388 -0.210864,5.83018zm-7.01487 -12.7954c-0.229417,0.0123686 -0.347317,-0.111716 -0.347317,-0.378338 0,-0.0992478 0.0124683,-0.248169 0.0372054,-0.459033 0.0248369,-0.20468 0.0372054,-0.359686 0.0372054,-0.471302 0,-0.142737 -0.0185528,-0.36597 -0.0619426,-0.669898 -0.0434895,-0.303928 -0.0620423,-0.52716 -0.0620423,-0.676082 0,-0.167474 0.123985,-0.297644 0.378338,-0.396891 0.595387,-0.229517 1.74287,-0.831188 3.45472,-1.79873 0.738024,-0.533345 1.86067,-1.32733 3.36166,-2.38165 0.0682266,-0.0620423 0.192212,-0.1179 0.359686,-0.179943 0.0868792,0.0248369 0.192311,0.0806949 0.310112,0.179943 0.279091,0.291459 0.719472,0.700819 1.32733,1.23426 0.341133,0.198496 0.837272,0.502323 1.48852,0.930336 0.192311,0.130269 0.291559,0.254254 0.291559,0.359686 0,0.0992478 -0.0868792,0.223332 -0.254254,0.384623 -1.06689,1.00475 -2.66702,1.95992 -4.79442,2.85923 -2.13368,0.905499 -3.91994,1.38937 -5.36507,1.46378l-0.16129 0z"/>
  <path id="123" class="fil0" d="M77.2936 35.3936c-0.713287,0 -1.78636,-0.0373052 -3.21283,-0.111716 -1.43276,-0.0682266 -2.50573,-0.105432 -3.21902,-0.105432 -1.01721,0 -2.53675,-0.0123686 -4.55871,-0.0372054 -2.02196,-0.0248369 -3.54778,-0.0372054 -4.5649,-0.0372054 -0.434197,0 -0.682266,-0.136453 -0.744308,-0.415544 -0.0248369,-0.77533 -0.142638,-1.9289 -0.359786,-3.45472 -0.148822,-0.595387 -0.217048,-0.924151 -0.217048,-0.998562 0,-0.0620423 1.48233,-2.40648 4.4471,-7.03971 2.97085,-4.63313 4.45328,-7.12639 4.45328,-7.47999 0,-0.192212 -0.155106,-0.291459 -0.471402,-0.291459 -0.84974,0 -2.12739,0.0247371 -3.84543,0.0744109 -1.71185,0.049574 -3.00197,0.0744109 -3.8579,0.0744109 -0.266722,0 -0.403175,-0.142638 -0.403175,-0.421728 0,-0.446565 0.136453,-1.32114 0.40936,-2.61745 0.272906,-1.29621 0.40936,-2.23283 0.40936,-2.81584 0,-0.192212 0.16129,-0.291459 0.490055,-0.291459 1.67454,0 4.18038,0.0372054 7.53585,0.111616 3.34919,0.0744109 5.85492,0.105432 7.52956,0.105432 0.254354,0 0.415544,0.142638 0.490055,0.421728 0.217048,0.967641 0.328665,2.35691 0.328665,4.16182 0,0.217048 -0.111616,0.489955 -0.328665,0.818719 -0.762961,1.09781 -2.36938,3.53532 -4.81307,7.30015 -2.79101,4.30436 -4.18038,6.55584 -4.18038,6.76052 0,0.0992478 0.0992478,0.148822 0.310112,0.148822 2.45616,0 4.34785,-0.049574 5.66899,-0.148822 0.266622,-0.0123686 0.843456,-0.0805952 1.74277,-0.217048 0.762961,-0.1179 1.32733,-0.179943 1.68711,-0.179943 0.173659,0 0.254254,0.124085 0.254254,0.378338 0,1.97857 -0.173659,3.94477 -0.52716,5.90469 -0.0434895,0.266722 -0.198496,0.403175 -0.452749,0.403175zm-6.1776 -26.4593l-3.12596 0c-0.217048,0 -0.372154,-0.0929637 -0.452749,-0.291459 -0.378338,-0.917967 -1.00485,-1.90416 -1.87314,-2.95848 -0.0248369,-0.0248369 -0.800067,-0.905599 -2.32589,-2.636 -0.0620423,-0.0620423 -0.123985,-0.167474 -0.179843,-0.328764 0.0186526,-0.0433897 0.465218,-0.254254 1.32114,-0.626408 0.862109,-0.36597 1.35206,-0.551997 1.47615,-0.551997 0.359686,0 0.973725,0.446565 1.83583,1.34588 0.800166,0.824904 1.30249,1.45131 1.50717,1.88551 0.0248369,0.049574 0.0744109,0.111616 0.142638,0.186027 0.0620423,-0.0247371 0.111716,-0.0744109 0.148922,-0.148822 0.297644,-0.558181 0.812435,-1.20943 1.54438,-1.95992 0.855925,-0.886946 1.51335,-1.32733 1.95992,-1.32733 0.148822,0 1.08544,0.353502 2.81584,1.05442 0.124085,0.049574 0.179843,0.105432 0.179843,0.16129 -0.868293,0.93652 -1.84202,1.99712 -2.92128,3.18171 -0.762861,0.905599 -1.29631,1.81728 -1.60023,2.72288 -0.0744109,0.198496 -0.223233,0.291459 -0.452749,0.291459z"/>
  <path id="1234" class="fil0" d="M106.258 22.381c0,3.78338 -1.20324,6.94655 -3.61591,9.50195 -2.46234,2.59261 -5.57593,3.88892 -9.34076,3.88892 -3.74618,0 -6.8474,-1.30877 -9.32211,-3.91994 -2.42514,-2.56159 -3.63456,-5.71238 -3.63456,-9.47093 0,-3.76483 1.20943,-6.93428 3.63456,-9.50205 2.47471,-2.62972 5.57593,-3.94468 9.32211,-3.94468 3.72144,0 6.82256,1.31496 9.30356,3.94468 2.43751,2.59261 3.65312,5.76206 3.65312,9.50205zm-6.8846 -0.0372054c0,-1.81728 -0.551997,-3.36166 -1.65599,-4.63323 -1.15367,-1.33341 -2.62353,-1.99712 -4.41608,-1.99712 -1.70567,0 -3.15698,0.68845 -4.34157,2.07164 -1.15367,1.33351 -1.7305,2.86542 -1.7305,4.59592 0,1.85449 0.539629,3.39886 1.61879,4.63313 1.1413,1.29631 2.62363,1.94755 4.45328,1.94755 1.70567,0 3.16326,-0.68845 4.36022,-2.05298 1.1413,-1.30867 1.71185,-2.82831 1.71185,-4.5649z"/>
  <path id="12345" class="fil0" d="M119.234 35.1764c-1.63734,0 -2.56777,-0.0248369 -2.79719,-0.0744109 -0.229517,-0.049574 -0.428012,-0.223332 -0.583018,-0.52716 -1.38318,-2.72288 -2.76627,-5.45813 -4.16182,-8.19328 -2.19562,-4.39752 -3.28725,-6.89089 -3.28725,-7.46762 0,-0.961357 0.0310212,-2.4003 0.0992478,-4.31683 0.0682266,-1.92271 0.0992478,-3.36166 0.0992478,-4.31683 0,-0.446565 0.1179,-0.669898 0.36597,-0.669898 0.725656,0 1.82347,0.0310212 3.3058,0.0868792 1.47615,0.0619426 2.58643,0.0929637 3.32445,0.0929637 0.303928,0 0.452849,0.124085 0.452849,0.378338 0,0.986194 -0.0682266,2.45616 -0.210964,4.42855 -0.136453,1.9661 -0.20468,3.44225 -0.20468,4.42226 0,0.750493 1.22808,3.43607 3.68424,8.05064 0.669898,-1.19706 1.42657,-2.67321 2.27622,-4.41608 1.13512,-2.35073 1.70567,-3.78967 1.70567,-4.32301 0,-0.886946 -0.0123686,-2.21427 -0.0372054,-3.98816 -0.0248369,-1.77389 -0.0372054,-3.1073 -0.0372054,-3.98806 0,-0.328764 0.055858,-0.508607 0.167474,-0.545813 0,0 0.192212,0 0.576834,0 0.669798,0 1.67464,-0.0310212 3.02671,-0.0992478 1.35206,-0.0682266 2.36309,-0.0992478 3.02671,-0.0992478 0.36597,0 0.545813,0.142638 0.545813,0.434197 0,0.930336 -0.0185528,2.33826 -0.0433897,4.22377 -0.0310212,1.88551 -0.049574,3.29961 -0.049574,4.24242 0,0.750493 -1.19087,3.51666 -3.5788,8.28634 -0.942704,1.71803 -2.30724,4.31055 -4.08731,7.77773 -0.124085,0.266622 -0.20468,0.415544 -0.24807,0.446565 -0.0372054,0.0310212 -0.192311,0.0557583 -0.459033,0.0805952 -0.620224,0.049574 -1.5754,0.0744109 -2.8717,0.0744109z"/>
  <path id="123456" class="fil0" d="M155.629 34.0848c0,0.521076 -0.223332,0.862109 -0.669898,1.01721 -0.36597,0.124085 -1.32114,0.179843 -2.8717,0.179843 -1.4947,0 -2.58014,-0.0557583 -3.27478,-0.179843 -0.32258,-0.0620423 -0.539629,-0.124085 -0.645061,-0.192311 -0.0992478,-0.0682266 -0.229517,-0.235601 -0.390807,-0.514792 -0.880662,-1.62497 -1.76142,-3.24994 -2.62972,-4.86883 -1.44523,-2.61735 -2.30734,-4.06248 -2.58024,-4.3292 -1.30867,0.471402 -1.9661,0.812535 -1.9661,1.01721 0,0.911683 0.0372054,2.2824 0.111616,4.11833 0.0682266,1.83583 0.105432,3.21283 0.105432,4.1307 0,0.378338 -0.16119,0.589302 -0.489955,0.638876 -0.626408,0.0992478 -1.76771,0.142638 -3.41751,0.142638 -1.56911,0 -2.61116,-0.0433897 -3.11977,-0.142638 -0.353502,-0.0744109 -0.52716,-0.260538 -0.52716,-0.564366 0,-1.30877 0.0620423,-3.28106 0.186027,-5.92325 0.130269,-2.64219 0.192311,-4.62076 0.192311,-5.9419 0,-1.40174 -0.0620423,-3.51666 -0.179843,-6.33261 -0.124085,-2.81584 -0.186127,-4.92458 -0.186127,-6.33251 0,-0.266722 0.130269,-0.396991 0.384523,-0.396991 0.378338,0 0.942804,0.0186526 1.69948,0.0496738 0.756677,0.0372054 1.32114,0.0557583 1.69948,0.0557583 0.384523,0 0.961357,-0.0185528 1.72422,-0.0557583 0.762861,-0.0310212 1.33351,-0.0496738 1.71185,-0.0496738 0.20468,0 0.303928,0.105432 0.303928,0.32258 0,0.899314 -0.0433897,2.25138 -0.136453,4.06248 -0.0868792,1.8111 -0.136453,3.16316 -0.136453,4.06258 0,1.04195 0.285275,1.56293 0.855925,1.56293 1.44513,0 2.56159,-0.396891 3.36166,-1.18459 0.595387,-0.576834 1.19087,-1.63744 1.79863,-3.17563 0.390807,-1.17841 1.0234,-2.90891 1.91035,-5.19759 0.130269,-0.303928 0.403175,-0.452749 0.818719,-0.452749 0.310112,0 0.787698,0.0186526 1.42657,0.0496738 0.632592,0.0372054 1.11018,0.0557583 1.42647,0.0557583 0.32258,0 0.812535,-0.0123686 1.4576,-0.0372054 0.651245,-0.0248369 1.13502,-0.0372054 1.44513,-0.0372054 0.291459,0 0.440381,0.142638 0.440381,0.421728 0,0.396991 -0.254354,1.3769 -0.762861,2.92756 -1.50717,4.57727 -3.23149,7.4366 -5.17904,8.57162 -0.403076,0.229517 -0.601571,0.421728 -0.601571,0.564366 0,-0.0123686 1.11636,1.80491 3.34929,5.45184 2.23901,3.64703 3.35547,5.81781 3.35547,6.50627z"/>
  <path id="1234567" class="fil0" d="M178.559 16.2035c0,0.520976 -0.0992478,0.973725 -0.291459,1.36443 -1.58786,3.13842 -3.74628,6.43804 -6.48771,9.90513 -0.384523,0.508607 -0.583018,0.967641 -0.583018,1.377 0,0.644961 0.0372054,1.60632 0.111616,2.89025 0.0745106,1.28384 0.111716,2.23901 0.111716,2.8717 0,0.217048 -0.0496738,0.353502 -0.148922,0.396891 -0.0247371,0.0124683 -0.186027,0.0434895 -0.489955,0.0930635 -0.434197,0.0744109 -1.52572,0.111616 -3.26859,0.111616 -1.76152,0 -2.87789,-0.0372054 -3.36166,-0.111616 -0.341133,-0.049574 -0.508607,-0.223332 -0.508607,-0.52716 0,-0.638876 0.049574,-1.61889 0.16119,-2.93374 0.111716,-1.31486 0.16129,-2.30105 0.16129,-2.9523 0,-0.390807 -0.142638,-0.806351 -0.434197,-1.25292 -1.46368,-2.07154 -3.56005,-5.24716 -6.28912,-9.5206 -0.279091,-0.477487 -0.415544,-0.862109 -0.415544,-1.16604 0,-0.725656 -0.0372054,-1.81728 -0.111616,-3.26859 -0.0682266,-1.4575 -0.105532,-2.54294 -0.105532,-3.27488 0,-0.396891 0.1179,-0.595387 0.359786,-0.595387 0.744308,0 1.86067,0.0310212 3.36166,0.0868792 1.50717,0.0619426 2.62982,0.0929637 3.38031,0.0929637 0.279091,0 0.421728,0.0930635 0.421728,0.272906 0,0.614039 -0.0310212,1.54438 -0.0805952,2.79111 -0.055858,1.24045 -0.0868792,2.17078 -0.0868792,2.78482 0,0.36597 0.533444,1.27147 1.60023,2.72906 0.84974,1.13502 1.54438,2.01568 2.09019,2.636 0.496139,-0.583018 1.15985,-1.4576 1.97857,-2.61745 1.04195,-1.4575 1.56293,-2.33207 1.56293,-2.636 0,-0.607755 -0.0433897,-1.52572 -0.136453,-2.7538 -0.0867795,-1.22808 -0.136453,-2.14605 -0.136453,-2.7538 0,-0.254354 0.055858,-0.396991 0.167474,-0.434197 0,0 0.148822,0 0.452749,0 0.725656,0 1.81728,-0.0310212 3.28106,-0.0992478 1.4576,-0.0682266 2.55541,-0.0992478 3.29961,-0.0992478 0.241885,0 0.359786,0.260538 0.359786,0.781514 0,0.638876 0.0123686,1.60642 0.0372054,2.89644 0.0248369,1.29012 0.0372054,2.26385 0.0372054,2.91519z"/>
  <path id="12345678" class="fil1 str0" d="M24.0403 34.0848c0,0.521076 -0.223332,0.862109 -0.669898,1.01721 -0.36597,0.124085 -1.32114,0.179843 -2.8717,0.179843 -1.4947,0 -2.58014,-0.0557583 -3.27478,-0.179843 -0.32258,-0.0620423 -0.539629,-0.124085 -0.645061,-0.192311 -0.0992478,-0.0682266 -0.229517,-0.235601 -0.390807,-0.514792 -0.880662,-1.62497 -1.76142,-3.24994 -2.62972,-4.86883 -1.44523,-2.61735 -2.30734,-4.06248 -2.58024,-4.3292 -1.30867,0.471402 -1.9661,0.812535 -1.9661,1.01721 0,0.911683 0.0372054,2.2824 0.111616,4.11833 0.0682266,1.83583 0.105432,3.21283 0.105432,4.1307 0,0.378338 -0.16119,0.589302 -0.489955,0.638876 -0.626408,0.0992478 -1.76771,0.142638 -3.41751,0.142638 -1.56911,0 -2.61116,-0.0433897 -3.11977,-0.142638 -0.353502,-0.0744109 -0.52716,-0.260538 -0.52716,-0.564366 0,-1.30877 0.0620423,-3.28106 0.186027,-5.92325 0.130269,-2.64219 0.192311,-4.62076 0.192311,-5.9419 0,-1.40174 -0.0620423,-3.51666 -0.179843,-6.33261 -0.124085,-2.81584 -0.186127,-4.92458 -0.186127,-6.33251 0,-0.266722 0.130269,-0.396991 0.384523,-0.396991 0.378338,0 0.942804,0.0186526 1.69948,0.0496738 0.756677,0.0372054 1.32114,0.0557583 1.69948,0.0557583 0.384523,0 0.961357,-0.0185528 1.72422,-0.0557583 0.762861,-0.0310212 1.33351,-0.0496738 1.71185,-0.0496738 0.20468,0 0.303928,0.105432 0.303928,0.32258 0,0.899314 -0.0433897,2.25138 -0.136453,4.06248 -0.0868792,1.8111 -0.136453,3.16316 -0.136453,4.06258 0,1.04195 0.285275,1.56293 0.855925,1.56293 1.44513,0 2.56159,-0.396891 3.36166,-1.18459 0.595387,-0.576834 1.19087,-1.63744 1.79863,-3.17563 0.390807,-1.17841 1.0234,-2.90891 1.91035,-5.19759 0.130269,-0.303928 0.403175,-0.452749 0.818719,-0.452749 0.310112,0 0.787698,0.0186526 1.42657,0.0496738 0.632592,0.0372054 1.11018,0.0557583 1.42647,0.0557583 0.32258,0 0.812535,-0.0123686 1.4576,-0.0372054 0.651245,-0.0248369 1.13502,-0.0372054 1.44513,-0.0372054 0.291459,0 0.440381,0.142638 0.440381,0.421728 0,0.396991 -0.254354,1.3769 -0.762861,2.92756 -1.50717,4.57727 -3.23149,7.4366 -5.17904,8.57162 -0.403076,0.229517 -0.601571,0.421728 -0.601571,0.564366 0,-0.0123686 1.11636,1.80491 3.34929,5.45184 2.23901,3.64703 3.35547,5.81781 3.35547,6.50627z"/>
  <path id="123456789" class="fil1 str0" d="M47.789 34.9221c0,0.0805952 -0.124085,0.142638 -0.36597,0.179843 -0.458934,0.0744109 -1.61879,0.111616 -3.46709,0.111616 -1.58776,0 -2.66702,-0.0372054 -3.23757,-0.111616 -0.266722,-0.0372054 -0.415644,-0.0682266 -0.452849,-0.0930635 -0.0744109,-0.0372054 -0.16119,-0.155006 -0.254254,-0.359686 -0.179843,-0.471402 -0.446565,-1.1785 -0.800067,-2.10884 -0.471402,-1.20943 -1.20953,-2.99569 -2.22046,-5.35878 -0.217148,-0.477586 -0.719472,-0.738124 -1.50717,-0.781514 0.36587,0.0248369 -0.260538,0.0372054 -1.86696,0.0372054 -0.186027,0 -0.272906,0.303928 -0.272906,0.924151 0,0.824904 0.0745106,2.05298 0.223332,3.69042 0.155006,1.63115 0.229517,2.86542 0.229517,3.68414 0,0.210864 -0.055858,0.328764 -0.16129,0.36597 -0.173659,0.0123686 -0.341133,0.0248369 -0.514792,0.0372054 -0.713287,0.0496738 -1.82347,0.0744109 -3.3431,0.0744109 -1.7304,0 -2.77245,-0.0372054 -3.12596,-0.111616 -0.347317,-0.0744109 -0.520976,-0.260538 -0.520976,-0.564366 0,-1.33351 0.0620423,-3.3431 0.186027,-6.02868 0.130269,-2.69186 0.192311,-4.70764 0.192311,-6.05352 0,-5.12318 -0.111616,-9.12361 -0.347317,-11.9953l-0.0186526 -0.254354c-0.00618428,-0.20458 0.179843,-0.341033 0.576834,-0.415544 0.390707,-0.0744109 2.24529,-0.148822 5.55109,-0.217048 2.23901,-0.049574 4.02537,-0.0744109 5.35878,-0.0744109 2.76009,0 5.01775,0.626408 6.76062,1.87314 1.97229,1.40164 2.95848,3.43607 2.95848,6.08444 0,1.76771 -0.254254,3.18181 -0.762861,4.23623 -0.508607,1.05432 -1.44513,2.07772 -2.81584,3.0701 -0.27919,0.192311 -0.415644,0.378338 -0.415644,0.545813 0,-0.0123686 0.738124,1.50717 2.21427,4.55871 1.48233,3.05154 2.22046,4.73866 2.22046,5.05495zm-7.6351 -16.2998c0,-1.48233 -0.483771,-2.50573 -1.45131,-3.0702 -0.750493,-0.440281 -1.929,-0.657429 -3.52295,-0.657429 -1.15367,0 -1.76771,0.179943 -1.83593,0.52726 -0.0744109,0.415544 -0.111616,1.60013 -0.111616,3.56015 0,0.279091 0.00618428,0.694635 0.0186526,1.24045 0.0123686,0.539629 0.0185528,0.948889 0.0185528,1.21561 0,0.0620423 0.192311,0.1179 0.583018,0.179943 0.738124,0.111616 1.51335,0.167375 2.32589,0.167375 2.64837,0 3.9757,-1.05432 3.9757,-3.16316z"/>
  <path id="12345678910" class="fil1 str0" d="M57.2166 21.6739c0,1.42657 0.0372054,3.5788 0.111616,6.45041 0.0682266,2.8717 0.105432,5.02393 0.105432,6.45051 0,0.241885 -0.0557583,0.396891 -0.16119,0.452749 -0.0248369,0.0123686 -0.186127,0.0372054 -0.471402,0.0744109 -0.787698,0.0992478 -1.84212,0.142638 -3.16316,0.142638 -1.76771,0 -2.89654,-0.0433897 -3.38031,-0.142638 -0.353502,-0.0744109 -0.52716,-0.260538 -0.52716,-0.564366 0,0.192212 0.0557583,-0.868393 0.16119,-3.19428 0.217148,-4.90603 0.328764,-8.13124 0.328764,-9.66943 0,-1.29631 -0.0433897,-3.24386 -0.124085,-5.83018 -0.0867795,-2.59261 -0.130269,-4.54006 -0.130269,-5.83637 0,-0.266722 0.142737,-0.396991 0.415644,-0.396991 0.378338,0 0.942704,0.0186526 1.69938,0.0496738 0.756677,0.0372054 1.32733,0.0557583 1.69948,0.0557583 0.378338,0 0.930336,-0.0185528 1.66218,-0.0557583 0.738124,-0.0310212 1.29012,-0.0496738 1.66228,-0.0496738 0.353502,0 0.52716,0.130269 0.52716,0.396991 0,1.29631 -0.0682266,3.24376 -0.20468,5.83637 -0.142638,2.58633 -0.210864,4.53388 -0.210864,5.83018zm-7.01487 -12.7954c-0.229417,0.0123686 -0.347317,-0.111716 -0.347317,-0.378338 0,-0.0992478 0.0124683,-0.248169 0.0372054,-0.459033 0.0248369,-0.20468 0.0372054,-0.359686 0.0372054,-0.471302 0,-0.142737 -0.0185528,-0.36597 -0.0619426,-0.669898 -0.0434895,-0.303928 -0.0620423,-0.52716 -0.0620423,-0.676082 0,-0.167474 0.123985,-0.297644 0.378338,-0.396891 0.595387,-0.229517 1.74287,-0.831188 3.45472,-1.79873 0.738024,-0.533345 1.86067,-1.32733 3.36166,-2.38165 0.0682266,-0.0620423 0.192212,-0.1179 0.359686,-0.179943 0.0868792,0.0248369 0.192311,0.0806949 0.310112,0.179943 0.279091,0.291459 0.719472,0.700819 1.32733,1.23426 0.341133,0.198496 0.837272,0.502323 1.48852,0.930336 0.192311,0.130269 0.291559,0.254254 0.291559,0.359686 0,0.0992478 -0.0868792,0.223332 -0.254254,0.384623 -1.06689,1.00475 -2.66702,1.95992 -4.79442,2.85923 -2.13368,0.905499 -3.91994,1.38937 -5.36507,1.46378l-0.16129 0z"/>
  <path id="1234567891011" class="fil1 str0" d="M77.2936 35.3936c-0.713287,0 -1.78636,-0.0373052 -3.21283,-0.111716 -1.43276,-0.0682266 -2.50573,-0.105432 -3.21902,-0.105432 -1.01721,0 -2.53675,-0.0123686 -4.55871,-0.0372054 -2.02196,-0.0248369 -3.54778,-0.0372054 -4.5649,-0.0372054 -0.434197,0 -0.682266,-0.136453 -0.744308,-0.415544 -0.0248369,-0.77533 -0.142638,-1.9289 -0.359786,-3.45472 -0.148822,-0.595387 -0.217048,-0.924151 -0.217048,-0.998562 0,-0.0620423 1.48233,-2.40648 4.4471,-7.03971 2.97085,-4.63313 4.45328,-7.12639 4.45328,-7.47999 0,-0.192212 -0.155106,-0.291459 -0.471402,-0.291459 -0.84974,0 -2.12739,0.0247371 -3.84543,0.0744109 -1.71185,0.049574 -3.00197,0.0744109 -3.8579,0.0744109 -0.266722,0 -0.403175,-0.142638 -0.403175,-0.421728 0,-0.446565 0.136453,-1.32114 0.40936,-2.61745 0.272906,-1.29621 0.40936,-2.23283 0.40936,-2.81584 0,-0.192212 0.16129,-0.291459 0.490055,-0.291459 1.67454,0 4.18038,0.0372054 7.53585,0.111616 3.34919,0.0744109 5.85492,0.105432 7.52956,0.105432 0.254354,0 0.415544,0.142638 0.490055,0.421728 0.217048,0.967641 0.328665,2.35691 0.328665,4.16182 0,0.217048 -0.111616,0.489955 -0.328665,0.818719 -0.762961,1.09781 -2.36938,3.53532 -4.81307,7.30015 -2.79101,4.30436 -4.18038,6.55584 -4.18038,6.76052 0,0.0992478 0.0992478,0.148822 0.310112,0.148822 2.45616,0 4.34785,-0.049574 5.66899,-0.148822 0.266622,-0.0123686 0.843456,-0.0805952 1.74277,-0.217048 0.762961,-0.1179 1.32733,-0.179943 1.68711,-0.179943 0.173659,0 0.254254,0.124085 0.254254,0.378338 0,1.97857 -0.173659,3.94477 -0.52716,5.90469 -0.0434895,0.266722 -0.198496,0.403175 -0.452749,0.403175zm-6.1776 -26.4593l-3.12596 0c-0.217048,0 -0.372154,-0.0929637 -0.452749,-0.291459 -0.378338,-0.917967 -1.00485,-1.90416 -1.87314,-2.95848 -0.0248369,-0.0248369 -0.800067,-0.905599 -2.32589,-2.636 -0.0620423,-0.0620423 -0.123985,-0.167474 -0.179843,-0.328764 0.0186526,-0.0433897 0.465218,-0.254254 1.32114,-0.626408 0.862109,-0.36597 1.35206,-0.551997 1.47615,-0.551997 0.359686,0 0.973725,0.446565 1.83583,1.34588 0.800166,0.824904 1.30249,1.45131 1.50717,1.88551 0.0248369,0.049574 0.0744109,0.111616 0.142638,0.186027 0.0620423,-0.0247371 0.111716,-0.0744109 0.148922,-0.148822 0.297644,-0.558181 0.812435,-1.20943 1.54438,-1.95992 0.855925,-0.886946 1.51335,-1.32733 1.95992,-1.32733 0.148822,0 1.08544,0.353502 2.81584,1.05442 0.124085,0.049574 0.179843,0.105432 0.179843,0.16129 -0.868293,0.93652 -1.84202,1.99712 -2.92128,3.18171 -0.762861,0.905599 -1.29631,1.81728 -1.60023,2.72288 -0.0744109,0.198496 -0.223233,0.291459 -0.452749,0.291459z"/>
  <path id="123456789101112" class="fil1 str0" d="M106.258 22.381c0,3.78338 -1.20324,6.94655 -3.61591,9.50195 -2.46234,2.59261 -5.57593,3.88892 -9.34076,3.88892 -3.74618,0 -6.8474,-1.30877 -9.32211,-3.91994 -2.42514,-2.56159 -3.63456,-5.71238 -3.63456,-9.47093 0,-3.76483 1.20943,-6.93428 3.63456,-9.50205 2.47471,-2.62972 5.57593,-3.94468 9.32211,-3.94468 3.72144,0 6.82256,1.31496 9.30356,3.94468 2.43751,2.59261 3.65312,5.76206 3.65312,9.50205zm-6.8846 -0.0372054c0,-1.81728 -0.551997,-3.36166 -1.65599,-4.63323 -1.15367,-1.33341 -2.62353,-1.99712 -4.41608,-1.99712 -1.70567,0 -3.15698,0.68845 -4.34157,2.07164 -1.15367,1.33351 -1.7305,2.86542 -1.7305,4.59592 0,1.85449 0.539629,3.39886 1.61879,4.63313 1.1413,1.29631 2.62363,1.94755 4.45328,1.94755 1.70567,0 3.16326,-0.68845 4.36022,-2.05298 1.1413,-1.30867 1.71185,-2.82831 1.71185,-4.5649z"/>
  <path id="12345678910111213" class="fil1 str0" d="M119.234 35.1764c-1.63734,0 -2.56777,-0.0248369 -2.79719,-0.0744109 -0.229517,-0.049574 -0.428012,-0.223332 -0.583018,-0.52716 -1.38318,-2.72288 -2.76627,-5.45813 -4.16182,-8.19328 -2.19562,-4.39752 -3.28725,-6.89089 -3.28725,-7.46762 0,-0.961357 0.0310212,-2.4003 0.0992478,-4.31683 0.0682266,-1.92271 0.0992478,-3.36166 0.0992478,-4.31683 0,-0.446565 0.1179,-0.669898 0.36597,-0.669898 0.725656,0 1.82347,0.0310212 3.3058,0.0868792 1.47615,0.0619426 2.58643,0.0929637 3.32445,0.0929637 0.303928,0 0.452849,0.124085 0.452849,0.378338 0,0.986194 -0.0682266,2.45616 -0.210964,4.42855 -0.136453,1.9661 -0.20468,3.44225 -0.20468,4.42226 0,0.750493 1.22808,3.43607 3.68424,8.05064 0.669898,-1.19706 1.42657,-2.67321 2.27622,-4.41608 1.13512,-2.35073 1.70567,-3.78967 1.70567,-4.32301 0,-0.886946 -0.0123686,-2.21427 -0.0372054,-3.98816 -0.0248369,-1.77389 -0.0372054,-3.1073 -0.0372054,-3.98806 0,-0.328764 0.055858,-0.508607 0.167474,-0.545813 0,0 0.192212,0 0.576834,0 0.669798,0 1.67464,-0.0310212 3.02671,-0.0992478 1.35206,-0.0682266 2.36309,-0.0992478 3.02671,-0.0992478 0.36597,0 0.545813,0.142638 0.545813,0.434197 0,0.930336 -0.0185528,2.33826 -0.0433897,4.22377 -0.0310212,1.88551 -0.049574,3.29961 -0.049574,4.24242 0,0.750493 -1.19087,3.51666 -3.5788,8.28634 -0.942704,1.71803 -2.30724,4.31055 -4.08731,7.77773 -0.124085,0.266622 -0.20468,0.415544 -0.24807,0.446565 -0.0372054,0.0310212 -0.192311,0.0557583 -0.459033,0.0805952 -0.620224,0.049574 -1.5754,0.0744109 -2.8717,0.0744109z"/>
  <path id="1234567891011121314" class="fil1 str0" d="M155.629 34.0848c0,0.521076 -0.223332,0.862109 -0.669898,1.01721 -0.36597,0.124085 -1.32114,0.179843 -2.8717,0.179843 -1.4947,0 -2.58014,-0.0557583 -3.27478,-0.179843 -0.32258,-0.0620423 -0.539629,-0.124085 -0.645061,-0.192311 -0.0992478,-0.0682266 -0.229517,-0.235601 -0.390807,-0.514792 -0.880662,-1.62497 -1.76142,-3.24994 -2.62972,-4.86883 -1.44523,-2.61735 -2.30734,-4.06248 -2.58024,-4.3292 -1.30867,0.471402 -1.9661,0.812535 -1.9661,1.01721 0,0.911683 0.0372054,2.2824 0.111616,4.11833 0.0682266,1.83583 0.105432,3.21283 0.105432,4.1307 0,0.378338 -0.16119,0.589302 -0.489955,0.638876 -0.626408,0.0992478 -1.76771,0.142638 -3.41751,0.142638 -1.56911,0 -2.61116,-0.0433897 -3.11977,-0.142638 -0.353502,-0.0744109 -0.52716,-0.260538 -0.52716,-0.564366 0,-1.30877 0.0620423,-3.28106 0.186027,-5.92325 0.130269,-2.64219 0.192311,-4.62076 0.192311,-5.9419 0,-1.40174 -0.0620423,-3.51666 -0.179843,-6.33261 -0.124085,-2.81584 -0.186127,-4.92458 -0.186127,-6.33251 0,-0.266722 0.130269,-0.396991 0.384523,-0.396991 0.378338,0 0.942804,0.0186526 1.69948,0.0496738 0.756677,0.0372054 1.32114,0.0557583 1.69948,0.0557583 0.384523,0 0.961357,-0.0185528 1.72422,-0.0557583 0.762861,-0.0310212 1.33351,-0.0496738 1.71185,-0.0496738 0.20468,0 0.303928,0.105432 0.303928,0.32258 0,0.899314 -0.0433897,2.25138 -0.136453,4.06248 -0.0868792,1.8111 -0.136453,3.16316 -0.136453,4.06258 0,1.04195 0.285275,1.56293 0.855925,1.56293 1.44513,0 2.56159,-0.396891 3.36166,-1.18459 0.595387,-0.576834 1.19087,-1.63744 1.79863,-3.17563 0.390807,-1.17841 1.0234,-2.90891 1.91035,-5.19759 0.130269,-0.303928 0.403175,-0.452749 0.818719,-0.452749 0.310112,0 0.787698,0.0186526 1.42657,0.0496738 0.632592,0.0372054 1.11018,0.0557583 1.42647,0.0557583 0.32258,0 0.812535,-0.0123686 1.4576,-0.0372054 0.651245,-0.0248369 1.13502,-0.0372054 1.44513,-0.0372054 0.291459,0 0.440381,0.142638 0.440381,0.421728 0,0.396991 -0.254354,1.3769 -0.762861,2.92756 -1.50717,4.57727 -3.23149,7.4366 -5.17904,8.57162 -0.403076,0.229517 -0.601571,0.421728 -0.601571,0.564366 0,-0.0123686 1.11636,1.80491 3.34929,5.45184 2.23901,3.64703 3.35547,5.81781 3.35547,6.50627z"/>
  <path id="123456789101112131415" class="fil1 str0" d="M178.559 16.2035c0,0.520976 -0.0992478,0.973725 -0.291459,1.36443 -1.58786,3.13842 -3.74628,6.43804 -6.48771,9.90513 -0.384523,0.508607 -0.583018,0.967641 -0.583018,1.377 0,0.644961 0.0372054,1.60632 0.111616,2.89025 0.0745106,1.28384 0.111716,2.23901 0.111716,2.8717 0,0.217048 -0.0496738,0.353502 -0.148922,0.396891 -0.0247371,0.0124683 -0.186027,0.0434895 -0.489955,0.0930635 -0.434197,0.0744109 -1.52572,0.111616 -3.26859,0.111616 -1.76152,0 -2.87789,-0.0372054 -3.36166,-0.111616 -0.341133,-0.049574 -0.508607,-0.223332 -0.508607,-0.52716 0,-0.638876 0.049574,-1.61889 0.16119,-2.93374 0.111716,-1.31486 0.16129,-2.30105 0.16129,-2.9523 0,-0.390807 -0.142638,-0.806351 -0.434197,-1.25292 -1.46368,-2.07154 -3.56005,-5.24716 -6.28912,-9.5206 -0.279091,-0.477487 -0.415544,-0.862109 -0.415544,-1.16604 0,-0.725656 -0.0372054,-1.81728 -0.111616,-3.26859 -0.0682266,-1.4575 -0.105532,-2.54294 -0.105532,-3.27488 0,-0.396891 0.1179,-0.595387 0.359786,-0.595387 0.744308,0 1.86067,0.0310212 3.36166,0.0868792 1.50717,0.0619426 2.62982,0.0929637 3.38031,0.0929637 0.279091,0 0.421728,0.0930635 0.421728,0.272906 0,0.614039 -0.0310212,1.54438 -0.0805952,2.79111 -0.055858,1.24045 -0.0868792,2.17078 -0.0868792,2.78482 0,0.36597 0.533444,1.27147 1.60023,2.72906 0.84974,1.13502 1.54438,2.01568 2.09019,2.636 0.496139,-0.583018 1.15985,-1.4576 1.97857,-2.61745 1.04195,-1.4575 1.56293,-2.33207 1.56293,-2.636 0,-0.607755 -0.0433897,-1.52572 -0.136453,-2.7538 -0.0867795,-1.22808 -0.136453,-2.14605 -0.136453,-2.7538 0,-0.254354 0.055858,-0.396991 0.167474,-0.434197 0,0 0.148822,0 0.452749,0 0.725656,0 1.81728,-0.0310212 3.28106,-0.0992478 1.4576,-0.0682266 2.55541,-0.0992478 3.29961,-0.0992478 0.241885,0 0.359786,0.260538 0.359786,0.781514 0,0.638876 0.0123686,1.60642 0.0372054,2.89644 0.0248369,1.29012 0.0372054,2.26385 0.0372054,2.91519z"/>
  <path class="fil0" d="M62.635 51.0389c0,0.101043 -0.0721167,0.170367 -0.210665,0.210764 -0.170367,0.0461826 -0.695832,0.0664312 -1.5735,0.0664312 -0.808346,0 -1.32513,-0.0202485 -1.55615,-0.0664312 -0.193408,-0.0403973 -0.3147,-0.167474 -0.363776,-0.381131 -0.193408,-0.811238 -0.343527,-1.24424 -0.450355,-1.30199 -0.0894726,-0.0404971 -0.84595,-0.0606459 -2.26634,-0.0606459 -0.958464,0 -1.46947,0.0259341 -1.53011,0.077902 -0.0952579,0.0895724 -0.202086,0.392702 -0.320486,0.903703 -0.109721,0.467711 -0.236698,0.721766 -0.389809,0.762163 -0.193408,0.0461826 -0.83428,0.0664312 -1.9285,0.0664312 -0.863206,0 -1.29341,-0.0808944 -1.29341,-0.245476 0,-0.144333 0.635186,-1.94585 1.91124,-5.40456 1.37999,-3.7387 2.13069,-5.79138 2.24898,-6.16384 0.0664312,-0.21655 0.147226,-0.323378 0.236798,-0.323378 0.153011,0 0.386817,0.0144632 0.707302,0.04329 0.317593,0.0289265 0.557184,0.04329 0.713088,0.04329 0.153011,0 0.378239,-0.0114708 0.67269,-0.0317194 0.297344,-0.0173559 0.516787,-0.0288267 0.664012,-0.0288267 0.106829,0 0.204979,0.0923653 0.297344,0.279988 0.274303,0.591896 1.08265,2.62144 2.41945,6.08883 1.3396,3.49043 2.01219,5.3122 2.01219,5.46521zm-5.99636 -7.70552c-0.118399,0.248269 -0.320486,0.785204 -0.600574,1.6138 -0.306022,0.880562 -0.459033,1.39735 -0.459033,1.55036 0,0.101043 0.170367,0.155904 0.508208,0.167474 0.176053,0.0115706 0.461926,0.0173559 0.863206,0.0173559 0.372453,0 0.577433,-0.0462824 0.61783,-0.135755 0.0115706,-0.0288267 0.0172561,-0.0663314 0.0172561,-0.118299 0,-0.18483 -0.12987,-0.698724 -0.38971,-1.53889 -0.254054,-0.811238 -0.438785,-1.33092 -0.557184,-1.55605z"/>
  <path id="1" class="fil0" d="M79.7975 39.6436c0,0.643864 -0.0259341,1.61101 -0.077902,2.89863 -0.0548606,1.28763 -0.0808944,2.25766 -0.0808944,2.90442l0 5.57483c0,0.153011 -0.0836873,0.22812 -0.245376,0.22812 -0.135655,0 -0.340634,0.0057853 -0.614937,0.0173559 -0.27141,0.0114708 -0.476389,0.0172561 -0.612045,0.0172561 -0.147226,0 -0.366668,-0.0114708 -0.658227,-0.034612 -0.294452,-0.0231412 -0.513894,-0.034612 -0.66112,-0.034612 -0.101043,0 -0.222335,-0.092465 -0.363776,-0.277196 -0.407065,-0.548506 -1.31945,-1.76112 -2.73984,-3.63766 -0.389809,-0.525465 -0.981605,-1.29631 -1.77559,-2.31831 -0.0230414,-0.0347118 -0.0663314,-0.0664312 -0.126977,-0.101043 -0.0461826,0.0403973 -0.0693238,0.101043 -0.0693238,0.184731 0,0.655335 0.0202485,1.63694 0.0548606,2.94482 0.0375047,1.30778 0.0548606,2.28938 0.0548606,2.94192 0,0.199194 -0.0751091,0.297344 -0.22812,0.297344l-2.92457 0c-0.164582,0 -0.245376,-0.08658 -0.245376,-0.262732 0,-0.609152 0.0288267,-1.52722 0.08658,-2.75709 0.0606459,-1.22997 0.0894726,-2.15093 0.0894726,-2.76587 0,-0.649549 -0.0259341,-1.61669 -0.0807947,-2.9101 -0.0519679,-1.29052 -0.0807947,-2.25776 -0.0807947,-2.90153 0,-0.124184 0.109621,-0.184731 0.331956,-0.184731 0.326271,0 0.730444,-0.0231412 1.20973,-0.0693238 0.112614,-0.00867795 0.334849,-0.0461826 0.666905,-0.109721 0.282881,-0.0490753 0.505216,-0.0751091 0.666905,-0.0751091 0.0692241,0 0.17316,0.0953577 0.3147,0.288766l3.15558 4.32192c0.279988,0.386917 0.707302,0.958464 1.27606,1.70916 0.141441,0.17326 0.262732,0.25984 0.363776,0.25984 0.0721167,0 0.109721,-0.219442 0.109721,-0.658227 0,-0.591896 -0.0318191,-1.48403 -0.0982503,-2.67351 -0.0634388,-1.18938 -0.0952579,-2.0844 -0.0952579,-2.68208 0,-0.207772 0.0577532,-0.311708 0.176152,-0.311708 0.337742,0 0.848743,-0.0144632 1.533,-0.0433897 0.681368,-0.0259341 1.19237,-0.0403973 1.53011,-0.0403973 0.106829,0 0.158796,0.08658 0.158796,0.25984z"/>
  <path id="12" class="fil0" d="M93.7756 45.3283c0,1.76112 -0.560077,3.23348 -1.68312,4.42296 -1.14619,1.20683 -2.5955,1.8102 -4.34795,1.8102 -1.74377,0 -3.1873,-0.609152 -4.33927,-1.82466 -1.12883,-1.19237 -1.6918,-2.65894 -1.6918,-4.4085 0,-1.75245 0.562969,-3.2278 1.6918,-4.42296 1.15197,-1.22419 2.5955,-1.83623 4.33927,-1.83623 1.7322,0 3.17573,0.612045 4.33059,1.83623 1.13462,1.20673 1.70048,2.68208 1.70048,4.42296zm-3.20466 -0.0173559c0,-0.84585 -0.256947,-1.56472 -0.770841,-2.15662 -0.536935,-0.620723 -1.2212,-0.929637 -2.05558,-0.929637 -0.793982,0 -1.46947,0.320486 -2.02096,0.964249 -0.536935,0.620723 -0.805453,1.33381 -0.805453,2.13936 0,0.863206 0.251162,1.58208 0.753485,2.15662 0.53125,0.603367 1.2213,0.906496 2.07293,0.906496 0.793982,0 1.47236,-0.320386 2.02964,-0.955572 0.53115,-0.609152 0.796775,-1.31645 0.796775,-2.1249z"/>
  <path id="123" class="fil0" d="M100.47 51.2843c-0.762163,0 -1.19526,-0.0114708 -1.30209,-0.034612 -0.106729,-0.0231412 -0.199194,-0.103936 -0.27131,-0.245376 -0.643864,-1.26748 -1.28763,-2.54064 -1.93728,-3.81381 -1.022,-2.047 -1.53011,-3.20755 -1.53011,-3.47607 0,-0.447463 0.0144632,-1.11726 0.0461826,-2.00939 0.0317194,-0.895025 0.0461826,-1.56482 0.0461826,-2.00939 0,-0.207872 0.0548606,-0.311808 0.170367,-0.311808 0.337742,0 0.848743,0.0144632 1.53879,0.0403973 0.687154,0.0289265 1.20394,0.0433897 1.54747,0.0433897 0.141441,0 0.210764,0.0576535 0.210764,0.176053 0,0.459033 -0.0317194,1.14329 -0.0981506,2.06136 -0.0635385,0.915174 -0.0952579,1.60233 -0.0952579,2.05847 0,0.349312 0.571647,1.59944 1.71484,3.74748 0.311808,-0.557284 0.664112,-1.24434 1.05961,-2.05568 0.528357,-1.09412 0.793882,-1.76392 0.793882,-2.01229 0,-0.412851 -0.00568555,-1.03068 -0.0172561,-1.85638 -0.0115706,-0.825702 -0.0173559,-1.44642 -0.0173559,-1.85638 0,-0.153011 0.0260338,-0.236698 0.0780018,-0.254054 0,0 0.0894726,0 0.268418,0 0.311808,0 0.779519,-0.0143635 1.40892,-0.0461826 0.6294,-0.0317194 1.1,-0.0461826 1.40892,-0.0461826 0.170267,0 0.254054,0.0664312 0.254054,0.202086 0,0.433099 -0.00867795,1.08843 -0.0202485,1.9661 -0.0143635,0.877669 -0.0230414,1.5359 -0.0230414,1.97478 0,0.349312 -0.554391,1.63694 -1.66587,3.8571 -0.438885,0.799668 -1.07397,2.0065 -1.90256,3.6204 -0.0577532,0.124085 -0.0952579,0.193408 -0.115506,0.207872 -0.0173559,0.0143635 -0.0894726,0.0259341 -0.213657,0.0375047 -0.288666,0.0231412 -0.733336,0.034612 -1.3367,0.034612z"/>
  <path id="1234" class="fil0" d="M111.087 44.9991c0,0.664012 0.0173559,1.66587 0.0519679,3.00257 0.0318191,1.3367 0.0490753,2.33856 0.0490753,3.00257 0,0.112614 -0.0259341,0.184731 -0.0750094,0.210764 -0.0115706,0.0057853 -0.0866797,0.0172561 -0.219442,0.034612 -0.366668,0.0461826 -0.857421,0.0664312 -1.47236,0.0664312 -0.822809,0 -1.34827,-0.0202485 -1.5735,-0.0664312 -0.164582,-0.034612 -0.245376,-0.121292 -0.245376,-0.262732 0,0.0894726 0.0259341,-0.404173 0.0750094,-1.48682 0.101043,-2.2837 0.153011,-3.78498 0.153011,-4.50096 0,-0.603367 -0.0201488,-1.50986 -0.0576535,-2.7138 -0.0404971,-1.20683 -0.0606459,-2.11333 -0.0606459,-2.7167 0,-0.124184 0.0663314,-0.18483 0.193408,-0.18483 0.176152,0 0.438785,0.00867795 0.79109,0.0231412 0.352205,0.0172561 0.61783,0.0259341 0.79099,0.0259341 0.176152,0 0.433099,-0.00867795 0.773734,-0.0259341 0.343627,-0.0144632 0.600574,-0.0231412 0.773734,-0.0231412 0.164582,0 0.245476,0.0606459 0.245476,0.18483 0,0.603367 -0.0318191,1.50986 -0.0953577,2.7167 -0.0663314,1.20394 -0.0981506,2.11044 -0.0981506,2.7138z"/>
  <path id="12345" class="fil0" d="M124.782 39.6436c0,0.643864 -0.0259341,1.61101 -0.077902,2.89863 -0.0548606,1.28763 -0.0808944,2.25766 -0.0808944,2.90442l0 5.57483c0,0.153011 -0.0836873,0.22812 -0.245376,0.22812 -0.135655,0 -0.340634,0.0057853 -0.614937,0.0173559 -0.27141,0.0114708 -0.476389,0.0172561 -0.612045,0.0172561 -0.147226,0 -0.366668,-0.0114708 -0.658227,-0.034612 -0.294452,-0.0231412 -0.513894,-0.034612 -0.66112,-0.034612 -0.101043,0 -0.222335,-0.092465 -0.363776,-0.277196 -0.407065,-0.548506 -1.31945,-1.76112 -2.73984,-3.63766 -0.389809,-0.525465 -0.981605,-1.29631 -1.77559,-2.31831 -0.0230414,-0.0347118 -0.0663314,-0.0664312 -0.126977,-0.101043 -0.0461826,0.0403973 -0.0693238,0.101043 -0.0693238,0.184731 0,0.655335 0.0202485,1.63694 0.0548606,2.94482 0.0375047,1.30778 0.0548606,2.28938 0.0548606,2.94192 0,0.199194 -0.0751091,0.297344 -0.22812,0.297344l-2.92457 0c-0.164582,0 -0.245376,-0.08658 -0.245376,-0.262732 0,-0.609152 0.0288267,-1.52722 0.08658,-2.75709 0.0606459,-1.22997 0.0894726,-2.15093 0.0894726,-2.76587 0,-0.649549 -0.0259341,-1.61669 -0.0807947,-2.9101 -0.0519679,-1.29052 -0.0807947,-2.25776 -0.0807947,-2.90153 0,-0.124184 0.109621,-0.184731 0.331956,-0.184731 0.326271,0 0.730444,-0.0231412 1.20973,-0.0693238 0.112614,-0.00867795 0.334849,-0.0461826 0.666905,-0.109721 0.282881,-0.0490753 0.505216,-0.0751091 0.666905,-0.0751091 0.0692241,0 0.17316,0.0953577 0.3147,0.288766l3.15558 4.32192c0.279988,0.386917 0.707302,0.958464 1.27606,1.70916 0.141441,0.17326 0.262732,0.25984 0.363776,0.25984 0.0721167,0 0.109721,-0.219442 0.109721,-0.658227 0,-0.591896 -0.0318191,-1.48403 -0.0982503,-2.67351 -0.0634388,-1.18938 -0.0952579,-2.0844 -0.0952579,-2.68208 0,-0.207772 0.0577532,-0.311708 0.176152,-0.311708 0.337742,0 0.848743,-0.0144632 1.533,-0.0433897 0.681368,-0.0259341 1.19237,-0.0403973 1.53011,-0.0403973 0.106829,0 0.158796,0.08658 0.158796,0.25984z"/>
  <path id="123456" class="fil0" d="M137.424 50.7762c0,0.242484 -0.103936,0.40128 -0.311808,0.473497 -0.170367,0.0577532 -0.614937,0.0836873 -1.3367,0.0836873 -0.695832,0 -1.20105,-0.0259341 -1.52443,-0.0836873 -0.150118,-0.0288267 -0.251162,-0.0577532 -0.300237,-0.0894726 -0.0461826,-0.0318191 -0.106829,-0.109721 -0.181838,-0.239691 -0.409958,-0.756378 -0.819916,-1.51276 -1.22409,-2.26634 -0.67269,-1.2183 -1.07407,-1.89099 -1.20105,-2.01518 -0.609152,0.219442 -0.915174,0.378239 -0.915174,0.473497 0,0.424421 0.0172561,1.0625 0.0519679,1.91703 0.0317194,0.854528 0.0490753,1.4955 0.0490753,1.92281 0,0.176053 -0.0751091,0.274203 -0.22812,0.297344 -0.291559,0.0461826 -0.822809,0.0664312 -1.59076,0.0664312 -0.730444,0 -1.21541,-0.0202485 -1.45221,-0.0664312 -0.164582,-0.034612 -0.245376,-0.121292 -0.245376,-0.262732 0,-0.609152 0.0288267,-1.52722 0.08658,-2.75709 0.0606459,-1.22997 0.0894726,-2.15093 0.0894726,-2.76587 0,-0.652442 -0.0288267,-1.63694 -0.0836873,-2.94771 -0.0577532,-1.31067 -0.08658,-2.29227 -0.08658,-2.94761 0,-0.124184 0.0606459,-0.18483 0.178945,-0.18483 0.176152,0 0.438885,0.00867795 0.79109,0.0231412 0.352205,0.0172561 0.614937,0.0259341 0.79109,0.0259341 0.178945,0 0.447463,-0.00867795 0.80256,-0.0259341 0.355098,-0.0144632 0.620723,-0.0231412 0.796875,-0.0231412 0.0952579,0 0.141441,0.0490753 0.141441,0.150118 0,0.418636 -0.0202485,1.04804 -0.0635385,1.89109 -0.0403973,0.842958 -0.0635385,1.47236 -0.0635385,1.89099 0,0.484968 0.132862,0.727551 0.398487,0.727551 0.67269,0 1.19227,-0.18483 1.56472,-0.551498 0.277196,-0.268418 0.554291,-0.762163 0.837272,-1.47814 0.181838,-0.548506 0.476389,-1.35406 0.88924,-2.41935 0.0606459,-0.141441 0.187623,-0.210764 0.381032,-0.210764 0.144433,0 0.366668,0.00867795 0.664012,0.0231412 0.294551,0.0172561 0.516787,0.0259341 0.664112,0.0259341 0.150118,0 0.378139,-0.0057853 0.678376,-0.0172561 0.303229,-0.0115706 0.528357,-0.0173559 0.67269,-0.0173559 0.135755,0 0.204979,0.0664312 0.204979,0.196301 0,0.184731 -0.118299,0.640971 -0.355098,1.36274 -0.701517,2.13059 -1.50418,3.4615 -2.41067,3.98986 -0.187623,0.106829 -0.280088,0.196301 -0.280088,0.262732 0,-0.0057853 0.519679,0.840165 1.55904,2.53775 1.04225,1.69759 1.56193,2.70802 1.56193,3.0285z"/>
  <path id="1234567" class="fil0" d="M148.751 42.4528c0,0.242484 -0.0461826,0.453248 -0.135755,0.635086 -0.739022,1.46089 -1.74377,2.99678 -3.01983,4.61068 -0.179045,0.236698 -0.27141,0.450355 -0.27141,0.640871 0,0.300337 0.0173559,0.7478 0.0519679,1.34538 0.0347118,0.597681 0.0519679,1.04225 0.0519679,1.3367 0,0.101043 -0.0230414,0.164582 -0.0692241,0.18483 -0.0115706,0.0057853 -0.0866797,0.0201488 -0.22812,0.04329 -0.202086,0.034612 -0.710195,0.0519679 -1.52153,0.0519679 -0.819916,0 -1.3396,-0.0173559 -1.56472,-0.0519679 -0.158796,-0.0231412 -0.236798,-0.103936 -0.236798,-0.245376 0,-0.297344 0.0231412,-0.753585 0.0751091,-1.36563 0.0519679,-0.612045 0.0750094,-1.07108 0.0750094,-1.37421 0,-0.181938 -0.0663314,-0.375346 -0.202086,-0.583218 -0.681269,-0.964249 -1.65709,-2.44239 -2.92746,-4.43164 -0.12987,-0.222335 -0.193408,-0.40128 -0.193408,-0.542721 0,-0.337841 -0.0173559,-0.84595 -0.0519679,-1.52153 -0.0317194,-0.678476 -0.0490753,-1.18369 -0.0490753,-1.52433 0,-0.18483 0.0548606,-0.277196 0.167474,-0.277196 0.34642,0 0.866099,0.0144632 1.56472,0.0403973 0.701617,0.0289265 1.22419,0.0433897 1.5735,0.0433897 0.12987,0 0.196301,0.04329 0.196301,0.126977 0,0.285873 -0.0144632,0.718873 -0.0375047,1.2992 -0.0260338,0.577433 -0.0404971,1.01043 -0.0404971,1.29631 0,0.170267 0.248369,0.591796 0.744907,1.27027 0.395495,0.528357 0.718873,0.938315 0.972927,1.22698 0.231013,-0.27131 0.539928,-0.678476 0.920959,-1.2183 0.485067,-0.678476 0.727551,-1.08554 0.727551,-1.22698 0,-0.282981 -0.0201488,-0.710295 -0.0635385,-1.28184 -0.0403973,-0.571647 -0.0634388,-0.998961 -0.0634388,-1.28194 0,-0.118299 0.0259341,-0.184731 0.077902,-0.202086 0,0 0.0693238,0 0.210764,0 0.337841,0 0.84595,-0.0143635 1.52722,-0.0461826 0.678476,-0.0317194 1.18948,-0.0461826 1.536,-0.0461826 0.112514,0 0.167375,0.121292 0.167375,0.363776 0,0.297344 0.0057853,0.7478 0.0173559,1.34827 0.0115706,0.600474 0.0173559,1.05382 0.0173559,1.35695z"/>
  <path id="12345678" class="fil1 str1" d="M62.635 51.0389c0,0.101043 -0.0721167,0.170367 -0.210665,0.210764 -0.170367,0.0461826 -0.695832,0.0664312 -1.5735,0.0664312 -0.808346,0 -1.32513,-0.0202485 -1.55615,-0.0664312 -0.193408,-0.0403973 -0.3147,-0.167474 -0.363776,-0.381131 -0.193408,-0.811238 -0.343527,-1.24424 -0.450355,-1.30199 -0.0894726,-0.0404971 -0.84595,-0.0606459 -2.26634,-0.0606459 -0.958464,0 -1.46947,0.0259341 -1.53011,0.077902 -0.0952579,0.0895724 -0.202086,0.392702 -0.320486,0.903703 -0.109721,0.467711 -0.236698,0.721766 -0.389809,0.762163 -0.193408,0.0461826 -0.83428,0.0664312 -1.9285,0.0664312 -0.863206,0 -1.29341,-0.0808944 -1.29341,-0.245476 0,-0.144333 0.635186,-1.94585 1.91124,-5.40456 1.37999,-3.7387 2.13069,-5.79138 2.24898,-6.16384 0.0664312,-0.21655 0.147226,-0.323378 0.236798,-0.323378 0.153011,0 0.386817,0.0144632 0.707302,0.04329 0.317593,0.0289265 0.557184,0.04329 0.713088,0.04329 0.153011,0 0.378239,-0.0114708 0.67269,-0.0317194 0.297344,-0.0173559 0.516787,-0.0288267 0.664012,-0.0288267 0.106829,0 0.204979,0.0923653 0.297344,0.279988 0.274303,0.591896 1.08265,2.62144 2.41945,6.08883 1.3396,3.49043 2.01219,5.3122 2.01219,5.46521zm-5.99636 -7.70552c-0.118399,0.248269 -0.320486,0.785204 -0.600574,1.6138 -0.306022,0.880562 -0.459033,1.39735 -0.459033,1.55036 0,0.101043 0.170367,0.155904 0.508208,0.167474 0.176053,0.0115706 0.461926,0.0173559 0.863206,0.0173559 0.372453,0 0.577433,-0.0462824 0.61783,-0.135755 0.0115706,-0.0288267 0.0172561,-0.0663314 0.0172561,-0.118299 0,-0.18483 -0.12987,-0.698724 -0.38971,-1.53889 -0.254054,-0.811238 -0.438785,-1.33092 -0.557184,-1.55605z"/>
  <path id="123456789" class="fil1 str1" d="M79.7975 39.6436c0,0.643864 -0.0259341,1.61101 -0.077902,2.89863 -0.0548606,1.28763 -0.0808944,2.25766 -0.0808944,2.90442l0 5.57483c0,0.153011 -0.0836873,0.22812 -0.245376,0.22812 -0.135655,0 -0.340634,0.0057853 -0.614937,0.0173559 -0.27141,0.0114708 -0.476389,0.0172561 -0.612045,0.0172561 -0.147226,0 -0.366668,-0.0114708 -0.658227,-0.034612 -0.294452,-0.0231412 -0.513894,-0.034612 -0.66112,-0.034612 -0.101043,0 -0.222335,-0.092465 -0.363776,-0.277196 -0.407065,-0.548506 -1.31945,-1.76112 -2.73984,-3.63766 -0.389809,-0.525465 -0.981605,-1.29631 -1.77559,-2.31831 -0.0230414,-0.0347118 -0.0663314,-0.0664312 -0.126977,-0.101043 -0.0461826,0.0403973 -0.0693238,0.101043 -0.0693238,0.184731 0,0.655335 0.0202485,1.63694 0.0548606,2.94482 0.0375047,1.30778 0.0548606,2.28938 0.0548606,2.94192 0,0.199194 -0.0751091,0.297344 -0.22812,0.297344l-2.92457 0c-0.164582,0 -0.245376,-0.08658 -0.245376,-0.262732 0,-0.609152 0.0288267,-1.52722 0.08658,-2.75709 0.0606459,-1.22997 0.0894726,-2.15093 0.0894726,-2.76587 0,-0.649549 -0.0259341,-1.61669 -0.0807947,-2.9101 -0.0519679,-1.29052 -0.0807947,-2.25776 -0.0807947,-2.90153 0,-0.124184 0.109621,-0.184731 0.331956,-0.184731 0.326271,0 0.730444,-0.0231412 1.20973,-0.0693238 0.112614,-0.00867795 0.334849,-0.0461826 0.666905,-0.109721 0.282881,-0.0490753 0.505216,-0.0751091 0.666905,-0.0751091 0.0692241,0 0.17316,0.0953577 0.3147,0.288766l3.15558 4.32192c0.279988,0.386917 0.707302,0.958464 1.27606,1.70916 0.141441,0.17326 0.262732,0.25984 0.363776,0.25984 0.0721167,0 0.109721,-0.219442 0.109721,-0.658227 0,-0.591896 -0.0318191,-1.48403 -0.0982503,-2.67351 -0.0634388,-1.18938 -0.0952579,-2.0844 -0.0952579,-2.68208 0,-0.207772 0.0577532,-0.311708 0.176152,-0.311708 0.337742,0 0.848743,-0.0144632 1.533,-0.0433897 0.681368,-0.0259341 1.19237,-0.0403973 1.53011,-0.0403973 0.106829,0 0.158796,0.08658 0.158796,0.25984z"/>
  <path id="12345678910" class="fil1 str1" d="M93.7756 45.3283c0,1.76112 -0.560077,3.23348 -1.68312,4.42296 -1.14619,1.20683 -2.5955,1.8102 -4.34795,1.8102 -1.74377,0 -3.1873,-0.609152 -4.33927,-1.82466 -1.12883,-1.19237 -1.6918,-2.65894 -1.6918,-4.4085 0,-1.75245 0.562969,-3.2278 1.6918,-4.42296 1.15197,-1.22419 2.5955,-1.83623 4.33927,-1.83623 1.7322,0 3.17573,0.612045 4.33059,1.83623 1.13462,1.20673 1.70048,2.68208 1.70048,4.42296zm-3.20466 -0.0173559c0,-0.84585 -0.256947,-1.56472 -0.770841,-2.15662 -0.536935,-0.620723 -1.2212,-0.929637 -2.05558,-0.929637 -0.793982,0 -1.46947,0.320486 -2.02096,0.964249 -0.536935,0.620723 -0.805453,1.33381 -0.805453,2.13936 0,0.863206 0.251162,1.58208 0.753485,2.15662 0.53125,0.603367 1.2213,0.906496 2.07293,0.906496 0.793982,0 1.47236,-0.320386 2.02964,-0.955572 0.53115,-0.609152 0.796775,-1.31645 0.796775,-2.1249z"/>
  <path id="1234567891011" class="fil1 str1" d="M100.47 51.2843c-0.762163,0 -1.19526,-0.0114708 -1.30209,-0.034612 -0.106729,-0.0231412 -0.199194,-0.103936 -0.27131,-0.245376 -0.643864,-1.26748 -1.28763,-2.54064 -1.93728,-3.81381 -1.022,-2.047 -1.53011,-3.20755 -1.53011,-3.47607 0,-0.447463 0.0144632,-1.11726 0.0461826,-2.00939 0.0317194,-0.895025 0.0461826,-1.56482 0.0461826,-2.00939 0,-0.207872 0.0548606,-0.311808 0.170367,-0.311808 0.337742,0 0.848743,0.0144632 1.53879,0.0403973 0.687154,0.0289265 1.20394,0.0433897 1.54747,0.0433897 0.141441,0 0.210764,0.0576535 0.210764,0.176053 0,0.459033 -0.0317194,1.14329 -0.0981506,2.06136 -0.0635385,0.915174 -0.0952579,1.60233 -0.0952579,2.05847 0,0.349312 0.571647,1.59944 1.71484,3.74748 0.311808,-0.557284 0.664112,-1.24434 1.05961,-2.05568 0.528357,-1.09412 0.793882,-1.76392 0.793882,-2.01229 0,-0.412851 -0.00568555,-1.03068 -0.0172561,-1.85638 -0.0115706,-0.825702 -0.0173559,-1.44642 -0.0173559,-1.85638 0,-0.153011 0.0260338,-0.236698 0.0780018,-0.254054 0,0 0.0894726,0 0.268418,0 0.311808,0 0.779519,-0.0143635 1.40892,-0.0461826 0.6294,-0.0317194 1.1,-0.0461826 1.40892,-0.0461826 0.170267,0 0.254054,0.0664312 0.254054,0.202086 0,0.433099 -0.00867795,1.08843 -0.0202485,1.9661 -0.0143635,0.877669 -0.0230414,1.5359 -0.0230414,1.97478 0,0.349312 -0.554391,1.63694 -1.66587,3.8571 -0.438885,0.799668 -1.07397,2.0065 -1.90256,3.6204 -0.0577532,0.124085 -0.0952579,0.193408 -0.115506,0.207872 -0.0173559,0.0143635 -0.0894726,0.0259341 -0.213657,0.0375047 -0.288666,0.0231412 -0.733336,0.034612 -1.3367,0.034612z"/>
  <path id="123456789101112" class="fil1 str1" d="M111.087 44.9991c0,0.664012 0.0173559,1.66587 0.0519679,3.00257 0.0318191,1.3367 0.0490753,2.33856 0.0490753,3.00257 0,0.112614 -0.0259341,0.184731 -0.0750094,0.210764 -0.0115706,0.0057853 -0.0866797,0.0172561 -0.219442,0.034612 -0.366668,0.0461826 -0.857421,0.0664312 -1.47236,0.0664312 -0.822809,0 -1.34827,-0.0202485 -1.5735,-0.0664312 -0.164582,-0.034612 -0.245376,-0.121292 -0.245376,-0.262732 0,0.0894726 0.0259341,-0.404173 0.0750094,-1.48682 0.101043,-2.2837 0.153011,-3.78498 0.153011,-4.50096 0,-0.603367 -0.0201488,-1.50986 -0.0576535,-2.7138 -0.0404971,-1.20683 -0.0606459,-2.11333 -0.0606459,-2.7167 0,-0.124184 0.0663314,-0.18483 0.193408,-0.18483 0.176152,0 0.438785,0.00867795 0.79109,0.0231412 0.352205,0.0172561 0.61783,0.0259341 0.79099,0.0259341 0.176152,0 0.433099,-0.00867795 0.773734,-0.0259341 0.343627,-0.0144632 0.600574,-0.0231412 0.773734,-0.0231412 0.164582,0 0.245476,0.0606459 0.245476,0.18483 0,0.603367 -0.0318191,1.50986 -0.0953577,2.7167 -0.0663314,1.20394 -0.0981506,2.11044 -0.0981506,2.7138z"/>
  <path id="12345678910111213" class="fil1 str1" d="M124.782 39.6436c0,0.643864 -0.0259341,1.61101 -0.077902,2.89863 -0.0548606,1.28763 -0.0808944,2.25766 -0.0808944,2.90442l0 5.57483c0,0.153011 -0.0836873,0.22812 -0.245376,0.22812 -0.135655,0 -0.340634,0.0057853 -0.614937,0.0173559 -0.27141,0.0114708 -0.476389,0.0172561 -0.612045,0.0172561 -0.147226,0 -0.366668,-0.0114708 -0.658227,-0.034612 -0.294452,-0.0231412 -0.513894,-0.034612 -0.66112,-0.034612 -0.101043,0 -0.222335,-0.092465 -0.363776,-0.277196 -0.407065,-0.548506 -1.31945,-1.76112 -2.73984,-3.63766 -0.389809,-0.525465 -0.981605,-1.29631 -1.77559,-2.31831 -0.0230414,-0.0347118 -0.0663314,-0.0664312 -0.126977,-0.101043 -0.0461826,0.0403973 -0.0693238,0.101043 -0.0693238,0.184731 0,0.655335 0.0202485,1.63694 0.0548606,2.94482 0.0375047,1.30778 0.0548606,2.28938 0.0548606,2.94192 0,0.199194 -0.0751091,0.297344 -0.22812,0.297344l-2.92457 0c-0.164582,0 -0.245376,-0.08658 -0.245376,-0.262732 0,-0.609152 0.0288267,-1.52722 0.08658,-2.75709 0.0606459,-1.22997 0.0894726,-2.15093 0.0894726,-2.76587 0,-0.649549 -0.0259341,-1.61669 -0.0807947,-2.9101 -0.0519679,-1.29052 -0.0807947,-2.25776 -0.0807947,-2.90153 0,-0.124184 0.109621,-0.184731 0.331956,-0.184731 0.326271,0 0.730444,-0.0231412 1.20973,-0.0693238 0.112614,-0.00867795 0.334849,-0.0461826 0.666905,-0.109721 0.282881,-0.0490753 0.505216,-0.0751091 0.666905,-0.0751091 0.0692241,0 0.17316,0.0953577 0.3147,0.288766l3.15558 4.32192c0.279988,0.386917 0.707302,0.958464 1.27606,1.70916 0.141441,0.17326 0.262732,0.25984 0.363776,0.25984 0.0721167,0 0.109721,-0.219442 0.109721,-0.658227 0,-0.591896 -0.0318191,-1.48403 -0.0982503,-2.67351 -0.0634388,-1.18938 -0.0952579,-2.0844 -0.0952579,-2.68208 0,-0.207772 0.0577532,-0.311708 0.176152,-0.311708 0.337742,0 0.848743,-0.0144632 1.533,-0.0433897 0.681368,-0.0259341 1.19237,-0.0403973 1.53011,-0.0403973 0.106829,0 0.158796,0.08658 0.158796,0.25984z"/>
  <path id="1234567891011121314" class="fil1 str1" d="M137.424 50.7762c0,0.242484 -0.103936,0.40128 -0.311808,0.473497 -0.170367,0.0577532 -0.614937,0.0836873 -1.3367,0.0836873 -0.695832,0 -1.20105,-0.0259341 -1.52443,-0.0836873 -0.150118,-0.0288267 -0.251162,-0.0577532 -0.300237,-0.0894726 -0.0461826,-0.0318191 -0.106829,-0.109721 -0.181838,-0.239691 -0.409958,-0.756378 -0.819916,-1.51276 -1.22409,-2.26634 -0.67269,-1.2183 -1.07407,-1.89099 -1.20105,-2.01518 -0.609152,0.219442 -0.915174,0.378239 -0.915174,0.473497 0,0.424421 0.0172561,1.0625 0.0519679,1.91703 0.0317194,0.854528 0.0490753,1.4955 0.0490753,1.92281 0,0.176053 -0.0751091,0.274203 -0.22812,0.297344 -0.291559,0.0461826 -0.822809,0.0664312 -1.59076,0.0664312 -0.730444,0 -1.21541,-0.0202485 -1.45221,-0.0664312 -0.164582,-0.034612 -0.245376,-0.121292 -0.245376,-0.262732 0,-0.609152 0.0288267,-1.52722 0.08658,-2.75709 0.0606459,-1.22997 0.0894726,-2.15093 0.0894726,-2.76587 0,-0.652442 -0.0288267,-1.63694 -0.0836873,-2.94771 -0.0577532,-1.31067 -0.08658,-2.29227 -0.08658,-2.94761 0,-0.124184 0.0606459,-0.18483 0.178945,-0.18483 0.176152,0 0.438885,0.00867795 0.79109,0.0231412 0.352205,0.0172561 0.614937,0.0259341 0.79109,0.0259341 0.178945,0 0.447463,-0.00867795 0.80256,-0.0259341 0.355098,-0.0144632 0.620723,-0.0231412 0.796875,-0.0231412 0.0952579,0 0.141441,0.0490753 0.141441,0.150118 0,0.418636 -0.0202485,1.04804 -0.0635385,1.89109 -0.0403973,0.842958 -0.0635385,1.47236 -0.0635385,1.89099 0,0.484968 0.132862,0.727551 0.398487,0.727551 0.67269,0 1.19227,-0.18483 1.56472,-0.551498 0.277196,-0.268418 0.554291,-0.762163 0.837272,-1.47814 0.181838,-0.548506 0.476389,-1.35406 0.88924,-2.41935 0.0606459,-0.141441 0.187623,-0.210764 0.381032,-0.210764 0.144433,0 0.366668,0.00867795 0.664012,0.0231412 0.294551,0.0172561 0.516787,0.0259341 0.664112,0.0259341 0.150118,0 0.378139,-0.0057853 0.678376,-0.0172561 0.303229,-0.0115706 0.528357,-0.0173559 0.67269,-0.0173559 0.135755,0 0.204979,0.0664312 0.204979,0.196301 0,0.184731 -0.118299,0.640971 -0.355098,1.36274 -0.701517,2.13059 -1.50418,3.4615 -2.41067,3.98986 -0.187623,0.106829 -0.280088,0.196301 -0.280088,0.262732 0,-0.0057853 0.519679,0.840165 1.55904,2.53775 1.04225,1.69759 1.56193,2.70802 1.56193,3.0285z"/>
  <path id="123456789101112131415" class="fil1 str1" d="M148.751 42.4528c0,0.242484 -0.0461826,0.453248 -0.135755,0.635086 -0.739022,1.46089 -1.74377,2.99678 -3.01983,4.61068 -0.179045,0.236698 -0.27141,0.450355 -0.27141,0.640871 0,0.300337 0.0173559,0.7478 0.0519679,1.34538 0.0347118,0.597681 0.0519679,1.04225 0.0519679,1.3367 0,0.101043 -0.0230414,0.164582 -0.0692241,0.18483 -0.0115706,0.0057853 -0.0866797,0.0201488 -0.22812,0.04329 -0.202086,0.034612 -0.710195,0.0519679 -1.52153,0.0519679 -0.819916,0 -1.3396,-0.0173559 -1.56472,-0.0519679 -0.158796,-0.0231412 -0.236798,-0.103936 -0.236798,-0.245376 0,-0.297344 0.0231412,-0.753585 0.0751091,-1.36563 0.0519679,-0.612045 0.0750094,-1.07108 0.0750094,-1.37421 0,-0.181938 -0.0663314,-0.375346 -0.202086,-0.583218 -0.681269,-0.964249 -1.65709,-2.44239 -2.92746,-4.43164 -0.12987,-0.222335 -0.193408,-0.40128 -0.193408,-0.542721 0,-0.337841 -0.0173559,-0.84595 -0.0519679,-1.52153 -0.0317194,-0.678476 -0.0490753,-1.18369 -0.0490753,-1.52433 0,-0.18483 0.0548606,-0.277196 0.167474,-0.277196 0.34642,0 0.866099,0.0144632 1.56472,0.0403973 0.701617,0.0289265 1.22419,0.0433897 1.5735,0.0433897 0.12987,0 0.196301,0.04329 0.196301,0.126977 0,0.285873 -0.0144632,0.718873 -0.0375047,1.2992 -0.0260338,0.577433 -0.0404971,1.01043 -0.0404971,1.29631 0,0.170267 0.248369,0.591796 0.744907,1.27027 0.395495,0.528357 0.718873,0.938315 0.972927,1.22698 0.231013,-0.27131 0.539928,-0.678476 0.920959,-1.2183 0.485067,-0.678476 0.727551,-1.08554 0.727551,-1.22698 0,-0.282981 -0.0201488,-0.710295 -0.0635385,-1.28184 -0.0403973,-0.571647 -0.0634388,-0.998961 -0.0634388,-1.28194 0,-0.118299 0.0259341,-0.184731 0.077902,-0.202086 0,0 0.0693238,0 0.210764,0 0.337841,0 0.84595,-0.0143635 1.52722,-0.0461826 0.678476,-0.0317194 1.18948,-0.0461826 1.536,-0.0461826 0.112514,0 0.167375,0.121292 0.167375,0.363776 0,0.297344 0.0057853,0.7478 0.0173559,1.34827 0.0115706,0.600474 0.0173559,1.05382 0.0173559,1.35695z"/>
 </g>
</svg>
