<?xml version="1.0" encoding="utf-8"?>
<!-- Generator: Adobe Illustrator 16.0.0, SVG Export Plug-In . SVG Version: 6.00 Build 0)  -->
<!DOCTYPE svg PUBLIC "-//W3C//DTD SVG 1.1//EN" "http://www.w3.org/Graphics/SVG/1.1/DTD/svg11.dtd" [
	<!ENTITY ns_flows "http://ns.adobe.com/Flows/1.0/">
	<!ENTITY ns_extend "http://ns.adobe.com/Extensibility/1.0/">
	<!ENTITY ns_ai "http://ns.adobe.com/AdobeIllustrator/10.0/">
	<!ENTITY ns_graphs "http://ns.adobe.com/Graphs/1.0/">
]>
<svg version="1.1" id="Vrstva_1" xmlns:x="&ns_extend;" xmlns:i="&ns_ai;" xmlns:graph="&ns_graphs;"
	 xmlns="http://www.w3.org/2000/svg" xmlns:xlink="http://www.w3.org/1999/xlink" xmlns:a="http://ns.adobe.com/AdobeSVGViewerExtensions/3.0/"
	 x="0px" y="0px" width="298.1px" height="55.7px" viewBox="0 0 298.1 55.7" style="enable-background:new 0 0 298.1 55.7;"
	 xml:space="preserve">
<style type="text/css">
<![CDATA[
	.st0{fill:#FFFFFF;}
]]>
</style>
<g>
	<path class="st0" d="M29.7,25.5h-1.4c-1,5.8-2.6,9-5.4,11.3c-2.2,1.8-5.4,2.7-9.3,2.7c-2.3,0-2.7-0.6-2.7-3.7V7.2
		c0-3.4,0.7-4.7,2.8-4.7h2.8v-2H0v2h2.8c2,0,2.8,1.2,2.8,4.7v27.7c0,3.5-0.7,4.7-2.8,4.7H0v2h29.4L29.7,25.5z"/>
	<path class="st0" d="M41.5,42.1c2.8,0,5.7-1.7,7.5-4.4c1.1-1.7,1.6-3.2,2.3-6.6h-1.5c-0.6,2.4-1.1,3.9-1.7,5
		c-1.3,2.3-3.3,3.7-5.5,3.7c-2.2,0-4.4-1.5-5.4-3.7c-0.8-1.8-1.1-3.7-1.1-7.2v-1.4h15.2c-0.1-3.2-0.4-5-1.3-7.1
		c-1.7-3.8-4.8-6-8.4-6c-5.9,0-10.5,6-10.5,13.7C31,35.7,35.7,42.1,41.5,42.1z M41.7,16.3c2,0,3.7,1.5,4.4,3.6
		c0.5,1.7,0.6,2.8,0.6,6H36.2C36.4,19.7,38.4,16.3,41.7,16.3z"/>
	<path class="st0" d="M66,39.8h-1.8c-1.9,0-2.1-0.4-2.1-4.8v-1.4l3.6-4.5l4.1,7.2c1.1,1.8,1.1,1.9,1.1,2.4c0,0.7-0.6,1.1-1.7,1.1
		h-1.1v1.7h12.1v-1.7h-0.6c-1.5,0-2.7-1-4.2-3.5l-6.6-10.8l3.2-3.9c3.4-4.2,4.2-4.8,5.8-4.8h0.8v-1.7H66.2v1.7h1c1.8,0,3,0.7,3,2
		c0,1.2-0.8,2.9-2.2,4.5l-5.9,7.1V0.2l-8.4,0.6v1.7h1.8c1.9,0,2.1,0.6,2.1,4.5V35c0,4.4-0.2,4.8-2.1,4.8h-1.8v1.7H66V39.8z"/>
	<path class="st0" d="M87.3,27.2c-4.2,1.5-5.8,3.6-5.8,7.4c0,4.5,2.7,7.6,6.4,7.6c3,0,5-1.5,7.1-5c0.6,3.4,1.7,5,3.7,5
		c1.7,0,3.1-1.2,4.1-3.2c1-2.2,1.4-4.8,1.6-9.8h-1.5c-0.1,6.3-0.9,9-2.6,9c-1,0-1.3-0.7-1.3-3.1V23.7c0-6.3-2.7-9.3-8.1-9.3
		c-5,0-8.5,2.9-8.5,7.2c0,2.2,1.3,3.8,3.1,3.8c1.5,0,2.6-1.3,2.6-3.1c0-1.9-0.9-2.9-2.9-3.6c1.4-1.8,2.6-2.4,5-2.4
		c3.3,0,4.5,2.2,4.5,8v0.9C88.4,26.8,88.3,26.9,87.3,27.2z M94.4,33.5c-0.6,3.7-2.4,5.9-4.8,5.9c-2.1,0-3.7-2.1-3.7-4.8
		c0-3.8,2.7-6.1,8.8-7.5C94.7,30,94.6,32,94.4,33.5z"/>
	<polygon class="st0" points="99.9,3.4 93.5,3.4 90.1,11.6 91.8,11.6 	"/>
	<path class="st0" d="M117.7,39.8h-1.8c-1.9,0-2.1-0.4-2.1-4.8v-6.3c0-4,0.6-7.1,1.7-9.1c1-1.9,2.5-3,3.9-3c0.6,0,0.9,0.1,1.5,0.6
		c-1.2,0.8-1.8,1.7-1.8,3.1c0,1.6,1.1,2.9,2.5,2.9c1.6,0,2.8-1.7,2.8-3.9c0-2.8-1.9-4.9-4.4-4.9c-2.6,0-4.5,1.5-6.2,4.7v-4.4
		l-8.3,0.7V17h1.8c1.9,0,2.1,0.5,2.1,4.5V35c0,4.4-0.2,4.8-2.1,4.8h-1.8v1.7h12.2V39.8z"/>
	<path class="st0" d="M129.1,38c2.7,3.1,4.4,4.1,7.2,4.1c4,0,6.9-3.4,6.9-8.1c0-2.2-0.7-4.2-1.9-5.6c-0.8-0.9-1.7-1.5-3.9-2.4
		c-7.2-3-8-3.6-8-5.9c0-2.2,1.6-3.7,3.8-3.7c3.5,0,6.1,3.3,7,8.7h1.3V15.1h-1.3l-0.9,3c-1.8-2.6-3.6-3.7-6-3.7
		c-3.6,0-6.5,3.3-6.5,7.6c0,4.4,2.3,7.1,7.9,9.1c2.4,0.9,3.1,1.2,3.5,1.5c1.4,0.9,1.9,1.8,1.9,3.4c0,2.5-1.7,4.2-4.3,4.2
		c-2.1,0-3.8-1.1-5.4-3.4c-1.2-1.8-1.8-3.6-2.5-7.2h-1.3l-0.4,12h1.3L129.1,38z"/>
	<path class="st0" d="M158,39.8h-1.8c-1.9,0-2.2-0.4-2.2-4.9v-1.4l3.6-4.5l4.2,7.2c1.1,1.8,1.1,1.9,1.1,2.4c0,0.7-0.6,1.1-1.7,1.1
		h-1.1v1.7h12.1v-1.7h-0.6c-1.5,0-2.7-1-4.3-3.5l-6.6-10.8l3.2-3.9c3.4-4.2,4.3-4.9,5.8-4.9h0.8V15h-12.3v1.7h1c1.8,0,3,0.7,3,2
		c0,1.2-0.8,3-2.2,4.6l-5.9,7.1V0.1l-8.5,0.6v1.7h1.8c1.9,0,2.2,0.6,2.2,4.6v28c0,4.4-0.2,4.9-2.2,4.9h-1.8v1.7H158V39.8z"/>
	<path class="st0" d="M182.7,42.1c2.8,0,5.7-1.7,7.5-4.4c1.1-1.7,1.6-3.2,2.3-6.6H191c-0.6,2.4-1.1,3.9-1.7,5
		c-1.3,2.3-3.3,3.7-5.5,3.7c-2.3,0-4.4-1.5-5.4-3.8c-0.8-1.8-1.1-3.7-1.1-7.3v-1.4h15.3c-0.1-3.2-0.4-5-1.3-7.1
		c-1.7-3.8-4.8-6-8.5-6c-5.9,0-10.5,6-10.5,13.7C172.2,35.7,176.9,42.1,182.7,42.1z M182.9,16.2c2,0,3.7,1.5,4.4,3.6
		c0.5,1.7,0.6,2.8,0.6,6h-10.6C177.6,19.7,179.6,16.2,182.9,16.2z"/>
	<path class="st0" d="M220.9,39.8h-1.8c-1.9,0-2.2-0.4-2.2-4.9V0.1l-8.4,0.6v1.7h1.8c1.9,0,2.2,0.5,2.2,4.6v28
		c0,4.4-0.2,4.9-2.2,4.9h-1.8v1.7h12.3V39.8z"/>
	<path class="st0" d="M227.9,6.8c1.5,0,2.8-1.5,2.8-3.4c0-1.8-1.3-3.4-2.8-3.4c-1.6,0-2.9,1.5-2.9,3.4
		C225.1,5.2,226.4,6.8,227.9,6.8z"/>
	<path class="st0" d="M234.4,39.8h-1.8c-1.9,0-2.2-0.4-2.2-4.9V14.6l-8.4,0.7V17h1.8c1.9,0,2.2,0.5,2.2,4.6v13.4
		c0,4.4-0.2,4.9-2.2,4.9h-1.8v1.7h12.4V39.8z"/>
	<path class="st0" d="M239.3,38c2.7,3.1,4.5,4.1,7.2,4.1c4,0,6.9-3.4,6.9-8.1c0-2.2-0.7-4.2-1.9-5.6c-0.8-0.9-1.7-1.5-3.9-2.4
		c-7.2-3-8-3.6-8-5.9c0-2.2,1.6-3.8,3.8-3.8c3.5,0,6.1,3.3,7,8.7h1.3V15h-1.3l-0.9,3c-1.8-2.6-3.6-3.7-6-3.7c-3.6,0-6.5,3.3-6.5,7.6
		c0,4.4,2.3,7.1,7.9,9.2c2.4,0.9,3.1,1.2,3.5,1.5c1.4,0.9,1.9,1.8,1.9,3.4c0,2.5-1.7,4.2-4.3,4.2c-2.1,0-3.8-1.1-5.4-3.4
		c-1.2-1.8-1.8-3.6-2.5-7.3h-1.3l-0.4,12h1.3L239.3,38z"/>
	<path class="st0" d="M258.8,32.1c0,4.1,0.6,6.6,1.9,8.2c1,1.1,2.6,1.8,4,1.8c2.5,0,4.8-1.8,6-4.9c1-2.5,1.4-5,1.4-10.3h-1.4
		c0,3.4-0.1,4.6-0.5,6.6c-0.7,3.6-2.2,5.8-4,5.8c-2.2,0-3.1-2-3.1-6.8V16.7h6.9V15h-6.9V3.6h-1.6c-0.2,5.6-2.4,9.4-6.8,11.4v1.7h3.9
		V32.1z"/>
	<path class="st0" d="M287,45.8c-1,3-2,5.4-3.1,7.2h6.6v-9.2h-2.9L287,45.8z"/>
	<path class="st0" d="M274.9,45.2c2.4,0,4.1,2.1,4.1,4.8c0,0.5,0,0.9-0.1,1.3c1-1,2.1-3.1,3.5-7.6H0v9.2h270.8
		c-0.2-0.8-0.4-1.6-0.4-2.5C270.4,47.4,272.3,45.2,274.9,45.2z"/>
	<path class="st0" d="M288.3,15v1.7h1.1c1.5,0,2.4,0.8,2.4,2.1c0,0.9-0.3,2.3-0.7,3.6l-4.2,12.7l-5.1-14c-0.5-1.4-0.7-2.2-0.7-2.6
		c0-1.2,0.8-1.7,2.3-1.7h1V15h-12.3v1.7h1.1c1.9,0,2.3,0.4,3.8,4.9l7.3,20.9c-2.3,8.2-4.2,11.2-7.2,11.2c-0.6,0-0.8-0.1-1.2-0.4
		c1-0.9,1.5-1.8,1.5-3.1c0-1.9-1.1-3.3-2.6-3.3c-1.7,0-2.9,1.5-2.9,3.7c0,3.3,1.8,5.2,4.9,5.2c4,0,6-2.5,8.7-10.4l7.9-23.7
		c1.3-3.8,2.1-4.9,3.8-4.9h0.8V15H288.3z"/>
</g>
</svg>
