<svg version="1.2" xmlns="http://www.w3.org/2000/svg" viewBox="0 0 808 1078" width="808" height="1078"><style>.a{fill:#fff;stroke:#fff;stroke-miterlimit:10}</style><path fill-rule="evenodd" class="a" d="m109.2 445.6h-40.5l-14.1 37.1-13.9-37.1h-40.9v69.1h28.1v-40.3l15.1 40.3h22.8l15.3-40.3v40.3h28.1z"/><path class="a" d="m156.9 504.8h33.7l4.8 9.9h31.2l-37-69.1h-30.8l-37.1 69.1h30.3zm7.1-14.3l10.4-20.3 9.4 20.3z"/><path fill-rule="evenodd" class="a" d="m299.9 479.1l34.4-33.5h-35.7l-16.9 18.9-16.5-18.9h-35.7l34 33.5-36.8 35.6h36.5l18.5-20.6 18.1 20.6h37.1z"/><path fill-rule="evenodd" class="a" d="m378.5 445.6v69.1h-30.5v-69.1z"/><path fill-rule="evenodd" class="a" d="m30.2 610l9.3-6.7 25.1 27.3h38.2l-42.4-41.6 38.6-27.4h-38.6l-30.2 22.3v-22.3h-30.4v69h30.4z"/><path class="a" d="m144.2 606.8h12.7c12.3 0 16.2 3.7 16.8 15 0.4 5.6 0.4 6 1.6 8.8h31.6c-2-2.2-2.4-3.8-2.7-9.4-0.2-12.9-4.6-19.1-15.8-21.9 11.2-3.3 17-9 17-17.1 0-8.1-5.8-14.3-16.6-17.7-6.1-1.9-15.4-2.9-26.2-2.9h-48.8v69h30.4v-23.8zm0-28.3h17.5c3.5 0 5.7 0.1 7.2 0.4 3.6 0.8 5.6 3 5.6 6.1 0 2.9-2 5.4-5.3 6.3-1.8 0.5-2.8 0.6-7.6 0.6h-17.4v-13.4z"/><path class="a" d="m265.2 539.5h-28.7l-7.7 15.3h17.4zm-10.7 22.1h-30.4v69h30.4z"/><path class="a" d="m317 547.7l-7.6-8.2h-21.4l17.4 15.4h23.3l17.3-15.4h-21.3zm44.3 64.9h-50.1l47.1-35.3v-15.8h-82.8v17.9h41.5l-44.3 33.2v18h88.6z"/><path class="a" d="m425.3 560c-30.7 0-51.6 14.3-51.6 35.5 0 12.9 5.8 22.3 17.8 29 9.2 5.2 20.4 7.7 34 7.7 31 0 51.4-14.4 51.4-36.1 0-21.8-20.4-36.1-51.6-36.1zm0 17.1c12.5 0 20.7 7.6 20.7 19 0 11.5-8.2 19-20.7 19-12.6 0-20.7-7.4-20.7-19.2 0-11.2 8.4-18.8 20.7-18.8z"/><path fill-rule="evenodd" class="a" d="m581.3 561.6h-31.6l-18 46.4-17.2-46.4h-31l31 69h34.3z"/><path fill-rule="evenodd" class="a" d="m624.2 610l9.3-6.7 25.1 27.3h38.2l-42.4-41.6 38.6-27.4h-38.6l-30.2 22.3v-22.3h-30.4v69h30.4z"/><path fill-rule="evenodd" class="a" d="m775.4 605.6l37.3-44h-34.3l-18.2 26.5-18.3-26.5h-33.8l36.8 44v25h30.5z"/><path class="a" d="m30.2 630.6h-30.4v-69h30.4v22.3l30.2-22.3h38.6l-38.6 27.4 42.4 41.6h-38.2l-25.1-27.3-9.3 6.7z"/><path class="a" d="m144.2 630.6h-30.4v-69h48.8c10.8 0 20.1 1 26.2 2.9 10.8 3.4 16.6 9.6 16.6 17.7 0 8.1-5.8 13.8-17 17.1 11.2 2.8 15.6 9 15.8 21.9 0.3 5.6 0.8 7.2 2.7 9.4h-31.6c-1.2-2.8-1.2-3.2-1.5-8.8-0.7-11.3-4.6-15-16.9-15h-12.7v23.8zm0-38.7h17.4c4.8 0 5.8-0.1 7.6-0.6 3.3-0.9 5.3-3.4 5.3-6.3 0-3.1-2-5.3-5.6-6.1-1.5-0.3-3.7-0.4-7.2-0.4h-17.5z"/><path class="a" d="m254.6 630.6h-30.5v-69h30.5zm-8.4-75.9h-17.4l7.7-15.3h28.7z"/><path class="a" d="m361.3 630.6h-88.6v-17.9l44.3-33.2h-41.6v-17.9h82.8v15.7l-47 35.4h50.1zm-36.6-91.1h21.3l-17.3 15.4h-23.3l-17.4-15.4h21.4l7.6 8.2z"/><path class="a" d="m476.9 596.1c0 21.7-20.4 36.1-51.4 36.1-13.6 0-24.8-2.5-34-7.7-12-6.7-17.8-16.1-17.8-29 0-21.2 20.9-35.4 51.6-35.4 31.2 0 51.6 14.2 51.6 36zm-72.3-0.2c0 11.8 8.1 19.2 20.7 19.2 12.5 0 20.7-7.5 20.7-19 0-11.4-8.2-19-20.7-19-12.3 0-20.7 7.6-20.7 18.8z"/><path class="a" d="m548.8 630.6h-34.3l-31-69h31l17.2 46.4 18-46.4h31.6z"/><path class="a" d="m624.3 630.6h-30.5v-69h30.5v22.3l30.1-22.3h38.7l-38.7 27.4 42.5 41.6h-38.2l-25.1-27.3-9.3 6.7z"/><path class="a" d="m775.5 630.6h-30.4v-25l-36.8-44h33.8l18.2 26.5 18.3-26.5h34.2l-37.3 44z"/><path class="a" d="m469.4 492.3h-14.8v-4.4l7.4-8.2h-7v-4.4h13.9v3.9l-7.9 8.7h8.4v4.4z"/><path class="a" d="m475.4 492.3h-5.1l6.2-17h5.2l6.2 17h-5.2l-0.8-2.4h-5.7zm5.3-6l-1.5-4.9-1.8 4.9zm-0.4-12.7h-2.9l1.3-3.8h4.8z"/><path class="a" d="m498.4 475.3c2 0 2.8 0.1 3.7 0.6 1.5 0.8 2.4 2.2 2.4 3.9 0 1.5-0.7 2.6-2.1 3.3 1.9 0.7 2.8 2.2 2.8 4.1 0 2.2-1.3 4-3.3 4.7-0.8 0.3-1.8 0.4-3.5 0.4h-8.4v-17zm-3.4 6.6h2.6c0.9 0 1.1 0 1.4-0.2 0.5-0.1 0.8-0.6 0.8-1.1 0-0.6-0.3-1-0.9-1.2-0.3-0.1-0.4-0.1-1.3-0.1h-2.6zm0 6.4h3.2c0.8 0 1.1 0 1.4-0.1 0.5-0.3 0.8-0.8 0.8-1.4 0-0.8-0.5-1.4-1.3-1.5-0.2-0.1-0.3-0.1-1-0.1h-3.1v3.1z"/><path class="a" d="m511.6 492.3h-5l6.2-17h5.1l6.2 17h-5.2l-0.8-2.4h-5.6zm5.3-6l-1.6-4.9-1.7 4.9z"/><path class="a" d="m534.6 492.3h-5.7l-5.2-17h5.2l2.9 11.4 3-11.4h5.3z"/><path class="a" d="m544.7 492.3h-5.1l6.2-17h5.2l6.2 17h-5.3l-0.8-2.4h-5.6zm5.3-6l-1.6-4.9-1.7 4.9z"/><path class="a" d="m571 492.3h-5.1v-17h8c1.8 0 2.6 0.1 3.6 0.6 2 0.9 3.3 3 3.3 5.5 0 2.4-1.3 4.3-3.4 5.2-0.8 0.4-1.8 0.5-3 0.5h-3.4v5.2zm0-9.2h2.6c1.3 0 2-0.6 2-1.9 0-1.2-0.6-1.7-2-1.7h-2.6z"/><path class="a" d="m588.7 492.3h-5.1v-17h8.2c1.8 0 3.4 0.3 4.4 0.7 1.8 0.9 2.8 2.4 2.8 4.4q0 3-2.9 4.2c1.9 0.7 2.7 2.2 2.7 5.4 0 1.4 0.1 1.7 0.4 2.3h-5.3c-0.2-0.7-0.2-0.8-0.2-2.2-0.1-2.8-0.8-3.7-2.8-3.7h-2.2v5.9zm0-9.5h2.9c0.9 0 1-0.1 1.3-0.2 0.6-0.2 0.9-0.8 0.9-1.5 0-0.8-0.3-1.3-0.9-1.5-0.3-0.1-0.6-0.1-1.2-0.1h-3v3.3z"/><path class="a" d="m607.2 487.9h9.5v4.4h-14.6v-17h14.3v4.4h-9.2v2.2h7.9v3.7h-7.9v2.3z"/><path class="a" d="m642.2 485.9c-0.5 4.1-3.5 6.8-7.8 6.8-5 0-8.6-3.7-8.6-9 0-5 3.5-8.8 8.3-8.8 2.7 0 5.2 1.2 6.7 3.2 0.8 1.1 1.1 2 1.2 3.5h-4.9c-0.3-1.6-1.3-2.4-2.9-2.4-0.9 0-1.6 0.3-2.1 0.9-0.7 1-1.1 2.3-1.1 3.8 0 2.8 1.3 4.6 3.4 4.6 1.5 0 2.5-0.9 2.7-2.6z"/><path class="a" d="m650.1 487.9h9.5v4.4h-14.6v-17h14.4v4.4h-9.3v2.2h8v3.7h-8z"/><path class="a" d="m667.9 487.9h7.6v4.4h-12.7v-17h5.1v12.6z"/><path class="a" d="m693.7 485.5c0 2.1-0.3 3.2-1.1 4.3-1.3 2-3.4 2.9-6.7 2.9-3.6 0-5.8-1.1-7-3.3-0.6-1-0.8-2-0.8-3.9v-10.2h5.1v10.3c0 1.9 0.9 2.9 2.7 2.9 1.8 0 2.7-1 2.7-2.9v-10.3h5.1v10.2zm-6.7-11.9h-2.9l1.3-3.7h4.8z"/><path class="a" d="m709.2 492.3h-5.1v-17h8.1c1.8 0 3.4 0.3 4.4 0.7 1.8 0.9 2.8 2.4 2.8 4.4q0 3-2.9 4.2c1.9 0.7 2.7 2.2 2.7 5.4 0 1.4 0.1 1.7 0.4 2.3h-5.3c-0.2-0.7-0.2-0.8-0.2-2.2-0.1-2.8-0.8-3.7-2.8-3.7h-2.2v5.9zm0-9.5h3c0.8 0 0.9-0.1 1.2-0.2 0.6-0.2 0.9-0.8 0.9-1.5 0-0.8-0.3-1.3-0.9-1.5-0.3-0.1-0.6-0.1-1.2-0.1h-3z"/><path class="a" d="m739.2 483.8c0 5.3-3.4 8.9-8.6 8.9q-3.4 0-5.7-1.9c-2-1.7-3-4-3-7.1 0-5.3 3.5-8.8 8.7-8.8 5.2 0 8.6 3.5 8.6 8.9zm-12.1-0.1c0 2.9 1.3 4.8 3.5 4.8 2 0 3.4-1.9 3.4-4.7 0-2.8-1.4-4.7-3.4-4.7-2.1 0-3.5 1.9-3.5 4.6z"/><path class="a" d="m750.2 475.3c5.2 0 8.2 3.1 8.2 8.5 0 3.6-1.3 6.4-3.8 7.7-1.2 0.6-2.4 0.8-4.3 0.8h-7.9v-17zm-2.7 12.6h1.9c1 0 1.7-0.2 2.3-0.6 1.1-0.7 1.6-1.8 1.6-3.4 0-2.8-1.3-4.2-3.9-4.2h-1.9z"/><path fill-rule="evenodd" class="a" d="m766.8 475.3v17h-5.1v-17z"/><path class="a" d="m786.2 492.3h-5.1l-5.2-8.8v8.8h-5.1v-17h5.1l5.2 8.9v-8.9h5.1z"/><path class="a" d="m805.6 485.5c0 2.1-0.2 3.2-1 4.3-1.4 2-3.4 2.9-6.8 2.9-3.5 0-5.7-1.1-7-3.3-0.6-1-0.8-2-0.8-3.9v-10.2h5.1v10.3c0 1.9 1 2.9 2.7 2.9 1.8 0 2.7-1 2.7-2.9v-10.3h5.1v10.2z"/><path class="a" d="m109.2 514.7h-28.1v-40.3l-15.3 40.3h-22.8l-15.1-40.3v40.3h-28.1v-69.1h40.9l13.9 37.1 14.1-37.1h40.5z"/><path class="a" d="m151.8 514.7h-30.3l37.2-69.1h30.7l37 69.1h-31.2l-4.7-9.9h-33.8zm31.8-24.1l-9.4-20.3-10.4 20.3z"/><path class="a" d="m336.8 514.7h-37.2l-18.1-20.6-18.4 20.6h-36.5l36.8-35.6-34.1-33.5h35.8l16.4 18.9 16.9-18.9h35.8l-34.4 33.5z"/><path fill-rule="evenodd" class="a" d="m378.3 445.6v69.1h-30.4v-69.1z"/></svg>