<?xml version="1.0" encoding="utf-8"?>
<!-- Generator: Adobe Illustrator 16.0.0, SVG Export Plug-In . SVG Version: 6.00 Build 0)  -->
<!DOCTYPE svg PUBLIC "-//W3C//DTD SVG 1.1//EN" "http://www.w3.org/Graphics/SVG/1.1/DTD/svg11.dtd" [
	<!ENTITY ns_flows "http://ns.adobe.com/Flows/1.0/">
	<!ENTITY ns_extend "http://ns.adobe.com/Extensibility/1.0/">
	<!ENTITY ns_ai "http://ns.adobe.com/AdobeIllustrator/10.0/">
	<!ENTITY ns_graphs "http://ns.adobe.com/Graphs/1.0/">
]>
<svg version="1.1" id="Vrstva_1" xmlns:x="&ns_extend;" xmlns:i="&ns_ai;" xmlns:graph="&ns_graphs;"
	 xmlns="http://www.w3.org/2000/svg" xmlns:xlink="http://www.w3.org/1999/xlink" xmlns:a="http://ns.adobe.com/AdobeSVGViewerExtensions/3.0/"
	 x="0px" y="0px" width="299.5px" height="160.3px" viewBox="0 0 299.5 160.3" style="enable-background:new 0 0 299.5 160.3;"
	 xml:space="preserve">
<style type="text/css">
<![CDATA[
	.st0{fill:#FFFFFF;}
]]>
</style>
<g>
	<path class="st0" d="M55.5,53.2h16.3L69.2,0H46.3l-4.6,13.3c-1.8,5.3-4,13.2-5.9,19.9h-0.3c-1.3-6.7-3.1-14.1-4.8-19.8L26.8,0H3.3
		L0,53.2h15.5l0.9-19.8c0.3-6.6,0.5-15.1,0.9-23.2h0.2c1.6,7.9,3.5,16.2,5.2,22.8l5.2,19.2h13.1l6.3-19.3c2.3-6.7,5-15.1,7.1-22.7
		h0.3c0,9.2,0.1,16.6,0.3,23.2L55.5,53.2L55.5,53.2z M113.6,40.3l4.3,13h18.2L116.5,0H94L75.5,53.2h17.3l3.7-13H113.6L113.6,40.3z
		 M98.9,29.4l2.8-9.3c1-3.1,1.8-7,2.8-10h0.2c1,3.1,2.3,7,3.3,10l3.1,9.4H98.9L98.9,29.4z M194.3,53.2l-18.9-27.5L193.1,0h-19.4
		l-4.1,8.5c-1.4,2.9-2.3,5.1-3.8,8.8h-0.3c-1.5-3.1-2.7-5.6-4.4-8.8L156.7,0h-19.4l17.9,26.4l-18.5,26.9h19.4l4.4-8.9
		c1.7-3.3,3.1-5.9,4.3-8.9h0.2c1.7,3,3.1,5.6,5,9.1l4.8,8.8H194.3L194.3,53.2z M199,0v53.2h16.4V0H199L199,0z"/>
	<path class="st0" d="M0.6,105.6h10.8V94.2l3.6-4.2l9.3,15.5h12.8L22.8,83.8l13.6-15.9H22.7l-8.5,12c-0.9,1.2-1.9,2.5-2.8,3.9h-0.1
		V67.9H0.6V105.6L0.6,105.6z M41.4,105.6h10.8v-14h2c3.6,0,5.2,0.9,6.4,5.4c1.3,4.9,2.4,7.5,3,8.6h11.1c-0.7-1.5-2.1-7-3.4-10.8
		c-1.1-3.1-2.5-5.6-5.1-6.7v-0.2c2.7-0.8,6.9-4,6.9-9.1c0-3.8-1.6-6.5-4-8.3c-3-2.1-7.3-3-13.8-3c-5.9,0-10.7,0.4-13.7,0.8V105.6
		L41.4,105.6z M52.2,75.5c0.6-0.1,1.7-0.2,4.1-0.2c3.7,0,5.9,1.5,5.9,4.3c0,2.9-2.5,4.5-6.8,4.5h-3.2V75.5L52.2,75.5z M79.8,67.9
		v37.7h10.9V67.9H79.8L79.8,67.9z M85,58.6l-4.7,7.3h9l6.9-7.3H85L85,58.6z M96.4,105.6h34v-8.6h-18.9v-0.2L130,73.4v-5.5H98.2v8.6
		h17.2v0.2l-18.9,23.4V105.6L96.4,105.6z M117.9,65.9l6.1-7.3h-7.3l-2.8,3.5h-0.1l-2.8-3.5h-7.3l6,7.3H117.9L117.9,65.9z
		 M154.1,106.2c13.3,0,21.5-8.3,21.5-19.7c0-11.1-7.8-19.3-20.9-19.3c-12.7,0-21.2,8.3-21.2,19.8
		C133.4,97.9,141.2,106.2,154.1,106.2L154.1,106.2L154.1,106.2z M154.5,98.1c-5.8,0-9.5-4.8-9.5-11.3c0-6.5,3.7-11.4,9.5-11.4
		c5.8,0,9.5,4.9,9.5,11.4C164,93.3,160.5,98.1,154.5,98.1L154.5,98.1L154.5,98.1z M205,105.6l14-37.7h-11.5l-4.9,14.8
		c-1.3,4-2.6,8.4-3.7,13.1h-0.1c-1.1-5-2.3-9.1-3.7-13.4l-4.7-14.5h-11.9l13.6,37.7H205L205,105.6z M224.2,105.6H235V94.2l3.6-4.2
		l9.3,15.5h12.8l-14.3-21.8l13.6-15.9h-13.8l-8.5,12c-0.9,1.2-1.9,2.5-2.8,3.9H235V67.9h-10.8V105.6L224.2,105.6z M285.4,105.6V89.5
		l14.1-21.6H287l-3.6,8.4c-1.1,2.6-2,4.5-2.9,6.7h-0.1c-1-2.3-1.7-4-2.9-6.7l-3.6-8.4H261l13.5,22v15.7H285.4L285.4,105.6z"/>
	<g>
		<path class="st0" d="M182.9,125.4c-1.7,0-2.7,0.1-3.2,0.2v9.1c0.6,0.1,1.3,0.2,2.6,0.2c3.8,0,6.5-1.8,6.5-5.1
			C188.8,127.2,186.9,125.4,182.9,125.4z"/>
		<path class="st0" d="M160.6,112.8v47.4h138.2v-47.4H160.6z M195.1,138.7c-3,2.8-7.3,4-12.8,4c-1.1,0-2-0.1-2.7-0.2v12.2h-9.8
			v-36.2c2.7-0.4,6.7-0.8,12.9-0.8c5.3,0,9,1.1,11.5,2.9c2.5,1.8,4.3,5.1,4.3,9C198.6,133.3,197.4,136.6,195.1,138.7z M227.1,154.8
			h-25.1v-36.7h9.9v28.1h15.2V154.8z M261.4,137.8c0,12-6.1,17.7-16.9,17.7c-10.1,0-16-5.3-16-17.9v-19.4h9.9V138
			c0,5.8,2,9.5,6.5,9.5c4.5,0,6.5-3.4,6.5-9.5v-19.9h9.9V137.8z M277.1,155.4c-4.7,0-9.2-1.3-11.5-2.5l2-8.4
			c2.4,1.2,6.1,2.6,10.2,2.6c3.3,0,5-1.1,5-2.9c0-1.6-1.6-2.6-5.9-3.9c-6-1.7-11-4.9-11-11.3c0-6.6,5.8-11.5,14.9-11.5
			c4.8,0,8.1,0.9,10.8,2.1l-2.3,8c-1.7-0.7-4.7-1.9-8.7-1.9c-2.9,0-4.6,1-4.6,2.6c0,2,2.2,2.6,6.9,4.1c6.9,2.3,10.1,5.7,10.1,11.3
			C293,149.8,288.4,155.4,277.1,155.4z"/>
	</g>
</g>
</svg>
