<?xml version="1.0" encoding="UTF-8"?>
<!DOCTYPE svg PUBLIC "-//W3C//DTD SVG 1.1//EN" "http://www.w3.org/Graphics/SVG/1.1/DTD/svg11.dtd">
<!-- Creator: CorelDRAW -->
<svg xmlns="http://www.w3.org/2000/svg" xml:space="preserve" width="222.428mm" height="68.4445mm" style="shape-rendering:geometricPrecision; text-rendering:geometricPrecision; image-rendering:optimizeQuality; fill-rule:evenodd; clip-rule:evenodd"
viewBox="0 0 220.162 67.7473"
 xmlns:xlink="http://www.w3.org/1999/xlink">
 <defs>
  <style type="text/css">
   <![CDATA[
    .str1 {stroke:white;stroke-width:0.00494907}
    .str0 {stroke:white;stroke-width:0.0754238}
    .str2 {stroke:white;stroke-width:0.197963}
    .fil1 {fill:none;fill-rule:nonzero}
    .fil2 {fill:white}
    .fil0 {fill:white;fill-rule:nonzero}
   ]]>
  </style>
 </defs>
 <g id="Vrstva_x0020_1">
  <metadata id="CorelCorpID_0Corel-Layer"/>
  <polygon class="fil0" points="2.94143,58.1848 2.94143,50.9998 5.15188,50.9998 5.15188,56.2132 8.63543,56.2132 8.63543,58.1848 "/>
  <path id="1" class="fil0" d="M11.5423 50.9998l0 3.51206c0,0.721277 0.0869056,1.22371 0.260618,1.50402 0.172524,0.280216 0.472636,0.419483 0.899245,0.419483 0.426511,0 0.725434,-0.139267 0.896573,-0.417899 0.171139,-0.278533 0.256758,-0.780963 0.256758,-1.50561l0 -3.51206 2.21441 0 0 3.77406c0,1.24697 -0.269922,2.16056 -0.808381,2.74099 -0.538458,0.578744 -1.39158,0.868858 -2.55936,0.868858 -1.15858,0 -2.01031,-0.291797 -2.55411,-0.873807 -0.543705,-0.583693 -0.8162,-1.49571 -0.8162,-2.73604l0 -3.77406 2.21045 0zm0.156687 -0.73464l0.725434 -1.5255 2.32091 0 -1.16897 1.5255 -1.87738 0z"/>
  <path id="12" class="fil0" d="M16.9637 55.9993l2.67655 -0.00494907c0.021083,0.194003 0.117194,0.343267 0.289619,0.449375 0.172524,0.104425 0.406912,0.157479 0.705638,0.157479 0.298924,0 0.521434,-0.0430569 0.670203,-0.129369 0.147482,-0.0845301 0.221124,-0.213899 0.221124,-0.384641 0,-0.15253 -0.0645358,-0.275267 -0.193509,-0.368112 -0.127686,-0.0912608 -0.32644,-0.159162 -0.593789,-0.200635l-1.65091 -0.257055c-0.683268,-0.104425 -1.19807,-0.334953 -1.54431,-0.69475 -0.346237,-0.359896 -0.518662,-0.840748 -0.518662,-1.44265 0,-0.804223 0.261905,-1.3896 0.784625,-1.75939 0.524007,-0.369794 1.35733,-0.553801 2.50136,-0.553801 1.18886,0 2.07227,0.184006 2.65023,0.553801 0.579338,0.369794 0.891327,0.943589 0.937353,1.72455l-2.56847 0c-0.0290015,-0.227162 -0.136891,-0.398004 -0.325253,-0.512426 -0.186976,-0.114323 -0.450167,-0.172425 -0.78997,-0.172425 -0.247453,0 -0.440962,0.0431559 -0.583198,0.129369 -0.14085,0.0845301 -0.211919,0.200635 -0.211919,0.346534 0,0.136 0.0552316,0.240426 0.164606,0.311791 0.109176,0.0712666 0.335646,0.137584 0.680596,0.198952l2.01298 0.358213c0.63061,0.114422 1.10067,0.344851 1.41266,0.693067 0.310702,0.348216 0.466004,0.817487 0.466004,1.40613 0,0.880538 -0.310702,1.52728 -0.933394,1.93845 -0.622692,0.411267 -1.6036,0.616852 -2.9438,0.616852 -1.06375,0 -1.88124,-0.207267 -2.44999,-0.621801 -0.570034,-0.414534 -0.858366,-1.00822 -0.866384,-1.78255zm2.47255 -5.73409l-1.21519 -1.5255 1.95241 0 0.392362 0.709696 0.393649 -0.709696 1.95241 0 -1.2534 1.5255 -2.22223 0z"/>
  <polygon id="123" class="fil0" points="26.5059,58.1848 26.5059,52.8222 24.4429,52.8222 24.4429,50.9998 30.7873,50.9998 30.7873,52.8222 28.7164,52.8222 28.7164,58.1848 "/>
  <polygon id="1234" class="fil0" points="31.4285,58.1848 31.4285,50.9998 33.6389,50.9998 33.6389,58.1848 "/>
  <polygon id="12345" class="fil0" points="34.8804,58.1848 34.8804,50.9998 38.1586,50.9998 39.1236,55.3775 40.165,50.9998 43.3971,50.9998 43.3971,58.1848 41.3486,58.1848 41.3486,52.5734 39.9911,58.1848 38.2665,58.1848 36.925,52.5734 36.925,58.1848 "/>
  <polygon id="123456" class="fil0" points="44.6425,58.1848 44.6425,50.9998 50.6867,50.9998 50.6867,52.7625 46.8529,52.7625 46.8529,53.6181 49.9573,53.6181 49.9573,55.3908 46.8529,55.3908 46.8529,56.3342 50.8762,56.3342 50.8762,58.1848 "/>
  <polygon id="1234567" class="fil1 str0" points="2.94143,58.1848 2.94143,50.9998 5.15188,50.9998 5.15188,56.2132 8.63543,56.2132 8.63543,58.1848 "/>
  <path id="12345678" class="fil1 str0" d="M11.5423 50.9998l0 3.51206c0,0.721277 0.0869056,1.22371 0.260618,1.50402 0.172524,0.280216 0.472636,0.419483 0.899245,0.419483 0.426511,0 0.725434,-0.139267 0.896573,-0.417899 0.171139,-0.278533 0.256758,-0.780963 0.256758,-1.50561l0 -3.51206 2.21441 0 0 3.77406c0,1.24697 -0.269922,2.16056 -0.808381,2.74099 -0.538458,0.578744 -1.39158,0.868858 -2.55936,0.868858 -1.15858,0 -2.01031,-0.291797 -2.55411,-0.873807 -0.543705,-0.583693 -0.8162,-1.49571 -0.8162,-2.73604l0 -3.77406 2.21045 0zm0.156687 -0.73464l0.725434 -1.5255 2.32091 0 -1.16897 1.5255 -1.87738 0z"/>
  <path id="123456789" class="fil1 str0" d="M16.9637 55.9993l2.67655 -0.00494907c0.021083,0.194003 0.117194,0.343267 0.289619,0.449375 0.172524,0.104425 0.406912,0.157479 0.705638,0.157479 0.298924,0 0.521434,-0.0430569 0.670203,-0.129369 0.147482,-0.0845301 0.221124,-0.213899 0.221124,-0.384641 0,-0.15253 -0.0645358,-0.275267 -0.193509,-0.368112 -0.127686,-0.0912608 -0.32644,-0.159162 -0.593789,-0.200635l-1.65091 -0.257055c-0.683268,-0.104425 -1.19807,-0.334953 -1.54431,-0.69475 -0.346237,-0.359896 -0.518662,-0.840748 -0.518662,-1.44265 0,-0.804223 0.261905,-1.3896 0.784625,-1.75939 0.524007,-0.369794 1.35733,-0.553801 2.50136,-0.553801 1.18886,0 2.07227,0.184006 2.65023,0.553801 0.579338,0.369794 0.891327,0.943589 0.937353,1.72455l-2.56847 0c-0.0290015,-0.227162 -0.136891,-0.398004 -0.325253,-0.512426 -0.186976,-0.114323 -0.450167,-0.172425 -0.78997,-0.172425 -0.247453,0 -0.440962,0.0431559 -0.583198,0.129369 -0.14085,0.0845301 -0.211919,0.200635 -0.211919,0.346534 0,0.136 0.0552316,0.240426 0.164606,0.311791 0.109176,0.0712666 0.335646,0.137584 0.680596,0.198952l2.01298 0.358213c0.63061,0.114422 1.10067,0.344851 1.41266,0.693067 0.310702,0.348216 0.466004,0.817487 0.466004,1.40613 0,0.880538 -0.310702,1.52728 -0.933394,1.93845 -0.622692,0.411267 -1.6036,0.616852 -2.9438,0.616852 -1.06375,0 -1.88124,-0.207267 -2.44999,-0.621801 -0.570034,-0.414534 -0.858366,-1.00822 -0.866384,-1.78255zm2.47255 -5.73409l-1.21519 -1.5255 1.95241 0 0.392362 0.709696 0.393649 -0.709696 1.95241 0 -1.2534 1.5255 -2.22223 0z"/>
  <polygon id="12345678910" class="fil1 str0" points="26.5059,58.1848 26.5059,52.8222 24.4429,52.8222 24.4429,50.9998 30.7873,50.9998 30.7873,52.8222 28.7164,52.8222 28.7164,58.1848 "/>
  <polygon id="1234567891011" class="fil1 str0" points="31.4285,58.1848 31.4285,50.9998 33.6389,50.9998 33.6389,58.1848 "/>
  <polygon id="123456789101112" class="fil1 str0" points="34.8804,58.1848 34.8804,50.9998 38.1586,50.9998 39.1236,55.3775 40.165,50.9998 43.3971,50.9998 43.3971,58.1848 41.3486,58.1848 41.3486,52.5734 39.9911,58.1848 38.2665,58.1848 36.925,52.5734 36.925,58.1848 "/>
  <polygon id="12345678910111213" class="fil1 str0" points="44.6425,58.1848 44.6425,50.9998 50.6867,50.9998 50.6867,52.7625 46.8529,52.7625 46.8529,53.6181 49.9573,53.6181 49.9573,55.3908 46.8529,55.3908 46.8529,56.3342 50.8762,56.3342 50.8762,58.1848 "/>
  <polygon class="fil0" points="106.1,13.0017 106.1,3.11494 109.697,3.11494 112.728,8.81013 112.728,3.11494 115.674,3.11494 115.674,13.0017 112.261,13.0017 108.966,7.21297 108.966,13.0017 "/>
  <path id="1" class="fil0" d="M120.478 9.59278l1.94736 0 -0.943886 -3.47731 -1.00347 3.47731zm-4.25729 3.40892l3.40219 -9.88675 3.85859 0 3.17394 9.88675 -3.29519 0 -0.260915 -0.96972 -3.33874 0 -0.28081 0.96972 -3.25906 0z"/>
  <path id="12" class="fil0" d="M126.523 8.76905l3.05258 0 0 0.141444c0,0.595571 0.0760177,1.03822 0.228251,1.32348 0.152134,0.285165 0.38771,0.42661 0.704747,0.42661 0.364053,0 0.617743,-0.136891 0.758989,-0.408397 0.141345,-0.271506 0.212018,-0.823723 0.212018,-1.65655l0 -5.4807 3.0416 0 0 5.09279c0,1.15462 -0.0398895,1.96458 -0.121351,2.43464 -0.0814616,0.467786 -0.221025,0.8648 -0.420275,1.1956 -0.286254,0.476892 -0.706628,0.835106 -1.26092,1.07702 -0.552514,0.239535 -1.23182,0.36049 -2.03436,0.36049 -1.48551,0 -2.55075,-0.31486 -3.19561,-0.946856 -0.643181,-0.629818 -0.965662,-1.66566 -0.965662,-3.10544l0 -0.454126z"/>
  <polygon id="123" class="fil0" points="136.013,13.0017 136.013,3.11494 139.054,3.11494 139.054,10.2887 143.848,10.2887 143.848,13.0017 "/>
  <path id="1234" class="fil0" d="M148.495 9.59278l1.94736 0 -0.943886 -3.47731 -1.00347 3.47731zm-4.25729 3.40892l3.40219 -9.88675 3.85859 0 3.17394 9.88675 -3.29519 0 -0.260915 -0.96972 -3.33874 0 -0.28081 0.96972 -3.25906 0z"/>
  <path id="12345" class="fil0" d="M161.58 7.26543c-0.0488968,-0.611507 -0.221025,-1.07702 -0.514505,-1.39643 -0.29348,-0.321689 -0.695641,-0.481445 -1.2047,-0.481445 -0.652188,0 -1.15036,0.230429 -1.49452,0.689108 -0.346039,0.458581 -0.518167,1.12027 -0.518167,1.98507 0,0.860247 0.172129,1.51738 0.518167,1.97141 0.344158,0.454126 0.842331,0.682278 1.49274,0.682278 0.470953,0 0.849557,-0.134615 1.13759,-0.403943 0.288135,-0.269229 0.478278,-0.670797 0.570726,-1.20015l3.50899 0c-0.15936,1.36673 -0.679309,2.40267 -1.56331,3.10089 -0.882221,0.700491 -2.09969,1.0496 -3.654,1.0496 -1.74465,0 -3.05981,-0.438091 -3.94926,-1.31427 -0.887764,-0.873906 -1.3315,-2.16997 -1.3315,-3.88581 0,-1.72039 0.443733,-3.01873 1.3315,-3.89264 0.889446,-0.876183 2.20461,-1.31427 3.94926,-1.31427 1.62864,0 2.88768,0.378802 3.78079,1.13858 0.891228,0.759781 1.36406,1.85046 1.41662,3.27203l-3.47642 0z"/>
  <polygon id="123456" class="fil0" points="166.196,13.0017 166.196,3.11494 169.793,3.11494 172.824,8.81013 172.824,3.11494 175.77,3.11494 175.77,13.0017 172.357,13.0017 169.062,7.21297 169.062,13.0017 "/>
  <polygon id="1234567" class="fil0" points="177.491,13.0017 177.491,3.11494 185.808,3.11494 185.808,5.54038 180.532,5.54038 180.532,6.71776 184.804,6.71776 184.804,9.15696 180.532,9.15696 180.532,10.4553 186.069,10.4553 186.069,13.0017 "/>
  <path id="12345678" class="fil0" d="M186.359 8.76905l3.05258 0 0 0.141444c0,0.595571 0.0760177,1.03822 0.228251,1.32348 0.152134,0.285165 0.38771,0.42661 0.704747,0.42661 0.364053,0 0.617743,-0.136891 0.758989,-0.408397 0.141345,-0.271506 0.212018,-0.823723 0.212018,-1.65655l0 -5.4807 3.0416 0 0 5.09279c0,1.15462 -0.0398895,1.96458 -0.121351,2.43464 -0.0814616,0.467786 -0.221025,0.8648 -0.420275,1.1956 -0.286254,0.476892 -0.706628,0.835106 -1.26092,1.07702 -0.552514,0.239535 -1.23182,0.36049 -2.03436,0.36049 -1.48551,0 -2.55075,-0.31486 -3.19561,-0.946856 -0.643181,-0.629818 -0.965662,-1.66566 -0.965662,-3.10544l0 -0.454126z"/>
  <path id="123456789" class="fil0" d="M195.359 9.99434l3.683 -0.00682971c0.0290015,0.266953 0.161142,0.472339 0.398499,0.618336 0.237357,0.14382 0.559739,0.216769 0.971007,0.216769 0.411267,0 0.717417,-0.0592898 0.92211,-0.177968 0.202912,-0.116402 0.304368,-0.294371 0.304368,-0.529352 0,-0.209939 -0.0887863,-0.378802 -0.26626,-0.506587 -0.175791,-0.125409 -0.449375,-0.219046 -0.817091,-0.276059l-2.27172 -0.35366c-0.940224,-0.143721 -1.64863,-0.460956 -2.12493,-0.956061 -0.476496,-0.495105 -0.713853,-1.15679 -0.713853,-1.98507 0,-1.10671 0.360589,-1.91212 1.07969,-2.42098 0.721079,-0.508764 1.86778,-0.762057 3.44208,-0.762057 1.63577,0 2.85136,0.253293 3.64667,0.762057 0.797097,0.508863 1.22648,1.29834 1.28992,2.37308l-3.53443 0c-0.0398895,-0.312583 -0.18846,-0.547664 -0.447495,-0.705044 -0.257253,-0.157479 -0.619524,-0.237357 -1.08691,-0.237357 -0.340595,0 -0.606954,0.0593888 -0.80264,0.177968 -0.193706,0.116402 -0.291599,0.276158 -0.291599,0.476892 0,0.187075 0.0761167,0.330895 0.226469,0.428985 0.150353,0.0980905 0.461946,0.189351 0.93666,0.273782l2.76979 0.492828c0.867769,0.157479 1.51451,0.474616 1.94389,0.953784 0.427599,0.479169 0.6413,1.12492 0.6413,1.93489 0,1.21163 -0.427599,2.10157 -1.28438,2.66735 -0.85698,0.565876 -2.20659,0.848864 -4.05081,0.848864 -1.46374,0 -2.58866,-0.285264 -3.3713,-0.855694 -0.784427,-0.570429 -1.18114,-1.38722 -1.19203,-2.45286zm3.40219 -7.8902l-1.67209 -2.0992 2.68655 0 0.539844 0.97655 0.541725 -0.97655 2.68655 0 -1.72465 2.0992 -3.05793 0z"/>
  <polygon id="12345678910" class="fil0" points="206.489,13.0017 206.489,3.11494 209.531,3.11494 209.531,13.0017 "/>
  <polygon id="1234567891011" class="fil0" points="211.239,13.0017 211.239,3.11494 219.556,3.11494 219.556,5.54038 214.281,5.54038 214.281,6.71776 218.552,6.71776 218.552,9.15696 214.281,9.15696 214.281,10.4553 219.817,10.4553 219.817,13.0017 "/>
  <polygon id="123456789101112" class="fil1 str1" points="106.1,13.0017 106.1,3.11494 109.697,3.11494 112.728,8.81013 112.728,3.11494 115.674,3.11494 115.674,13.0017 112.261,13.0017 108.966,7.21297 108.966,13.0017 "/>
  <path id="12345678910111213" class="fil1 str1" d="M120.478 9.59278l1.94736 0 -0.943886 -3.47731 -1.00347 3.47731zm-4.25729 3.40892l3.40219 -9.88675 3.85859 0 3.17394 9.88675 -3.29519 0 -0.260915 -0.96972 -3.33874 0 -0.28081 0.96972 -3.25906 0z"/>
  <path id="1234567891011121314" class="fil1 str1" d="M126.523 8.76905l3.05258 0 0 0.141444c0,0.595571 0.0760177,1.03822 0.228251,1.32348 0.152134,0.285165 0.38771,0.42661 0.704747,0.42661 0.364053,0 0.617743,-0.136891 0.758989,-0.408397 0.141345,-0.271506 0.212018,-0.823723 0.212018,-1.65655l0 -5.4807 3.0416 0 0 5.09279c0,1.15462 -0.0398895,1.96458 -0.121351,2.43464 -0.0814616,0.467786 -0.221025,0.8648 -0.420275,1.1956 -0.286254,0.476892 -0.706628,0.835106 -1.26092,1.07702 -0.552514,0.239535 -1.23182,0.36049 -2.03436,0.36049 -1.48551,0 -2.55075,-0.31486 -3.19561,-0.946856 -0.643181,-0.629818 -0.965662,-1.66566 -0.965662,-3.10544l0 -0.454126z"/>
  <polygon id="123456789101112131415" class="fil1 str1" points="136.013,13.0017 136.013,3.11494 139.054,3.11494 139.054,10.2887 143.848,10.2887 143.848,13.0017 "/>
  <path id="12345678910111213141516" class="fil1 str1" d="M148.495 9.59278l1.94736 0 -0.943886 -3.47731 -1.00347 3.47731zm-4.25729 3.40892l3.40219 -9.88675 3.85859 0 3.17394 9.88675 -3.29519 0 -0.260915 -0.96972 -3.33874 0 -0.28081 0.96972 -3.25906 0z"/>
  <path id="1234567891011121314151617" class="fil1 str1" d="M161.58 7.26543c-0.0488968,-0.611507 -0.221025,-1.07702 -0.514505,-1.39643 -0.29348,-0.321689 -0.695641,-0.481445 -1.2047,-0.481445 -0.652188,0 -1.15036,0.230429 -1.49452,0.689108 -0.346039,0.458581 -0.518167,1.12027 -0.518167,1.98507 0,0.860247 0.172129,1.51738 0.518167,1.97141 0.344158,0.454126 0.842331,0.682278 1.49274,0.682278 0.470953,0 0.849557,-0.134615 1.13759,-0.403943 0.288135,-0.269229 0.478278,-0.670797 0.570726,-1.20015l3.50899 0c-0.15936,1.36673 -0.679309,2.40267 -1.56331,3.10089 -0.882221,0.700491 -2.09969,1.0496 -3.654,1.0496 -1.74465,0 -3.05981,-0.438091 -3.94926,-1.31427 -0.887764,-0.873906 -1.3315,-2.16997 -1.3315,-3.88581 0,-1.72039 0.443733,-3.01873 1.3315,-3.89264 0.889446,-0.876183 2.20461,-1.31427 3.94926,-1.31427 1.62864,0 2.88768,0.378802 3.78079,1.13858 0.891228,0.759781 1.36406,1.85046 1.41662,3.27203l-3.47642 0z"/>
  <polygon id="123456789101112131415161718" class="fil1 str1" points="166.196,13.0017 166.196,3.11494 169.793,3.11494 172.824,8.81013 172.824,3.11494 175.77,3.11494 175.77,13.0017 172.357,13.0017 169.062,7.21297 169.062,13.0017 "/>
  <polygon id="12345678910111213141516171819" class="fil1 str1" points="177.491,13.0017 177.491,3.11494 185.808,3.11494 185.808,5.54038 180.532,5.54038 180.532,6.71776 184.804,6.71776 184.804,9.15696 180.532,9.15696 180.532,10.4553 186.069,10.4553 186.069,13.0017 "/>
  <path id="1234567891011121314151617181920" class="fil1 str1" d="M186.359 8.76905l3.05258 0 0 0.141444c0,0.595571 0.0760177,1.03822 0.228251,1.32348 0.152134,0.285165 0.38771,0.42661 0.704747,0.42661 0.364053,0 0.617743,-0.136891 0.758989,-0.408397 0.141345,-0.271506 0.212018,-0.823723 0.212018,-1.65655l0 -5.4807 3.0416 0 0 5.09279c0,1.15462 -0.0398895,1.96458 -0.121351,2.43464 -0.0814616,0.467786 -0.221025,0.8648 -0.420275,1.1956 -0.286254,0.476892 -0.706628,0.835106 -1.26092,1.07702 -0.552514,0.239535 -1.23182,0.36049 -2.03436,0.36049 -1.48551,0 -2.55075,-0.31486 -3.19561,-0.946856 -0.643181,-0.629818 -0.965662,-1.66566 -0.965662,-3.10544l0 -0.454126z"/>
  <path id="123456789101112131415161718192021" class="fil1 str1" d="M195.359 9.99434l3.683 -0.00682971c0.0290015,0.266953 0.161142,0.472339 0.398499,0.618336 0.237357,0.14382 0.559739,0.216769 0.971007,0.216769 0.411267,0 0.717417,-0.0592898 0.92211,-0.177968 0.202912,-0.116402 0.304368,-0.294371 0.304368,-0.529352 0,-0.209939 -0.0887863,-0.378802 -0.26626,-0.506587 -0.175791,-0.125409 -0.449375,-0.219046 -0.817091,-0.276059l-2.27172 -0.35366c-0.940224,-0.143721 -1.64863,-0.460956 -2.12493,-0.956061 -0.476496,-0.495105 -0.713853,-1.15679 -0.713853,-1.98507 0,-1.10671 0.360589,-1.91212 1.07969,-2.42098 0.721079,-0.508764 1.86778,-0.762057 3.44208,-0.762057 1.63577,0 2.85136,0.253293 3.64667,0.762057 0.797097,0.508863 1.22648,1.29834 1.28992,2.37308l-3.53443 0c-0.0398895,-0.312583 -0.18846,-0.547664 -0.447495,-0.705044 -0.257253,-0.157479 -0.619524,-0.237357 -1.08691,-0.237357 -0.340595,0 -0.606954,0.0593888 -0.80264,0.177968 -0.193706,0.116402 -0.291599,0.276158 -0.291599,0.476892 0,0.187075 0.0761167,0.330895 0.226469,0.428985 0.150353,0.0980905 0.461946,0.189351 0.93666,0.273782l2.76979 0.492828c0.867769,0.157479 1.51451,0.474616 1.94389,0.953784 0.427599,0.479169 0.6413,1.12492 0.6413,1.93489 0,1.21163 -0.427599,2.10157 -1.28438,2.66735 -0.85698,0.565876 -2.20659,0.848864 -4.05081,0.848864 -1.46374,0 -2.58866,-0.285264 -3.3713,-0.855694 -0.784427,-0.570429 -1.18114,-1.38722 -1.19203,-2.45286zm3.40219 -7.8902l-1.67209 -2.0992 2.68655 0 0.539844 0.97655 0.541725 -0.97655 2.68655 0 -1.72465 2.0992 -3.05793 0z"/>
  <polygon id="12345678910111213141516171819202122" class="fil1 str1" points="206.489,13.0017 206.489,3.11494 209.531,3.11494 209.531,13.0017 "/>
  <polygon id="1234567891011121314151617181920212223" class="fil1 str1" points="211.239,13.0017 211.239,3.11494 219.556,3.11494 219.556,5.54038 214.281,5.54038 214.281,6.71776 218.552,6.71776 218.552,9.15696 214.281,9.15696 214.281,10.4553 219.817,10.4553 219.817,13.0017 "/>
  <polygon class="fil0" points="2.49967,47.8512 2.49967,19.1589 11.3269,19.1589 11.3269,29.0916 19.4444,19.1589 31.3682,19.1589 21.8628,29.5353 32.304,47.8512 21.3213,47.8512 15.1806,36.21 11.3269,40.1501 11.3269,47.8512 "/>
  <path id="1" class="fil0" d="M50.6576 19.1589c1.9821,0 3.56976,0.119174 4.76328,0.357521 1.18817,0.238446 2.1187,0.60923 2.78642,1.11908 0.851635,0.629125 1.50363,1.48333 1.95043,2.54946 0.447,1.06613 0.667728,2.29775 0.667728,3.69497 0,1.69515 -0.331192,3.18502 -0.99892,4.4697 -0.667629,1.29121 -1.58766,2.21827 -2.76009,2.78781 1.00417,0.529748 1.71386,1.1853 2.1187,1.96666 0.404834,0.781359 0.641399,2.16532 0.715041,4.14524 0.010492,0.218551 0.021083,0.523116 0.0314761,0.907164 0.142038,3.75466 0.541527,5.83386 1.20401,6.25107l0 0.443634 -9.81034 0c-0.299716,-0.60923 -0.462639,-1.78127 -0.494214,-3.52948 -0.020984,-1.01971 -0.0578051,-1.8077 -0.110364,-2.36397 -0.0946262,-1.05286 -0.373358,-1.7879 -0.841242,-2.21164 -0.462639,-0.43047 -1.24598,-0.64229 -2.34477,-0.64229l-5.26789 0 0 8.74738 -8.94821 0 0 -28.6923 17.339 0zm-8.39075 12.396l5.14168 0c1.34595,0 2.29755,-0.198656 2.84423,-0.602598 0.552118,-0.397311 0.825405,-1.07276 0.825405,-2.01298 0,-0.933691 -0.257549,-1.58261 -0.778092,-1.9535 -0.520444,-0.364152 -1.55609,-0.549643 -3.10702,-0.549643l-4.9262 0 0 5.11872z"/>
  <path id="12" class="fil0" d="M64.5844 47.8512l0 -28.6923 8.82726 0 0 28.6923 -8.82726 0zm0.410179 -31.6258l2.89679 -6.0921 9.26881 0 -4.66855 6.0921 -7.49704 0z"/>
  <path id="123" class="fil0" d="M76.6555 47.8512l0 -6.36361 13.3538 -15.1308 -12.5704 0 0 -7.19792 24.5521 0 0 6.51584 -13.275 14.6276 12.8281 0 0 7.54891 -24.8886 0zm8.17002 -31.6258l-4.85256 -6.0921 7.79676 0 1.56668 2.83423 1.57192 -2.83423 7.79676 0 -5.00499 6.0921 -8.87457 0z"/>
  <path id="1234" class="fil0" d="M113.442 33.515c0,2.49641 0.499361,4.40348 1.50363,5.72132 0.99892,1.31774 2.44464,1.97992 4.33202,1.97992 1.88748,0 3.3333,-0.662185 4.33212,-1.97992 1.00417,-1.31784 1.50363,-3.22491 1.50363,-5.72132 0,-2.50967 -0.49946,-4.43001 -1.50363,-5.76091 -0.998821,-1.331 -2.44464,-1.99982 -4.33212,-1.99982 -1.88738,0 -3.3331,0.668817 -4.33202,1.99982 -1.00426,1.3309 -1.50363,3.25124 -1.50363,5.76091zm-9.48964 0c0,-4.99282 1.28804,-8.76064 3.86413,-11.2968 2.58143,-2.54273 6.39835,-3.81415 11.4611,-3.81415 5.06299,0 8.87981,1.27142 11.4611,3.81415 2.57619,2.5362 3.86423,6.30402 3.86423,11.2968 0,4.97965 -1.28804,8.74084 -3.86423,11.2769 -2.58133,2.54283 -6.39815,3.81425 -11.4611,3.81425 -5.0628,0 -8.87972,-1.27142 -11.4611,-3.81425 -2.57609,-2.5361 -3.86413,-6.29729 -3.86413,-11.2769z"/>
  <polygon id="12345" class="fil0" points="143.887,47.8512 133.83,19.1589 143.798,19.1589 148.619,38.3622 153.698,19.1589 163.571,19.1589 153.098,47.8512 "/>
  <polygon id="123456" class="fil0" points="164.685,47.8512 164.685,19.1589 173.513,19.1589 173.513,29.0916 181.63,19.1589 193.554,19.1589 184.049,29.5353 194.49,47.8512 183.507,47.8512 177.366,36.21 173.513,40.1501 173.513,47.8512 "/>
  <polygon id="1234567" class="fil0" points="201.098,47.8512 201.098,39.7395 191.104,19.1589 201.482,19.1589 205.583,30.9723 209.941,19.1589 220.094,19.1589 209.941,39.7395 209.941,47.8512 "/>
  <polygon id="12345678" class="fil1 str1" points="2.49967,47.8512 2.49967,19.1589 11.3269,19.1589 11.3269,29.0916 19.4444,19.1589 31.3682,19.1589 21.8628,29.5353 32.304,47.8512 21.3213,47.8512 15.1806,36.21 11.3269,40.1501 11.3269,47.8512 "/>
  <path id="123456789" class="fil1 str1" d="M50.6576 19.1589c1.9821,0 3.56976,0.119174 4.76328,0.357521 1.18817,0.238446 2.1187,0.60923 2.78642,1.11908 0.851635,0.629125 1.50363,1.48333 1.95043,2.54946 0.447,1.06613 0.667728,2.29775 0.667728,3.69497 0,1.69515 -0.331192,3.18502 -0.99892,4.4697 -0.667629,1.29121 -1.58766,2.21827 -2.76009,2.78781 1.00417,0.529748 1.71386,1.1853 2.1187,1.96666 0.404834,0.781359 0.641399,2.16532 0.715041,4.14524 0.010492,0.218551 0.021083,0.523116 0.0314761,0.907164 0.142038,3.75466 0.541527,5.83386 1.20401,6.25107l0 0.443634 -9.81034 0c-0.299716,-0.60923 -0.462639,-1.78127 -0.494214,-3.52948 -0.020984,-1.01971 -0.0578051,-1.8077 -0.110364,-2.36397 -0.0946262,-1.05286 -0.373358,-1.7879 -0.841242,-2.21164 -0.462639,-0.43047 -1.24598,-0.64229 -2.34477,-0.64229l-5.26789 0 0 8.74738 -8.94821 0 0 -28.6923 17.339 0zm-8.39075 12.396l5.14168 0c1.34595,0 2.29755,-0.198656 2.84423,-0.602598 0.552118,-0.397311 0.825405,-1.07276 0.825405,-2.01298 0,-0.933691 -0.257549,-1.58261 -0.778092,-1.9535 -0.520444,-0.364152 -1.55609,-0.549643 -3.10702,-0.549643l-4.9262 0 0 5.11872z"/>
  <path id="12345678910" class="fil1 str1" d="M64.5844 47.8512l0 -28.6923 8.82726 0 0 28.6923 -8.82726 0zm0.410179 -31.6258l2.89679 -6.0921 9.26881 0 -4.66855 6.0921 -7.49704 0z"/>
  <path id="1234567891011" class="fil1 str1" d="M76.6555 47.8512l0 -6.36361 13.3538 -15.1308 -12.5704 0 0 -7.19792 24.5521 0 0 6.51584 -13.275 14.6276 12.8281 0 0 7.54891 -24.8886 0zm8.17002 -31.6258l-4.85256 -6.0921 7.79676 0 1.56668 2.83423 1.57192 -2.83423 7.79676 0 -5.00499 6.0921 -8.87457 0z"/>
  <path id="123456789101112" class="fil1 str1" d="M113.442 33.515c0,2.49641 0.499361,4.40348 1.50363,5.72132 0.99892,1.31774 2.44464,1.97992 4.33202,1.97992 1.88748,0 3.3333,-0.662185 4.33212,-1.97992 1.00417,-1.31784 1.50363,-3.22491 1.50363,-5.72132 0,-2.50967 -0.49946,-4.43001 -1.50363,-5.76091 -0.998821,-1.331 -2.44464,-1.99982 -4.33212,-1.99982 -1.88738,0 -3.3331,0.668817 -4.33202,1.99982 -1.00426,1.3309 -1.50363,3.25124 -1.50363,5.76091zm-9.48964 0c0,-4.99282 1.28804,-8.76064 3.86413,-11.2968 2.58143,-2.54273 6.39835,-3.81415 11.4611,-3.81415 5.06299,0 8.87981,1.27142 11.4611,3.81415 2.57619,2.5362 3.86423,6.30402 3.86423,11.2968 0,4.97965 -1.28804,8.74084 -3.86423,11.2769 -2.58133,2.54283 -6.39815,3.81425 -11.4611,3.81425 -5.0628,0 -8.87972,-1.27142 -11.4611,-3.81425 -2.57609,-2.5361 -3.86413,-6.29729 -3.86413,-11.2769z"/>
  <polygon id="12345678910111213" class="fil1 str1" points="143.887,47.8512 133.83,19.1589 143.798,19.1589 148.619,38.3622 153.698,19.1589 163.571,19.1589 153.098,47.8512 "/>
  <polygon id="1234567891011121314" class="fil1 str1" points="164.685,47.8512 164.685,19.1589 173.513,19.1589 173.513,29.0916 181.63,19.1589 193.554,19.1589 184.049,29.5353 194.49,47.8512 183.507,47.8512 177.366,36.21 173.513,40.1501 173.513,47.8512 "/>
  <polygon id="123456789101112131415" class="fil1 str1" points="201.098,47.8512 201.098,39.7395 191.104,19.1589 201.482,19.1589 205.583,30.9723 209.941,19.1589 220.094,19.1589 209.941,39.7395 209.941,47.8512 "/>
  <path class="fil0" d="M59.5256 63.9785l2.90312 0c0.66654,0 1.09879,-0.0769085 1.29646,-0.233695 0.197864,-0.156885 0.297934,-0.439774 0.297934,-0.848864 0,-0.418196 -0.102545,-0.710389 -0.307634,-0.867176 -0.205089,-0.159954 -0.634866,-0.239931 -1.28676,-0.239931l-2.90312 0 0 2.18967zm0 -6.88257l0 1.88213 2.75178 0c0.595769,0 0.981499,-0.0677032 1.15976,-0.203011 0.175791,-0.135307 0.263686,-0.378208 0.263686,-0.734936 0,-0.359797 -0.0805708,-0.605865 -0.244088,-0.741172 -0.161241,-0.135307 -0.554296,-0.203011 -1.17936,-0.203011l-2.75178 0zm4.41209 -3.11831c1.4771,0 2.52462,0.255273 3.13751,0.768788 0.612793,0.513614 0.918052,1.36545 0.918052,2.5556 0,0.655059 -0.119668,1.22707 -0.356432,1.72218 -0.239337,0.492036 -0.590919,0.891822 -1.05237,1.19629 0.610319,0.245969 1.06939,0.648922 1.3795,1.20243 0.310109,0.556671 0.466301,1.24855 0.466301,2.07891 0,1.26706 -0.329608,2.21728 -0.986349,2.85086 -0.659315,0.633481 -1.64814,0.950221 -2.96904,0.950221l-9.04878 0 0 -13.3253 8.5116 0z"/>
  <polygon id="1" class="fil0" points="70.1761,67.3029 70.1761,53.9776 81.3857,53.9776 81.3857,57.2467 74.2756,57.2467 74.2756,58.8335 80.033,58.8335 80.033,62.121 74.2756,62.121 74.2756,63.8708 81.7373,63.8708 81.7373,67.3029 "/>
  <polygon id="12" class="fil0" points="82.2548,67.3029 82.2548,64.3475 88.4567,57.3204 82.6186,57.3204 82.6186,53.9776 94.0211,53.9776 94.0211,57.0037 87.8559,63.797 93.8135,63.797 93.8135,67.3029 "/>
  <path id="123" class="fil0" d="M106.342 60.6449c0,1.15937 0.232012,2.04505 0.698313,2.65706 0.463926,0.611903 1.13532,0.919438 2.01189,0.919438 0.876579,0 1.54797,-0.307535 2.01189,-0.919438 0.4664,-0.612002 0.698313,-1.49769 0.698313,-2.65706 0,-1.1656 -0.231913,-2.05743 -0.698313,-2.67556 -0.463926,-0.618138 -1.13532,-0.928742 -2.01189,-0.928742 -0.876579,0 -1.54797,0.310603 -2.01189,0.928742 -0.466301,0.618138 -0.698313,1.50996 -0.698313,2.67556zm-4.40714 0c0,-2.31884 0.598243,-4.06863 1.79463,-5.24651 1.19886,-1.18095 2.97142,-1.77137 5.32272,-1.77137 2.3513,0 4.12396,0.590424 5.32282,1.77137 1.19639,1.17788 1.79463,2.92767 1.79463,5.24651 0,2.3126 -0.598243,4.05932 -1.79463,5.2372 -1.19886,1.18095 -2.97152,1.77137 -5.32282,1.77137 -2.3513,0 -4.12386,-0.590424 -5.32272,-1.77137 -1.19639,-1.17788 -1.79463,-2.9246 -1.79463,-5.2372z"/>
  <polygon id="1234" class="fil0" points="117.871,67.3029 117.871,53.9776 121.971,53.9776 121.971,58.5905 125.74,53.9776 131.278,53.9776 126.864,58.7966 131.713,67.3029 126.612,67.3029 123.76,61.8965 121.971,63.7263 121.971,67.3029 "/>
  <path id="12345" class="fil0" d="M136.283 53.9776l0 6.51347c0,1.33773 0.161142,2.26954 0.483425,2.78929 0.319908,0.519751 0.876579,0.778092 1.66774,0.778092 0.79096,0 1.34526,-0.258341 1.66269,-0.775024 0.317433,-0.516683 0.476199,-1.44849 0.476199,-2.79236l0 -6.51347 4.10683 0 0 6.99937c0,2.3126 -0.500648,4.00716 -1.49927,5.08348 -0.998524,1.07325 -2.58074,1.61142 -4.74645,1.61142 -2.14869,0 -3.72843,-0.54123 -4.73685,-1.62062 -1.00842,-1.08256 -1.51382,-2.77395 -1.51382,-5.07428l0 -6.99937 4.09951 0z"/>
  <polygon id="123456" class="fil0" points="146.997,67.3029 146.997,53.9776 151.097,53.9776 151.097,63.6463 157.558,63.6463 157.558,67.3029 "/>
  <polygon id="1234567" class="fil0" points="158.849,67.3029 158.849,53.9776 162.949,53.9776 162.949,67.3029 "/>
  <path id="12345678" class="fil0" d="M169.407 62.7083l2.62479 0 -1.27201 -4.68677 -1.35278 4.68677zm-5.73775 4.59452l4.58531 -13.3253 5.20078 0 4.27768 13.3253 -4.44129 0 -0.351582 -1.30705 -4.49999 0 -0.378406 1.30705 -4.3925 0z"/>
  <path id="123456789" class="fil0" d="M186.53 53.9776c0.920526,0 1.65784,0.0553306 2.21213,0.166091 0.551821,0.110661 0.983974,0.282889 1.29408,0.519652 0.395529,0.292193 0.698313,0.68891 0.905877,1.18401 0.207564,0.495105 0.310109,1.06712 0.310109,1.71604 0,0.787298 -0.153916,1.47918 -0.464025,2.07584 -0.31001,0.599629 -0.737312,1.0302 -1.28181,1.29468 0.4664,0.246068 0.796008,0.550534 0.983974,0.9134 0.187966,0.362866 0.297835,1.00555 0.332082,1.92509 0.00494907,0.101555 0.00979915,0.242999 0.0146492,0.421364 0.0659216,1.74366 0.251512,2.70932 0.559146,2.90302l0 0.206079 -4.55611 0c-0.139168,-0.282889 -0.214888,-0.827286 -0.229439,-1.63913 -0.00989813,-0.473626 -0.0269229,-0.83956 -0.0513713,-1.0979 -0.0439477,-0.488968 -0.173316,-0.830354 -0.390679,-1.02713 -0.21479,-0.199942 -0.578645,-0.29833 -1.08889,-0.29833l-2.44662 0 0 4.06249 -4.15563 0 0 -13.3253 8.05253 0zm-3.8969 5.75695l2.38792 0c0.625067,0 1.06712,-0.0922506 1.321,-0.27982 0.256362,-0.1846 0.383355,-0.498272 0.383355,-0.934879 0,-0.433637 -0.119668,-0.735035 -0.361381,-0.907263 -0.241712,-0.169159 -0.722762,-0.255273 -1.44305,-0.255273l-2.28785 0 0 2.37723z"/>
  <path id="12345678910" class="fil0" d="M196.79 60.6449c0,1.15937 0.232012,2.04505 0.698313,2.65706 0.463926,0.611903 1.13532,0.919438 2.01189,0.919438 0.876579,0 1.54797,-0.307535 2.01189,-0.919438 0.4664,-0.612002 0.698313,-1.49769 0.698313,-2.65706 0,-1.1656 -0.231913,-2.05743 -0.698313,-2.67556 -0.463926,-0.618138 -1.13532,-0.928742 -2.01189,-0.928742 -0.876579,0 -1.54797,0.310603 -2.01189,0.928742 -0.466301,0.618138 -0.698313,1.50996 -0.698313,2.67556zm-4.40714 0c0,-2.31884 0.598243,-4.06863 1.79463,-5.24651 1.19886,-1.18095 2.97142,-1.77137 5.32272,-1.77137 2.3513,0 4.12396,0.590424 5.32282,1.77137 1.19639,1.17788 1.79463,2.92767 1.79463,5.24651 0,2.3126 -0.598243,4.05932 -1.79463,5.2372 -1.19886,1.18095 -2.97152,1.77137 -5.32282,1.77137 -2.3513,0 -4.12386,-0.590424 -5.32272,-1.77137 -1.19639,-1.17788 -1.79463,-2.9246 -1.79463,-5.2372z"/>
  <polygon id="1234567891011" class="fil0" points="210.929,67.3029 206.259,53.9776 210.888,53.9776 213.127,62.8959 215.485,53.9776 220.071,53.9776 215.207,67.3029 "/>
  <path id="123456789101112" class="fil1 str0" d="M59.5256 63.9785l2.90312 0c0.66654,0 1.09879,-0.0769085 1.29646,-0.233695 0.197864,-0.156885 0.297934,-0.439774 0.297934,-0.848864 0,-0.418196 -0.102545,-0.710389 -0.307634,-0.867176 -0.205089,-0.159954 -0.634866,-0.239931 -1.28676,-0.239931l-2.90312 0 0 2.18967zm0 -6.88257l0 1.88213 2.75178 0c0.595769,0 0.981499,-0.0677032 1.15976,-0.203011 0.175791,-0.135307 0.263686,-0.378208 0.263686,-0.734936 0,-0.359797 -0.0805708,-0.605865 -0.244088,-0.741172 -0.161241,-0.135307 -0.554296,-0.203011 -1.17936,-0.203011l-2.75178 0zm4.41209 -3.11831c1.4771,0 2.52462,0.255273 3.13751,0.768788 0.612793,0.513614 0.918052,1.36545 0.918052,2.5556 0,0.655059 -0.119668,1.22707 -0.356432,1.72218 -0.239337,0.492036 -0.590919,0.891822 -1.05237,1.19629 0.610319,0.245969 1.06939,0.648922 1.3795,1.20243 0.310109,0.556671 0.466301,1.24855 0.466301,2.07891 0,1.26706 -0.329608,2.21728 -0.986349,2.85086 -0.659315,0.633481 -1.64814,0.950221 -2.96904,0.950221l-9.04878 0 0 -13.3253 8.5116 0z"/>
  <polygon id="12345678910111213" class="fil1 str0" points="70.1761,67.3029 70.1761,53.9776 81.3857,53.9776 81.3857,57.2467 74.2756,57.2467 74.2756,58.8335 80.033,58.8335 80.033,62.121 74.2756,62.121 74.2756,63.8708 81.7373,63.8708 81.7373,67.3029 "/>
  <polygon id="1234567891011121314" class="fil1 str0" points="82.2548,67.3029 82.2548,64.3475 88.4567,57.3204 82.6186,57.3204 82.6186,53.9776 94.0211,53.9776 94.0211,57.0037 87.8559,63.797 93.8135,63.797 93.8135,67.3029 "/>
  <path id="123456789101112131415" class="fil1 str0" d="M106.342 60.6449c0,1.15937 0.232012,2.04505 0.698313,2.65706 0.463926,0.611903 1.13532,0.919438 2.01189,0.919438 0.876579,0 1.54797,-0.307535 2.01189,-0.919438 0.4664,-0.612002 0.698313,-1.49769 0.698313,-2.65706 0,-1.1656 -0.231913,-2.05743 -0.698313,-2.67556 -0.463926,-0.618138 -1.13532,-0.928742 -2.01189,-0.928742 -0.876579,0 -1.54797,0.310603 -2.01189,0.928742 -0.466301,0.618138 -0.698313,1.50996 -0.698313,2.67556zm-4.40714 0c0,-2.31884 0.598243,-4.06863 1.79463,-5.24651 1.19886,-1.18095 2.97142,-1.77137 5.32272,-1.77137 2.3513,0 4.12396,0.590424 5.32282,1.77137 1.19639,1.17788 1.79463,2.92767 1.79463,5.24651 0,2.3126 -0.598243,4.05932 -1.79463,5.2372 -1.19886,1.18095 -2.97152,1.77137 -5.32282,1.77137 -2.3513,0 -4.12386,-0.590424 -5.32272,-1.77137 -1.19639,-1.17788 -1.79463,-2.9246 -1.79463,-5.2372z"/>
  <polygon id="12345678910111213141516" class="fil1 str0" points="117.871,67.3029 117.871,53.9776 121.971,53.9776 121.971,58.5905 125.74,53.9776 131.278,53.9776 126.864,58.7966 131.713,67.3029 126.612,67.3029 123.76,61.8965 121.971,63.7263 121.971,67.3029 "/>
  <path id="1234567891011121314151617" class="fil1 str0" d="M136.283 53.9776l0 6.51347c0,1.33773 0.161142,2.26954 0.483425,2.78929 0.319908,0.519751 0.876579,0.778092 1.66774,0.778092 0.79096,0 1.34526,-0.258341 1.66269,-0.775024 0.317433,-0.516683 0.476199,-1.44849 0.476199,-2.79236l0 -6.51347 4.10683 0 0 6.99937c0,2.3126 -0.500648,4.00716 -1.49927,5.08348 -0.998524,1.07325 -2.58074,1.61142 -4.74645,1.61142 -2.14869,0 -3.72843,-0.54123 -4.73685,-1.62062 -1.00842,-1.08256 -1.51382,-2.77395 -1.51382,-5.07428l0 -6.99937 4.09951 0z"/>
  <polygon id="123456789101112131415161718" class="fil1 str0" points="146.997,67.3029 146.997,53.9776 151.097,53.9776 151.097,63.6463 157.558,63.6463 157.558,67.3029 "/>
  <polygon id="12345678910111213141516171819" class="fil1 str0" points="158.849,67.3029 158.849,53.9776 162.949,53.9776 162.949,67.3029 "/>
  <path id="1234567891011121314151617181920" class="fil1 str0" d="M169.407 62.7083l2.62479 0 -1.27201 -4.68677 -1.35278 4.68677zm-5.73775 4.59452l4.58531 -13.3253 5.20078 0 4.27768 13.3253 -4.44129 0 -0.351582 -1.30705 -4.49999 0 -0.378406 1.30705 -4.3925 0z"/>
  <path id="123456789101112131415161718192021" class="fil1 str0" d="M186.53 53.9776c0.920526,0 1.65784,0.0553306 2.21213,0.166091 0.551821,0.110661 0.983974,0.282889 1.29408,0.519652 0.395529,0.292193 0.698313,0.68891 0.905877,1.18401 0.207564,0.495105 0.310109,1.06712 0.310109,1.71604 0,0.787298 -0.153916,1.47918 -0.464025,2.07584 -0.31001,0.599629 -0.737312,1.0302 -1.28181,1.29468 0.4664,0.246068 0.796008,0.550534 0.983974,0.9134 0.187966,0.362866 0.297835,1.00555 0.332082,1.92509 0.00494907,0.101555 0.00979915,0.242999 0.0146492,0.421364 0.0659216,1.74366 0.251512,2.70932 0.559146,2.90302l0 0.206079 -4.55611 0c-0.139168,-0.282889 -0.214888,-0.827286 -0.229439,-1.63913 -0.00989813,-0.473626 -0.0269229,-0.83956 -0.0513713,-1.0979 -0.0439477,-0.488968 -0.173316,-0.830354 -0.390679,-1.02713 -0.21479,-0.199942 -0.578645,-0.29833 -1.08889,-0.29833l-2.44662 0 0 4.06249 -4.15563 0 0 -13.3253 8.05253 0zm-3.8969 5.75695l2.38792 0c0.625067,0 1.06712,-0.0922506 1.321,-0.27982 0.256362,-0.1846 0.383355,-0.498272 0.383355,-0.934879 0,-0.433637 -0.119668,-0.735035 -0.361381,-0.907263 -0.241712,-0.169159 -0.722762,-0.255273 -1.44305,-0.255273l-2.28785 0 0 2.37723z"/>
  <path id="12345678910111213141516171819202122" class="fil1 str0" d="M196.79 60.6449c0,1.15937 0.232012,2.04505 0.698313,2.65706 0.463926,0.611903 1.13532,0.919438 2.01189,0.919438 0.876579,0 1.54797,-0.307535 2.01189,-0.919438 0.4664,-0.612002 0.698313,-1.49769 0.698313,-2.65706 0,-1.1656 -0.231913,-2.05743 -0.698313,-2.67556 -0.463926,-0.618138 -1.13532,-0.928742 -2.01189,-0.928742 -0.876579,0 -1.54797,0.310603 -2.01189,0.928742 -0.466301,0.618138 -0.698313,1.50996 -0.698313,2.67556zm-4.40714 0c0,-2.31884 0.598243,-4.06863 1.79463,-5.24651 1.19886,-1.18095 2.97142,-1.77137 5.32272,-1.77137 2.3513,0 4.12396,0.590424 5.32282,1.77137 1.19639,1.17788 1.79463,2.92767 1.79463,5.24651 0,2.3126 -0.598243,4.05932 -1.79463,5.2372 -1.19886,1.18095 -2.97152,1.77137 -5.32282,1.77137 -2.3513,0 -4.12386,-0.590424 -5.32272,-1.77137 -1.19639,-1.17788 -1.79463,-2.9246 -1.79463,-5.2372z"/>
  <polygon id="1234567891011121314151617181920212223" class="fil1 str0" points="210.929,67.3029 206.259,53.9776 210.888,53.9776 213.127,62.8959 215.485,53.9776 220.071,53.9776 215.207,67.3029 "/>
  <ellipse class="fil2 str2" cx="119.348" cy="33.1453" rx="8.1527" ry="10.6717"/>
 </g>
</svg>
