<?xml version="1.0" encoding="utf-8"?>
<!-- Generator: Adobe Illustrator 16.0.0, SVG Export Plug-In . SVG Version: 6.00 Build 0)  -->
<!DOCTYPE svg PUBLIC "-//W3C//DTD SVG 1.1//EN" "http://www.w3.org/Graphics/SVG/1.1/DTD/svg11.dtd" [
	<!ENTITY ns_flows "http://ns.adobe.com/Flows/1.0/">
	<!ENTITY ns_extend "http://ns.adobe.com/Extensibility/1.0/">
	<!ENTITY ns_ai "http://ns.adobe.com/AdobeIllustrator/10.0/">
	<!ENTITY ns_graphs "http://ns.adobe.com/Graphs/1.0/">
]>
<svg version="1.1" id="Vrstva_1" xmlns:x="&ns_extend;" xmlns:i="&ns_ai;" xmlns:graph="&ns_graphs;"
	 xmlns="http://www.w3.org/2000/svg" xmlns:xlink="http://www.w3.org/1999/xlink" xmlns:a="http://ns.adobe.com/AdobeSVGViewerExtensions/3.0/"
	 x="0px" y="0px" width="297.7px" height="59.8px" viewBox="0 0 297.7 59.8" style="enable-background:new 0 0 297.7 59.8;"
	 xml:space="preserve">
<style type="text/css">
<![CDATA[
	.st0{fill:#FFFFFF;}
]]>
</style>
<g>
	<polygon class="st0" points="117.4,13.6 123.8,5.7 117,5.7 113.8,9.8 113.6,9.8 110.4,5.7 103.6,5.7 110.1,13.6 	"/>
	<path class="st0" d="M34.6,15.9h-12l-9.8,14.3c-1,1.5-2,3.1-2.9,4.7H9.7V15.9H0V59h9.7V45l3.7-4.5L23.9,59h11.4l-15-24.8L34.6,15.9
		z"/>
	<path class="st0" d="M154.8,15.2c-12.7,0-21,9.7-21,22.6c0,12.3,7.5,22,20.3,22c12.6,0,21.2-8.6,21.2-22.7
		C175.3,25.1,168,15.2,154.8,15.2z M154.6,52c-6.5,0-10.5-6-10.5-14.4c0-8.4,3.8-14.7,10.4-14.7c6.7,0,10.4,6.7,10.4,14.4
		C164.9,45.7,161.2,52,154.6,52z"/>
	<polygon class="st0" points="109.4,50.7 129.5,21.5 129.5,15.9 98.2,15.9 98.2,24 116.8,24 116.8,24.2 96.3,53.8 96.3,59 129.8,59 
		129.8,51 109.4,51 	"/>
	<path class="st0" d="M202.6,34.3c-1.5,4.9-2.8,10-3.9,15.2h-0.2c-1-5.4-2.4-10.3-3.8-15.4l-5.2-18.2h-10.7L192.6,59H204l14.5-43.1
		h-10.4L202.6,34.3z"/>
	<path class="st0" d="M258.8,15.9h-12l-9.8,14.3c-1,1.5-2,3.1-2.9,4.7H234V15.9h-9.7V59h9.7V45l3.7-4.5L248.2,59h11.4l-15-24.8
		L258.8,15.9z"/>
	<path class="st0" d="M63.8,38.8v-0.2c3.7-1.3,7.6-5.1,7.6-10.6c0-4-1.4-7-4-9c-3.1-2.4-7.6-3.4-14-3.4c-5.2,0-9.9,0.4-13,0.9V59
		h9.7v-17h2.9c4,0.1,5.8,1.5,7,6.9c1.3,5.3,2.3,8.8,3,10h10c-0.8-1.7-2.2-7.3-3.5-12.2C68.5,42.9,66.8,40,63.8,38.8z M54,35h-3.8
		V23.1c0.7-0.1,2-0.3,4.4-0.3c4.5,0.1,7.2,2,7.2,6C61.7,32.6,58.9,35,54,35z"/>
	<rect x="79.6" y="15.9" class="st0" width="9.8" height="43.1"/>
	<path class="st0" d="M286.8,15.9l-4.4,10.4c-1.3,3.1-2.3,5.6-3.3,8.3H279c-1.1-2.8-2-5.1-3.3-8.3l-4.4-10.4h-11.1l13.6,25.5V59h9.7
		v-18l14.2-25.2H286.8z"/>
	<polygon class="st0" points="79.8,13.6 87.6,13.6 95.4,5.7 85.2,5.7 	"/>
	<path class="st0" d="M54.6,6.5c0.1,0,0.1,0.2,0,0.6L53.4,12c-0.4,1.6-0.1,1.9,0.3,1.9c0.7,0,2.1-1.1,2.8-1.9l-0.2-0.4
		c-0.5,0.4-1.1,0.9-1.4,0.9c-0.1,0-0.2-0.2,0-0.6l1.3-5.3c0.2-0.9,0.2-1.5-0.2-1.5c-0.5,0-1.9,0.8-2.9,1.8l0.2,0.4
		C53.8,6.8,54.4,6.5,54.6,6.5z"/>
	<path class="st0" d="M50.2,4.2c0.7-1,1.5-2,2.5-3.1l-0.4-0.3c-0.8,0.6-1.5,1.2-2,1.8c-0.3-0.6-0.8-1.2-1.3-1.8l-0.5,0.3
		c0.6,1.1,1,2.1,1.4,3.1H50.2z"/>
	<path class="st0" d="M60,13.9c0.9,0,2.4-0.4,4-2.2l-0.3-0.4c-1,0.9-2,1.5-2.8,1.5c-1.2,0-1.5-1.1-1.5-2.1c0-0.2,0-0.4,0-0.6
		c1.9-0.5,5.1-1.5,5.1-3.4c0-0.8-0.7-1.5-1.7-1.5c-0.8,0-1.8,0.5-2.6,1.1c-1.5,1.1-2.3,3.2-2.3,4.9C57.9,13.3,59.1,13.9,60,13.9z
		 M61.4,6.1c0.2-0.1,0.5-0.2,0.8-0.2h0c0.5,0,0.9,0.4,0.9,1c0,0.9-0.8,1.8-3.6,2.5C59.9,7.3,60.9,6.4,61.4,6.1z"/>
	<path class="st0" d="M56,3.2c0.6,0,1-0.5,1-1.1c0-0.5-0.3-0.9-0.8-0.9h0c-0.7,0-1,0.7-1,1.1C55.1,2.8,55.5,3.2,56,3.2z"/>
	<path class="st0" d="M47.8,13.9c1.5,0,3.5-1.4,3.5-2.9c0-0.8-0.5-1.4-1.6-2.2c-0.7-0.5-1.3-1-1.3-1.7c0-0.7,0.5-1.1,1-1.1
		c0.7,0,1.1,0.4,1.5,0.9C51.1,7,51.2,7,51.4,6.9c0.3-0.2,0.5-0.5,0.5-0.8c0-0.5-0.7-1.1-1.5-1.1h0c-0.6,0-1.5,0.4-2.1,0.9
		c-0.8,0.7-1,1.3-1,1.9c0,1,0.8,1.7,1.7,2.3c0.9,0.7,1.1,1.1,1.1,1.6c0,0.6-0.5,1.1-1.3,1.1c-0.6,0-1.3-0.4-1.8-1.2
		c-0.1-0.1-0.2-0.2-0.5-0.1c-0.3,0.2-0.6,0.5-0.6,0.8C45.9,13.1,46.9,13.9,47.8,13.9z"/>
	<path class="st0" d="M1.1,13.7l0.1,0.1c0.4-0.1,0.9-0.3,1.4-0.4c0.2-1.1,0.5-2.3,0.7-3.2c1-1.6,3.2-4,4-4c0.3,0,0.4,0.3,0.1,1.4
		c-0.3,1.4-0.7,2.8-1,4.2c-0.4,1.5-0.2,2,0.3,2c0.5,0,1.6-0.6,2.7-1.8l-0.3-0.5c-0.6,0.6-1.1,0.9-1.2,0.9c-0.1,0-0.2-0.2,0-0.7
		c0.3-1.3,0.6-2.7,0.9-4c0.6-2.5,0-2.7-0.4-2.7C8,5.1,7.6,5.2,7.1,5.5C6.3,6,4.9,7.1,3.6,8.8h0L4,7.2c0.3-1.5,0.3-2.1-0.2-2.1
		c-0.5,0-1.6,0.7-2.7,1.8l0.3,0.5c0.5-0.5,1.1-0.9,1.2-0.9c0.1,0,0.2,0.2,0,0.8C2.2,9.3,1.6,11.6,1.1,13.7z"/>
	<path class="st0" d="M20.2,15.3c-0.3,1.5-0.7,2-1.3,2c-0.3,0-0.7-0.2-0.9-0.3c-0.2-0.1-0.3,0-0.4,0.1c-0.2,0.2-0.5,0.5-0.5,0.8
		c0,0.3,0.5,0.6,0.8,0.6c0.3,0,1.1-0.3,2-1.2c1-1,1.8-2.7,2.3-5c0.4-2.1,0.7-3.7,1.1-5.3c0.3-1.3,0.3-2-0.2-2c-0.5,0-1.9,0.8-3,2
		l0.2,0.4c0.5-0.5,1.2-1,1.4-1c0.1,0,0.2,0.2,0,1.1C21.1,11.1,20.7,13.3,20.2,15.3z"/>
	<path class="st0" d="M11.9,13.9c0.5,0,1.1-0.3,1.8-0.9c0.8-0.7,1.7-1.6,2.5-2.6h0.1l-0.4,1.8c-0.3,1.4,0,1.7,0.3,1.7
		c0.5,0,1.8-0.7,2.8-2l-0.2-0.5c-0.6,0.6-1.2,1-1.4,1c-0.1,0-0.2-0.2,0-0.8c0.4-2.4,1-5,1.3-6.2l0-0.1c-0.2,0-0.5-0.1-0.7-0.1
		c-0.4-0.1-0.8-0.2-1.2-0.2h0c-1.2,0-2.6,0.7-3.6,1.5c-1.4,1.2-2.3,3.3-2.3,5.2C10.8,13.2,11.4,13.9,11.9,13.9z M14.4,6.3
		c0.3-0.2,0.9-0.4,1.4-0.4h0c0.5,0,1,0.1,1.2,0.3c-0.1,0.6-0.4,2-0.6,2.7c-0.6,1.3-2.8,3.7-3.6,3.7c-0.3,0-0.5-0.4-0.5-1.2
		C12.4,9.5,13.1,7.3,14.4,6.3z"/>
	<path class="st0" d="M31.9,13.9c0.9,0,2.4-0.4,4-2.2l-0.3-0.4c-1,0.9-2,1.5-2.8,1.5c-1.2,0-1.5-1.1-1.5-2.1c0-0.2,0-0.4,0-0.6
		c1.9-0.5,5.1-1.5,5.1-3.4c0-0.8-0.7-1.5-1.7-1.5c-0.8,0-1.8,0.5-2.6,1.1c-1.5,1.1-2.3,3.2-2.3,4.9C29.7,13.3,31,13.9,31.9,13.9z
		 M33.2,6.1c0.2-0.1,0.5-0.2,0.8-0.2h0c0.5,0,0.9,0.4,0.9,1c0,0.9-0.8,1.8-3.6,2.5C31.7,7.3,32.7,6.4,33.2,6.1z"/>
	<path class="st0" d="M38.9,13.7c0.4,0.2,0.8,0.2,1.1,0.2c1.2-0.3,2.6-1.1,3.6-2.2c1.1-1.2,1.6-2.7,1.6-3.9c0-1.7-0.8-2.6-2.8-2.6
		c-0.5,0-1.2,0.1-1.8,0.2L41,3.8l-0.2-0.1c-0.4,0.3-1.1,0.7-1.4,1.1l-0.2,0.9c-0.7,0.2-1.3,0.6-1.8,0.9l0.1,0.5
		c0.4-0.2,0.9-0.5,1.5-0.7c-0.7,3.3-1.4,6.6-2.1,10c-0.3,1.2-0.5,1.3-1.7,1.6l-0.1,0.5l4.4-0.2l0.1-0.5l-0.5,0
		c-0.9-0.1-1.1-0.2-0.8-1.4L38.9,13.7z M40.5,6c0.4-0.1,0.8-0.1,1.1-0.1h0c1.1,0,2,0.4,2,2.1c0,2.4-1.9,5-3.2,5
		c-0.5,0-1-0.3-1.2-0.7L40.5,6z"/>
	<path class="st0" d="M23,3.2c0.6,0,1-0.5,1-1.1c0-0.5-0.3-0.9-0.8-0.9h0c-0.7,0-1,0.6-1,1.1C22.2,2.8,22.5,3.2,23,3.2z"/>
	<path class="st0" d="M25.7,13.9c0.6,0,2-0.9,2.9-2l-0.3-0.4c-0.5,0.6-1.3,1.1-1.5,1.1c-0.1,0-0.2-0.1-0.1-0.7
		c0.8-3.8,1.6-7.5,2.4-11.2C29.2,0.2,29.1,0,29,0c-0.2,0-1.3,0.5-2.8,0.7l-0.1,0.5h0.5c0.9,0,1,0.1,0.8,1c-0.7,3.1-1.3,6.3-2,9.4
		C25,13.4,25.3,13.9,25.7,13.9z"/>
</g>
</svg>
