<?xml version="1.0" encoding="utf-8"?>
<!-- Generator: Adobe Illustrator 16.0.0, SVG Export Plug-In . SVG Version: 6.00 Build 0)  -->
<!DOCTYPE svg PUBLIC "-//W3C//DTD SVG 1.1//EN" "http://www.w3.org/Graphics/SVG/1.1/DTD/svg11.dtd" [
	<!ENTITY ns_flows "http://ns.adobe.com/Flows/1.0/">
	<!ENTITY ns_extend "http://ns.adobe.com/Extensibility/1.0/">
	<!ENTITY ns_ai "http://ns.adobe.com/AdobeIllustrator/10.0/">
	<!ENTITY ns_graphs "http://ns.adobe.com/Graphs/1.0/">
]>
<svg version="1.1" id="Vrstva_1" xmlns:x="&ns_extend;" xmlns:i="&ns_ai;" xmlns:graph="&ns_graphs;"
	 xmlns="http://www.w3.org/2000/svg" xmlns:xlink="http://www.w3.org/1999/xlink" xmlns:a="http://ns.adobe.com/AdobeSVGViewerExtensions/3.0/"
	 x="0px" y="0px" width="187.6px" height="296.1px" viewBox="0 0 187.6 296.1" style="enable-background:new 0 0 187.6 296.1;"
	 xml:space="preserve">
<style type="text/css">
<![CDATA[
	.st0{fill:#FFFFFF;}
]]>
</style>
<g>
	<path class="st0" d="M181.9,273.4c1.9-2.1,4.7-0.7,4.7-3.2c0-1.7-1.3-2.3-6.1-2.3c-1.5,0-6,0-6,2.3c0,1.5,1.1,1.6,1.1,2.6
		c0,0.9-1.6,3-2.6,3c-1,0-2.5-2.5-2.5-3.3c0-0.8,1.1-1.2,1.1-2.2c0-0.9,0.1-2.4-8-2.4c-9.1,0-8.8,1.8-8.8,2.6c0,1.9,2.5,1.3,4.4,3.5
		l4.4,5.1c1.4,1.8,1.7,2.5,1.7,4.7c0,3.8-0.2,5.6-0.6,6.5c-0.7,1.6-2.9,0.8-2.9,2.9c0,1,1,2.8,8.6,2.8c1.9,0,8,0,8-2.8
		c0-1.8-2.1-1.6-2.6-2.7c-0.3-0.7-0.5-2.3-0.5-5.9c0-2.7,0.1-3.9,1.8-6L181.9,273.4L181.9,273.4z"/>
	<path class="st0" d="M181.9,273.4c1.9-2.1,4.7-0.7,4.7-3.2c0-1.7-1.3-2.3-6.1-2.3c-1.5,0-6,0-6,2.3c0,1.5,1.1,1.6,1.1,2.6
		c0,0.9-1.6,3-2.6,3c-1,0-2.5-2.5-2.5-3.3c0-0.8,1.1-1.2,1.1-2.2c0-0.9,0.1-2.4-8-2.4c-9.1,0-8.8,1.8-8.8,2.6c0,1.9,2.5,1.3,4.4,3.5
		l4.4,5.1c1.4,1.8,1.7,2.5,1.7,4.7c0,3.8-0.2,5.6-0.6,6.5c-0.7,1.6-2.9,0.8-2.9,2.9c0,1,1,2.8,8.6,2.8c1.9,0,8,0,8-2.8
		c0-1.8-2.1-1.6-2.6-2.7c-0.3-0.7-0.5-2.3-0.5-5.9c0-2.7,0.1-3.9,1.8-6L181.9,273.4L181.9,273.4z"/>
	<path class="st0" d="M174.4,263.3c1.6,1.9,1.6,2,3.1,2h6.6c1.5,0,3.5-0.2,3.5-2.1c0-2.4-2.4-2.2-3.5-3.5l-8.1-9.3
		c-0.6-0.7-1.6-1.7-1.6-2.7c0-1.6,3.3-4,4.1-4.8c1.4-1.4,5.4,0.5,5.4-2.6c0-2.8-4.5-2.6-6.4-2.6s-7-0.2-7,2.7c0,0.9,0.6,1.2,0.6,2.1
		c0,0.9-3.1,4.9-4.1,4.9c-0.7,0-0.7-1.1-0.7-1.6c0-4.6,2.1-3.3,2.1-5.4c0-2.7-4-2.6-5.9-2.6c-8.5,0-8.2,2.2-8.2,2.8
		c0,2.4,2.1,0.9,2.6,4.3c0.4,2.4,0.4,5.2,0.4,7.6c0,2.2,0,4.7-0.4,6.9c-0.5,3.2-2.4,2.2-2.4,4.2c0,1.3,0.8,2.4,6.9,2.4
		c6.8,0,7.7-1.2,7.7-2.4c0-1.9-2.4-2.1-2.4-3.9v-0.8c0-1.1,0.2-2.1,1.2-2.1c0.9,0,3.2,2.8,3.8,3.6L174.4,263.3L174.4,263.3z"/>
	<path class="st0" d="M174.4,263.3c1.6,1.9,1.6,2,3.1,2h6.6c1.5,0,3.5-0.2,3.5-2.1c0-2.4-2.4-2.2-3.5-3.5l-8.1-9.3
		c-0.6-0.7-1.6-1.7-1.6-2.7c0-1.6,3.3-4,4.1-4.8c1.4-1.4,5.4,0.5,5.4-2.6c0-2.8-4.5-2.6-6.4-2.6s-7-0.2-7,2.7c0,0.9,0.6,1.2,0.6,2.1
		c0,0.9-3.1,4.9-4.1,4.9c-0.7,0-0.7-1.1-0.7-1.6c0-4.6,2.1-3.3,2.1-5.4c0-2.7-4-2.6-5.9-2.6c-8.5,0-8.2,2.2-8.2,2.8
		c0,2.4,2.1,0.9,2.6,4.3c0.4,2.4,0.4,5.2,0.4,7.6c0,2.2,0,4.7-0.4,6.9c-0.5,3.2-2.4,2.2-2.4,4.2c0,1.3,0.8,2.4,6.9,2.4
		c6.8,0,7.7-1.2,7.7-2.4c0-1.9-2.4-2.1-2.4-3.9v-0.8c0-1.1,0.2-2.1,1.2-2.1c0.9,0,3.2,2.8,3.8,3.6L174.4,263.3L174.4,263.3z"/>
	<path class="st0" d="M182.4,214.2c1.5-3,1.6-2.9,3.3-3.1c0.9-0.1,1.7-0.6,1.7-1.7c0-1.4-0.8-2.3-5.7-2.3c-1.6,0-6.5,0-6.5,2.4
		c0,1.6,2,1.2,2,2.6c0,0.9-1.8,4.4-2.3,5.4c-0.5,0.8-1.1,3-2.4,2.9c-0.9,0-1.3-1.6-1.6-2.2c-0.9-2-2.4-5.1-2.4-5.9
		c0-1,1.9-1.1,1.9-2.6c0-0.6,0.3-2.5-7.9-2.5c-2,0-8.2,0.2-8.2,3.2c0,0.8,0.4,1.4,1.2,1.5c1.5,0.2,1.9,0.7,3,3.2l7.7,17.1
		c0.9,1.8,1.4,3.1,3.7,3.1c2.1,0,2.9-1.8,3.7-3.4L182.4,214.2L182.4,214.2z"/>
	<path class="st0" d="M182.4,214.2c1.5-3,1.6-2.9,3.3-3.1c0.9-0.1,1.7-0.6,1.7-1.7c0-1.4-0.8-2.3-5.7-2.3c-1.6,0-6.5,0-6.5,2.4
		c0,1.6,2,1.2,2,2.6c0,0.9-1.8,4.4-2.3,5.4c-0.5,0.8-1.1,3-2.4,2.9c-0.9,0-1.3-1.6-1.6-2.2c-0.9-2-2.4-5.1-2.4-5.9
		c0-1,1.9-1.1,1.9-2.6c0-0.6,0.3-2.5-7.9-2.5c-2,0-8.2,0.2-8.2,3.2c0,0.8,0.4,1.4,1.2,1.5c1.5,0.2,1.9,0.7,3,3.2l7.7,17.1
		c0.9,1.8,1.4,3.1,3.7,3.1c2.1,0,2.9-1.8,3.7-3.4L182.4,214.2L182.4,214.2z"/>
	<path class="st0" d="M170.4,205c7.9,0,15.3-5.5,15.3-13.9c0-5-4.1-14.5-14.9-14.5c-8.5,0-15,5.8-15,14.1
		C155.8,199,162.1,205,170.4,205L170.4,205z M175.7,195c0,2.1-1,4.2-3.4,4.2c-4.2,0-6.5-9.3-6.5-12.6c0-1.9,1.1-4.2,3.3-4.2
		C173.6,182.4,175.7,191.5,175.7,195L175.7,195z"/>
	<path class="st0" d="M170.4,205c7.9,0,15.3-5.5,15.3-13.9c0-5-4.1-14.5-14.9-14.5c-8.5,0-15,5.8-15,14.1
		C155.8,199,162.1,205,170.4,205L170.4,205z M175.7,195c0,2.1-1,4.2-3.4,4.2c-4.2,0-6.5-9.3-6.5-12.6c0-1.9,1.1-4.2,3.3-4.2
		C173.6,182.4,175.7,191.5,175.7,195L175.7,195z"/>
	<path class="st0" d="M181.5,150.4c0.3-0.6,0.9-1.5,0.9-2.2c0-1.2-0.9-1.8-2-1.8c-0.9,0-3.6,0.2-6.5,0.3c-2.9,0.2-5.9,0.4-7.5,0.4
		c-2.4,0-3.8-0.2-4.6-0.3c-0.8-0.2-1-0.3-1.2-0.3c-0.9,0-3.6,3.9-3.6,6.9c0,1.5,1.1,3.2,2.7,3.2c2.8,0,1.6-5.2,6.5-5.2
		c1,0,2.6,0.1,2.6,1.1c0,0.4-0.5,1.2-0.7,1.5l-9.8,16.6c-0.3,0.6-0.8,1.2-0.8,1.9c0,1.8,1.4,1.5,2.8,1.5h16.4c0.5,0,1.4,0.1,2.3,0.2
		c0.8,0.1,1.6,0.2,1.7,0.2c1.4,0,3.9-3.2,3.9-7.4c0-1.8-0.9-3-2.8-3c-3,0-0.7,5.1-7.5,5.1c-0.6,0-2.7,0-2.7-0.9c0-0.7,1.4-3,1.7-3.5
		L181.5,150.4L181.5,150.4z M170.7,145.1c1.4,0,7.5-3.9,7.5-5.8c0-0.9-0.6-1.6-1.5-1.6c-1.6,0-4.3,2.2-6,2.2s-4.4-2.2-6-2.2
		c-0.9,0-1.5,0.7-1.5,1.6C163.2,141.2,169.3,145.1,170.7,145.1L170.7,145.1z"/>
	<path class="st0" d="M181.5,150.4c0.3-0.6,0.9-1.5,0.9-2.2c0-1.2-0.9-1.8-2-1.8c-0.9,0-3.6,0.2-6.5,0.3c-2.9,0.2-5.9,0.4-7.5,0.4
		c-2.4,0-3.8-0.2-4.6-0.3c-0.8-0.2-1-0.3-1.2-0.3c-0.9,0-3.6,3.9-3.6,6.9c0,1.5,1.1,3.2,2.7,3.2c2.8,0,1.6-5.2,6.5-5.2
		c1,0,2.6,0.1,2.6,1.1c0,0.4-0.5,1.2-0.7,1.5l-9.8,16.6c-0.3,0.6-0.8,1.2-0.8,1.9c0,1.8,1.4,1.5,2.8,1.5h16.4c0.5,0,1.4,0.1,2.3,0.2
		c0.8,0.1,1.6,0.2,1.7,0.2c1.4,0,3.9-3.2,3.9-7.4c0-1.8-0.9-3-2.8-3c-3,0-0.7,5.1-7.5,5.1c-0.6,0-2.7,0-2.7-0.9c0-0.7,1.4-3,1.7-3.5
		L181.5,150.4L181.5,150.4z M170.7,145.1c1.4,0,7.5-3.9,7.5-5.8c0-0.9-0.6-1.6-1.5-1.6c-1.6,0-4.3,2.2-6,2.2s-4.4-2.2-6-2.2
		c-0.9,0-1.5,0.7-1.5,1.6C163.2,141.2,169.3,145.1,170.7,145.1L170.7,145.1z"/>
	<path class="st0" d="M166.1,125.4c0,5.4-0.4,6.9-0.9,7.4c-0.6,0.7-1.9,0.9-1.9,2.2c0,2.5,4.9,2.5,6.5,2.5c8.5,0,8.9-1.8,8.9-2.9
		c0-1.2-0.9-1.4-1.9-2c-0.8-0.5-1.2-0.3-1.2-7.2v-3.8c0-2.7,0-6.2,0.8-7.1c0.9-1,2.4-0.9,2.4-2.3c0-2.6-4.8-2.7-7.1-2.7
		c-0.8,0-8.7,0-8.7,2.8c0,1.5,1.5,1.6,2.4,2.7c0.4,0.5,0.8,1.7,0.8,6.6V125.4L166.1,125.4z M167.6,108.2c5.3,0,8.3-3.6,8.3-4.6
		c0-1.8-3.5-2.2-4.7-2.2c-0.6,0-3.3,0.2-3.3,1.2c0,0.4,0.3,0.5,0.3,0.9c0,1-2.7,1.6-2.7,3.2C165.5,108,166.6,108.2,167.6,108.2
		L167.6,108.2z"/>
	<path class="st0" d="M166.1,125.4c0,5.4-0.4,6.9-0.9,7.4c-0.6,0.7-1.9,0.9-1.9,2.2c0,2.5,4.9,2.5,6.5,2.5c8.5,0,8.9-1.8,8.9-2.9
		c0-1.2-0.9-1.4-1.9-2c-0.8-0.5-1.2-0.3-1.2-7.2v-3.8c0-2.7,0-6.2,0.8-7.1c0.9-1,2.4-0.9,2.4-2.3c0-2.6-4.8-2.7-7.1-2.7
		c-0.8,0-8.7,0-8.7,2.8c0,1.5,1.5,1.6,2.4,2.7c0.4,0.5,0.8,1.7,0.8,6.6V125.4L166.1,125.4z M167.6,108.2c5.3,0,8.3-3.6,8.3-4.6
		c0-1.8-3.5-2.2-4.7-2.2c-0.6,0-3.3,0.2-3.3,1.2c0,0.4,0.3,0.5,0.3,0.9c0,1-2.7,1.6-2.7,3.2C165.5,108,166.6,108.2,167.6,108.2
		L167.6,108.2z"/>
	<path class="st0" d="M167.6,81.6c0.1-1.2,0-2.1,1.5-2.1c2.3,0,2.7,1.9,2.7,3.8c0,2.4-0.8,3.8-3.3,3.8c-1.3,0-1.1-0.9-1-1.9
		L167.6,81.6L167.6,81.6z M158.4,94.7c0,5.1-2.9,3.7-2.9,5.7c0,2.8,5.5,2.8,7.4,2.8c6.3,0,7.3-1.1,7.3-2.4c0-1.9-2-1.3-2.3-3.1
		c-0.2-1.1-0.3-2.6-0.3-3.8c0-2.5,0.3-2.6,1.2-2.6c2.1,0,2.8,1.8,3.2,3.5c1.2,5.1,2,8.7,8.2,8.7c4.4,0,6.2-1.6,6.2-3
		c0-2.4-2.5-0.2-3-3.8c-0.5-4.2-1.7-6-4.5-7c-0.5-0.2-1-0.4-1-0.9c0-0.5,0.3-0.6,0.6-0.8c2.2-1.1,3.3-3.3,3.3-5.6
		c0-5.2-5.1-7.1-9.5-7.1c-1.2,0-2.5,0.1-3.8,0.1c-1.3,0.1-2.5,0.2-3.8,0.2c-0.8,0-1.6-0.1-2.4-0.2c-0.8,0-1.6-0.1-2.4-0.1
		c-1.6,0-4.6,0.3-4.6,2.4c0,2.4,3-0.1,3,5.9V94.7L158.4,94.7z"/>
	<path class="st0" d="M167.6,81.6c0.1-1.2,0-2.1,1.5-2.1c2.3,0,2.7,1.9,2.7,3.8c0,2.4-0.8,3.8-3.3,3.8c-1.3,0-1.1-0.9-1-1.9
		L167.6,81.6L167.6,81.6z M158.4,94.7c0,5.1-2.9,3.7-2.9,5.7c0,2.8,5.5,2.8,7.4,2.8c6.3,0,7.3-1.1,7.3-2.4c0-1.9-2-1.3-2.3-3.1
		c-0.2-1.1-0.3-2.6-0.3-3.8c0-2.5,0.3-2.6,1.2-2.6c2.1,0,2.8,1.8,3.2,3.5c1.2,5.1,2,8.7,8.2,8.7c4.4,0,6.2-1.6,6.2-3
		c0-2.4-2.5-0.2-3-3.8c-0.5-4.2-1.7-6-4.5-7c-0.5-0.2-1-0.4-1-0.9c0-0.5,0.3-0.6,0.6-0.8c2.2-1.1,3.3-3.3,3.3-5.6
		c0-5.2-5.1-7.1-9.5-7.1c-1.2,0-2.5,0.1-3.8,0.1c-1.3,0.1-2.5,0.2-3.8,0.2c-0.8,0-1.6-0.1-2.4-0.2c-0.8,0-1.6-0.1-2.4-0.1
		c-1.6,0-4.6,0.3-4.6,2.4c0,2.4,3-0.1,3,5.9V94.7L158.4,94.7z"/>
	<path class="st0" d="M174.4,70.3c1.6,1.9,1.6,2,3.1,2h6.6c1.5,0,3.5-0.2,3.5-2.1c0-2.4-2.4-2.2-3.5-3.5l-8.1-9.3
		c-0.6-0.7-1.6-1.7-1.6-2.7c0-1.6,3.3-4,4.1-4.8c1.4-1.4,5.4,0.5,5.4-2.6c0-2.8-4.5-2.6-6.4-2.6s-7-0.2-7,2.7c0,0.9,0.6,1.2,0.6,2.1
		c0,0.9-3.1,4.9-4.1,4.9c-0.7,0-0.7-1.1-0.7-1.6c0-4.6,2.1-3.3,2.1-5.4c0-2.7-4-2.6-5.9-2.6c-8.5,0-8.2,2.2-8.2,2.8
		c0,2.4,2.1,0.9,2.6,4.3c0.4,2.4,0.4,5.2,0.4,7.6c0,2.2,0,4.7-0.4,6.9c-0.5,3.2-2.4,2.2-2.4,4.2c0,1.3,0.8,2.4,6.9,2.4
		c6.8,0,7.7-1.2,7.7-2.4c0-1.9-2.4-2.1-2.4-3.9v-0.8c0-1.1,0.2-2.1,1.2-2.1c0.9,0,3.2,2.8,3.8,3.6L174.4,70.3L174.4,70.3z"/>
	<path class="st0" d="M174.4,70.3c1.6,1.9,1.6,2,3.1,2h6.6c1.5,0,3.5-0.2,3.5-2.1c0-2.4-2.4-2.2-3.5-3.5l-8.1-9.3
		c-0.6-0.7-1.6-1.7-1.6-2.7c0-1.6,3.3-4,4.1-4.8c1.4-1.4,5.4,0.5,5.4-2.6c0-2.8-4.5-2.6-6.4-2.6s-7-0.2-7,2.7c0,0.9,0.6,1.2,0.6,2.1
		c0,0.9-3.1,4.9-4.1,4.9c-0.7,0-0.7-1.1-0.7-1.6c0-4.6,2.1-3.3,2.1-5.4c0-2.7-4-2.6-5.9-2.6c-8.5,0-8.2,2.2-8.2,2.8
		c0,2.4,2.1,0.9,2.6,4.3c0.4,2.4,0.4,5.2,0.4,7.6c0,2.2,0,4.7-0.4,6.9c-0.5,3.2-2.4,2.2-2.4,4.2c0,1.3,0.8,2.4,6.9,2.4
		c6.8,0,7.7-1.2,7.7-2.4c0-1.9-2.4-2.1-2.4-3.9v-0.8c0-1.1,0.2-2.1,1.2-2.1c0.9,0,3.2,2.8,3.8,3.6L174.4,70.3L174.4,70.3z"/>
	<path class="st0" d="M9.3,14.6c0-1-0.4-1.4-1.2-1.4c-0.2,0-0.8,0.1-1.4,0.2c-0.7,0.2-1.3,0.2-1.7,0.2c-0.4,0-0.8-0.1-1.2-0.1
		c-0.7-0.2-1.3-0.3-1.4-0.3C1,13.2,0,14.6,0,16.5c0,2,0.6,3,1.8,3c0.3,0,0.5-0.1,0.7-0.1c0.4-0.2,0.7-0.3,0.8-0.3
		c0.5,0,0.7,0.8,0.7,3v8.4c0,2.1-0.2,3-0.7,3c-0.1,0-0.4-0.1-0.8-0.3c-0.2-0.1-0.4-0.1-0.7-0.1c-1.2,0-1.8,1-1.8,3
		c0,2,1,3.3,2.5,3.3c0.7,0,1.4-0.1,2.2-0.2C5.7,39,6.4,39,7.2,39c0.5,0,1.3,0.1,2.3,0.3c0.7,0.1,1.2,0.2,1.7,0.2
		c1.5,0,2.4-1.1,2.4-3.2c0-1.9-0.5-2.7-1.7-2.9c-1.1-0.2-1.2-0.5-1.2-3.4v-5.5c0-2.7,1.7-4.9,4-4.9c2,0,2.7,1.4,2.7,5.2V30
		c0,3.3,0,3.2-1.1,3.3c-1.2,0.2-1.7,0.9-1.7,2.9c0,2.2,0.8,3.2,2.5,3.2c0.4,0,1.2-0.1,2-0.2c1-0.2,1.7-0.2,2.3-0.2
		c0.6,0,1.3,0.1,2.1,0.2c0.8,0.1,1.6,0.2,2,0.2c1.5,0,2.4-1.3,2.4-3.5c0-1.7-0.6-2.7-1.5-2.7c-0.3,0-0.5,0.1-0.7,0.2
		c-0.3,0.1-0.5,0.2-0.7,0.2c-0.6,0-0.8-0.8-0.8-2.7V23c0-3.5-0.3-5.3-1.3-6.9c-1.2-2.1-3.4-3.4-5.9-3.4c-2.9,0-5.3,1.4-7.4,4.4V14.6
		L9.3,14.6z M48.9,33.2c-0.4,0.1-0.7-0.6-0.7-1.7V20.9c0-6.1-2.7-8.5-9.5-8.5c-5.8,0-9.3,2.2-9.3,6c0,2.4,1.7,4.3,4,4.3
		c2,0,3.6-1.5,3.6-3.3v-1c0-0.7,0.4-1.1,1.4-1.1c1.7,0,3,1.2,3,2.9c0,2.1-1.2,3-5.3,3.8c-5.8,1.2-7.9,3.2-7.9,8
		c0,4.8,2.9,7.8,7.5,7.8c2.9,0,5.1-0.9,7.2-3.2c0.8,2.1,2.4,3.2,4.8,3.2c2.6,0,4.4-1.6,4.4-3.8c0-1.5-1-3-1.9-2.9L48.9,33.2
		L48.9,33.2z M41.4,29.1c0,2.7-1.5,4.4-3.9,4.4c-1.5,0-2.4-0.8-2.4-2.2c0-1.4,0.5-1.8,3.1-2.4c1.8-0.4,2.4-0.6,3.2-1.2L41.4,29.1
		L41.4,29.1z M58.6,15.2c0-1.5-0.3-2-1.3-2c-0.2,0-0.7,0.1-1.2,0.2c-0.7,0.2-1.3,0.2-1.8,0.2c-0.5,0-1-0.1-1.3-0.2
		c-0.7-0.1-1.2-0.2-1.4-0.2c-1.3,0-2.4,1.4-2.4,3.3c0,2,0.6,3,1.8,3c0.3,0,0.5-0.1,0.7-0.1c0.4-0.2,0.7-0.3,0.8-0.3
		c0.5,0,0.7,0.8,0.7,3v17.2c0,2.1-0.2,2.9-0.7,2.9c-0.1,0-0.4-0.1-0.8-0.3c-0.2-0.1-0.4-0.2-0.7-0.2c-1.2,0-1.8,1-1.8,3
		c0,2,1,3.4,2.4,3.4c0.2,0,1.1-0.2,2.1-0.4c0.6-0.1,1.4-0.2,2.3-0.2c1.2,0,2.6,0.1,3.9,0.3c0.9,0.1,1.9,0.2,2.3,0.2
		c1.7,0,2.5-1.1,2.5-3.3c0-1.8-0.7-2.9-1.7-2.9c-0.3,0-0.7,0.1-1.2,0.3c-0.4,0.1-0.7,0.2-1,0.2c-0.9,0-1-0.2-1-3.1V37
		c2.7,2.3,3.6,2.7,5.7,2.7c5.3,0,8.9-5.4,8.9-13.5c0-8.6-3.4-13.8-9-13.8c-3,0-4.7,1-7,4.2V15.2L58.6,15.2z M63.7,19.2
		c2.4,0,3.9,2.7,3.9,6.9c0,4.3-1.5,6.9-3.9,6.9c-2.3,0-3.7-2.6-3.7-6.9C60,21.8,61.5,19.2,63.7,19.2L63.7,19.2z M86.5,15.1
		c0-1.3-0.4-2-1.3-2c-0.3,0-0.8,0.1-1.4,0.2c-0.7,0.1-1.3,0.2-2,0.2c-0.7,0-1.5-0.1-2.4-0.2c-0.6-0.1-1.1-0.2-1.4-0.2
		c-1.5,0-2.5,1.3-2.5,3.3c0,1.9,0.6,3,1.8,3c0.3,0,0.5-0.1,0.7-0.1c0.4-0.2,0.7-0.3,0.8-0.3c0.5,0,0.7,0.8,0.7,3v8.4
		c0,2.1-0.2,3-0.7,3c-0.1,0-0.4-0.1-0.8-0.3c-0.2-0.1-0.4-0.1-0.7-0.1c-1.2,0-1.8,1-1.8,3c0,2,1,3.3,2.5,3.3c0.3,0,1.1-0.1,2-0.3
		c0.7-0.1,1.5-0.2,2.4-0.2c1,0,1.9,0.1,2.8,0.2c1.1,0.1,2,0.2,2.6,0.2c1.5,0,2.4-1.3,2.4-3.5c0-1.7-0.6-2.7-1.5-2.7
		c-0.3,0-0.5,0.1-0.7,0.2c-0.3,0.1-0.5,0.2-0.7,0.2c-0.6,0-0.8-0.8-0.8-2.7V15.1L86.5,15.1z M80.4,3.5c-2,1.2-2.4,1.8-2.4,3
		c0,1.5,1,3,2,3c0.6,0,1.7-0.4,2.7-0.8l3.9-1.9c2.1-1,2.9-1.8,2.9-3.2c0-1.9-1.2-3.6-2.6-3.6c-0.6,0-1.7,0.4-2.4,0.9L80.4,3.5
		L80.4,3.5z M110.3,17.4c0-0.6,0-1,0.2-1.7c0.1-0.6,0.1-1,0.1-1.4c0-1.2-0.7-1.9-2.1-1.9c-1.7,0-2.3,0.6-2.4,2.2
		c-1.6-1.5-3.4-2.2-5.6-2.2c-4.7,0-7.9,3.5-7.9,8.7c0,4.7,1.8,6.6,7.2,7.9c3.9,0.9,2.8,0.7,3.3,0.8c1.4,0.5,1.8,1,1.8,2
		c0,1.4-1.2,2.3-3.2,2.3c-2.1,0-3.4-0.8-4.7-3.1c-0.9-1.6-1.6-2-3.1-2c-1.5,0-2.5,1-2.5,2.4c0,0.4,0,0.7,0.1,1.2
		c0,0.6,0.1,1.1,0.1,1.8c0,0.5,0,1.2-0.1,1.9c0,0.5-0.1,0.9-0.1,1.2c0,1.5,0.8,2.3,2.2,2.3c1.6,0,2.4-0.8,2.4-2.6c2.2,2.1,4.3,3,7,3
		c5.1,0,8.9-3.9,8.9-9.2c0-4.7-2-6.8-7.6-8c-4.3-0.9-3.1-0.6-3.5-0.8c-1.2-0.4-1.7-1-1.7-1.9c0-1.2,1.1-2.1,2.6-2.1
		c1.6,0,2.5,0.6,3.6,2.4c0.9,1.5,1.6,1.9,2.8,1.9c1.6,0,2.4-0.8,2.4-2.7L110.3,17.4L110.3,17.4z M133.4,33.2
		c-0.4,0.1-0.7-0.6-0.7-1.7V20.9c0-6.1-2.7-8.5-9.5-8.5c-5.8,0-9.3,2.2-9.3,6c0,2.4,1.7,4.3,4,4.3c2,0,3.6-1.5,3.6-3.3v-1
		c0-0.7,0.4-1.1,1.4-1.1c1.7,0,3,1.2,3,2.9c0,2.1-1.2,3-5.3,3.8c-5.8,1.2-7.9,3.2-7.9,8c0,4.8,2.9,7.8,7.5,7.8
		c2.9,0,5.1-0.9,7.2-3.2c0.8,2.1,2.4,3.2,4.8,3.2c2.6,0,4.4-1.6,4.4-3.8c0-1.5-1-3-1.9-2.9L133.4,33.2L133.4,33.2z M126,29.1
		c0,2.7-1.5,4.4-3.9,4.4c-1.5,0-2.4-0.8-2.4-2.2c0-1.4,0.5-1.8,3.1-2.4c1.8-0.4,2.4-0.6,3.2-1.2L126,29.1L126,29.1z M146.9,14.6
		c0-1-0.4-1.4-1.2-1.4c-0.2,0-0.8,0.1-1.3,0.2c-0.7,0.2-1.3,0.2-1.7,0.2c-0.4,0-0.8-0.1-1.2-0.1c-0.7-0.2-1.3-0.3-1.4-0.3
		c-1.3,0-2.4,1.4-2.4,3.3c0,2,0.6,3,1.8,3c0.3,0,0.5-0.1,0.7-0.1c0.4-0.2,0.7-0.3,0.8-0.3c0.5,0,0.7,0.8,0.7,3v8.4
		c0,2.1-0.2,3-0.7,3c-0.1,0-0.4-0.1-0.8-0.3c-0.2-0.1-0.4-0.1-0.7-0.1c-1.2,0-1.8,1-1.8,3c0,2,1,3.3,2.5,3.3c0.7,0,1.3-0.1,2.2-0.2
		c1-0.2,1.7-0.2,2.5-0.2c0.5,0,1.3,0.1,2.3,0.3c0.7,0.1,1.2,0.2,1.7,0.2c1.5,0,2.4-1.1,2.4-3.2c0-1.9-0.5-2.7-1.7-2.9
		c-1.1-0.2-1.2-0.5-1.2-3.4v-5.5c0-2.7,1.7-4.9,4-4.9c2,0,2.7,1.4,2.7,5.2V30c0,3.3,0,3.2-1.1,3.3c-1.2,0.2-1.7,0.9-1.7,2.9
		c0,2.2,0.8,3.2,2.5,3.2c0.4,0,1.2-0.1,2-0.2c1-0.2,1.7-0.2,2.3-0.2c0.6,0,1.3,0.1,2.1,0.2c0.8,0.1,1.6,0.2,2,0.2
		c1.5,0,2.4-1.3,2.4-3.5c0-1.7-0.6-2.7-1.5-2.7c-0.3,0-0.5,0.1-0.7,0.2c-0.3,0.1-0.5,0.2-0.7,0.2c-0.6,0-0.8-0.8-0.8-2.7V23
		c0-3.5-0.3-5.3-1.3-6.9c-1.2-2.1-3.4-3.4-5.9-3.4c-2.9,0-5.3,1.4-7.4,4.4V14.6L146.9,14.6z M183.4,27.7c1.8,0,2.3-0.7,2.3-3.7
		c0-6.8-4-11.5-9.9-11.5c-6.8,0-11.3,5.5-11.3,13.9c0,8.3,4.4,13.7,11.4,13.7c5.3,0,9.5-3.2,9.5-7.2c0-1.9-1.2-3.1-3-3.1
		c-1.2,0-1.8,0.3-2.8,1.7c-1.4,1.8-2.4,2.4-3.8,2.4c-2.4,0-4.1-2.2-4.1-5.1c0-0.9,0.2-1,1.2-1H183.4L183.4,27.7z M172.9,22.1
		c-0.8,0-1-0.2-1-0.7c0-1.7,1.8-3.3,3.7-3.3c1.7,0,3.3,1.5,3.3,3.2c0,0.7-0.2,0.8-1,0.8H172.9L172.9,22.1z M174.3,3.5
		c-2,1.2-2.4,1.8-2.4,3c0,1.5,1,3,2,3c0.6,0,1.7-0.4,2.7-0.8l3.9-1.9c2.1-1,2.9-1.8,2.9-3.2c0-1.9-1.2-3.6-2.6-3.6
		c-0.6,0-1.7,0.4-2.4,0.9L174.3,3.5L174.3,3.5z"/>
	<path class="st0" d="M74.7,50.3l-4.8,5.6c-0.3,0.4-0.5,0.8-0.5,1.2c0,0.8,0.5,1.3,1.2,1.3c0.3,0,0.6,0,1.1-0.1
		c0.5,0,1.1-0.1,1.5-0.1c0.5,0,1.1,0,2,0.1l0.5,0l0.5,0l0.5,0c0.5,0,1,0,1.2,0c0.8,0,1.1-0.2,1.1-0.9c0-0.2,0-0.4,0-0.6
		c0-0.3-0.1-0.4-0.1-0.5l0.1-2c0-0.6-0.5-1.2-1.2-1.2c-0.6,0-1.1,0.5-1.1,1l0,0.9c0,0.5-0.4,0.6-1.6,0.6h-1.3l4.3-5
		c0.8-0.9,0.8-1,0.8-1.7c0-0.9-0.5-1.4-1.4-1.4c-0.2,0-0.7,0-1.3,0.1c-0.4,0-0.8,0-1.4,0c-0.5,0-2.1,0-3-0.1c-0.5,0-1,0-1.1,0
		c-0.6,0-1,0.3-1,0.6l0.1,1.8c0,0,0,0.2,0,0.4c0,0.3,0,0.5,0,0.7c0,0.8,0.4,1.3,1.1,1.3c0.5,0,0.9-0.3,1.1-0.7
		c0.1-0.1,0.1-0.2,0.1-0.3l-0.1-1c0-0.1,0-0.1,0.1-0.2c0.1-0.1,0.2-0.1,0.3-0.1l0.4,0.1H74.7L74.7,50.3z M74.3,43.7l-2.2-0.9
		c-0.4-0.1-0.8-0.3-1.1-0.3c-0.4,0-0.8,0.5-0.8,1.2c0,0.5,0.2,0.7,1,1.2l1.3,0.7c0.9,0.5,1.4,0.7,1.8,0.7c0.3,0,0.7-0.2,1.6-0.7
		l1.2-0.7c0.7-0.4,0.9-0.7,0.9-1.2c0-0.6-0.4-1.2-0.8-1.2c-0.2,0-0.5,0.1-0.9,0.3L74.3,43.7L74.3,43.7z M84.6,48.6
		c0-0.5-0.2-0.8-0.6-0.8c-0.1,0-0.4,0-0.6,0.1c-0.3,0-0.6,0.1-0.9,0.1c-0.3,0-0.7,0-1.1-0.1c-0.3,0-0.5-0.1-0.6-0.1
		c-0.7,0-1.1,0.5-1.1,1.3c0,0.8,0.3,1.2,0.8,1.2c0.1,0,0.2,0,0.3,0c0.2-0.1,0.3-0.1,0.4-0.1c0.2,0,0.3,0.3,0.3,1.2v3.4
		c0,0.9-0.1,1.2-0.3,1.2c-0.1,0-0.2,0-0.4-0.1c-0.1,0-0.2,0-0.3,0c-0.5,0-0.8,0.4-0.8,1.2c0,0.8,0.4,1.3,1.1,1.3
		c0.1,0,0.5,0,0.9-0.1c0.3,0,0.7-0.1,1.1-0.1c0.4,0,0.9,0,1.2,0.1c0.5,0,0.9,0.1,1.2,0.1c0.7,0,1.1-0.5,1.1-1.4
		c0-0.7-0.3-1.1-0.7-1.1c-0.1,0-0.2,0-0.3,0.1C85.2,56,85.1,56,85,56c-0.3,0-0.4-0.3-0.4-1.1V48.6L84.6,48.6z M83,43.2
		c-1,0-1.8,0.9-1.8,1.9c0,1,0.8,1.9,1.8,1.9c1,0,1.8-0.9,1.8-1.9C84.7,44.1,83.9,43.2,83,43.2L83,43.2z M92.5,56l-1.3-4.6
		c-0.1-0.4-0.2-0.7-0.2-0.8c0-0.3,0.1-0.4,0.5-0.4c0.5-0.1,0.8-0.5,0.8-1.2c0-0.8-0.4-1.2-1.1-1.2c-0.2,0-0.5,0-0.9,0.1
		C89.7,48,89.1,48,88.8,48c-0.3,0-0.6,0-1-0.1c-0.3-0.1-0.6-0.1-0.7-0.1c-0.6,0-1.1,0.5-1.1,1.3c0,0.8,0.3,1.2,0.8,1.2
		c0.1,0,0.2,0,0.3,0c0.1,0,0.1,0,0.2,0c0.3,0,0.4,0.1,0.6,0.7c0.2,0.6,0.1,0.4,0.3,0.8l0.1,0.3l1.7,5c0.3,0.9,0.7,1.3,1.4,1.3l1-0.1
		l1.1,0.1c0.6,0.1,1.2-0.5,1.6-1.7l1.7-4.7c0.6-1.6,0.4-1.2,0.5-1.3c0.2-0.3,0.3-0.5,0.5-0.5c0,0,0.1,0,0.3,0c0.1,0,0.1,0,0.2,0
		c0.5,0,0.9-0.5,0.9-1.2c0-0.8-0.4-1.3-1-1.3c-0.1,0-0.4,0-0.8,0.1C96.8,48,96.4,48,96,48c-0.4,0-0.8,0-1.3-0.1
		c-0.3,0-0.7-0.1-0.8-0.1c-0.7,0-1.1,0.4-1.1,1.2c0,0.6,0.3,1,0.7,1.1c0.4,0.1,0.5,0.2,0.5,0.4c0,0.1,0,0.2-0.1,0.3
		c0,0.1-0.1,0.3-0.2,0.5L92.5,56L92.5,56z M104.1,47.5c-3.1,0-5,2.1-5,5.5c0,3.6,1.8,5.7,5,5.7c3.1,0,4.9-2.1,4.9-5.6
		C109,49.7,107.2,47.5,104.1,47.5L104.1,47.5z M104.1,50.1c1.2,0,1.8,1,1.8,3c0,2-0.6,3-1.8,3c-1.2,0-1.9-1.1-1.9-3
		S102.9,50.1,104.1,50.1L104.1,50.1z M114.4,47.9c-0.6,0-0.7-0.1-0.7-0.9v-1.2c0-0.9-0.3-1.1-1.1-1.1c-1.3,0-1.7,0.3-1.7,1.3v1
		c0,0.8-0.1,0.9-0.6,0.9H110c-0.4,0-0.8,0.5-0.8,1.1c0,0.7,0.4,1.2,0.8,1.2h0.3c0.4,0,0.5,0.1,0.5,0.8v0.7c0,0.1,0,0.8-0.1,1.7
		c0,0.5,0,1.1,0,1.4c0,2.8,1,4,3.2,4c2.2,0,3.4-1.3,3.4-3.5c0-1.4-0.4-2.1-1.2-2.1c-0.6,0-1,0.4-1,1.1l0,0.9c0,0.6-0.3,1-0.7,1
		c-0.5,0-0.8-0.4-0.8-1.2c0-0.2,0-1.1,0.1-2c0-0.5,0-0.9,0-1.3v-0.9c0-0.5,0.1-0.6,0.6-0.6h1.6c0.7,0,1-0.4,1-1.2
		c0-0.8-0.4-1.1-1.1-1.1H114.4L114.4,47.9z M123.1,47.5c-3.1,0-5,2.1-5,5.5c0,3.6,1.8,5.7,5,5.7c3.1,0,4.9-2.1,4.9-5.6
		C128.1,49.7,126.2,47.5,123.1,47.5L123.1,47.5z M123.1,50.1c1.2,0,1.8,1,1.8,3c0,2-0.6,3-1.8,3c-1.2,0-1.9-1.1-1.9-3
		S121.9,50.1,123.1,50.1L123.1,50.1z M133,48.4c0-0.4-0.3-0.6-0.6-0.6c-0.1,0-0.4,0-0.6,0.1c-0.3,0.1-0.6,0.1-0.8,0.1
		c-0.2,0-0.4,0-0.6,0c-0.3-0.1-0.5-0.1-0.6-0.1c-0.6,0-1.1,0.6-1.1,1.3c0,0.8,0.3,1.2,0.8,1.2c0.1,0,0.2,0,0.3,0
		c0.2-0.1,0.3-0.1,0.3-0.1c0.2,0,0.3,0.3,0.3,1.2v3.4c0,0.9-0.1,1.2-0.3,1.2c-0.1,0-0.2,0-0.3-0.1c-0.1,0-0.2,0-0.3,0
		c-0.5,0-0.8,0.4-0.8,1.2c0,0.8,0.4,1.3,1.1,1.3c0.2,0,0.5,0,1-0.1c0.3,0,0.6-0.1,1-0.1c0.3,0,0.8,0,1.2,0.1c0.3,0,0.5,0.1,0.7,0.1
		c0.6,0,1.1-0.5,1.1-1.3c0-0.8-0.2-1.1-0.8-1.2c-0.5-0.1-0.4,0-0.5-1.2v-2c0-1.6,0.6-2.4,1.7-2.4c0.9,0,1.2,0.5,1.2,2v2.4
		c0,1,0,1.1-0.4,1.2c-0.5,0.1-0.7,0.4-0.7,1.2c0,0.8,0.4,1.3,1,1.3c0.2,0,0.4,0,0.6-0.1c0.3-0.1,0.6-0.1,0.8-0.1
		c0.1,0,0.4,0,0.8,0.1c0.2,0,0.4,0.1,0.6,0.1c0.7,0,1.1-0.5,1.1-1.3c0-0.7-0.2-1.1-0.6-1.1c-0.4-0.1-0.4-0.2-0.4-1.2v-2
		c0-1.6,0.5-2.4,1.6-2.4c1,0,1.3,0.5,1.3,2.2v2.2c0,0.9-0.1,1-0.5,1.1c-0.5,0.1-0.8,0.5-0.8,1.2c0,0.8,0.4,1.3,1.1,1.3
		c0.2,0,0.5,0,0.8-0.1c0.4-0.1,0.8-0.1,1.2-0.1c0.3,0,0.6,0,0.8,0c0.5,0.1,0.9,0.1,1,0.1c0.6,0,1-0.6,1-1.4c0-0.7-0.3-1.1-0.7-1.1
		c-0.1,0-0.2,0-0.3,0.1c-0.1,0-0.2,0.1-0.3,0.1c-0.3,0-0.4-0.3-0.4-1.1v-3.2c0-1.5-0.2-2.2-0.6-2.9c-0.6-0.8-1.6-1.3-2.7-1.3
		c-1.2,0-2,0.4-3.3,1.6c-0.7-1.1-1.4-1.6-2.5-1.6c-1.1,0-2.1,0.5-3.1,1.6V48.4L133,48.4z"/>
</g>
</svg>
