<?xml version="1.0" encoding="utf-8"?>
<!-- Generator: Adobe Illustrator 16.0.3, SVG Export Plug-In . SVG Version: 6.00 Build 0)  -->
<!DOCTYPE svg PUBLIC "-//W3C//DTD SVG 1.1//EN" "http://www.w3.org/Graphics/SVG/1.1/DTD/svg11.dtd" [
	<!ENTITY ns_flows "http://ns.adobe.com/Flows/1.0/">
	<!ENTITY ns_extend "http://ns.adobe.com/Extensibility/1.0/">
	<!ENTITY ns_ai "http://ns.adobe.com/AdobeIllustrator/10.0/">
	<!ENTITY ns_graphs "http://ns.adobe.com/Graphs/1.0/">
]>
<svg version="1.1" id="Vrstva_1" xmlns:x="&ns_extend;" xmlns:i="&ns_ai;" xmlns:graph="&ns_graphs;"
	 xmlns="http://www.w3.org/2000/svg" xmlns:xlink="http://www.w3.org/1999/xlink" xmlns:a="http://ns.adobe.com/AdobeSVGViewerExtensions/3.0/"
	 x="0px" y="0px" width="298.7px" height="52.7px" viewBox="0 0 298.7 52.7" style="enable-background:new 0 0 298.7 52.7;"
	 xml:space="preserve">
<style type="text/css">
<![CDATA[
	.st0{fill-rule:evenodd;clip-rule:evenodd;fill:#FFFFFF;}
]]>
</style>
<g>
	<path class="st0" d="M274.3,18.2c0.2-0.2,0.3-0.5,0.5-0.7c0.7-0.9,1.4-1.9,2.2-2.7c2-1.8,4.6-1.3,6,1c0.4,0.7,0.8,1.5,1.2,2.3
		c0.2-0.2,0.3-0.4,0.4-0.5c0.6-0.8,1.2-1.7,1.9-2.4c2.1-2.2,5.3-2,7.2,0.3c1.2,1.5,1.7,3.3,1.8,5.2c0.1,4.1,0.1,8.1,0.2,12.2
		c0,0.8,0,1.6,0.1,2.4c0,0.3,0.1,0.6,0.2,0.9c0.3,0.7,0.6,0.8,1.2,0.6c0.8-0.3,1.1-0.1,1.3,0.7c0.3,1.5,0.3,3-0.2,4.5
		c-0.2,0.7-0.6,1-1.3,0.9c-2.1-0.5-4.3-0.4-6.4,0c-0.9,0.1-1.2-0.1-1.5-1c-0.4-1.3-0.4-2.7-0.1-4c0.1-0.4,0.5-0.8,0.8-1
		c0.6-0.4,1-0.8,1.1-1.6c0-0.2,0.1-0.4,0.1-0.7c0-3.3-0.1-6.6-0.1-10c0-0.6-0.2-1.2-0.4-1.8c-0.3-1-0.9-1.6-1.9-1.7
		c-0.9-0.1-1.6,0.4-2.1,1c-1,1.2-1.2,2.7-1.3,4.1c-0.1,3,0,6,0,9c0,0.7,0.3,1.3,0.9,1.7c0.2,0.1,0.5,0.4,0.6,0.7
		c0.4,1.4,0.4,2.8,0,4.3c-0.3,0.9-0.6,1.1-1.5,1.1c0,0-0.1,0-0.1,0c-1.5-0.3-3-0.4-4.6,0c-0.9,0.2-1.2-0.1-1.5-1.1
		c-0.4-1.3-0.3-2.6,0-3.9c0.1-0.4,0.4-0.7,0.7-1c0.5-0.3,0.8-0.7,0.8-1.2c0-3.4,0.1-6.8,0-10.2c0-0.8-0.1-1.6-0.3-2.4
		c-0.2-1-0.7-1.7-1.8-1.9c-1-0.1-1.8,0.3-2.4,1.1c-0.8,1-1.1,2.3-1.2,3.5c-0.1,3.3,0,6.5-0.1,9.8c0,0.7,0.3,1.1,1,1.3
		c0.6,0.1,0.8,0.5,1,1.1c0.3,1.3,0.3,2.7-0.1,4c-0.2,0.7-0.6,1.1-1.4,1c-0.4-0.1-0.9-0.1-1.3-0.2c-1.4-0.3-2.7-0.3-4.1,0
		c-2,0.4-2.6,0.1-2.8-1.9c-0.1-1-0.1-2.1,0-3.1c0.1-1,0.7-1.3,1.6-0.9c0.6,0.3,0.9,0.1,1.1-0.5c0.2-0.6,0.3-1.2,0.3-1.8
		c0-3.8,0-7.6,0-11.5c0-0.6-0.1-1.2-0.3-1.8c-0.2-0.7-0.5-0.8-1.2-0.5c-0.9,0.3-1.3,0.1-1.6-0.8c-0.3-1.4-0.3-2.8,0.1-4.1
		c0.3-1.1,0.8-1.5,1.9-1.1c1.2,0.4,2.3,0.2,3.4-0.1c1-0.2,1.3,0,1.4,1.1c0,0.6,0,1.2,0,1.8c0,0.2,0.1,0.4,0.1,0.7
		C274.1,18.2,274.2,18.2,274.3,18.2z"/>
	<path class="st0" d="M49.9,40.2c-0.1,0.3-0.2,0.5-0.2,0.7c0,1.6,0,3.1,0.1,4.7c0.1,1.2,0.7,1.5,1.8,1.1c0.2-0.1,0.5-0.2,0.7-0.2
		c0.5-0.1,0.9,0.1,1.1,0.7c0.4,1.5,0.4,3-0.1,4.5c-0.2,0.6-0.7,1-1.3,0.9c-1.2-0.1-2.5-0.2-3.7-0.4c-1.3-0.2-2.5,0-3.8,0.3
		c-1.5,0.4-1.9,0.2-2.3-1.3c-0.4-1.3-0.4-2.6-0.1-3.9c0.2-0.9,0.6-1.1,1.6-0.8c0.7,0.2,1.1,0.1,1.3-0.7c0.1-0.6,0.2-1.2,0.2-1.7
		c0-6.8,0-13.7,0-20.5c0-0.8-0.1-1.5-0.3-2.3c-0.1-0.6-0.5-0.8-1.1-0.5c-0.9,0.4-1.4,0.2-1.6-0.8c-0.3-1.4-0.3-2.9,0.2-4.3
		c0.3-0.9,0.8-1.2,1.7-1c1.2,0.3,2.3,0.3,3.4,0c0.9-0.3,1.1-0.1,1.2,0.8c0.1,0.6,0.1,1.3,0.1,1.9c0,0.2,0.2,0.5,0.3,0.7
		c0.2-0.2,0.4-0.3,0.6-0.5c0.4-0.6,0.7-1.1,1.1-1.7c1.8-2.9,5.9-2.8,7.9-0.2c1.1,1.5,1.8,3.2,2.1,5c1.2,5.6,1.2,11.2-0.3,16.7
		c-0.4,1.5-1.1,2.9-2.1,4.2c-1.3,1.6-2.9,2-4.8,1.7c-0.4-0.1-0.8-0.4-1.2-0.6c-0.6-0.5-1.1-1.2-1.7-1.7
		C50.3,40.7,50.2,40.5,49.9,40.2z M56.6,28.6c-0.1-0.9-0.1-1.9-0.2-2.8c-0.2-1.6-0.6-3.1-1.6-4.3c-1-1.1-2.1-1.2-3.1-0.1
		c-0.4,0.4-0.7,0.9-0.9,1.4c-0.4,1.2-0.7,2.5-0.8,3.8c-0.3,2.4-0.2,4.8,0.6,7.1c0.3,0.9,0.7,1.7,1.5,2.4c0.8,0.7,1.7,0.7,2.4-0.1
		c0.6-0.7,1.2-1.5,1.5-2.3C56.4,32,56.5,30.3,56.6,28.6z"/>
	<path class="st0" d="M7.2,18.9c0.3-0.4,0.4-0.6,0.6-0.8c0.7-0.9,1.3-1.9,2.1-2.7c2.3-2.2,5.6-1.6,7.2,1.1c1,1.7,1.4,3.5,1.4,5.4
		c0.1,4.1,0.1,8.2,0.2,12.3c0,0.7,0.1,1.3,0.2,2c0.2,0.8,0.6,1,1.3,0.7c0.8-0.3,1-0.1,1.2,0.6c0.4,1.5,0.3,2.9-0.1,4.4
		c-0.3,0.9-0.5,1.1-1.5,1c-0.5,0-1.1-0.1-1.6-0.2c-1.1-0.3-2.2-0.2-3.3,0c-0.5,0.1-1.1,0.2-1.6,0.2c-0.9,0-1.3-0.2-1.4-1.1
		c-0.1-1.3-0.1-2.7-0.1-4c0-0.5,0.4-0.8,0.9-1c0.9-0.3,1.1-0.5,1.1-1.5c0-1.1,0-2.2,0-3.3c0-2.6,0-5.2-0.2-7.7
		c-0.1-0.9-0.4-1.8-0.9-2.6c-0.5-0.8-1.4-1-2.3-0.6c-1,0.5-1.7,1.3-2,2.3c-0.3,1.1-0.6,2.2-0.7,3.3c-0.1,2.3,0,4.7,0,7
		c0,0.6,0.1,1.1,0.1,1.7c0.1,0.7,0.4,1.2,1.1,1.4c0.6,0.1,0.9,0.5,0.9,1c0.2,1.3,0.3,2.5-0.1,3.8c-0.3,1-0.6,1.2-1.5,1.2
		c-0.5,0-0.9,0-1.4-0.2c-1.2-0.3-2.4-0.3-3.6,0c-0.6,0.1-1.2,0.1-1.7,0.2c-0.7,0.1-1.1-0.3-1.3-0.9c-0.6-1.6-0.6-3.2-0.1-4.8
		c0.2-0.7,0.7-0.8,1.5-0.5C2.5,37.1,2.8,37,3,36.3c0.2-0.6,0.3-1.1,0.3-1.7c0-3.9,0-7.7,0-11.6c0-0.6-0.1-1.2-0.3-1.7
		c-0.2-0.6-0.5-0.8-1.1-0.6c-1,0.4-1.4,0.2-1.6-0.9C0,18.4-0.1,17,0.5,15.6c0.4-0.9,0.8-1.2,1.7-0.9c1.2,0.4,2.3,0.2,3.4-0.1
		c0.9-0.2,1.1-0.1,1.2,0.8c0.1,0.8,0,1.6,0.1,2.4C6.9,18.1,7,18.4,7.2,18.9z"/>
	<path class="st0" d="M132.3,30.3c0,2.4,0.1,2.4,0.1,4.8c0,0.3,0.1,0.6,0.1,0.9c0.3,0.9,0.5,1,1.4,0.8c0.6-0.2,1,0,1.1,0.6
		c0.4,1.6,0.4,3.1-0.1,4.6c-0.2,0.6-0.6,1-1.3,0.9c-0.6-0.1-1.2-0.2-1.8-0.2c-0.9,0-1.9,0-2.8,0c-0.7,0-1.4,0.1-2.1,0.2
		c-0.7,0.1-1.1-0.3-1.3-0.9c-0.4-1.4-0.4-2.9,0-4.3c0.1-0.3,0.5-0.6,0.8-0.8c0.8-0.3,1.1-0.6,1.2-1.4c0-3.4,0-6.9,0-10.3
		c0-0.9-0.2-1.7-0.5-2.6c-0.6-1.7-2.3-2.1-3.6-0.9c-1.1,1-1.7,2.4-1.8,3.8c-0.1,2.7-0.1,5.4-0.1,8.1c0,0.6,0,1.2,0.1,1.7
		c0,0.7,0.3,1.2,1,1.4c0.8,0.2,1.2,0.8,1.2,1.5c0,1.2-0.1,2.4-0.2,3.5c-0.1,0.7-0.6,1.1-1.4,1c-0.6-0.1-1.2-0.1-1.8-0.2
		c-1-0.2-2-0.2-3,0c-0.7,0.1-1.3,0.1-2,0.2c-0.7,0.1-1.1-0.3-1.3-0.8c-0.6-1.6-0.6-3.2-0.1-4.8c0.2-0.6,0.7-0.7,1.4-0.5
		c0.7,0.3,1.1,0.1,1.3-0.6c0.1-0.6,0.2-1.2,0.2-1.7c0-3.6,0-7.1,0-10.7c0-0.8-0.1-1.6-0.2-2.3c-0.1-0.7-0.5-0.9-1.2-0.6
		c-0.9,0.3-1.3,0.2-1.5-0.8c-0.3-1.4-0.4-2.8,0.1-4.2c0.3-1.1,0.8-1.4,1.9-1c1.2,0.4,2.3,0.2,3.4-0.1c1-0.2,1.2,0,1.2,1
		c0,0.8,0,1.5,0,2.3c0,0.2,0.2,0.5,0.4,0.7c0.2-0.2,0.4-0.3,0.5-0.5c0.7-0.9,1.3-1.9,2.1-2.7c2.3-2.3,5.7-1.8,7.3,1
		c1,1.8,1.4,3.8,1.5,5.9c0.1,1.9,0,3.7,0,5.6C132.3,27.9,132.3,30.3,132.3,30.3z"/>
	<path class="st0" d="M34.7,39.8c-0.4,0.5-0.7,0.8-0.9,1.2c-1.5,2-3.6,2.7-6,2.3c-1.9-0.3-3-1.5-3.7-3.2c-1.2-3.1-1.2-6.2-0.3-9.3
		c0.5-1.5,1.5-2.7,2.9-3.3c1-0.4,2.1-0.7,3.1-1.1c0.8-0.3,1.7-0.6,2.4-1.2c2.2-1.6,2-5.4-0.4-6.5c-1.1-0.5-2-0.1-2.2,1.1
		c-0.1,0.7-0.1,1.3-0.1,2c-0.1,1.7-1.2,2.8-2.7,2.6c-1.1-0.1-1.8-0.9-2.1-1.8c-0.6-1.7-0.6-3.4,0-5.1c0.6-1.8,1.9-2.8,3.6-3.3
		c2-0.6,4-0.6,6-0.1c1.9,0.4,3.1,1.6,3.6,3.5c0.4,1.4,0.6,2.9,0.7,4.3c0.1,4.1,0,8.2,0,12.3c0,0.4,0,0.7,0,1.1
		c0.1,1.2,0.4,1.5,1.6,1.5c0.5,0,0.8,0.2,1,0.6c0.6,1.3,0.6,2.7,0.1,4.1c-0.4,1-1,1.8-2.1,1.9c-1.3,0.2-2.6,0.1-3.5-1.2
		c-0.3-0.5-0.5-1-0.7-1.5C35,40.4,34.9,40.2,34.7,39.8z M33.7,30.2c-1.1,0.5-2.2,0.9-3.2,1.3c-0.3,0.1-0.5,0.2-0.8,0.3
		c-1,0.5-1.5,1.3-1.5,2.4c0,1.2,0.6,2.3,1.6,2.7c0.9,0.3,2,0,2.8-0.9c0.2-0.3,0.4-0.6,0.6-0.9c0.8-1.5,0.8-3.1,0.7-4.7
		C33.8,30.3,33.7,30.2,33.7,30.2z"/>
	<path class="st0" d="M105.8,39.7c-0.5,0.6-0.8,1-1.2,1.5c-1.5,1.9-3.6,2.4-5.9,2c-1.5-0.2-2.6-1.2-3.2-2.5
		c-1.6-3.4-1.7-6.9-0.5-10.3c0.7-2.1,2.6-3,4.5-3.7c1.2-0.4,2.4-0.8,3.5-1.4c2.3-1.2,2.4-4.6,0.7-6.1c-0.3-0.3-0.7-0.5-1.1-0.6
		c-1-0.3-1.8,0.3-1.9,1.3c0,0.7-0.1,1.4-0.1,2.1c-0.2,1.3-1,2.2-2.1,2.4c-1.2,0.1-2.2-0.5-2.6-1.8c-0.7-1.9-0.7-3.9,0.2-5.8
		c0.8-1.8,2.5-2.6,4.3-2.9c1.7-0.3,3.4-0.2,5.1,0.2c1.5,0.4,2.6,1.4,3.2,2.8c0.6,1.4,0.9,2.8,0.9,4.3c0,4.2,0,8.5,0,12.7
		c0,0.5,0,1.1,0.1,1.6c0.1,0.8,0.5,1.1,1.2,1c0.8-0.1,1.2,0.2,1.4,0.9c0.5,1.3,0.5,2.6,0,3.9c-0.4,1-1,1.7-2.1,1.8
		c-1.3,0.1-2.6,0.1-3.4-1.1c-0.3-0.5-0.5-1.1-0.8-1.6C106,40.3,106,40.1,105.8,39.7z M104.6,30.1c-0.6,0.3-1,0.7-1.5,0.9
		c-0.5,0.2-1.1,0.4-1.7,0.6c-0.1,0.1-0.3,0.1-0.4,0.2c-1.8,0.8-2.4,2.6-1.4,4.3c0.6,0.9,1.6,1.3,2.6,0.9c1.1-0.4,1.7-1.2,2.2-2.2
		c0.6-1.3,0.5-2.8,0.4-4.2C104.8,30.4,104.7,30.3,104.6,30.1z"/>
	<path class="st0" d="M170.6,20.6c-0.5,0-1.1,0-1.6,0c-0.7,0-1.2,0.4-1.2,1.1c0,0.7,0,1.4,0.1,2c0.1,0.9-0.1,1.6-0.5,2.4
		c-0.3,0.6-0.8,0.8-1.5,0.8c-0.6-0.1-1-0.5-1.1-1c-0.2-0.8-0.3-1.6-0.3-2.4c0-2.2,0-4.4,0-6.7c0-2,0.2-2.2,2.2-2.2
		c2.5,0.1,5.1,0.2,7.6,0.2c1,0,2.1-0.1,3.1-0.2c1.6-0.2,2.3,0.3,2.6,1.9c0.4,2,0.1,3.9-0.9,5.7c-2.6,4.5-5.1,9.1-7.7,13.7
		c-0.5,0.8-0.4,0.9,0.5,0.9c1.1,0,2.1,0,3.2-0.1c1.3-0.2,1.9-1,1.8-2.3c0-0.9-0.1-1.7,0-2.6c0-0.5,0.2-0.9,0.4-1.3
		c0.5-1,1.8-1.1,2.5-0.1c0.7,1.1,0.6,2.3,0.6,3.4c0,2.3,0,4.6,0,6.9c0,0.2,0,0.4,0,0.5c-0.1,1.6-0.3,1.8-1.9,1.7
		c-2.2-0.1-4.3-0.3-6.5-0.4c-1.5,0-3,0.2-4.5,0.3c-0.4,0-0.9,0.1-1.3,0.1c-1.1,0-1.5-0.3-1.8-1.4c-0.5-1.8-0.2-3.6,0.7-5.2
		c2.7-4.9,5.4-9.7,8.1-14.6c0.5-0.9,0.4-1-0.6-1C171.6,20.7,171.1,20.7,170.6,20.6C170.6,20.7,170.6,20.6,170.6,20.6z"/>
	<path class="st0" d="M147.1,30c-1.4,0-2.8,0-4.2,0c-1.1,0-1.5,0.4-1.5,1.5c0,1.3,0.2,2.5,0.8,3.7c0.1,0.2,0.2,0.5,0.4,0.7
		C144,38,146,38,147.4,36c0.5-0.6,0.9-1.3,1.3-2c0.4-0.7,1-1,1.8-0.9c0.8,0.1,1.3,0.6,1.5,1.3c0.7,2.1,0.3,4.1-0.8,6
		c-2.5,4.3-9,4.7-11.9,0.5c-1.4-2-2.2-4.2-2.5-6.6c-0.7-5.1-0.7-10.1,1.2-14.9c0.8-2,2-3.8,3.9-4.8c2.7-1.4,6.1-0.9,8.1,1.9
		c1.5,2.1,2.2,4.4,2.4,6.9c0.1,1.8,0.1,3.6,0,5.4c0,1.1-0.3,1.3-1.4,1.3C149.7,30,148.4,30,147.1,30z M144.7,24.5c0.6,0,1.2,0,1.8,0
		c0.9,0,1.3-0.5,1.3-1.4c-0.1-1.3-0.6-2.5-1.7-3.3c-0.8-0.5-1.6-0.6-2.4,0c-1.1,0.7-1.8,1.8-2,3.1c-0.2,1,0.3,1.6,1.3,1.6
		C143.5,24.6,144.1,24.5,144.7,24.5z"/>
	<path class="st0" d="M265.6,28.8c0,3.1-0.3,6.1-1.4,9c-0.3,0.9-0.8,1.9-1.3,2.7c-2.5,4.4-9.1,4.3-11.7,0.3c-1.3-1.9-2-4-2.3-6.3
		c-0.7-4.1-0.7-8.3,0.2-12.4c0.4-1.5,0.9-3.1,1.6-4.5c1.2-2.4,3.2-3.7,5.9-3.9c2.5-0.1,4.6,0.8,6,2.9c1.5,2.1,2.2,4.6,2.6,7.2
		C265.4,25.5,265.4,27.1,265.6,28.8z M260.6,29.6c0,0,0.1-0.7,0-0.8c-0.1-1.1-0.1-2.2-0.2-3.3c-0.2-1.4-0.4-2.7-1.2-3.9
		c-1.3-1.8-2.9-2-4.3-0.2c-0.4,0.5-0.6,1-0.8,1.5c-1.1,3.4-1.1,6.8-0.4,10.2c0.2,1.3,0.7,2.5,1.6,3.4c1.1,1.1,2.5,1.1,3.5-0.1
		c0.6-0.7,1-1.6,1.2-2.4C260.4,32.3,260.4,31.3,260.6,29.6z"/>
	<path class="st0" d="M232.2,28.8c0,3.3-0.4,6.5-1.6,9.6c-0.6,1.6-1.5,3-2.9,4.1c-2.4,1.9-7.3,1.8-9.5-1.1c-1.6-2.1-2.4-4.6-2.8-7.2
		c-0.4-2.9-0.5-5.7-0.3-8.6c0.3-3,0.8-6,2.5-8.6c2.6-4,8.8-4.5,11.7-0.1c1.4,2.2,2.1,4.7,2.4,7.3C232.1,25.7,232.1,27.3,232.2,28.8z
		 M227.4,28.7c-0.1-1.3-0.2-2.5-0.4-3.8c-0.2-1.4-0.5-2.8-1.6-3.9c-1.1-1.1-2.4-1.1-3.4,0c-0.6,0.6-1.1,1.4-1.3,2.2
		c-1,3.3-1,6.7-0.3,10.1c0.2,1.2,0.7,2.4,1.6,3.3c1,0.9,2.3,1,3.2,0c0.6-0.6,1.1-1.5,1.3-2.3C227.2,32.5,227.3,30.6,227.4,28.7z"/>
	<path class="st0" d="M87.8,16.2c0.1-0.4,0.1-0.8,0.2-1.2c0.2-0.9,0.6-1.3,1.5-1.2c0.9,0,1.3,0.4,1.3,1.4c0,1.7-0.2,3.3-0.2,5
		c0,0.8,0,1.7,0,2.5c0,0.9-0.4,1.4-1,1.5c-0.9,0.2-1.5-0.1-2-0.9c-0.2-0.4-0.4-0.9-0.7-1.3c-0.4-0.6-0.7-1.3-1.2-1.8
		c-1.1-1.1-2.3-1.1-3.4,0c-1,1.1-1.1,2.7,0,3.6c0.5,0.4,1.1,0.7,1.7,0.9c1,0.4,2.1,0.6,3.1,1c2.4,0.9,3.9,2.5,4.3,5.1
		C92,33.7,92,36.4,91,39c-0.6,1.7-1.6,3.2-3.2,4.1c-2.1,1.2-5.3,1-7.3-1.5c-0.3-0.4-0.6-0.7-1-1.1c-0.1,0-0.1,0-0.2,0
		c-0.1,0.5-0.2,1.1-0.2,1.6c-0.1,0.9-0.5,1.3-1.3,1.3c-0.8,0-1.2-0.3-1.4-1.1c-0.1-0.7-0.1-1.3-0.1-2c0-1.7,0-3.5,0-5.2
		c0-0.5,0-0.9,0.1-1.4c0.1-0.7,0.4-1.3,1.2-1.5c1-0.2,1.6,0.1,2.1,0.9c0.4,0.8,0.8,1.6,1.2,2.4c0.7,1.2,1.6,2,3,2.2
		c1.2,0.2,2.5-0.6,3-1.8c0.5-1.3,0.2-2.6-1-3.2c-0.9-0.5-1.8-0.8-2.7-1.1c-0.9-0.4-1.9-0.7-2.7-1.1c-1.5-0.7-2.4-2-2.7-3.6
		c-0.7-2.9-0.6-5.8,0.3-8.7c0.3-0.9,0.7-1.7,1.2-2.4c1.9-2.6,5.5-2.8,7.7-0.4c0.3,0.3,0.5,0.6,0.8,0.8
		C87.7,16.2,87.7,16.2,87.8,16.2z"/>
	<path class="st0" d="M192,17.9c0.1-0.7,0.2-1.5,0.4-2.2c0.3-1,0.8-1.3,1.8-1c2,0.6,3.9,0.3,5.9,0c1.5-0.3,2.1,0.1,2.2,1.6
		c0.1,1,0,2-0.1,3c0,0.5-0.2,0.9-0.8,1.1c-1.1,0.4-1.3,0.8-1.2,2c0.3,1.6,0.6,3.1,0.9,4.7c0.5,2.9,1.1,5.8,1.7,8.7
		c0.1,0.3,0.3,0.5,0.4,0.8c0.2-0.3,0.4-0.5,0.5-0.8c0.8-3.9,1.6-7.9,2.5-11.8c0.1-0.5,0.2-1.1,0.3-1.6c0.1-0.7-0.1-1.4-0.8-1.7
		c-1-0.4-1.3-1.1-1.3-2c0-0.9,0-1.8,0.1-2.7c0.2-1.2,0.8-1.5,2-1.3c1,0.1,2,0.3,3.1,0.3c0.9,0,1.8-0.2,2.7-0.3c1-0.2,1.5,0.1,1.7,1
		c0.4,1.5,0.4,2.9,0,4.4c-0.2,0.7-0.6,1-1.3,0.8c-0.7-0.2-1,0.1-1.2,0.6c-0.3,0.7-0.5,1.4-0.7,2.1c-1.2,5.2-2.4,10.4-3.7,15.6
		c-0.3,1.1-0.8,2.1-1.2,3.1c-0.2,0.5-0.6,0.6-1.1,0.6c-1.3,0-2.5,0-3.8,0c-0.7,0-1.1-0.4-1.3-0.9c-0.4-1.2-0.8-2.5-1.1-3.7
		c-1.2-5.2-2.4-10.4-3.5-15.6c-0.1-0.4-0.3-0.8-0.4-1.1c-0.3-0.5-0.6-0.8-1.3-0.6c-0.6,0.2-1.1-0.1-1.2-0.8
		C192.2,19.4,192.1,18.7,192,17.9z"/>
	<path class="st0" d="M240.2,32.4c0.1,1.1-0.1,1.8,0.1,2.9c0.1,0.5,0.4,1.1,0.8,1.5c0.5,0.6,1.3,0.5,1.6-0.2
		c0.3-0.7,0.5-1.5,0.6-2.3c0.1-1.3,0.1-2.7,0.2-4c0-0.5,0.3-1,0.9-1.2c0.6-0.2,1.2,0,1.5,0.6c0.3,0.6,0.5,1.3,0.6,2
		c0.4,2.9,0.3,5.8-0.7,8.6c-0.6,1.6-1.6,3-3.4,3.3c-3.1,0.5-4.9-0.2-6-3.1c-0.8-2.1-0.9-4.3-0.9-6.5c0-3.9,0.1-7.9,0.2-11.8
		c0-0.2,0-0.4,0-0.5c-0.1-1.1-0.5-1.5-1.6-1.5c-0.5,0-0.8-0.2-1-0.7c-0.5-1.4-0.5-2.7,0-4.1c0.2-0.4,0.5-0.7,1-0.7
		c1.3-0.1,1.7-0.5,1.8-1.8c0.1-1.6,0-3.3,0.1-4.9c0.1-1.4,0.7-2,2.2-2c1.7,0,2,0.1,2.1,2.1c0.1,1.4,0,2.9,0,4.3c0,0.3,0,0.5,0,0.8
		c0.2,1.1,0.6,1.5,1.7,1.5c0.9,0,1.7,0,2.6,0c0.6,0,1,0.3,1.2,0.9c0.4,1.2,0.4,2.5,0,3.7c-0.2,0.5-0.5,0.9-1.1,0.8
		c-0.9,0-1.8,0-2.7,0c-1.1,0-1.6,0.5-1.6,1.7c0,2,0,4,0,6c0,1.4,0,2.8,0,4.2C240.2,32,240.3,32.4,240.2,32.4z"/>
	<path class="st0" d="M189.9,25.5c0,2.9,0,5.8,0,8.8c0,0.7,0.1,1.3,0.3,2c0.2,0.7,0.5,0.8,1.2,0.6c0.8-0.3,1.1-0.1,1.3,0.7
		c0.3,1.4,0.3,2.8-0.1,4.2c-0.3,1-0.5,1.2-1.5,1.1c-0.7,0-1.4-0.1-2-0.2c-1.5-0.3-2.9-0.2-4.4,0.1c-1.9,0.4-2.5,0-2.7-1.9
		c-0.1-1.1,0-2.2,0.1-3.3c0.1-0.9,0.6-1.1,1.5-0.8c0.7,0.3,1.1,0.1,1.2-0.7c0.2-0.9,0.2-1.8,0.2-2.7c0-3.4,0-6.8,0-10.2
		c0-0.6-0.1-1.3-0.3-1.9c-0.2-0.6-0.5-0.8-1.1-0.5c-1,0.4-1.4,0.2-1.6-0.8c-0.4-1.4-0.3-2.9,0.2-4.3c0.3-0.9,0.9-1.2,1.8-1
		c1.6,0.4,3.1,0.5,4.6,0c0.7-0.2,1,0,1.1,0.7c0.1,0.7,0.1,1.3,0.1,2C190,20.1,189.9,22.8,189.9,25.5z"/>
	<path class="st0" d="M71.6,25.2c0,2.9,0,5.8,0,8.7c0,0.7,0.1,1.5,0.3,2.2c0.2,0.8,0.6,1,1.4,0.7c0.7-0.2,1-0.1,1.2,0.6
		c0.4,1.5,0.3,3.1-0.1,4.6c-0.2,0.6-0.6,1-1.3,0.9c-0.7-0.1-1.4-0.1-2.1-0.2c-1.5-0.3-2.9-0.2-4.4,0.1c-1.9,0.4-2.5,0-2.7-1.9
		c-0.1-1.1,0-2.2,0.1-3.3c0.1-0.9,0.7-1.1,1.5-0.8c0.7,0.3,1.1,0.1,1.3-0.7c0.2-0.8,0.3-1.6,0.3-2.5c0-3.1,0-6.2,0-9.4
		c0-0.9-0.1-1.9-0.3-2.8c-0.2-0.8-0.5-1-1.3-0.7c-0.9,0.3-1.4,0.1-1.5-0.8c-0.1-1.3-0.2-2.6,0-3.9c0.2-1.3,0.8-1.6,2.1-1.4
		c1.4,0.3,2.8,0.4,4.3,0c1.1-0.3,1.4,0,1.4,1.1C71.6,19,71.6,22.1,71.6,25.2C71.6,25.2,71.6,25.2,71.6,25.2z"/>
	<path class="st0" d="M178.7,3c0.1,1.1-0.4,2.1-1.2,2.8c-1.3,1.2-2.5,2.3-3.9,3.4C172.7,10,172,10,171,9.3c-1.6-1.2-3.2-2.5-4.8-3.9
		c-1-0.9-1.1-3.6-0.4-4.7c0.3-0.5,0.7-0.4,1.1-0.2c0.6,0.2,1.1,0.5,1.7,0.8c1,0.6,2,1.2,3,1.8c0.4,0.2,0.7,0.2,1,0
		c1.2-0.7,2.3-1.4,3.5-2.2c0.2-0.1,0.4-0.2,0.6-0.3c0.9-0.4,1.3-0.2,1.6,0.7c0.1,0.3,0.2,0.6,0.2,0.9C178.6,2.4,178.6,2.7,178.7,3z"
		/>
	<path class="st0" d="M74.1,3.6c0,1.3-0.5,2.2-1.5,2.9c-1.4,0.9-2.9,1.9-4.4,2.8c-1.5,0.8-2.1,0.5-2.5-1.1c-0.4-1.6-0.1-3.1,1.2-4.2
		c1.2-1,2.4-2.1,3.6-3.2c1.6-1.4,2.6-1.1,3.2,0.9C73.9,2.4,74,3,74.1,3.6z"/>
	<path class="st0" d="M150.8,3.6c0,1.1-0.3,2.1-1.2,2.7c-1.5,1.1-3.1,2.1-4.7,3c-1.4,0.8-2,0.5-2.4-1.1c-0.4-1.6-0.2-3,1.2-4.2
		c1.2-1,2.4-2.2,3.6-3.2c1.6-1.4,2.7-1,3.2,1C150.6,2.4,150.7,3,150.8,3.6z"/>
	<path class="st0" d="M184.5,6.8c0-1.2,0.2-2.6,1-3.8c0.9-1.4,2.6-1.4,3.5-0.1c1.5,2,1.4,5.8,0,7.9c-0.8,1.2-2.7,1.2-3.5,0
		C184.9,9.7,184.6,8.5,184.5,6.8z"/>
</g>
</svg>
