<?xml version="1.0" encoding="utf-8"?>
<!-- Generator: Adobe Illustrator 16.0.0, SVG Export Plug-In . SVG Version: 6.00 Build 0)  -->
<!DOCTYPE svg PUBLIC "-//W3C//DTD SVG 1.1//EN" "http://www.w3.org/Graphics/SVG/1.1/DTD/svg11.dtd" [
	<!ENTITY ns_flows "http://ns.adobe.com/Flows/1.0/">
	<!ENTITY ns_extend "http://ns.adobe.com/Extensibility/1.0/">
	<!ENTITY ns_ai "http://ns.adobe.com/AdobeIllustrator/10.0/">
	<!ENTITY ns_graphs "http://ns.adobe.com/Graphs/1.0/">
]>
<svg version="1.1" id="Vrstva_1" xmlns:x="&ns_extend;" xmlns:i="&ns_ai;" xmlns:graph="&ns_graphs;"
	 xmlns="http://www.w3.org/2000/svg" xmlns:xlink="http://www.w3.org/1999/xlink" xmlns:a="http://ns.adobe.com/AdobeSVGViewerExtensions/3.0/"
	 x="0px" y="0px" width="296.8px" height="94.7px" viewBox="0 0 296.8 94.7" style="enable-background:new 0 0 296.8 94.7;"
	 xml:space="preserve">
<style type="text/css">
<![CDATA[
	.st0{fill:#FFFFFF;}
]]>
</style>
<g>
	<path class="st0" d="M82.8,39.5c-0.1-0.4-0.1-0.7-0.2-1.1c-0.1-0.2-0.2-0.5-0.3-0.8c-0.1-0.2-0.2-0.5-0.2-0.6
		c-0.2-0.5-0.3-1.1-0.4-1.6c-0.1-0.6-0.2-1.2-0.4-1.8c-0.1-0.4-0.2-0.7-0.3-1.1c-0.2-0.4-0.3-0.8-0.4-1.3c-0.2-0.5-0.4-1.1-0.6-1.6
		c-0.4-1.3-0.7-2.6-1.1-3.9c-0.3-1.3-0.8-2.7-1-4.1c-0.2-1.1-0.3-2.3-0.6-3.4c-0.2-0.6-0.4-1.2-0.6-1.8c-0.4-1.1-0.7-2.2-1-3.3
		c-0.2-0.7-0.3-1.3-0.4-2c-0.1-0.4-0.2-0.8-0.3-1.1l-0.2-0.9c-0.1-0.3-0.2-0.5-0.2-0.8c-0.5-1.9-0.7-2.3-1.5-3.2
		c-0.3-0.4-0.5-0.5-0.7-0.6c-0.3-0.2-0.6-0.3-1.3-0.4c-0.6-0.1-1.2-0.2-1.7-0.2c-0.8,0-1.4,0.1-1.8,0.1c-0.7,0-1.4-0.1-2.2-0.2
		c-0.4,0-0.8-0.1-1.1-0.1c-0.5,0-0.7,0-1.1,0.1c-0.3,0-0.6,0-0.8,0.1h-1.3h0c-0.4,0.1-0.9,0.1-1.4,0.1c-0.4,0-0.8,0-1.2,0
		c-1.2,0-2.4-0.1-3.6-0.1c-0.1,0-0.3,0-0.4,0c-0.8,0-1.2,0-2.1,0.5C51.2,5.2,51,6,50.5,7.6c-0.2,0.6-0.4,1.2-0.6,1.8
		c-0.2,0.8-0.3,1.5-0.6,2.3L48.8,13c-0.2,0.6-0.4,1.2-0.6,1.8c-0.2,0.6-0.4,1.2-0.6,1.8c-0.2,0.5-0.3,1.1-0.4,1.6
		c-0.1,0.7-0.3,1.4-0.6,2.1c-0.4,1.3-0.9,2.5-1.3,3.8c-0.4,1.6-0.6,3.2-0.9,4.7c-0.4,1.5-1,3-1.4,4.5c-0.2,0.6-0.3,1.1-0.4,1.7
		c-0.1,0.7-0.3,1.4-0.5,2.1c-0.2,0.8-0.3,1.6-0.6,2.4c-0.3,0.9-0.7,1.4-0.8,2.4c-0.1,0.4-0.1,0.9-0.1,1c0,0.8,0.2,1.5,0.8,1.9
		c0.2,0.2,0.5,0.2,0.8,0.3c0.6,0.2,1,0.2,1.4,0.2c0.4,0,0.8-0.1,1.4-0.1c0.7,0,1.4,0,2.1,0c0,0,0,0,0,0c0.9-0.1,1.8-0.1,2.7-0.1H51
		c0.6,0.1,1.1,0.1,1.7,0.1c0,0,0,0,0,0c0,0,0,0,0,0c1.2,0.1,1.8-0.6,2.1-1.1c0.3-0.4,0.4-0.7,0.7-1.6c0.6-1.4,0.9-1.6,1.7-1.9
		c0.5-0.2,1.1-0.2,1.3-0.2c0.4,0,0.8,0,1.1,0.1c0.9,0.1,1.7,0.2,2.6,0.2c0,0,0,0,0,0c0,0,0,0,0,0c0.9,0,1.9-0.3,2.9-0.3
		c0.9,0,1.4,0.4,1.7,0.6c0.3,0.4,0.8,1.2,1.3,2.3c0.3,0.8,0.6,1.6,1.6,1.9c0.6,0.2,1.2,0.2,1.9,0.2c0.2,0,0.4,0,0.6,0
		c0.8,0,1.5,0.1,2.3,0.1c0,0,0,0,0,0c0,0,0,0,0,0c1.1,0.1,2.2-0.2,3.2-0.2c0.2,0,0.4,0,0.6,0c0.2,0,0.4,0,0.7,0c1.3,0,2.7,0,3.6-1
		c0.4-0.5,0.8-1.1,0.8-2.5C83.3,40.9,83,40.5,82.8,39.5z M62.3,27.4L62.3,27.4h-1.2h0c0,0-0.1,0-0.2,0c-0.5,0-1.8,0-1.8-1.5
		c0-0.6,0.3-1.5,0.7-2.7c0.3-1.1,0.4-2.2,0.7-3.2c0.4-1.2,0.7-1.9,1.4-1.9c0.1,0,0.7,0.1,0.9,0.5c0.2,0.3,0.4,1.3,0.6,1.6
		c0.2,0.6,0.4,1.2,0.6,1.9c0.2,0.6,0.2,1.3,0.4,2c0.1,0.6,0.4,1.5,0.4,2.2c0,1.1-0.8,1.2-1.2,1.2c-0.1,0-0.3,0-0.3,0
		C63,27.4,62.8,27.4,62.3,27.4z"/>
	<path class="st0" d="M143.9,13.4c0,1.7-0.2,3.3-0.2,5c-0.1,1.9-0.2,3.7-0.2,5.6c-0.1,2,0.1,4,0.1,6c0,1.9,0.2,3.7,0.1,5.6
		c-0.1,1.1-0.3,2.1-0.3,3.1c-0.1,0.7-0.1,1.4-0.1,2.1c-0.1,0.6-0.2,1.2-0.2,1.8c0,1.4,0.6,2,1.1,2.4c0.7,0.5,1.3,0.5,1.6,0.5
		c0,0,0,0,0,0c0,0,0,0,0,0c0.4,0,0.8,0,1.2,0c0.6,0,1.3-0.1,1.9-0.1c1.1,0,2.2,0.1,3.3,0.1c0,0,0,0,0,0c0,0,0,0,0,0
		c0.8,0,1.6-0.1,2.3-0.1c0.7,0,1.4,0.1,2,0.1c0,0,0,0,0,0c0,0,0,0,0,0c1.2,0,1.9-0.8,2.1-1.2c0.1-0.3,0.2-1,0.2-1.3
		c0-0.8-0.2-1.6-0.2-2.4c-0.1-0.9,0.1-1.7,0.1-2.6c0-0.8,0.1-1.7,0-2.5c0-0.6-0.1-1.2-0.1-1.7c0-1.1,0-1.5,0.5-1.8
		c0.2-0.1,0.4-0.2,0.4-0.2c0.7,0,1.1,0.9,1.4,1.3c0.2,0.4,0.6,0.8,0.8,1.2c0.2,0.3,0.4,0.7,0.6,1l0.3,0.5c0.3,0.5,0.7,0.9,1.1,1.4
		c0.4,0.5,0.9,1.1,1.3,1.7c0.8,1.4,1,2,2.8,4.1c0.3,0.4,0.7,0.7,1.1,1.1c0.5,0.5,0.6,0.8,0.9,0.9c0.7,0.4,1.6,0.4,2.3,0.4
		c0.3,0,0.7,0.1,1.1,0.1c0,0,0,0,0,0s0,0,0,0c0.4,0,0.9,0,1.3-0.1c0.9-0.1,1.9-0.1,2.9-0.1c0.9,0,1.7,0.2,2.5,0.2c0,0,0,0,0,0
		c0,0,0,0,0,0c1.7,0,2.9-0.8,2.9-2.6c0-0.9-0.2-1.9-0.3-2.7c-0.1-1.1,0-2,0-3.1v-2.4c0-1.7,0.1-3.3,0-5c-0.1-1.5-0.3-3.1-0.3-4.6
		c0-0.9,0.1-1.9,0.2-2.8c0.1-1.3,0.1-2.6,0.1-3.9v-1.8c0-1.1-0.2-2.2-0.1-3.3c0.1-0.8,0.2-1.6,0.2-2.4c0.1-0.4,0.1-0.9,0.1-1.3
		c0-0.6,0.1-1.2,0.1-1.8c0-1.7-0.5-2.5-1.1-3c-0.4-0.4-0.7-0.5-1.8-0.8c-0.5-0.1-0.9-0.1-1.3-0.1c-1.2,0-2.2,0.2-3.7,0.2
		c-0.6,0-1.1-0.1-1.7-0.1c-0.8-0.1-1.6-0.1-2.3-0.1c0,0,0,0,0,0c0,0,0,0,0,0c-1.3,0-2.1,0.1-2.9,1.2c-0.5,0.7-0.6,1.4-0.6,1.8
		c0,0.5,0.1,1.1,0.1,1.7c0.1,0.8,0.1,1.5,0.1,2.3c0,1.1-0.1,2.2,0,3.2c0.1,1,0.2,2,0.1,2.3c-0.1,0.4-0.4,0.7-0.8,0.7
		c-0.9,0-1.2-0.8-1.3-0.9c-0.2-0.2-0.3-0.4-0.5-0.6c-0.2-0.2-0.3-0.5-0.4-0.8c-0.3-0.4-0.6-0.8-0.9-1.2c-0.2-0.3-0.3-0.6-0.5-0.9
		c-0.4-0.9-0.3-0.9-0.7-1.4l-0.7-0.9c-0.7-0.9-1.1-1.9-1.3-2.3c-0.2-0.5-0.6-0.9-0.8-1.3c-0.6-1.1-0.5-1.1-1.4-1.9
		c-0.4-0.4-1-0.8-2.3-0.9c-0.2,0-0.5,0-0.7,0c-0.7,0-1.4,0.1-2.1,0.1C151.8,4,150.4,4,148.9,4c-0.4,0-1.3-0.1-2.1-0.1
		c-0.9,0-1.7,0-2.1,0.2c-0.7,0.4-0.9,1.1-1.1,1.3c-0.2,0.6-0.3,1.2-0.3,1.9c0,1.5,0.4,3.6,0.4,3.7C143.8,11.5,143.9,12.4,143.9,13.4
		z"/>
	<path class="st0" d="M215.1,45.4c0.8,0,1.5,0.1,2.3,0.1c0,0,0,0,0,0h0c1.1,0.1,2.2-0.2,3.2-0.2c0.2,0,0.4,0,0.6,0
		c0.2,0,0.4,0,0.7,0c1.3,0,2.7,0,3.6-1c0.4-0.5,0.8-1.1,0.8-2.5c0-1-0.3-1.4-0.5-2.4c-0.1-0.4-0.1-0.7-0.2-1.1
		c-0.1-0.2-0.2-0.5-0.3-0.8c-0.1-0.2-0.2-0.5-0.2-0.6c-0.2-0.5-0.3-1.1-0.4-1.6c-0.1-0.6-0.2-1.2-0.4-1.8c-0.1-0.4-0.2-0.7-0.3-1.1
		c-0.2-0.4-0.3-0.8-0.4-1.3c-0.2-0.5-0.4-1.1-0.6-1.6c-0.4-1.3-0.7-2.6-1.1-3.9c-0.3-1.3-0.8-2.7-1-4.1c-0.2-1.1-0.3-2.3-0.6-3.4
		c-0.2-0.6-0.4-1.2-0.6-1.8c-0.4-1.1-0.7-2.2-1-3.3c-0.2-0.7-0.3-1.3-0.4-2c-0.1-0.4-0.2-0.8-0.3-1.1l-0.2-0.9
		c-0.1-0.3-0.2-0.5-0.2-0.8c-0.5-1.9-0.7-2.3-1.5-3.2c-0.3-0.4-0.5-0.5-0.7-0.6c-0.3-0.2-0.6-0.3-1.3-0.4c-0.6-0.1-1.2-0.2-1.6-0.2
		c-0.8,0-1.4,0.1-1.9,0.1c-0.7,0-1.4-0.1-2.2-0.2c-0.4,0-0.8-0.1-1-0.1c-0.5,0-0.7,0-1.1,0.1c-0.3,0-0.6,0-0.8,0.1h-1.3h0
		c-0.4,0.1-0.9,0.1-1.4,0.1c-0.4,0-0.8,0-1.2,0c-1.2,0-2.4-0.1-3.6-0.1c-0.1,0-0.3,0-0.4,0c-0.8,0-1.2,0-2.1,0.5
		c-1.4,0.7-1.7,1.5-2.2,3.1c-0.2,0.6-0.4,1.2-0.6,1.8c-0.2,0.8-0.3,1.5-0.6,2.3l-0.5,1.4c-0.2,0.6-0.4,1.2-0.6,1.8
		c-0.2,0.6-0.4,1.2-0.6,1.8c-0.2,0.5-0.3,1.1-0.4,1.6c-0.1,0.7-0.3,1.4-0.6,2.1c-0.4,1.3-0.9,2.5-1.3,3.8c-0.4,1.6-0.6,3.2-0.9,4.7
		c-0.4,1.5-1,3-1.4,4.5c-0.2,0.6-0.3,1.1-0.4,1.7c-0.1,0.7-0.3,1.4-0.5,2.1c-0.2,0.8-0.3,1.6-0.6,2.4c-0.3,0.9-0.7,1.4-0.8,2.4
		c-0.1,0.4-0.1,0.9-0.1,1c0,0.8,0.2,1.5,0.8,1.9c0.2,0.2,0.5,0.2,0.8,0.3c0.6,0.2,1,0.2,1.4,0.2c0.4,0,0.8-0.1,1.4-0.1
		c0.7,0,1.4,0,2.1,0c0,0,0,0,0,0c0.9-0.1,1.8-0.1,2.7-0.1h1.2c0.6,0.1,1.1,0.1,1.7,0.1c0,0,0,0,0,0c0,0,0,0,0,0
		c1.2,0.1,1.8-0.6,2.1-1.1c0.3-0.4,0.4-0.7,0.7-1.6c0.6-1.4,0.9-1.6,1.7-1.9c0.5-0.2,1.1-0.2,1.3-0.2c0.4,0,0.8,0,1.1,0.1
		c0.9,0.1,1.7,0.2,2.6,0.2c0,0,0,0,0,0c0,0,0,0,0,0c0.9,0,1.9-0.3,2.9-0.3c0.9,0,1.4,0.4,1.7,0.6c0.3,0.4,0.8,1.2,1.3,2.3
		c0.3,0.8,0.6,1.6,1.6,1.9c0.6,0.2,1.2,0.2,1.8,0.2C214.7,45.4,214.9,45.4,215.1,45.4z M205.4,27.4L205.4,27.4h-1.2h0
		c0,0-0.1,0-0.2,0c-0.5,0-1.8,0-1.8-1.5c0-0.6,0.3-1.5,0.7-2.7c0.3-1.1,0.4-2.2,0.7-3.2c0.4-1.2,0.7-1.9,1.4-1.9
		c0.1,0,0.7,0.1,0.9,0.5c0.2,0.3,0.4,1.3,0.6,1.6c0.2,0.6,0.4,1.2,0.6,1.9c0.2,0.6,0.2,1.3,0.4,2c0.1,0.6,0.4,1.5,0.4,2.2
		c0,1.1-0.8,1.2-1.2,1.2c-0.1,0-0.3,0-0.3,0C206,27.4,205.9,27.4,205.4,27.4z"/>
	<path class="st0" d="M1.1,44.8c0.7,0.5,1.3,0.5,1.6,0.5c0.4,0,0.8,0,1.2,0c0.6,0,1.3-0.1,1.9-0.1c1.1,0,2.2,0.1,3.3,0.1
		c0.8,0,1.6-0.1,2.3-0.1c0.7,0,1.4,0.1,2.1,0.1c1.2,0,1.9-0.8,2.1-1.2c0.1-0.3,0.2-1,0.2-1.3c0-0.8-0.2-1.6-0.2-2.4
		c-0.1-0.9,0.1-1.7,0.1-2.6c0-0.8,0.1-1.7,0-2.5c0-0.6-0.1-1.2-0.1-1.7c0-1.1,0-1.5,0.5-1.8c0.2-0.1,0.4-0.2,0.4-0.2
		c0.7,0,1.1,0.9,1.4,1.3c0.2,0.4,0.6,0.8,0.8,1.2c0.2,0.3,0.4,0.7,0.6,1l0.3,0.5c0.3,0.5,0.7,0.9,1.1,1.4c0.4,0.5,0.9,1.1,1.3,1.7
		c0.8,1.4,1,2,2.8,4.1c0.3,0.4,0.7,0.7,1.1,1.1c0.5,0.5,0.6,0.8,0.9,0.9c0.7,0.4,1.6,0.4,2.3,0.4c0.3,0,0.7,0.1,1.1,0.1
		c0.4,0,0.9,0,1.3-0.1c0.9-0.1,1.9-0.1,2.9-0.1c0.9,0,1.7,0.2,2.6,0.2c1.7,0,2.9-0.8,2.9-2.6c0-0.9-0.2-1.9-0.3-2.7
		c-0.1-1.1,0-2,0-3.1v-2.4c0-1.7,0.1-3.3,0-5c-0.1-1.5-0.3-3.1-0.3-4.6c0-0.9,0.1-1.9,0.2-2.8c0.1-1.3,0.1-2.6,0.1-3.9v-1.8
		c0-1.1-0.2-2.2-0.1-3.3c0.1-0.8,0.2-1.6,0.2-2.4c0.1-0.4,0.1-0.9,0.1-1.3c0-0.6,0.1-1.2,0.1-1.8c0-1.7-0.5-2.5-1.1-3
		c-0.4-0.4-0.7-0.5-1.8-0.8c-1.9-0.4-3,0.1-5,0.1c-0.6,0-1.1-0.1-1.7-0.1c-0.8-0.1-1.6-0.1-2.3-0.1c-1.3,0-2.1,0.1-2.9,1.2
		c-0.5,0.7-0.6,1.4-0.6,1.8c0,0.5,0.1,1.1,0.1,1.7c0.1,0.8,0.1,1.5,0.1,2.3c0,1.1-0.1,2.2,0,3.2c0.1,1,0.2,2,0.1,2.3
		c-0.1,0.4-0.4,0.7-0.8,0.7c-0.9,0-1.2-0.8-1.3-0.9c-0.2-0.2-0.3-0.4-0.5-0.6c-0.2-0.2-0.3-0.5-0.4-0.8c-0.3-0.4-0.6-0.8-0.9-1.2
		c-0.2-0.3-0.3-0.6-0.5-0.9c-0.4-0.9-0.3-0.9-0.7-1.4l-0.7-0.9c-0.7-0.9-1.1-1.9-1.3-2.3c-0.2-0.5-0.6-0.9-0.8-1.3
		c-0.6-1.1-0.5-1.1-1.4-1.9c-0.4-0.4-1-0.8-2.3-0.9c-0.9-0.1-1.8,0.1-2.8,0.1C8.7,4,7.3,4,5.9,4C5.1,4,2.4,3.8,1.6,4.2
		C0.9,4.5,0.7,5.2,0.6,5.5C0.3,6.2,0.3,6.7,0.3,7.4c0,1.5,0.4,3.6,0.4,3.7c0,0.4,0.1,1.2,0.1,2.3c0,1.7-0.2,3.3-0.2,5
		c-0.1,1.9-0.2,3.7-0.2,5.6c-0.1,2,0.1,4,0.1,6c0,1.9,0.2,3.7,0.1,5.6c-0.1,1.1-0.3,2.1-0.3,3.1c-0.1,0.7-0.1,1.4-0.1,2.1
		C0.1,41.2,0,41.8,0,42.4C0,43.9,0.6,44.4,1.1,44.8z"/>
	<path class="st0" d="M84.5,42.9c0,0,0,0.9,0.2,1.3c0,0.1,0.2,0.5,0.6,0.7c0.7,0.6,1.5,0.6,1.8,0.6c0.1,0,0.1,0,0.1,0
		c1,0,2-0.2,3.1-0.2c0.8,0,1.5,0.2,2.3,0.2c0,0,0,0,0,0s0,0,0,0c0.8,0,1.6-0.1,2.4-0.2c0.2,0,0.4,0,0.6,0c0.6,0,1.2,0.1,1.9,0.1
		c0,0,0,0,0,0c0,0,0,0,0,0c1.6,0,2.3-0.3,2.7-1.1c0.3-0.6,0.3-1.1,0.3-1.4c0-0.6-0.1-0.6-0.3-1.6c-0.1-0.5-0.2-1.6-0.2-2.1
		c0-2.2,1.9-2.3,2.6-2.3c0,0,0.1,0,0.1,0h0c0,0,0,0,0,0c3,0,5.8-0.2,6.8-0.5c0.7-0.1,3.4-1.2,4-1.5c1.1-0.6,1.6-1.1,2.1-1.5
		c0.3-0.3,0.7-0.5,1.1-0.8c0.3-0.3,0.6-0.6,0.9-1c0.8-0.9,1.7-1.6,2.4-2.6c0.5-0.7,0.7-1.2,0.8-1.6c0.8-1.6,0.8-1.7,1-4.5
		c0.1-1,0.3-2,0.3-3c0-2.2-0.3-3.7-0.7-4.6c-0.2-0.5-0.4-0.8-0.6-1.3c-0.2-0.5-0.4-1.1-0.6-1.5c-0.7-1.2-2.2-2.5-3.3-3.4
		c-0.9-0.8-1.8-1.6-2.8-2.2L113,6.3c-1.6-0.9-1.9-0.7-3-1c-0.3-0.1-0.7-0.2-1-0.3c-1.5-0.5-2.2-0.6-4.9-0.9
		c-1.4-0.2-2.2-0.3-3.3-0.3c-0.4,0-0.8,0-1.3,0c-0.7,0-1.5,0.1-2.2,0.1h-1.5h0c-1.8,0-3.7,0.2-5.4,0.2c-0.9,0-1.8-0.1-2.7-0.1
		c-0.9,0-1.7,0.2-2.2,0.9c-0.3,0.4-0.7,1.2-0.7,2.4c0,0.9,0.2,1.7,0.2,2.5c0.1,0.9,0.1,1.9,0.1,2.9c0,1.9-0.2,3.7-0.2,5.6
		c0,1.1,0.2,2.2,0.1,3.2c0,0.5,0,1-0.1,1.5c-0.1,1.3-0.2,2.7-0.2,4.1c0.1,1.4,0.3,2.8,0.3,4.3c0,1.1-0.2,2.1-0.2,3.2
		c-0.1,1.4,0,2.8,0,4.1c0,0.7,0,1.3-0.1,2C84.7,41.5,84.5,42.2,84.5,42.9z M102.9,17.3c0.3,0.1,0.7,0,1.1,0.1
		c0.1,0.1,1.4,0.5,2.1,0.9c0.9,0.5,1.6,1.2,1.6,2.4c0,1.2-0.6,2.3-1.6,2.8c-0.2,0.1-1.3,0.4-1.6,0.4c-0.3,0.1-0.7,0.1-1.1,0.1
		c-0.8,0.2-0.8,0.3-1.7,0.4c-0.3,0-1.9,0-1.9-1.6c-0.1-0.5,0.1-0.9,0.1-1.3c0-0.6-0.1-1.2-0.1-1.8c0-0.4,0-2.2,1.7-2.3
		c0.1,0,0.2,0,0.3,0C102.3,17.2,102.6,17.3,102.9,17.3z"/>
	<path class="st0" d="M227.3,20.6c0.3,1.3,0.8,2.6,1.2,3.8c0.1,0.4,0.2,0.8,0.4,1.1c0.1,0.4,0.3,0.6,0.4,0.9c0.1,0.4,0.2,0.6,0.3,1
		c0.4,1.1,0.7,1.6,1.1,3.8c0.1,0.8,0.2,1.6,0.4,2.3c0.2,0.8,0.6,1.4,0.8,2.1c0.2,0.8,0.4,1.6,0.6,2.4c0.2,0.8,0.5,1.5,0.8,2.3
		c0.5,1.6,0.8,3.5,2.1,4.5c0.8,0.6,1.9,0.6,2.2,0.6c0,0,0,0,0,0c0,0,0,0,0,0c0.6,0,1.2,0,1.8-0.1c0.6,0,1.2-0.1,1.7-0.1
		c0.9,0,1.7,0.1,2.5,0.2c0.7,0,1.4,0,2.1,0h0h1.3h0c0.4,0,0.9-0.1,1.3-0.1c0.1,0,0.3,0,0.4,0c0.2,0,0.3,0,0.5,0c1.1,0,2.6,0,3.3-0.6
		c0.8-0.8,1.1-2.5,1.4-3.5c0.3-0.9,0.7-1.7,0.9-2.5c0.2-0.6,0.4-1.3,0.6-1.9c0.1-0.5,0.3-0.9,0.4-1.4c0.1-0.8,0.2-1.5,0.3-2.3
		c0.2-0.7,0.7-1.8,0.7-1.9c0.3-0.6,0.6-1.1,0.8-1.8c0.1-0.4,0.2-0.8,0.3-1.2c0.2-0.6,0.3-1.1,0.6-1.7c0.2-0.5,0.4-1,0.6-1.5
		c0.3-0.7,0.6-1.4,0.8-2.1c0.2-0.8,0.4-1.5,0.6-2.2c0.2-0.8,0.6-1.5,0.8-2.3c0.2-0.6,0.4-1.3,0.6-1.9l0.3-1.2
		c0.1-0.8-0.1-1.7,0.6-3.4c0.4-1.2,1.6-4,1.6-5.3c0-2.2-1.8-2.4-3.4-2.4c-0.5,0-1,0-1.5,0c-0.7,0-1.3-0.1-2-0.1c-0.2,0-0.4,0-0.6,0
		c-0.8,0-1.6,0.3-2.4,0.3c-0.9,0-1.5-0.2-2.2-0.2c-0.4,0-0.9,0-1.4,0.2c-0.3,0.1-0.7,0.3-1,0.6c-0.7,0.7-0.9,1.8-0.9,2.1
		c-0.2,0.7-0.3,1.5-0.4,2.2c-0.2,1.1-0.1,1.9-0.8,3.7c-0.3,0.8-0.6,1.5-0.7,2.2c-0.3,1.1-0.4,2.2-0.8,3.2c-0.2,0.6-0.4,1.3-0.6,1.9
		c-0.2,0.4-0.3,0.8-0.4,1.2c-0.1,0.4-0.2,0.7-0.2,1.1c-0.1,0.4-0.2,0.9-0.3,1.3c-0.1,0.2-0.2,1.2-0.5,1.2c-0.3,0-0.5-0.7-0.6-1.1
		c-0.1-0.4-0.2-0.9-0.2-1.4c-0.1-0.5-0.1-1.1-0.2-1.6c-0.2-0.6-0.3-1.2-0.6-1.9c-0.2-0.6-0.3-1.3-0.5-2c-0.2-0.5-0.3-1-0.4-1.5
		c-0.1-0.6-0.2-1.2-0.2-1.8c-0.1-0.5-0.6-2.6-0.7-3.2c-0.2-0.5-0.4-1.1-0.6-1.7c-0.2-0.8-0.3-1.6-1.1-3c-0.1-0.1-0.2-0.5-0.5-0.8
		c-0.8-0.8-1.8-0.8-2.1-0.8c0,0,0,0,0,0c0,0,0,0,0,0c-0.8,0-1.6,0.2-2.4,0.2c-0.6,0-1.2-0.1-1.8-0.2c-0.2,0-0.4,0-0.7,0
		c-0.7,0-1.3,0.1-2,0.1c-0.6,0-1.2-0.1-1.8-0.1c-0.5,0-0.8,0-1,0c-0.2,0-0.4,0-0.8,0c-0.8,0.1-2.3,0.5-2.3,2.7c0,1.3,0.5,2.3,1,3.4
		C226.3,13.7,226.4,16.8,227.3,20.6z"/>
	<path class="st0" d="M78.4,80.9c-0.2-0.1-0.8-0.2-1.5-0.2c0,0,0,0-0.1,0c0,0,0,0,0,0c-0.5,0-0.9,0.1-1.1,0.1
		c-0.2,0-1.5,0.2-1.8,0.2c-0.4,0-1.2-0.2-1.5-0.3c-0.1,0-0.8-0.3-0.8-0.9c0-0.9,1.1-1.2,1.7-1.5c2.9-1.3,3.8-3.3,4.4-4.6
		c0.3-0.5,0.6-1.1,0.8-1.6c0.3-0.8,0.4-1.8,0.6-2.6c0.2-1.2,0.3-1.9,0.3-2.5c0-0.9-0.2-1.7-0.2-2c-0.1-0.2-0.3-1.8-0.8-2.7
		c-0.1-0.2-0.3-0.5-0.4-0.8c-0.2-0.3-0.3-0.6-0.5-0.9c-0.2-0.3-0.4-0.6-0.6-0.9c-0.2-0.3-0.3-0.6-0.5-1c-0.2-0.3-0.4-0.6-0.6-0.9
		C75,56.7,75.2,57,74,55.9c-1.1-1-1.4-1.2-2.7-1.8c-0.3-0.2-0.6-0.3-1.4-0.6c-0.7-0.2-1.4-0.4-2.2-0.5c-2.1-0.5-3.2-0.6-4.2-0.6
		c-0.6,0-1.2,0-1.9,0c-1.4,0-2.8-0.2-4.2-0.2c0,0,0,0,0,0c0,0-0.1,0-0.1,0c-0.6,0-1.1,0.1-1.6,0.1c-0.8,0.1-1.6,0.1-2.3,0.1
		c-0.2,0-0.4,0-0.5,0c-0.2,0-0.4,0-0.6-0.1c0,0-0.1,0-0.1,0c0,0,0,0,0,0c-0.2,0-0.4,0-0.6,0c-0.2,0-0.4,0-0.6,0
		c-0.2,0-0.5-0.1-0.7-0.1h-0.1h-1.1c-0.3,0-0.6,0-0.9,0c-0.3,0-0.6,0-0.9,0c-0.3,0-0.6,0.1-0.9,0.1c-0.1,0-0.1,0-0.2,0
		c-0.8,0-3.1,0.1-4,2c-0.6,1.2-0.3,3.2-0.3,4.6c0,0.9-0.1,1.8,0,2.7c0,0.4,0.1,0.8,0.1,1.1c0,0.4,0,0.8,0.1,1.2
		c0,0.4,0.1,0.8,0.1,1.2v1.5c0,0.4,0.1,0.7,0.1,1.1v0.9c0,1.2,0,2.5,0,3.7v1.8c0,0.8-0.2,1.5-0.2,2.3c-0.1,0.6,0,1.3,0,2
		c0,0.9-0.2,1.9-0.2,2.7c0,0.8,0.2,1.6,0.2,2.4c0.1,0.5,0.1,1.1,0.1,1.6v1.8c0,1.1-0.1,1.3-0.2,2.4C42,90.2,42,90.9,42,91.1
		c0,0.9,0.3,2.7,2.6,2.7c0,0,0.1,0,0.1,0c0,0,0,0,0,0c0.9,0,1.9-0.2,2.8-0.2c0.7,0,0.6,0.1,1.7,0.2c0.5,0,1.2,0.1,1.3,0.1
		c0,0,0,0,0.1,0c0,0,0.1,0,0.1,0c0.9,0,1.7-0.1,2.5-0.1c0.2,0,0.5,0,0.7,0c0.6,0,1.3,0.2,1.9,0.1c0.7,0,1.3-0.2,1.8-0.8
		c0.5-0.6,0.5-1.5,0.5-1.7c0-0.6-0.2-0.9-0.3-1.5c-0.2-0.6-0.2-1.5-0.2-1.6c0-0.7,0.3-1.6,1.1-1.6c0.3,0,0.7,0.2,0.7,0.2
		c0.8,0.2,0.6,0.2,1.6,1c0.3,0.3,0.7,0.5,0.9,0.8c0.3,0.2,0.5,0.4,0.7,0.6c0.4,0.3,0.9,0.6,1.3,0.9c0.4,0.3,0.8,0.6,1.3,0.9
		c0.6,0.4,1.2,0.8,1.8,1.2c2.4,1.5,3.2,1.5,5.9,1.6c0.3,0,0.5,0,0.8,0c0.7,0,1.4-0.1,2.2-0.1c0.3,0,0.6,0,1,0c0.9,0,1.8-0.1,2.4-1
		c0.9-1.5,0.4-4.1,0.4-5.7c0-1.1,0.2-2.2,0.2-3.3C79.7,82,79.1,81.2,78.4,80.9z M60.9,65.9c0.5,0.1,1.5,0,2,0.2
		c0.2,0.1,0.3,0.3,0.6,0.4c0.7,0.4,1.1,0.8,1.1,2.5c0,0.1,0,0.6-0.2,1c-0.1,0.2-0.5,0.6-0.5,0.6c-0.5,0.5-0.6,0.6-0.9,0.8
		c-0.4,0.3-1,0.4-1.1,0.5c-0.3,0.1-1.5,0.6-2.6,0.6c-0.6,0-1.2-0.2-1.5-0.8c-0.2-0.4-0.2-0.9-0.2-1c0-0.4,0-0.6,0.1-0.9
		c0-0.3-0.1-0.6-0.1-0.9c-0.1-0.3,0-0.6,0-0.9c0-0.6-0.2-2.1,1.6-2.2c0.2,0,0.4,0,0.5,0C60,65.7,60.1,65.8,60.9,65.9z"/>
	<path class="st0" d="M174.3,66.8c-0.2-0.6-0.3-1.2-0.4-1.7c-0.4-1.3-1.5-2.8-1.6-3c-0.5-0.8-0.9-1.7-1.5-2.4
		c-0.4-0.5-0.8-0.9-1.2-1.4c-0.3-0.3-0.5-0.7-0.8-1.1c-0.4-0.4-0.9-0.8-1-0.8c-0.5-0.4-0.9-0.7-2.1-1.2c-0.3-0.1-0.7-0.3-1.1-0.5
		c-0.6-0.3-1-0.6-1.6-0.9c-0.6-0.3-1.2-0.6-1.8-0.8c-0.2-0.1-1.3-0.6-2.2-0.9c-0.8-0.2-1.5-0.2-3.1-0.3c-0.9-0.1-1.7-0.2-2.6-0.2
		c-0.3,0-0.6,0-0.8,0c-0.8,0-1.6,0.1-2.4,0.1c-0.8,0.1-0.7,0.1-1.9,0.4c-0.6,0.1-1.2,0.2-1.8,0.3c-0.8,0.2-1.6,0.6-2.4,0.9
		c-1.8,0.6-2.4,0.8-4,2c-0.5,0.3-1,0.7-1.4,1.2c-0.6,0.5-1.1,1.2-1.7,1.8c-0.9,0.9-1.2,1-1.6,1.6c-0.2,0.3-0.4,0.8-0.7,1.1l-0.7,1.2
		c-0.3,0.6-0.6,1.4-0.9,2.1c-0.4,1-0.9,2-1.1,3c-0.2,0.9-0.2,1.8-0.3,2.7c-0.1,0.8-0.3,1.5-0.4,2.2c-0.3,1.6-0.1,2.7-0.1,3.3v1.2
		c0,1.6,0.4,2.4,0.8,3.9c0.3,1.2,0.5,2.2,1.1,3.3c0.2,0.3,0.6,0.9,1.2,1.6c0.4,0.4,0.7,0.8,1.1,1.2c0.2,0.2,0.3,0.5,0.4,0.6
		c0.2,0.2,0.3,0.3,0.4,0.5c0.5,0.6,1.2,1.8,2.7,2.7l0.8,0.5c0.6,0.4,1.1,0.9,1.7,1.3c0.9,0.5,1.4,0.6,2.3,0.9
		c0.7,0.3,1.3,0.6,2.1,0.8c1.4,0.4,2.7,0.4,3.5,0.4c0.3,0,0.5,0,0.7,0c0.8,0.1,1.7,0.2,2.5,0.2c0.3,0,0.7,0,1,0c0.3,0,0.7,0,1,0
		c0.7,0,1.3-0.1,2-0.1c0.4-0.1,0.8-0.1,1.2-0.1c0.6-0.1,2.8-0.6,3.3-0.8c0.6-0.2,1.1-0.5,1.6-0.7c1.3-0.5,1.6-0.4,2.7-1
		c1.6-0.8,1.7-1.3,2.5-1.9c0.9-0.6,0.9-0.5,2.2-1.7c0.4-0.4,0.9-0.9,1.6-2.1c1.3-2.2,0.9-2.3,1.6-3.8c0.2-0.4,0.3-0.7,0.4-1.1
		c0.6-1.3,0.9-1.9,1.1-3.3c0.1-0.4,0.1-0.8,0.1-1.2c0.1-0.4,0-0.9,0-1.3c0-0.8,0.1-1.1,0.2-1.9c0.1-0.4,0.1-0.6,0.1-1.2
		c0-0.6-0.1-1.2-0.1-1.9C174.8,68.2,174.6,68.4,174.3,66.8z M152.1,79.6C152.1,79.6,152.1,79.6,152.1,79.6c-0.1,0-0.1,0-0.1,0
		c-0.2,0-0.4,0-0.7,0.1c-1.4,0-2.9-1.4-3.1-1.6c-0.7-0.6-0.7-0.9-1-1.4c-0.2-0.3-0.4-0.6-0.7-0.9c-0.2-0.4-0.7-1.3-0.7-2.6
		c0-1.5,0.7-2.4,0.9-2.9c0.2-0.5,0.3-0.9,0.8-1.4c0.4-0.6,0.8-0.7,1.9-1.2c0.7-0.4,1.3-0.8,2-1.1c0.4-0.1,0.9-0.2,1.3-0.2
		c1.2,0,1.8,0.4,2.3,0.5c0.8,0.3,1.2,0.3,2,0.8c0.2,0.2,1.1,0.6,1.6,1.4c0.3,0.4,0.4,0.8,0.7,1.8c0.2,0.8,0.6,1.4,0.6,2.2
		c0.1,1.6-1,3.1-1.3,3.4c-0.2,0.2-0.4,0.4-0.6,0.6c-0.3,0.3-0.6,0.6-0.7,0.8c-0.7,1-1.8,1.4-2.2,1.5c-0.4,0.1-0.9,0.1-1.4,0.2
		c-0.3,0-0.7,0.1-1,0.1C152.6,79.7,152.4,79.6,152.1,79.6z"/>
	<path class="st0" d="M210.8,52.4c-0.5,0-1,0-1.4,0c-0.7,0-1.4-0.1-2-0.1c-0.2,0-0.4,0-0.6,0c-0.8,0-1.5,0.3-2.4,0.3
		c-0.8,0-1.5-0.2-2.2-0.2c-0.4,0-0.9,0-1.4,0.2c-0.3,0.1-0.7,0.3-1,0.6c-0.7,0.7-0.9,1.8-0.9,2.1c-0.2,0.7-0.3,1.5-0.4,2.2
		c-0.2,1.1-0.1,1.9-0.8,3.7c-0.3,0.8-0.6,1.5-0.7,2.2c-0.3,1.1-0.4,2.2-0.8,3.2c-0.2,0.6-0.4,1.3-0.6,1.9c-0.2,0.4-0.3,0.8-0.4,1.2
		c-0.1,0.4-0.2,0.7-0.2,1.1c-0.1,0.4-0.2,0.9-0.3,1.3c-0.1,0.2-0.2,1.1-0.5,1.2c-0.3-0.1-0.4-0.7-0.5-1.1c-0.1-0.4-0.2-0.9-0.2-1.4
		c-0.1-0.5-0.1-1.1-0.2-1.6c-0.2-0.6-0.3-1.2-0.6-1.9c-0.2-0.6-0.3-1.3-0.5-2c-0.2-0.5-0.3-1-0.4-1.5c-0.1-0.6-0.2-1.2-0.2-1.8
		c-0.1-0.5-0.6-2.6-0.7-3.2c-0.2-0.5-0.4-1.1-0.6-1.7c-0.2-0.8-0.3-1.6-1.1-3c-0.1-0.1-0.2-0.5-0.5-0.8c-0.8-0.8-1.8-0.8-2.1-0.8
		c0,0,0,0,0,0c0,0-0.1,0-0.1,0c-0.8,0-1.6,0.2-2.3,0.2c-0.6,0-1.1-0.1-1.7-0.2c-0.2,0-0.5,0-0.7,0c-0.7,0-1.3,0.1-2,0.1
		c-0.6,0-1.2-0.1-1.8-0.1c-0.6,0-0.9,0-1.1,0c-0.3,0-0.4,0-0.8,0c-0.8,0.1-2.3,0.5-2.3,2.7c0,1.3,0.5,2.3,1,3.4
		c1.6,3.6,1.7,6.8,2.6,10.5c0.3,1.3,0.8,2.6,1.2,3.8c0.1,0.4,0.2,0.8,0.4,1.1c0.1,0.4,0.3,0.6,0.4,0.9c0.1,0.3,0.2,0.6,0.3,1
		c0.4,1.1,0.7,1.6,1.1,3.8c0.1,0.8,0.2,1.6,0.4,2.3c0.2,0.8,0.6,1.4,0.8,2.1c0.2,0.8,0.4,1.6,0.6,2.4c0.2,0.8,0.5,1.5,0.8,2.3
		c0.5,1.6,0.8,3.5,2.1,4.5c0.8,0.6,1.9,0.6,2.2,0.6c0,0,0,0,0,0c0,0,0.1,0,0.1,0c0.6,0,1.2,0,1.8-0.1c0.5,0,1.1-0.1,1.6-0.1
		c0.9,0,1.7,0.1,2.5,0.2c0.7,0,1.4,0,2.1,0h0.1h1.2h0.1c0.4,0,0.9-0.1,1.3-0.1c0.1,0,0.3,0,0.4,0c0.1,0,0.3,0,0.4,0
		c1.1,0,2.7,0,3.4-0.6c0.8-0.8,1.1-2.5,1.4-3.5c0.3-0.9,0.7-1.7,0.9-2.5c0.2-0.6,0.4-1.3,0.6-1.9c0.1-0.5,0.3-0.9,0.4-1.4
		c0.1-0.8,0.2-1.5,0.3-2.3c0.2-0.7,0.7-1.8,0.7-1.9c0.3-0.6,0.6-1.1,0.8-1.8c0.1-0.4,0.2-0.8,0.3-1.2c0.2-0.6,0.3-1.1,0.6-1.7
		c0.2-0.5,0.4-1,0.6-1.5c0.3-0.7,0.6-1.4,0.8-2.1c0.2-0.8,0.4-1.5,0.6-2.2c0.2-0.8,0.6-1.5,0.8-2.3c0.2-0.6,0.4-1.3,0.6-1.9l0.3-1.2
		c0.1-0.8-0.1-1.7,0.6-3.4c0.4-1.2,1.6-4,1.6-5.3C214.3,52.6,212.5,52.4,210.8,52.4z"/>
	<path class="st0" d="M253,85.1c-0.5-1-0.9-2-1.5-3c-0.4-0.7-1-1.3-1.5-2c-1-1.3-1.8-2.7-2.1-3.2c-0.3-0.6-0.6-1.2-0.9-1.8
		c-0.3-0.6-0.9-1.5-1.3-2c-0.5-0.6-1.1-1.3-1.1-2c0-0.7,0.6-1.3,1.1-1.9c0.3-0.3,0.4-0.7,0.7-1.1c0.2-0.3,0.4-0.6,0.7-1l1.2-1.9
		c0.3-0.5,0.6-0.9,0.9-1.3c0.3-0.5,0.6-1.1,1-1.6c0.4-0.6,0.9-1.3,1.4-1.9c0.5-0.7,0.9-1.5,1.4-2.3c0.6-0.9,0.6-0.8,0.8-1.5
		c0.6-1.5,0.6-1.2,0.6-2.4c0-1.8-1.1-1.9-1.8-1.9c-0.1,0-0.2,0-0.3,0c-0.9,0-1.8,0.1-2.7,0.1c-0.8,0-1.5-0.1-2.2-0.1
		c0,0-0.1,0-0.1,0c0,0,0,0,0,0c-0.7,0-1.4,0.1-2.2,0.1c-0.4,0-0.8,0-1.2,0c-0.4,0-0.8,0-1.2,0c-0.5,0-1.1-0.1-1.6-0.1
		c-0.9,0-1.9,0.1-2.5,0.6c-0.3,0.3-0.6,0.6-0.9,1.5c-0.1,0.3-0.2,0.5-0.4,0.8c-0.3,0.5-0.7,1.1-1.1,1.7c-0.2,0.3-0.3,0.6-0.6,0.9
		c-0.3,0.6-0.8,1.1-1.2,1.6c-0.2,0.3-0.4,0.8-0.7,1.1c-0.7,1.2-1.6,2.4-2.1,2.7c-0.1,0.1-0.2,0.1-0.3,0.2c-0.4,0-0.9-0.4-1-0.9
		c-0.1-0.2-0.2-1.2-0.2-2c0-0.6,0.1-1.3,0.1-2c0.1-0.6,0-1.2,0.1-1.8c0-0.6,0.2-1.1,0.2-1.6c0-0.4-0.1-1.2-0.2-1.5
		c-0.2-0.5-0.7-0.9-1.3-1.1c-0.6-0.2-1.3-0.2-2-0.2H227h-1.3c-0.7,0-1.4-0.1-2.1-0.1c0,0,0,0,0,0c0,0-0.1,0-0.1,0
		c-0.7,0-1.3,0.1-1.9,0.2c-0.6,0-1.2-0.1-1.8-0.1h-0.1h-1.4c-0.2,0-0.5,0-0.8,0c-0.3,0-0.6,0-0.8,0.1c-0.7,0.2-1.6,1.3-1.6,3.2
		c0,0.4,0,0.7,0.1,1.1c0,0.9,0,1.9,0.1,2.8c0.1,1.3,0.2,2.6,0.2,3.9c0,1.2-0.2,2.3-0.2,3.5c-0.1,1,0,2,0,3c0,1.1-0.1,2-0.2,3
		c0,0.9,0.1,1.8,0.1,2.7c0.1,1,0.1,2,0.1,3c0,1.2-0.1,2.4-0.1,3.6c0,0.4,0,0.7,0.1,1.1c0,0.3,0.1,0.6,0.1,0.8
		c0.1,0.4-0.1,0.8-0.1,1.2V86c0,1.4-0.3,2.8-0.3,4.2c0,2.1,0.4,2.9,1.4,3.3c0.5,0.3,0.9,0.2,1.2,0.2c0.1,0,0.2,0,0.2,0
		c1.1,0,2.2-0.2,3.3-0.2c0.8,0,1.6,0.1,2.3,0.2c0.9,0,1.8,0.1,2.7,0.1c0.4,0,0.8,0,1.2,0c1.7,0,3.2-0.2,3.2-2.7
		c0-0.9-0.3-1.9-0.3-2.8c0-0.6,0.1-1.2,0.1-1.8c0,0-0.1-2.7,1.1-3.7c0.1-0.1,0.5-0.3,0.9-0.3c0.7,0,1.5,0.6,2.4,1.9
		c0.3,0.5,0.6,0.9,0.8,1.3c0.7,0.9,1.1,1.3,1.7,2.3c0.4,0.8,0.8,1.7,1.3,2.5c0.3,0.5,0.6,0.8,0.8,1.3c0.3,0.5,0.2,0.5,0.6,0.9
		c0.3,0.4,1.1,0.9,1.6,1c0.3,0.1,0.7,0.1,0.8,0.1c0,0,0.1,0,0.1,0c0,0,0,0,0,0c0.7,0,1.3,0,2-0.1c0.9,0,1.9-0.1,2.8-0.1
		c0.9,0,1.7,0,2.5,0.1c0.4,0,0.7,0,1.1,0c0.3,0,0.7,0,1,0c1.2,0,1.8,0.1,2.4,0.1c0.4,0,0.7,0,1.1-0.2c0.5-0.2,1.5-0.7,1.5-2.2
		c0-1.6-1.1-2.9-1.3-3.2C255,87.9,253.8,86.4,253,85.1z"/>
	<path class="st0" d="M38.1,85.1c-0.5-1-0.9-2-1.5-3c-0.4-0.7-1-1.3-1.5-2c-1-1.3-1.8-2.7-2.1-3.2c-0.3-0.6-0.6-1.2-0.9-1.8
		c-0.3-0.6-0.9-1.5-1.3-2c-0.5-0.6-1.1-1.3-1.1-2c0-0.7,0.6-1.3,1.1-1.9c0.3-0.3,0.4-0.7,0.7-1.1c0.2-0.3,0.4-0.6,0.7-1l1.2-1.9
		c0.3-0.5,0.6-0.9,0.9-1.3c0.3-0.5,0.6-1.1,1-1.6c0.4-0.6,0.9-1.3,1.4-1.9c0.5-0.7,0.9-1.5,1.4-2.3c0.6-0.9,0.6-0.8,0.8-1.5
		c0.6-1.5,0.6-1.2,0.6-2.4c0-2-1.3-1.9-2-1.9c-0.9,0-1.8,0.1-2.7,0.1c-0.8,0-1.5-0.1-2.3-0.1c-0.7,0-1.4,0.1-2.2,0.1
		c-0.8,0.1-1.7,0-2.5,0c-1.2-0.1-3-0.3-4,0.5c-0.3,0.3-0.6,0.6-0.9,1.5c-0.1,0.3-0.2,0.5-0.4,0.8c-0.3,0.5-0.7,1.1-1.1,1.7
		c-0.2,0.3-0.3,0.6-0.6,0.9c-0.3,0.6-0.8,1.1-1.2,1.6c-0.2,0.3-0.4,0.8-0.7,1.1c-0.7,1.2-1.6,2.4-2.1,2.7c-0.2,0.1-0.2,0.1-0.4,0.2
		c-0.4,0-0.9-0.4-1.1-0.9c-0.1-0.2-0.2-1.2-0.2-2c0-0.6,0.1-1.3,0.1-2c0.1-0.6,0-1.2,0.1-1.8c0-0.6,0.2-1.1,0.2-1.6
		c0-0.4-0.1-1.2-0.2-1.5c-0.2-0.5-0.7-0.9-1.3-1.1c-0.6-0.2-1.3-0.2-2-0.2h-1.4c-0.7,0-1.4-0.1-2.1-0.1c-0.7,0-1.3,0.1-1.9,0.2
		c-0.7,0-1.3-0.1-1.9-0.1H3.4c-0.4,0-1-0.1-1.4,0.1c-0.7,0.2-1.6,1.3-1.6,3.2c0,0.4,0,0.7,0.1,1.1c0,0.9,0,1.9,0.1,2.8
		c0.1,1.3,0.2,2.6,0.2,3.9c0,1.2-0.2,2.3-0.2,3.5c-0.1,1,0,2,0,3c0,1.1-0.1,2-0.2,3c0,0.9,0.1,1.8,0.1,2.7c0.1,1,0.1,2,0.1,3
		c0,1.2-0.1,2.4-0.1,3.6c0,0.4,0,0.7,0.1,1.1c0,0.3,0.1,0.6,0.1,0.8c0.1,0.4-0.1,0.8-0.1,1.2V86c0,1.4-0.3,2.8-0.3,4.2
		c0,2.1,0.4,2.9,1.4,3.3c0.6,0.3,1.1,0.2,1.3,0.2c1.2,0,2.2-0.2,3.3-0.2c0.8,0,1.6,0.1,2.4,0.2c0.9,0,1.8,0.1,2.7,0.1
		c2.1,0,4.3,0.4,4.3-2.7c0-0.9-0.3-1.9-0.3-2.8c0-0.6,0.1-1.2,0.1-1.8c0,0-0.1-2.7,1.1-3.7c0.1-0.1,0.5-0.4,0.9-0.4
		c0.7,0,1.5,0.6,2.4,1.9c0.3,0.5,0.6,0.9,0.8,1.3c0.7,0.9,1.1,1.3,1.7,2.3c0.4,0.8,0.8,1.7,1.3,2.5c0.3,0.5,0.6,0.8,0.8,1.3
		c0.3,0.5,0.2,0.5,0.6,0.9c0.3,0.4,1.1,0.9,1.6,1c0.3,0.1,0.7,0.1,0.8,0.1c0.7,0,1.3,0,2-0.1c0.9,0,1.9-0.1,2.8-0.1
		c0.9,0,1.7,0,2.6,0.1c0.7,0,1.3,0,2,0c1.9,0,2.3,0.4,3.4-0.1c0.5-0.2,1.5-0.7,1.5-2.2c0-1.6-1.1-2.9-1.3-3.2
		C40,87.9,38.8,86.4,38.1,85.1z"/>
	<path class="st0" d="M296,52.5c-0.1-0.1-0.9-0.2-1.1-0.2c-0.5,0-1.1,0.2-1.2,0.2c-0.4,0.1-0.6,0.1-1.2,0.1c-0.7,0-1.4-0.1-2.1-0.1
		c-0.7-0.1-1.3-0.2-2-0.2c-0.6-0.1-1.1,0-1.6,0.1c-0.7,0.1-1.3-0.1-2-0.1c-0.7,0-1.1,0.2-1.4,0.3c-0.7,0.2-1.5,0.5-2.2,2
		c-0.1,0.3-0.3,0.7-0.4,1c-0.8,1.9-1.6,2.5-2.1,3.4l-0.8,1.6c-0.7,1.3-1.6,2.6-2.1,2.9c0,0-0.2,0.1-0.3,0.1c-0.7,0-1.3-1.6-1.5-2
		c-0.6-1.3-1.2-2.5-1.8-3.7c-0.3-0.6-0.6-1-0.7-1.6c-0.4-1.3-0.3-2.1-1.3-3.2c-0.6-0.6-1.7-0.7-1.9-0.7c-0.2,0-0.4,0.1-0.7,0.1
		c-0.4,0-0.8-0.1-1.1-0.1c-0.4,0-0.9,0.2-1.3,0.2c-0.3,0-0.7,0-1.1,0c-0.3,0-0.6,0.1-0.9,0.1c-0.5-0.1-1-0.2-1.4-0.2
		c-0.9-0.1-1.9,0.2-2.8,0.1c-0.6,0-1.2-0.2-1.8-0.2c-0.3-0.1-0.2-0.1-0.5,0c-0.4,0-1.4,0.4-1.4,1.8c0,1.2,0.6,2.1,1.2,3.1
		c0.2,0.3,0.4,0.7,0.6,1l0.7,1.4c0.3,0.6,0.6,1.2,0.8,1.8c0.4,1,0.9,1.9,1.3,2.8c0.4,0.8,0.7,1.6,1.1,2.5c0.5,1,1.2,1.9,1.7,2.8
		c0.3,0.6,0.6,1.2,0.9,1.8c0.3,0.6,0.8,1.2,1.1,1.8c0.3,0.7,0.6,1.5,0.9,2.2c0.3,0.7,0.8,1.3,1.1,2.1c0.3,0.6,0.5,1.3,0.8,2
		c0.6,1.6,0.5,1.2,0.7,2.9c0,0.3,0.1,0.8,0.1,1.2c0,0.6-0.1,1.1,0,1.7c0,1.1,0.1,2.4-0.1,3.4c-0.1,0.4-0.1,0.6-0.3,1.3
		c0,0.2-0.2,0.8-0.2,1.4c0,1.1,0.9,1.9,1.1,2c0.7,0.5,1.3,0.5,1.6,0.5c0.9,0,1.8-0.1,2.7-0.2c0.8,0,1.5,0.1,2.3,0.2
		c1.1,0.1,2.1-0.1,3.2-0.1c1.2,0,2.4,0.4,3.6,0.1c0.4-0.1,0.6-0.2,0.8-0.4c0.5-0.5,0.7-1.2,0.7-1.5c0.2-0.8,0.2-0.5,0.2-1.1
		c0-0.9-0.3-1.8-0.4-2.7c-0.1-0.5-0.1-1.1,0-1.7v-2.5c0-0.8,0.1-3.3,0.3-4.1c0.1-0.3,0.6-2,0.8-2.3c0.1-0.2,0.2-0.4,0.3-0.6
		c0.3-0.5,0.5-1,0.7-1.5c0.1-0.3,0.2-0.7,0.4-1.1l0.5-0.7c0.1-0.2,0.3-0.4,0.4-0.6c0.4-0.5,0.8-1,1.1-1.6c0.5-0.8,1-1.7,1.5-2.6
		c0.4-0.5,0.8-1.1,1.2-1.6c0.2-0.4,0.5-0.9,0.8-1.3c0.4-0.8,0.9-1.5,1.3-2.3c0.6-1.2,0.9-2.4,1.7-3.5c0.2-0.2,0.3-0.4,0.4-0.6
		c0.9-1.1,0.8-1.3,1.1-2c0.4-0.9,0.7-1.1,1-2.1c0.1-0.5,0.1-0.8,0.1-1C296.8,53.7,296.6,52.7,296,52.5z"/>
	<path class="st0" d="M265.4,35.4c0,0.6-0.1,1.3-0.1,1.9c0,1,0,2-0.1,3c-0.1,0.8-0.2,1.6-0.2,2.5c0,1.2,0.1,2.9,2.7,2.9
		c1.3,0,2.5-0.2,3.7-0.2c1.4,0,2.7,0.2,4.1,0.2c1.6-0.1,3.2-0.3,4.8-0.2c1.3,0.1,2.6,0.3,3.9,0.3c0.9,0,1.8-0.1,2.6-0.2
		c0.8-0.1,1.7-0.2,2.5-0.2c1.2,0,2.4,0.2,3.6,0.2c2.4,0,2.6-1.3,2.7-2.5c0.1-0.4,0.1-0.9,0.1-1.9c0-1-0.1-2-0.1-3
		c0-1.7,0.3-3.4-0.8-4.8c-0.1,0-0.4-0.4-0.7-0.6c-0.8-0.4-1.8-0.2-2.6-0.1c-0.4,0-0.8-0.1-1.1-0.1c-0.5,0-1,0-1.5,0.1h-1.8
		c-0.4,0-0.8,0-1.2,0.1c-0.7,0.1-1.4,0.2-2.1,0.2c-1.6,0-2.3-0.1-2.9-0.7c-0.3-0.2-0.5-0.7-0.5-1.1c0-0.6,0.3-0.8,0.6-1
		c1.1-0.6,2.9-0.2,4.1-0.2c0.8,0,1.6,0,2.4,0c0.8-0.1,1.5-0.1,2.3-0.1c0.4,0,0.9-0.1,1.4-0.1c0.3,0,0.7,0.1,1.1,0.1
		c0.3,0,0.7-0.2,0.8-0.2c0.3-0.1,0.5-0.2,0.6-0.3c0.7-0.6,0.6-2,0.6-2.1c0-1.2-0.2-2.4-0.2-3.6c0-1.9,0.2-1.4-0.2-2.7
		c0-0.1-0.1-0.6-0.2-0.8c-0.4-0.7-1.2-0.9-2.6-0.9c-0.8,0-1.5,0.1-2.3,0.2c-0.5,0.1-1.1,0-1.6,0c-0.5,0-1-0.1-1.5-0.1
		c-0.4,0.1-0.9,0.2-1.4,0.2c-0.4,0.1-0.8,0-1.3,0c-0.8,0-2,0.1-2.7-0.5c-0.3-0.2-0.4-0.7-0.4-1.2c0-0.8,0.5-1.1,0.8-1.2
		c0.7-0.2,2.1,0,2.8,0c0.9,0.1,1.8-0.2,2.7-0.2c0.8,0,1.8,0.2,2.7,0.2c0.8,0,1.6-0.1,2.3-0.1c1.2,0.1,2.3,0.4,2.9-0.9
		c0.4-0.9,0.4-1.8,0.4-2.1c0-1-0.1-1.9-0.2-2.9c0-0.9,0-1.8,0-2.6c0-1.1-0.1-2.3-0.8-3.1c-0.2-0.2-0.3-0.3-0.5-0.4
		c-0.1,0-0.2,0.1-0.3,0.1c-0.5,0.2-1,0.3-1.5,0.4c-0.4,0.1-0.8,0.2-1.2,0.4c-0.2,0.1-0.4,0.2-0.6,0.3c-0.3,0.1-0.5,0.2-0.8,0.3
		l-0.1,0l-0.1,0c-0.2,0.1-0.3,0.1-0.5,0.1c-0.2,0-0.4,0.1-0.5,0.1l-0.2,0.1l-0.2,0c-0.1,0-0.3,0.1-0.4,0.1l-0.4,0.1l-0.1,0
		c-0.1,0-0.3,0.1-0.4,0.1c-0.1,0-0.2,0-0.2,0c-0.2,0.1-0.4,0.2-0.7,0.3c-0.4,0.2-0.8,0.3-1.1,0.4c-0.4,0.2-1.1,0.4-1.9,0.5
		c-0.4,0.1-1,0.1-1.6,0.1c-0.3,0-0.6,0-1,0c-0.3,0-0.6,0-0.9,0H278c-0.1,0-0.2,0-0.4,0c-1.6,0-2.7-1-2.7-2.5c0-0.6,0.2-1,0.4-1.4
		c-0.1,0-0.2,0-0.2,0c-0.9,0.1-1.8,0-2.7,0c-0.6,0-1.1,0.1-1.6,0.1c-0.7-0.1-1.4-0.2-2.1-0.2c-0.5,0-1.6,0.1-2,0.4
		c-0.3,0.1-0.5,0.4-0.6,0.5c-0.5,0.5-0.9,1.3-0.9,3c0,0.6,0.1,1.3,0.1,2c0.1,0.9,0.1,1.8,0.1,2.7c0,0.6,0,1.3-0.1,2
		c-0.1,1.1-0.2,2.2-0.2,3.3c0,0.9,0.2,1.7,0.2,2.6v1.3c0,0.7,0.1,1.3,0.1,2c0.1,0.6-0.1,1.2,0,1.8c0,0.7,0.1,1.4,0.2,2.1
		c0.1,0.8,0.1,1.6,0.1,2.4c0,1.2-0.2,2.3-0.2,3.5C265.4,34.1,265.4,34.8,265.4,35.4z"/>
	<path class="st0" d="M277.9,6.4h0.8c1.1,0,2.2,0.1,3.2-0.1c0.7-0.1,1.3-0.3,1.6-0.5c0.4-0.1,0.7-0.2,1.1-0.4
		c0.2-0.1,0.5-0.2,0.7-0.3c0.3-0.1,0.7-0.1,0.9-0.2c0.3-0.1,0.6-0.2,0.9-0.3c0.4-0.2,0.8-0.2,1.2-0.4c0.4-0.2,0.9-0.4,1.3-0.6
		c0.9-0.4,1.8-0.5,2.8-0.8c0.7-0.2,1.2-0.7,1.2-1.5c0-0.5-0.2-1.1-0.7-1.3c-0.7-0.3-1.6-0.1-2.4-0.1c-0.7,0-1.5-0.1-2.2-0.1
		c-1.3,0-2.7,0.2-3.9,0.2c-0.6-0.1-1.1-0.1-1.6-0.1c-0.4-0.1-0.9,0-1.3,0c-0.8,0-0.7-0.1-1.2-0.1c-1.1,0.2-1.5,1.3-2,2.2
		c-0.3,0.5-0.6,0.9-0.8,1.3c-0.2,0.3-0.3,0.6-0.5,0.9c-0.2,0.4-0.4,0.7-0.4,1.1C276.5,6.7,277.9,6.4,277.9,6.4z"/>
	<path class="st0" d="M124.8,44.9c1,0.5,1.8,0.5,2.9,0.5h1.8c0.9,0,1.9-0.2,2.9-0.2c1.2,0,2.4,0.2,3.7,0.2c2.7,0,3.4-1.4,3.4-2.8
		c0-0.5-0.1-1.2-0.2-1.8c-0.2-1.2-0.2-2-0.2-2.5v-0.8c0.1-0.6,0.1-1.3,0.1-1.9c0-0.3,0.1-0.5,0.1-0.8c0.1-0.5-0.1-0.9-0.1-1.4
		c0-0.8-0.1-1.6-0.2-2.3c-0.1-1.5,0-3.1,0-4.6v-2.7c0-1.5,0.3-3,0.3-4.4c0-2.2-0.2-4.3-0.2-6.5c0-1.8,0.2-3.6,0.2-5.4
		c0-0.3,0-0.8-0.2-1.3c-0.2,0.1-0.3,0.2-0.5,0.2l-0.1,0l-0.1,0c-0.2,0.1-0.3,0.1-0.5,0.1c-0.2,0-0.4,0.1-0.5,0.1l-0.2,0.1l-0.2,0
		c-0.1,0-0.3,0.1-0.5,0.2L136.3,7l-0.1,0c-0.1,0-0.3,0.1-0.5,0.1c-0.1,0-0.2,0-0.2,0c-0.2,0.1-0.4,0.2-0.7,0.3
		c-0.4,0.2-0.8,0.3-1.1,0.4c-0.6,0.3-1.3,0.4-1.9,0.5c-0.5,0.1-1,0.1-1.6,0.1c-0.3,0-0.6,0-1,0c-0.3,0-0.6,0-0.9,0h-0.7
		c-0.1,0-0.2,0-0.4,0c-0.6,0-1.1-0.1-1.5-0.4c-0.8-0.4-1.2-1.2-1.2-2.2c0-0.7,0.3-1.3,0.5-1.6c0-0.1,0.1-0.1,0.1-0.2l0-0.1
		c-0.7,0.3-1.1,0.7-1.3,1.2c-0.3,0.8-0.4,1.8-0.4,1.9c0,0.5,0.1,0.9,0.1,1.3c0.1,0.8,0.1,1.6,0.2,2.4c0,0.6,0.1,1.2,0.1,1.8
		c0,1-0.1,1.9-0.2,2.9c0,0.9,0.1,1.8,0.1,2.6c0.1,1.1-0.1,2.2-0.1,3.3c0,0.8,0.1,1.5,0.1,2.3v2.9c0,1.1,0.2,2.1,0.2,3.2
		c0,0.9-0.1,1.9-0.2,2.8c-0.1,1.5-0.1,2.9-0.1,4.4v1.8c-0.1,0.6,0,1.2,0,1.8c-0.1,0.7-0.2,1.4-0.2,2.2
		C123.6,44.1,124.2,44.6,124.8,44.9z"/>
	<path class="st0" d="M127.6,6.9h0.8c1.1,0,2.2,0.1,3.2-0.1c0.7-0.1,1.3-0.4,1.6-0.5c0.4-0.1,0.7-0.2,1.1-0.4
		c0.2-0.1,0.5-0.2,0.7-0.3c0.3-0.1,0.7-0.1,0.9-0.2c0.3-0.1,0.6-0.2,0.9-0.3c0.4-0.2,0.8-0.2,1.2-0.3c0.4-0.2,0.9-0.4,1.3-0.6
		c0.9-0.4,1.8-0.5,2.8-0.8c0.7-0.2,1.2-0.7,1.2-1.5c0-0.5-0.2-1.1-0.7-1.3c-0.7-0.3-1.6-0.1-2.4-0.1c-0.7,0-1.5-0.1-2.2-0.1
		c-1.3,0-2.7,0.2-3.9,0.2c-0.6-0.1-1.1-0.1-1.6-0.1c-0.4-0.1-0.9,0-1.3,0c-0.8,0-0.7-0.1-1.2-0.1c-1.1,0.2-1.5,1.3-2,2.2
		c-0.3,0.5-0.6,0.9-0.8,1.3c-0.2,0.3-0.3,0.6-0.5,0.9c-0.2,0.3-0.4,0.7-0.4,1.1C126.2,7.1,127.6,6.9,127.6,6.9z"/>
	<path class="st0" d="M130.4,85.1c-0.1-0.9,0.1-3.4-0.5-4.3c-0.2-0.2-0.4-0.5-0.7-0.6c-0.8-0.6-0.9-0.5-2.5-0.6
		c-1.2,0-2.4-0.2-3.6-0.2c-0.4,0-2.4,0.2-2.8-0.1c-0.1-0.1-0.2-0.3-0.2-0.6c0-0.6,0.3-0.9,0.6-1.3c0.1-0.2,0.2-0.4,0.3-0.5
		c0.1-0.2,0.2-0.3,0.3-0.5c0.1-0.1,0.2-0.3,0.2-0.5c0.1-0.2,0.3-0.4,0.4-0.6c0.1-0.2,0.2-0.4,0.3-0.6c0.2-0.5,0.5-0.9,0.8-1.4
		c0.1-0.3,0.2-0.7,0.6-1.3c0.3-0.4,0.6-0.8,0.9-1.2c0.6-0.8,0.8-1.1,1.3-1.9c0.3-0.7,0.7-1.6,1.2-2.2c0.3-0.4,0.7-0.7,1-1.1
		c0.3-0.2,0.5-0.5,0.7-0.8c0.3-0.5,0.4-0.6,0.6-0.9c0.3-0.6,0.3-1.2,0.3-1.4c0.1-0.3,0.1-0.6,0.1-0.9c0.1-0.9-0.1-1.8-0.1-2.7
		c0-2.3,0.3-4-0.3-5.1c-0.2-0.3-0.4-0.5-0.8-0.7c-0.9-0.6-1.5-0.6-2.1-0.6c-0.5,0-1,0-1.5,0l0,0c-0.2,0.2-0.3,0.3-0.3,0.4
		c-0.2,0.2-0.3,0.4-0.4,0.5c-1.3,1.2-2.5,1.4-3.3,1.4c-0.3,0-0.6,0-0.8,0c-0.1,0-0.6,0-0.7,0c-0.1,0-0.3,0-0.4,0
		c-0.2,0-0.5,0.1-0.7,0.1c-0.1,0-0.2,0-0.3,0c-0.2,0-0.4,0-0.6,0c-0.1,0-0.2,0-0.3,0c-0.1,0-0.2,0-0.3,0c-0.2,0-0.4,0-0.6,0
		c-0.2,0-0.5,0-0.7,0c-0.3,0-0.6,0-0.9,0c-0.2,0-0.3,0-0.5,0c-0.2,0-0.3,0-0.5,0c-0.1,0-0.2,0-0.3,0c-0.1,0-0.2,0-0.4,0
		c-0.2,0-0.4,0-0.6,0c-0.4,0-1.9-0.2-2.7-0.5c-0.6-0.2-1-0.6-1.2-0.9l0,0c-0.1-0.1-0.1-0.1-0.2-0.2c-0.3-0.2-0.6-0.5-0.9-0.8
		c0,0-0.1-0.1-0.1-0.1c-0.2,0-0.4,0.1-0.6,0.1c-0.4,0-0.8-0.1-1.3-0.1c-0.3,0.1-0.7,0.2-0.7,0.2c-0.6,0.2-1.6,0.4-2.2,1.9
		c-0.5,1.3-0.3,2.4-0.3,3.9v4.3c0,1.4-0.1,0.8,0,2.2c0.1,0.4,0.1,0.5,0.1,0.8c0.1,0.4,0.6,1.1,1.6,1.1c0.4,0,1.2-0.1,1.3-0.1
		c1.3-0.2,1.1-0.3,2-0.3c0.4,0,0.8,0.1,1.2,0.1c0.4-0.1,0.8-0.2,1.2-0.2c0.9,0,1.1,0.9,1.1,1.2c0,0.9-0.7,1.6-1.1,2.4
		c-1,1.6-1.7,3.4-2.7,5c-0.4,0.6-0.9,1.2-1.3,1.8c-0.3,0.5-0.6,1.1-1,1.6l-0.7,0.7c-0.4,0.5-0.4,0.6-0.7,1.2
		c-0.9,1.5-1.1,2.1-0.9,3.9c0.1,0.7,0.1,1.4,0.1,2.1c0,0.6,0,1-0.1,1.6c0,0.7,0,3.3,0.1,4c0.1,0.5,0.2,0.9,0.3,1.1
		c0.4,0.6,1.2,1,1.9,1c0.4,0,0.9-0.1,1-0.1c0.4-0.1,0.7-0.1,1.2-0.1c0.6,0,1.3,0.1,1.9,0.2h1.1c0.6,0.1,1.1,0.1,1.7,0.1
		c0.6,0,1.3-0.1,1.9-0.1c1-0.1,2.1-0.1,3.1-0.1c1.8,0,3.5,0.3,5.2,0.3c0.4,0,0.7,0,1.1-0.1c0.6-0.1,1.1-0.2,1.7-0.2
		c0.3,0,0.6,0.1,0.9,0.1c0.8,0.1,1.7,0.2,2.5,0.2c1.6,0,2.3-0.6,2.7-1.3c0.4-0.9,0.3-2.2,0.3-3.2c0-0.6,0.1-1.2,0.1-1.8
		C130.6,86.8,130.4,85.9,130.4,85.1z"/>
	<path class="st0" d="M124.9,46.7c-0.4,0.1-0.8-0.1-1.3-0.1c-0.8,0-2.7,0.1-3.5,0.4c-0.3,0.1-0.7,0.4-1.1,0.5
		c-0.3,0.2-0.7,0.3-1.1,0.4c-0.6,0.2-1.2,0.6-1.8,0.6c-0.4,0.1-0.7-0.1-1.1-0.2c-0.3-0.1-0.7-0.2-1.1-0.4c-0.2-0.1-0.6-0.3-0.9-0.4
		c-0.2-0.1-0.5-0.1-0.7-0.2c-0.2-0.1-0.3-0.3-0.6-0.4c-1.1-0.5-2.1-0.3-2.6-0.3h-1.8c-1.1,0-1.8-0.2-2.3,0.2
		c-0.2,0.2-0.2,0.5-0.2,0.6c0,0.6,0.6,0.9,0.9,1.3c0.2,0.2,0.3,0.4,0.6,0.6c0.2,0.3,0.5,0.5,0.6,0.6c0.3,0.2,0.6,0.4,0.8,0.6
		c0.3,0.2,0.4,0.5,0.7,0.8c0.3,0.4,0.7,0.6,1,0.9c0.2,0.2,0.4,0.5,0.7,0.6c0.3,0.2,1.7,0.4,2.1,0.4c0.3,0,0.7-0.1,1-0.1
		c0.3,0,0.6,0.1,0.9,0.1c0.7,0.1,1.4-0.1,2.1-0.1c0.3,0,0.6-0.1,0.9-0.1c0.3,0,0.6,0.1,0.9,0.1c0.6,0.1,1-0.1,1.6-0.1
		c1.3,0.1,2.2,0.3,3.4-0.8c0.2-0.2,0.3-0.4,0.7-0.9c0.5-0.8,0.8-0.9,1.3-1.3c0.3-0.3,0.7-0.6,1.1-0.9c0.5-0.3,1.3-1,1.3-1.8
		c0-0.8-0.4-0.9-1.1-1C125.5,46.5,125.4,46.7,124.9,46.7z"/>
	<path class="st0" d="M98.2,86.7v-0.8c0.1-0.6,0.1-1.3,0.1-1.9c0-0.3,0.1-0.5,0.1-0.8c0.1-0.5-0.1-0.9-0.1-1.4
		c0-0.8-0.1-1.6-0.2-2.3c-0.1-1.5,0-3.1,0-4.6v-2.7c0-1.5,0.3-3,0.3-4.4c0-2.2-0.2-4.3-0.2-6.5c0-1.8,0.2-3.6,0.2-5.4
		c0-0.4,0-1.1-0.4-1.8c-0.1,0-0.3,0.1-0.4,0.1c-0.2,0-0.4,0.1-0.5,0.1L97,54.3l-0.2,0c-0.1,0-0.3,0.1-0.4,0.1L96,54.6l-0.1,0
		c-0.1,0-0.3,0.1-0.5,0.1c-0.1,0-0.2,0-0.2,0c-0.2,0.1-0.5,0.2-0.7,0.3c-0.4,0.2-0.8,0.3-1.1,0.4c-0.4,0.2-1.1,0.4-1.9,0.5
		c-0.5,0.1-1,0.1-1.6,0.1h0c-0.3,0-0.6,0-1,0c-0.3,0-0.6,0-0.9,0h-0.7c-0.1,0-0.2,0-0.4,0c-1.6,0-2.7-1-2.7-2.5
		c0-0.4,0.1-0.8,0.3-1.1c-0.8,0.2-1.2,0.7-1.4,1.3c-0.3,0.8-0.4,1.8-0.4,1.9c0,0.5,0.1,0.9,0.1,1.3c0.1,0.8,0.1,1.6,0.2,2.4
		c0,0.6,0.1,1.2,0.1,1.8c0,1-0.1,1.9-0.2,2.9c0,0.9,0.1,1.8,0.1,2.6c0.1,1.1-0.1,2.2-0.1,3.3c0,0.8,0.1,1.5,0.1,2.3V75
		c0,1.1,0.2,2.1,0.2,3.2c0,0.9-0.1,1.9-0.2,2.8c-0.1,1.5-0.1,2.9-0.1,4.4V87c-0.1,0.6,0,1.2,0,1.8c-0.1,0.7-0.2,1.4-0.2,2.2
		c0,1.5,0.6,2,1.2,2.3c1,0.5,1.8,0.5,2.9,0.5h1.8c0.9,0,1.9-0.2,2.9-0.2c1.2,0,2.4,0.2,3.7,0.2c2.7,0,3.4-1.4,3.4-2.8
		c0-0.5-0.1-1.2-0.2-1.8C98.3,88,98.2,87.2,98.2,86.7z"/>
	<path class="st0" d="M103,49.4c0-0.5-0.2-1.1-0.7-1.3c-0.7-0.3-1.6-0.1-2.4-0.1c-0.7,0-1.5-0.1-2.2-0.1c-1.3,0-2.7,0.2-3.9,0.2
		c-0.6-0.1-1.1-0.1-1.6-0.1c-0.4-0.1-0.9,0-1.3,0c-0.8,0-0.7-0.1-1.2-0.1c-1.1,0.2-1.5,1.3-2,2.2c-0.3,0.5-0.6,0.9-0.8,1.3
		c-0.2,0.3-0.3,0.6-0.5,0.9c-0.2,0.4-0.4,0.7-0.4,1.1c0,1.1,1.4,0.9,1.4,0.9h0.8c1.1,0,2.2,0.1,3.2-0.1c0.7-0.1,1.3-0.4,1.6-0.5
		c0.4-0.1,0.7-0.2,1.1-0.4c0.2-0.1,0.5-0.2,0.7-0.3C95,53,95.3,53,95.6,53c0.3-0.1,0.6-0.2,0.9-0.3c0.4-0.2,0.8-0.2,1.2-0.3
		c0.4-0.2,0.9-0.4,1.3-0.6c0.9-0.4,1.8-0.5,2.8-0.8C102.5,50.7,103,50.2,103,49.4z"/>
</g>
</svg>
