<?xml version="1.0" encoding="utf-8"?>
<!-- Generator: Adobe Illustrator 16.0.0, SVG Export Plug-In . SVG Version: 6.00 Build 0)  -->
<!DOCTYPE svg PUBLIC "-//W3C//DTD SVG 1.1//EN" "http://www.w3.org/Graphics/SVG/1.1/DTD/svg11.dtd" [
	<!ENTITY ns_flows "http://ns.adobe.com/Flows/1.0/">
	<!ENTITY ns_extend "http://ns.adobe.com/Extensibility/1.0/">
	<!ENTITY ns_ai "http://ns.adobe.com/AdobeIllustrator/10.0/">
	<!ENTITY ns_graphs "http://ns.adobe.com/Graphs/1.0/">
]>
<svg version="1.1" id="Vrstva_1" xmlns:x="&ns_extend;" xmlns:i="&ns_ai;" xmlns:graph="&ns_graphs;"
	 xmlns="http://www.w3.org/2000/svg" xmlns:xlink="http://www.w3.org/1999/xlink" xmlns:a="http://ns.adobe.com/AdobeSVGViewerExtensions/3.0/"
	 x="0px" y="0px" width="296.7px" height="225.3px" viewBox="0 0 296.7 225.3" style="enable-background:new 0 0 296.7 225.3;"
	 xml:space="preserve">
<style type="text/css">
<![CDATA[
	.st0{fill:#FFFFFF;}
]]>
</style>
<g>
	<path class="st0" d="M295,7.1c-0.9-1.7-2.2-3.5-4.2-4.9c-2-1.4-4.7-2.2-8.1-2.2H14.1c-0.1,0-3.4,0-7,1.7C5.4,2.6,3.6,3.9,2.2,6
		C0.9,8,0,10.7,0,14.1v197.1c0,0.1,0,3.5,1.7,7c0.9,1.7,2.2,3.5,4.2,4.9c2,1.4,4.7,2.2,8.1,2.2h268.6c0.1,0,3.5,0,7-1.7
		c1.7-0.9,3.5-2.2,4.9-4.2c1.4-2,2.2-4.7,2.2-8.1V14.1C296.7,13.9,296.7,10.6,295,7.1z M293.6,211.2c0,2.9-0.7,4.9-1.7,6.4
		c-0.7,1.1-1.7,2-2.7,2.6c-1.5,1-3.2,1.5-4.5,1.7c-0.6,0.1-1.2,0.2-1.6,0.2c-0.2,0-0.3,0-0.4,0l-0.1,0h0h0H14.1
		c-2.9,0-4.9-0.7-6.4-1.7c-1.1-0.7-2-1.7-2.6-2.7c-1-1.5-1.5-3.2-1.7-4.5c-0.1-0.6-0.2-1.2-0.2-1.6c0-0.2,0-0.3,0-0.4l0-0.1v0v0
		V14.1c0-2.9,0.7-4.9,1.7-6.4c0.7-1.1,1.7-2,2.7-2.6c1.5-1,3.2-1.5,4.5-1.7c0.6-0.1,1.2-0.2,1.6-0.2c0.2,0,0.3,0,0.4,0l0.1,0h0h0
		h268.6c2.9,0,4.9,0.7,6.4,1.7c1.1,0.7,2,1.7,2.6,2.7c1,1.5,1.5,3.2,1.7,4.5c0.1,0.6,0.2,1.2,0.2,1.6c0,0.2,0,0.3,0,0.4l0,0.1v0v0
		V211.2z"/>
	<rect x="132" y="24.3" class="st0" width="2.6" height="12.4"/>
	<polygon class="st0" points="136.1,21.4 133.4,21.4 132,23.7 134.1,23.7 	"/>
	<polygon class="st0" points="127,23.6 128.7,21.4 127,21.4 126.1,22.5 126.1,22.5 125.2,21.4 123.4,21.4 125.1,23.6 	"/>
	<path class="st0" d="M125.4,34.6c-1.1,0-2.2-0.4-2.9-0.8l-0.5,2.3c0.6,0.4,1.9,0.8,3.2,0.8c3.1,0,4.6-1.8,4.6-3.9
		c0-1.8-0.9-2.9-3-3.7c-1.5-0.6-2.1-1-2.1-1.7c0-0.6,0.5-1.2,1.7-1.2c1.1,0,1.9,0.4,2.4,0.6l0.6-2.2c-0.7-0.3-1.6-0.6-2.9-0.6
		c-2.7,0-4.3,1.6-4.3,3.7c0,1.8,1.3,2.9,3.2,3.7c1.4,0.5,1.9,1,1.9,1.7C127.2,34.1,126.6,34.6,125.4,34.6z"/>
	<polygon class="st0" points="165.8,31.5 170.1,31.5 170.1,36.7 172.7,36.7 172.7,24.3 170.1,24.3 170.1,29.1 165.8,29.1 
		165.8,24.3 163.2,24.3 163.2,36.7 165.8,36.7 	"/>
	<polygon class="st0" points="182.4,34.4 177.8,34.4 177.8,24.3 175.3,24.3 175.3,36.7 182.4,36.7 	"/>
	<path class="st0" d="M187,33.6h3.3l0.9,3.2h2.8l-3.6-12.4H187l-3.5,12.4h2.7L187,33.6z M188.1,28.8c0.2-0.7,0.4-1.7,0.5-2.4h0
		c0.2,0.7,0.4,1.7,0.6,2.4l0.7,2.6h-2.5L188.1,28.8z"/>
	<path class="st0" d="M178.7,26.6l0.4,1.2c1.5-0.1,2.7-0.8,2.7-2.3c0-0.7-0.3-1.2-0.7-1.5l-1.8,0.3c0.2,0.3,0.5,0.7,0.5,1.1
		C179.8,26.1,179.3,26.5,178.7,26.6z"/>
	<path class="st0" d="M143.1,32.3c0.2,0.1,0.5,0.1,0.9,0.1c1.5,0,2.8-0.4,3.7-1.3c0.7-0.7,1.1-1.7,1.1-2.9c0-1.2-0.5-2.2-1.2-2.9
		c-0.8-0.7-1.9-1-3.5-1c-1.6,0-2.7,0.1-3.5,0.3v12.3h2.6V32.3z M143.1,26.5c0.2-0.1,0.5-0.1,1.1-0.1c1.3,0,2,0.7,2,1.8
		c0,1.3-0.8,2-2.2,2c-0.4,0-0.6,0-0.9-0.1V26.5z"/>
	<path class="st0" d="M155.6,36.9c3.4,0,5.6-2.5,5.6-6.5c0-3.4-1.9-6.3-5.4-6.3c-3.4,0-5.6,2.8-5.6,6.5
		C150.2,34.2,152.2,36.9,155.6,36.9z M155.7,26.3c1.8,0,2.7,1.9,2.7,4.2c0,2.4-1,4.2-2.7,4.2c-1.7,0-2.8-1.7-2.8-4.2
		C152.9,28.1,154,26.3,155.7,26.3z"/>
	<path class="st0" d="M241.2,34.6c-1.1,0-2.2-0.4-2.9-0.8l-0.5,2.3c0.6,0.4,1.9,0.8,3.2,0.8c3.1,0,4.6-1.8,4.6-3.9
		c0-1.8-0.9-2.9-3-3.7c-1.5-0.6-2.1-1-2.1-1.7c0-0.6,0.5-1.2,1.7-1.2c1.1,0,1.9,0.4,2.4,0.6l0.6-2.2c-0.7-0.3-1.6-0.6-2.9-0.6
		c-2.7,0-4.3,1.6-4.3,3.7c0,1.8,1.3,2.9,3.2,3.7c1.4,0.5,1.9,1,1.9,1.7C243,34.1,242.4,34.6,241.2,34.6z"/>
	<path class="st0" d="M253.5,36.7l3.8-12.4h-2.7l-1.5,5.3c-0.4,1.4-0.7,2.9-1,4.4h0c-0.3-1.5-0.6-2.9-1-4.4l-1.4-5.2h-2.8l3.7,12.4
		H253.5z"/>
	<polygon class="st0" points="266.2,34.4 261.5,34.4 261.5,31.5 265.7,31.5 265.7,29.2 261.5,29.2 261.5,26.6 266,26.6 266,24.3 
		258.9,24.3 258.9,36.7 266.2,36.7 	"/>
	<path class="st0" d="M226.1,33.6h3.3l0.9,3.2h2.8l-3.6-12.4h-3.4l-3.5,12.4h2.7L226.1,33.6z M227.1,28.8c0.2-0.7,0.4-1.7,0.5-2.4h0
		c0.2,0.7,0.4,1.7,0.6,2.4l0.7,2.6h-2.5L227.1,28.8z"/>
	<polygon class="st0" points="270.6,36.7 273.2,36.7 273.2,26.7 276.3,26.7 276.3,24.3 267.5,24.3 267.5,26.7 270.6,26.7 	"/>
	<path class="st0" d="M120,32.2v-7.8h-2.6v7.8c0,1.9-0.7,2.5-1.8,2.5c-0.5,0-1-0.1-1.3-0.2l-0.3,2.3c0.5,0.2,1.3,0.3,1.9,0.3
		C118.4,36.9,120,35.7,120,32.2z"/>
	<path class="st0" d="M95.5,31.9h0.8c1.1,0,1.6,0.4,1.9,2c0.3,1.5,0.6,2.5,0.8,2.9h2.6c-0.2-0.5-0.6-2.1-0.9-3.5
		c-0.3-1.1-0.7-2-1.5-2.3v-0.1c1-0.4,2-1.5,2-3c0-1.1-0.4-2-1.1-2.6c-0.8-0.7-2-1-3.7-1c-1.4,0-2.6,0.1-3.4,0.3v12.3h2.6V31.9z
		 M95.5,26.4c0.2-0.1,0.5-0.1,1.2-0.1c1.2,0,1.9,0.6,1.9,1.7c0,1.1-0.8,1.8-2.1,1.8h-1V26.4z"/>
	<path class="st0" d="M106.1,33.6h3.3l0.9,3.2h2.8l-3.6-12.4h-3.4l-3.5,12.4h2.7L106.1,33.6z M107.2,28.8c0.2-0.7,0.4-1.7,0.5-2.4h0
		c0.2,0.7,0.4,1.7,0.6,2.4l0.7,2.6h-2.5L107.2,28.8z"/>
	<path class="st0" d="M204,35.3c1.1-1,1.9-2.7,1.9-5c0-2.2-0.7-3.7-1.9-4.7c-1.1-0.9-2.5-1.3-4.7-1.3c-1.3,0-2.5,0.1-3.5,0.3v12.2
		c0.6,0.1,1.6,0.2,2.9,0.2C201,36.9,202.8,36.4,204,35.3z M198.4,26.5c0.2-0.1,0.6-0.1,1.2-0.1c2.2,0,3.6,1.4,3.6,3.9
		c0,3-1.5,4.4-3.9,4.3c-0.3,0-0.7,0-0.9-0.1V26.5z"/>
	<path class="st0" d="M84.7,32.7l1-1.3l2.8,5.4h3l-4-7.1l3.8-5.3h-3.2l-2.6,4.1c-0.3,0.4-0.5,0.9-0.8,1.4h0v-5.5h-2.6v12.4h2.6V32.7
		z"/>
	<path class="st0" d="M213.7,33c0-2,0-3.8-0.1-5.4h0.1c0.5,1.5,1.3,3.1,2,4.4l2.4,4.8h2.7V24.3h-2.4v3.6c0,1.9,0.1,3.6,0.2,5.2h0
		c-0.5-1.4-1.2-2.9-1.9-4.3l-2.4-4.6h-3v12.4h2.4V33z"/>
	<path class="st0" d="M233.1,143.4h-14.8v1.6c3.4,0.5,3.7,1.2,3.7,10v38.8c0,8.2-0.3,9.2-4.1,10v1.6h12.6c10.9,0,18.9-9.6,18.9-33.1
		c0-8.6-1.5-15.6-3.8-20.3C242.6,145.7,238.2,143.4,233.1,143.4z M232.6,202.7c-2.2,0-3.1-2.2-3.1-9.3V152c0-2.6,0.2-4.2,0.5-4.7
		c0.3-0.7,1.1-1.5,2.5-1.5c4.7,0,8.5,8.5,8.5,27.6C240.9,191.9,237.6,202.7,232.6,202.7z"/>
	<path class="st0" d="M184.2,192.3v-37.7c0-7.8,0.4-8.9,3.9-9.8v-1.3h-14.8v1.6c3,0.5,3.4,1.3,3.4,9.3v16.2h-10v-16.2
		c0-8.2,0.3-8.6,3.5-9.3v-1.6H155v1.6c3.8,0.7,4.2,1.8,4.2,10v37.3c0,9.8-0.3,10.9-4,11.5v1.6H170v-1.6c-3-0.5-3.4-1.6-3.4-10.6V174
		h10v19.1c0,9-0.5,10.1-3.6,10.6v1.6h15v-1.6C184.6,203.2,184.2,201.8,184.2,192.3z"/>
	<path class="st0" d="M68.2,141.6L68.2,141.6c-7.5,0-15.1,11.2-15.1,33.5c0,15.4,5,31.8,14.9,31.8C76,207,83,195.8,83,173.4
		C83,156,77.3,141.6,68.2,141.6z M68.6,204.5c-4.2,0-7.1-14-7.1-32.5c0-17.8,2.6-28,6.1-28h0.1c5.2,0,7,15.5,7,32.1
		C74.6,195.5,72.2,204.5,68.6,204.5z"/>
	<path class="st0" d="M110,119.4H95.4v1.6c3.8,1.3,4.2,2.6,4.2,13.6v55.8c0,10.8-0.4,12.5-4.4,13.3v1.6h17.1v-1.6
		c-4.6-0.8-4.9-2.6-4.9-13.3v-21.3l3.2,2.2c0.7,0,1.1,0,2.1-0.3c6.8-1.8,12.6-10.2,12.6-27.1c0-9.4-2-16-4.8-19.8
		C117.8,120.9,115.2,119.4,110,119.4z M109.6,167.2c-1.1,0-1.5-0.4-2.3-0.8v-38.9c0-2.6,0.2-4.2,1.1-4.7c0.5-0.3,0.9-0.7,1.8-0.7
		c3.6,0,6.7,6.1,6.7,22.1C116.8,164.5,111.8,167.2,109.6,167.2z"/>
	<path class="st0" d="M140.2,141.6L140.2,141.6c-7.5,0-15.1,11.2-15.1,33.5c0,15.4,5,31.8,14.9,31.8c8.1,0,15.1-11.2,15.1-33.5
		C155.1,156,149.4,141.6,140.2,141.6z M140.7,204.5c-4.2,0-7.1-14-7.1-32.5c0-17.8,2.6-28,6.1-28h0.1c5.2,0,7,15.5,7,32.1
		C146.7,195.5,144.3,204.5,140.7,204.5z"/>
	<path class="st0" d="M266.6,145.3l1.3,0.7c2.2,1.1,2.5,2.3,1.6,6.3c-1.4,6.1-3,14.8-4.6,21c-1.7-6.9-3.2-14.1-5.3-23
		c-0.7-3.2-0.3-3.9,1.1-4.4l1.5-0.5v-1.9h-15.2v1.9c3,0.7,3.4,1.3,5.5,8.9c1.9,7.1,3.6,14,5.2,20.9c0.3,1.6,0.5,2.8,0.5,5.8v12.8
		c0,8.1-0.3,9-4.6,9.8v1.9h16.6v-1.9c-4.1-0.5-4.5-1.8-4.5-10.5v-13.1c0-2.4,0.1-3.8,0.5-5.7c2-8.4,3.7-15.8,5-20.3
		c1.8-6.3,2.6-8.2,5.8-8.6v-1.9h-10.4V145.3z"/>
	<path class="st0" d="M35,143.4H20.3v1.6c3.4,0.5,3.7,1.2,3.7,10v38.8c0,8.2-0.3,9.2-4.1,10v1.6h12.6c10.9,0,18.9-9.6,18.9-33.1
		c0-8.6-1.5-15.6-3.8-20.3C44.6,145.7,40.1,143.4,35,143.4z M34.5,202.7c-2.2,0-3.1-2.2-3.1-9.3V152c0-2.6,0.2-4.2,0.5-4.7
		c0.3-0.7,1.1-1.5,2.5-1.5c4.7,0,8.5,8.5,8.5,27.6C42.9,191.9,39.6,202.7,34.5,202.7z"/>
	<path class="st0" d="M203.1,141.6L203.1,141.6c-7.5,0-15.1,11.2-15.1,33.5c0,15.4,5,31.8,14.9,31.8c8.1,0,15.1-11.2,15.1-33.5
		C218,156,212.3,141.6,203.1,141.6z M203.6,204.5c-4.2,0-7.1-14-7.1-32.5c0-17.8,2.6-28,6.1-28h0.1c5.2,0,7,15.5,7,32.1
		C209.6,195.5,207.2,204.5,203.6,204.5z"/>
	<path class="st0" d="M241.5,62.5c2.7,7.1,5.2,14,7.5,20.9c0.5,1.6,0.8,2.8,0.8,5.8v12.8c0,8.1-0.4,9-6.6,9.8v1.9H267v-1.9
		c-5.9-0.5-6.5-1.8-6.5-10.5V88.2c0-2.4,0.1-3.8,0.8-5.7c2.9-8.4,5.3-15.8,7.2-20.3c2.5-6.3,3.7-8.2,8.3-8.6v-1.9h-15v1.9l1.9,0.7
		c3.1,1.1,3.6,2.3,2.3,6.3c-2,6.1-4.4,14.8-6.7,21c-2.4-6.9-4.7-14.1-7.6-23c-1.1-3.2-0.4-3.9,1.6-4.4l2.1-0.5v-1.9h-21.8v1.9
		C237.9,54.2,238.6,54.9,241.5,62.5z"/>
	<path class="st0" d="M121.3,63.9c4.8,16.6,9.5,33.8,14.3,51.3h2.1c5.7-20.3,11.3-41.4,14.6-51.5c2.6-7.8,3.4-9.6,7.8-10.5v-1.6
		h-14.8v1.6l1.6,0.4c3.8,0.9,4.4,2,2.8,8.4c-1.6,6.6-5.9,23.6-8.6,34.5c-3.5-12.7-6.5-25.1-9.5-37.3c-1-3.9-0.1-4.7,2.4-5.4l2.1-0.5
		v-1.6H114v1.6C117.8,54.1,118.8,55.2,121.3,63.9z"/>
	<path class="st0" d="M184.2,112c-5.1-0.8-5.7-1.6-5.7-10.9V63.5c0-8.9,0.6-9.6,5.7-10.2v-1.6H162v1.6c5,0.7,5.6,1.3,5.6,9.6v38.8
		c0,8.9-0.6,9.6-5.6,10.4v1.6h22.1V112z"/>
	<path class="st0" d="M27.1,80.2c0,11.2-0.5,19.8-0.8,23.8c-0.4,4.7-1.5,7.7-7.4,7.9v1.6h19.9V112c-7.4-0.4-8-3.2-8.4-7.9
		c-0.3-4-0.8-12.7-0.8-23.8V47h0.2l33.7,68.3h2.6V61.1c0-12.5,0.5-21.3,0.9-25.3c0.4-3.9,1.4-6.2,7.2-6.5v-1.6H55.1v1.6
		c5.9,0.4,7.1,2.6,7.6,6.5c0.5,4,1,12.8,1,25.3v25.1h-0.2L33.6,27.7h-15v1.6c4.3,0.4,5.8,3.2,7.4,6.6c1.3,2.8,1.2,4.8,1.2,14.4V80.2
		z"/>
	<path class="st0" d="M116.2,81.7c0-17.4-8.2-31.8-21.4-31.8h-0.1c-10.8,0-21.6,11.2-21.6,33.5c0,15.4,7.2,31.8,21.4,31.8
		C106.1,115.3,116.2,104.1,116.2,81.7z M95.5,112.8c-6.1,0-10.3-14-10.3-32.5c0-17.8,3.7-28,8.7-28H94c7.5,0,10.1,15.5,10.1,32.1
		C104.1,103.8,100.6,112.8,95.5,112.8z"/>
	<path class="st0" d="M195.6,65.6l28.2,49.4h2.1V78.1c0-9.8,0.3-15.4,0.5-18.5c0.4-5.1,2.2-6.1,5.5-6.3v-1.6h-15.6v1.6
		c4.5,0.4,6.4,1.2,6.8,6.3c0.3,3.1,0.6,8.6,0.6,18.5V91h-0.2l-22.8-39.3h-14.5v1.6c5.4,0.7,7,2.3,7,14.1v19.4
		c0,10.1-0.2,15.2-0.6,19.9c-0.2,3.2-2.1,5.1-5.4,5.3v1.6h15.3V112c-4.4-0.3-6.3-2-6.5-5.3c-0.3-4.7-0.6-9.8-0.6-19.9L195.6,65.6
		L195.6,65.6z"/>
</g>
</svg>
