<?xml version="1.0" encoding="utf-8"?>
<!-- Generator: Adobe Illustrator 16.0.0, SVG Export Plug-In . SVG Version: 6.00 Build 0)  -->
<!DOCTYPE svg PUBLIC "-//W3C//DTD SVG 1.1//EN" "http://www.w3.org/Graphics/SVG/1.1/DTD/svg11.dtd" [
	<!ENTITY ns_flows "http://ns.adobe.com/Flows/1.0/">
	<!ENTITY ns_extend "http://ns.adobe.com/Extensibility/1.0/">
	<!ENTITY ns_ai "http://ns.adobe.com/AdobeIllustrator/10.0/">
	<!ENTITY ns_graphs "http://ns.adobe.com/Graphs/1.0/">
]>
<svg version="1.1" id="Vrstva_1" xmlns:x="&ns_extend;" xmlns:i="&ns_ai;" xmlns:graph="&ns_graphs;"
	 xmlns="http://www.w3.org/2000/svg" xmlns:xlink="http://www.w3.org/1999/xlink" xmlns:a="http://ns.adobe.com/AdobeSVGViewerExtensions/3.0/"
	 x="0px" y="0px" width="296.3px" height="57px" viewBox="0 0 296.3 57" style="enable-background:new 0 0 296.3 57;"
	 xml:space="preserve">
<style type="text/css">
<![CDATA[
	.st0{fill:#FFFFFF;}
]]>
</style>
<g>
	<g>
		<path class="st0" d="M268.8,34.3c0-9.1,2.4-11,5.8-14.2c2-1.8,3.9-4.2,3.9-7.1c0-3.3-2.7-5.9-6.1-5.9c-3.8,0-6.3,3.5-6.4,7.2h-7.5
			c-0.1-7.9,6-14.3,14-14.3c7.3,0,13.6,6.3,13.6,13.7c0,9.7-10,8.1-10,20.7H268.8z M276.1,45.6h-7.3v-7.1h7.3V45.6z"/>
		<path class="st0" d="M296.3,34.2H289l0-32.7h7.3L296.3,34.2z M296.3,45.6H289v-7.1h7.3V45.6z"/>
		<path class="st0" d="M4,21H0v-6.7h11.2v4.9c2.3-3.6,6-5.3,10.2-5.3c8.8,0,15.9,7.3,15.9,16.1c0,8.5-6.9,16-15.6,16
			c-4.1,0-8.1-1.6-10.6-4.9v9.1h4V57H0v-6.7h4V21z M30,30.1c0-5.1-4-9.5-9.2-9.5c-5.3,0-9.6,4.1-9.6,9.5c0,5.2,4.2,9.4,9.4,9.4
			C25.7,39.4,30,35.2,30,30.1"/>
		<path class="st0" d="M49.3,19.6c1.8-3.7,5.3-5.5,9.4-5.7v7.3c-2.3,0.1-4.4,0.7-6.1,2.3c-2.3,2-2.7,4.5-2.7,7.4v7.9h4v6.7H38.6
			v-6.7h4V21h-4v-6.7h10.7V19.6z"/>
		<path class="st0" d="M89.9,36.4c-2.5,6-8.3,10-14.8,10c-9.1,0-16.5-7.1-16.5-16.3c0-9.2,7-16.7,16.3-16.7c4.3,0,8.7,1.9,11.7,5
			c3.1,3.3,4.4,7.3,4.4,11.7l-0.2,2.5H65.6c0.9,4.3,4.9,7.5,9.4,7.5c3.1,0,5.8-1.2,7.6-3.7H89.9z M84.5,27.1
			c-1.2-4.5-5.2-7.4-9.8-7.4c-4.2,0-8.3,3.3-9.1,7.4H84.5z"/>
		<path class="st0" d="M125.4,35c-1.9,6.6-8.7,11.4-15.5,11.4c-9.1,0-16.5-7.3-16.5-16.5c0-8.7,6.9-16.6,15.7-16.6
			c3.5,0,6.6,1.4,9,3.9v-3h6.1v10.4h-6.7c-1.8-2.6-4.6-4.3-7.8-4.3c-5.3,0-9.2,4.3-9.2,9.5c0,5.3,4.2,9.4,9.4,9.4
			c3,0,6.1-1.6,7.5-4.3H125.4z"/>
		<polygon class="st0" points="112.2,10.5 106.8,10.5 96.8,0.7 105.3,0.7 109.9,5.1 114.3,0.7 122.3,0.7 		"/>
		<path class="st0" d="M126.4,29.8c0-9.1,7.4-16.5,16.5-16.5c9,0,16.3,7.5,16.3,16.4c0,9.1-7.3,16.6-16.4,16.6
			C133.6,46.4,126.4,38.8,126.4,29.8 M152.2,29.9c0-5.1-4-9.5-9.2-9.5c-5.2,0-9.5,4.2-9.5,9.4c0,5.2,4,9.6,9.3,9.6
			C148,39.4,152.2,35.2,152.2,29.9"/>
		<path class="st0" d="M180.9,21h-4v-6.7H188v4.4c1.9-3.5,5.4-5.2,9.3-5.2c3.4,0,6.7,1.4,9,3.9c2.6,2.9,2.6,5.6,2.6,9.2v12.2h3.5
			v6.7h-14.7v-6.7h4V28.8c0-1.9,0-3.9-1.2-5.6c-1.3-1.7-3.4-2.5-5.5-2.5c-2.2,0-4.4,0.9-5.7,2.6c-1.3,1.8-1.3,4.4-1.3,6.6v9.1h4v6.7
			h-15.2v-6.7h4V21z"/>
		<path class="st0" d="M225.6,38.9h4v6.7h-15.3v-6.7h4.1V21h-4v-6.7h11.2V38.9z M225.6,11.3h-7.1V3.8h7.1V11.3z"/>
		<path class="st0" d="M260.5,36.4c-2.5,6-8.3,10-14.8,10c-9.1,0-16.5-7.1-16.5-16.3c0-9.2,7-16.7,16.3-16.7c4.3,0,8.7,1.9,11.7,5
			c3.1,3.3,4.4,7.3,4.4,11.7l-0.2,2.5h-25.3c0.9,4.3,4.9,7.5,9.4,7.5c3.1,0,5.8-1.2,7.6-3.7H260.5z M255,27.1
			c-1.2-4.5-5.2-7.4-9.8-7.4c-4.2,0-8.3,3.3-9.1,7.4H255z"/>
	</g>
</g>
</svg>
