<?xml version="1.0" encoding="utf-8"?>
<!-- Generator: Adobe Illustrator 16.0.3, SVG Export Plug-In . SVG Version: 6.00 Build 0)  -->
<!DOCTYPE svg PUBLIC "-//W3C//DTD SVG 1.1//EN" "http://www.w3.org/Graphics/SVG/1.1/DTD/svg11.dtd" [
	<!ENTITY ns_flows "http://ns.adobe.com/Flows/1.0/">
	<!ENTITY ns_extend "http://ns.adobe.com/Extensibility/1.0/">
	<!ENTITY ns_ai "http://ns.adobe.com/AdobeIllustrator/10.0/">
	<!ENTITY ns_graphs "http://ns.adobe.com/Graphs/1.0/">
]>
<svg version="1.1" id="Vrstva_1" xmlns:x="&ns_extend;" xmlns:i="&ns_ai;" xmlns:graph="&ns_graphs;"
	 xmlns="http://www.w3.org/2000/svg" xmlns:xlink="http://www.w3.org/1999/xlink" xmlns:a="http://ns.adobe.com/AdobeSVGViewerExtensions/3.0/"
	 x="0px" y="0px" width="557.5px" height="95px" viewBox="0 0 557.5 95" style="enable-background:new 0 0 557.5 95;"
	 xml:space="preserve">
<style type="text/css">
<![CDATA[
	.st0{fill:#FFFFFF;stroke:#FFFFFF;stroke-width:0.958;stroke-miterlimit:8.544;}
	.st1{fill:#FFFFFF;}
]]>
</style>
<g>
	<g>
		<g>
			<path class="st1" d="M512.5,55.1c0-7.2,3.2-10.7,9.4-10.7c6.3,0,9,3.1,9.3,10.7H512.5z M533,71.3c-1.5,5.7-4.2,7.7-10.1,7.7
				c-3.6,0-6.5-1-8.2-3.1c-1.5-1.8-2-3.4-2-8.4h44.7c0.1-1.5,0.1-3,0.1-3.6c0-20.5-14-33.8-35.6-33.8c-10.5,0-19.9,3.3-26.4,9.2
				c-6.3,5.8-10.4,15.1-10.4,24.1c0,18.9,15.2,31.7,37.5,31.7c18.2,0,31.3-8.3,34.8-22.1L533,71.3z M481.6,31.2h-26.3v62.5h26.3
				V31.2z M481.6,7.3h-26.3v19.4h26.3V7.3z M449,31.2h-18.9L420.3,59c-0.3,0.9-0.5,1.6-0.8,2.4c-0.5,1.3-0.5,1.5-0.9,2.8
				c-0.5-1.6-0.7-2.1-0.9-2.9l-1.2-3.5l-9.6-26.5h-27l24.9,62.5h19.7L449,31.2z M355.1,67.4c0,9.1-3,12.7-10.1,12.7
				c-4.2,0-6.6-2.1-6.6-5.7c0-5.5,5.4-8.8,16.7-9.9V67.4z M382.4,93.7c-1.8-4.7-2-6.7-2-12.2V56.6c0-12.7-1.1-16.4-6.3-20.3
				c-5.8-4.3-14.4-6.4-26.1-6.4c-11,0-18.9,1.9-25.3,6.2c-5,3.3-7.4,6.8-9.3,13.5l23.9,2c0.8-4.5,4.2-6.8,10.1-6.8
				c5.8,0,8,1.9,8,6.8v1.5c-10.8,0.5-19.5,1.8-27.1,4c-10.4,3.1-16.7,10.6-16.7,19.2c0,11.2,9.4,18.6,23.6,18.6
				c9.8,0,16.2-3,21.6-9.9v1.1c0,2.3,0.3,4.4,0.9,7.5H382.4z M293.5,93.7V65c0-9.3,4-13.6,12.9-13.6c1.6,0,2.7,0.1,5,0.6V30.3
				c-1.6-0.3-2.4-0.3-3.5-0.3c-9.7,0-14.6,3.9-17.8,14.1v-13h-21.8v62.5H293.5z M230,68.9c0,6.2-2.8,9.8-7.5,9.8
				c-5.5,0-8.2-4.9-8.2-15.2c0-3.8,0.5-9.1,1.3-12.2c0.9-4,3.4-6.2,7.1-6.2c4.7,0,7.3,2.9,7.3,8.3V68.9z M255.9,93.7V9.8H230v26.4
				c-5-5-9.6-6.9-16.3-6.9c-16.2,0-26.4,12.8-26.4,33.2c0,20.1,9.8,32.4,25.9,32.4c8.8,0,13.5-2.5,18.2-9.6v8.3H255.9z M185.5,78.1
				H161h-3.6l-1.6,0.1l28.7-34V31.2h-55.7v15.2h19c0.7,0,4.9-0.1,7-0.3l-28.3,34v13.6h59V78.1z"/>
			<path class="st0" d="M355.1,67.4c0,9.1-3,12.7-10.1,12.7c-4.2,0-6.6-2.1-6.6-5.7c0-5.5,5.4-8.8,16.7-9.9V67.4z"/>
			<path class="st1" d="M447.7,18.8l0.1-0.4c-0.7,0-0.8-0.1-0.8-0.4c0-0.2,0.1-0.6,0.2-0.9l1.3-4.9c0.1,0,0.2,0,0.3,0
				c0.9,0,1.1,0.8,1.1,1.6c0,0.2,0,0.3,0,0.4h0.4l0.6-2.5h-6.1l-0.7,2.5h0.4c0.4-1.2,1.1-2,2.2-2c0.1,0,0.1,0,0.2,0l-1.4,5.4
				c-0.2,0.6-0.3,0.7-1.2,0.7l-0.1,0.4H447.7z M437.7,17.1c0-0.8,0.6-5.1,2.7-5.1c0.8,0,1.2,0.5,1.2,1.4c0,0.8-0.6,5.1-2.7,5.1
				C438.1,18.6,437.7,18.1,437.7,17.1 M436.1,16c0,1.7,1.3,2.9,2.8,2.9c2.2,0,4.3-2.2,4.3-4.3c0-1.7-1.3-2.9-2.8-2.9
				C438.3,11.7,436.1,13.9,436.1,16 M433.6,11.8h-3.4l-0.1,0.4c0.7,0,0.8,0.1,0.9,0.8l0.3,5.8h0.7l4.1-6.1c0.2-0.3,0.4-0.5,1-0.5
				l0.1-0.4h-2.4l-0.1,0.4c0.7,0,0.8,0.1,0.8,0.3c0,0.2-0.1,0.4-0.3,0.8l-2.4,3.6h0l-0.2-3.2c0-0.3,0-0.3,0-0.9c0-0.5,0.1-0.6,1-0.6
				L433.6,11.8z M426,12.2c0.8,0,0.9,0.1,0.9,0.4c0,0.2-0.2,0.6-0.2,1l-1.2,4.3c-0.1,0.4-0.3,0.5-1.2,0.5l-0.1,0.4h3.7l0.1-0.4
				c-0.8,0-0.9-0.1-0.9-0.3c0-0.2,0.1-0.4,0.2-0.8l1.2-4.3c0.2-0.6,0.3-0.7,1.2-0.7l0.1-0.4h-3.7L426,12.2z M422,11.4h1l1.6-1.3
				h-0.6l-1.4,0.7l-0.9-0.7h-0.6L422,11.4z M424.1,16.2l-0.4-0.1c-0.5,1.4-1.3,2.2-3.3,2.2h-0.5l5.2-6l0.1-0.6H420l-0.7,2.3l0.5,0.1
				c0.3-1.3,1.3-1.9,2.6-1.9h0.8l-5.1,5.8l-0.2,0.7h5.4L424.1,16.2z M412.8,11.5l1.8-0.6c0.2-0.1,0.3-0.2,0.3-0.4
				c0-0.3-0.2-0.4-0.5-0.4c-0.1,0-0.4,0.1-0.6,0.2l-1.2,0.9L412.8,11.5z M413.2,18.8l0.1-0.4c-0.8,0-0.9-0.1-0.9-0.4
				c0-0.1,0.1-0.5,0.2-0.8l0.4-1.4l2.3-2.9c0.4-0.5,0.7-0.6,1.3-0.6l0.1-0.4H414l-0.1,0.4c0.7,0,0.8,0.1,0.8,0.3s-0.2,0.5-0.5,0.8
				l-1.4,1.9l-0.5-1.6c-0.1-0.3-0.2-0.6-0.2-0.9c0-0.3,0.2-0.4,0.9-0.4l0.1-0.4h-3.3l-0.1,0.4c0.6,0,0.7,0.1,0.7,0.4l0.9,3.1l-0.5,2
				c-0.1,0.4-0.2,0.7-1.3,0.7l-0.1,0.4H413.2z M406,11.8h-3.4l-0.1,0.4c0.7,0,0.8,0.1,0.9,0.8l0.3,5.8h0.7l4.1-6.1
				c0.2-0.3,0.4-0.5,1-0.5l0.1-0.4h-2.4l-0.1,0.4c0.7,0,0.8,0.1,0.8,0.3c0,0.2-0.1,0.4-0.3,0.8l-2.4,3.6h0l-0.2-3.2
				c0-0.3,0-0.3,0-0.9c0-0.5,0.1-0.6,1-0.6L406,11.8z M399,13.9l0.3,2.1h-1.7L399,13.9z M397.1,18.8l0.1-0.4c-0.8,0-0.9-0.1-0.9-0.3
				c0-0.2,0.2-0.4,0.3-0.6l0.7-1h2.2l0,0.4c0.1,0.3,0.1,0.7,0.1,1c0,0.3-0.2,0.5-0.9,0.5l-0.1,0.4h3.4l0.1-0.4
				c-0.6,0-0.8-0.1-0.8-0.5l-0.8-6.1h-0.5l-3.7,5.5c-0.5,0.7-0.6,1-1.5,1.1l-0.1,0.4H397.1z M391,15.1l0.6-2.1
				c0.1-0.5,0.4-0.7,0.9-0.7c0.5,0,0.8,0.3,0.8,0.8c0,1.3-0.6,2.1-1.8,2.1H391z M391,18.8l0.1-0.4c-0.8,0-0.9-0.1-0.9-0.4
				c0-0.2,0.1-0.4,0.2-0.7l0.5-1.8c0.7,0,0.9,0.3,0.9,1c0,0.3,0,0.6,0,1.1c0,0.9,0.5,1.4,1.3,1.4c0.8,0,1.4-0.9,1.7-1.6l-0.4-0.2
				c-0.1,0.2-0.4,0.8-0.6,0.8c-0.1,0-0.3-0.1-0.3-0.9c0-1-0.6-1.3-1.5-1.6v0c2.4,0,3.1-0.9,3.1-2c0-0.8-0.8-1.6-2.2-1.6h-3.6
				l-0.1,0.4c0.7,0,0.8,0.1,0.8,0.4c0,0.2-0.1,0.4-0.2,0.6l-1.2,4.4c-0.2,0.6-0.3,0.7-1.2,0.7l-0.1,0.4H391z M383.8,12.9
				c0.1-0.4,0.3-0.6,1-0.6c0.7,0,1.3,0.4,1.3,1.8c0,1.7-0.9,4.4-2.8,4.4c-0.6,0-0.8-0.2-0.8-0.5c0-0.2,0-0.3,0.1-0.7L383.8,12.9z
				 M381.3,12.2c0.7,0,0.8,0.1,0.8,0.4c0,0.2-0.1,0.7-1.3,4.9l-0.1,0.4c-0.1,0.3-0.3,0.4-1.1,0.5l-0.1,0.4h3.9
				c2.2,0,4.3-1.8,4.3-4.1c0-1.5-1.1-2.9-3.1-2.9h-3.3L381.3,12.2z M379.5,16.2l-0.4-0.1c-0.5,1.4-1.3,2.2-3.3,2.2h-0.5l5.2-6
				l0.1-0.6h-5.1l-0.7,2.3l0.5,0.1c0.3-1.3,1.3-1.9,2.6-1.9h0.8l-5.1,5.8l-0.2,0.7h5.4L379.5,16.2z"/>
			<path class="st1" d="M369.8,13.8c0-1.4-1.1-2.5-2.5-2.5c-1.4,0-2.5,1.1-2.5,2.5c0,1.4,1.1,2.5,2.5,2.5
				C368.7,16.3,369.8,15.2,369.8,13.8"/>
			<path class="st1" d="M357.3,13.9l0.3,2.1h-1.7L357.3,13.9z M355.4,18.8l0.1-0.4c-0.8,0-0.9-0.1-0.9-0.3c0-0.2,0.2-0.4,0.3-0.6
				l0.7-1h2.2l0,0.4c0.1,0.3,0.1,0.7,0.1,1c0,0.3-0.2,0.5-0.9,0.5l-0.1,0.4h3.4l0.1-0.4c-0.6,0-0.8-0.1-0.8-0.5l-0.8-6.1h-0.5
				l-3.7,5.5c-0.5,0.7-0.6,1-1.5,1.1l-0.1,0.4H355.4z M349.6,12.9c0.1-0.4,0.3-0.6,1-0.6c0.7,0,1.3,0.4,1.3,1.8
				c0,1.7-0.9,4.4-2.8,4.4c-0.6,0-0.8-0.2-0.8-0.5c0-0.2,0.1-0.3,0.1-0.7L349.6,12.9z M347.2,12.2c0.7,0,0.8,0.1,0.8,0.4
				c0,0.2-0.1,0.7-1.3,4.9l-0.1,0.4c-0.1,0.3-0.3,0.4-1.1,0.5l-0.1,0.4h3.9c2.2,0,4.3-1.8,4.3-4.1c0-1.5-1.1-2.9-3.1-2.9h-3.3
				L347.2,12.2z M340.4,17.1c0-0.8,0.6-5.1,2.7-5.1c0.8,0,1.2,0.5,1.2,1.4c0,0.8-0.6,5.1-2.7,5.1C340.8,18.6,340.4,18.1,340.4,17.1
				 M338.8,16c0,1.7,1.3,2.9,2.8,2.9c2.2,0,4.3-2.2,4.3-4.3c0-1.7-1.3-2.9-2.8-2.9C341,11.7,338.8,13.9,338.8,16 M333.4,18.8
				l0.1-0.4c-0.7,0-0.8-0.1-0.8-0.4c0-0.1,0.1-0.5,0.2-0.8l0.5-1.8h2.3l-0.6,2.3c-0.2,0.6-0.3,0.7-1.1,0.7l-0.1,0.4h3.5l0.1-0.4
				c-0.6,0-0.9-0.1-0.9-0.4c0-0.3,0.1-0.7,0.2-1.1l1-3.8c0.2-0.8,0.5-0.9,1.2-1l0.1-0.4h-3.5l-0.1,0.4c0.6,0,0.7,0.1,0.7,0.3
				c0,0.2-0.1,0.5-0.2,1l-0.4,1.3h-2.4l0.5-1.8c0.1-0.5,0.3-0.8,1.1-0.8l0.1-0.4h-3.5l-0.1,0.4c0.7,0,0.8,0.1,0.8,0.4
				c0,0.4-0.1,0.6-0.2,1l-1,3.8c-0.2,0.8-0.5,0.9-1.3,0.9l-0.1,0.4H333.4z M324.9,17.1c0-0.8,0.6-5.1,2.7-5.1c0.8,0,1.2,0.5,1.2,1.4
				c0,0.8-0.6,5.1-2.7,5.1C325.3,18.6,324.9,18.1,324.9,17.1 M323.3,16c0,1.7,1.3,2.9,2.8,2.9c2.2,0,4.3-2.2,4.3-4.3
				c0-1.7-1.3-2.9-2.8-2.9C325.4,11.7,323.3,13.9,323.3,16 M320.6,12.2c0.5,0,0.8,0.3,0.8,0.9c0,0.4-0.1,0.9-0.4,1.2
				c-0.3,0.5-0.8,0.6-1.4,0.6h-0.4l0.5-2C319.9,12.5,320.2,12.2,320.6,12.2 M319.4,18.8l0.1-0.4c-0.9,0-1-0.1-1-0.5
				c0-0.2,0-0.4,0.1-0.7l0.5-1.8h0.9c2.1,0,3.1-0.8,3.1-1.9c0-1.1-0.9-1.7-2.5-1.7h-3.1l-0.1,0.4c0.6,0,0.8,0.1,0.8,0.3
				c0,0.2-0.1,0.4-0.2,0.7l-1.2,4.6c-0.1,0.4-0.3,0.5-1.1,0.5l-0.1,0.4H319.4z"/>
			<path class="st1" d="M312.5,13.8c0-1.4-1.1-2.5-2.5-2.5c-1.4,0-2.5,1.1-2.5,2.5c0,1.4,1.1,2.5,2.5,2.5
				C311.4,16.3,312.5,15.2,312.5,13.8"/>
			<path class="st1" d="M300.1,13.9l0.3,2.1h-1.7L300.1,13.9z M298.2,18.8l0.1-0.4c-0.8,0-0.9-0.1-0.9-0.3c0-0.2,0.2-0.4,0.3-0.6
				l0.7-1h2.2l0,0.4c0.1,0.3,0.1,0.7,0.1,1c0,0.3-0.2,0.5-0.9,0.5l-0.1,0.4h3.4l0.1-0.4c-0.6,0-0.8-0.1-0.8-0.5l-0.8-6.1h-0.5
				l-3.7,5.5c-0.5,0.7-0.6,1-1.5,1.1l-0.1,0.4H298.2z M289.8,18.8h0.4c0.1-0.2,0.2-0.3,0.5-0.3c0.2,0,0.8,0.5,1.8,0.5
				c1.6,0,3.2-1,3.2-2.5c0-2-3.1-1.6-3.1-3.1c0-0.6,0.5-1.2,1.4-1.2c1.1,0,1.6,0.7,1.6,1.7v0.4h0.4l0.6-2.3h-0.5
				c-0.1,0.2-0.2,0.4-0.4,0.4c-0.3,0-0.7-0.5-1.7-0.5c-1.6,0-2.9,1.1-2.9,2.3c0,2.1,3.1,1.8,3.1,3.2c0,0.6-0.7,1.3-1.7,1.3
				c-1.3,0-1.6-0.7-1.6-1.8v-0.6h-0.4L289.8,18.8z M286.9,11.5l1.8-0.6c0.2-0.1,0.3-0.2,0.3-0.4c0-0.3-0.2-0.4-0.5-0.4
				c-0.1,0-0.4,0.1-0.6,0.2l-1.2,0.9L286.9,11.5z M286.5,13.9l0.3,2.1H285L286.5,13.9z M284.5,18.8l0.1-0.4c-0.8,0-0.9-0.1-0.9-0.3
				c0-0.2,0.2-0.4,0.3-0.6l0.7-1h2.2l0,0.4c0.1,0.3,0.1,0.7,0.1,1c0,0.3-0.2,0.5-0.9,0.5l-0.1,0.4h3.4l0.1-0.4
				c-0.6,0-0.8-0.1-0.8-0.5l-0.8-6.1h-0.5l-3.7,5.5c-0.5,0.7-0.6,1-1.5,1.1l-0.1,0.4H284.5z M278.4,15.1l0.6-2.1
				c0.1-0.5,0.4-0.7,0.9-0.7c0.5,0,0.8,0.3,0.8,0.8c0,1.3-0.6,2.1-1.8,2.1H278.4z M278.4,18.8l0.1-0.4c-0.8,0-0.9-0.1-0.9-0.4
				c0-0.2,0.1-0.4,0.2-0.7l0.5-1.8c0.7,0,0.9,0.3,0.9,1c0,0.3,0,0.6,0,1.1c0,0.9,0.5,1.4,1.3,1.4c0.8,0,1.4-0.9,1.7-1.6l-0.4-0.2
				c-0.1,0.2-0.4,0.8-0.6,0.8c-0.1,0-0.3-0.1-0.3-0.9c0-1-0.6-1.3-1.5-1.6v0c2.4,0,3.1-0.9,3.1-2c0-0.8-0.8-1.6-2.2-1.6h-3.6
				l-0.1,0.4c0.7,0,0.8,0.1,0.8,0.4c0,0.2-0.1,0.4-0.2,0.6l-1.2,4.4c-0.2,0.6-0.3,0.7-1.2,0.7l-0.1,0.4H278.4z M270.3,18.8l0.1-0.4
				c-0.6,0-0.7-0.1-0.7-0.4c0-0.1,0.1-0.4,0.2-0.7l0.4-1.6l0.6-0.4l0.8,2.2c0.1,0.3,0.2,0.5,0.2,0.6c0,0.2-0.3,0.3-0.8,0.4l-0.1,0.4
				h3.4l0.1-0.4c-0.6,0-0.7-0.1-0.9-0.6l-1.3-3.6l1.9-1.5c0.5-0.4,0.8-0.5,1.4-0.5l0.1-0.4h-2.8l-0.1,0.4c0.6,0,0.8,0.1,0.8,0.2
				c0,0.2-0.3,0.4-0.7,0.7l-2.3,1.8l0,0l0.6-2.1c0.1-0.4,0.3-0.6,1-0.6l0.1-0.4h-3.5l-0.1,0.4c0.7,0,0.8,0.1,0.8,0.3
				c0,0.1,0,0.3-0.1,0.6l-1.3,4.7c-0.1,0.4-0.4,0.6-1.1,0.6l-0.1,0.4H270.3z"/>
			<path class="st1" d="M212.5,5.3l0.6,1.6l5.5-1.9l-0.8-2.2L212.5,5.3z M213.2,13c0-1.3,0.6-2,1.7-2c1.1,0,1.6,0.6,1.6,2H213.2z
				 M216.8,16.1c-0.3,1.1-0.7,1.4-1.8,1.4c-0.6,0-1.1-0.2-1.4-0.6c-0.3-0.3-0.4-0.6-0.4-1.6h7.8c0-0.3,0-0.6,0-0.7
				c0-3.8-2.5-6.3-6.2-6.3c-1.8,0-3.5,0.6-4.6,1.7c-1.1,1.1-1.8,2.8-1.8,4.5c0,3.5,2.7,5.9,6.6,5.9c3.2,0,5.5-1.6,6.1-4.2
				L216.8,16.1z M206.6,20.3v-7.5c0-2.1-0.2-2.8-0.9-3.5c-0.7-0.6-1.7-1-2.8-1c-0.9,0-1.8,0.3-2.4,0.6c-0.4,0.3-0.7,0.6-1,1.3V8.5
				h-4.3v11.7h4.6v-7.1c0-1.2,0.4-1.7,1.3-1.7c0.7,0,1,0.4,1,1.4v7.4H206.6z M192.8,20.3v-7.5c0-2.1-0.2-2.8-0.9-3.5
				c-0.7-0.6-1.7-1-2.8-1c-0.9,0-1.8,0.3-2.4,0.6c-0.4,0.3-0.7,0.6-1,1.3V8.5h-4.3v11.7h4.6v-7.1c0-1.2,0.4-1.7,1.3-1.7
				c0.7,0,1,0.4,1,1.4v7.4H192.8z M178.9,8.5h-4.6v11.7h4.6V8.5z M178.9,4.1h-4.6v3.6h4.6V4.1z M167.4,15.6c0,1.2-0.5,1.8-1.3,1.8
				c-1,0-1.4-0.9-1.4-2.9c0-0.7,0.1-1.7,0.2-2.3c0.2-0.8,0.6-1.2,1.3-1.2c0.8,0,1.3,0.5,1.3,1.6V15.6z M171.9,20.3V4.5h-4.5v5
				c-0.9-0.9-1.7-1.3-2.9-1.3c-2.8,0-4.6,2.4-4.6,6.2c0,3.8,1.7,6.1,4.5,6.1c1.5,0,2.4-0.5,3.2-1.8v1.6H171.9z M152.2,11.2
				c1.1,0,1.5,0.8,1.5,3.1c0,1-0.1,2.1-0.3,2.6c-0.2,0.5-0.6,0.8-1.3,0.8c-1.1,0-1.5-0.9-1.5-3.3C150.7,12.1,151.1,11.2,152.2,11.2
				 M152.2,8.3c-3.8,0-6.4,2.6-6.4,6.1c0,3.5,2.7,6.1,6.3,6.1c3.8,0,6.5-2.5,6.5-6.1C158.6,10.8,156.1,8.3,152.2,8.3 M135.6,10.9v-3
				h2.2c1.2,0,1.9,0.6,1.9,1.5c0,0.9-0.7,1.5-2,1.5H135.6z M144.7,20.3l-2.8-6.8c2-1,2.8-2.1,2.8-4.1c0-3-2.1-4.8-5.7-4.8h-8.2v15.7
				h4.8v-6h1.5l2.3,6H144.7z"/>
		</g>
	</g>
	<g>
		<path class="st1" d="M110.4,1.1H4.4c0,0-4.4,0-4.4,4.4v84.4c0,0,0,4.4,4.4,4.4h106c0,0,4.4,0,4.4-4.4V5.5
			C114.8,5.5,114.8,1.1,110.4,1.1z M110,52.8v33.3c0,2.8-2.3,3.5-3.5,3.5H8.7c-2.7,0-3.5-2.3-3.5-3.5V52.8l0,0H110L110,52.8z M110,7
			v44.7H5.2V7V6.5h0.5h103.7h0.5L110,7L110,7z"/>
		<path class="st1" d="M24.1,24c0-9.4-3.7-11.8-8.8-11.8H9.6v35.5h5.9v-9.4c0-1.7,0-3.5-0.1-5.2l0-0.1l3.2,14.8h6.5l-4.4-14.8
			C23.1,31.3,24.1,27.9,24.1,24z M15.8,28.6l-0.4,0v-8.7c1.6-0.2,2.8,1.2,2.8,4.3C18.2,26.4,17.4,28.6,15.8,28.6z"/>
		<polygon class="st1" points="32.1,23.1 32.1,23.1 30,12.2 23.9,12.2 29.3,32.6 29.3,47.6 35.2,47.6 35.2,32.6 40.3,12.2 
			34.2,12.2 		"/>
		<polygon class="st1" points="40.6,20.8 43.8,20.8 43.8,47.6 49.7,47.6 49.7,20.8 53.1,20.8 53.1,12.2 40.6,12.2 		"/>
		<path class="st1" d="M67.2,12.2l-1.4,12.3c-0.3,2.2-0.4,4.4-0.6,6.6h0l-1.7-18.9h-7.3l-2.6,35.5h6.3l0.5-14.5
			c0.1-2.6,0-5.2,0.1-7.8h0l2,22.3h4.8L69,33.1c0.3-2.6,0.5-5.2,0.7-7.8h0.1l0.5,22.3h6.1l-2.1-35.5H67.2z"/>
		<path class="st1" d="M86.9,34.5c0,0.9,0,2.1-0.2,3.1c-0.2,0.9-0.5,1.7-1.4,1.7c-0.8,0-1.2-0.7-1.4-1.7c-0.2-0.9-0.2-2.2-0.2-3.1
			V12.2H78v23.2c0,4.3,0.6,12.9,7.4,12.9c6.8,0,7.4-8.6,7.4-12.9V12.2h-5.9V34.5L86.9,34.5z"/>
		<path class="st1" d="M102.4,25.9c-0.3-0.4-0.7-0.9-1.1-1.5c-0.3-0.6-0.6-1.2-0.6-2c0-1.4,0.9-2.2,1.5-2.2c1.4,0,2.8,2,3.5,3.8
			V13.3c-1.2-1.1-2.8-1.8-4.2-1.8c-5,0-6.6,7.5-6.6,11.7c0,2.6,0.5,4.6,1.2,6.2c0.7,1.7,1.8,3.1,2.9,4.5c0.4,0.4,0.7,0.9,1,1.4
			c0.3,0.5,0.5,1.1,0.5,2c0,1.5-0.9,2.4-1.7,2.4c-1.5,0-2.9-2-3.7-3.9v11.1c1.4,0.9,2.9,1.5,4.4,1.5c4.1,0,6.9-5.3,6.9-11.9
			c0-2.7-0.4-4.6-1.1-6.1C104.6,28.6,103.7,27.3,102.4,25.9z"/>
		<path class="st1" d="M24.1,85.2v-6h-3c-0.8,0-1.6,0-2.4,0.1l6.5-14H9.7v6h2.7c0.9,0,1.9-0.1,2.8-0.1L8.7,85.2L24.1,85.2L24.1,85.2
			z"/>
		<polygon class="st1" points="20.4,62.3 23.1,56.7 18.8,56.7 17.1,60 15.3,56.7 10.9,56.7 14,62.3 		"/>
		<rect x="27.3" y="65.2" class="st1" width="7.1" height="20"/>
		<path class="st1" d="M30.9,63.3c2.3,0,4.2-2,4.2-4.4c0-2.4-1.9-4.3-4.3-4.3c-2.3,0-4.1,2-4.1,4.3C26.7,61.4,28.6,63.3,30.9,63.3z"
			/>
		<path class="st1" d="M49.1,85.2l5.6-20h-7L46,73.6c-0.2,1.4-0.3,2.9-0.5,4.4h-0.1c-0.2-1.4-0.3-2.9-0.5-4.4l-1.4-8.4h-7.3l5.3,20
			H49.1z"/>
		<path class="st1" d="M64.6,85.6c6.2,0,9-4.8,9-10.4s-2.8-10.4-9-10.4c-6.2,0-9,4.8-9,10.4S58.4,85.6,64.6,85.6z M64.6,70.4
			c1.7,0,2,2.8,2,4.8c0,2-0.3,4.8-2,4.8s-2-2.8-2-4.8C62.6,73.2,62.9,70.4,64.6,70.4z"/>
		<polygon class="st1" points="77.6,85.2 84.7,85.2 84.7,71.2 87.1,71.2 87.1,65.2 84.7,65.2 84.7,59.4 77.6,59.4 77.6,65.2 
			75.5,65.2 75.5,71.2 77.6,71.2 		"/>
		<path class="st1" d="M94.7,85.6c2.3,0,4-1.7,4.9-3.8l0.1,0.1l-0.3,3.3h7.2V65.2h-7.3l0.3,3.1l-0.1,0.1c-0.9-2-2.3-3.6-4.6-3.6
			c-4.9,0-6.1,6.3-6.1,10.2C88.7,78.9,89.7,85.6,94.7,85.6z M96.3,72.9c0.2-1.1,0.6-2,1.5-2c0.9,0,1.2,0.8,1.4,1.6
			c0.2,0.9,0.2,1.9,0.2,2.4c0,0.6,0,1.7-0.2,2.7c-0.2,1-0.6,1.8-1.5,1.8c-0.7,0-1-0.6-1.2-1.4c-0.2-0.8-0.2-1.7-0.2-2.3
			C96.1,75.2,96.1,74,96.3,72.9z"/>
	</g>
</g>
</svg>
