<?xml version="1.0" encoding="utf-8"?>
<!-- Generator: Adobe Illustrator 16.0.0, SVG Export Plug-In . SVG Version: 6.00 Build 0)  -->
<!DOCTYPE svg PUBLIC "-//W3C//DTD SVG 1.1//EN" "http://www.w3.org/Graphics/SVG/1.1/DTD/svg11.dtd" [
	<!ENTITY ns_flows "http://ns.adobe.com/Flows/1.0/">
	<!ENTITY ns_extend "http://ns.adobe.com/Extensibility/1.0/">
	<!ENTITY ns_ai "http://ns.adobe.com/AdobeIllustrator/10.0/">
	<!ENTITY ns_graphs "http://ns.adobe.com/Graphs/1.0/">
]>
<svg version="1.1" id="Vrstva_1" xmlns:x="&ns_extend;" xmlns:i="&ns_ai;" xmlns:graph="&ns_graphs;"
	 xmlns="http://www.w3.org/2000/svg" xmlns:xlink="http://www.w3.org/1999/xlink" xmlns:a="http://ns.adobe.com/AdobeSVGViewerExtensions/3.0/"
	 x="0px" y="0px" width="297.1px" height="241.5px" viewBox="0 0 297.1 241.5" style="enable-background:new 0 0 297.1 241.5;"
	 xml:space="preserve">
<style type="text/css">
<![CDATA[
	.st0{fill:#FFFFFF;}
]]>
</style>
<g>
	<path class="st0" d="M285.7,0H11.4C11.4,0,0,0,0,11.5v218.4c0,0,0,11.5,11.4,11.5h274.3c0,0,11.4,0,11.4-11.5V11.5
		C297.1,11.5,297.1,0,285.7,0z M284.6,133.8v86.1c0,7.2-5.9,9-9,9H22.4c-7.1,0-9-5.9-9-9v-86.1v0L284.6,133.8L284.6,133.8z
		 M284.6,15.4v115.7H13.5V15.4v-1.4h1.3h268.4h1.3V15.4z"/>
	<path class="st0" d="M62.3,59.2c0-24.2-9.6-30.6-22.8-30.6H24.8v91.8h15.2V96c0-4.5-0.1-9-0.2-13.5l0.1-0.2l8.4,38.2H65L53.6,82.2
		C59.7,78.3,62.3,69.3,62.3,59.2z M41,71.1l-1-0.1V48.4c4.2-0.4,7.2,3,7.2,11.1C47.2,65.4,45.1,71.1,41,71.1z"/>
	<polygon class="st0" points="83.1,57 83,57 77.7,28.7 61.9,28.7 75.8,81.5 75.8,120.4 91,120.4 91,81.5 104.2,28.7 88.4,28.7 	"/>
	<polygon class="st0" points="105,51.1 113.4,51.1 113.4,120.4 128.6,120.4 128.6,51.1 137.4,51.1 137.4,28.7 105,28.7 	"/>
	<path class="st0" d="M173.9,28.7l-3.7,31.8c-0.7,5.7-1,11.3-1.5,17h-0.1l-4.3-48.8h-19l-6.6,91.8H155l1.3-37.4
		c0.2-6.8,0.1-13.5,0.2-20.3h0.1l5.3,57.7h12.4l4.3-37.6c0.7-6.7,1.3-13.4,1.9-20.1h0.2l1.4,57.7h15.8l-5.5-91.8H173.9z"/>
	<path class="st0" d="M224.8,86.5c0,2.3,0.1,5.5-0.4,8c-0.4,2.4-1.3,4.4-3.5,4.4c-2.1,0-3.1-1.9-3.5-4.5c-0.4-2.4-0.4-5.6-0.4-8
		V28.7h-15.2v60c0,11.1,1.5,33.4,19.1,33.4s19.1-22.3,19.1-33.4v-60h-15.2V86.5z"/>
	<path class="st0" d="M265,64.2c-0.8-1.1-1.9-2.3-2.8-3.8c-0.8-1.5-1.5-3.2-1.5-5.1c0-3.5,2.2-5.6,4-5.6c3.5,0,7.2,5.2,9,9.9V31.7
		c-3.2-2.8-7.2-4.6-10.8-4.6c-13,0-17.2,19.5-17.2,30.2c0,6.7,1.2,11.8,3.1,16.1c1.9,4.4,4.6,7.9,7.5,11.7c1,1.1,1.9,2.2,2.5,3.5
		c0.7,1.3,1.2,2.9,1.2,5.1c0,4-2.4,6.1-4.5,6.1c-3.9,0-7.5-5.1-9.6-10.2v28.7c3.6,2.4,7.5,3.8,11.4,3.8c10.6,0,17.9-13.6,17.9-30.7
		c0-6.9-1-11.8-2.8-15.9C270.7,71.3,268.2,67.9,265,64.2z"/>
	<path class="st0" d="M62.4,217.6V202h-7.7c-2.1,0-4.1,0.1-6.1,0.2L65.4,166H25.2v15.4h7.1c2.4,0,4.8-0.2,7.2-0.3l-16.9,36.6H62.4z"
		/>
	<polygon class="st0" points="52.8,158.4 59.7,143.8 48.7,143.8 44.3,152.5 39.6,143.8 28.3,143.8 36.2,158.4 	"/>
	<rect x="70.6" y="166" class="st0" width="18.5" height="51.7"/>
	<path class="st0" d="M80,161c6,0,10.8-5.2,10.8-11.4c0-6.3-5-11.1-11-11.1c-5.9,0-10.7,5.1-10.7,11.2C69.1,156,74,161,80,161z"/>
	<path class="st0" d="M127,217.6l14.5-51.7h-18.2l-4.2,21.7c-0.5,3.6-0.9,7.6-1.4,11.3h-0.2c-0.5-3.6-0.8-7.6-1.3-11.3l-3.6-21.7
		H93.8l13.8,51.7H127z"/>
	<path class="st0" d="M167.1,218.7c16,0,23.3-12.4,23.3-26.9s-7.3-26.9-23.3-26.9c-16,0-23.3,12.4-23.3,26.9
		S151.2,218.7,167.1,218.7z M167.1,179.3c4.4,0,5.1,7.2,5.1,12.5c0,5.3-0.7,12.5-5.1,12.5s-5.1-7.2-5.1-12.5
		C162,186.5,162.7,179.3,167.1,179.3z"/>
	<polygon class="st0" points="200.7,217.6 219.2,217.6 219.2,181.3 225.3,181.3 225.3,166 219.2,166 219.2,150.8 200.7,150.8 
		200.7,166 195.4,166 195.4,181.3 200.7,181.3 	"/>
	<path class="st0" d="M244.9,218.7c6,0,10.4-4.3,12.8-9.8l0.2,0.2l-0.9,8.5h18.5V166h-18.8l0.8,7.9l-0.2,0.2c-2.4-5.1-6-9.2-12-9.2
		c-12.8,0-15.7,16.2-15.7,26.4C229.6,201.4,232.1,218.7,244.9,218.7z M249.2,185.8c0.6-2.8,1.6-5.2,3.9-5.2c2.2,0,3.1,2,3.6,4.2
		c0.5,2.3,0.4,4.9,0.4,6.3c0,1.5,0,4.4-0.6,7c-0.5,2.5-1.6,4.7-4,4.7c-1.8,0-2.7-1.6-3.2-3.5c-0.5-2.1-0.6-4.4-0.6-5.9
		C248.7,191.8,248.7,188.6,249.2,185.8z"/>
</g>
</svg>
