<?xml version="1.0" encoding="utf-8"?>
<!-- Generator: Adobe Illustrator 16.0.0, SVG Export Plug-In . SVG Version: 6.00 Build 0)  -->
<!DOCTYPE svg PUBLIC "-//W3C//DTD SVG 1.1//EN" "http://www.w3.org/Graphics/SVG/1.1/DTD/svg11.dtd" [
	<!ENTITY ns_flows "http://ns.adobe.com/Flows/1.0/">
	<!ENTITY ns_extend "http://ns.adobe.com/Extensibility/1.0/">
	<!ENTITY ns_ai "http://ns.adobe.com/AdobeIllustrator/10.0/">
	<!ENTITY ns_graphs "http://ns.adobe.com/Graphs/1.0/">
]>
<svg version="1.1" id="Vrstva_1" xmlns:x="&ns_extend;" xmlns:i="&ns_ai;" xmlns:graph="&ns_graphs;"
	 xmlns="http://www.w3.org/2000/svg" xmlns:xlink="http://www.w3.org/1999/xlink" xmlns:a="http://ns.adobe.com/AdobeSVGViewerExtensions/3.0/"
	 x="0px" y="0px" width="280.5px" height="286px" viewBox="0 0 280.5 286" style="enable-background:new 0 0 280.5 286;"
	 xml:space="preserve">
<style type="text/css">
<![CDATA[
	.st0{fill:#FFFFFF;}
]]>
</style>
<g>
	<path class="st0" d="M277.8,0H2.8H1.4H0v2.8V120v0.2v1.4v1.1v0.2v87c0,1.9,0.5,4.4,2.1,6.6c0.8,1.1,1.9,2.1,3.3,2.8
		c1.4,0.7,3.1,1.1,5.1,1.1H270c1.8,0,4.4-0.5,6.6-2.1c1.1-0.8,2.1-1.9,2.8-3.3c0.7-1.4,1.1-3.1,1.1-5.1v-87v-0.2v-1.4v-1.1V120V2.8
		V1.4V0H277.8z M277.8,210c0,1.6-0.3,2.9-0.8,3.9c-0.8,1.5-1.9,2.4-3.3,3.1c-1.3,0.6-2.7,0.9-3.7,0.9H10.5c-1.6,0-2.9-0.3-3.9-0.8
		c-1.5-0.8-2.4-1.9-3.1-3.3c-0.6-1.3-0.9-2.7-0.9-3.7v-87h275V210z M2.8,120V2.8h275V120H2.8z"/>
	<polygon class="st0" points="72.7,44.9 72.5,44.9 67.2,16.2 50.9,16.2 65.2,69.7 65.2,109.2 80.8,109.2 80.8,69.7 94.3,16.2 
		78.1,16.2 	"/>
	<path class="st0" d="M217.8,74.8c0,2.3,0.1,5.6-0.4,8.1c-0.4,2.5-1.4,4.4-3.6,4.4c-2.1,0-3.1-2-3.6-4.6c-0.5-2.5-0.4-5.7-0.4-8.1
		V16.2h-15.6V77c0,11.2,1.5,33.8,19.6,33.8c18.1,0,19.6-22.6,19.6-33.8V16.2h-15.6V74.8z"/>
	<polygon class="st0" points="95,38.9 103.6,38.9 103.6,109.2 119.2,109.2 119.2,38.9 128.2,38.9 128.2,16.2 95,16.2 	"/>
	<path class="st0" d="M165.6,16.2l-3.8,32.2c-0.7,5.8-1.1,11.5-1.5,17.3h-0.2l-4.4-49.5h-19.5l-6.7,93.1h16.8l1.3-37.9
		c0.2-6.9,0.2-13.7,0.2-20.6h0.2l5.4,58.5h12.7l4.4-38.1c0.8-6.8,1.3-13.6,2-20.4h0.2l1.5,58.5h16.2l-5.6-93.1H165.6z"/>
	<path class="st0" d="M258.9,52.2c-0.8-1.1-2-2.3-2.8-3.8c-0.8-1.5-1.5-3.2-1.5-5.2c0-3.6,2.2-5.7,4.1-5.7c3.6,0,7.4,5.3,9.2,10
		V19.2c-3.3-2.8-7.4-4.7-11.1-4.7c-13.3,0-17.6,19.7-17.6,30.6c0,6.8,1.2,12,3.1,16.3c2,4.4,4.7,8,7.7,11.8c1,1.1,1.9,2.2,2.6,3.6
		c0.8,1.4,1.2,3,1.2,5.2c0,4.1-2.4,6.2-4.6,6.2c-4,0-7.7-5.2-9.9-10.4V107c3.7,2.5,7.7,3.8,11.7,3.8c10.9,0,18.4-13.8,18.4-31.1
		c0-7-1-12-2.8-16.2C264.8,59.3,262.2,55.9,258.9,52.2z"/>
	<path class="st0" d="M51.4,47.1c0-24.6-9.8-31-23.4-31H13v93.1h15.6V84.4c0-4.6-0.2-9.1-0.2-13.7l0.2-0.2l8.7,38.8h16.9L42.5,70.5
		C48.7,66.5,51.4,57.4,51.4,47.1z M29.6,59.2l-1-0.1v-23c4.3-0.4,7.4,3.1,7.4,11.2C36,53.4,33.7,59.2,29.6,59.2z"/>
	<rect x="59.9" y="155.3" class="st0" width="19" height="52.4"/>
	<polygon class="st0" points="41.6,147.7 48.7,132.9 37.5,132.9 33,141.7 28.1,132.9 16.5,132.9 24.7,147.7 	"/>
	<path class="st0" d="M69.5,150.3c6.2,0,11-5.3,11-11.5c0-6.3-5.1-11.2-11.2-11.2c-6,0-10.9,5.2-10.9,11.3
		C58.4,145.2,63.4,150.3,69.5,150.3z"/>
	<path class="st0" d="M51.5,207.7v-15.9h-7.8c-2.1,0-4.2,0.1-6.3,0.2l17.2-36.7H13.3v15.6h7.3c2.4,0,4.9-0.2,7.4-0.3l-17.3,37.1
		H51.5z"/>
	<path class="st0" d="M238.2,208.8c6.2,0,10.7-4.4,13.1-9.9l0.2,0.2l-0.9,8.6h19v-52.4h-19.3l0.8,8l-0.2,0.2
		c-2.4-5.2-6.2-9.3-12.3-9.3c-13.1,0-16.1,16.5-16.1,26.8C222.5,191.2,225,208.8,238.2,208.8z M242.5,175.5c0.6-2.9,1.6-5.3,4-5.3
		c2.2,0,3.2,2,3.7,4.3c0.5,2.4,0.4,5,0.4,6.3c0,1.5,0,4.5-0.6,7.1c-0.5,2.6-1.6,4.8-4.1,4.8c-1.8,0-2.8-1.6-3.3-3.6
		c-0.5-2.1-0.6-4.5-0.6-6C242,181.5,242,178.3,242.5,175.5z"/>
	<polygon class="st0" points="192.9,207.7 211.9,207.7 211.9,170.9 218.2,170.9 218.2,155.3 211.9,155.3 211.9,140 192.9,140 
		192.9,155.3 187.5,155.3 187.5,170.9 192.9,170.9 	"/>
	<path class="st0" d="M158.6,208.8c16.4,0,23.8-12.6,23.8-27.3c0-14.7-7.5-27.3-23.8-27.3c-16.4,0-23.8,12.6-23.8,27.3
		C134.8,196.2,142.3,208.8,158.6,208.8z M158.6,168.8c4.6,0,5.2,7.3,5.2,12.7s-0.7,12.7-5.2,12.7c-4.6,0-5.2-7.3-5.2-12.7
		S154.1,168.8,158.6,168.8z"/>
	<path class="st0" d="M117.6,207.7l14.8-52.4h-18.7l-4.3,22c-0.5,3.7-1,7.7-1.5,11.4h-0.2c-0.5-3.7-0.8-7.7-1.4-11.4l-3.7-22H83.6
		l14.1,52.4H117.6z"/>
	<path class="st0" d="M81,251.1h-0.2c-3.3-4.8-8.3-7.9-14.4-7.9c-12.1,0-19.7,10.1-19.7,21.1c0,11.5,7.2,21.7,19.9,21.7
		c6,0,10.9-3.1,14.1-7.6H81v6.3h8v-40.2h-8V251.1z M67.9,279.2c-8.5,0-13.2-7-13.2-14.6c0-7.5,4.9-14.4,13.2-14.4
		c8.6,0,13.5,6.6,13.5,14.4C81.4,272.5,76.6,279.2,67.9,279.2z"/>
	<polygon class="st0" points="38.3,244.4 26.3,269.5 14.4,244.4 5.4,244.4 26.3,286 47.3,244.4 	"/>
	<path class="st0" d="M106.4,251h-0.3v-6.5h-8v40.2h8v-19.8c0-6.5,1.1-14.3,9.7-14.3c1.9,0,3.5,0.4,4.9,1.6l3.6-7
		c-2-1.2-4.3-2-6.6-2C112.4,243.2,108.4,246.2,106.4,251z"/>
	<path class="st0" d="M231.4,243.2c-13.4,0-20.3,9.3-20.3,21.7c0,11.9,7.7,21.1,20.5,21.1c8.1,0,15.4-4,19.3-11l-6.8-3.7
		c-3,4.8-6.3,7.8-12.5,7.8c-7.7,0-12.5-6.4-12.5-13.3h31.8v-1.2C250.9,252.7,244.6,243.2,231.4,243.2z M219.5,260
		c1-5.8,5.6-10.1,11.8-10.1c6.4,0,10.5,4,11.5,10.1H219.5z"/>
	<path class="st0" d="M191.6,243.2c-5.2,0-10.2,2.8-12.8,7.1c-2.7-4.5-6.6-7.1-12-7.1c-4.5,0-8.7,2.8-11,6.3h-0.2v-5.1h-8v40.2h8
		v-19.8c0-6.3,0.7-14.8,9.3-14.8c7.4,0,7.6,8,7.6,13.2v21.3h8v-19.8c0-6.2,0.6-14.8,9.2-14.8c7,0,7.7,6.6,7.7,11.8v22.8h8v-24.1
		C205.4,251.5,202.6,243.2,191.6,243.2z"/>
	<rect x="128.8" y="244.4" class="st0" width="8" height="40.2"/>
	<polygon class="st0" points="123.6,235.9 127.5,238.2 142.1,225.4 134.7,221.6 	"/>
</g>
</svg>
