<?xml version="1.0" encoding="utf-8"?>
<!-- Generator: Adobe Illustrator 16.0.0, SVG Export Plug-In . SVG Version: 6.00 Build 0)  -->
<!DOCTYPE svg PUBLIC "-//W3C//DTD SVG 1.1//EN" "http://www.w3.org/Graphics/SVG/1.1/DTD/svg11.dtd" [
	<!ENTITY ns_flows "http://ns.adobe.com/Flows/1.0/">
	<!ENTITY ns_extend "http://ns.adobe.com/Extensibility/1.0/">
	<!ENTITY ns_ai "http://ns.adobe.com/AdobeIllustrator/10.0/">
	<!ENTITY ns_graphs "http://ns.adobe.com/Graphs/1.0/">
]>
<svg version="1.1" id="Vrstva_1" xmlns:x="&ns_extend;" xmlns:i="&ns_ai;" xmlns:graph="&ns_graphs;"
	 xmlns="http://www.w3.org/2000/svg" xmlns:xlink="http://www.w3.org/1999/xlink" xmlns:a="http://ns.adobe.com/AdobeSVGViewerExtensions/3.0/"
	 x="0px" y="0px" width="298.5px" height="42.1px" viewBox="0 0 298.5 42.1" style="enable-background:new 0 0 298.5 42.1;"
	 xml:space="preserve">
<style type="text/css">
<![CDATA[
	.st0{fill:#FFFFFF;}
]]>
</style>
<path class="st0" d="M275.6,9.9l4.3,19.7c0.1,0.5,0.1,0.8-0.1,1.1c-0.7,1.2-1.8,2.3-3.3,3.3c-1.2,0.8-2.6,1.3-3.6,1.6l1.7,6.6
	c1.5-0.2,4.7-1.3,7.3-3.8c2.9-2.6,5.7-6.7,8.9-13l7.7-15.5h-8l-3.3,8.6c-0.9,2.4-1.3,3.8-1.7,5.1h-0.1c-0.1-1.3-0.4-2.8-0.6-5
	l-1-8.6H275.6z M257.2,31.9l1.8-9.4c0.9-4.6,2.8-7,4.6-7c1.3,0,1.7,0.9,1.7,2.2c0,0.7-0.1,1.6-0.2,2.3l-2.2,12h7.6l2.5-12.8
	c0.2-1,0.4-2.8,0.4-3.8c0-3.5-1.7-6-5.7-6c-2.8,0-5.4,1.1-7.5,3.9h-0.1l0.4-3.4h-6.7c-0.3,2.1-0.7,4.6-1.3,7.5l-2.7,14.5H257.2z
	 M241.9,16.4c0,1.4-1.6,2.1-6.3,2c0.2-1.4,1.6-3.5,4.3-3.5C241.2,14.9,241.9,15.6,241.9,16.4L241.9,16.4z M245.9,25.2
	c-1.9,0.9-4,1.3-6.2,1.3c-1.7,0-3.1-0.4-3.9-1.2c-0.4-0.4-0.7-0.9-0.8-1.4c9.1,0.3,14.1-2,14.1-7.5c0-4.5-3.6-7-8.2-7
	c-8.3,0-13.1,6.8-13.1,13.5c0,6.1,3.5,9.5,10,9.5c2.2,0,5.6-0.3,8.6-1.7L245.9,25.2z M221.7,7.3l5.6-7h-5.2l-2.4,3.3h-0.1l-1.7-3.3
	h-4.8l3.5,7H221.7z M205.2,31.9H224l1.2-6.2h-9.5l0-0.1c2.2-1.8,3.7-3.3,5.6-5.3l5.5-5.7l0.9-4.8H210l-1.2,6.2h8.6l-0.1,0.1
	c-2.4,2-3.9,3.4-5.7,5.3l-5.7,5.9L205.2,31.9z M191.4,0.3l-4.1,7h5.6l5.8-7H191.4z M189.4,19.7c-0.9,5.2-2.8,6.6-4.2,6.6
	c-1.3,0-2.2-1.1-2.2-3.1c0-3.2,2.4-8,5.9-8c0.4,0,0.9,0,1.4,0.1L189.4,19.7z M195.6,31.9c-0.1-2.9,0.4-7.4,0.9-9.8l2.4-11.6
	c-2-0.6-5-1.2-7.8-1.2c-11.4,0-16,7.8-16,15.2c0,4.8,2.9,7.8,6.8,7.8c2.3,0,5.1-1,6.9-4.3h0.1c0,1.3-0.1,2.6-0.2,3.8H195.6z
	 M153.6,9.9l3.7,22h7.8l12.3-22h-8.6l-3.5,8.3c-1.1,2.8-1.9,4.6-2.5,6.4h-0.2c-0.1-1.8-0.4-3.5-0.5-6.3l-0.6-8.4H153.6z M141.7,5.8
	l-0.8,4.1h-2.7l-1.1,5.8h2.7l-1.5,7.7c-0.3,1.7-0.4,2.9-0.4,4.1c0,3,2.1,4.9,6.2,4.9c1.5,0,3.3-0.2,4.2-0.5l1-6c-0.6,0-1.3,0-1.8,0
	c-1.4,0-1.8-0.8-1.8-1.7c0-0.6,0.2-1.8,0.3-2.5l1.3-6h4.5l1.1-5.8h-4.5l1.2-6.3L141.7,5.8z M116.5,30.6c1.4,1.1,4.3,1.7,7.2,1.8
	c6.3,0,10.8-2.8,10.8-8c0-3.3-2.9-4.9-5.3-6.1c-1.7-0.8-2.6-1.4-2.6-2c0-0.9,0.9-1.3,2.4-1.3c2.1,0,3.7,0.5,4.7,0.9l1.7-5.3
	c-1.2-0.6-3.3-1.2-6.1-1.2c-6.1,0-10.4,3.1-10.4,7.9c0,2.9,2.4,4.7,4.9,6c1.9,0.9,2.6,1.5,2.6,2.3c0,0.7-0.7,1.3-2.2,1.3
	c-2.2,0-4.8-0.9-6.1-1.6L116.5,30.6z M87.4,31.9l1.7-9.4c0.8-4.2,2.6-7,4.5-7c1.1,0,1.6,0.9,1.6,2.2c0,0.7-0.1,1.6-0.3,2.4
	l-2.2,11.8h7.3l1.8-9.4c0.8-4.3,2.5-7,4.4-7c1.1,0,1.7,0.9,1.7,2.1c0,0.8-0.1,1.7-0.3,2.6l-2.1,11.8h7.4l2.3-12.8
	c0.2-1.1,0.4-2.9,0.4-3.8c0-3.5-1.6-6-5.4-6c-2.6,0-5.4,1.2-7.3,3.9c-0.2-1.6-1.7-3.9-5.2-3.9c-2.8,0-5.4,1.1-7.4,3.9h0l0.3-3.4
	h-6.5c-0.3,2.1-0.6,4.6-1.2,7.5L80,31.9H87.4z M66.6,26.7c-1.8,0-2.8-1.3-2.8-3.5c0-2.7,1.3-8,4.7-8c2,0,2.7,1.5,2.7,3.4
	C71.2,21.7,69.8,26.7,66.6,26.7L66.6,26.7z M65.6,32.4c7.7,0,13.5-5.4,13.5-14c0-5.2-3.8-9.1-9.7-9.1c-8.1,0-13.6,6.1-13.6,13.9
	C55.9,29,59.9,32.4,65.6,32.4L65.6,32.4z M51.7,7.7c2.3,0,4.3-1.5,4.3-4.1c0-2.2-1.6-3.5-3.7-3.5c-2.2,0-4.3,1.7-4.3,4.1
	C48.1,6.3,49.6,7.7,51.7,7.7L51.7,7.7z M47.4,9.9l-4,21.1c-0.7,3.7-1.8,4.3-3.1,4.3c-0.5,0-0.9,0-1.3-0.1L38.1,41
	c1.1,0.3,2.3,0.4,3.4,0.4c2.4,0,4.9-0.8,6.4-2.5c1.5-1.7,2.5-4.1,3.2-7.9l3.9-21H47.4z M32.6,19.7c-0.9,5.2-2.8,6.6-4.2,6.6
	c-1.3,0-2.2-1.1-2.2-3.1c0-3.2,2.4-8,5.9-8c0.4,0,0.9,0,1.4,0.1L32.6,19.7z M38.9,31.9c-0.1-2.9,0.4-7.4,0.9-9.8l2.4-11.6
	c-2-0.6-5-1.2-7.8-1.2c-11.4,0-16,7.8-16,15.2c0,4.8,2.9,7.8,6.8,7.8c2.3,0,5.1-1,6.9-4.3h0.1c0,1.3-0.1,2.6-0.2,3.8H38.9z
	 M3.2,31.9h7.6l4.4-23.5h7.7l1.3-6.7H1.3L0,8.4h7.6L3.2,31.9z"/>
</svg>
