<?xml version="1.0" encoding="utf-8"?>
<!-- Generator: Adobe Illustrator 16.0.0, SVG Export Plug-In . SVG Version: 6.00 Build 0)  -->
<!DOCTYPE svg PUBLIC "-//W3C//DTD SVG 1.1//EN" "http://www.w3.org/Graphics/SVG/1.1/DTD/svg11.dtd" [
	<!ENTITY ns_flows "http://ns.adobe.com/Flows/1.0/">
	<!ENTITY ns_extend "http://ns.adobe.com/Extensibility/1.0/">
	<!ENTITY ns_ai "http://ns.adobe.com/AdobeIllustrator/10.0/">
	<!ENTITY ns_graphs "http://ns.adobe.com/Graphs/1.0/">
]>
<svg version="1.1" id="Vrstva_1" xmlns:x="&ns_extend;" xmlns:i="&ns_ai;" xmlns:graph="&ns_graphs;"
	 xmlns="http://www.w3.org/2000/svg" xmlns:xlink="http://www.w3.org/1999/xlink" xmlns:a="http://ns.adobe.com/AdobeSVGViewerExtensions/3.0/"
	 x="0px" y="0px" width="297.1px" height="91.3px" viewBox="0 0 297.1 91.3" style="enable-background:new 0 0 297.1 91.3;"
	 xml:space="preserve">
<style type="text/css">
<![CDATA[
	.st0{fill:#FFFFFF;}
]]>
</style>
<g>
	<path class="st0" d="M29.3,21.4c-2.1,0-6.2-0.1-12.4-0.2C9.2,21,3.6,20.9,0,20.8c0.3,3,0.5,8.5,0.5,16.3h3.1l0.5-5
		c0.3-3,0.6-4.8,1-5.4c0.2-0.3,0.7-0.5,1.5-0.6c2.5-0.3,5.9-0.5,10.1-0.5h7.3l0.3,8.3c0.1,1.6,0.1,3.2,0.1,4.5v28.7
		c-0.2,8.6-0.2,13.3-0.2,14c-0.1,2.5-0.4,4.1-0.8,4.8c-0.3,0.5-0.9,0.9-1.7,1.2c-0.9,0.3-3.2,0.5-7.1,0.5v3.2
		c9-0.3,14.1-0.4,15.4-0.4c3,0,7.4,0.1,13.3,0.4v-3.2c-3.9-0.1-6.3-0.2-7.1-0.5c-0.8-0.3-1.4-0.7-1.8-1.3s-0.6-2.4-0.7-5.6
		c-0.1-4.2-0.1-8.6-0.1-13.1V38.3c0-5.4,0.2-9.6,0.5-12.8h6c1.6,0,3.9,0.1,6.7,0.2c2.8,0.2,4.5,0.3,4.9,0.4c0.4,0.1,0.6,0.2,0.8,0.4
		c0.2,0.2,0.3,0.4,0.4,0.8c0.1,0.4,0.3,2,0.5,4.9l0.4,4.7h3.2c0.1-7.2,0.4-12.6,0.8-16.3c-2.7,0.1-7,0.3-12.9,0.4
		C36.7,21.3,31.5,21.4,29.3,21.4z"/>
	<path class="st0" d="M115,80.2c-0.4,1.7-0.8,3.1-1.2,4.1c-1.5,0.6-3.2,1.1-4.9,1.3c-1.8,0.3-4.7,0.4-8.9,0.4
		c-5.9,0-11.2-0.2-15.9-0.5c-0.2-3.2-0.2-7.8-0.2-13.9c0-6.5,0.1-11.4,0.2-14.6c4-0.2,7.2-0.2,9.4-0.2c5.4,0,9,0.2,10.9,0.6
		c1.1,0.2,1.8,0.6,2.1,1.2c0.4,0.6,0.6,2.1,0.7,4.5l0.1,3.4h3.5L110.5,55l0.2-10.3v-0.9h-3l-0.3,3.5c-0.2,2.3-0.5,3.6-0.8,4
		c-0.3,0.4-1,0.7-2,0.8c-2.8,0.4-6.1,0.5-10,0.5c-3.2,0-6.8-0.1-10.6-0.3l0.2-16.6c0.1-3.2,0.2-6.6,0.3-10.2
		c1.2-0.1,3.1-0.2,5.9-0.3c2.7-0.1,4.5-0.2,5.3-0.2c3.7,0,7.4,0.2,11,0.7c2.2,0.3,4.2,0.8,6,1.5c0.5,2.8,0.7,5.8,0.6,9.2h3.1
		c0.5-6.5,0.8-10,0.9-10.3c0.2-1.4,0.6-3,1.1-4.9c-2.9-0.4-6-0.5-9.2-0.5c-3.2,0-8.4,0-15.5,0.1L78.8,21l-14-0.3v3.2
		c3.9,0.1,6.3,0.2,7.1,0.5c0.8,0.3,1.4,0.7,1.8,1.3c0.4,0.6,0.6,2.4,0.7,5.5c0.1,4.3,0.1,8.6,0.1,13.1v25.2c0,3.2-0.1,6.9-0.3,11.2
		c-0.1,2.8-0.4,4.5-0.7,5.2c-0.2,0.4-0.5,0.7-1,0.9c-1.1,0.5-3.4,0.8-6.8,0.8v3.2c8.2-0.2,12.5-0.3,12.9-0.3l29.4,0.3
		c4,0,7.5-0.2,10.3-0.7c0-4.4,0.4-9.9,1.3-16.5h-3.3C116.2,75.1,115.7,77.3,115,80.2z"/>
	<path class="st0" d="M104.9,8.1c1.4-0.9,2.4-1.6,2.8-2.2c0.4-0.6,0.7-1.3,0.7-2c0-1.1-0.4-2-1.1-2.8c-0.8-0.7-1.7-1.1-3-1.1
		c-0.7,0-1.4,0.1-1.9,0.4c-0.6,0.3-1.5,1.1-2.8,2.4L85.5,17.5h4.1L104.9,8.1z"/>
	<path class="st0" d="M212.7,81.1l-9.5-40.5L198.7,20h-5c-1.3,3.9-2.3,6.8-2.9,8.5c-0.6,1.7-1.3,3.7-2.2,5.9l-6.2,16.1l-9.8,24.4
		l-11.2-30.4c-2-5.5-4.8-13.6-8.5-24.5h-5l-6.4,23.8c-1.6,5.8-2.6,9.5-3.1,11.2l-5.1,16.6c-2.3,7.6-3.6,11.9-4.1,13
		c-0.5,1.1-1.1,1.9-1.9,2.3c-0.8,0.4-2.3,0.7-4.5,0.7v3c5-0.2,8.5-0.3,10.5-0.3c2,0,5.5,0.1,10.5,0.3v-3c-4.7-0.1-7.3-0.4-7.9-0.7
		c-0.6-0.3-0.9-0.8-0.9-1.5c0-0.4,0.3-1.9,0.9-4.5c1.3-5.7,2.7-11.2,4.1-16.4l8.4-29.4l11.6,32.1c2.4,6.7,5.1,14.7,8.1,24h3.2
		c3.1-8.8,6.2-17.2,9.4-25.2L193,35.8l7.8,34.1c0.4,1.6,1.1,5.3,2.2,11.2c0.4,2.1,0.6,3.5,0.6,4.4c0,0.7-0.2,1.2-0.6,1.4
		c-0.6,0.3-3.1,0.6-7.4,0.7v3c6-0.2,10.3-0.3,12.8-0.3c2.8,0,7,0.1,12.5,0.3v-3c-3.5-0.4-5.5-0.9-6.1-1.4
		C214.1,85.7,213.4,84,212.7,81.1z"/>
	<path class="st0" d="M292.1,86.8c-0.7-0.4-1.4-1.1-2-2.3c-1.1-2-3.4-7.1-6.8-15.1L262.1,20H259c-4.4,10.5-7.3,17.4-8.6,20.4
		L238,68.2c-3.7,8-5.8,12.6-6.4,13.9c-1,2.1-1.8,3.5-2.3,4c-0.5,0.5-1.1,0.9-1.8,1c-0.6,0.2-2.3,0.3-4.9,0.3v3.4
		c3.8-0.3,7.3-0.4,10.5-0.4c2.8,0,6.9,0.1,12.5,0.4v-3.4c-3.1,0-5.2-0.2-6.4-0.4c-0.8-0.2-1.3-0.5-1.7-0.9c-0.3-0.3-0.4-0.7-0.4-1.1
		c0-1.1,0.5-2.7,1.4-5l5.4-12.7h28.5l6.1,15.1c0.5,1.1,0.7,2.1,0.7,2.8c0,0.5-0.1,0.8-0.4,1.2c-0.3,0.3-0.8,0.5-1.6,0.7
		c-0.8,0.2-3,0.3-6.7,0.3v3.4l15.9-0.5c2,0,5.6,0.2,10.8,0.5v-3.4C294.5,87.4,292.8,87.2,292.1,86.8z M245.6,63.1l12.6-29.7
		l12.3,29.7H245.6z"/>
</g>
</svg>
