<?xml version="1.0" encoding="utf-8"?>
<!-- Generator: Adobe Illustrator 16.0.0, SVG Export Plug-In . SVG Version: 6.00 Build 0)  -->
<!DOCTYPE svg PUBLIC "-//W3C//DTD SVG 1.1//EN" "http://www.w3.org/Graphics/SVG/1.1/DTD/svg11.dtd" [
	<!ENTITY ns_flows "http://ns.adobe.com/Flows/1.0/">
	<!ENTITY ns_extend "http://ns.adobe.com/Extensibility/1.0/">
	<!ENTITY ns_ai "http://ns.adobe.com/AdobeIllustrator/10.0/">
	<!ENTITY ns_graphs "http://ns.adobe.com/Graphs/1.0/">
]>
<svg version="1.1" id="Vrstva_1" xmlns:x="&ns_extend;" xmlns:i="&ns_ai;" xmlns:graph="&ns_graphs;"
	 xmlns="http://www.w3.org/2000/svg" xmlns:xlink="http://www.w3.org/1999/xlink" xmlns:a="http://ns.adobe.com/AdobeSVGViewerExtensions/3.0/"
	 x="0px" y="0px" width="296.4px" height="86.6px" viewBox="0 0 296.4 86.6" style="enable-background:new 0 0 296.4 86.6;"
	 xml:space="preserve">
<style type="text/css">
<![CDATA[
	.st0{fill:#FFFFFF;}
]]>
</style>
<g>
	<path class="st0" d="M73.4,0H23.8C23.8,0,0,0,0,23.8v39c0,0,0,23.8,23.8,23.8h49.6c0,0,23.8,0,23.8-23.8v-39
		C97.2,23.8,97.2,0,73.4,0z M76.2,78h-16L46.8,24.8H33.7V78h-16V24.8H4v-14h39.3h4h13.1L64,30.5c1.6,8.8,3.6,21.5,4.3,28.3
		c0.6-6.8,2.6-19.5,4.1-28.3l3.5-19.7h17L76.2,78z"/>
	<path class="st0" d="M296.4,11.3h-20l-1,2.6c-2.1,5.8-3.8,11.2-4.8,15.6c-0.9-4.4-2.5-9.7-4.8-15.6l-1-2.6h-20.5l15.9,32
		l-18.1,35.1l20.6-0.9l2.4-6.3c1.6-4.3,3.5-9.6,4.9-14c1.4,4.4,3.5,9.7,5.2,14l2.4,5.6l18.6-1.3l-15.7-32.9L296.4,11.3z"/>
	<path class="st0" d="M215.5,9.9c-9.2,0-17.1,2.8-23.7,6.8l5.5,13.5c5.5-3.5,9.8-5,15-5c4.7,0,6.7,1.8,6.7,6.6v5.2
		c-2.6-1.3-5.8-2.1-10.5-2.1c-12.2,0-19.4,7.3-19.4,21.8c0,15,6.2,22.3,17.1,22.3c5,0,9.2-2,12.7-5.2v5.1h19V31
		C238.1,16.9,231,9.9,215.5,9.9z M219.1,62.4c-1.5,1.3-3.8,2.1-6.4,2.1c-3.8,0-5.3-2.6-5.3-8.2c0-6.2,1.8-8.4,5.2-8.4
		c3,0,4.8,0.5,6.6,1.4V62.4z"/>
	<path class="st0" d="M166.4,9.9c-6.8,0-11.2,2.5-15.4,6.2c-3.4-4.2-7.3-6.2-14.5-6.2c-6,0-10.1,2.4-13.1,5.2v-3.8H104v66.2h19.4
		V29.1c1.8-1.5,3.7-2.5,5.9-2.5c3,0,4.5,2.4,4.5,7.4v43.5h19.3V29.1c1.8-1.5,3.7-2.5,5.9-2.5c3,0,4.5,2.4,4.5,7.4v43.5H183V30.6
		C183,16.5,177.6,9.9,166.4,9.9z"/>
</g>
</svg>
