<?xml version="1.0" encoding="utf-8"?>
<!-- Generator: Adobe Illustrator 16.0.0, SVG Export Plug-In . SVG Version: 6.00 Build 0)  -->
<!DOCTYPE svg PUBLIC "-//W3C//DTD SVG 1.1//EN" "http://www.w3.org/Graphics/SVG/1.1/DTD/svg11.dtd" [
	<!ENTITY ns_flows "http://ns.adobe.com/Flows/1.0/">
	<!ENTITY ns_extend "http://ns.adobe.com/Extensibility/1.0/">
	<!ENTITY ns_ai "http://ns.adobe.com/AdobeIllustrator/10.0/">
	<!ENTITY ns_graphs "http://ns.adobe.com/Graphs/1.0/">
]>
<svg version="1.1" id="Vrstva_1" xmlns:x="&ns_extend;" xmlns:i="&ns_ai;" xmlns:graph="&ns_graphs;"
	 xmlns="http://www.w3.org/2000/svg" xmlns:xlink="http://www.w3.org/1999/xlink" xmlns:a="http://ns.adobe.com/AdobeSVGViewerExtensions/3.0/"
	 x="0px" y="0px" width="296.9px" height="248.7px" viewBox="0 0 296.9 248.7" style="enable-background:new 0 0 296.9 248.7;"
	 xml:space="preserve">
<style type="text/css">
<![CDATA[
	.st0{fill:#FFFFFF;}
]]>
</style>
<image style="overflow:visible;" width="5" height="141" xlink:href="8B6FAAF4.jpg"  transform="matrix(0.7349 0 0 0.6589 292.1528 13.7676)">
</image>
<g>
	<path class="st0" d="M296.4,2.4c-0.3-0.6-0.8-1.2-1.5-1.7c-0.7-0.5-1.7-0.8-2.7-0.8H4.7C4.5,0,3.6,0,2.4,0.5C1.9,0.8,1.2,1.3,0.8,2
		C0.3,2.7,0,3.7,0,4.7V244c0,0.2,0,1.1,0.5,2.2c0.3,0.6,0.8,1.2,1.5,1.7c0.7,0.5,1.7,0.8,2.7,0.8h263.7c0.3,0,7.1,0,14.2-3.5
		c3.6-1.8,7.2-4.5,9.9-8.6c2.7-4.1,4.5-9.5,4.5-16.5V4.7C296.9,4.5,297,3.6,296.4,2.4z M289.1,234.3c-1.7,2.5-3.8,4.5-6.1,5.9
		c-3.4,2.2-7.1,3.3-10,3.9c-1.4,0.3-2.6,0.4-3.5,0.5c-0.4,0-0.8,0.1-1,0.1l-0.2,0H4.7c-0.3,0-0.4-0.1-0.4-0.1l-0.1-0.1
		c0-0.1-0.1-0.2-0.1-0.4l0-0.1v0V4.7c0-0.3,0.1-0.4,0.1-0.4l0.1-0.1C4.3,4.1,4.4,4.1,4.6,4l0.1,0h0h287.5c0.3,0,0.4,0.1,0.4,0.1
		l0.1,0.1c0.1,0.1,0.1,0.2,0.1,0.4l0,0.1v0v9.1h-0.8v92.9h0.8v113.4C292.9,226.4,291.3,230.9,289.1,234.3z"/>
	<path class="st0" d="M100.2,71.3c-1.3-2.1-3.1-3.7-5.2-4.9h0c-2-1.1-4.8-2.7-8.6-4.6c-1.8-0.9-3.1-1.9-3.9-2.7
		c-0.8-0.9-1.1-1.7-1.1-2.4c0-0.7,0.2-1.3,0.5-1.8c0.3-0.5,0.8-1,1.4-1.4c1.4-0.9,3-1.3,5-1.3c3.1,0,6.6,1.7,10.6,5.2l0.9,0.8
		l6.9-13.9l-0.9-0.4c-6.8-3-12.4-4.5-16.9-4.5c-6.3,0-11.8,1.7-16.2,5c-2.2,1.7-3.9,3.7-5.1,6c-1.1,2.3-1.7,4.9-1.7,7.7
		c0,2.6,0.7,5.1,2.1,7.3c1.4,2.2,3.4,4,5.9,5.5c2.5,1.4,5.3,3,8.5,4.7c1.5,0.8,2.7,1.6,3.3,2.4c0.7,0.8,1,1.5,1,2.1
		c0,2-0.7,3.5-2.2,4.6c-1.5,1.2-3.4,1.8-5.8,1.8c-3.8,0-7.7-1.9-11.9-5.9l-0.9-0.8l-7.8,13.7l0.8,0.5c5.9,3.5,11.9,5.3,18.1,5.3
		c7.2,0,13.2-1.8,17.9-5.5c4.7-3.7,7.2-8.9,7.1-15.3C102.2,75.8,101.5,73.4,100.2,71.3z"/>
	<path class="st0" d="M202.4,98.2l3.6-21.7l1-0.9l16.3,22.6h16.8l-1.1-1.5l-21.2-29.6c6.2-5.8,11.1-10.5,14.6-13.9
		c1.8-1.8,3.3-3.2,4.4-4.3c1.1-1.1,1.8-1.9,2.2-2.5l0.5-0.7l-10-9.2l-0.6,0.9c-2,2.9-6.1,7.4-12.4,13.2l0,0l-7.3,6.8l6.1-39.9h-14
		l-13.2,80.7H202.4z"/>
	<path class="st0" d="M266.7,39.4c-9.1,0-16.8,3.6-22.7,10.8c-5.9,7.1-8.9,15.9-8.9,26.2c0,7.3,1.9,13,5.8,17l0,0
		c3.9,4,9.4,6,16.2,5.9c9.3,0,17-3.6,22.9-10.8c5.9-7.2,8.8-16.1,8.8-26.5c0-7-1.9-12.7-5.8-16.6C279.2,41.3,273.7,39.4,266.7,39.4z
		 M269.8,79.7c-1.4,2.4-3.1,4.2-5,5.3c-1.9,1.2-4,1.7-6.4,1.7c-1.5,0-2.8-0.2-3.9-0.7c-1.6-0.7-2.8-1.8-3.6-3.5
		c-0.8-1.7-1.3-4-1.3-6.9c0-6.4,1.5-12,4.4-16.8c1.5-2.4,3.1-4.1,5-5.3c1.9-1.1,3.9-1.7,6.3-1.7c1.5,0,2.8,0.2,3.9,0.6
		c1.6,0.6,2.8,1.7,3.6,3.3c0.8,1.6,1.3,3.7,1.3,6.4C274.1,69,272.7,74.8,269.8,79.7z"/>
	<path class="st0" d="M112.2,49.3c-6,6.6-9,14.8-9,24.6c0,7.7,2.1,14,6.3,18.5c4.2,4.5,9.8,6.8,16.4,6.8c6.1,0,11.3-1,15.6-3.1
		l0.5-0.2l1.7-16.8L142,81c-1.4,1.4-3.4,2.7-6.1,3.9c-2.6,1.2-4.9,1.7-6.7,1.7c-3.7,0-6.4-1-8.4-2.9c-2-1.9-3-4.6-3-8.3
		c0-0.3,0-0.7,0-1.1c3.2,1.1,6.5,1.6,9.9,1.6c7.6,0,14.2-1.8,19.5-5.5c2.7-1.9,4.7-4.1,6.1-6.7c1.4-2.6,2-5.6,2-8.9
		c0-2.4-0.5-4.6-1.4-6.5c-0.9-1.9-2.3-3.6-4.2-4.9c-3.6-2.6-8.3-3.9-14-3.9C126.1,39.4,118.2,42.7,112.2,49.3z M125.9,55.3
		c2.4-2.2,4.7-3.2,6.9-3.2c3,0,5.3,0.4,6.6,1c0.7,0.3,1.1,0.7,1.4,1.1c0.3,0.4,0.4,0.9,0.4,1.5c0,1.2-0.3,2.2-1,3
		c-0.7,0.9-1.7,1.7-3.1,2.4c-2.9,1.4-6.5,2.1-10.9,2.1c-2,0-3.9-0.2-5.6-0.7C122,59.7,123.7,57.3,125.9,55.3z"/>
	<polygon class="st0" points="36.7,99.3 76.3,27.9 83.4,37.1 91.3,37.1 117.6,16.7 114.8,16.7 97.9,16.7 89.3,23.8 82.9,16.5 
		67.5,16.5 70.1,19.9 62.7,19.9 37.6,66.7 30.1,19.9 12.3,19.9 28,99.3 	"/>
	<path class="st0" d="M155.9,84c0,4.4,1.3,8.2,4,11c2.6,2.8,6.2,4.3,10.5,4.3c6.3,0,11.3-0.6,15.1-2l0.6-0.2V83.2l-1.3,0.6
		c-2.1,0.9-3.8,1.6-5.3,2c-1.5,0.4-2.6,0.6-3.4,0.6c-1.9,0-3.2-0.4-4-1.2c-0.4-0.4-0.7-0.8-0.9-1.4s-0.3-1.3-0.3-2.2
		c0-1.2,0.2-2.8,0.6-4.8l5.3-24.1h14.8l2.5-12.4h-1.2h-13.5l3.9-17.4l-16.5,6.2l-2.1,11.2h-6.2L156,52.8h6.2l-5.8,26.9v0
		C156,81.1,155.9,82.6,155.9,84z"/>
	<path class="st0" d="M110,142.6c0.7,0.5,1.6,1,2.9,1.4c1.8,0.5,3.4,0.8,4.9,0.8h0c0.5,0,1,0,1.5-0.1c0.3,0,0.6,0,0.9,0
		c0.6-0.1,1.3-0.2,1.9-0.3c0.1,0,0.3,0,0.4-0.1c0.7-0.1,1.3-0.3,1.9-0.5c0.1,0,0.2,0,0.2-0.1c0.7-0.2,1.3-0.5,2-0.8c0,0,0,0,0.1,0
		c2.6-1.2,5-3,7-5.5c0.4-0.5,0.9-1.1,1.3-1.7c0.1-0.2,0.2-0.3,0.3-0.5c0.3-0.4,0.6-0.9,0.8-1.4c0.1-0.2,0.2-0.3,0.3-0.5
		c0.3-0.6,0.6-1.3,0.9-1.9c0,0,0,0,0-0.1c0.3-0.6,0.5-1.3,0.7-1.9c0.1-0.2,0.1-0.4,0.2-0.6c0.2-0.5,0.3-1.1,0.5-1.6
		c0-0.2,0.1-0.4,0.1-0.6c0.2-0.7,0.3-1.4,0.4-2.1h0c0.3-1.7,0.4-3.4,0.4-5.2c0-4.7-1.2-8.3-3.6-10.7c-2.4-2.4-6-3.6-10.8-3.6
		c-1.8,0-3.8,0.5-5.9,1.4c-1.7,0.8-3.1,1.7-4.2,2.8c-0.1-1-0.2-1.7-0.3-2.3c-0.1-0.4-0.1-0.7-0.1-1c0-0.3-0.1-0.4-0.1-0.6l-0.1-0.4
		l-7.5,1.4l0.1,0.5c0.3,1.6,0.5,3.3,0.5,5.1c0,1.7-0.2,3.4-0.5,5.2v0l-1.3,7.5l-6.1,34h7.6L110,142.6z M112.4,128.9l0.7-4.2l1.6-8.9
		c0.7-0.9,1.9-1.8,3.6-2.7c1.7-0.9,3.2-1.4,4.5-1.4c3,0,5.2,0.7,6.6,2.1c1.4,1.4,2.2,3.6,2.2,6.5c0,1.7-0.1,3.2-0.4,4.6
		c-0.1,0.7-0.2,1.3-0.4,1.9c0,0.2-0.1,0.4-0.1,0.5c-0.2,0.7-0.4,1.4-0.7,2.1c0,0.1-0.1,0.2-0.1,0.2c-0.2,0.6-0.5,1.1-0.8,1.7
		c-0.1,0.2-0.2,0.3-0.3,0.5c-0.3,0.6-0.7,1.1-1.1,1.6c-2.5,3.2-6.1,4.7-10.9,4.8c-1,0-2.2-0.2-3.4-0.7c-0.3-0.1-0.6-0.2-0.8-0.4
		c-0.1,0-0.1-0.1-0.2-0.1c-0.1-0.1-0.3-0.2-0.4-0.3c-0.1-0.1-0.1-0.1-0.2-0.2c-0.1-0.1-0.2-0.2-0.3-0.3c-0.1-0.1-0.1-0.1-0.1-0.2
		c-0.1-0.1-0.1-0.1-0.2-0.2L112.4,128.9z"/>
	<path class="st0" d="M150.1,122.2L150.1,122.2c0.5-2.9,1.8-5.4,3.9-7.5c2.1-2.1,4.2-3.1,6.4-3.1c1.8,0,3.3,0.5,4.6,1.6l0.6,0.4
		l2.2-7.9l-0.5-0.1c-1.7-0.3-3-0.5-3.9-0.5c-4.3,0-8.1,1.8-11.2,5.4l0.8-4.7h-7.6l-6.7,38.2h7.6L150.1,122.2z"/>
	<path class="st0" d="M197.7,114.6c0-3-1.2-5.5-3.5-7.1c-2.3-1.7-5.4-2.5-9.1-2.5c-6.2,0-11.5,2.2-15.6,6.7c-3.4,3.6-5.4,8-6,13h0
		c0,0.2,0,0.4-0.1,0.6c0,0.2,0,0.4,0,0.6c-0.1,0.7-0.1,1.4-0.1,2.1c0,5.4,1.2,9.6,3.7,12.4c2.1,2.4,5.2,3.8,9.1,4.1
		c0.1,0,0.2,0,0.2,0c0.4,0,0.7,0,1.1,0c0.2,0,0.4,0,0.7,0h0c2.9,0,6.3-0.6,10-1.9l0.3-0.1l0.8-8.1l-0.9,0.6c-2.7,2-5.4,2.9-8,2.9
		c-3,0-5.3-0.8-6.9-2.3c-1.6-1.5-2.4-3.7-2.4-6.7c0-0.5,0-0.9,0.1-1.4c0-0.1,0-0.3,0.1-0.5c0-0.2,0.1-0.4,0.1-0.6
		c0.2,0.1,0.5,0.2,0.8,0.3c0.2,0.1,0.5,0.2,0.8,0.3c0.4,0.1,0.8,0.3,1.3,0.4c0.3,0.1,0.5,0.1,0.8,0.2c0.5,0.1,1,0.2,1.5,0.2
		c0.2,0,0.5,0.1,0.7,0.1c0.8,0.1,1.5,0.1,2.4,0.1h0c0.6,0,1.2,0,1.9-0.1c0.1,0,0.2,0,0.2,0c0.5,0,1-0.1,1.6-0.1c0.1,0,0.2,0,0.3-0.1
		c0.5-0.1,0.9-0.1,1.4-0.2c0.1,0,0.3-0.1,0.4-0.1c0.4-0.1,0.9-0.2,1.3-0.3c0.1,0,0.3-0.1,0.4-0.1c0.4-0.1,0.8-0.2,1.2-0.4
		c0.1-0.1,0.3-0.1,0.4-0.2c0.4-0.1,0.7-0.3,1.1-0.4c0.2-0.1,0.3-0.2,0.5-0.2c0.3-0.2,0.7-0.3,1-0.5c0.2-0.1,0.3-0.2,0.5-0.3
		c0.3-0.2,0.5-0.3,0.8-0.5h0c0.1,0,0.1-0.1,0.2-0.1C195.9,122.2,197.7,118.8,197.7,114.6z M189.4,118.1c-0.5,0.8-1.3,1.4-2.4,2
		c-2.2,1.1-5.1,1.7-8.7,1.7c-2.1,0-4-0.3-5.6-1c1.2-3.1,2.7-5.3,4.6-6.9c2-1.6,4.5-2.4,7.4-2.4c1.9,0,3.3,0.4,4.2,1
		c0.8,0.6,1.3,1.5,1.3,2.8C190.2,116.4,189.9,117.3,189.4,118.1z"/>
	<path class="st0" d="M214.8,181.5c0-6.8-1.8-12.2-5.5-15.7c-3.7-3.6-9.2-5.3-16.3-5.3c-7.9,0-14.7,2.2-20.3,6.7l-1.3-7.2l-17.4,3.3
		l0.3,1c1.2,4.3,1.8,8.3,1.8,12.1c0,1.6-0.1,2.8-0.2,3.6l-9.7,53.3h17.7l9.1-50.6c4.3-4.6,9.1-6.9,14.3-6.9c3.2,0,5.4,0.7,6.8,1.9
		c0.7,0.6,1.2,1.4,1.6,2.3c0.4,0.9,0.6,2.1,0.6,3.4c0,2.1-0.3,4.8-0.9,8l-7.6,41.7h18.2l7.8-43.2
		C214.5,186.8,214.8,183.9,214.8,181.5z"/>
	<path class="st0" d="M266.7,161.7l-7.3,41l0,0c-0.8,4.5-2.9,8.4-6.3,11.6c-3.3,3.2-7.4,4.8-12.3,4.8c-3,0-5.2-0.7-6.5-1.9
		c-0.7-0.6-1.2-1.3-1.5-2.3c-0.3-0.9-0.5-2.1-0.5-3.4c0-1.2,0.2-2.8,0.5-4.6l8.5-45.3h-18.4l-8.5,45.6c-0.5,2.6-0.7,4.9-0.7,6.9
		c0,6.2,1.8,11.3,5.4,14.9c3.6,3.6,8.6,5.4,14.7,5.4c8,0,14.9-1.7,20.5-5.2l-0.8,4h18.2l13.4-71.6h-1.1H266.7z"/>
	<polygon class="st0" points="74.9,127 63.6,136.1 55.2,126.8 36,126.8 56.1,152.4 66.2,152.4 97.7,127 95,127 	"/>
	<polygon class="st0" points="89.8,168.8 89.8,168.5 89.8,161.7 30.1,161.7 27.1,177.7 60.4,177.7 20.7,226.5 20.7,233.3 80,233.3 
		83,217.3 50.8,217.3 	"/>
	<path class="st0" d="M118,205.4c10.1,0,18.6-2.3,25.6-6.9c3.5-2.3,6.2-5.1,7.9-8.3c1.8-3.2,2.7-6.9,2.7-11c0-3-0.6-5.7-1.8-8.1
		c-1.2-2.4-3-4.4-5.4-6c-4.8-3.2-10.9-4.8-18.4-4.8c-12.6,0-23,4.1-30.9,12.2c-7.9,8.1-11.8,18.4-11.8,30.5c0,9.6,2.7,17.3,8.3,23
		c5.5,5.6,12.8,8.4,21.5,8.4c8,0,14.9-1.3,20.5-3.8l0.5-0.2l2.2-20.1l-1.8,1.7c-1.9,1.8-4.6,3.4-8.1,4.9c-3.5,1.5-6.5,2.2-9.1,2.2
		c-5,0-8.7-1.3-11.4-3.7c-2.7-2.4-4-5.8-4-10.5c0-0.5,0-1.1,0.1-1.7C109,204.7,113.4,205.4,118,205.4z M115.3,180
		c3-2.6,5.9-3.8,8.7-3.8c3.8,0,6.5,0.4,8.2,1.2c0.9,0.4,1.4,0.9,1.8,1.3c0.4,0.5,0.5,1,0.5,1.8c0,1.4-0.4,2.5-1.2,3.6
		c-0.8,1.1-2.1,2-3.9,2.8c-3.6,1.6-8.2,2.4-13.6,2.4c-2.6,0-4.9-0.3-7.2-0.8C110.3,185.2,112.5,182.3,115.3,180z"/>
</g>
</svg>
