<?xml version="1.0" encoding="utf-8"?>
<!-- Generator: Adobe Illustrator 16.0.3, SVG Export Plug-In . SVG Version: 6.00 Build 0)  -->
<!DOCTYPE svg PUBLIC "-//W3C//DTD SVG 1.1//EN" "http://www.w3.org/Graphics/SVG/1.1/DTD/svg11.dtd" [
	<!ENTITY ns_flows "http://ns.adobe.com/Flows/1.0/">
	<!ENTITY ns_extend "http://ns.adobe.com/Extensibility/1.0/">
	<!ENTITY ns_ai "http://ns.adobe.com/AdobeIllustrator/10.0/">
	<!ENTITY ns_graphs "http://ns.adobe.com/Graphs/1.0/">
]>
<svg version="1.1" id="Vrstva_1" xmlns:x="&ns_extend;" xmlns:i="&ns_ai;" xmlns:graph="&ns_graphs;"
	 xmlns="http://www.w3.org/2000/svg" xmlns:xlink="http://www.w3.org/1999/xlink" xmlns:a="http://ns.adobe.com/AdobeSVGViewerExtensions/3.0/"
	 x="0px" y="0px" width="300px" height="79.7px" viewBox="0 0 300 79.7" style="enable-background:new 0 0 300 79.7;"
	 xml:space="preserve">
<style type="text/css">
<![CDATA[
	.st0{fill:none;stroke:#FFFFFF;stroke-width:0.1571;stroke-miterlimit:22.926;}
	.st1{fill:none;stroke:#FFFFFF;stroke-width:0.4123;stroke-miterlimit:22.926;}
	.st2{fill:none;stroke:#FFFFFF;stroke-width:0.4123;}
	.st3{fill:black;}
	.st4{fill:none;stroke:#FFFFFF;stroke-width:1.4542;stroke-miterlimit:22.926;}
]]>
</style>
<g>
	<ellipse class="st3" cx="158.2" cy="57" rx="21.7" ry="20.3"/>
	<polygon class="st3" points="10.9,58.3 10.9,76 0.4,77 0.4,38 10.9,36.9 10.9,54.6 24.5,37.1 34.7,39.7 21.4,56.6 35,74.6 
		24.3,77.4 	"/>
	<polygon class="st4" points="10.9,58.3 10.9,76 0.4,77 0.4,38 10.9,36.9 10.9,54.6 24.5,37.1 34.7,39.7 21.4,56.6 35,74.6 
		24.3,77.4 	"/>
	<path class="st3" d="M48.9,55.6h2.3c1.8,0,3.3-0.6,4.2-1.7c0.8-1,1.3-2.2,1.3-3.6c0-2-0.7-3.5-2.3-4.3c-0.9-0.5-2-0.7-3.4-0.7h-2.1
		V55.6z M60.6,59.6l11,14.5l-10.5,3.1L48.9,59.3v16.9l-10.5,0.6V38h12.4c4.8,0,8.5,0.8,11.3,2.3c3.4,1.9,5,4.8,5,8.8
		c0,2.6-0.6,4.8-1.9,6.7C64.1,57.2,62.5,58.5,60.6,59.6z"/>
	<path class="st4" d="M48.9,55.6h2.3c1.8,0,3.3-0.6,4.2-1.7c0.8-1,1.3-2.2,1.3-3.6c0-2-0.7-3.5-2.3-4.3c-0.9-0.5-2-0.7-3.4-0.7h-2.1
		V55.6z M60.6,59.6l11,14.5l-10.5,3.1L48.9,59.3v16.9l-10.5,0.6V38h12.4c4.8,0,8.5,0.8,11.3,2.3c3.4,1.9,5,4.8,5,8.8
		c0,2.6-0.6,4.8-1.9,6.7C64.1,57.2,62.5,58.5,60.6,59.6z"/>
	<path class="st3" d="M81.3,28.9l11.2-5.7l2.9,4.9l-11.7,5.1L81.3,28.9z M80,76.9V38l10.2-1v39.1L80,76.9z"/>
	<path class="st4" d="M81.3,28.9l11.2-5.7l2.9,4.9l-11.7,5.1L81.3,28.9z M80,76.9V38l10.2-1v39.1L80,76.9z"/>
	<path class="st3" d="M125.7,26.1l-9.4,7l-9-7l4.5-2.2l4.7,3.7l5-3.7L125.7,26.1z M100.9,38h30.7l-18.5,29.1h18.2l-2.6,9.1H95.9
		l18-29.7H98.8L100.9,38z"/>
	<path class="st4" d="M125.7,26.1l-9.4,7l-9-7l4.5-2.2l4.7,3.7l5-3.7L125.7,26.1z M100.9,38h30.7l-18.5,29.1h18.2l-2.6,9.1H95.9
		l18-29.7H98.8L100.9,38z"/>
	<polygon class="st3" points="182.1,37.9 192.6,36.1 199.9,56.4 208.1,36.1 218.5,38 199.5,79.2 	"/>
	<polygon class="st4" points="182.1,37.9 192.6,36.1 199.9,56.4 208.1,36.1 218.5,38 199.5,79.2 	"/>
	<polygon class="st3" points="233.9,58.3 233.9,76 223.4,77 223.4,38 233.9,36.9 233.9,54.6 247.5,37.1 257.7,39.7 244.4,56.6 
		258,74.6 247.3,77.4 	"/>
	<polygon class="st4" points="233.9,58.3 233.9,76 223.4,77 223.4,38 233.9,36.9 233.9,54.6 247.5,37.1 257.7,39.7 244.4,56.6 
		258,74.6 247.3,77.4 	"/>
	<polygon class="st3" points="280.8,53.6 288.7,36.9 298.8,40.1 278.8,79.1 267.9,77.1 275.2,63.7 259.9,40.2 270.2,36.5 	"/>
	<polygon class="st4" points="280.8,53.6 288.7,36.9 298.8,40.1 278.8,79.1 267.9,77.1 275.2,63.7 259.9,40.2 270.2,36.5 	"/>
	<path class="st3" d="M160.6,20.6l-3.4-6.4l-3.4,6.4H160.6z M138.9,31.5L157.4,1L176,31.6l-8.7,1.6l-3.7-6.6h-12.7l-3.3,6.6
		L138.9,31.5z"/>
	<path class="st0" d="M160.6,20.6l-3.4-6.4l-3.4,6.4H160.6z M138.9,31.5L157.4,1L176,31.6l-8.7,1.6l-3.7-6.6h-12.7l-3.3,6.6
		L138.9,31.5z"/>
	<path class="st3" d="M203.6,6.1l-5,5c0-0.5-0.7-1-2.1-1.6c-1.1-0.5-2.3-0.7-3.7-0.7c-0.9,0-1.6,0.1-2.3,0.5c-0.6,0.3-1,0.8-1.1,1.4
		c0,1,0.7,1.8,2.1,2.3c0.2,0,1.5,0.4,4.1,1.1c3,0.8,5.1,1.9,6.4,3.4c1.2,1.4,1.8,3.2,1.8,5.5c0,2.8-1.1,5-3.4,6.7s-5.2,2.5-8.8,2.5
		c-2.4,0-4.7-0.4-7.1-1.2c-2.4-0.8-4.1-1.7-5.2-2.6l5.2-5.3c0.6,0.5,1.2,1,1.7,1.2c1.5,0.8,3.2,1.2,5,1.2c1.2-0.1,2.1-0.2,2.6-0.5
		c0.8-0.4,1.2-1,1.2-1.9c0-1-1.1-1.8-3.3-2.4c-1.8-0.5-3.5-1-5.3-1.5c-1.7-0.8-3-1.6-3.8-2.5c-1.4-1.4-2.1-3.3-2.1-5.5
		c0-2.5,1.1-4.6,3.3-6.4c2.2-1.7,4.9-2.5,7.9-2.5c2.6,0,5,0.4,7.2,1.2C200.7,4.1,202.2,5,203.6,6.1z"/>
	<path class="st0" d="M203.6,6.1l-5,5c0-0.5-0.7-1-2.1-1.6c-1.1-0.5-2.3-0.7-3.7-0.7c-0.9,0-1.6,0.1-2.3,0.5c-0.6,0.3-1,0.8-1.1,1.4
		c0,1,0.7,1.8,2.1,2.3c0.2,0,1.5,0.4,4.1,1.1c3,0.8,5.1,1.9,6.4,3.4c1.2,1.4,1.8,3.2,1.8,5.5c0,2.8-1.1,5-3.4,6.7s-5.2,2.5-8.8,2.5
		c-2.4,0-4.7-0.4-7.1-1.2c-2.4-0.8-4.1-1.7-5.2-2.6l5.2-5.3c0.6,0.5,1.2,1,1.7,1.2c1.5,0.8,3.2,1.2,5,1.2c1.2-0.1,2.1-0.2,2.6-0.5
		c0.8-0.4,1.2-1,1.2-1.9c0-1-1.1-1.8-3.3-2.4c-1.8-0.5-3.5-1-5.3-1.5c-1.7-0.8-3-1.6-3.8-2.5c-1.4-1.4-2.1-3.3-2.1-5.5
		c0-2.5,1.1-4.6,3.3-6.4c2.2-1.7,4.9-2.5,7.9-2.5c2.6,0,5,0.4,7.2,1.2C200.7,4.1,202.2,5,203.6,6.1z"/>
	<polygon class="st3" points="234.7,10 226.2,10 226.2,31.5 217.6,32.2 217.6,10 208.4,10 210.7,3.1 234.7,3.1 	"/>
	<polygon class="st0" points="234.7,10 226.2,10 226.2,31.5 217.6,32.2 217.6,10 208.4,10 210.7,3.1 234.7,3.1 	"/>
	<path class="st3" d="M247.6,16.3h2c1.6,0,2.8-0.4,3.6-1.2c0.7-0.7,1.1-1.6,1.1-2.7c0-1.5-0.6-2.6-1.9-3.2c-0.8-0.4-1.7-0.5-2.9-0.5
		h-1.8V16.3z M257.5,19.2l9.4,10.8l-8.9,2.3L247.6,19v12.6l-8.9,0.4V3.1h10.5c4,0,7.2,0.6,9.6,1.7c2.9,1.4,4.3,3.6,4.3,6.6
		c0,1.9-0.5,3.6-1.6,5C260.5,17.5,259.2,18.4,257.5,19.2z"/>
	<path class="st0" d="M247.6,16.3h2c1.6,0,2.8-0.4,3.6-1.2c0.7-0.7,1.1-1.6,1.1-2.7c0-1.5-0.6-2.6-1.9-3.2c-0.8-0.4-1.7-0.5-2.9-0.5
		h-1.8V16.3z M257.5,19.2l9.4,10.8l-8.9,2.3L247.6,19v12.6l-8.9,0.4V3.1h10.5c4,0,7.2,0.6,9.6,1.7c2.9,1.4,4.3,3.6,4.3,6.6
		c0,1.9-0.5,3.6-1.6,5C260.5,17.5,259.2,18.4,257.5,19.2z"/>
	<g id="XMLID_1_">
		<g>
			<polygon class="st2" points="281.2,2.7 276.5,17.2 277.5,17.9 278.9,13.7 281.2,6.6 282.9,12.1 284.3,12 			"/>
			<polygon class="st2" points="295,12.5 279.8,12.7 279.4,13.9 291.7,13.7 286.6,17.4 287,18.5 			"/>
			<polygon class="st2" points="277.2,18.3 271.2,13.9 277,13.9 277.4,12.7 267.8,12.7 277.1,19.8 279.8,21.9 280.8,21 			"/>
			<polygon class="st2" points="286.1,17.6 285.1,14.4 283.7,14.4 285.2,18.8 287.5,25.9 282.8,22.4 281.7,23.2 289.7,28.9 			"/>
			<polygon class="st2" points="284.7,18.9 274.9,26.1 276.8,20.2 275.8,19.5 272.9,28.8 285,20.1 			"/>
			<path class="st1" d="M281.2,2.3c0.1,0,0.1,0,0.2,0c6.5,0,12.1,4.1,14.2,10c0.6,1.6,0.9,3.3,0.9,5c0,4.9-2.4,9.3-6.1,12
				c-2.5,1.9-5.6,3-9,3c-3.4,0-6.5-1.1-9-2.9c-3.7-2.7-6.1-7.1-6.1-12.1c0-1.7,0.3-3.3,0.8-4.8C269.1,6.6,274.7,2.4,281.2,2.3z"/>
			<path class="st1" d="M281.4,1.4c8.8,0,16,7.2,16,16c0,8.8-7.2,16-16,16c-8.8,0-16-7.2-16-16C265.4,8.6,272.5,1.4,281.4,1.4z"/>
		</g>
	</g>
</g>
</svg>
