<?xml version="1.0" encoding="utf-8"?>
<!-- Generator: Adobe Illustrator 16.0.0, SVG Export Plug-In . SVG Version: 6.00 Build 0)  -->
<!DOCTYPE svg PUBLIC "-//W3C//DTD SVG 1.1//EN" "http://www.w3.org/Graphics/SVG/1.1/DTD/svg11.dtd" [
	<!ENTITY ns_flows "http://ns.adobe.com/Flows/1.0/">
	<!ENTITY ns_extend "http://ns.adobe.com/Extensibility/1.0/">
	<!ENTITY ns_ai "http://ns.adobe.com/AdobeIllustrator/10.0/">
	<!ENTITY ns_graphs "http://ns.adobe.com/Graphs/1.0/">
]>
<svg version="1.1" id="Vrstva_1" xmlns:x="&ns_extend;" xmlns:i="&ns_ai;" xmlns:graph="&ns_graphs;"
	 xmlns="http://www.w3.org/2000/svg" xmlns:xlink="http://www.w3.org/1999/xlink" xmlns:a="http://ns.adobe.com/AdobeSVGViewerExtensions/3.0/"
	 x="0px" y="0px" width="298.2px" height="161.9px" viewBox="0 0 298.2 161.9" style="enable-background:new 0 0 298.2 161.9;"
	 xml:space="preserve">
<style type="text/css">
<![CDATA[
	.st0{fill:black;}
]]>
</style>
<g>
	<path class="st0" d="M294.7,4.3C292.5,1.7,289.4,0,286,0H12.2C8.7,0,5.7,1.7,3.5,4.3C1.3,6.9,0,10.4,0,14.3v133.3
		c0,3.9,1.3,7.5,3.5,10.1c2.2,2.6,5.2,4.3,8.7,4.3H286c3.4,0,6.5-1.7,8.7-4.3c2.2-2.6,3.5-6.2,3.5-10.1V14.3
		C298.2,10.4,296.9,6.9,294.7,4.3z M296.2,147.6c0,3.5-1.2,6.6-3,8.8c-1.9,2.2-4.4,3.6-7.2,3.6H12.2c-2.8,0-5.3-1.3-7.2-3.6
		c-1.9-2.2-3-5.3-3-8.8V14.3c0-3.5,1.2-6.6,3-8.8C6.9,3.3,9.4,2,12.2,2H286c2.8,0,5.3,1.3,7.2,3.6c1.9,2.2,3,5.3,3,8.8V147.6z"/>
	<path class="st0" d="M28.2,98.5c5.1-0.6,8.4-2.4,13.4-7.4c0.7-0.7,1.3-1,1.5-1.2c2.2-0.6,2.1-0.5,2.9-1.6c2.1-3.3,3.2-8.9,2.6-13.8
		c-0.4-3.4-2.1-5.6-4.1-5.4c-1.2,0.1-2.2,1-2.8,2.1l-2.9,5.6c-0.3,0.6-0.6,1.1-0.9,1.6c-1.6,2.5-3.3,3.8-5.3,4.1
		c-4.1,0.5-7.4-4.4-8.5-12.5c-1.6-12.6,1.3-24.9,6-25.5c1.8-0.2,3.4,0.9,4.8,3.3c3.2,5.6,2.3,4.1,2.8,4.8c1.4,1.9,2.9,2.6,4.6,2.4
		c3.4-0.4,5.2-4.6,4.4-10.3c-0.9-6.8-5.3-13.9-8.4-13.5c-0.3,0-0.8,0.3-1.3,0.7c-0.6,0.4-1,0.6-1.3,0.6c-0.3,0-0.8-0.1-1.5-0.4
		c-1.7-0.7-4.2-0.9-6.3-0.7c-5,0.6-10.4,4.4-14.1,9.9c-5.6,8.3-8.5,22.3-7.1,33.5C8.8,91,16.8,99.9,28.2,98.5z"/>
	<path class="st0" d="M50.5,40.6c2.2-0.1,2.5,0.2,2.8,2.7c0.3,2.5,0.5,5.7,0.6,11.4c0.2,9.1,0.3,17.9,0.2,24.7
		c-0.1,5.3-0.1,8.2,0.1,9.8c0.4,3.3,2.6,5.1,5.9,4.7c2.4-0.3,5.1-1.8,6.6-3.6c1.4-1.8,1.6-3,1.4-8.7c-0.2-4.9-0.1-12.2,0-14.5
		c0.4-4,1.8-7.2,3.4-7.5c1-0.2,2,1.1,2.3,3c0.1,0.8,0.2,1.9,0.1,2.9c-0.2,14.7-0.2,17.3,0.1,19.8c0.6,4.6,2.4,6.7,5.6,6.3
		c3.1-0.4,6.4-2.5,9.2-5.9c2.1-2.6,2.9-4.6,2.6-7c-0.2-1.5-0.7-2.1-1.8-2.2c-1.4-0.1-1.8-0.5-2-2.4c-0.1-1.1-0.2-3.3-0.2-8.2l0-2.4
		l0-2.5l0-2.4c0-2.3-0.1-4.8-0.4-6.6c-0.7-5.9-3.9-9.2-8.3-8.6c-2.6,0.3-4.5,1.6-7.8,5.7c-0.9,1.1-1.6,1.9-2.1,2.8
		c-0.6,0.8-0.7,1.1-1,1.1c-0.4,0-0.7-0.4-0.7-1.2c0-0.3,0,0-0.1-2.2l-0.2-7.5c0-2.7,0-4.5-0.1-4.8c0-2.5-0.1-5-0.2-6.2
		c-0.4-3.1-1.7-4.1-4.6-3.8c-3,0.4-6.8,1.9-10.2,4.3c-2.8,1.9-4.1,4.3-3.8,7C48.4,39.9,49.1,40.6,50.5,40.6z"/>
	<path class="st0" d="M93.1,54.2c1.7,0,2.2,0.6,2.4,2.2c0,0.4,0.1,1.8,0.1,3.7l0,2.8l0,2.7l0,2.8c0,3.2,0.1,5.9,0.4,7.6
		c1,7.8,6.6,12.8,13.3,12c12-1.5,19-18.2,16.4-39.1c-1-7.8-3.3-11-7.5-10.5c-3,0.4-4.8,2.8-4.4,6c0.2,1.2,0.6,2.4,2,5
		c2,3.6,2.8,5.8,3.2,9c1,8.2-1.6,16.2-5.6,16.7c-2,0.3-3.5-1.6-4-4.9c-0.1-1-0.2-3.2-0.3-5.8c-0.3-11.5-0.3-7.8-0.3-11.2
		c-0.1-7.1-0.1-6.7-0.3-8.2c-0.4-3.4-2.2-5.1-5-4.7c-3.2,0.4-7.2,2.5-10.3,5.4c-1.9,1.8-2.7,3.8-2.4,6.4
		C91.2,53.7,91.7,54.2,93.1,54.2z"/>
	<path class="st0" d="M130.7,51.1c1.4-0.2,1.7,0,1.8,1.3c0.1,0.6,0.1,0.7,0.1,4.3l0.4,17.7c0.1,3.1,0.1,2.6,0.2,3.5
		c0.5,3.8,3.1,6.3,6.2,5.9c6-0.8,12.4-7.8,11.7-12.9c-0.2-1.5-0.8-2.2-1.9-2.1l-0.4,0.1c-0.2,0.1-0.3,0.1-0.4,0.2
		c-0.9,0.2-1.5-0.4-1.5-1.5c0-0.3,0-0.7,0-1.4c0,1.5,0,1.9-0.1-1.8l0-0.7l-0.1-9.6c-0.2-7.2-0.4-13-0.6-14.7c-0.4-3-1.5-4.3-3.5-4
		c-3.2,0.4-8.6,3.5-12.2,7c-1.7,1.6-2.4,3.6-2.1,5.8C128.5,50.1,129.4,51.1,130.7,51.1z"/>
	<path class="st0" d="M135.6,31.6c2.2-0.3,5.6-2.5,8-5.3c2.4-2.8,4-6.7,3.8-9.3c-0.2-2.7-2.7-4.1-6.3-3.7c-3.7,0.5-7.1,2.8-6.8,4.8
		c0,0.4,0.1,0.7,0.3,1c0.6,1.1,0.5,0.9,0.6,1.4c0.1,0.8-0.1,1.5-0.9,2.9c-1.8,3.5-1.9,3.8-1.7,5.2C132.8,30.5,134,31.7,135.6,31.6z"
		/>
	<path class="st0" d="M173.6,73.5c1.3-2,1.8-4,1.5-6.3c-0.2-1.6-0.9-2.5-1.8-2.4c-0.3,0-0.6,0.2-0.8,0.3c-0.3,0-0.4,0.2-0.6,0.2
		c-0.9,0.1-1.5-1.1-1.8-3c-0.2-1.2-0.3-3.7-0.4-7.5c-0.1-3.1-0.2-5.6-0.4-7.6l-0.8-17.4c1.2-0.5,2.1-1.8,3.2-4.7
		c1.6-4.3,2.2-8.6,1.7-12.2c-0.5-3.7-2.8-6.2-5.4-5.9c-2.9,0.4-4.9,3.5-4.6,7c-2.8,0.5-5.9,1.8-9.7,4.1c-3.7,2.3-4.9,4.5-4.5,7.7
		c0.2,1.8,1.1,2.7,2.5,2.5c0.1,0,0.5-0.1,0.7-0.2l0.7-0.1c0.8-0.1,1.1,0.3,1.3,1.9c0,0.4,0.1,1.3,0.2,2c0,0.8,0-0.8,0.2,4.7l0,1.8
		l0.6,16c0.3,6.3,0.4,10.8,0.4,12c0,3.2,0.2,6.2,0.4,7.8c0.6,4.9,2.5,6.9,6,6.5C166.3,80.4,171.3,77.1,173.6,73.5z"/>
	<path class="st0" d="M176.7,24.1c0.2,0,0.5-0.2,0.9-0.3c0.2,0,0.5-0.2,0.7-0.2c1.2-0.1,1.7,0.8,2.1,3.9c0.2,1.5,0.4,4.9,0.6,8.3
		c0.3,6.4,0.5,14.6,0.5,25l0,2.5l0,2.5l0,2.5c0,1.6,0.1,3.1,0.2,4c0.4,3.3,1.8,4.7,4.6,4.4c2.4-0.3,5.2-1.5,7-3
		c1.5-1.3,2.3-3.5,2.1-6.1c-0.3-5.7-0.3-5.3,0-6.7c0.1-0.5,0.4-0.9,0.7-1c0.6-0.1,1.3,1.1,2.7,4.4c3.4,8.6,2.5,6.2,3,7.2
		c1.3,2.2,2.4,2.9,4.3,2.7c5.4-0.7,11.2-6.8,10.7-11c-0.2-1.2-0.8-2.1-1.9-2.6c-1.2-0.5-1.6-1.1-3.7-4.8c-1.2-2.2-1.6-2.9-2.4-3.9
		c-0.3-0.4-0.4-0.6-0.4-0.8c-0.1-0.5,0.3-1.1,0.7-1.5c4.7-4.3,6-7.9,5.2-14.3c-0.8-6.5-4.3-10-9.2-9.4c-2.7,0.3-5.3,2.1-7.7,5.2
		c-2.4,3.3-2.1,2.9-2.6,3c-0.4,0.1-0.8-0.4-0.9-1.2c0-0.2,0,0-0.2-3.3l-0.4-12.5c-0.1-1.6-0.2-3.8-0.3-4.6c-0.3-2.4-1.3-3.2-3.3-3
		c-3.4,0.4-7.7,2.2-10.7,4.5c-3.1,2.2-4.2,4.5-3.8,7.7C175.5,23.3,176,24.2,176.7,24.1z M194.5,51c0.2-2.6,0.4-4.3,0.7-5.4
		c0.7-2.7,2.4-5.2,3.5-5.4c0.9-0.1,1.8,1,1.9,2.6c0.3,3.3-1.4,7.2-3.7,9.5c-1.1,1-0.8,0.8-1,0.9c-0.4,0.4-0.4,0.4-0.6,0.5
		c-0.3,0-0.8-0.7-0.8-1.3C194.5,51.9,194.5,51.5,194.5,51z"/>
	<path class="st0" d="M253.2,64.3c2.5-2.7,3.8-5.5,3.5-7.9c-0.2-1.2-0.8-1.9-1.9-2c-1.3,0-1.7-0.7-2-3.2c-0.5-4-1-13.8-1.2-21.3
		c0-2.3-0.1-4.6-0.3-5.9c-0.3-2.4-1.2-3.3-3-3.1c-1.3,0.2-2.9,1-4,2.1c-2.8,2.7-2.6,2.6-3.3,2.6c-0.5,0.1-1.2-0.3-3.1-1.5
		c-1.8-1.1-3.1-1.5-4.8-1.2c-8.8,1.1-15.7,19-13.7,35.2c1.1,9.1,5,14.2,10.2,13.5c2.5-0.3,5.2-2.5,7.2-5.8c2.5-4.2,2.1-3.7,2.5-3.7
		c0.6-0.1,1,0.7,1.4,2.3c0.8,3.9,2.1,5.2,4.6,4.8C247.8,69,250.6,67.2,253.2,64.3z M238.8,48.1c-1,5-2.4,8.3-3.6,8.4
		c-0.9,0.1-1.6-1.1-1.9-3.3c-0.5-4,0.2-10.9,1.6-15.3c1-2.9,2.5-5.4,3.3-5.5c0.9,0,1.5,1,1.7,2.7C240.3,38.1,239.8,43.4,238.8,48.1z
		"/>
	<path class="st0" d="M52,105.9c-3.2,0.4-5.9,2.2-8.8,5.9c-0.6,0.8-1,1.1-1.4,1.1c-0.7,0.1-1.2-0.6-1.5-2.1
		c-0.5-2.5-1.5-3.5-3.3-3.3c-1.1,0.1-1.9,0.5-5.5,2.6c-7.5,4.3-8.4,5.2-8.2,7.4c0.2,1.7,0.9,2.2,2.9,2.1c2-0.1,2.4,0.6,2.8,4.2
		c0.5,4.7,0.6,8,0.4,16.6c-0.1,5,0,5.1-1.3,6.4c-1.2,1.2-1.4,1.8-1.3,2.9c0.4,3.5,5.8,5.1,14.4,4.1c4.5-0.5,6.8-2,6.6-4.3
		c-0.1-1-0.7-1.7-1.9-2c-1.8-0.5-2.4-1.5-2.7-4.6c-0.1-1.2,0.3-1.9,1.1-2c0.3,0,0.3,0,1.4,0.2c1,0.2,1.7,0.3,2.7,0.2
		c8.5-0.9,15.3-12.2,14.1-23.4C61.4,109.8,57.6,105.3,52,105.9z M47.8,128.1c-0.7,4.3-2,6.8-3.7,7c-0.9,0.1-1.6-0.7-1.7-2
		c-0.3-2.4-0.1-7.6,0.3-10.5c0.6-3.8,1.5-5.6,3.1-5.8c1.3-0.1,2.1,1,2.4,3C48.4,121.8,48.2,125.4,47.8,128.1z"/>
	<path class="st0" d="M88.3,101.6c-2.3,0.3-3.8,1.5-4.8,4c-1.1,2.6-1.3,3.1-1.8,3.1c-0.8,0.1-1.3-0.7-1.8-2.9
		c-0.6-2.2-1.7-3.2-3.6-3c-1.4,0.2-2.4,0.6-6.2,2.9c-5.4,3.1-6.3,4-6,6.2c0.2,2,1.1,2.8,3,2.6c0.1,0,0.3,0,0.5-0.1l0.4,0
		c0.9-0.1,1.4,0.6,1.5,2.2c0.2,2,0.1,7.5-0.3,11.7c-0.4,4.2-0.5,5.8-0.4,6.8c0.3,2.4,1.9,3.4,5.2,3.1c2.3-0.3,6-1.3,7.4-2.1
		c2.5-1.5,3-3.3,2.7-8.4c-0.1-0.6-0.1-2.8-0.2-5.7c-0.1-3.5-0.1-5.2,0-5.9c0.1-1.7,0.5-2.6,1-2.6c0.2,0,0.5,0.2,0.7,0.6
		c2.2,3,2.9,3.5,5.2,3.2c3.7-0.4,5.9-3.9,5.5-8.4C95.9,104.1,92.6,101.2,88.3,101.6z"/>
	<path class="st0" d="M158.3,133.7c-0.5,0.1-0.8,0.3-2.2,1.4c-0.7,0.6-1.2,0.8-1.8,0.9c-1.6,0.2-2.6-0.9-2.9-3.1
		c-0.2-1.8-0.3-4-0.3-8.5c0-7,0.1-5.1,0-5.9c0.1-4.4,0.6-5.3,3.3-5.7c0.2,0,0.7-0.1,1.1,0l0.8-0.1c1.4-0.2,1.8-0.9,1.7-3.6
		c0-3.7,0-3.8,0-3.9c-0.1-1.2-1-2.1-2.1-1.9l-1,0.1c-0.4,0.2-0.7,0.2-1,0.2c-2.1,0.3-2.6,0.1-2.9-1.5c-0.1-0.5-0.1-0.7-0.1-2.8
		l-0.1-3.9c0-0.8-0.1-1.2-0.1-1.7c-0.3-2.3-1.3-3.2-3.6-2.9c-3.1,0.4-6.7,1.7-8.4,3.1c-1.4,1.1-2.2,3.1-2.6,6.8
		c-0.6,4.5-1,5.3-2.9,5.8c-1.6,0.5-2.7,1.4-3.3,2.7c0.4-1.4,0.5-2.9,0.4-4.3c-0.6-5-4.2-7.5-10.1-6.9c-12.9,1.4-23.5,13.5-22.2,25.3
		c0.9,7.7,6.5,11.7,15.4,10.7c8.4-0.9,17.5-7,17-11.3c-0.2-1.7-1.5-2.9-2.9-2.8c-0.5,0.1-1.2,0.4-2.2,1.2c-3.6,2.6-5.2,3.5-7.3,3.7
		c-2,0.2-4.2-1-4.3-2.5c-0.1-0.9,0.4-1.4,1.5-1.6l0.6-0.1c0.4,0,0.6,0,0.6,0c2.9-0.3,6.7-2.4,9.5-5c1.7-1.6,3-3.5,3.7-5.6
		c-0.2,1-0.3,2.1-0.1,3.4c0.3,2,1.2,2.7,3,2.5c2.4-0.3,3,0,3.2,1.5c0,0.2,0.1,0.7,0,0.9c-0.3,9.5-0.2,4.8-0.2,14.6l0,3.6
		c0,2.9,0.1,5.6,0.3,7c0.7,5.7,3.7,8.5,8.4,7.9c3.8-0.5,9.1-3.6,13.1-7.9c2.9-2.9,3.8-4.8,3.4-7.2
		C160.4,134.7,159.4,133.5,158.3,133.7z M116.5,112.4c-0.8,1.7-1.9,2.9-2.7,3c-0.7,0.1-1.2-0.6-1.3-1.5c-0.1-1,0.1-2.7,0.5-4.4
		c0.6-2.7,1.6-4.2,2.8-4.4c1-0.1,1.6,0.7,1.8,2C117.8,108.8,117.4,110.7,116.5,112.4z"/>
	<path class="st0" d="M196.3,128.4c-0.6,0.1-1.4,0.6-2.5,1.7c-4,3.6-5.9,4.8-8.2,5.1c-2.3,0.3-4.9-1.4-5.1-3.3
		c-0.2-1.2,0.4-2,1.6-2.1l0.7-0.1c0.5,0,0.7,0,0.7,0c3.3-0.4,7.6-3.2,10.8-6.8c3.5-4,5.2-9.6,4.6-14.9c-0.9-6.8-5.2-10.2-11.9-9.3
		c-14.7,1.9-26.4,18.3-24.3,34.2c1.4,10.5,8.1,15.9,18.3,14.6c9.6-1.2,19.8-9.4,19-15.2C199.5,129.9,197.9,128.2,196.3,128.4z
		 M178.8,120c-0.2-1.3,0-3.7,0.4-6c0.6-3.7,1.7-5.7,3.1-5.9c1.2-0.1,1.9,0.9,2.2,2.8c0.3,2.2-0.1,4.7-1,7.1c-0.9,2.3-2.1,3.9-3,4
		C179.6,122.1,179,121.2,178.8,120z"/>
	<path class="st0" d="M231.6,92.8c-3.1,0.4-5.8,2.5-8.3,6.6c-0.6,0.9-1,1.4-1.4,1.4c-0.6,0.1-1-0.5-1.2-1.8
		c-0.1-0.5-0.1-1.7-0.2-2.7c-0.1-2.8-0.1-3.4-0.4-10.2l-0.1-1.9c0-1.4-0.1-2.8-0.2-3.4c-0.4-3.1-1.5-4.1-4.3-3.7
		c-2.6,0.3-8.2,2.5-11.7,4.6c-4.3,2.5-5.6,4.3-5.2,7.1c0.4,2.7,1.2,3.5,3.4,3.2c2-0.3,2.5,0.3,2.8,3.3c0.7,5.2,1,13.4,1,22.1
		c0,10,0,12.7,0.3,14.9c0.9,7.3,6.5,11.1,14.9,10c7.7-1,14.4-5.3,17.7-11.3c3.7-6.7,5.6-16.1,4.7-23.6
		C242.1,97.6,237.6,92,231.6,92.8z M227.4,123c-0.4,5.7-1.7,8.9-3.7,9.1c-1,0.1-1.7-0.8-1.9-2.8c-0.3-2.4-0.5-9.6-0.3-12.8
		c0.3-5.4,1.5-8.6,3-8.7c1.5-0.1,2.3,1.4,2.7,4.8C227.6,115.5,227.6,119.4,227.4,123z"/>
	<path class="st0" d="M288.8,119.6c-1.5,0-1.9-0.6-2.3-3.1c-0.5-3.9-0.9-13.6-0.9-20.9c0-2.3,0-4.6-0.2-5.8c-0.3-2.3-1.4-3.3-3.4-3
		c-1.5,0.2-3.4,1.1-4.7,2.1c-3.3,2.7-3.1,2.6-3.9,2.7c-0.5,0.1-1.4-0.3-3.6-1.4c-2.1-1.1-3.5-1.4-5.5-1.1
		c-10.2,1.3-18.7,19.2-16.6,35.1c1.1,8.9,5.5,13.8,11.6,13.1c2.9-0.4,6.1-2.6,8.5-5.9c3-4.2,2.6-3.7,3-3.7c0.7-0.1,1.2,0.7,1.5,2.2
		c0.9,3.8,2.3,5,5.3,4.6c2.7-0.3,6-2.2,9.1-5.1c3-2.8,4.5-5.5,4.2-7.9C290.8,120.3,290,119.6,288.8,119.6z M270.4,113.8
		c-1.3,4.9-3,8.2-4.4,8.4c-1.1,0.1-1.8-1-2.1-3.2c-0.5-3.9,0.5-10.7,2.2-15.1c1.2-2.9,3-5.4,3.9-5.5c1,0,1.7,0.9,1.9,2.6
		C272.2,103.9,271.6,109.1,270.4,113.8z"/>
</g>
</svg>
