<?xml version="1.0" encoding="utf-8"?>
<!-- Generator: Adobe Illustrator 16.0.0, SVG Export Plug-In . SVG Version: 6.00 Build 0)  -->
<!DOCTYPE svg PUBLIC "-//W3C//DTD SVG 1.1//EN" "http://www.w3.org/Graphics/SVG/1.1/DTD/svg11.dtd" [
	<!ENTITY ns_flows "http://ns.adobe.com/Flows/1.0/">
	<!ENTITY ns_extend "http://ns.adobe.com/Extensibility/1.0/">
	<!ENTITY ns_ai "http://ns.adobe.com/AdobeIllustrator/10.0/">
	<!ENTITY ns_graphs "http://ns.adobe.com/Graphs/1.0/">
]>
<svg version="1.1" id="Vrstva_1" xmlns:x="&ns_extend;" xmlns:i="&ns_ai;" xmlns:graph="&ns_graphs;"
	 xmlns="http://www.w3.org/2000/svg" xmlns:xlink="http://www.w3.org/1999/xlink" xmlns:a="http://ns.adobe.com/AdobeSVGViewerExtensions/3.0/"
	 x="0px" y="0px" width="298.6px" height="66.1px" viewBox="0 0 298.6 66.1" style="enable-background:new 0 0 298.6 66.1;"
	 xml:space="preserve">
<style type="text/css">
<![CDATA[
	.st0{fill:black;}
]]>
</style>
<g>
	<path class="st0" d="M76.7,50.4h10V35.9l3-4.9l8,19.4h11.7L97.1,23l12-20.3H96.6l-7.3,15c-0.8,1.7-1.6,3.5-2.4,5.2h-0.1V2.6h-10
		V50.4L76.7,50.4z M112,50.4h10.2V33.2c0-0.9,0.1-1.6,0.1-2.2c0.6-2.8,2.6-4.4,5.6-4.4c1.1,0,1.9,0.1,2.6,0.4V15
		c-0.7-0.2-1.1-0.2-2-0.2c-2.4,0-5.9,1.8-7.4,7.1h-0.2l-0.4-6.3h-8.6c0.2,2.9,0.2,6.2,0.2,11.8V50.4L112,50.4z M144,50.4V15.5h-10.2
		v34.9H144L144,50.4z M139.8,0.4L135,11.4h6.8l6.9-11.1H139.8L139.8,0.4z M148,50.4h24.6V40.3h-12v-0.1c1.7-2.1,3.3-4.4,4.9-6.8
		l6.6-10.1v-7.7h-23.2v10.1h10.9v0.1c-1.7,2.2-3,4-4.7,6.5L148,43.1V50.4L148,50.4z M163.7,11.4l5.7-11.1h-6.4l-2.6,6h-0.1l-2.6-6
		h-6.3l5.7,11.1H163.7L163.7,11.4z M189.4,51.2c7.7,0,14.9-5.9,14.9-18.6c0-10.5-5.7-17.9-14.4-17.9c-9.4,0-15.2,7.4-15.2,18.5
		C174.7,44.6,181.1,51.2,189.4,51.2L189.4,51.2L189.4,51.2z M189.5,42.2c-3.1,0-4.4-4-4.4-9.2c0-4.6,1.1-9.2,4.5-9.2
		c3,0,4.2,4.4,4.2,9.2C193.8,38.6,192.3,42.2,189.5,42.2L189.5,42.2L189.5,42.2z M205.3,15.5l9.8,34.9h10.2l10-34.9h-10.6L222,30.3
		c-0.6,2.9-0.9,5.4-1.2,8.2h-0.2c-0.3-2.8-0.7-5.5-1.3-8.2l-3-14.8H205.3L205.3,15.5z M248.5,0h-10.2v50.4h10.2v-9.9l2-3.4l5.4,13.3
		h12.5l-10.9-20.8l9.5-14h-12.1l-4.5,9.9c-0.6,1.3-1.2,2.7-1.8,4.3h-0.1V0L248.5,0z M268.3,15.5l10.1,31.8c0.3,0.9,0.4,1.4,0.4,1.8
		c0,0.5-0.2,1.1-0.5,1.6c-0.7,1.1-2,2.6-3.3,3.2c-1.2,0.7-2.5,1.1-3.5,1.3l2.1,10.8c2.6-0.4,6-1.6,9.2-5.1c3-3.3,5.7-8.6,9.8-23.3
		l5.9-22.2h-10.8l-2.5,15.7c-0.3,1.8-0.7,4.3-1,6.2H284c-0.3-1.8-0.8-4.3-1.2-6.2l-3.3-15.7H268.3L268.3,15.5z"/>
	<g>
		<path class="st0" d="M71.5,3.7c-0.5-0.6-1.3-1-2.1-1H3c-0.8,0-1.6,0.4-2.1,1C0.3,4.3,0,5.2,0,6.1v32.3c0,0.9,0.3,1.8,0.8,2.4
			s1.3,1,2.1,1h66.4c0.8,0,1.6-0.4,2.1-1c0.5-0.6,0.8-1.5,0.8-2.4V6.1C72.3,5.2,72,4.3,71.5,3.7z M71.8,38.4c0,0.8-0.3,1.6-0.7,2.1
			c-0.5,0.5-1.1,0.9-1.7,0.9H3c-0.7,0-1.3-0.3-1.7-0.9c-0.5-0.5-0.7-1.3-0.7-2.1V6.1c0-0.8,0.3-1.6,0.7-2.1C1.7,3.4,2.3,3.1,3,3.1
			h66.4c0.7,0,1.3,0.3,1.7,0.9c0.5,0.5,0.7,1.3,0.7,2.1V38.4z"/>
		<path class="st0" d="M6.8,26.5c1.2-0.1,2-0.6,3.2-1.8c0.2-0.2,0.3-0.2,0.4-0.3c0.5-0.1,0.5-0.1,0.7-0.4c0.5-0.8,0.8-2.2,0.6-3.3
			c-0.1-0.8-0.5-1.4-1-1.3c-0.3,0-0.5,0.2-0.7,0.5l-0.7,1.4c-0.1,0.1-0.1,0.3-0.2,0.4c-0.4,0.6-0.8,0.9-1.3,1c-1,0.1-1.8-1.1-2.1-3
			c-0.4-3.1,0.3-6,1.5-6.2c0.4,0,0.8,0.2,1.2,0.8c0.8,1.4,0.6,1,0.7,1.2c0.3,0.5,0.7,0.6,1.1,0.6c0.8-0.1,1.3-1.1,1.1-2.5
			c-0.2-1.6-1.3-3.4-2-3.3c-0.1,0-0.2,0.1-0.3,0.2c-0.1,0.1-0.2,0.1-0.3,0.1c-0.1,0-0.2,0-0.4-0.1c-0.4-0.2-1-0.2-1.5-0.2
			c-1.2,0.1-2.5,1.1-3.4,2.4c-1.4,2-2.1,5.4-1.7,8.1C2.1,24.7,4.1,26.9,6.8,26.5z"/>
		<path class="st0" d="M12.2,12.5c0.5,0,0.6,0,0.7,0.7s0.1,1.4,0.1,2.8c0,2.2,0.1,4.3,0,6c0,1.3,0,2,0,2.4c0.1,0.8,0.6,1.2,1.4,1.1
			c0.6-0.1,1.2-0.4,1.6-0.9c0.3-0.4,0.4-0.7,0.3-2.1c0-1.2,0-3,0-3.5c0.1-1,0.4-1.7,0.8-1.8c0.2,0,0.5,0.3,0.6,0.7
			c0,0.2,0,0.5,0,0.7c0,3.6,0,4.2,0,4.8c0.1,1.1,0.6,1.6,1.4,1.5c0.8-0.1,1.6-0.6,2.2-1.4c0.5-0.6,0.7-1.1,0.6-1.7
			c0-0.4-0.2-0.5-0.4-0.5c-0.3,0-0.4-0.1-0.5-0.6c0-0.3,0-0.8,0-2V18v-0.6v-0.6c0-0.6,0-1.2-0.1-1.6c-0.2-1.4-0.9-2.2-2-2.1
			c-0.6,0.1-1.1,0.4-1.9,1.4c-0.2,0.3-0.4,0.5-0.5,0.7c-0.1,0.2-0.2,0.3-0.2,0.3c-0.1,0-0.2-0.1-0.2-0.3c0-0.1,0,0,0-0.5l0-1.8
			c0-0.7,0-1.1,0-1.2c0-0.6,0-1.2,0-1.5c-0.1-0.8-0.4-1-1.1-0.9c-0.7,0.1-1.6,0.5-2.5,1c-0.7,0.5-1,1-0.9,1.7
			C11.7,12.3,11.9,12.5,12.2,12.5z"/>
		<path class="st0" d="M22.6,15.8c0.4,0,0.5,0.1,0.6,0.5c0,0.1,0,0.4,0,0.9v0.7v0.7v0.7c0,0.8,0,1.4,0.1,1.8
			c0.2,1.9,1.6,3.1,3.2,2.9c2.9-0.4,4.6-4.4,4-9.5c-0.2-1.9-0.8-2.7-1.8-2.5c-0.7,0.1-1.2,0.7-1.1,1.5c0,0.3,0.1,0.6,0.5,1.2
			c0.5,0.9,0.7,1.4,0.8,2.2c0.2,2-0.4,3.9-1.4,4.1c-0.5,0.1-0.8-0.4-1-1.2c0-0.2,0-0.8-0.1-1.4c-0.1-2.8-0.1-1.9-0.1-2.7
			c0-1.7,0-1.6-0.1-2c-0.1-0.8-0.5-1.2-1.2-1.1c-0.8,0.1-1.7,0.6-2.5,1.3c-0.5,0.4-0.7,0.9-0.6,1.6C22.1,15.7,22.2,15.8,22.6,15.8z"
			/>
		<path class="st0" d="M31.7,15c0.3,0,0.4,0,0.4,0.3c0,0.1,0,0.2,0,1l0.1,4.3c0,0.8,0,0.6,0,0.8c0.1,0.9,0.8,1.5,1.5,1.4
			c1.5-0.2,3-1.9,2.8-3.1c0-0.4-0.2-0.5-0.5-0.5l-0.1,0c0,0-0.1,0-0.1,0c-0.2,0-0.4-0.1-0.4-0.4c0-0.1,0-0.2,0-0.3
			c0,0.4,0,0.5,0-0.4v-0.2l0-2.3c0-1.7-0.1-3.2-0.1-3.6c-0.1-0.7-0.4-1-0.8-1c-0.8,0.1-2.1,0.8-3,1.7c-0.4,0.4-0.6,0.9-0.5,1.4
			C31.2,14.8,31.4,15,31.7,15z"/>
		<path class="st0" d="M32.9,10.3c0.5-0.1,1.4-0.6,1.9-1.3c0.6-0.7,1-1.6,0.9-2.3c0-0.7-0.7-1-1.5-0.9C33.3,6,32.5,6.5,32.6,7
			c0,0.1,0,0.2,0.1,0.2c0.1,0.3,0.1,0.2,0.1,0.3c0,0.2,0,0.4-0.2,0.7c-0.4,0.8-0.5,0.9-0.4,1.3C32.2,10,32.5,10.3,32.9,10.3z"/>
		<path class="st0" d="M42.1,20.5c0.3-0.5,0.4-1,0.4-1.5c0-0.4-0.2-0.6-0.4-0.6c-0.1,0-0.1,0-0.2,0.1c-0.1,0-0.1,0-0.1,0
			c-0.2,0-0.4-0.3-0.4-0.7c0-0.3-0.1-0.9-0.1-1.8c0-0.8,0-1.4-0.1-1.8l-0.2-4.2c0.3-0.1,0.5-0.4,0.8-1.1c0.4-1,0.5-2.1,0.4-3
			c-0.1-0.9-0.7-1.5-1.3-1.4C40,4.4,39.5,5.2,39.6,6c-0.7,0.1-1.4,0.4-2.4,1c-0.9,0.6-1.2,1.1-1.1,1.9c0,0.4,0.3,0.7,0.6,0.6
			c0,0,0.1,0,0.2,0l0.2,0c0.2,0,0.3,0.1,0.3,0.5c0,0.1,0,0.3,0,0.5c0,0.2,0-0.2,0,1.1V12l0.1,3.9c0.1,1.5,0.1,2.6,0.1,2.9
			c0,0.8,0,1.5,0.1,1.9c0.1,1.2,0.6,1.7,1.5,1.6C40.3,22.1,41.5,21.3,42.1,20.5z"/>
		<path class="st0" d="M42.8,8.5c0,0,0.1,0,0.2-0.1c0,0,0.1,0,0.2,0c0.3,0,0.4,0.2,0.5,0.9c0,0.4,0.1,1.2,0.1,2
			c0.1,1.6,0.1,3.5,0.1,6.1V18v0.6v0.6c0,0.4,0,0.8,0,1c0.1,0.8,0.4,1.1,1.1,1.1c0.6-0.1,1.3-0.4,1.7-0.7c0.4-0.3,0.6-0.8,0.5-1.5
			c-0.1-1.4-0.1-1.3,0-1.6c0-0.1,0.1-0.2,0.2-0.2c0.1,0,0.3,0.3,0.7,1.1c0.8,2.1,0.6,1.5,0.7,1.7c0.3,0.5,0.6,0.7,1,0.7
			c1.3-0.2,2.7-1.6,2.6-2.7c0-0.3-0.2-0.5-0.5-0.6c-0.3-0.1-0.4-0.3-0.9-1.2c-0.3-0.5-0.4-0.7-0.6-0.9c-0.1-0.1-0.1-0.1-0.1-0.2
			c0-0.1,0.1-0.3,0.2-0.4c1.1-1,1.5-1.9,1.3-3.5c-0.2-1.6-1-2.4-2.2-2.3c-0.7,0.1-1.3,0.5-1.9,1.3c-0.6,0.8-0.5,0.7-0.6,0.7
			c-0.1,0-0.2-0.1-0.2-0.3c0,0,0,0,0-0.8l-0.1-3c0-0.4,0-0.9-0.1-1.1c-0.1-0.6-0.3-0.8-0.8-0.7C45.2,5,44.1,5.5,43.4,6
			c-0.8,0.5-1,1.1-0.9,1.9C42.6,8.3,42.7,8.5,42.8,8.5z M47.2,15c0-0.6,0.1-1,0.2-1.3c0.2-0.7,0.6-1.3,0.8-1.3
			c0.2,0,0.4,0.2,0.5,0.6c0.1,0.8-0.3,1.7-0.9,2.3c-0.3,0.2-0.2,0.2-0.2,0.2c-0.1,0.1-0.1,0.1-0.1,0.1c-0.1,0-0.2-0.2-0.2-0.3
			C47.2,15.2,47.2,15.1,47.2,15z"/>
		<path class="st0" d="M61.4,18.2c0.6-0.7,0.9-1.3,0.8-1.9c0-0.3-0.2-0.5-0.5-0.5c-0.3,0-0.4-0.2-0.5-0.8c-0.1-1-0.2-3.3-0.3-5.2
			c0-0.6,0-1.1-0.1-1.4c-0.1-0.6-0.3-0.8-0.7-0.8c-0.3,0-0.7,0.2-1,0.5c-0.7,0.7-0.6,0.6-0.8,0.6c-0.1,0-0.3-0.1-0.8-0.4
			c-0.4-0.3-0.8-0.4-1.2-0.3c-2.1,0.3-3.8,4.6-3.3,8.5c0.3,2.2,1.2,3.4,2.5,3.3c0.6-0.1,1.3-0.6,1.7-1.4c0.6-1,0.5-0.9,0.6-0.9
			c0.1,0,0.2,0.2,0.3,0.6c0.2,0.9,0.5,1.3,1.1,1.2C60.1,19.4,60.8,18.9,61.4,18.2z M57.9,14.3c-0.2,1.2-0.6,2-0.9,2
			c-0.2,0-0.4-0.3-0.5-0.8c-0.1-1,0-2.6,0.4-3.7c0.2-0.7,0.6-1.3,0.8-1.3c0.2,0,0.4,0.2,0.4,0.7C58.3,11.9,58.1,13.2,57.9,14.3z"/>
		<path class="st0" d="M12.6,28.3c-0.8,0.1-1.4,0.5-2.1,1.4c-0.1,0.2-0.2,0.3-0.3,0.3c-0.2,0-0.3-0.1-0.4-0.5
			c-0.1-0.6-0.4-0.8-0.8-0.8c-0.3,0-0.5,0.1-1.3,0.6c-1.8,1-2,1.3-2,1.8c0,0.4,0.2,0.5,0.7,0.5s0.6,0.1,0.7,1c0.1,1.1,0.1,1.9,0.1,4
			c0,1.2,0,1.2-0.3,1.6c-0.3,0.3-0.3,0.4-0.3,0.7c0.1,0.8,1.4,1.2,3.5,1c1.1-0.1,1.6-0.5,1.6-1c0-0.2-0.2-0.4-0.5-0.5
			c-0.4-0.1-0.6-0.4-0.7-1.1c0-0.3,0.1-0.5,0.3-0.5c0.1,0,0.1,0,0.3,0c0.2,0,0.4,0.1,0.7,0c2.1-0.2,3.7-3,3.4-5.7
			C14.9,29.3,14,28.2,12.6,28.3z M11.6,33.7c-0.2,1-0.5,1.6-0.9,1.7c-0.2,0-0.4-0.2-0.4-0.5c-0.1-0.6,0-1.8,0.1-2.5
			c0.1-0.9,0.4-1.4,0.8-1.4c0.3,0,0.5,0.2,0.6,0.7C11.7,32.2,11.7,33,11.6,33.7z"/>
		<path class="st0" d="M21.4,27.3c-0.6,0.1-0.9,0.4-1.2,1C20,28.9,19.9,29,19.8,29c-0.2,0-0.3-0.2-0.4-0.7c-0.1-0.5-0.4-0.8-0.9-0.7
			c-0.3,0-0.6,0.1-1.5,0.7c-1.3,0.8-1.5,1-1.5,1.5c0,0.5,0.3,0.7,0.7,0.6c0,0,0.1,0,0.1,0h0.1c0.2,0,0.3,0.1,0.4,0.5
			c0,0.5,0,1.8-0.1,2.8c-0.1,1-0.1,1.4-0.1,1.6c0.1,0.6,0.5,0.8,1.3,0.8c0.6-0.1,1.5-0.3,1.8-0.5c0.6-0.4,0.7-0.8,0.7-2
			c0-0.1,0-0.7,0-1.4c0-0.8,0-1.3,0-1.4c0-0.4,0.1-0.6,0.2-0.6c0,0,0.1,0,0.2,0.1c0.5,0.7,0.7,0.8,1.3,0.8c0.9-0.1,1.4-0.9,1.3-2
			C23.3,27.9,22.5,27.2,21.4,27.3z"/>
		<path class="st0" d="M38.4,35.1c-0.1,0-0.2,0.1-0.5,0.3c-0.2,0.1-0.3,0.2-0.4,0.2c-0.4,0-0.6-0.2-0.7-0.8c0-0.4-0.1-1-0.1-2.1
			c0-1.7,0-1.2,0-1.4c0-1.1,0.1-1.3,0.8-1.4c0,0,0.2,0,0.3,0l0.2,0c0.3,0,0.4-0.2,0.4-0.9c0-0.9,0-0.9,0-0.9c0-0.3-0.2-0.5-0.5-0.5
			l-0.2,0c-0.1,0-0.2,0-0.2,0c-0.5,0.1-0.6,0-0.7-0.4c0-0.1,0-0.2,0-0.7l0-0.9c0-0.2,0-0.3,0-0.4c-0.1-0.6-0.3-0.8-0.9-0.7
			c-0.8,0.1-1.6,0.4-2,0.8c-0.3,0.3-0.5,0.8-0.6,1.6c-0.1,1.1-0.2,1.3-0.7,1.4c-0.4,0.1-0.7,0.3-0.8,0.7c0.1-0.3,0.1-0.7,0.1-1
			c-0.1-1.2-1-1.8-2.4-1.7c-3.1,0.3-5.7,3.3-5.4,6.1c0.2,1.9,1.6,2.8,3.7,2.6c2-0.2,4.2-1.7,4.1-2.7c0-0.4-0.4-0.7-0.7-0.7
			c-0.1,0-0.3,0.1-0.5,0.3c-0.9,0.6-1.3,0.8-1.8,0.9c-0.5,0-1-0.2-1-0.6c0-0.2,0.1-0.3,0.4-0.4l0.1,0c0.1,0,0.1,0,0.1,0
			c0.7-0.1,1.6-0.6,2.3-1.2c0.4-0.4,0.7-0.8,0.9-1.4c0,0.2-0.1,0.5,0,0.8c0.1,0.5,0.3,0.7,0.7,0.6c0.6-0.1,0.7,0,0.8,0.4
			c0,0,0,0.2,0,0.2c-0.1,2.3,0,1.2,0,3.5v0.9c0,0.7,0,1.4,0.1,1.7c0.2,1.4,0.9,2.1,2,1.9c0.9-0.1,2.2-0.9,3.2-1.9
			c0.7-0.7,0.9-1.2,0.8-1.7C38.9,35.3,38.7,35,38.4,35.1z M28.2,29.9c-0.2,0.4-0.5,0.7-0.7,0.7c-0.2,0-0.3-0.1-0.3-0.4
			c0-0.2,0-0.7,0.1-1.1c0.1-0.7,0.4-1,0.7-1.1c0.2,0,0.4,0.2,0.4,0.5C28.6,29,28.5,29.5,28.2,29.9z"/>
		<path class="st0" d="M47.6,33.8c-0.1,0-0.3,0.1-0.6,0.4c-1,0.9-1.4,1.2-2,1.2c-0.6,0.1-1.2-0.3-1.2-0.8c0-0.3,0.1-0.5,0.4-0.5
			l0.2,0c0.1,0,0.2,0,0.2,0c0.8-0.1,1.8-0.8,2.6-1.6c0.8-1,1.3-2.3,1.1-3.6c-0.2-1.6-1.3-2.5-2.9-2.3c-3.6,0.5-6.4,4.4-5.9,8.3
			c0.3,2.5,2,3.9,4.4,3.5c2.3-0.3,4.8-2.3,4.6-3.7C48.4,34.1,48,33.7,47.6,33.8z M43.4,31.7c0-0.3,0-0.9,0.1-1.5
			c0.1-0.9,0.4-1.4,0.8-1.4c0.3,0,0.5,0.2,0.5,0.7c0.1,0.5,0,1.1-0.2,1.7c-0.2,0.6-0.5,0.9-0.7,1C43.5,32.2,43.4,32,43.4,31.7z"/>
		<path class="st0" d="M56.2,25.1c-0.8,0.1-1.4,0.6-2,1.6c-0.1,0.2-0.2,0.3-0.3,0.3c-0.1,0-0.2-0.1-0.3-0.4c0-0.1,0-0.4,0-0.7
			c0-0.7,0-0.8-0.1-2.5l0-0.5c0-0.3,0-0.7,0-0.8c-0.1-0.8-0.4-1-1-0.9c-0.6,0.1-2,0.6-2.8,1.1c-1,0.6-1.4,1-1.3,1.7
			c0.1,0.7,0.3,0.8,0.8,0.8c0.5-0.1,0.6,0.1,0.7,0.8c0.2,1.3,0.2,3.2,0.2,5.4c0,2.4,0,3.1,0.1,3.6c0.2,1.8,1.6,2.7,3.6,2.4
			c1.9-0.2,3.5-1.3,4.3-2.7c0.9-1.6,1.4-3.9,1.1-5.7C58.7,26.3,57.6,24.9,56.2,25.1z M55.1,32.5c-0.1,1.4-0.4,2.2-0.9,2.2
			c-0.2,0-0.4-0.2-0.5-0.7c-0.1-0.6-0.1-2.3-0.1-3.1c0.1-1.3,0.4-2.1,0.7-2.1c0.4,0,0.6,0.3,0.7,1.2C55.2,30.6,55.2,31.6,55.1,32.5z
			"/>
		<path class="st0" d="M70,31.6c-0.4,0-0.5-0.1-0.6-0.8c-0.1-0.9-0.2-3.3-0.2-5.1c0-0.6,0-1.1,0-1.4c-0.1-0.6-0.3-0.8-0.8-0.7
			c-0.4,0-0.8,0.3-1.1,0.5c-0.8,0.7-0.8,0.6-0.9,0.7c-0.1,0-0.3-0.1-0.9-0.3c-0.5-0.3-0.8-0.3-1.3-0.3c-2.5,0.3-4.5,4.7-4,8.5
			c0.3,2.2,1.3,3.3,2.8,3.2c0.7-0.1,1.5-0.6,2.1-1.4c0.7-1,0.6-0.9,0.7-0.9c0.2,0,0.3,0.2,0.4,0.5c0.2,0.9,0.6,1.2,1.3,1.1
			c0.7-0.1,1.5-0.5,2.2-1.2c0.7-0.7,1.1-1.3,1-1.9C70.5,31.8,70.3,31.6,70,31.6z M65.6,30.2c-0.3,1.2-0.7,2-1.1,2
			c-0.3,0-0.4-0.2-0.5-0.8c-0.1-0.9,0.1-2.6,0.5-3.7c0.3-0.7,0.7-1.3,0.9-1.3c0.2,0,0.4,0.2,0.5,0.6C66,27.8,65.9,29.1,65.6,30.2z"
			/>
	</g>
</g>
</svg>
