<?xml version="1.0" encoding="utf-8"?>
<!-- Generator: Adobe Illustrator 16.0.0, SVG Export Plug-In . SVG Version: 6.00 Build 0)  -->
<!DOCTYPE svg PUBLIC "-//W3C//DTD SVG 1.1//EN" "http://www.w3.org/Graphics/SVG/1.1/DTD/svg11.dtd" [
	<!ENTITY ns_flows "http://ns.adobe.com/Flows/1.0/">
	<!ENTITY ns_extend "http://ns.adobe.com/Extensibility/1.0/">
	<!ENTITY ns_ai "http://ns.adobe.com/AdobeIllustrator/10.0/">
	<!ENTITY ns_graphs "http://ns.adobe.com/Graphs/1.0/">
]>
<svg version="1.1" id="Vrstva_1" xmlns:x="&ns_extend;" xmlns:i="&ns_ai;" xmlns:graph="&ns_graphs;"
	 xmlns="http://www.w3.org/2000/svg" xmlns:xlink="http://www.w3.org/1999/xlink" xmlns:a="http://ns.adobe.com/AdobeSVGViewerExtensions/3.0/"
	 x="0px" y="0px" width="296.1px" height="95.5px" viewBox="0 0 296.1 95.5" style="enable-background:new 0 0 296.1 95.5;"
	 xml:space="preserve">
<style type="text/css">
<![CDATA[
	.st0{fill:#FFFDFD;}
]]>
</style>
<g>
	<path class="st0" d="M45.7,88.6c-1-0.4-1.4-0.7-1.4-1.2c0-0.4,0.4-0.9,1.2-0.9c0.7,0,1.2,0.2,1.5,0.4l0.3-1.1
		c-0.4-0.2-1-0.4-1.8-0.4c-1.6,0-2.7,0.9-2.7,2.2c0,1.1,0.8,1.8,2.1,2.2c1,0.3,1.3,0.7,1.3,1.3c0,0.6-0.5,1-1.4,1
		c-0.7,0-1.4-0.2-1.8-0.5l-0.3,1.1c0.4,0.3,1.2,0.5,2.1,0.5c1.9,0,2.9-1.1,2.9-2.3C47.6,89.8,47,89.1,45.7,88.6z"/>
	<path class="st0" d="M53.4,87.6h-1.7l-1.3,1.8c-0.1,0.2-0.3,0.4-0.4,0.6h0v-4.9h-1.4v8h1.4v-1.9l0.5-0.5l1.6,2.4h1.7l-2.3-3.2
		L53.4,87.6z"/>
	<path class="st0" d="M58.9,87.6h-1.4v3.3c0,0.2,0,0.3-0.1,0.4C57.3,91.7,57,92,56.4,92c-0.7,0-1-0.6-1-1.5v-3H54v3.2
		c0,1.8,0.9,2.4,1.9,2.4s1.5-0.6,1.8-0.9h0l0.1,0.8h1.2c0-0.4,0-1,0-1.6V87.6z"/>
	<path class="st0" d="M61.7,86.2l-1.4,0.4v1h-0.8v1h0.8v2.6c0,0.7,0.1,1.2,0.4,1.5c0.3,0.3,0.7,0.4,1.2,0.4c0.4,0,0.8-0.1,1-0.1l0-1
		c-0.2,0-0.3,0.1-0.5,0.1c-0.5,0-0.7-0.3-0.7-1v-2.4H63v-1h-1.3V86.2z"/>
	<path class="st0" d="M66.2,87.4c-1.6,0-2.8,1.1-2.8,2.9c0,1.8,1.2,2.8,2.7,2.8c1.4,0,2.8-0.9,2.8-2.9
		C68.9,88.6,67.8,87.4,66.2,87.4z M66.2,92.2c-0.8,0-1.4-0.8-1.4-1.9c0-0.9,0.4-1.9,1.4-1.9c0.9,0,1.3,1,1.3,1.8
		C67.5,91.4,67,92.2,66.2,92.2z"/>
	<path class="st0" d="M72.6,88.5c0.5,0,0.8,0.1,1,0.2l0.2-1c-0.3-0.1-0.8-0.2-1.3-0.2c-1.9,0-3,1.3-3,2.9c0,1.7,1.1,2.8,2.8,2.8
		c0.7,0,1.3-0.1,1.5-0.3l-0.2-1c-0.3,0.1-0.6,0.2-1.1,0.2c-0.9,0-1.7-0.6-1.7-1.8C70.9,89.3,71.6,88.5,72.6,88.5z"/>
	<polygon class="st0" points="73.7,85.2 72.7,85.2 72.1,86.2 72.1,86.2 71.5,85.2 70.5,85.2 71.6,86.9 72.6,86.9 	"/>
	<path class="st0" d="M77.7,87.4c-0.9,0-1.5,0.5-1.8,0.9h0l-0.1-0.8h-1.2c0,0.5,0,1,0,1.6V93H76v-3.2c0-0.2,0-0.3,0.1-0.4
		c0.1-0.4,0.5-0.8,1.1-0.8c0.8,0,1,0.6,1,1.4V93h1.4v-3.2C79.6,88.1,78.6,87.4,77.7,87.4z"/>
	<path class="st0" d="M83.2,87.4c-1.7,0-2.7,1.4-2.7,2.9c0,1.7,1,2.8,2.8,2.8c0.8,0,1.4-0.1,1.9-0.3L85,91.9
		c-0.4,0.1-0.9,0.2-1.5,0.2c-0.9,0-1.6-0.4-1.7-1.4h3.7c0-0.1,0-0.3,0-0.6C85.5,88.9,84.9,87.4,83.2,87.4z M81.8,89.7
		c0.1-0.6,0.4-1.3,1.3-1.3c0.9,0,1.1,0.8,1.1,1.3H81.8z"/>
	<polygon class="st0" points="84.8,85.2 83.5,85.2 82.5,86.9 83.5,86.9 	"/>
	<path class="st0" d="M90.5,87.4c-1.6,0-2.8,1.1-2.8,2.9c0,1.8,1.2,2.8,2.7,2.8c1.4,0,2.8-0.9,2.8-2.9
		C93.2,88.6,92.1,87.4,90.5,87.4z M90.5,92.2c-0.8,0-1.4-0.8-1.4-1.9c0-0.9,0.4-1.9,1.4-1.9c0.9,0,1.3,1,1.3,1.8
		C91.8,91.4,91.3,92.2,90.5,92.2z"/>
	<path class="st0" d="M96.2,89.8c-0.7-0.3-1-0.4-1-0.8c0-0.3,0.3-0.6,0.8-0.6c0.5,0,0.9,0.2,1.2,0.3l0.3-1c-0.3-0.2-0.9-0.3-1.5-0.3
		c-1.3,0-2.1,0.7-2.1,1.7c0,0.7,0.4,1.2,1.5,1.6c0.7,0.2,0.9,0.4,0.9,0.8c0,0.4-0.3,0.6-0.9,0.6c-0.5,0-1.1-0.2-1.4-0.4l-0.3,1
		c0.4,0.2,1,0.4,1.7,0.4c1.4,0,2.2-0.7,2.2-1.7C97.6,90.6,97.2,90.1,96.2,89.8z"/>
	<path class="st0" d="M103.3,87.6h-1.4v3.3c0,0.2,0,0.3-0.1,0.4c-0.1,0.4-0.5,0.7-1.1,0.7c-0.7,0-1-0.6-1-1.5v-3h-1.4v3.2
		c0,1.8,0.9,2.4,1.9,2.4c1,0,1.5-0.6,1.8-0.9h0l0.1,0.8h1.2c0-0.4,0-1,0-1.6V87.6z"/>
	<path class="st0" d="M109.6,85.1h-1.4v3.1h0c-0.2-0.4-0.8-0.7-1.5-0.7c-1.3,0-2.5,1.1-2.4,2.9c0,1.7,1,2.8,2.3,2.8
		c0.8,0,1.4-0.4,1.8-1h0l0.1,0.9h1.2c0-0.4,0-1,0-1.5V85.1z M108.2,90.7c0,0.1,0,0.3,0,0.4c-0.1,0.6-0.6,1-1.2,1
		c-0.9,0-1.4-0.7-1.4-1.7c0-1,0.5-1.8,1.4-1.8c0.6,0,1.1,0.4,1.2,1c0,0.1,0,0.3,0,0.4V90.7z"/>
	<path class="st0" d="M113.4,90.5c-0.1,0.3-0.2,0.8-0.3,1.1h0c-0.1-0.3-0.2-0.7-0.3-1.1l-1-2.9h-1.5l2,5c0.1,0.1,0.1,0.2,0.1,0.3
		c0,0.1,0,0.1-0.1,0.2c-0.2,0.4-0.5,0.7-0.8,0.9c-0.3,0.2-0.6,0.3-0.8,0.4l0.3,1.2c0.3,0,0.9-0.2,1.4-0.7c0.6-0.6,1.1-1.5,1.9-3.5
		l1.4-3.7h-1.5L113.4,90.5z"/>
	<rect x="117.5" y="89.7" class="st0" width="4.9" height="0.9"/>
	<path class="st0" d="M127.1,85.4c-0.9,0-1.6,0.1-2.1,0.2V93h1.4v-2.9c0.2,0,0.4,0.1,0.7,0.1c1,0,1.8-0.3,2.4-0.8
		c0.4-0.4,0.6-1,0.6-1.7c0-0.7-0.3-1.3-0.7-1.7C128.8,85.6,128.1,85.4,127.1,85.4z M127,89.1c-0.3,0-0.5,0-0.7-0.1v-2.5
		c0.1,0,0.4-0.1,0.8-0.1c1,0,1.5,0.4,1.5,1.3C128.7,88.6,128,89.1,127,89.1z"/>
	<path class="st0" d="M132.1,88.6L132.1,88.6l-0.1-1h-1.2c0,0.5,0,1,0,1.8V93h1.4v-2.8c0-0.1,0-0.3,0-0.4c0.1-0.6,0.6-1,1.2-1
		c0.2,0,0.3,0,0.4,0v-1.3c-0.1,0-0.2,0-0.3,0C133,87.4,132.3,87.8,132.1,88.6z"/>
	<polygon class="st0" points="134.6,86.9 135.6,86.9 136.9,85.2 135.6,85.2 	"/>
	<rect x="134.6" y="87.6" class="st0" width="1.4" height="5.5"/>
	<path class="st0" d="M140.5,87.4c-0.8,0-1.4,0.3-1.7,0.9h0v-3.3h-1.4v6.4c0,0.6,0,1.2,0,1.5h1.2l0.1-0.8h0c0.4,0.7,1,0.9,1.7,0.9
		c1.2,0,2.5-1,2.5-2.9C142.8,88.6,141.9,87.4,140.5,87.4z M140,92.1c-0.6,0-1.1-0.4-1.2-1c0-0.1,0-0.2,0-0.3v-0.9c0-0.1,0-0.3,0-0.4
		c0.1-0.6,0.7-1,1.2-1c0.9,0,1.4,0.8,1.4,1.8C141.4,91.4,140.9,92.1,140,92.1z"/>
	<path class="st0" d="M146.1,87.4c-1.8,0-2.7,1.4-2.7,2.9c0,1.7,1,2.8,2.8,2.8c0.8,0,1.4-0.1,1.9-0.3l-0.2-0.9
		c-0.4,0.1-0.9,0.2-1.5,0.2c-0.9,0-1.6-0.4-1.7-1.4h3.7c0-0.1,0-0.3,0-0.6C148.4,88.9,147.9,87.4,146.1,87.4z M144.7,89.7
		c0.1-0.6,0.4-1.3,1.3-1.3c0.9,0,1.1,0.8,1.1,1.3H144.7z"/>
	<path class="st0" d="M152.4,87.4c-0.3,0-0.7,0.1-1,0.2c-0.3,0.1-0.5,0.4-0.7,0.6h0v-3.2h-1.4v8h1.4v-3.3c0-0.1,0-0.3,0.1-0.4
		c0.2-0.4,0.5-0.8,1.1-0.8c0.8,0,1.1,0.6,1.1,1.4V93h1.4v-3.2C154.3,88.1,153.3,87.4,152.4,87.4z"/>
	<path class="st0" d="M157.8,90.5c-0.1,0.3-0.2,0.8-0.3,1.1h0c-0.1-0.3-0.2-0.7-0.3-1.1l-1-2.9h-1.5l2,5c0.1,0.1,0.1,0.2,0.1,0.3
		c0,0.1,0,0.1-0.1,0.2c-0.2,0.4-0.5,0.7-0.8,0.9c-0.3,0.2-0.6,0.3-0.8,0.4l0.3,1.2c0.3,0,0.9-0.2,1.4-0.7c0.6-0.6,1.1-1.5,1.9-3.5
		l1.4-3.7h-1.5L157.8,90.5z"/>
	<path class="st0" d="M165.4,87.4c-0.8,0-1.5,0.3-1.9,1h0l-0.1-0.8h-1.2c0,0.5,0,1.1,0,1.8v5.9h1.4v-2.8h0c0.3,0.4,0.9,0.7,1.5,0.7
		c1.2,0,2.5-1,2.5-2.9C167.7,88.5,166.7,87.4,165.4,87.4z M164.9,92.1c-0.6,0-1.1-0.4-1.2-1c0-0.1,0-0.2,0-0.4v-0.8
		c0-0.1,0-0.2,0-0.3c0.1-0.6,0.7-1,1.2-1c0.9,0,1.4,0.8,1.4,1.8C166.3,91.4,165.8,92.1,164.9,92.1z"/>
	<rect x="168.7" y="85.1" class="st0" width="1.4" height="8"/>
	<path class="st0" d="M174.3,87.4c-0.9,0-1.5,0.5-1.8,0.9h0l-0.1-0.8h-1.2c0,0.5,0,1,0,1.6V93h1.4v-3.2c0-0.2,0-0.3,0.1-0.4
		c0.1-0.4,0.5-0.8,1.1-0.8c0.8,0,1,0.6,1,1.4V93h1.4v-3.2C176.2,88.1,175.2,87.4,174.3,87.4z"/>
	<polygon class="st0" points="181.4,85.2 180.1,85.2 179.1,86.9 180.1,86.9 	"/>
	<path class="st0" d="M179.8,87.4c-1.8,0-2.7,1.4-2.7,2.9c0,1.7,1,2.8,2.8,2.8c0.8,0,1.4-0.1,1.9-0.3l-0.2-0.9
		c-0.4,0.1-0.9,0.2-1.5,0.2c-0.9,0-1.6-0.4-1.7-1.4h3.7c0-0.1,0-0.3,0-0.6C182.1,88.9,181.5,87.4,179.8,87.4z M178.4,89.7
		c0.1-0.6,0.4-1.3,1.3-1.3c0.9,0,1.1,0.8,1.1,1.3H178.4z"/>
	<rect x="184.7" y="85.1" class="st0" width="1.4" height="8"/>
	<polygon class="st0" points="191,85.2 189.7,85.2 188.7,86.9 189.7,86.9 	"/>
	<path class="st0" d="M191.5,89.8c0-1.2-0.5-2.3-2.3-2.3c-0.9,0-1.6,0.2-2,0.5l0.3,0.9c0.4-0.2,0.9-0.4,1.5-0.4c1,0,1.1,0.6,1.1,1
		v0.1c-2,0-3.2,0.7-3.2,2.1c0,0.8,0.6,1.6,1.7,1.6c0.7,0,1.3-0.3,1.6-0.7h0l0.1,0.6h1.2c-0.1-0.3-0.1-0.8-0.1-1.3V89.8z M190.2,91.1
		c0,0.1,0,0.2,0,0.3c-0.1,0.4-0.5,0.8-1.1,0.8c-0.4,0-0.8-0.2-0.8-0.8c0-0.8,0.9-1,1.9-1V91.1z"/>
	<path class="st0" d="M194.8,89.8c-0.7-0.3-1-0.4-1-0.8c0-0.3,0.3-0.6,0.8-0.6c0.5,0,0.9,0.2,1.2,0.3l0.3-1
		c-0.3-0.2-0.9-0.3-1.5-0.3c-1.3,0-2.1,0.7-2.1,1.7c0,0.7,0.4,1.2,1.5,1.6c0.7,0.2,0.9,0.4,0.9,0.8c0,0.4-0.3,0.6-0.9,0.6
		c-0.5,0-1.1-0.2-1.4-0.4l-0.3,1c0.4,0.2,1,0.4,1.7,0.4c1.4,0,2.2-0.7,2.2-1.7C196.2,90.6,195.8,90.1,194.8,89.8z"/>
	<path class="st0" d="M201.9,87.6h-1.7l-1.3,1.8c-0.1,0.2-0.3,0.4-0.4,0.6h0v-4.9h-1.4v8h1.4v-1.9l0.5-0.5l1.6,2.4h1.7l-2.3-3.2
		L201.9,87.6z"/>
	<path class="st0" d="M206.3,87.6l-0.9,2.9c-0.1,0.3-0.2,0.8-0.3,1.1h0c-0.1-0.3-0.2-0.7-0.3-1.1l-1-2.9h-1.5l2,5
		c0.1,0.1,0.1,0.2,0.1,0.3c0,0.1,0,0.1-0.1,0.2c-0.2,0.4-0.5,0.7-0.8,0.9c-0.3,0.2-0.6,0.3-0.8,0.4l0.3,1.2c0.3,0,0.9-0.2,1.4-0.7
		c0.6-0.6,1.1-1.5,1.9-3.5l1.4-3.7H206.3z"/>
	<path class="st0" d="M207.1,94.4l0.9-0.1c0.4-0.7,0.9-1.9,1.3-3l-1.4,0.1C207.7,92.4,207.4,93.5,207.1,94.4z"/>
	<path class="st0" d="M213.4,86.2l-1.4,0.4v1h-0.8v1h0.8v2.6c0,0.7,0.1,1.2,0.4,1.5c0.3,0.3,0.7,0.4,1.2,0.4c0.4,0,0.8-0.1,1-0.1
		l0-1c-0.2,0-0.3,0.1-0.5,0.1c-0.5,0-0.7-0.3-0.7-1v-2.4h1.3v-1h-1.3V86.2z"/>
	<path class="st0" d="M220.4,87.6H219v3.3c0,0.2,0,0.3-0.1,0.4c-0.1,0.4-0.5,0.7-1.1,0.7c-0.7,0-1-0.6-1-1.5v-3h-1.4v3.2
		c0,1.8,0.9,2.4,1.9,2.4c1,0,1.5-0.6,1.8-0.9h0l0.1,0.8h1.2c0-0.4,0-1,0-1.6V87.6z"/>
	<polygon class="st0" points="217.3,86.9 218.3,86.9 219.6,85.2 218.3,85.2 	"/>
	<polygon class="st0" points="223.5,86.2 222.9,85.2 221.9,85.2 223,86.9 224,86.9 225.1,85.2 224.1,85.2 223.5,86.2 	"/>
	<path class="st0" d="M222.8,91.9c0.3-0.3,0.5-0.6,0.8-0.9l2-2.6v-0.8h-4.3v1.1h2.6v0c-0.3,0.3-0.5,0.6-0.8,0.9l-2.1,2.6V93h4.6
		v-1.1L222.8,91.9L222.8,91.9z"/>
	<path class="st0" d="M229.6,87.4c-0.8,0-1.4,0.3-1.7,0.9h0v-3.3h-1.4v6.4c0,0.6,0,1.2,0,1.5h1.2l0.1-0.8h0c0.4,0.7,1,0.9,1.7,0.9
		c1.2,0,2.5-1,2.5-2.9C231.9,88.6,231,87.4,229.6,87.4z M229.1,92.1c-0.6,0-1.1-0.4-1.2-1c0-0.1,0-0.2,0-0.3v-0.9c0-0.1,0-0.3,0-0.4
		c0.1-0.6,0.7-1,1.2-1c0.9,0,1.4,0.8,1.4,1.8C230.5,91.4,230,92.1,229.1,92.1z"/>
	<path class="st0" d="M235.2,90.5c-0.1,0.3-0.2,0.8-0.3,1.1h0c-0.1-0.3-0.2-0.7-0.3-1.1l-1-2.9H232l2,5c0.1,0.1,0.1,0.2,0.1,0.3
		c0,0.1,0,0.1-0.1,0.2c-0.2,0.4-0.5,0.7-0.8,0.9c-0.3,0.2-0.6,0.3-0.8,0.4l0.3,1.2c0.3,0,0.9-0.2,1.4-0.7c0.6-0.6,1.1-1.5,1.9-3.5
		l1.4-3.7H236L235.2,90.5z"/>
	<path class="st0" d="M243.9,89.8c0-1.2-0.5-2.3-2.3-2.3c-0.9,0-1.6,0.2-2,0.5l0.3,0.9c0.4-0.2,0.9-0.4,1.5-0.4c1,0,1.1,0.6,1.1,1
		v0.1c-2,0-3.2,0.7-3.2,2.1c0,0.8,0.6,1.6,1.7,1.6c0.7,0,1.3-0.3,1.6-0.7h0l0.1,0.6h1.2c-0.1-0.3-0.1-0.8-0.1-1.3V89.8z M242.6,91.1
		c0,0.1,0,0.2,0,0.3c-0.1,0.4-0.5,0.8-1.1,0.8c-0.4,0-0.8-0.2-0.8-0.8c0-0.8,0.9-1,1.9-1V91.1z"/>
	<path class="st0" d="M249.4,90.3c-0.1,0.5-0.3,0.9-0.4,1.4h0c-0.1-0.4-0.2-0.9-0.4-1.4l-0.9-2.8h-1.5l2,5.5h1.4l2.1-5.5h-1.4
		L249.4,90.3z"/>
	<polygon class="st0" points="256,85.2 254.6,85.2 253.7,86.9 254.6,86.9 	"/>
	<path class="st0" d="M256.5,89.8c0-1.2-0.5-2.3-2.3-2.3c-0.9,0-1.6,0.2-2,0.5l0.3,0.9c0.4-0.2,0.9-0.4,1.5-0.4c1,0,1.1,0.6,1.1,1
		v0.1c-2,0-3.2,0.7-3.2,2.1c0,0.8,0.6,1.6,1.7,1.6c0.7,0,1.3-0.3,1.6-0.7h0l0.1,0.6h1.2c-0.1-0.3-0.1-0.8-0.1-1.3V89.8z M255.2,91.1
		c0,0.1,0,0.2,0,0.3c-0.1,0.4-0.5,0.8-1.1,0.8c-0.4,0-0.8-0.2-0.8-0.8c0-0.8,0.9-1,1.9-1V91.1z"/>
	<polygon class="st0" points="259.8,86.9 260.9,85.2 259.9,85.2 259.3,86.2 259.3,86.2 258.7,85.2 257.7,85.2 258.8,86.9 	"/>
	<path class="st0" d="M259.7,89.8c-0.7-0.3-1-0.4-1-0.8c0-0.3,0.3-0.6,0.8-0.6c0.5,0,0.9,0.2,1.2,0.3l0.3-1
		c-0.3-0.2-0.9-0.3-1.5-0.3c-1.3,0-2.1,0.7-2.1,1.7c0,0.7,0.4,1.2,1.5,1.6c0.7,0.2,0.9,0.4,0.9,0.8c0,0.4-0.3,0.6-0.9,0.6
		c-0.5,0-1.1-0.2-1.4-0.4l-0.3,1c0.4,0.2,1,0.4,1.7,0.4c1.4,0,2.2-0.7,2.2-1.7C261.2,90.6,260.7,90.1,259.7,89.8z"/>
	<path class="st0" d="M265.1,87.4c-0.9,0-1.5,0.5-1.8,0.9h0l-0.1-0.8H262c0,0.5,0,1,0,1.6V93h1.4v-3.2c0-0.2,0-0.3,0.1-0.4
		c0.1-0.4,0.5-0.8,1.1-0.8c0.8,0,1,0.6,1,1.4V93h1.4v-3.2C267,88.1,266,87.4,265.1,87.4z"/>
	<path class="st0" d="M270.6,87.4c-1.7,0-2.7,1.4-2.7,2.9c0,1.7,1,2.8,2.8,2.8c0.8,0,1.4-0.1,1.9-0.3l-0.2-0.9
		c-0.4,0.1-0.9,0.2-1.5,0.2c-0.9,0-1.6-0.4-1.7-1.4h3.7c0-0.1,0-0.3,0-0.6C272.9,88.9,272.3,87.4,270.6,87.4z M269.2,89.7
		c0.1-0.6,0.4-1.3,1.3-1.3c0.9,0,1.1,0.8,1.1,1.3H269.2z"/>
	<path class="st0" d="M21.8,8.3c0.9,0.9,1.9,1.7,2.9,2.3c1,0.6,2,0.9,3,0.9c0.8,0,1.9-0.3,3.1-0.9c1.3-0.6,2.6-1.3,3.9-2.1
		c1.3-0.8,2.5-1.7,3.6-2.6c1.1-0.9,1.9-1.7,2.4-2.5c0.3-0.4,0.2-0.9-0.3-1.4c-0.4-0.4-0.9-0.6-1.5-0.5c-0.2,0-0.4,0-0.7,0.1
		c-1.2,1.4-2.5,2.5-4.1,3.2c-1.6,0.7-3.2,1.1-5,1.1c-0.3,0-0.6-0.1-1-0.4c-0.4-0.3-0.9-0.6-1.4-1.1c-0.5-0.5-1-1-1.4-1.5
		c-0.4-0.5-0.8-1-1.2-1.5c-0.2-0.3-0.5-0.6-0.9-0.9C23,0.1,22.5,0,22,0c-0.5,0-1.2,0.2-1.9,0.5c-0.7,0.4-1.6,1-2.4,1.8
		c0.4,0.9,1,1.9,1.7,3C20,6.4,20.9,7.3,21.8,8.3z"/>
	<path class="st0" d="M76.9,56.5c-0.8-1.7-1.5-3.4-2.2-4.9c-0.7-1.5-1-2.9-1-4.1c2.8-2.8,2.9-5.7,0.3-8.7c-2.6,0-4.6,0.7-6.2,2.1
		c-1.5,1.4-2.3,3.3-2.3,5.8c0,1.1,0.1,2,0.3,2.8v0.2c0,1.9-0.2,3.8-0.5,5.8c-0.3,2-0.7,3.8-1.1,5.6c-0.4,1.7-0.9,3.3-1.4,4.8
		c-0.5,1.5-1,2.6-1.4,3.5c-0.7,1.3-1.3,2.2-1.9,2.7c-1,0.9-1.9,1.3-2.8,1.3c-0.9,0-1.6-0.4-2.1-1.4c-0.4-0.9-0.7-2.2-0.7-3.7
		c0-1.6,0.2-3.5,0.6-5.6c0.4-2.2,1-4.5,1.7-7c0.4-1.6,0.6-2.8,0.4-3.6c-0.2-0.8-0.5-1.3-0.9-1.6c0.3-1.3,0.2-2.5-0.1-3.4
		c-0.4-1-0.9-1.8-1.6-2.4c-0.7-0.6-1.5-1.1-2.5-1.4c-0.9-0.3-1.8-0.4-2.7-0.4c-2.6,0-4.9,0.7-6.9,2c-2,1.3-3.6,3-4.9,5.1
		c-1.3,2.1-2.3,4.4-2.9,6.9c-0.7,2.5-1,5-1,7.3c0,1.3,0.1,2.5,0.2,3.7c-1.7,3.2-3.5,5.8-5.2,7.7c-2.2,2.4-4.2,3.9-6.2,4.6
		c-0.8,0.3-1.5,0.4-2.3,0.4c-1.1,0-2.1-0.3-3.1-0.8c-1.7-0.9-3.1-2.4-4.3-4.5c-1.2-2.1-2.2-4.6-2.9-7.7c-0.7-3.1-1-6.5-1-10.1
		c0-2.5,0.2-5.2,0.5-8.2c0.4-3,0.9-5.9,1.6-8.9c0.7-3,1.5-5.8,2.5-8.6s2.1-5.3,3.3-7.4c1.3-2.1,2.7-3.8,4.2-5.1c1.5-1.3,3.2-2,5-2
		c1.2,0,2.1,0.5,2.5,1.4c0.5,0.9,0.7,2.1,0.7,3.6c0,1.5-0.3,3.2-0.7,5.1c-0.5,1.9-1,3.8-1.7,5.7c-0.7,1.9-1.4,3.7-2.3,5.5
		c-0.8,1.8-1.6,3.3-2.3,4.6c-0.1,0.2-0.2,0.5-0.2,0.8c0,0.3,0.1,0.6,0.3,0.9c0.2,0.3,0.6,0.6,1,0.7c0.4,0.2,1,0.3,1.8,0.3
		c1.3,0,2.6-0.8,3.9-2.4c1.4-1.6,2.6-3.6,3.7-6c1.1-2.4,2-5,2.6-7.8c0.6-2.8,0.8-5.4,0.6-7.8c-0.2-2.4-0.9-4.4-2.1-6
		c-1.2-1.6-3.1-2.4-5.7-2.4c-3.6,0-7.1,1.2-10.5,3.6c-3.4,2.4-6.3,5.6-8.9,9.8c-2.6,4.2-4.7,9.2-6.2,15C0.8,47.5,0,53.8,0,60.7
		c0,4.8,0.6,8.9,1.9,12.4c1.3,3.5,3,6.2,5.2,8.2s4.6,3.3,7.3,3.7c0.8,0.1,1.6,0.2,2.4,0.2c1.9,0,3.9-0.4,5.9-1.3
		c2.8-1.2,5.6-3.3,8.2-6.3c1.4-1.5,2.7-3.3,3.9-5.3c0.2,0.4,0.3,0.7,0.5,1.1c0.7,1.2,1.5,2.1,2.6,2.8c1.1,0.7,2.3,1.1,3.8,1.1
		c1.3,0,2.6-0.4,3.8-1.1c1.2-0.7,2.4-2.1,3.7-4.2c0.3,1.1,0.6,2,1.1,2.7c0.5,0.7,1,1.2,1.5,1.6c0.5,0.4,1.1,0.6,1.7,0.8
		c0.6,0.1,1.1,0.2,1.6,0.2c2.5-0.1,4.7-1.1,6.6-3c1.4-1.4,2.5-3,3.3-4.7c0.1-0.1,0.1-0.2,0.2-0.3c0.8-1.4,1.5-3.2,2.2-5.6
		c0.7-2.3,1.3-4.6,1.6-7c1.2,2.1,2.4,4.4,3.5,6.8c1.1,2.4,1.7,5,1.7,7.9c0,2.4-0.5,4-1.4,4.8c-0.9,0.8-2,1.3-3.1,1.3
		c-0.9,0-1.8-0.3-2.6-0.9c-0.8-0.6-1.4-1.2-1.8-1.9c-1.9,0.2-2.8,1.3-2.8,3.2c0,0.6,0.4,1.3,1.2,2.1c0.8,0.8,2.1,1.2,3.9,1.1
		c1.4,0,2.8-0.3,4.3-0.9c1.5-0.6,2.8-1.5,4-2.6c1.2-1.1,2.2-2.6,3-4.2c0.8-1.7,1.2-3.6,1.2-5.8c0-2-0.3-3.9-1-5.8
		C78.4,60.1,77.7,58.3,76.9,56.5z M49.4,56.2c-0.3,3.3-0.6,6.1-1.1,8.3c-0.4,2.2-1,4-1.5,5.3c-0.6,1.3-1.2,2.3-1.8,2.9
		c-0.6,0.6-1.2,0.9-1.8,0.9c-0.9,0-1.5-0.7-2-2.2c-0.4-1.5-0.7-3.3-0.7-5.5c0-2,0.1-4.1,0.5-6.3c0.3-2.2,0.8-4.3,1.4-6.1
		c0.6-1.9,1.3-3.4,2.2-4.7c0.8-1.2,1.9-1.9,3-1.9c0.8,0,1.4,0.3,1.7,0.8c0.3,0.6,0.4,1.2,0.4,1.9c0,0.7-0.2,1.5-0.6,2.4
		c-0.4,0.8-0.8,1.5-1.3,2C47.8,55.2,48.3,55.9,49.4,56.2z"/>
	<path class="st0" d="M141.6,71.8c0.3,1.1,0.6,2,1.1,2.7c0.5,0.7,1,1.2,1.5,1.6c0.5,0.4,1.1,0.6,1.7,0.8c0.6,0.1,1.1,0.2,1.6,0.2
		c2.5-0.1,4.7-1.1,6.6-3c1.9-1.9,3.3-4.2,4-6.8c0.2-0.8-0.1-1.3-0.8-1.5c-0.3-0.1-0.5-0.1-0.7-0.1c-0.5,0-0.9,0.2-1.3,0.4
		c-1.2,2.8-2.2,4.7-3.2,5.5c-1,0.9-1.9,1.3-2.8,1.3c-0.9,0-1.6-0.4-2.1-1.4c-0.4-0.9-0.7-2.2-0.7-3.7c0-1.6,0.2-3.5,0.6-5.6
		c0.4-2.2,1-4.5,1.7-7c0.4-1.6,0.6-2.8,0.4-3.6c-0.2-0.8-0.5-1.3-0.9-1.6c0.3-1.3,0.2-2.5-0.1-3.4c-0.4-1-0.9-1.8-1.6-2.4
		c-0.7-0.6-1.5-1.1-2.5-1.4c-0.9-0.3-1.9-0.5-2.7-0.4c-2.6,0-4.9,0.7-6.9,2c-2,1.3-3.6,3-4.9,5.1c-1.3,2.1-2.3,4.4-2.9,6.9
		c-0.7,2.5-1,5-1,7.3c0,1.4,0.1,2.7,0.3,4c-0.9,2-1.8,3.4-2.6,4.1c-1,0.9-1.9,1.3-2.8,1.3c-0.6,0-1.1-0.4-1.6-1.3
		c-0.5-0.9-0.7-2.4-0.8-4.6c-0.1-2.2,0.1-5.2,0.5-8.8c0.4-3.7,1.2-8.3,2.4-14c-1.6-1.9-3.1-2.8-4.6-2.8c-1.5,0-2.5,0.7-3.1,1.9
		c-0.9,1.8-1.8,3.6-2.7,5.4c-0.9,1.7-1.7,3.6-2.6,5.6c-0.9,2-1.8,4.2-2.8,6.6c-1,2.4-2.1,5.2-3.2,8.3c0.2-2,0.5-4.2,1-6.4
		c0.4-2.2,0.9-4.4,1.3-6.5c0.4-2.2,0.9-4.2,1.3-6.3c0.4-2,0.8-3.8,1.1-5.4c0.2-1.1-0.2-1.8-1.1-2.2c-0.4-0.2-0.8-0.2-1.2-0.2
		c-0.7,0-1.4,0.2-2.3,0.6l-3,1.3c-0.4,2.9-0.7,5.9-1.1,8.8c-0.3,3-0.6,5.8-0.9,8.4c-0.2,2.7-0.5,5.1-0.6,7.3
		c-0.2,2.2-0.3,4.1-0.3,5.5c0,1.1,0.5,1.9,1.4,2.5c0.4,0.2,0.9,0.3,1.5,0.3c0.8,0,1.9-0.2,3.1-0.7c1.8-4.8,3.5-9.1,5.2-12.9
		c1.6-3.9,3.2-7.5,4.8-10.9c-0.6,3.6-0.8,7-0.8,10c0,3,0.3,5.6,0.8,7.7c0.5,2.1,1.3,3.8,2.4,5c1.1,1.2,2.4,1.8,4,1.8
		c1.2,0,2.4-0.3,3.5-0.8c1.1-0.5,2.2-1.2,3.1-2.1c0.6-0.6,1.2-1.3,1.8-2c0.1,0.3,0.3,0.7,0.5,1c0.7,1.2,1.5,2.1,2.6,2.8
		c1.1,0.7,2.3,1.1,3.8,1.1c1.3,0,2.6-0.4,3.8-1.1C139.1,75.3,140.3,73.9,141.6,71.8z M135.7,73.1c-0.9,0-1.5-0.7-2-2.2
		c-0.4-1.5-0.7-3.3-0.7-5.5c0-2,0.2-4.1,0.5-6.3c0.3-2.2,0.8-4.3,1.4-6.1c0.6-1.9,1.3-3.4,2.2-4.7c0.9-1.2,1.9-1.9,3-1.9
		c0.8,0,1.4,0.3,1.7,0.8c0.3,0.6,0.4,1.2,0.4,1.9c0,0.7-0.2,1.5-0.6,2.4c-0.4,0.8-0.8,1.5-1.3,2c-0.1,1.2,0.5,2,1.6,2.2
		c-0.3,3.3-0.6,6.1-1.1,8.3c-0.4,2.2-0.9,4-1.5,5.3c-0.6,1.3-1.2,2.3-1.8,2.9C136.9,72.9,136.3,73.1,135.7,73.1z"/>
	<path class="st0" d="M223.4,79.8c1.5-0.6,2.8-1.5,4-2.6c1.2-1.1,2.2-2.6,3-4.2c0.8-1.7,1.2-3.6,1.2-5.8c0-2-0.3-3.9-1-5.8
		c-0.7-1.9-1.4-3.7-2.1-5.5c-0.8-1.7-1.5-3.4-2.2-4.9c-0.7-1.5-1-2.9-1-4.1c2.8-2.8,2.9-5.7,0.3-8.7c-2.6,0-4.6,0.7-6.2,2.1
		c-1.5,1.4-2.3,3.3-2.3,5.8c0,1.1,0.1,2,0.3,2.8v0.2c0,1.9-0.2,3.8-0.5,5.8c-0.3,2-0.7,3.8-1.1,5.6c-0.4,1.7-0.9,3.3-1.4,4.8
		c-0.5,1.5-1,2.6-1.4,3.5c-0.7,1.3-1.3,2.2-1.9,2.7c-1,0.9-1.9,1.3-2.8,1.3c-0.9,0-1.6-0.4-2.1-1.4c-0.4-0.9-0.7-2.2-0.7-3.7
		c0-1.6,0.2-3.5,0.6-5.6c0.4-2.2,1-4.5,1.7-7c0.4-1.6,0.6-2.8,0.4-3.6c-0.2-0.8-0.5-1.3-0.9-1.6c0.3-1.3,0.2-2.5-0.1-3.4
		c-0.4-1-0.9-1.7-1.6-2.4c-0.7-0.6-1.5-1.1-2.5-1.4c-0.9-0.3-1.9-0.5-2.7-0.4c-2.6,0-4.9,0.7-6.9,2c-2,1.3-3.6,3-4.9,5.1
		c-1.3,2.1-2.3,4.4-2.9,6.9c-0.7,2.5-1,5-1,7.3c0,1.3,0.1,2.6,0.3,3.9c-0.9,2.1-1.8,3.5-2.7,4.2c-1,0.9-1.9,1.3-2.8,1.3
		c-1.3,0-2.3-1.4-3.1-4.3c-0.7-2.9-1-6.7-0.8-11.6c1.9-2.7,3.6-5.6,5-8.6c1.4-3,2.5-5.9,3.3-8.9c0.8-2.9,1.3-5.8,1.5-8.5
		c0.2-2.8,0.1-5.2-0.3-7.5c-0.4-2.2-1.1-4.1-2.1-5.5c-1-1.5-2.4-2.5-4.1-3c-0.3-0.1-0.6-0.1-0.9-0.1c-0.2,0-0.3,0-0.5,0
		c-0.5,0.1-1,0.3-1.4,0.7c-2.3,9.6-4,18.2-5.3,25.8c-1.3,7.6-2,14-2,19.2c-0.1,5.2,0.6,9.2,2.1,12c1.4,2.8,3.7,4.1,6.9,4.1
		c1.2,0,2.4-0.3,3.4-0.8c1.1-0.5,2.1-1.2,3-2.2c0.7-0.7,1.3-1.5,1.9-2.3c0.2,0.5,0.4,0.9,0.6,1.3c0.7,1.2,1.5,2.1,2.6,2.8
		c1.1,0.7,2.3,1.1,3.8,1.1c1.3,0,2.6-0.4,3.8-1.1c1.2-0.7,2.4-2.1,3.7-4.2c0.3,1.1,0.6,2,1.1,2.7c0.5,0.7,1,1.2,1.5,1.6
		c0.5,0.4,1.1,0.6,1.7,0.8c0.6,0.1,1.1,0.2,1.6,0.2c2.5-0.1,4.7-1.1,6.6-3c1.4-1.4,2.5-3,3.3-4.7c0.1-0.1,0.1-0.2,0.2-0.3
		c0.8-1.4,1.5-3.2,2.2-5.6c0.7-2.3,1.3-4.6,1.6-7c1.2,2.1,2.4,4.4,3.5,6.8c1.1,2.4,1.7,5,1.7,7.9c0,2.4-0.5,4-1.4,4.8
		c-0.9,0.8-2,1.3-3.1,1.3c-0.9,0-1.8-0.3-2.6-0.9c-0.8-0.6-1.4-1.2-1.8-1.9c-1.9,0.2-2.8,1.3-2.8,3.2c0,0.6,0.4,1.3,1.2,2.1
		c0.8,0.8,2.1,1.1,3.9,1.1C220.5,80.7,221.9,80.4,223.4,79.8z M177.8,39.9c0.7-3.6,1.6-7.3,2.7-11.3c0.6,3.1,0.5,6.6-0.3,10.2
		c-0.8,3.7-2.2,7.4-4,11.2C176.6,46.9,177.1,43.5,177.8,39.9z M200.9,55.5c-0.3,3.3-0.6,6.1-1.1,8.3c-0.4,2.2-1,4-1.5,5.3
		c-0.6,1.3-1.2,2.3-1.8,2.9c-0.6,0.6-1.2,0.9-1.8,0.9c-0.9,0-1.5-0.7-2-2.2c-0.4-1.5-0.7-3.3-0.7-5.5c0-2,0.2-4.1,0.5-6.3
		c0.3-2.2,0.8-4.3,1.4-6.1c0.6-1.9,1.3-3.4,2.2-4.7c0.8-1.2,1.9-1.9,3-1.9c0.8,0,1.4,0.3,1.7,0.8c0.3,0.6,0.4,1.2,0.4,1.9
		c0,0.7-0.2,1.5-0.6,2.4c-0.4,0.8-0.8,1.5-1.3,2C199.3,54.5,199.8,55.3,200.9,55.5z"/>
	<path class="st0" d="M295.2,65.3c-0.3-0.1-0.5-0.1-0.7-0.1c-0.5,0-0.9,0.2-1.3,0.4c-1.2,2.8-2.2,4.7-3.2,5.5
		c-1,0.9-1.9,1.3-2.8,1.3c-0.8,0-1.3-0.7-1.7-2c-0.4-1.3-0.5-3.1-0.5-5.4c0.1-2.3,0.3-4.9,0.7-7.9c0.4-3,1.1-6.2,1.9-9.7
		c0.2-0.8,0-1.3-0.4-1.7c-0.4-0.3-0.9-0.5-1.7-0.5c-0.1,0-0.1,0-0.2,0c-0.8,0-1.7,0.2-2.7,0.6c-1,0.4-2.1,1-3.1,1.8
		c-0.4,4.3-0.8,8-1.4,10.9c-0.6,3-1.1,5.4-1.7,7.3c-0.6,1.9-1.2,3.2-1.8,4c-0.6,0.8-1.2,1.2-1.7,1.2c-0.8,0-1.5-0.7-1.9-2
		c-0.5-1.3-0.7-3.1-0.7-5.5c0-2.3,0.2-5.1,0.7-8.2c0.5-3.2,1.4-6.6,2.5-10.3c0.2-0.6,0.3-1.1,0.3-1.5c0-0.5-0.1-0.8-0.5-1.1
		c-0.3-0.2-0.9-0.3-1.6-0.3c-0.2,0-0.3,0-0.5,0c-1,0.1-2.5,0.3-4.4,0.9c-1.3,4.3-2.2,8.5-2.7,12.5c-0.5,4-0.6,7.5-0.3,10.6
		c-1.7,4-3.4,6-5.1,6c-0.7,0-1.3-0.2-1.9-0.7c-0.6-0.5-1.2-1.1-1.7-1.9c-0.6-0.8-1.1-1.8-1.5-2.9c-0.5-1.1-0.9-2.2-1.3-3.4
		c1.4-1.2,2.6-2.5,3.6-4.1c1-1.6,1.9-3.2,2.6-4.9c0.7-1.7,1.1-3.3,1.3-5c0.2-1.7,0.1-3.1-0.2-4.4c-0.3-1.3-0.9-2.3-1.8-3.1
		c-0.9-0.8-2-1.2-3.4-1.2c-0.8,0-1.7,0.5-2.6,1.3c-0.9,0.9-1.8,2-2.7,3.4c-0.9,1.4-1.8,2.8-2.6,4.4c-0.8,1.6-1.6,3.1-2.2,4.5
		c-0.7,1.4-1.2,2.6-1.6,3.7c-0.4,1-0.6,1.6-0.7,1.8l6-40c0.2-1-0.1-1.6-0.7-1.9c-0.5-0.2-1.1-0.4-1.8-0.4c-0.2,0-0.4,0-0.6,0
		c-1,0.1-1.9,0.3-2.9,0.7c-1,0.4-1.7,0.7-2.2,1l-5.7,56.2c0.9,0.9,1.9,1.4,2.9,1.4c1,0,1.8-0.5,2.2-1.5c0.3-0.5,0.7-1.7,1.3-3.6
		c0.6-1.9,1.4-4.1,2.5-6.8c1.1-2.6,2.4-5.5,3.9-8.5c1.5-3,3.4-6,5.5-8.8c0.7,1.2,1,2.4,1,3.8c0,1.4-0.2,2.8-0.7,4.3
		c-0.5,1.5-1.3,2.9-2.3,4.3c-1,1.4-2.3,2.7-3.9,3.9c-0.7,0.5-0.8,1.6-0.2,3.2c1.2,3.1,2.8,5.5,4.6,7.2c1.9,1.6,3.9,2.5,6,2.5
		c2,0,3.9-0.8,5.7-2.4c0.9-0.8,1.7-1.8,2.4-2.9c0.4,0.9,0.8,1.8,1.3,2.5c1.3,1.8,3.1,2.8,5.5,2.8c3.1,0,5.5-3.1,7.3-9.2
		c0.2,2.7,0.9,4.9,2,6.6c1.1,1.7,2.7,2.6,4.8,2.5c1.2,0,2.4-0.3,3.4-0.8c1.1-0.5,2.1-1.2,2.9-2.1c0.9-0.9,1.7-1.9,2.3-3.1
		c0.7-1.2,1.2-2.4,1.6-3.7C296.3,66,296,65.5,295.2,65.3z"/>
	<path class="st0" d="M193.9,38.6c0.3,0.2,0.5,0.2,0.8,0.2c0.4,0,0.9-0.2,1.3-0.5c2.3-1.8,4.5-3.5,6.7-5.2c2.2-1.7,4.4-3.5,6.6-5.2
		c0-0.8-0.2-1.5-0.5-2.1c-0.3-0.6-0.8-1.1-1.3-1.4c-0.5-0.3-1-0.4-1.5-0.4c-0.1,0-0.1,0-0.2,0c-0.6,0-1.2,0.3-1.6,0.9
		c-1.7,2-3.5,4-5.5,6.1c-2,2.1-3.8,4.1-5.7,6C193,37.6,193.3,38.2,193.9,38.6z"/>
</g>
</svg>
