<?xml version="1.0" encoding="utf-8"?>
<!-- Generator: Adobe Illustrator 16.0.0, SVG Export Plug-In . SVG Version: 6.00 Build 0)  -->
<!DOCTYPE svg PUBLIC "-//W3C//DTD SVG 1.1//EN" "http://www.w3.org/Graphics/SVG/1.1/DTD/svg11.dtd" [
	<!ENTITY ns_flows "http://ns.adobe.com/Flows/1.0/">
	<!ENTITY ns_extend "http://ns.adobe.com/Extensibility/1.0/">
	<!ENTITY ns_ai "http://ns.adobe.com/AdobeIllustrator/10.0/">
	<!ENTITY ns_graphs "http://ns.adobe.com/Graphs/1.0/">
]>
<svg version="1.1" id="Vrstva_1" xmlns:x="&ns_extend;" xmlns:i="&ns_ai;" xmlns:graph="&ns_graphs;"
	 xmlns="http://www.w3.org/2000/svg" xmlns:xlink="http://www.w3.org/1999/xlink" xmlns:a="http://ns.adobe.com/AdobeSVGViewerExtensions/3.0/"
	 x="0px" y="0px" width="296.9px" height="114px" viewBox="0 0 296.9 114" style="enable-background:new 0 0 296.9 114;"
	 xml:space="preserve">
<style type="text/css">
<![CDATA[
	.st0{fill:black;}
]]>
</style>
<g>
	<path class="st0" d="M157.9,41.2c1.7,0,3.1-1,4.1-2.2c1-1.3,1.6-2.9,1.6-4.6c0-1.3-0.3-2.5-1-3.4c-0.7-1-1.9-1.5-3.2-1.5
		c-3.3,0-5.9,2.7-6,5.8v0.1l0.1,0.5l-0.1,0.5l0,0.1v0.1c0,1.2,0.4,2.4,1.1,3.3C155.3,40.6,156.5,41.2,157.9,41.2z"/>
	<path class="st0" d="M296.4,47.8c-0.5-1.1-1.7-1.9-3.3-1.9c-1.7,0-3.1,0.8-4.1,2.1c-1.5,1.9-2.4,4.6-3.2,7.8
		c-0.8,3.2-1.4,6.8-2.2,10.6c-0.8,1.2-2.1,3-3.5,4.6c-1.1,1.2-2.3,2.1-3.2,2.5c-0.3-0.8-0.4-1.7-0.4-2.9c0-5.3,2-14.6,4.2-20.8h0
		c0.3-0.7,0.7-1.6,0.7-2.6c0-1.7-1.3-3.3-3.3-3.4c-0.8,0-1.5,0.2-2.2,0.6c-0.7,0.4-1.4,1-1.7,1.9l0,0c-1.8,4.7-3.2,9.8-4.2,14.9
		c-1.1,3.3-3.2,6.5-5.4,8.8c-1.1,1.2-2.2,2.1-3.1,2.7c-0.9,0.6-1.8,0.9-2.1,0.9c-0.2,0-0.6-0.2-1.1-0.7c-1.5-1.5-2.9-5.2-3.8-7.9
		c2.9-1,6.3-2.3,9.1-4.2c3.1-2.1,5.7-5.1,5.7-9.1c0-3.5-2-6.2-4.7-8.4l0,0l0,0c-0.6-0.4-1.4-0.7-2.1-0.7c-2.3,0-4.2,2-4.2,4.4
		c0,0.9,0.4,1.6,0.8,2.1c0.6,0.8,1.4,1.4,1.9,2c0.5,0.6,0.8,1,0.8,1.5c0,0.1-0.2,0.5-0.8,1.1c-1.8,1.6-6.2,3.5-9.3,4.4
		c-0.4-0.4-0.9-0.6-1.5-0.7c1.6-9.4,4-19.1,6.4-28.4l0-0.1l0.1-0.8l0-0.1v-0.1c0-0.9-0.3-1.7-0.9-2.4c-0.6-0.7-1.5-1.1-2.5-1.1
		c-2.1,0-3.7,1.6-4.1,3.4c-2.5,9.3-5.3,22.4-7.1,32.1c-1.7,0.8-3.4,1.3-5.2,1.3c-0.7,0-1.4-0.1-2-0.2c1.2-4.2,1.6-7.3,1.6-10.3
		c0-2-0.3-3.5-0.9-4.8c-0.6-1.2-1.9-2.1-3.2-2.1c-1.7,0.1-3.4,1.3-4.8,3.5c-1.4,2.2-2.4,5.6-2.4,10.1c0,2.9,0.4,5.1,0.6,6.1
		c-1.1,2-2.5,4.2-4,6.1c-1.1,1.4-2.2,2.5-3.3,3.3c-0.2-1-0.3-2-0.3-3.1c0-5.3,1.7-14.5,3.1-20.3l0-0.1l0.1-0.7l0-0.1v-0.1
		c0-0.9-0.3-1.8-0.9-2.4c-0.6-0.7-1.5-1.1-2.5-1.1c-2.1,0-3.7,1.5-4.1,3.3h0c0,0,0,0,0,0c-0.9,3.6-1.7,7.7-2.3,11.6
		c-1.3,0.7-2.7,1.3-4.1,1.9c0.1-0.5,0.2-1,0.3-1.5c0.2-1.3,0.3-2.6,0.3-3.9c0-3.8-0.9-6.9-2.7-9.1c-1.8-2.3-4.5-3.5-7.6-3.5
		c-3.7,0-7.7,1.9-10.8,4.8c0.3-0.6,0.6-1.3,0.6-2.1c0-0.8-0.3-1.5-0.8-2.2c-0.5-0.7-1.4-1.2-2.4-1.2c-2.4,0-4.8,0.1-7.2,0.2
		c0.6-2.5,1.1-5.1,1.8-7.6l0-0.1l0.1-0.8l0-0.1v-0.1c0-0.9-0.3-1.7-0.9-2.4c-0.6-0.6-1.5-1-2.5-1c-2,0-3.6,1.4-4.1,3.3l0,0l-2.2,9.2
		l-2.7,0.2h0l0,0c-2,0.2-3.7,2-3.6,4.3c0,0.9,0.3,1.7,0.9,2.4c0.6,0.6,1.5,1.1,2.4,1.1c0.5,0,1-0.1,1.5-0.1
		c-0.6,3.3-1.2,6.7-1.6,9.8c-1,2.6-2.7,5.6-4.7,8c-2,2.5-4.4,4.2-6,4.1c-0.4,0-0.7,0-1-0.4c-0.3-0.4-0.9-1.5-0.9-4.1
		c0-5.6,2.1-13.2,4-19.6l0-0.1l0.1-0.7l0-0.1v-0.1c0-0.9-0.4-1.8-1-2.5c-0.6-0.6-1.5-1-2.5-1c-2.1,0-3.6,1.6-4.1,3.3v0
		c-1,3.6-2.1,7.5-2.9,11.3c-1.7,0.7-3.3,1.3-5,1.3c-0.7,0-1.4-0.1-2-0.2c1.2-4.2,1.6-7.3,1.6-10.3c0-2-0.3-3.5-0.9-4.8
		c-0.6-1.2-1.9-2.1-3.2-2.1c-1.7,0.1-3.4,1.3-4.8,3.5C132,49.7,131,53,131,57.5c0,2.9,0.4,5.1,0.6,6.1c-1.1,2-2.5,4.2-4,6.1
		c-1.1,1.4-2.2,2.5-3.3,3.3c-0.2-1-0.3-2-0.3-3.2c0-5.3,1.7-14.6,3.1-20.3l0-0.1l0.1-0.7l0-0.1v-0.1c0-0.9-0.3-1.8-0.9-2.4
		c-0.6-0.7-1.5-1.1-2.5-1.1c-2.1,0-3.7,1.5-4.1,3.3h0c0,0,0,0,0,0c-0.7,2.9-1.3,6-1.9,9.2c-8.3,19.8-25,42.7-49.6,42.7
		c-11.7,0-19.4-6.4-22.3-18.7c26.4-6.9,51.7-31.7,51.8-56.5C97.8,10.9,90.2,0,74.4,0C53.7,0,29.9,26.3,29.9,68.7
		c0,1.3,0,2.7,0.1,3.9c-12.2-0.1-14-2.4-18.4-9.1c0,0-3.3-5.9-7.9-3.6c-9.8,4.7,2.9,17,2.9,17c0.1,0.1,2,1.8,2.2,2
		c3.5,3,15,6.7,22.8,5.6c4.1,18.1,16.1,29.6,35.9,29.6c20.6,0,39.1-15,51.8-33.8c0,0,0,0,0.1,0.1c0.9,0.7,2.1,1.2,3.4,1.2
		c2.9,0,5.6-1.9,8.2-4.5c2.3-2.4,4.5-5.5,6.4-8.6c0.9,0.3,2.3,0.6,4.1,0.6c1.6,0,3.4-0.3,5.2-0.8c0,0.7-0.1,1.4-0.1,2.1
		c0,3.3,0.6,6,1.9,8.1c1.3,2.1,3.6,3.3,6.4,3.3c4.1,0,7.7-2.1,10.6-4.9c0.5-0.5,1-1.1,1.5-1.7c0.1,0.4,0.2,0.8,0.4,1.2
		c0.5,1.3,1.3,2.4,2.5,3.3c1.2,0.9,2.7,1.3,4.4,1.3c3.8,0,7.2-1.9,10-4.5c0.7,1.3,1.5,2.4,2.7,3.2l0,0l0.7,0.4l0.1,0.1l1.1,0.5
		l0.1,0l0.9,0.3l0,0l0,0c0.5,0.1,1.1,0.2,1.6,0.2c3.1,0,5.9-1.5,8.1-3.4c2.1-1.9,3.8-4.2,5-6.5c1.4-0.4,2.8-0.9,4.1-1.4l0,0
		c0.7-0.3,1.3-0.5,2-0.8h0c0.1,0,0.2-0.1,0.3-0.1c0,0.9-0.1,1.7-0.1,2.4c0,2,0.2,4.3,1,6.4c0.4,1,1,2,1.9,2.7
		c0.9,0.7,2.1,1.2,3.4,1.2c2.9,0,5.6-1.9,8.2-4.5c2.3-2.4,4.5-5.5,6.4-8.6c0.9,0.3,2.3,0.6,4.1,0.6c1.6,0,3.4-0.3,5.1-0.8
		c-0.5,3.9-0.9,7.8-1,9.9c0,1,0.4,1.8,1.1,2.4s1.5,0.9,2.3,0.9c2.1,0.1,4.2-1.6,4.3-4.2v0c0.1-2.5,0.3-4.8,0.6-6.8
		c0.8,2.2,1.7,4.3,2.8,6c1.8,2.9,4.3,5,7.7,5c1.8,0,3.8-0.8,5.9-2c1.6-1,3.3-2.4,4.8-4c0.1,0.7,0.3,1.4,0.5,2.1c0.4,1,1,1.9,1.9,2.7
		c0.9,0.7,2.1,1.2,3.4,1.2c1.8,0,3.5-0.6,5-1.4c-1.9,6.2-4.2,11.7-7,15.6c-3.3,4.6-7.2,7.1-11.9,7.1c-9.1,0-16.9-7.1-23-14.2l0,0
		l0,0c-0.8-0.7-1.6-0.8-2.4-0.8c-1.1,0-2.2,0.5-2.9,1.3c-0.7,0.7-1.3,1.7-1.3,2.9c0,0.9,0.3,2,1,2.7l0,0c0,0,0,0,0,0.1c0,0,0,0,0,0
		c6.8,7.7,16,15.9,27.2,15.9c9.7,0,16.5-5.7,21.2-13.7c4.7-8,7.5-18.3,9.6-28.2c3.1-5.4,6-12.7,6.1-17.8
		C296.9,49.9,296.9,48.8,296.4,47.8z M44.7,69.4c0-16.5,2.6-27.4,7.9-38.5c5.2-10.8,12.6-18.4,21-18.4c7.6,0,10.2,5.8,10.2,13.3
		c0,15.5-15.1,37.1-39.1,44.2C44.7,69.9,44.7,69.7,44.7,69.4z M181.8,60.9c0,1.1,0.1,2.1,0.4,3.1c0.2,0.8,0.6,1.5,1,2.2
		c-1,1.7-2.1,3.1-3.2,4.2c-1.9,1.9-3.8,2.8-4.9,2.7l-0.6-0.3c-0.3-0.4-0.6-1.3-0.8-2.3c-0.1-1-0.2-2.1-0.2-2.9
		c0-3.8,1.1-10.8,2.3-16.3l7.6-0.3v0c1,0,1.9-0.4,2.6-0.9C183.6,53,181.8,56.7,181.8,60.9z M192.6,73.2c-0.5,0-0.9-0.1-1.3-0.5
		c-0.1-0.1-0.3-0.4-0.4-0.7c1.1,0.3,2.2,0.5,3.3,0.5C193.5,73,192.9,73.2,192.6,73.2z M199.5,64.5c-0.6,0.1-1.5,0.3-2.5,0.3
		c-1.3,0-3.1-0.1-4.6-0.7c0,0,0,0,0,0c0.2-0.3,0.4-0.5,0.6-0.8c0.5-0.7,1-1.5,1-2.6c0-1.9-1.4-3.5-3.4-3.6c-0.2,0-0.4,0.1-0.6,0.1
		c0.4-1,1.1-2,1.9-2.8c1.5-1.6,3.5-2.8,5.2-2.8c1,0,1.8,0.2,2.4,0.8c0.6,0.6,1.2,2.1,1.2,5.1C200.7,59.8,200.2,62.3,199.5,64.5z"/>
</g>
</svg>
