<?xml version="1.0" encoding="utf-8"?>
<!-- Generator: Adobe Illustrator 16.0.0, SVG Export Plug-In . SVG Version: 6.00 Build 0)  -->
<!DOCTYPE svg PUBLIC "-//W3C//DTD SVG 1.1//EN" "http://www.w3.org/Graphics/SVG/1.1/DTD/svg11.dtd" [
	<!ENTITY ns_flows "http://ns.adobe.com/Flows/1.0/">
	<!ENTITY ns_extend "http://ns.adobe.com/Extensibility/1.0/">
	<!ENTITY ns_ai "http://ns.adobe.com/AdobeIllustrator/10.0/">
	<!ENTITY ns_graphs "http://ns.adobe.com/Graphs/1.0/">
]>
<svg version="1.1" id="Vrstva_1" xmlns:x="&ns_extend;" xmlns:i="&ns_ai;" xmlns:graph="&ns_graphs;"
	 xmlns="http://www.w3.org/2000/svg" xmlns:xlink="http://www.w3.org/1999/xlink" xmlns:a="http://ns.adobe.com/AdobeSVGViewerExtensions/3.0/"
	 x="0px" y="0px" width="175.7px" height="278.6px" viewBox="0 0 175.7 278.6" style="enable-background:new 0 0 175.7 278.6;"
	 xml:space="preserve">
<style type="text/css">
<![CDATA[
	.st0{fill:black;}
	.st1{fill:none;}
]]>
</style>
<g>
	<path class="st0" d="M91.5,192.4c-30.9,0-49.5-17.9-55.9-46.1c-12.1,1.6-25.2-1.5-35.5-8.8v141h175.7V134.4
		C155.9,166,125.5,192.4,91.5,192.4z M86.5,212.4c0-1.4,1.7-3.2,3.2-3.2c1.4,0,2.2,1.2,2.2,2.6c0,1.9-1.7,4.6-3.4,4.6
		c-1.2,0-2.1-1.4-2.1-2.5c0-0.1,0-0.4,0.1-0.7C86.5,212.9,86.5,212.6,86.5,212.4z M151.9,238.6c-2.8,7.6-9,14.1-14.1,14.1
		c-3.5,0-6.1-2.3-6.1-9.7l-0.2,0c-4,6.6-7.9,10.3-11.2,10.3c-3.2,0-4.8-2.5-4.9-7c-3,4-6.7,6.4-10.5,6.4c-2.6,0-5.7-1.7-6.3-8.1
		c-3.2,4.9-7.3,8.7-11.9,8.7c-4.5,0-6.8-3.4-6.8-9.3c0-1.2,0.1-2.5,0.3-3.9c-2.2,0.9-4.3,1.4-6.2,1.4c-1.8,0-3.6-0.5-4.9-1.2
		c-3.9,7.5-9,13-12.9,13c-2,0-4.6-1.5-4.6-8.3c-3.8,5.4-8.9,9.1-13.8,9.1c-6.4,0-10.3-5.6-10.3-13.8s4.3-19,12.3-19
		c3.6,0,6.1,3.2,6.1,7.3c0,6.2-4.9,13.5-13,18.7c1.1,2.2,2.7,3.1,4.8,3.1c4.7,0,10.9-5.7,14.3-12.8c0.8-6.6,2.2-13,2.5-13.7
		c0.3-0.9,0.8-1.7,2.2-1.5c1.5,0.1,1.9,1.5,1.7,2.5c-0.5,2.2-2.8,12.8-2.8,19.9c0,3,0.1,4.8,1.2,4.8c1.3,0,5.1-2.9,9.3-11.4
		c-1.7-2-2.7-4.7-2.7-7.8c0-4.8,2.5-9.1,6.2-9.1c2.2,0,4.2,1.4,4.2,5c0,3-0.9,6.5-3,10.9c0.9,0.4,2,0.6,3.3,0.6c2,0,4.4-0.5,6.9-1.7
		c0.8-4,1.9-8.2,3-12.2c0.2-0.7,1-1.4,2-1.4c1.1,0,2,0.9,2,1.9c0,0.2-0.1,0.6-0.1,0.6c-1.8,6.4-3.8,13.8-3.8,19.1
		c0,4.9,1.7,5.5,3.2,5.5c4.2,0,9.1-6.8,11.6-11.5c0.4-3.9,1.2-8.6,2.1-12.9c-1.9,0.2-2.5,0.2-3,0.2c-1.1,0.1-2-0.6-2-1.9
		s0.9-1.7,1.9-1.9c0,0,1.4-0.1,3.8-0.4c1-4.9,2-8.9,2.4-10.3c0.2-0.8,1.2-1.4,2-1.4c1.1,0,2,1.1,2,1.9c0,0.4-0.2,0.9-0.2,0.9
		l0.1-0.1c0,0-1,3.8-2.1,8.9c2.4-0.1,5.3-0.3,8.2-0.4c1.1,0,2,1.1,2,1.9c0,0.9-1.1,1.9-2,1.9c-4,0.2-7,0.3-9.1,0.5l-0.6,2.9
		c-1.1,5.4-1.9,11.1-1.9,14.8c0,4.4,0.9,6.5,2.9,6.5c2.7,0,7.5-3.2,11-10.2c1.9-8.1,6.6-17.5,13.8-17.5c3.9,0,6.2,3.5,6.3,9.2
		c0.8,0.3,1,1,1,1.6c0,0.5-1.7,6.1-1.7,11.5c0,3.8,0.9,5.3,2.3,5.3c2.3,0,7-3.8,10.7-11.8C149.9,234.4,153,235.7,151.9,238.6z"/>
	<path class="st0" d="M0,0v104.5c5.6,13.1,14.9,25.6,33.1,23.5c-0.1-2-0.2-4.1-0.2-6.1c0-65.9,37-106.9,69.2-106.9
		c24.6,0,36.5,17,36.5,39.4C138.4,92.9,99,131.5,58,142.2c4.5,19.1,16.6,29,34.7,29c44.7,0,73.1-52.4,83.1-85V0H0z"/>
	<path class="st0" d="M116.8,55.2c0-11.6-4-20.7-15.9-20.7c-13,0-24.6,11.9-32.7,28.7C60,80.4,55.9,97.4,55.9,123c0,0.3,0,0.7,0,1
		C93.3,112.9,116.8,79.4,116.8,55.2z"/>
	<path class="st0" d="M69.1,225c-2,0-2.7,6.3-1.3,9.8C69.3,231.3,71.1,225,69.1,225z"/>
	<path class="st0" d="M41.8,228.5c0-1.8-0.7-3.5-2.1-3.5c-4.4,0-8.3,7.4-8.3,15.2c0,1.2,0,2.2,0.4,3.6
		C38,239.6,41.8,233.4,41.8,228.5z"/>
	<path class="st0" d="M130.2,225c-5.8,0-10.7,13.3-10.7,20.9c0,2.7,0.3,3.7,1.5,3.7c2.3,0,7.6-6.1,11.7-15.7
		C133,231,132.8,225,130.2,225z"/>
</g>
</svg>
