<?xml version="1.0" encoding="utf-8"?>
<!-- Generator: Adobe Illustrator 16.0.0, SVG Export Plug-In . SVG Version: 6.00 Build 0)  -->
<!DOCTYPE svg PUBLIC "-//W3C//DTD SVG 1.1//EN" "http://www.w3.org/Graphics/SVG/1.1/DTD/svg11.dtd" [
	<!ENTITY ns_flows "http://ns.adobe.com/Flows/1.0/">
	<!ENTITY ns_extend "http://ns.adobe.com/Extensibility/1.0/">
	<!ENTITY ns_ai "http://ns.adobe.com/AdobeIllustrator/10.0/">
	<!ENTITY ns_graphs "http://ns.adobe.com/Graphs/1.0/">
]>
<svg version="1.1" id="Vrstva_1" xmlns:x="&ns_extend;" xmlns:i="&ns_ai;" xmlns:graph="&ns_graphs;"
	 xmlns="http://www.w3.org/2000/svg" xmlns:xlink="http://www.w3.org/1999/xlink" xmlns:a="http://ns.adobe.com/AdobeSVGViewerExtensions/3.0/"
	 x="0px" y="0px" width="298px" height="66.4px" viewBox="0 0 298 66.4" style="enable-background:new 0 0 298 66.4;"
	 xml:space="preserve">
<style type="text/css">
<![CDATA[
	.st0{fill:black;}
]]>
</style>
<g>
	<path class="st0" d="M298,27.7h-1c-1.3,3.7-1.8,3.9-5,3.9h-1.6c-1.5,0-1.7-0.4-1.7-2v-8.5h2.9c2.2,0,2.3,0.4,3,2.9h1
		c0-0.5-0.1-0.8-0.1-3.7c0-2.8,0.1-3.4,0.1-3.8h-1c-0.8,2.4-0.8,2.8-3,2.8h-2.9V9.8h2c2.3,0,3.5,0,4.3,0.7c0.7,0.6,1.1,1.8,1.4,3h1
		c0-0.3-0.1-0.9-0.1-3c0-0.8,0.1-2.4,0.1-2.6l-0.3-0.2c-0.8,0.3-2.1,0.4-5.1,0.4h-5c-1.6,0-3.5,0-5.1-0.1v0.8c1.2,0.2,1.8,0.8,2,1.5
		c0.3,0.8,0.3,1.8,0.3,3.5v11.9c0,4.4,0,5.4-0.7,6.2c-0.4,0.5-1.1,0.8-1.7,0.9v0.8c1.2-0.1,4.1-0.1,6.1-0.1h3.8c2.3,0,4.9,0.1,6,0.1
		v-0.4C297.7,30.8,298,27.7,298,27.7"/>
	<path class="st0" d="M281,33.4v-0.8c-1.2-0.2-2.2-1.1-3.3-3.1l-6.3-11.2l6.1-7c1.5-1.7,2.5-2.3,3.4-2.5V8c-1.2,0.1-2.9,0.1-3.8,0.1
		c-1.2,0-2.8,0-3.9-0.1v0.8c0.4,0.1,0.9,0.3,1.1,0.5c0.2,0.2,0.3,0.4,0.3,0.8c0,0.7-0.4,1.2-0.8,1.8l-6.4,8.7
		c0.8,1.4,3.4,6.3,5.5,10c0.4,0.7,1.5,2.9,1.5,2.9c0.5,0,1.8,0,2.6,0C278.7,33.4,280.4,33.4,281,33.4"/>
	<path class="st0" d="M257.9,26.5c0-4.2-2-5.7-4.8-7.6l-2.1-1.4c-2.2-1.5-3.5-2.2-3.5-4.4c0-1.6,0.7-3.7,4.3-3.7c3,0,3.6,2,4.3,4h1
		c-0.1-0.6-0.1-1.1-0.1-3c0-0.7,0.1-1.9,0.1-2.5l-0.4-0.2c-0.3,0.3-0.7,0.4-1.1,0.4c-0.6,0-1-0.1-1.8-0.2c-0.8-0.1-1.5-0.2-2.6-0.2
		c-6,0-7.6,4-7.5,6.6c0,4,2.3,5.8,4.2,7.1l2.2,1.5c2,1.4,3.8,2.2,3.8,4.8c0,2.6-1.8,4.2-4.6,4.2c-2.6,0-3.5-1.1-4.8-4.3l-1.2-0.1
		c0,0,0.5,2.1,0.5,4.6l0,0.5c0.8,0.3,2.9,0.8,5.7,0.8C255.8,33.6,257.9,29.8,257.9,26.5"/>
	<path class="st0" d="M214.3,0c-0.9,1.3-1.7,2.1-2.5,2.9c-1.7,1.6-3.5,2.8-3.5,2.8l0.4,0.7c0,0,2.2-0.5,4.5-1.5
		c1.3-0.6,2.3-1.1,3.5-2.1L214.3,0z"/>
	<path class="st0" d="M240.2,30.4c-1.8-2.7-5.5-9-6.1-10.2c1.8-0.3,5.4-1.8,5.4-6.4c0-3-1.9-4.8-4.5-5.5C233.7,8,231.7,8,230.9,8
		c-2.2,0-2.6,0.1-5.1,0.1c-1.1,0-2.8,0-4.1-0.1v0.8c1.2,0.2,1.8,0.8,2,1.5c0.3,0.8,0.3,1.8,0.3,3.5v11.9c0,4.4,0,5.3-0.7,6.1
		c-0.3,0.3-0.7,0.7-1.4,0.7c-0.3,0-0.7-0.1-0.9-0.2c-1.2-0.6-1.5-1.7-2.1-3.9l-5.7-20.7c-0.7,0.4-3.4,0.9-4.1,1l-6.6,20.5
		c-0.7,2.2-1.4,3.2-2.9,3.5v0.8c0.9-0.1,2.7-0.1,3.7-0.1c1,0,2.8,0,3.7,0.1v-0.8c-0.6-0.1-1.6-0.3-1.9-0.7c-0.2-0.2-0.3-0.5-0.3-0.9
		c0-0.4,0.2-1.4,0.5-2.3l1.5-5.4h6.2l1.6,5.8c0.1,0.5,0.4,1.3,0.4,1.8c0,0.4-0.1,0.8-0.4,1c-0.3,0.3-1,0.5-1.4,0.5v0.8
		c1.1-0.1,3.3-0.1,4.4-0.1c0.9,0,7,0,9,0c1.2,0,3.2,0,4.5,0.1v-0.8c-1.2-0.2-1.8-0.8-2-1.5c-0.3-0.8-0.3-1.8-0.3-3.5v-6.6h0.5
		c0.9,0,0.8,0.1,3.7,5.6c3.4,6.5,3.6,6.9,6.8,6.9c1.9,0,3.2-0.1,3.2-0.1v-0.7C242,32.5,241.5,32.4,240.2,30.4z M207.2,21.7l2.2-7.5
		c0.3-1.2,0.6-2.6,0.6-2.6s0.1,1,0.5,2.5l2,7.6H207.2z M232.1,19.5c-0.6,0.2-1.4,0.3-2.1,0.3c-0.8,0-1.2,0-1.4-0.1V9.5
		c0,0,0.6-0.1,1.8-0.1c1.6,0,4.2,0.3,4.2,5C234.6,17.2,233.7,18.9,232.1,19.5z"/>
	<path class="st0" d="M195.3,20.7c0,8.3-3,10.5-5.8,11c-0.7,0.1-1.4,0.1-2,0.1c-0.7,0-1.3-0.1-1.6-0.5c-0.2-0.3-0.3-1-0.3-1.4V9.6
		c0.6,0,0.9,0,1.6,0c1.9,0,3.9,0.2,5.5,1.8C194.8,13.3,195.3,17.5,195.3,20.7 M269.3,8.7V8c-1.4,0.1-3.5,0.1-4.7,0.1
		c-1.2,0-3.2,0-4.6-0.1v0.8c1.2,0.2,1.8,0.8,2,1.5c0.3,0.8,0.3,1.8,0.3,3.5v11.9c0,4.4,0,5.4-0.7,6.2c-0.4,0.5-1.1,0.8-1.7,0.9v0.8
		c1.4-0.1,3.5-0.1,4.7-0.1c1.2,0,3.2,0,4.6,0.1v-0.8c-1.2-0.2-1.8-0.8-2-1.5c-0.3-0.8-0.3-1.8-0.3-3.5V15.8c0-4.4,0-5.4,0.7-6.2
		C268.1,9.1,268.7,8.9,269.3,8.7 M200.4,20.2c0-4.3-1.4-8.3-5-10.5c-2.3-1.5-5.2-1.7-7.7-1.7c-1.9,0-3.2,0.1-5,0.1
		c-1.7,0-3.2-0.1-3.8-0.1v0.8c1.2,0.2,1.8,0.8,2,1.5c0.3,0.8,0.3,1.8,0.3,3.5v11.9c0,4.4,0,5.4-0.7,6.2c-0.4,0.5-1.1,0.8-1.7,0.9
		v0.8c0.7,0,2.2-0.1,3.8-0.1c1.4,0,2.7,0.1,4.3,0.1c4.8,0,8.1-0.7,10.8-4.1C199.6,26.9,200.4,23.5,200.4,20.2"/>
	<path class="st0" d="M171.4,20.8c0,5.3-0.8,11.3-5.3,11.3c-4.7,0-5.2-5.8-5.2-11.3c0-5.3,0.8-11.3,5.3-11.3
		C170.9,9.5,171.4,15.3,171.4,20.8 M176.6,20.4c0-7.6-3.6-12.6-10.3-12.6c-7.2,0-10.5,5.6-10.5,13.3c0,7.6,3.6,12.6,10.3,12.6
		C173.3,33.7,176.6,28.1,176.6,20.4"/>
	<path class="st0" d="M153.7,15.1c0-4.2-2.5-6-4.8-6.7c-1.5-0.4-3.5-0.4-4-0.4c-2.3,0-2.5,0.1-4.9,0.1c-1.6,0-2.7,0-4.4-0.1v0.8
		c1.2,0.2,1.8,0.8,2,1.5c0.3,0.8,0.3,1.8,0.3,3.5v11.9c0,4.4,0,5.4-0.7,6.2c-0.4,0.5-1.1,0.8-1.7,0.9v0.8c1.4-0.1,3.4-0.1,4.6-0.1
		c1.4,0,3.7,0,5.5,0.1v-0.8c-1.5-0.3-2.2-0.7-2.7-1.3c-0.4-0.6-0.5-1.3-0.5-3.2V9.6c0,0,0.7,0,1.6,0c1.8,0,4.6,0.4,4.6,5.9
		c0,3.1-1,6-3.9,6c-0.7,0-1.1-0.1-1.1-0.1l-0.1,0.8c0,0,0.8,0.4,2.4,0.4C152,22.7,153.7,17.9,153.7,15.1"/>
	<path class="st0" d="M133.2,26.5c0-4.2-2-5.7-4.8-7.6l-1.9-1.3c-2.2-1.5-3.5-2.2-3.5-4.4c0-1.6,0.7-3.7,4.3-3.7c3,0,3.6,2,4.3,4h1
		c-0.1-0.6-0.1-1.1-0.1-3c0-0.7,0.1-1.9,0.1-2.5L132,7.7c-0.3,0.3-0.7,0.4-1.1,0.4c-0.6,0-1-0.1-1.8-0.2c-0.8-0.1-1.5-0.2-2.6-0.2
		c-6,0-7.6,4-7.5,6.6c0,4,2.3,5.8,4.2,7.1l2,1.4c2,1.4,3.8,2.2,3.8,4.8c0,2.6-1.8,4.2-4.6,4.2c-2.6,0-3.5-1.1-4.8-4.3h-1
		c0,0,0.3,2,0.3,4.6l0,0.5c0.8,0.3,2.9,0.8,5.7,0.8C131.1,33.6,133.2,29.7,133.2,26.5"/>
	<path class="st0" d="M110.7,20.8c0,5.3-0.8,11.3-5.3,11.3c-4.7,0-5.2-5.8-5.2-11.3c0-5.3,0.8-11.3,5.3-11.3
		C110.2,9.5,110.7,15.3,110.7,20.8 M115.8,20.4c0-7.6-3.6-12.6-10.3-12.6c-7.2,0-10.5,5.6-10.5,13.3c0,7.6,3.6,12.6,10.3,12.6
		C112.6,33.7,115.8,28.1,115.8,20.4"/>
	<path class="st0" d="M92.8,8.7V8c-1.4,0.1-3.5,0.1-4.7,0.1s-3.2,0-4.6-0.1v0.8c1.2,0.2,1.8,0.8,2,1.5C86,11,86,12,86,13.7v5.6h-9.2
		v-3.5c0-4.4,0-5.4,0.7-6.2c0.4-0.5,1.1-0.8,1.7-0.9V8c-1.4,0.1-3.5,0.1-4.7,0.1s-3.2,0-4.6-0.1v0.8c1.2,0.2,1.8,0.8,2,1.5
		c0.3,0.8,0.3,1.8,0.3,3.5v11.9c0,4.4,0,5.4-0.7,6.2c-0.4,0.5-1.1,0.8-1.7,0.9v0.8c1.4-0.1,3.5-0.1,4.7-0.1s3.2,0,4.6,0.1v-0.8
		c-1.2-0.2-1.8-0.8-2-1.5c-0.3-0.8-0.3-1.8-0.3-3.5v-6.5H86v4.4c0,4.4,0,5.4-0.7,6.2c-0.4,0.5-1.1,0.8-1.7,0.9v0.8
		c1.4-0.1,3.5-0.1,4.7-0.1c1.2,0,3.2,0,4.6,0.1v-0.8c-1.2-0.2-1.8-0.8-2-1.5c-0.3-0.8-0.3-1.8-0.3-3.5V15.8c0-4.4,0-5.4,0.7-6.2
		C91.6,9.1,92.3,8.9,92.8,8.7"/>
	<path class="st0" d="M147,39.2v-0.8c-1.4,0.1-3.5,0.1-4.7,0.1c-1.2,0-3.2,0-4.6-0.1v0.8c1.2,0.2,1.8,0.8,2,1.5
		c0.3,0.8,0.3,1.8,0.3,3.5V56c0,4.4,0,5.4-0.7,6.2c-0.4,0.5-1.1,0.8-1.7,0.9v0.8c1.4-0.1,3.5-0.1,4.7-0.1c1.2,0,3.2,0,4.6,0.1v-0.8
		c-1.2-0.2-1.8-0.8-2-1.5c-0.3-0.8-0.3-1.8-0.3-3.5V46.3c0-4.4,0-5.4,0.7-6.2C145.8,39.6,146.4,39.3,147,39.2"/>
	<path class="st0" d="M137.1,39.2v-0.8c-0.9,0.1-2.3,0.1-3.4,0.1c-1,0-2.5,0-3.3-0.1v0.8c0.4,0.1,1,0.3,1.4,0.5
		c0.3,0.3,0.4,0.6,0.4,1c0,0.5-0.2,1.3-0.3,1.8l-4.2,14.9c-0.3,1.1-0.5,2.1-0.5,2.4c0-0.5-0.3-1.7-0.5-2.4l-4-14.8
		c-0.1-0.5-0.4-1.2-0.4-1.8c0-0.5,0.1-0.8,0.4-1.1c0.3-0.3,1-0.5,1.4-0.5v-0.8c-1.1,0.1-3.4,0.1-4.5,0.1c-0.9,0-3.4,0-4.3-0.1v0.8
		c1.8,0.5,2,1.8,2.7,4.3l5.8,20.5h3.9l6.8-21.3C135.2,40.6,135.6,39.5,137.1,39.2"/>
	<path class="st0" d="M109.7,51.2c0,5.3-0.8,11.3-5.3,11.3c-4.7,0-5.2-5.8-5.2-11.3c0-5.3,0.8-11.3,5.3-11.3
		C109.2,39.9,109.7,45.8,109.7,51.2 M114.9,50.8c0-7.6-3.6-12.6-10.3-12.6c-7.2,0-10.5,5.6-10.5,13.3c0,7.6,3.6,12.6,10.3,12.6
		C111.6,64.1,114.9,58.5,114.9,50.8"/>
	<path class="st0" d="M92.4,39.2v-0.8c-1.4,0.1-2.4,0.1-3.7,0.1c-1.2,0-2.2,0-3.5-0.1v0.8c1.2,0.2,1.8,0.8,2,1.5
		c0.3,0.8,0.3,1.8,0.3,3.5v13.2c-0.1-0.2-0.3-0.8-0.9-1.9l-9.3-17c-0.8,0.1-2.5,0.1-3.2,0.1c-1,0-3.3,0-4.3-0.1v0.8
		c1.2,0.2,1.8,0.8,2,1.5c0.3,0.8,0.3,1.8,0.3,3.5V56c0,4.4,0,5.4-0.7,6.2c-0.4,0.5-1.1,0.8-1.7,0.9v0.8c1.4-0.1,2.4-0.1,3.7-0.1
		c1.2,0,2.2,0,3.5,0.1v-0.8c-1.2-0.2-1.8-0.8-2-1.5c-0.3-0.8-0.3-1.8-0.3-3.5V43.1c0.1,0.2,0.3,0.8,0.8,1.6L86,64h3.9V46.3
		c0-4.4,0-5.4,0.7-6.2C91.1,39.6,91.8,39.3,92.4,39.2"/>
	<path class="st0" d="M188.1,38.5c-1.3,0-2.2,0-3.3-0.1v0.8c0.8,0.2,1.6,0.4,1.6,1.4c0,0.4-0.1,0.8-0.6,2.1l-3.4,8l-3.5-7.7
		c-0.5-1-0.7-1.5-0.7-2.3c0-0.9,0.8-1.3,1.8-1.5v-0.8c-0.9,0.1-3.1,0.1-4.4,0.1c-1.2,0-6.9,0-8,0c-1.2,0-2.2,0-3.5-0.1v0.8
		c1.2,0.2,1.8,0.8,2,1.5c0.3,0.8,0.3,1.8,0.3,3.5v13.2c-0.1-0.2-0.3-0.8-0.9-1.9l-9.3-17c-0.8,0.1-2.5,0.1-3.2,0.1
		c-1,0-3.3,0-4.3-0.1v0.8c1.2,0.2,1.8,0.8,2,1.5c0.3,0.8,0.3,1.8,0.3,3.5V56c0,4.4,0,5.4-0.7,6.2c-0.4,0.5-1.1,0.8-1.7,0.9v0.8
		c1.4-0.1,2.4-0.1,3.7-0.1c1.2,0,2.2,0,3.5,0.1v-0.8c-1.2-0.2-1.8-0.8-2-1.5c-0.3-0.8-0.3-1.8-0.3-3.5V43.1c0.1,0.2,0.3,0.8,0.8,1.6
		L164.9,64h3.9V46.3c0-4.4,0-5.2,0.7-6c0.4-0.5,1-0.8,1.5-0.8c0.5,0,0.9,0.2,1.4,0.7c0.5,0.6,1,1.5,1.8,3.1l4.8,10.4v2.7
		c0,3.9,0,5-0.8,5.7c-0.5,0.5-1.4,0.9-2.3,1v0.8c1.5-0.1,4.1-0.1,5.3-0.1c1,0,3.5,0,5.4,0.1v-0.8c-1-0.2-2.1-0.6-2.6-1.3
		c-0.3-0.5-0.5-1.2-0.5-3.6v-5.4c4.4-9.1,4.9-10,4.9-10c0.6-1.2,1-2.2,1.3-2.6c0.4-0.4,0.8-0.9,1.6-1v-0.8
		C190.7,38.5,189.4,38.5,188.1,38.5z"/>
	<path class="st0" d="M0,4.6v61.8h61.8V4.6H0z M26,8.7c-0.6,0.1-1.2,0.4-1.7,0.9c-0.7,0.8-0.7,1.8-0.7,6.2v11.9c0,1.7,0,2.7,0.3,3.5
		c0.3,0.7,0.8,1.2,2,1.5v0.8c-1.4-0.1-3.4-0.1-4.6-0.1c-1.2,0-3.4,0-4.8,0.1v-0.8c0.6-0.1,1.2-0.4,1.7-0.9C18.9,31,19,30,19,25.6
		v-4.4h-9v6.5c0,1.7,0,2.7,0.3,3.5c0.3,0.7,0.8,1.2,2,1.5v0.8c-1.4-0.1-3.4-0.1-4.6-0.1c-1.2,0-3.4,0-4.8,0.1v-0.8
		c0.6-0.1,1.2-0.4,1.7-0.9C5.4,31,5.4,30,5.4,25.6V13.7c0-1.7,0-2.7-0.3-3.5C4.8,9.5,4.3,9,3,8.7V8c1.4,0.1,3.4,0.1,4.6,0.1
		c1.2,0,3.4,0,4.8-0.1v0.8c-0.6,0.1-1.2,0.4-1.7,0.9c-0.7,0.8-0.7,1.8-0.7,6.2v3.5h9v-5.6c0-1.7,0-2.7-0.3-3.5
		c-0.3-0.7-0.8-1.2-2-1.5V8C18,8.1,20,8.1,21.3,8.1c1.2,0,3.4,0,4.8-0.1V8.7z M50.7,8.7c-0.6,0.1-1.2,0.4-1.7,0.9
		c-0.7,0.8-0.7,1.8-0.7,6.2v17.7h-3.9L33.8,14.4c-0.4-0.8-0.7-1.5-0.8-1.7v15c0,1.7,0,2.7,0.3,3.5c0.3,0.7,0.8,1.2,2,1.5v0.8
		c-1.4-0.1-2.3-0.1-3.5-0.1c-1.2,0-2.3,0-3.7,0.1v-0.8c0.6-0.1,1.2-0.4,1.7-0.9c0.7-0.8,0.7-1.8,0.7-6.2V13.7c0-1.7,0-2.7-0.3-3.5
		c-0.3-0.7-0.8-1.2-2-1.5V8c1,0.1,3.3,0.1,4.3,0.1c0.7,0,2.4,0,3.2-0.1L45,24.9c0.5,1.1,0.8,1.8,0.9,2V13.7c0-1.7,0-2.7-0.3-3.5
		c-0.3-0.7-0.8-1.2-2-1.5V8c1.4,0.1,2.3,0.1,3.5,0.1c1.2,0,2.3,0,3.7-0.1V8.7z"/>
</g>
</svg>
