<?xml version="1.0" encoding="utf-8"?>
<!-- Generator: Adobe Illustrator 16.0.0, SVG Export Plug-In . SVG Version: 6.00 Build 0)  -->
<!DOCTYPE svg PUBLIC "-//W3C//DTD SVG 1.1//EN" "http://www.w3.org/Graphics/SVG/1.1/DTD/svg11.dtd" [
	<!ENTITY ns_flows "http://ns.adobe.com/Flows/1.0/">
	<!ENTITY ns_extend "http://ns.adobe.com/Extensibility/1.0/">
	<!ENTITY ns_ai "http://ns.adobe.com/AdobeIllustrator/10.0/">
	<!ENTITY ns_graphs "http://ns.adobe.com/Graphs/1.0/">
]>
<svg version="1.1" id="Vrstva_1" xmlns:x="&ns_extend;" xmlns:i="&ns_ai;" xmlns:graph="&ns_graphs;"
	 xmlns="http://www.w3.org/2000/svg" xmlns:xlink="http://www.w3.org/1999/xlink" xmlns:a="http://ns.adobe.com/AdobeSVGViewerExtensions/3.0/"
	 x="0px" y="0px" width="297.6px" height="80.7px" viewBox="0 0 297.6 80.7" style="enable-background:new 0 0 297.6 80.7;"
	 xml:space="preserve">
<style type="text/css">
<![CDATA[
	.st0{fill:black;}
]]>
</style>
<g>
	<g>
		<path class="st0" d="M191.7,10.5c-1,0-1.7,0.1-3,0.4v16.3c1,0.2,1.5,0.2,2.4,0.2c2.7,0,4.6-0.5,6-1.5c2.2-1.5,3.4-3.8,3.4-6.7
			c0-2.4-0.8-4.7-2.3-6.2C196.8,11.4,194.4,10.5,191.7,10.5z"/>
		<path class="st0" d="M46.1,10.2c-4.8,0-8.3,3.5-8.3,8.4c0,2.6,1,5.1,2.6,7c1.5,1.6,3.3,2.4,5.7,2.4c4.9,0,8.2-3.5,8.2-8.6
			c0-2.4-0.8-4.7-2.2-6.4C50.5,11.2,48.5,10.2,46.1,10.2z"/>
		<path class="st0" d="M0,0v38.8h297.6V0H0z M9.3,29.9c1.2-0.6,1.5-1.4,1.5-4.2V12.6c0-2.8-0.2-3.5-1.5-4.2h6.2
			C14.2,9.1,14,9.8,14,12.6v13.1c0,2.8,0.2,3.5,1.4,4.2H9.3z M25.4,30c-2.5,0-3-0.5-7.3-6.4c-1-1.4-1.9-2.6-2.8-3.9
			c-0.4-0.5-0.6-0.8-0.8-1l4.5-6c1-1.4,1.6-2.4,1.6-2.9c0-0.6-0.3-1-1-1.4h5.9L18,18c4.8,6.4,5.3,7.2,6.6,8.6c0.9,1,1.9,1.8,3.9,3.2
			C27.7,29.9,26.4,30,25.4,30z M46,30.4c-6.8,0-11.9-4.9-11.9-11.3c0-2.9,1.5-6.1,3.6-8.1c2.3-2,5.4-3.1,8.5-3.1
			C53,7.9,58,12.7,58,19C58,25.4,52.7,30.4,46,30.4z M89.7,29.9c1-0.5,1.4-1.1,1.4-2.5c0-0.3,0-0.7-0.2-1.8l-1.7-13.9l-7.3,18.7
			c-1.5-1.3-1.9-1.8-2.7-3.6l-6.4-15.1L70.9,26c-0.1,0.7-0.2,1.4-0.2,1.6c0,1.1,0.3,1.5,1.3,2.3h-5.3c1-1,1.5-2.1,1.8-4.3l1.9-13.7
			c0.2-1.3,0.2-1.3,0.2-1.7c0-0.7-0.3-1.2-1.1-1.8h5.7c0,0.4,0,0.5,0.3,1.1l6.3,14.7l5.3-13.5c0.6-1.5,0.6-1.5,0.6-2.3h5.6
			c-0.7,0.3-1,1-1,2c0,0.4,0,0.8,0.1,1.2l2,14.4c0.2,2.3,0.5,2.9,1.7,3.9H89.7z M113.3,20.2c-1,0-1.5-0.1-2.3-0.5
			c2-0.2,3.1-0.6,4.1-1.5c1.2-1,1.8-2.2,1.8-3.6c0-2.5-1.8-4-4.7-4c-0.9,0-1.4,0.1-2.3,0.2V26c0,2.1,0.4,3,1.7,3.8h-6.4
			c1.2-0.6,1.5-1.4,1.5-4.2V12.6c0-2.8-0.2-3.5-1.5-4.2h3.1c1,0,1,0,3.6,0h1c1.7,0,3,0.2,4.1,0.7c2.1,1,3.5,2.9,3.5,5
			C120.5,17.5,117.2,20.2,113.3,20.2z M143.1,29.9h-13.6c1.2-0.7,1.5-1.4,1.5-4.2V12.6c0-2.8-0.2-3.5-1.5-4.2h10.8
			c0.6,0,0.8,0,1.2-0.2V12c-1-1-1.9-1.3-4-1.3c-1.5,0-2.4,0.1-3.3,0.2V17h4.4c0.5,0,0.7,0,1.1-0.2v3.5c-0.5-0.7-1.1-0.9-2.6-0.9
			h-2.9v7.7c1.5,0.2,2.6,0.3,4,0.3c2.8,0,4.6-0.5,6.4-1.9L143.1,29.9z M172.8,12.2v18.7c-1.8-0.6-3.1-1.6-4.5-3.4L156.9,13v13
			c0,2.1,0.4,2.9,1.7,3.8h-5.8c1.4-0.9,1.7-1.7,1.7-3.8V12.2c0-2.1-0.4-2.9-1.7-3.8h4.8c0.1,0.3,0.2,0.4,0.8,1.2L170.4,25V12.2
			c0-2.1-0.4-3-1.7-3.8h5.8C173.2,9.3,172.8,10.1,172.8,12.2z M197.8,28.8c-1.4,0.6-2.5,0.9-4.8,1c-0.9,0-2.9,0.1-3.8,0.1H184
			c1-0.9,1-0.9,1.2-1.4c0.2-0.6,0.3-1.4,0.3-2.9v-13c0-2.8-0.2-3.5-1.5-4.2h3.3c0.6,0,1.3,0,2.2,0c1,0,2,0,2.5,0
			c3.6,0,6.1,0.7,8.3,2.5c2.5,1.9,3.8,4.8,3.8,8C204.1,23.2,201.6,27.1,197.8,28.8z M219.7,29.9h-6.2c1.2-0.6,1.5-1.4,1.5-4.2V12.6
			c0-2.8-0.2-3.5-1.5-4.2h6.2c-1.2,0.6-1.4,1.4-1.4,4.2v13.1C218.2,28.5,218.5,29.2,219.7,29.9z M249.5,29.9h-4.6v-2.3
			c-1.5,1.8-3.7,2.8-6.4,2.8c-3,0-5.6-1.3-6.8-3.4c-0.6-1.2-0.8-2.2-0.8-4.9v-9.5c0-2.8-0.2-3.5-1.5-4.2h6.2
			c-1.2,0.6-1.5,1.4-1.5,4.2v9.5c0,2.1,0.2,3,1,4c1,1.2,2.5,1.9,4.2,1.9c1.9,0,3.7-0.9,4.7-2.2c0.5-0.7,0.7-1.4,0.7-2.6V12.6
			c0-2.8-0.2-3.5-1.5-4.2h6.2c-1.2,0.6-1.5,1.4-1.5,4.2v13.1C248,28.5,248.3,29.2,249.5,29.9z M281.5,29.9c1-0.5,1.4-1.1,1.4-2.5
			c0-0.3,0-0.7-0.2-1.8L281,11.6l-7.3,18.7c-1.5-1.3-1.9-1.8-2.7-3.6l-6.4-15.1L262.7,26c-0.1,0.7-0.2,1.4-0.2,1.6
			c0,1.1,0.3,1.5,1.3,2.3h-5.3c1-1,1.5-2.1,1.8-4.3l1.9-13.7c0.2-1.3,0.2-1.3,0.2-1.7c0-0.7-0.3-1.2-1.1-1.8h5.7
			c0,0.4,0,0.5,0.3,1.1l6.3,14.7l5.3-13.5c0.6-1.5,0.6-1.5,0.6-2.3h5.6c-0.7,0.3-1,1-1,2c0,0.4,0,0.8,0.1,1.2l2,14.4
			c0.2,2.3,0.5,2.9,1.7,3.9H281.5z"/>
	</g>
	<g>
		<path class="st0" d="M0,39.4v41.3h297.6V39.4H0z M51.5,71.8c1-0.5,1.4-1.2,1.4-2.7c0-0.4,0-0.7-0.2-1.8L51,52.6l-7.7,19.6
			c-1.6-1.4-2-1.9-2.8-3.8l-6.7-15.9l-2,15.1c-0.1,0.7-0.2,1.5-0.2,1.7c0,1.1,0.3,1.6,1.4,2.4h-5.6c1.1-1.1,1.6-2.2,1.8-4.5l2-14.4
			c0.2-1.4,0.2-1.4,0.2-1.8c0-0.8-0.3-1.2-1.2-1.9h6c0,0.4,0,0.5,0.3,1.2l6.6,15.5l5.5-14.2c0.6-1.6,0.6-1.6,0.6-2.5h5.9
			c-0.7,0.4-1.1,1.1-1.1,2.1c0,0.4,0,0.8,0.1,1.3l2.1,15.1c0.3,2.4,0.6,3,1.8,4.1H51.5z M84.4,71.8H70.1c1.3-0.7,1.5-1.5,1.5-4.4
			V53.6c0-2.9-0.3-3.7-1.5-4.4h11.4c0.6,0,0.8,0,1.3-0.2v4c-1.1-1.1-2-1.4-4.2-1.4c-1.6,0-2.5,0.1-3.5,0.2v6.4h4.6
			c0.5,0,0.7,0,1.2-0.2v3.6c-0.6-0.7-1.2-0.9-2.7-0.9h-3v8.1c1.6,0.3,2.7,0.4,4.2,0.4c3,0,4.8-0.6,6.7-1.9L84.4,71.8z M111.9,70.6
			c-1.5,0.6-2.6,0.9-5.1,1c-1,0-3.1,0.1-4,0.1h-5.5c1-0.9,1-0.9,1.2-1.5c0.2-0.6,0.3-1.5,0.3-3.1V53.6c0-2.9-0.3-3.7-1.5-4.4h3.4
			c0.6,0,1.4,0,2.3,0c1,0,2.1,0,2.6,0c3.8,0,6.4,0.8,8.8,2.7c2.6,2,4,5,4,8.4C118.5,64.8,115.9,68.9,111.9,70.6z M137.4,71.8h-6.5
			c1.3-0.7,1.5-1.5,1.5-4.4V53.6c0-2.9-0.3-3.7-1.5-4.4h6.5c-1.3,0.7-1.5,1.5-1.5,4.4v13.8C135.9,70.3,136.1,71.1,137.4,71.8z
			 M168.1,71.3c-1.8,0.7-3.3,1-5.3,1c-4.3,0-7.8-1.4-10.1-3.9c-1.9-2.1-2.9-4.9-2.9-7.9c0-6.8,5.2-11.9,12.1-11.9
			c1.7,0,3.8,0.3,6.2,0.9v3.9c-2.2-1.3-4.2-1.9-6.2-1.9c-4.8,0-8.2,3.5-8.2,8.3c0,5.4,3.8,9.6,8.7,9.6c2.3,0,4.5-0.6,7.5-2.2
			L168.1,71.3z M187.8,71.8h-6.5c1.3-0.7,1.5-1.5,1.5-4.4V53.6c0-2.9-0.3-3.7-1.5-4.4h6.5c-1.3,0.7-1.5,1.5-1.5,4.4v13.8
			C186.3,70.3,186.5,71.1,187.8,71.8z M181.5,47.4l6.6-5.3l1.9,2.5L181.5,47.4z M221.4,53.2v19.6c-1.9-0.6-3.3-1.7-4.7-3.6l-12-15.2
			v13.7c0,2.2,0.4,3.1,1.8,4h-6.1c1.4-0.9,1.8-1.8,1.8-4V53.2c0-2.2-0.4-3.1-1.8-4h5c0.1,0.3,0.2,0.4,0.8,1.3l12.7,16.2V53.2
			c0-2.2-0.4-3.1-1.8-4h6.1C221.7,50.2,221.4,51,221.4,53.2z M248.8,71.8h-6.6c1.3-0.9,1.5-1.5,1.5-4.4v-5.5l-5.9-9.5
			c-1.2-1.9-1.6-2.3-3.1-3.2l3.5-0.1h0.4c1.1,0,1.2,0.1,2.1,1.6l5.2,8.4l4.3-6.6c0.5-0.6,0.6-1.2,0.6-1.7c0-0.6-0.5-1.3-1.2-1.7h5.9
			l-8.4,12.7v5.8C247.1,70,247.4,70.5,248.8,71.8z"/>
		<path class="st0" d="M105.5,51.5c-1.1,0-1.8,0.1-3.1,0.4V69c1,0.2,1.6,0.2,2.6,0.2c2.8,0,4.8-0.5,6.3-1.5c2.3-1.6,3.5-4,3.5-7.1
			c0-2.5-0.9-4.9-2.4-6.6C110.8,52.4,108.4,51.5,105.5,51.5z"/>
	</g>
</g>
</svg>
