<?xml version="1.0" encoding="utf-8"?>
<!-- Generator: Adobe Illustrator 16.0.3, SVG Export Plug-In . SVG Version: 6.00 Build 0)  -->
<!DOCTYPE svg PUBLIC "-//W3C//DTD SVG 1.1//EN" "http://www.w3.org/Graphics/SVG/1.1/DTD/svg11.dtd" [
	<!ENTITY ns_flows "http://ns.adobe.com/Flows/1.0/">
	<!ENTITY ns_extend "http://ns.adobe.com/Extensibility/1.0/">
	<!ENTITY ns_ai "http://ns.adobe.com/AdobeIllustrator/10.0/">
	<!ENTITY ns_graphs "http://ns.adobe.com/Graphs/1.0/">
]>
<svg version="1.1" id="Vrstva_1" xmlns:x="&ns_extend;" xmlns:i="&ns_ai;" xmlns:graph="&ns_graphs;"
	 xmlns="http://www.w3.org/2000/svg" xmlns:xlink="http://www.w3.org/1999/xlink" xmlns:a="http://ns.adobe.com/AdobeSVGViewerExtensions/3.0/"
	 x="0px" y="0px" width="299.3px" height="94.1px" viewBox="0 0 299.3 94.1" style="enable-background:new 0 0 299.3 94.1;"
	 xml:space="preserve">
<style type="text/css">
<![CDATA[
	.st0{fill-rule:evenodd;clip-rule:evenodd;fill:black;}
]]>
</style>
<g>
	<g>
		<path class="st0" d="M0,59.1C0.5,59,1,59,1.5,59c4.5,0,9-0.2,13.5,0c4.4,0.2,8.7,1.2,12.2,4.2c2.4,2.1,3.7,5,4.4,8.1
			c0.7,3.3,0.8,6.8,0.1,10c-1.3,5.3-4.1,9.7-9.9,11.2c-1.4,0.4-2.8,0.6-4.3,0.6c-5.5,0.1-11.1,0-16.6,0c-0.3,0-0.6-0.1-0.9-0.1
			C0,81.8,0,70.4,0,59.1z M10,68.4c0,5.2,0,10.9,0,16c0,0.3,0.6,0.2,1,0.2c1.5,0,3-0.1,4.4-0.2c3.2-0.3,5.4-2.1,5.9-5.2
			c0.2-1.4,0.2-2.7,0.2-4.1c-0.1-5-2.7-6.5-5.3-6.7C14.3,68.2,12.2,68.4,10,68.4z"/>
		<path class="st0" d="M34.3,44.9c-0.6,0.1-1,0.1-1.3,0.1c-3.3,0-6.7-0.1-10,0c-1.6,0-1.9-1.3-2.5-2.2c-2.2-3.4-4.3-6.9-6.4-10.3
			c-0.2-0.3-0.5-0.6-0.9-1c-1.2,1.3-2.5,2.3-2.9,4.1c-0.1,0.4-0.1,0.8-0.1,1.2c0,2.6-0.2,4.5-0.1,6.7c0,1.1-0.2,1.1-1.2,1
			c-3-0.1-5.9,0-8.9,0V10.9c3.1,0,6.3-0.1,9.4-0.1c0.3,0,0.8,0.8,0.8,1.2c0.1,2.6,0,5.3,0,7.9v1.7c0,0,0.1,0,0.1-0.1
			c0.4-0.2,0.6-0.3,0.7-0.5c1.8-2,3.6-4,5.4-6c1.1-1.2,2.2-2.5,3.4-3.6c0.3-0.3,0.7-0.5,1.1-0.5c3.7,0,7.5,0,11.2,0
			c0.1,0,0.2,0.1,0.5,0.2c-0.1,0.2-0.1,0.5-0.3,0.6c-3.8,4-7.7,8-11.5,12.1c-0.3,0.3-0.4,1.2-0.1,1.6c3.5,5.1,7.1,10.2,10.7,15.3
			C32.5,41.8,33.3,43.3,34.3,44.9z"/>
		<path class="st0" d="M147.6,78c3.2,1.3,4.2,3.7,4.8,6.5c0.2,1.1,0.1,2.2,0.2,3.4c0.1,1.7,0.3,3.4,0.5,5.3c-2.2,0-4.5,0-6.9,0
			c-3.6,0-3.5,0-3.7-3.6c-0.1-1.6-0.3-3.2-0.6-4.8c-0.4-1.9-1.8-3-3.8-3c-1.3-0.1-5.5-0.1-5.5-0.1s0,0.4,0,1.5
			c0.1,2.9,0,10.1,0,10.1s-0.3,0-1.3,0c-2.5,0-5.1-0.1-7.6,0c-1.1,0-1.5,0-1.5,0s0-22.4,0-32.9c0-1.1,0-1.4,0-1.4s11.6-0.2,16.6,0.1
			c3.2,0.2,6.6,0.6,9.5,2.3c5.1,2.9,6.4,9.7,2.3,14.4C150,76.6,148.9,77.1,147.6,78z M136.9,74.1C136.9,74.1,136.9,74.2,136.9,74.1
			c1,0.1,2,0.2,3,0c0.8-0.2,1.9-0.6,2.4-1.2c1.6-2.2,0.3-5.1-2.4-5.3c-2.1-0.2-4.2-0.1-6.3,0c-0.3,0-0.8,0.5-0.8,0.8
			c-0.1,1.6,0,3.1,0,4.7c0,0.7,0.2,1,1,1C134.8,74.1,135.8,74.1,136.9,74.1z"/>
		<path class="st0" d="M159,59c0.5,0,1,0,1.4,0c8.5,0,17,0,25.4,0c1.3,0,1.7,0,1.7,0s0,6.7,0,9.4c-6.3,0-12.4,0-18.7,0
			c0,1.2,0,2.3,0,3.3c0,1,0,0.9,0,0.9s10,0,14.4,0c0.6,0,1.1,0,1.8,0c0,2.5,0,4.9,0,7.5c-5.3,0-10.7,0-16.2,0c0,1.4,0,2.2,0.1,3.7
			c0,0.6,0,0.8,0,0.8s10.5,0,15,0c1,0,1.8,0.1,2.8,0.1c0.7,0,1.2,0,1.2,0l0,8.5c0,0-0.8,0.1-1.5,0.1c-8,0-15.9,0-23.8,0
			c-1.2,0-2.4,0-3.6,0C159,81.8,159,70.5,159,59z"/>
		<path class="st0" d="M51.5,58.5c2.9-0.3,4.5-0.1,6.6,0.4c6.2,1.3,10.3,5.2,12.2,11.4c0.9,3,1.1,6,0.6,9.1
			c-0.5,3.4-1.7,6.4-3.9,9.1C65.3,90.7,63,92,60.5,93c-1.9,0.7-3.9,1-6.1,1.1c-4.6,0.1-8.6-1.2-12.1-4.1c-2.4-2-3.8-4.5-4.7-7.5
			c-1.1-3.6-1.1-7.4-0.4-10.9c0.9-4.8,3.4-8.8,8-11.1C46.5,59.7,48.5,58.8,51.5,58.5z M47.1,76.4c0,2.2,0.4,4.3,1.5,6.3
			c2.2,3.8,7.8,4.2,10.3,0.5c1.4-2,1.8-4.3,1.8-6.9c0-3.1-0.7-5.7-2.9-8c-1.7-1.7-5.4-1.8-7.3-0.4C47.7,70.1,47.1,73.1,47.1,76.4z"
			/>
		<path class="st0" d="M141.9,10c2.9-0.3,4.5-0.1,6.6,0.4c6.2,1.3,10.3,5.2,12.2,11.4c0.9,3,1.1,6,0.6,9.1c-0.5,3.4-1.7,6.4-3.9,9.1
			c-1.8,2.2-4.1,3.6-6.6,4.5c-1.9,0.7-3.9,1-6.1,1.1c-4.6,0.1-8.6-1.2-12.1-4.1c-2.4-2-3.8-4.5-4.7-7.5c-1.1-3.6-1.1-7.4-0.4-10.9
			c0.9-4.8,3.4-8.8,8-11.1C136.9,11.3,138.9,10.4,141.9,10z M137.5,28c0,2.2,0.4,4.3,1.5,6.3c2.2,3.8,7.8,4.2,10.3,0.5
			c1.4-2,1.8-4.3,1.8-6.9c0-3.1-0.7-5.7-2.9-8c-1.7-1.7-5.4-1.8-7.3-0.4C138.1,21.6,137.5,24.7,137.5,28z"/>
		<path class="st0" d="M225.2,80.5c-0.6,5.6-3.1,9.6-7.9,11.9c-1.6,0.8-3,1.3-5.3,1.5c-5.1,0.2-9.8-0.4-13.8-4.1
			c-2.7-2.5-4.6-5.5-5.2-9c-1.1-6-0.4-11.8,3.7-16.6c2.8-3.2,6.3-5,10.6-5.5c4.6-0.5,8.6,0.7,12.3,3.4c3.1,2.3,5.1,5.4,5.2,9.6
			c-3.2,0-6.4,0-9.7,0c-0.4-0.8-0.7-1.7-1.1-2.5c-1.8-3-8.2-3.4-10.1,1.5c-0.6,1.5-1.1,2.9-1.2,4.7c-0.1,2,0.2,3.3,0.6,4.8
			c1,3.6,2.8,5.7,6.9,5.4c2.5-0.1,3.8-1.7,4.4-3.9c0.3-1,0.3-1.3,0.3-1.3S222.1,80.5,225.2,80.5z"/>
		<path class="st0" d="M86,59c3.5,0,10.3,0.1,10.3,0.1s0.1,0.5,0.2,0.8c0.8,3.1,1.6,6.3,2.4,9.4c0.8,3.1,1.7,6.2,2.5,9.4
			c0.2,0.8,0.6,2.5,0.6,2.5l0.2,0.9c0,0,1.8-7.1,2.6-10.2c1.1-4,2.1-8.1,3.3-12.1c0.1-0.3,0.2-0.7,0.2-0.7s7,0,10.6,0
			c-0.5,1.6-1,3-1.4,4.4c-1.4,4.5-2.7,8.9-4.1,13.4c-0.8,2.7-1.7,5.5-2.6,8.2c-0.8,2.5-2.7,8.2-2.7,8.2s-0.4,0-0.8,0
			c-3.6,0.1-7.3,0-11,0C93,81.8,89.6,70.6,86,59z"/>
		<path class="st0" d="M186.5,10.7c3.6,0,7.1-0.1,10.6,0.1c-0.9,2.8-1.7,5.2-2.5,7.7c-0.7,2.3-1.4,4.6-2.1,6.9
			c-1,3.3-2.1,6.7-3.1,10c-0.9,2.7-1.8,5.4-2.7,8.1c-0.5,1.5-0.6,1.6-2.3,1.6c-2.9,0-6.1,0-9-0.1c-0.4,0-0.8-0.4-0.9-0.7
			c-1.2-3.9-2.3-7.9-3.5-11.8c-1.3-4.2-2.6-8.4-3.9-12.6c-0.9-2.9-1.8-5.8-2.7-8.9c0.4-0.1,0.7-0.2,1.1-0.2c2.6,0,5.3,0,7.9,0
			c1.4,0,1.4,0.2,1.7,1.3c1,4.3,2.3,8.6,3.4,12.9c0.7,2.6,1.4,6.1,1.9,8.7C180.5,33.7,184.5,18.2,186.5,10.7z"/>
		<path class="st0" d="M107.6,4c0.6-0.8,1-1.5,1.4-2c1.3-1.7,1.8-1.9,3.4-1.9c1.6,0,3,0,4.9,0c-1.9,2.4-3.4,4.6-5.1,6.6
			c-0.3,0.4-1,0.7-1.5,0.7c-1.7,0.1-3.3,0.1-5,0.1c-1.2,0-2-0.1-2.7-1.2c-1.2-1.8-2.6-3.5-3.9-5.2c-0.2-0.2-0.4-0.5-0.6-0.9
			c2.2,0,4.5,0,6.6,0c0.6,0,0.7,0.4,0.9,0.8C106.3,1.9,106.9,2.8,107.6,4z"/>
		<path class="st0" d="M89.8,0c-2,2.4-3.7,4.5-5.6,6.4c-0.4,0.5-1.2,0.8-1.9,0.9c-1.4,0.1-2.9,0-4.6,0c0.8-2.4,1.5-4.6,2.3-6.8
			C80.1,0.3,80.5,0,80.8,0C83.7,0,86.5,0,89.8,0z"/>
	</g>
	<path class="st0" d="M293.1,76c-1.6-4.5-6.6-17.1-6.6-17.1c-0.1,0-0.5,0-3.5,0h-6.2c-4.2,11.4-8.2,22.5-12.3,33.8
		c-0.4-0.5-0.6-0.7-0.8-0.9c-4.1-6-8.3-12-12.4-17.9c-0.3-0.4-0.8-1-0.8-1s0.7-0.7,1-1.1c1-1,2-2,3-3c2-2.1,4-4.2,6-6.3
		c1-1,2.1-2.3,3.1-3.4c-0.5,0-0.6,0-0.8,0c-3.8,0-7.6,0-11.4,0c-0.3,0-0.7,0-0.7,0s-2.1,2.3-3,3.3c-2.1,2.3-4.2,4.5-6.3,6.8
		c-0.2,0.2-0.4,0.5-0.9,0.9c-0.1,0.1-0.2,0.2-0.3,0.3V59.1h-9.8c0,11.4-0.1,22.3-0.1,33.7c3.3,0,6.7,0.1,10.1,0.1
		c0-2.6-0.1-4.9-0.1-7.2c0-0.7,0.1-1.4,0.3-1.9c0.5-1.6,1.7-2.6,2.9-3.8c0.2,0.2,0.4,0.4,0.4,0.4s4.9,7.5,7.1,11.4
		c0.6,1.1,1.3,1.4,2.5,1.4c5.9,0,21,0,21,0l1.5-4.7l11.1,0c0,0,1,2.8,1.4,3.7c0.2,0.8,0.3,1,0.3,1s4.5,0,6.3,0h4.2
		C297.2,87.3,295.2,81.7,293.1,76z M278.5,81.3c1.1-3.2,2.1-6.2,3.1-9.1c0.2,0,0.1-0.5,0.3-0.5c0.1,0.2,0.1,0.4,0.2,0.5h0
		c0.2,0.6,0.4,1.2,0.6,1.8c0.8,2.4,1.6,5,2.3,7.4H278.5z"/>
	<path class="st0" d="M68.8,39.6c0.1-4-0.6-7.5-4.3-9.7c-0.2-0.1-0.6-0.3-0.8-0.5c0.3-0.2,0.7-0.4,0.9-0.5c3.9-2.3,5.6-5.8,4.5-10.1
		c-0.4-1.7-1.5-3.4-2.7-4.7c-1.9-2.1-6.2-3.4-11.3-3.4H49c-3,0-6,0-8.9,0h0c-0.9,0-1.2,0.3-1.2,1.2c0,10.6,0,21.2,0,31.8
		c0,1,0.4,1.1,1.4,1.1c2.3,0,4.5,0,6.8,0c1.9,0,1.9,0.2,1.9-1.8v-9.8c0.1,0,0.1,0,0.2,0c1.3-0.1,4.4-0.3,5.5-0.1
		c2.9,0.5,3.7,2.2,4,5.1c0.2,1.8,0.3,3.7,0.6,5.5c0.1,0.9,0.6,1.3,1.5,1.2c2.6-0.1,5.3,0,7.9,0c0.4,0,0.7,0.1,1.1,0
		C69.2,43.1,68.8,41.3,68.8,39.6z M58.9,23.5c0,0.1-0.1,0.2-0.1,0.3c-0.5,1.2-1.7,1.8-3.3,1.7c-2.2,0-4.2,0-6.5,0h-0.2
		c0-1.6,0-3.3,0-5c0-0.4,0.1-0.7,0.1-1.2H49c2.7,0,5.3-0.1,7.9,0.1c1.3,0.1,1.8,1.4,2,2.7C59,22.6,59,23.1,58.9,23.5z"/>
	<rect x="75.7" y="10.7" class="st0" width="10.5" height="34.3"/>
	<path class="st0" d="M236.1,45h-3.4c-2.6,0-5.6,0.1-8.3,0c-0.7,0-1.2-0.5-1.6-1.1c-2.4-3.6-4.6-7.3-6.9-11c-0.3-0.4-0.6-0.8-1-1.2
		c-0.7,0.6-1.3,1.2-1.9,1.7c-0.8,0.7-1.2,0.8-1.1,1.9c0.1,2.9,0,6.5,0,9.6H208c-1.9,0-3.8,0-5.7,0c-0.3,0-0.5-0.6-0.8-1
		c-0.1-0.3-0.2-0.7-0.2-1c0-10.1,0-20.2,0-30.3c0-1.3,0.4-1.8,1.5-1.9h1.3c2.5,0,5,0,7.7,0h0.1c0,3.6,0,10.5,0,10.5s0,0.5,0.1,0.5
		c2.4-2.6,5-5.6,7.4-8.1c0.8-0.9,1.6-1.7,2.5-2.6c0.2-0.2,0.7-0.4,1-0.4c3.5,0,7.1,0,10.6,0c0.3,0,0.7-0.1,1.3,0.1
		c-0.7,0.8-1.4,1.7-2,2.3c-3.4,3.5-10.8,11.3-10.8,11.3s0,0,0.5,0.7c4.4,6.3,8.7,12.6,13,18.9C235.6,44.2,235.8,44.4,236.1,45z"/>
	<path class="st0" d="M271.4,10.7c-0.3,0.5-0.4,0.8-0.5,1c-2.5,4.3-5,8.6-7.5,13c-1,1.8-2.2,3.5-3.2,5.4c-0.6,0.9-0.9,1.5-1.1,2.1
		c-0.2,0.7-0.2,1.4-0.2,2.6c0.1,3.3,0,6.6,0,10c-0.3,0.1-0.5,0.2-0.8,0.2h-8.8c-0.5-0.1-0.8-0.3-0.9-0.7c-0.1-0.2-0.1-0.4-0.1-0.7
		c0-3.6,0.1-7.2,0-10.8c0-1-0.8-2.1-1.3-3c-2.7-4.8-5.4-9.6-8.1-14.3c-0.8-1.5-1.7-2.9-2.7-4.6c0.8,0,1.2-0.1,1.7-0.1
		c2.6,0,5.3,0,7.9,0c1,0,1.4,0,1.5,0c0,0,4.4,9.1,6,12.7c0.2,0,0.1,0.4,0.3,0.5c0.8-1.7,1.7-3.7,2.5-5.3c1.1-2.3,3.7-7.7,3.7-7.7
		s0.4,0,0.8,0C264.1,10.7,267.8,10.7,271.4,10.7z"/>
	<path class="st0" d="M122.4,44.3c0,0.2-0.5,0.5-0.9,0.6c-0.1,0-0.2,0-0.2,0c-3.1,0.1-6.2,0-9.3,0c-5.8,0-11.7,0-17.5,0
		c-1.2,0-1.7-0.3-1.6-1.6c0.1-1.8,0.1-3.6,0-5.4c-0.1-1.3,0.3-2.3,1.1-3.2c2.1-2.3,4.1-4.6,6.2-6.9c2.3-2.5,4.6-4.9,6.9-7.4
		c0.2-0.2,0.3-0.4,0.5-0.7c-0.5,0-0.9-0.1-1.2-0.1c-0.2,0-0.3,0-0.5,0c-3.6,0-7.2,0-10.8,0c-0.8,0-1.1-0.2-1.3-0.7v-7.4
		c0.1-0.5,0.4-0.7,0.9-0.8h7.5l17.2,0h0.9c0.8,0,1.1,0.3,1.1,1.1c0,2.1,0,4.1,0,6.2c0,0.4-0.3,0.9-0.6,1.3
		c-3.3,3.7-6.6,7.4-9.9,11.1c-1.6,1.8-3.3,3.6-5.1,5.4h16.7v0C122.5,38.6,122.5,41.5,122.4,44.3z"/>
</g>
</svg>
