<?xml version="1.0" encoding="UTF-8"?>
<!DOCTYPE svg PUBLIC "-//W3C//DTD SVG 1.1//EN" "http://www.w3.org/Graphics/SVG/1.1/DTD/svg11.dtd">
<!-- Creator: CorelDRAW -->
<svg xmlns="http://www.w3.org/2000/svg" xml:space="preserve" width="207.573mm" height="64.7145mm" style="shape-rendering:geometricPrecision; text-rendering:geometricPrecision; image-rendering:optimizeQuality; fill-rule:evenodd; clip-rule:evenodd"
viewBox="0 0 209.205 65.2235"
 xmlns:xlink="http://www.w3.org/1999/xlink">
 <defs>
  <style type="text/css">
   <![CDATA[
    .str1 {stroke:white;stroke-width:0.201573}
    .str2 {stroke:white;stroke-width:0.629311}
    .str0 {stroke:white;stroke-width:0.981257}
    .fil0 {fill:white}
   ]]>
  </style>
 </defs>
 <g id="Layer_x0020_1">
  <metadata id="CorelCorpID_0Corel-Layer"/>
  <polygon class="fil0 str0" points="7.39259,24.9286 7.39259,37.1297 0.490629,37.784 0.490629,10.863 7.39259,10.1107 7.39259,22.3772 16.4208,10.2415 23.192,12.0733 14.3927,23.7184 23.4209,36.1811 16.3227,38.0784 "/>
  <path class="fil0 str0" d="M42.0817 25.7792l7.32728 9.97675 -7.00013 2.15895 -8.04689 -12.2993 0 11.6451 -7.00013 0.392463 0 -26.8228 8.17772 0c3.17296,0 5.65896,0.55614 7.49075,1.60291 2.22436,1.30831 3.33654,3.33654 3.33654,6.08418 0,1.83169 -0.425218,3.36919 -1.27576,4.61229 -0.68686,1.04657 -1.70097,1.92986 -3.00938,2.64958l0 -0.000100786zm-7.71974 -2.71499l1.5374 0c1.21034,0 2.12619,-0.359808 2.7804,-1.14483 0.55614,-0.654306 0.850537,-1.50474 0.850537,-2.486 0,-1.40668 -0.523384,-2.38793 -1.50474,-2.94397 -0.588694,-0.327254 -1.34107,-0.523384 -2.25701,-0.523384l-1.40658 -0.000100786 0 7.09829z"/>
  <path class="fil0 str0" d="M55.1903 37.7185l0 -26.8556 6.73838 -0.68686 0 27.0191 -6.73838 0.523283zm0.883192 -33.1033l7.458 -3.95799 1.8972 3.36919 -7.7524 3.50011 -1.60281 -2.91132z"/>
  <path class="fil0 str0" d="M71.4177 10.8303l20.3789 0 -12.2339 20.0844 12.0375 0 -1.70097 6.31316 -21.8181 0 11.9394 -20.5096 -10.0095 0 1.40658 -5.88795zm16.4208 -8.14506l-6.215 4.80852 -5.98611 -4.80852 2.94397 -1.50464 3.1402 2.55141 3.27103 -2.58417 2.84591 1.5374z"/>
  <path class="fil0 str1" d="M110.052 16.4239c-2.02813,0 -3.79451,0.817882 -5.2665,2.42069 -1.47199,1.60271 -2.22436,3.53277 -2.22436,5.78978 0.000100786,1.92986 0.817782,3.59818 2.42059,5.00475 1.60291,1.40648 3.4346,2.09354 5.52814,2.09354 1.86455,-0.000100786 3.53277,-0.752371 5.03751,-2.32252 1.50474,-1.57015 2.25701,-3.33644 2.25701,-5.33181l-0.0326548 -0.654306c-0.196231,-2.02813 -1.04677,-3.66359 -2.4861,-5.00465 -1.47189,-1.30861 -3.20562,-1.99537 -5.23374,-1.99537l0.000100786 -0.000100786zm0.327052 -6.31316c3.92523,0 7.29452,1.40658 10.0422,4.15432 2.74784,2.74764 4.12156,6.08418 4.12156,10.0423 0.000100786,3.79431 -1.40658,7.03278 -4.21963,9.6496 -2.81315,2.64958 -6.2151,3.95809 -10.2058,3.95809 -4.15422,-0.000100786 -7.55616,-1.37392 -10.2057,-4.12156 -2.68233,-2.74784 -3.99074,-6.18234 -3.99074,-10.3039 0.000100786,-3.79461 1.40658,-6.96747 4.21973,-9.51888 2.81315,-2.55151 6.24775,-3.85992 10.2385,-3.85992l0 0z"/>
  <path class="fil0 str0" d="M110.052 16.4239c-2.02813,0 -3.79451,0.817882 -5.2665,2.42069 -1.47199,1.60271 -2.22436,3.53277 -2.22436,5.78978 0,1.92986 0.817782,3.59818 2.42059,5.00475 1.60291,1.40648 3.4346,2.09354 5.52814,2.09354 1.86455,-0.000100786 3.53277,-0.752371 5.03751,-2.32252 1.50474,-1.57015 2.25701,-3.33644 2.25701,-5.33181l-0.0326548 -0.654306c-0.196231,-2.02813 -1.04677,-3.66359 -2.4861,-5.00465 -1.47189,-1.30861 -3.20562,-1.99537 -5.23374,-1.99537l0.000100786 -0.000100786zm0.327052 -6.31316c3.92523,0 7.29452,1.40658 10.0422,4.15432 2.74784,2.74764 4.12156,6.08418 4.12156,10.0423 0,3.79431 -1.40658,7.03278 -4.21963,9.6496 -2.81315,2.64958 -6.2151,3.95809 -10.2058,3.95809 -4.15422,-0.000100786 -7.55616,-1.37392 -10.2057,-4.12156 -2.68233,-2.74784 -3.99074,-6.18234 -3.99074,-10.3039 0,-3.79461 1.40658,-6.96747 4.21973,-9.51888 2.81315,-2.55151 6.24775,-3.85992 10.2385,-3.85992l0 0z"/>
  <polygon class="fil0 str0" points="128.208,10.7976 135.143,9.58731 139.984,23.5875 145.414,9.58731 152.349,10.863 139.723,39.3541 "/>
  <polygon class="fil0 str0" points="163.964,24.9286 163.964,37.1297 157.062,37.784 157.062,10.863 163.964,10.1107 163.964,22.3772 172.992,10.2415 179.763,12.0733 170.964,23.7184 179.992,36.1811 172.894,38.0784 "/>
  <polygon class="fil0 str0" points="196.579,21.6576 201.812,10.1107 208.518,12.335 195.237,39.256 188.008,37.8495 192.882,28.625 182.677,12.4004 189.513,9.84896 "/>
  <polygon class="fil0 str2" points="0.41524,63.7042 0.41524,45.3069 11.0929,54.9775 11.0929,46.4396 15.3723,45.9991 15.3723,64.5222 4.75763,55.0403 4.75763,63.3267 "/>
  <path class="fil0 str2" d="M16.2973 63.3267l9.27205 -18.1456 9.29302 18.1874 -4.34229 0.943966 -1.86707 -3.90175 -6.3562 0 -1.65723 3.90175 -4.34229 -0.985793zm10.8663 -6.48218l-1.72012 -3.79693 -1.6782 3.79693 3.39832 0z"/>
  <polygon class="fil0 str2" points="46.8768,55.4599 46.8768,63.2846 42.4506,63.7042 42.4506,46.4396 46.8768,45.9572 46.8768,53.8237 52.6666,46.041 57.009,47.2159 51.366,54.6837 57.1558,62.6763 52.6037,63.8931 "/>
  <path class="fil0 str2" d="M57.4305 63.3267l9.27205 -18.1456 9.29312 18.1874 -4.34239 0.943966 -1.86697 -3.90175 -6.3562 0 -1.65723 3.90175 -4.34239 -0.985793zm10.8664 -6.48218l-1.72012 -3.79693 -1.6783 3.79693 3.39842 0z"/>
  <path class="fil0 str2" d="M78.1163 46.4186l13.0691 0 -7.84562 12.8803 7.71974 0 -1.09081 4.04849 -13.9921 0 7.65685 -13.1528 -6.41919 0 0.902039 -3.77597zm10.5308 -5.22336l-3.9858 3.08356 -3.83886 -3.08356 1.88803 -0.965031 2.01381 1.63617 2.09767 -1.65713 1.82514 0.985994z"/>
  <path class="fil0 str2" d="M98.967 50.1946l0 9.20906c1.99285,0 3.46121,-0.4613 4.40528,-1.3843 0.776157,-0.776258 1.17467,-1.86707 1.17467,-3.25157l0.000100786 -0.125882c0,-1.65733 -0.545456,-2.85286 -1.61531,-3.56613 -0.880975,-0.587384 -2.18173,-0.881075 -3.96484,-0.881075l0.000100786 -0.000100786zm0.356583 13.1528l-4.86678 0 0 -16.9288 5.11854 0c2.89489,0 5.16047,0.713367 6.77567,2.09787 1.74129,1.46826 2.6013,3.56613 2.6013,6.29331 0,2.6011 -0.944067,4.69897 -2.832,6.27225 -1.78311,1.51018 -4.04869,2.26558 -6.79674,2.26558l0 -0.000201573z"/>
  <path class="fil0 str2" d="M118.254 53.3621l3.35649 -7.40488 4.30036 1.42633 -8.51696 17.2647 -4.63598 -0.902241 3.12559 -5.91556 -6.54497 -10.4049 4.38431 -1.63637 4.53116 7.5729zm-1.61531 -10.9293l4.78292 -2.53811 1.23776 2.16056 -4.9718 2.24452 -1.04889 -1.86697z"/>
  <path class="fil0 str2" d="M137.227 50.1946l0 9.20906c1.99285,0 3.46121,-0.4613 4.40528,-1.3843 0.776157,-0.776258 1.17467,-1.86707 1.17467,-3.25157l0.000100786 -0.125882c0,-1.65733 -0.545456,-2.85286 -1.61531,-3.56613 -0.880975,-0.587384 -2.18173,-0.881075 -3.96484,-0.881075l0.000100786 -0.000100786zm0.356583 13.1528l-4.86678 0 0 -16.9288 5.11854 0c2.89489,0 5.16047,0.713367 6.77567,2.09787 1.74129,1.46826 2.6012,3.56613 2.6012,6.29331 0,2.6011 -0.943966,4.69897 -2.8319,6.27225 -1.78311,1.51018 -4.04869,2.26558 -6.79674,2.26558l0 -0.000201573z"/>
  <polygon class="fil0 str2" points="148.228,63.3474 148.228,46.4186 158.318,46.4186 159.178,50.1526 152.57,50.1526 152.57,52.8377 157.332,52.8377 157.332,56.5718 152.528,56.5718 152.528,59.6135 159.64,59.6135 158.528,63.3474 "/>
  <path class="fil0 str2" d="M160.635 63.7042l0 -18.3974 10.6776 9.67067 0 -8.53793 4.27939 -0.440538 0 18.5231 -10.6146 -9.48189 0 8.28636 -4.34239 0.377546zm11.4328 -22.5089l-3.96484 3.10453 -3.83886 -3.10453 1.88803 -0.965031 2.01371 1.63617 2.09787 -1.63617 1.80408 0.965031z"/>
 </g>
</svg>
