<?xml version="1.0" encoding="UTF-8"?>
<!DOCTYPE svg PUBLIC "-//W3C//DTD SVG 1.1//EN" "http://www.w3.org/Graphics/SVG/1.1/DTD/svg11.dtd">
<!-- Creator: CorelDRAW -->
<svg xmlns="http://www.w3.org/2000/svg" xml:space="preserve" width="137.598mm" height="49.0874mm" style="shape-rendering:geometricPrecision; text-rendering:geometricPrecision; image-rendering:optimizeQuality; fill-rule:evenodd; clip-rule:evenodd"
viewBox="0 0 138.283 49.3319"
 xmlns:xlink="http://www.w3.org/1999/xlink">
 <defs>
  <style type="text/css">
   <![CDATA[
    .str0 {stroke:white;stroke-width:0.709115}
    .fil1 {fill:none;fill-rule:nonzero}
    .fil0 {fill:white;fill-rule:nonzero}
   ]]>
  </style>
 </defs>
 <g id="Layer_x0020_1">
  <metadata id="CorelCorpID_0Corel-Layer"/>
  <polygon class="fil0" points="12.1306,40.0479 5.3248,30.8966 5.97763,39.0224 1.58335,39.2518 0.813533,20.326 6.83991,19.8068 7.15175,27.8028 13.6312,19.9971 17.8549,20.1227 8.63269,30.4292 18.6102,39.1609 "/>
  <path id="1" class="fil0" d="M35.1595 30.3427l-3.62457 0.177379 7.27838 6.36053 -4.68171 3.21916 -7.3223 -9.1383 -0.25828 7.45084 -5.62197 0.623089 -1.8561 -17.8874 13.3436 -1.01242c0.219287,-0.0173862 0.496964,-0.026029 0.828306,-0.026029 1.8756,0 3.38086,0.450031 4.52584,1.34567 1.18859,0.938955 1.78304,2.22835 1.78304,3.87692 0,1.28507 -0.365411,2.39708 -1.10096,3.33604 -0.818457,1.04709 -1.91469,1.60526 -3.29333,1.6745zm-1.62717 -7.15236l-7.66339 0.138487 0.126728 4.55186 7.66329 0.0519576 -0.126628 -4.74231z"/>
  <path id="12" class="fil0" d="M47.6799 38.5551l-5.42218 0.32883 -1.35934 -17.5455 7.907 0.0908504 -1.12548 17.1258zm-2.77204 -18.9388l-1.64174 -1.48406 4.08254 -5.24852 2.53818 1.99037 -4.97898 4.74221z"/>
  <path id="123" class="fil0" d="M55.7913 33.7004l9.77767 -0.354759 0.355663 4.80281 -14.4983 0.0259285 -0.828306 -4.67739 10.1626 -7.26481 -9.16383 -0.748511 -0.0584899 -4.46101 14.4448 0.393752 0 5.71583 -10.1918 6.56816zm4.48202 -14.2873l-3.01062 0.216272 -4.80844 -4.81577 1.19834 -1.76103 5.0228 3.33172 4.78412 -3.15434 1.35431 1.58365 -4.54051 4.5995z"/>
  <path id="1234" class="fil0" d="M77.5875 39.9224c-3.08379,0 -5.58298,-0.947597 -7.50732,-2.83847 -1.8561,-1.82585 -2.78179,-4.12344 -2.78179,-6.89699 0,-2.29759 0.857451,-4.30524 2.56743,-6.02306 1.77329,-1.78264 3.93631,-2.67396 6.49409,-2.67396 3.04479,0 5.48067,0.908604 7.30752,2.72591 1.74907,1.73942 2.62582,3.98505 2.62582,6.73257 0,2.47507 -0.735546,4.54764 -2.21166,6.22214 -1.61742,1.83459 -3.78044,2.75184 -6.49409,2.75184zm2.71365 -14.084l-7.0397 0.393752 -0.155973 9.1384 7.19567 0 0 -9.53215z"/>
  <polygon id="12345" class="fil0" points="94.8189,39.1869 91.3357,38.7195 85.0414,20.7803 90.1518,20.0966 93.0212,31.5196 96.6166,20.313 102.926,20.6678 "/>
  <polygon id="123456" class="fil0" points="114.793,40.0479 107.987,30.8966 108.64,39.0224 104.246,39.2518 103.476,20.326 109.502,19.8068 109.814,27.8028 116.294,19.9971 120.517,20.1227 111.295,30.4292 121.273,39.1609 "/>
  <polygon id="1234567" class="fil0" points="129.603,32.5451 130.617,39.4292 124.507,39.4551 125.808,31.4331 118.398,20.7456 124.122,20.5294 127.503,28.6682 130.5,21.7452 137.593,22.074 "/>
  <polygon id="12345678" class="fil1 str0" points="12.1306,40.0479 5.3248,30.8966 5.97763,39.0224 1.58335,39.2518 0.813533,20.326 6.83991,19.8068 7.15175,27.8028 13.6312,19.9971 17.8549,20.1227 8.63269,30.4292 18.6102,39.1609 "/>
  <path id="123456789" class="fil1 str0" d="M35.1595 30.3427l-3.62457 0.177379 7.27838 6.36053 -4.68171 3.21916 -7.3223 -9.1383 -0.25828 7.45084 -5.62197 0.623089 -1.8561 -17.8874 13.3436 -1.01242c0.219287,-0.0173862 0.496964,-0.026029 0.828306,-0.026029 1.8756,0 3.38086,0.450031 4.52584,1.34567 1.18859,0.938955 1.78304,2.22835 1.78304,3.87692 0,1.28507 -0.365411,2.39708 -1.10096,3.33604 -0.818457,1.04709 -1.91469,1.60526 -3.29333,1.6745zm-1.62717 -7.15236l-7.66339 0.138487 0.126728 4.55186 7.66329 0.0519576 -0.126628 -4.74231z"/>
  <path id="12345678910" class="fil1 str0" d="M47.6799 38.5551l-5.42218 0.32883 -1.35934 -17.5455 7.907 0.0908504 -1.12548 17.1258zm-2.77204 -18.9388l-1.64174 -1.48406 4.08254 -5.24852 2.53818 1.99037 -4.97898 4.74221z"/>
  <path id="1234567891011" class="fil1 str0" d="M55.7913 33.7004l9.77767 -0.354759 0.355663 4.80281 -14.4983 0.0259285 -0.828306 -4.67739 10.1626 -7.26481 -9.16383 -0.748511 -0.0584899 -4.46101 14.4448 0.393752 0 5.71583 -10.1918 6.56816zm4.48202 -14.2873l-3.01062 0.216272 -4.80844 -4.81577 1.19834 -1.76103 5.0228 3.33172 4.78412 -3.15434 1.35431 1.58365 -4.54051 4.5995z"/>
  <path id="123456789101112" class="fil1 str0" d="M77.5875 39.9224c-3.08379,0 -5.58298,-0.947597 -7.50732,-2.83847 -1.8561,-1.82585 -2.78179,-4.12344 -2.78179,-6.89699 0,-2.29759 0.857451,-4.30524 2.56743,-6.02306 1.77329,-1.78264 3.93631,-2.67396 6.49409,-2.67396 3.04479,0 5.48067,0.908604 7.30752,2.72591 1.74907,1.73942 2.62582,3.98505 2.62582,6.73257 0,2.47507 -0.735546,4.54764 -2.21166,6.22214 -1.61742,1.83459 -3.78044,2.75184 -6.49409,2.75184zm2.71365 -14.084l-7.0397 0.393752 -0.155973 9.1384 7.19567 0 0 -9.53215z"/>
  <polygon id="12345678910111213" class="fil1 str0" points="94.8189,39.1869 91.3357,38.7195 85.0414,20.7803 90.1518,20.0966 93.0212,31.5196 96.6166,20.313 102.926,20.6678 "/>
  <polygon id="1234567891011121314" class="fil1 str0" points="114.793,40.0479 107.987,30.8966 108.64,39.0224 104.246,39.2518 103.476,20.326 109.502,19.8068 109.814,27.8028 116.294,19.9971 120.517,20.1227 111.295,30.4292 121.273,39.1609 "/>
  <polygon id="123456789101112131415" class="fil1 str0" points="129.603,32.5451 130.617,39.4292 124.507,39.4551 125.808,31.4331 118.398,20.7456 124.122,20.5294 127.503,28.6682 130.5,21.7452 137.593,22.074 "/>
  <polygon class="fil0" points="6.42957,12.1959 2.66953,7.49224 2.98771,11.5815 0.796649,11.6805 0.412947,3.78758 3.00952,3.7931 6.76715,8.52486 6.45379,3.90707 8.64717,3.96124 8.93137,11.8075 "/>
  <path id="1" class="fil0" d="M16.1018 11.4957l-0.449428 -1.75711 -1.87027 0 -0.0777856 2.61607 -4.10013 -0.0430132 1.32376 -7.73605 6.78916 -0.55274 1.82173 7.14974 -3.43704 0.323102zm-0.512641 -5.33485l-2.79566 0 0.0850215 2.27066 3.12368 -0.0504501 -0.413048 -2.22021z"/>
  <path id="12" class="fil0" d="M27.8458 8.38848l-4.23851 0.207328 -0.128839 3.61502 -2.86862 -0.136276 -0.954532 -7.74359 7.01729 -0.436966c0.116678,-0.0056279 0.206624,-0.00934633 0.262401,-0.00934633 0.745697,0 1.44044,0.179289 2.08413,0.535856 0.701879,0.390335 1.05403,0.85524 1.05403,1.39672 0,0.636757 -0.162606,1.1895 -0.490632,1.65822 -0.398274,0.571332 -0.97634,0.875741 -1.73671,0.913026zm-0.796649 -3.44327l-3.97872 0.0765796 0.0655248 2.3808 3.99812 0.028039 -0.084921 -2.48542z"/>
  <path id="123" class="fil0" d="M34.125 11.8785l-2.7035 0.141903 -0.677659 -7.57184 3.94224 0.0391943 -0.561081 7.39074zm-1.38225 -8.17312l-0.818457 -0.640475 2.03549 -2.26503 1.26547 0.858958 -2.48251 2.04655z"/>
  <polygon id="1234" class="fil0" points="41.5893,12.1959 37.8292,7.49224 38.1474,11.5815 35.9563,11.6805 35.5726,3.78758 38.1692,3.7931 41.9268,8.52486 41.6135,3.90707 43.8069,3.96124 44.0911,11.8075 "/>
  <path id="12345" class="fil0" d="M51.2615 11.4957l-0.449428 -1.75711 -1.87027 0 -0.0777856 2.61607 -4.10013 -0.0430132 1.32376 -7.73605 6.78916 -0.55274 1.82173 7.14974 -3.43704 0.323102zm-0.512641 -5.33485l-2.79566 0 0.0850215 2.27066 3.12368 -0.0504501 -0.413048 -2.22021z"/>
  <polygon id="123456" class="fil0" points="58.8255,12.151 57.0887,11.9494 53.9504,4.20766 56.4985,3.9127 57.9292,8.84223 59.7218,4.00606 62.8672,4.15912 "/>
  <path id="1234567" class="fil0" d="M66.3505 5.87703l0 1.30145 3.33744 0.0224111 0.0145722 1.66375 -4.23369 0.12512 0.055877 1.34075 4.89687 -0.104619 -0.128738 2.22583 -6.74534 0.115774 -0.398375 -8.72576 7.54199 0.0111553 0 1.94193 -4.34062 0.0822075zm0.55877 -2.50592l-0.818658 -0.640475 2.03549 -2.26493 1.26557 0.858958 -2.48241 2.04644z"/>
  <polygon id="12345678" class="fil1 str0" points="6.42957,12.1959 2.66953,7.49224 2.98771,11.5815 0.796649,11.6805 0.412947,3.78758 3.00952,3.7931 6.76715,8.52486 6.45379,3.90707 8.64717,3.96124 8.93137,11.8075 "/>
  <path id="123456789" class="fil1 str0" d="M16.1018 11.4957l-0.449428 -1.75711 -1.87027 0 -0.0777856 2.61607 -4.10013 -0.0430132 1.32376 -7.73605 6.78916 -0.55274 1.82173 7.14974 -3.43704 0.323102zm-0.512641 -5.33485l-2.79566 0 0.0850215 2.27066 3.12368 -0.0504501 -0.413048 -2.22021z"/>
  <path id="12345678910" class="fil1 str0" d="M27.8458 8.38848l-4.23851 0.207328 -0.128839 3.61502 -2.86862 -0.136276 -0.954532 -7.74359 7.01729 -0.436966c0.116678,-0.0056279 0.206624,-0.00934633 0.262401,-0.00934633 0.745697,0 1.44044,0.179289 2.08413,0.535856 0.701879,0.390335 1.05403,0.85524 1.05403,1.39672 0,0.636757 -0.162606,1.1895 -0.490632,1.65822 -0.398274,0.571332 -0.97634,0.875741 -1.73671,0.913026zm-0.796649 -3.44327l-3.97872 0.0765796 0.0655248 2.3808 3.99812 0.028039 -0.084921 -2.48542z"/>
  <path id="1234567891011" class="fil1 str0" d="M34.125 11.8785l-2.7035 0.141903 -0.677659 -7.57184 3.94224 0.0391943 -0.561081 7.39074zm-1.38225 -8.17312l-0.818457 -0.640475 2.03549 -2.26503 1.26547 0.858958 -2.48251 2.04655z"/>
  <polygon id="123456789101112" class="fil1 str0" points="41.5893,12.1959 37.8292,7.49224 38.1474,11.5815 35.9563,11.6805 35.5726,3.78758 38.1692,3.7931 41.9268,8.52486 41.6135,3.90707 43.8069,3.96124 44.0911,11.8075 "/>
  <path id="12345678910111213" class="fil1 str0" d="M51.2615 11.4957l-0.449428 -1.75711 -1.87027 0 -0.0777856 2.61607 -4.10013 -0.0430132 1.32376 -7.73605 6.78916 -0.55274 1.82173 7.14974 -3.43704 0.323102zm-0.512641 -5.33485l-2.79566 0 0.0850215 2.27066 3.12368 -0.0504501 -0.413048 -2.22021z"/>
  <polygon id="1234567891011121314" class="fil1 str0" points="58.8255,12.151 57.0887,11.9494 53.9504,4.20766 56.4985,3.9127 57.9292,8.84223 59.7218,4.00606 62.8672,4.15912 "/>
  <path id="123456789101112131415" class="fil1 str0" d="M66.3505 5.87703l0 1.30145 3.33744 0.0224111 0.0145722 1.66375 -4.23369 0.12512 0.055877 1.34075 4.89687 -0.104619 -0.128738 2.22583 -6.74534 0.115774 -0.398375 -8.72576 7.54199 0.0111553 0 1.94193 -4.34062 0.0822075zm0.55877 -2.50592l-0.818658 -0.640475 2.03549 -2.26493 1.26557 0.858958 -2.48241 2.04644z"/>
  <path class="fil0" d="M111.02 44.9911l-3.94164 0.191047 -0.119794 3.33071 -2.66772 -0.125623 -0.887801 -7.13457 6.52605 -0.402596c0.108337,-0.00512541 0.191952,-0.00864284 0.243909,-0.00864284 0.693438,0 1.33954,0.165219 1.93821,0.493848 0.652736,0.359482 0.980259,0.787906 0.980259,1.28688 0,0.586608 -0.15135,1.09583 -0.456362,1.52767 -0.370336,0.52651 -0.908102,0.8069 -1.61511,0.84127zm-0.740873 -3.17243l-3.70014 0.0705497 0.0610024 2.19357 3.71823 0.0257275 -0.0790921 -2.28985z"/>
  <polygon id="1" class="fil0" points="113.836,48.0707 113.836,41.189 116.947,41.0737 116.127,46.3813 119.436,45.9684 119.495,47.8384 "/>
  <path id="12" class="fil0" d="M124.2 48.9774c-2.62943,0 -3.94405,-1.11141 -3.94405,-3.33242 0,-0.808608 0.117382,-2.05247 0.350035,-3.72989l2.5616 0.0756751 -0.284611 5.42962 2.63396 0 -0.0790921 -5.98879 2.57527 0c0.232553,2.00946 0.350035,3.36347 0.350035,4.06194 0,1.07533 -0.334357,1.91489 -1.00518,2.51527 -0.720673,0.645198 -1.77319,0.968602 -3.15795,0.968602z"/>
  <path id="123" class="fil0" d="M133.676 48.9464c-0.682182,0 -1.46144,-0.12904 -2.33568,-0.388827 -0.797353,-0.23396 -1.51109,-0.524701 -2.13679,-0.870515l0 -1.94585c1.63541,0.937648 2.78752,1.40557 3.45382,1.40557 0.508119,0 0.887701,-0.0394958 1.13854,-0.120397 0.388426,-0.125623 0.582689,-0.357874 0.582689,-0.701879 0,-0.287324 -0.32079,-0.595351 -0.959959,-0.922171 -0.180796,-0.0894434 -0.831321,-0.375059 -1.95178,-0.856747 -0.869711,-0.368225 -1.50898,-0.698563 -1.92002,-0.987596 -0.555654,-0.388827 -0.833532,-0.78278 -0.833532,-1.17844 0,-0.669318 0.783785,-1.15442 2.34925,-1.45722 0.996138,-0.190947 2.10755,-0.287324 3.32961,-0.287324 0.871922,0 1.84103,0.0447217 2.905,0.135874l0 1.76344c-0.869711,-0.0601984 -1.60154,-0.0894434 -2.198,-0.0894434 -0.666403,0 -1.20166,0.0207026 -1.60827,0.0601984 -0.935236,0.0946693 -1.40275,0.301093 -1.40275,0.61937 0,0.256371 0.316167,0.511033 0.946492,0.767304 0.345613,0.127331 0.975837,0.371642 1.89288,0.731225 1.77781,0.712231 2.66782,1.52426 2.66782,2.43789 0,0.612436 -0.463196,1.09412 -1.38919,1.44687 -0.768108,0.29245 -1.61068,0.438675 -2.53014,0.438675z"/>
  <path id="1234" class="fil1 str0" d="M111.02 44.9911l-3.94164 0.191047 -0.119794 3.33071 -2.66772 -0.125623 -0.887801 -7.13457 6.52605 -0.402596c0.108337,-0.00512541 0.191952,-0.00864284 0.243909,-0.00864284 0.693438,0 1.33954,0.165219 1.93821,0.493848 0.652736,0.359482 0.980259,0.787906 0.980259,1.28688 0,0.586608 -0.15135,1.09583 -0.456362,1.52767 -0.370336,0.52651 -0.908102,0.8069 -1.61511,0.84127zm-0.740873 -3.17243l-3.70014 0.0705497 0.0610024 2.19357 3.71823 0.0257275 -0.0790921 -2.28985z"/>
  <polygon id="12345" class="fil1 str0" points="113.836,48.0707 113.836,41.189 116.947,41.0737 116.127,46.3813 119.436,45.9684 119.495,47.8384 "/>
  <path id="123456" class="fil1 str0" d="M124.2 48.9774c-2.62943,0 -3.94405,-1.11141 -3.94405,-3.33242 0,-0.808608 0.117382,-2.05247 0.350035,-3.72989l2.5616 0.0756751 -0.284611 5.42962 2.63396 0 -0.0790921 -5.98879 2.57527 0c0.232553,2.00946 0.350035,3.36347 0.350035,4.06194 0,1.07533 -0.334357,1.91489 -1.00518,2.51527 -0.720673,0.645198 -1.77319,0.968602 -3.15795,0.968602z"/>
  <path id="1234567" class="fil1 str0" d="M133.676 48.9464c-0.682182,0 -1.46144,-0.12904 -2.33568,-0.388827 -0.797353,-0.23396 -1.51109,-0.524701 -2.13679,-0.870515l0 -1.94585c1.63541,0.937648 2.78752,1.40557 3.45382,1.40557 0.508119,0 0.887701,-0.0394958 1.13854,-0.120397 0.388426,-0.125623 0.582689,-0.357874 0.582689,-0.701879 0,-0.287324 -0.32079,-0.595351 -0.959959,-0.922171 -0.180796,-0.0894434 -0.831321,-0.375059 -1.95178,-0.856747 -0.869711,-0.368225 -1.50898,-0.698563 -1.92002,-0.987596 -0.555654,-0.388827 -0.833532,-0.78278 -0.833532,-1.17844 0,-0.669318 0.783785,-1.15442 2.34925,-1.45722 0.996138,-0.190947 2.10755,-0.287324 3.32961,-0.287324 0.871922,0 1.84103,0.0447217 2.905,0.135874l0 1.76344c-0.869711,-0.0601984 -1.60154,-0.0894434 -2.198,-0.0894434 -0.666403,0 -1.20166,0.0207026 -1.60827,0.0601984 -0.935236,0.0946693 -1.40275,0.301093 -1.40275,0.61937 0,0.256371 0.316167,0.511033 0.946492,0.767304 0.345613,0.127331 0.975837,0.371642 1.89288,0.731225 1.77781,0.712231 2.66782,1.52426 2.66782,2.43789 0,0.612436 -0.463196,1.09412 -1.38919,1.44687 -0.768108,0.29245 -1.61068,0.438675 -2.53014,0.438675z"/>
 </g>
</svg>
