<?xml version="1.0" encoding="utf-8"?>
<!-- Generator: Adobe Illustrator 16.0.0, SVG Export Plug-In . SVG Version: 6.00 Build 0)  -->
<!DOCTYPE svg PUBLIC "-//W3C//DTD SVG 1.1//EN" "http://www.w3.org/Graphics/SVG/1.1/DTD/svg11.dtd" [
	<!ENTITY ns_flows "http://ns.adobe.com/Flows/1.0/">
	<!ENTITY ns_extend "http://ns.adobe.com/Extensibility/1.0/">
	<!ENTITY ns_ai "http://ns.adobe.com/AdobeIllustrator/10.0/">
	<!ENTITY ns_graphs "http://ns.adobe.com/Graphs/1.0/">
]>
<svg version="1.1" id="Vrstva_1" xmlns:x="&ns_extend;" xmlns:i="&ns_ai;" xmlns:graph="&ns_graphs;"
	 xmlns="http://www.w3.org/2000/svg" xmlns:xlink="http://www.w3.org/1999/xlink" xmlns:a="http://ns.adobe.com/AdobeSVGViewerExtensions/3.0/"
	 x="0px" y="0px" width="298.9px" height="66.4px" viewBox="0 0 298.9 66.4" style="enable-background:new 0 0 298.9 66.4;"
	 xml:space="preserve">
<style type="text/css">
<![CDATA[
	.st0{fill:black;}
]]>
</style>
<g>
	<path class="st0" d="M5.1,27.4v12.7h2.7c2-6.5,6-9,11.8-9h4L3.9,60.3v4.8h33.3V50.2h-2.7c-2.6,8.5-8.5,11.2-17.3,11.2l20-30.5v-3.5
		H5.1L5.1,27.4z M75.4,37.6c0-8-5.3-11.2-14.7-11.2c-11.2,0-16.6,4.9-16.6,9.7c0,3.9,2.5,6.2,6,6.2c3.3,0,5.6-2.6,5.6-5.5
		c0-3-1.9-4.9-4.4-5.2v-0.2c1.6-0.9,3.5-1.3,5.3-1.3c4.7,0,7.2,1.8,7.2,6.7v4.7c-7.2,2-22.5,5.1-22.5,15.3c0,7.1,6.2,9.4,12.4,9.4
		c4.7,0,8.5-1.5,11.5-5.2c1.8,3.5,4.4,5.2,8.4,5.2c6.6,0,10-4.2,10-9.6V55h-2.7c-0.4,3.1-1.1,5.8-2.9,5.8c-1.9,0-2.5-1.5-2.5-4.8
		V37.6L75.4,37.6z M63.8,54.1c0,4.7-2,7.7-5.4,7.7c-3.5,0-4.9-2.9-4.9-6c0-5.5,5.4-9.6,10.3-10.7V54.1L63.8,54.1z M55,23.7l13.6-7.1
		c1.8-0.9,2.6-2.2,2.6-3.6c0-1.9-1.7-3.6-3.6-3.6c-2.4,0-4.1,1.8-4.9,2.6l-9.4,9.5L55,23.7L55,23.7z M112.5,65.2h17v-3.2
		c-4.6,0-5.4-1.6-5.4-5.3V38c0-7.5-4.5-11.6-11.8-11.6c-3.3,0-6.4,1.5-9.9,5.1V10.4l-17.5,0.3v3.1c4.5,0,5.9,0.6,5.9,4.1v38.8
		c0,3.7-0.8,5.3-6.4,5.3v3.2h23.4v-3.2c-4.6,0-5.4-1.6-5.4-5.3V43c0-7.2,3.3-12.2,6.6-12.2c2.5,0,3.5,1.4,3.5,5.1V65.2L112.5,65.2z
		 M157,65.2v-3.2c-6.7,0-7.5-1.6-7.5-7.4c0-11.3,2.3-20.2,7-23.4c-0.2,0.9-0.3,1.7-0.3,2.8c0,3.1,1.7,5.7,5.4,5.7
		c3.3,0,5.7-2.5,5.7-6.3c0-3.9-3.1-6.9-7.4-6.9c-6,0-9.1,5.7-10.7,9.6H149v-8.6l-16.8,0.3v2.9c5.3,0,6.1,1.6,6.1,5.3v20.7
		c0,3.7-0.8,5.3-6.1,5.3v3.2H157L157,65.2z M201.8,37.6c0-8-5.3-11.2-14.7-11.2c-11.2,0-16.6,4.9-16.6,9.7c0,3.9,2.5,6.2,6,6.2
		c3.3,0,5.6-2.6,5.6-5.5c0-3-1.9-4.9-4.4-5.2v-0.2c1.6-0.9,3.5-1.3,5.3-1.3c4.7,0,7.2,1.8,7.2,6.7v4.7c-7.2,2-22.5,5.1-22.5,15.3
		c0,7.1,6.2,9.4,12.4,9.4c4.7,0,8.5-1.5,11.5-5.2c1.8,3.5,4.4,5.2,8.4,5.2c6.6,0,10-4.2,10-9.6V55h-2.7c-0.4,3.1-1.1,5.8-2.9,5.8
		c-1.9,0-2.5-1.5-2.5-4.8V37.6L201.8,37.6z M190.2,54.1c0,4.7-2,7.7-5.4,7.7c-3.5,0-4.9-2.9-4.9-6c0-5.5,5.4-9.6,10.3-10.7V54.1
		L190.2,54.1z M224,45.2c0-7.7,1.4-15.1,6.7-15.1c4.3,0,6.7,5.1,6.7,16.9c0,7.7-1.7,15.3-7.2,15.3C225.5,62.4,224,54.8,224,45.2
		L224,45.2z M249,10.4l-17.8,0.3v3.1c5.4,0,6.2,1.6,6.2,5.3v11.1c-2.1-2.2-5.1-3.7-8.7-3.7c-8.7,0-17.3,8-17.3,19.7c0,12,8,20,17,20
		c5.1,0,6.8-1.9,9.5-4.5h0.2v4l16.5-0.3v-2.9c-4.6,0-5.4-1.6-5.4-5.3V10.4L249,10.4z M290.5,37.6c0-8-5.3-11.2-14.7-11.2
		c-11.2,0-16.6,4.9-16.6,9.7c0,3.9,2.5,6.2,6,6.2c3.3,0,5.6-2.6,5.6-5.5c0-3-1.9-4.9-4.4-5.2v-0.2c1.6-0.9,3.5-1.3,5.3-1.3
		c4.7,0,7.2,1.8,7.2,6.7v4.7c-7.2,2-22.5,5.1-22.5,15.3c0,7.1,6.2,9.4,12.4,9.4c4.7,0,8.5-1.5,11.5-5.2c1.8,3.5,4.4,5.2,8.4,5.2
		c6.6,0,10-4.2,10-9.6V55h-2.7c-0.4,3.1-1.1,5.8-2.9,5.8c-1.9,0-2.5-1.5-2.5-4.8V37.6L290.5,37.6z M278.9,54.1c0,4.7-2,7.7-5.4,7.7
		c-3.5,0-4.9-2.9-4.9-6c0-5.5,5.4-9.6,10.3-10.7V54.1L278.9,54.1z"/>
	<path class="st0" d="M5.1,27.4H4.9v12.7c0,0.1,0,0.1,0.1,0.2c0.1,0.1,0.1,0.1,0.2,0.1h2.7c0.1,0,0.2-0.1,0.3-0.2
		c1-3.2,2.5-5.4,4.4-6.8c1.9-1.4,4.3-2,7.1-2h3.5L3.6,60.2c0,0,0,0.1,0,0.2v4.8c0,0.1,0,0.1,0.1,0.2c0.1,0.1,0.1,0.1,0.2,0.1h33.3
		c0.1,0,0.1,0,0.2-0.1c0.1-0.1,0.1-0.1,0.1-0.2V50.2c0-0.1,0-0.1-0.1-0.2c-0.1-0.1-0.1-0.1-0.2-0.1h-2.7c-0.1,0-0.2,0.1-0.3,0.2
		c-1.3,4.2-3.4,6.9-6.2,8.7c-2.8,1.7-6.4,2.4-10.8,2.4v0.3l0.2,0.2l20-30.5c0,0,0-0.1,0-0.2v-3.5c0-0.1,0-0.1-0.1-0.2
		c-0.1-0.1-0.1-0.1-0.2-0.1H5.1c-0.1,0-0.1,0-0.2,0.1c-0.1,0.1-0.1,0.1-0.1,0.2H5.1v0.3H37v3.2L17,61.3c-0.1,0.1-0.1,0.2,0,0.3
		c0,0.1,0.1,0.1,0.2,0.1c4.4,0,8.1-0.7,11.1-2.5c3-1.8,5.1-4.7,6.5-9l-0.3-0.1v0.3h2.4v14.4H4.1v-4.5l19.7-29.2
		c0.1-0.1,0.1-0.2,0-0.3c0-0.1-0.1-0.1-0.2-0.1h-4c-2.9,0-5.4,0.6-7.4,2.1c-2,1.5-3.6,3.8-4.6,7.1l0.3,0.1v-0.3H5.4V27.4H5.1v0.3
		V27.4L5.1,27.4z M75.4,37.6h0.3c0-4.1-1.4-7-4-8.8c-2.6-1.8-6.3-2.6-11-2.6c-5.6,0-9.9,1.2-12.7,3.1c-2.8,1.9-4.2,4.4-4.2,6.9
		c0,2,0.6,3.6,1.8,4.7c1.1,1.1,2.7,1.7,4.5,1.7c1.7,0,3.2-0.7,4.3-1.8c1-1.1,1.6-2.5,1.6-4c0-1.5-0.5-2.8-1.3-3.8
		c-0.8-0.9-2-1.5-3.3-1.7l0,0.3h0.3v-0.2h-0.3l0.1,0.2c1.5-0.9,3.4-1.3,5.2-1.2c2.3,0,4,0.5,5.2,1.5c1.1,1,1.7,2.6,1.7,4.9v4.7h0.3
		l-0.1-0.3c-3.6,1-9.2,2.3-14,4.6c-2.4,1.2-4.6,2.6-6.1,4.4c-1.6,1.8-2.6,4-2.6,6.6c0,1.8,0.4,3.3,1.1,4.6c1.1,1.9,2.8,3.2,4.8,4
		c2,0.8,4.4,1.1,6.8,1.1c4.7,0,8.7-1.6,11.7-5.3l-0.2-0.2L64.9,61c0.9,1.8,2.1,3.1,3.5,4c1.4,0.9,3.1,1.3,5.1,1.3
		c3.4,0,5.9-1.1,7.7-2.8c1.7-1.8,2.6-4.2,2.6-7V55c0-0.1,0-0.1-0.1-0.2c-0.1-0.1-0.1-0.1-0.2-0.1h-2.7c-0.1,0-0.3,0.1-0.3,0.2
		c-0.2,1.5-0.5,2.9-0.9,4c-0.2,0.5-0.5,0.9-0.8,1.2c-0.3,0.3-0.6,0.4-1,0.4c-0.4,0-0.8-0.1-1-0.3c-0.4-0.2-0.7-0.7-0.9-1.4
		c-0.2-0.7-0.3-1.7-0.3-2.9V37.6H75.4h-0.3V56c0,1.7,0.1,2.9,0.5,3.8c0.2,0.4,0.5,0.8,0.9,1c0.4,0.2,0.8,0.3,1.3,0.3
		c0.5,0,1-0.2,1.4-0.5c0.6-0.5,0.9-1.3,1.2-2.3c0.3-0.9,0.5-2.1,0.6-3.2l-0.3,0v0.3h2.4v1.2c0,2.6-0.8,4.9-2.5,6.6
		c-1.6,1.7-4,2.7-7.3,2.7c-2,0-3.5-0.4-4.8-1.2c-1.3-0.8-2.4-2.1-3.3-3.8c0-0.1-0.1-0.1-0.2-0.1c-0.1,0-0.2,0-0.2,0.1
		c-2.9,3.6-6.6,5.1-11.2,5.1c-3.1,0-6.1-0.6-8.4-2c-1.1-0.7-2.1-1.6-2.7-2.8c-0.7-1.2-1-2.6-1-4.3c0-2.5,0.9-4.5,2.4-6.2
		c2.3-2.6,5.9-4.4,9.6-5.8c3.7-1.4,7.6-2.3,10.2-3c0.1,0,0.2-0.1,0.2-0.3v-4.7c0-2.5-0.6-4.2-1.9-5.3c-1.3-1.1-3.1-1.6-5.5-1.6
		c-1.9,0-3.8,0.4-5.5,1.3c-0.1,0-0.1,0.1-0.1,0.2v0.2c0,0.1,0.1,0.3,0.2,0.3c1.2,0.2,2.2,0.7,2.9,1.5c0.7,0.8,1.2,2,1.2,3.4
		c0,2.7-2.2,5.3-5.4,5.3c-1.7,0-3.1-0.6-4.1-1.6c-1-1-1.6-2.5-1.6-4.3c0-2.3,1.3-4.6,4-6.4c2.7-1.8,6.8-3,12.4-3
		c4.7,0,8.3,0.8,10.7,2.5c2.4,1.7,3.7,4.4,3.7,8.4H75.4L75.4,37.6z M63.8,54.1h-0.3c0,2.3-0.5,4.2-1.4,5.5c-0.9,1.3-2.1,2-3.8,2
		c-1.7,0-2.8-0.7-3.5-1.7c-0.7-1-1.1-2.5-1.1-4c0-2.7,1.3-5,3.2-6.8c1.9-1.8,4.4-3.1,6.8-3.6l-0.1-0.3h-0.3v9H63.8h0.3v-9
		c0-0.1,0-0.2-0.1-0.2c-0.1-0.1-0.2-0.1-0.2-0.1c-2.5,0.6-5.1,1.9-7.1,3.8c-2,1.9-3.4,4.3-3.4,7.2c0,1.6,0.3,3.2,1.2,4.3
		c0.8,1.2,2.1,2,4,2c1.8,0,3.2-0.8,4.2-2.2c1-1.4,1.5-3.4,1.5-5.8H63.8L63.8,54.1z M55,23.7l0.1,0.2l13.6-7.1l-0.1-0.2l0.1,0.2
		c0.9-0.5,1.6-1,2.1-1.7c0.5-0.7,0.7-1.4,0.7-2.2c0-1-0.5-2-1.2-2.7c-0.7-0.7-1.7-1.2-2.7-1.2c-2.5,0-4.3,1.9-5.1,2.6l0,0l-9.4,9.5
		c-0.1,0.1-0.1,0.2,0,0.4l1.7,2.2C54.8,24,55,24,55.1,24L55,23.7l0.2-0.2l-1.5-2.1l9.2-9.3L62.7,12l0.2,0.2c0.8-0.7,2.5-2.5,4.7-2.5
		c0.8,0,1.7,0.4,2.3,1c0.6,0.6,1,1.5,1,2.3c0,0.7-0.2,1.3-0.6,1.9c-0.4,0.6-1,1.1-1.9,1.5l0,0l-13.6,7.1L55,23.7l0.2-0.2L55,23.7
		L55,23.7z M112.5,65.2v0.3h17c0.1,0,0.1,0,0.2-0.1c0.1-0.1,0.1-0.1,0.1-0.2v-3.2c0-0.1,0-0.1-0.1-0.2c-0.1-0.1-0.1-0.1-0.2-0.1
		c-1.1,0-2-0.1-2.7-0.3c-1-0.3-1.6-0.8-1.9-1.5c-0.4-0.8-0.5-1.8-0.5-3.2V38c0-3.8-1.1-6.8-3.2-8.8c-2.1-2-5.1-3-8.8-3
		c-3.4,0-6.6,1.6-10.1,5.2l0.2,0.2h0.3V10.4c0-0.1,0-0.1-0.1-0.2c-0.1-0.1-0.1-0.1-0.2-0.1l-17.5,0.3c-0.2,0-0.3,0.1-0.3,0.3v3.1
		c0,0.1,0,0.1,0.1,0.2c0.1,0.1,0.1,0.1,0.2,0.1c2.2,0,3.6,0.2,4.5,0.7c0.4,0.3,0.7,0.6,0.9,1.1c0.2,0.5,0.3,1.2,0.3,2v38.8
		c0,0.9-0.1,1.7-0.2,2.3c-0.2,1-0.7,1.6-1.5,2c-0.9,0.4-2.3,0.7-4.3,0.7c-0.1,0-0.1,0-0.2,0.1c-0.1,0.1-0.1,0.1-0.1,0.2v3.2
		c0,0.1,0,0.1,0.1,0.2c0.1,0.1,0.1,0.1,0.2,0.1h23.4c0.1,0,0.1,0,0.2-0.1c0.1-0.1,0.1-0.1,0.1-0.2v-3.2c0-0.1,0-0.1-0.1-0.2
		c-0.1-0.1-0.1-0.1-0.2-0.1c-1.1,0-2-0.1-2.7-0.3c-1-0.3-1.6-0.8-1.9-1.5c-0.4-0.8-0.5-1.8-0.5-3.2V43c0-3.6,0.8-6.6,2-8.7
		c0.6-1,1.3-1.9,2-2.4c0.7-0.6,1.5-0.8,2.2-0.8c0.6,0,1.1,0.1,1.5,0.3c0.6,0.3,1,0.7,1.3,1.5c0.3,0.7,0.4,1.8,0.4,3.1v29.2
		c0,0.1,0,0.1,0.1,0.2c0.1,0.1,0.1,0.1,0.2,0.1V65.2h0.3V35.9c0-1.9-0.3-3.2-0.9-4.1c-0.3-0.5-0.7-0.8-1.2-1
		c-0.5-0.2-1.1-0.3-1.7-0.3c-0.9,0-1.8,0.3-2.6,0.9c-2.4,1.8-4.3,6.1-4.3,11.5v13.6c0,0.9,0,1.7,0.2,2.4c0.2,1,0.7,1.9,1.6,2.4
		c0.9,0.5,2.1,0.7,3.9,0.7v-0.3h-0.3v2.9H84.7v-2.9h-0.3v0.3c1.4,0,2.5-0.1,3.4-0.3c1.3-0.3,2.2-0.9,2.7-1.8c0.5-0.9,0.6-2,0.6-3.4
		V17.9c0-0.9-0.1-1.6-0.3-2.2c-0.2-0.4-0.4-0.8-0.7-1.1c-0.5-0.4-1.2-0.7-2-0.9c-0.8-0.2-1.9-0.2-3.1-0.2v0.3h0.3V11l16.9-0.3v20.9
		c0,0.1,0.1,0.2,0.2,0.3c0.1,0,0.2,0,0.3-0.1c3.5-3.6,6.5-5.1,9.7-5.1c3.6,0,6.5,1,8.4,2.9c2,1.9,3.1,4.7,3.1,8.4v18.6
		c0,0.9,0,1.7,0.2,2.4c0.2,1,0.7,1.9,1.6,2.4c0.9,0.5,2.1,0.7,3.9,0.7v-0.3h-0.3v2.9h-16.7V65.2h0.3H112.5L112.5,65.2z M157,65.2
		h0.3v-3.2c0-0.1,0-0.1-0.1-0.2c-0.1-0.1-0.1-0.1-0.2-0.1c-1.7,0-2.9-0.1-3.9-0.3c-0.7-0.2-1.3-0.4-1.7-0.7c-0.6-0.5-1-1.2-1.3-2.1
		c-0.2-1-0.3-2.3-0.3-3.9c0-5.6,0.6-10.7,1.7-14.7c1.2-4,2.9-7,5.2-8.6l-0.2-0.2l-0.3,0c-0.2,0.9-0.3,1.7-0.3,2.9
		c0,1.6,0.4,3.1,1.4,4.2c0.9,1.1,2.4,1.8,4.3,1.8c1.7,0,3.3-0.7,4.3-1.8c1.1-1.2,1.7-2.8,1.7-4.7c0-2-0.8-3.8-2.2-5.1
		c-1.4-1.3-3.3-2.1-5.5-2.1c-3.1,0-5.5,1.5-7.2,3.4c-1.8,1.9-2.9,4.4-3.8,6.3l0.3,0.1v-0.3H149V36h0.3v-8.6c0-0.1,0-0.1-0.1-0.2
		s-0.1-0.1-0.2-0.1l-16.8,0.3c-0.2,0-0.3,0.1-0.3,0.3v2.9c0,0.1,0,0.1,0.1,0.2c0.1,0.1,0.1,0.1,0.2,0.1c1.3,0,2.3,0.1,3.1,0.3
		c1.2,0.3,1.8,0.8,2.2,1.5c0.4,0.8,0.5,1.8,0.5,3.2v20.7c0,0.9,0,1.7-0.2,2.3c-0.2,1-0.6,1.6-1.5,2c-0.9,0.4-2.2,0.7-4.2,0.7
		c-0.1,0-0.1,0-0.2,0.1c-0.1,0.1-0.1,0.1-0.1,0.2v3.2c0,0.1,0,0.1,0.1,0.2c0.1,0.1,0.1,0.1,0.2,0.1H157c0.1,0,0.1,0,0.2-0.1
		c0.1-0.1,0.1-0.1,0.1-0.2H157v-0.3h-24.5v-2.9h-0.3v0.3c1.3,0,2.4-0.1,3.3-0.3c1.3-0.3,2.1-0.9,2.6-1.8c0.5-0.9,0.6-2,0.6-3.4V35.9
		c0-0.9,0-1.7-0.2-2.4c-0.2-1.1-0.8-1.9-1.8-2.4c-1-0.5-2.4-0.7-4.4-0.7v0.3h0.3V28l16.2-0.3V36c0,0.1,0,0.1,0.1,0.2
		c0.1,0.1,0.1,0.1,0.2,0.1h0.2c0.1,0,0.2-0.1,0.3-0.2c0.8-1.9,2-4.3,3.7-6.1c1.7-1.9,3.9-3.2,6.8-3.2c2.1,0,3.9,0.7,5.1,1.9
		c1.3,1.2,2,2.8,2,4.7c0,1.8-0.6,3.3-1.5,4.4c-1,1-2.3,1.6-3.9,1.6c-1.8,0-3.1-0.6-3.9-1.6c-0.8-1-1.2-2.3-1.2-3.8
		c0-1.1,0.2-1.9,0.3-2.8c0-0.1,0-0.2-0.1-0.3c-0.1-0.1-0.2-0.1-0.3,0c-2.4,1.7-4.2,4.8-5.4,8.9c-1.2,4.1-1.7,9.1-1.7,14.8
		c0,1.5,0,2.6,0.2,3.6c0.1,0.7,0.4,1.4,0.7,1.9c0.5,0.8,1.3,1.3,2.4,1.7c1.1,0.3,2.5,0.4,4.4,0.4v-0.3h-0.3v3.2H157v-0.3V65.2
		L157,65.2z M201.8,37.6h0.3c0-4.1-1.4-7-4-8.8c-2.6-1.8-6.3-2.6-11-2.6c-5.6,0-9.9,1.2-12.7,3.1c-2.8,1.9-4.2,4.4-4.2,6.9
		c0,2,0.6,3.6,1.7,4.7s2.7,1.7,4.5,1.7c1.7,0,3.2-0.7,4.3-1.8c1-1.1,1.6-2.5,1.6-4c0-1.5-0.5-2.8-1.3-3.8c-0.8-0.9-2-1.5-3.3-1.7
		l0,0.3h0.3v-0.2h-0.3l0.1,0.2c1.5-0.9,3.4-1.3,5.2-1.2c2.3,0,4,0.5,5.2,1.5c1.1,1,1.7,2.6,1.7,4.9v4.7h0.3l-0.1-0.3
		c-3.6,1-9.2,2.3-14,4.6c-2.4,1.2-4.6,2.6-6.1,4.4c-1.6,1.8-2.6,4-2.6,6.6c0,1.8,0.4,3.3,1.1,4.6c1.1,1.9,2.8,3.2,4.8,4
		c2,0.8,4.4,1.1,6.8,1.1c4.8,0,8.7-1.6,11.7-5.3l-0.2-0.2l-0.2,0.1c0.9,1.8,2.1,3.1,3.5,4s3.1,1.3,5.1,1.3c3.4,0,5.9-1.1,7.7-2.8
		c1.7-1.8,2.6-4.2,2.6-7V55c0-0.1,0-0.1-0.1-0.2c-0.1-0.1-0.1-0.1-0.2-0.1h-2.7c-0.1,0-0.3,0.1-0.3,0.2c-0.2,1.5-0.5,2.9-0.9,4
		c-0.2,0.5-0.5,0.9-0.8,1.2c-0.3,0.3-0.6,0.4-1,0.4c-0.4,0-0.8-0.1-1-0.3c-0.4-0.2-0.7-0.7-0.9-1.4c-0.2-0.7-0.3-1.7-0.3-2.9V37.6
		H201.8h-0.3V56c0,1.7,0.1,2.9,0.5,3.8c0.2,0.4,0.5,0.8,0.9,1c0.4,0.2,0.8,0.3,1.3,0.3c0.5,0,1-0.2,1.4-0.5c0.6-0.5,0.9-1.3,1.2-2.3
		c0.3-0.9,0.5-2.1,0.6-3.2l-0.3,0v0.3h2.4v1.2c0,2.6-0.8,4.9-2.5,6.6c-1.6,1.7-4,2.7-7.3,2.7c-2,0-3.5-0.4-4.8-1.2
		c-1.3-0.8-2.4-2.1-3.3-3.8c0-0.1-0.1-0.1-0.2-0.1c-0.1,0-0.2,0-0.2,0.1c-2.9,3.6-6.6,5.1-11.2,5.1c-3.1,0-6.1-0.6-8.4-2
		c-1.1-0.7-2.1-1.6-2.7-2.8c-0.7-1.2-1-2.6-1-4.3c0-2.5,0.9-4.5,2.4-6.2c2.3-2.6,5.9-4.4,9.6-5.8c3.7-1.4,7.6-2.3,10.2-3
		c0.1,0,0.2-0.1,0.2-0.3v-4.7c0-2.5-0.6-4.2-1.9-5.3c-1.3-1.1-3.1-1.6-5.5-1.6c-1.9,0-3.8,0.4-5.5,1.3c-0.1,0-0.1,0.1-0.1,0.2v0.2
		c0,0.1,0.1,0.3,0.2,0.3c1.2,0.2,2.2,0.7,2.9,1.5c0.7,0.8,1.2,2,1.2,3.4c0,2.7-2.2,5.3-5.4,5.3c-1.7,0-3.1-0.6-4.1-1.6
		c-1-1-1.6-2.5-1.6-4.3c0-2.3,1.3-4.6,4-6.4c2.7-1.8,6.8-3,12.4-3c4.7,0,8.3,0.8,10.7,2.5c2.4,1.7,3.7,4.4,3.7,8.4H201.8L201.8,37.6
		z M190.2,54.1h-0.3c0,2.3-0.5,4.2-1.4,5.5c-0.9,1.3-2.1,2-3.8,2c-1.7,0-2.8-0.7-3.5-1.7c-0.7-1-1.1-2.5-1.1-4c0-2.7,1.3-5,3.2-6.8
		c1.9-1.8,4.4-3.1,6.8-3.6l-0.1-0.3h-0.3v9H190.2h0.3v-9c0-0.1,0-0.2-0.1-0.2c-0.1-0.1-0.2-0.1-0.2-0.1c-2.5,0.6-5.1,1.9-7.1,3.8
		c-2,1.9-3.4,4.3-3.4,7.2c0,1.6,0.3,3.2,1.2,4.3c0.8,1.2,2.1,2,4,2c1.8,0,3.2-0.8,4.2-2.2c1-1.4,1.5-3.4,1.5-5.8H190.2L190.2,54.1z
		 M224,45.2h0.3c0-3.8,0.4-7.6,1.4-10.3c0.5-1.4,1.2-2.5,2-3.3c0.8-0.8,1.8-1.2,3.1-1.2c1,0,1.9,0.3,2.7,0.9
		c1.2,0.9,2.1,2.7,2.7,5.3c0.6,2.6,1,6.1,1,10.5c0,3.8-0.4,7.6-1.5,10.5c-0.5,1.4-1.3,2.6-2.1,3.4c-0.9,0.8-1.9,1.2-3.2,1.2
		c-1.1,0-2-0.4-2.8-1.3c-1.1-1.2-2-3.4-2.4-6.1c-0.5-2.7-0.7-6-0.7-9.6H224h-0.3c0,4.8,0.4,9.1,1.3,12.3c0.5,1.6,1.1,2.9,2,3.8
		c0.8,0.9,1.9,1.4,3.2,1.4c1.4,0,2.6-0.5,3.6-1.4c1.5-1.3,2.4-3.4,3-5.9c0.6-2.5,0.8-5.4,0.8-8.3c0-5.9-0.6-10.2-1.8-13
		c-0.6-1.4-1.3-2.5-2.2-3.2c-0.9-0.7-1.9-1.1-3-1c-1.4,0-2.5,0.5-3.4,1.3c-1.4,1.3-2.2,3.3-2.8,5.8c-0.5,2.5-0.7,5.3-0.7,8.2H224
		L224,45.2z M249,10.4l0-0.3l-17.8,0.3c-0.2,0-0.3,0.1-0.3,0.3v3.1c0,0.1,0,0.1,0.1,0.2c0.1,0.1,0.1,0.1,0.2,0.1
		c1.3,0,2.4,0.1,3.2,0.3c1.2,0.3,1.8,0.8,2.2,1.5c0.4,0.7,0.5,1.8,0.5,3.2v11.1h0.3l0.2-0.2c-2.2-2.2-5.2-3.8-8.9-3.8
		c-8.9,0-17.6,8.2-17.6,19.9c0,6,2,11.1,5.2,14.7c3.2,3.6,7.5,5.6,12.1,5.6c2.6,0,4.3-0.5,5.8-1.3c1.4-0.8,2.6-2,3.9-3.3l-0.2-0.2
		v0.3h0.2v-0.3h-0.3v4c0,0.1,0,0.1,0.1,0.2c0.1,0.1,0.1,0.1,0.2,0.1l16.5-0.3c0.2,0,0.3-0.1,0.3-0.3v-2.9c0-0.1,0-0.1-0.1-0.2
		c-0.1-0.1-0.1-0.1-0.2-0.1c-1.1,0-2-0.1-2.7-0.3c-1-0.3-1.6-0.8-1.9-1.5c-0.4-0.8-0.5-1.8-0.5-3.2V10.4c0-0.1,0-0.1-0.1-0.2
		c-0.1-0.1-0.1-0.1-0.2-0.1L249,10.4h-0.3v46.7c0,0.9,0,1.7,0.2,2.4c0.2,1,0.7,1.9,1.6,2.4c0.9,0.5,2.1,0.7,3.9,0.7v-0.3h-0.3V65
		l-15.9,0.3v-3.7c0-0.1,0-0.1-0.1-0.2c-0.1-0.1-0.1-0.1-0.2-0.1h-0.2c-0.1,0-0.1,0-0.2,0.1c-1.3,1.3-2.4,2.4-3.8,3.2
		c-1.4,0.8-3,1.2-5.5,1.2c-8.9,0-16.7-7.9-16.7-19.7c0-5.8,2.1-10.6,5.3-14c3.2-3.4,7.5-5.4,11.7-5.4c3.6,0,6.4,1.5,8.6,3.6
		c0.1,0.1,0.2,0.1,0.3,0.1c0.1,0,0.2-0.1,0.2-0.3V19.1c0-0.9,0-1.7-0.2-2.4c-0.2-1.1-0.8-1.9-1.8-2.4c-1-0.5-2.4-0.7-4.5-0.7v0.3
		h0.3V11l17.5-0.3L249,10.4h-0.3H249L249,10.4z M290.5,37.6h0.3c0-4.1-1.4-7-4-8.8c-2.6-1.8-6.3-2.6-11-2.6c-5.6,0-9.9,1.2-12.7,3.1
		c-2.8,1.9-4.2,4.4-4.2,6.9c0,2,0.6,3.6,1.7,4.7c1.1,1.1,2.7,1.7,4.5,1.7c1.7,0,3.2-0.7,4.3-1.8c1-1.1,1.6-2.5,1.6-4
		c0-1.5-0.5-2.8-1.3-3.8c-0.8-0.9-2-1.5-3.3-1.7l0,0.3h0.3v-0.2h-0.3l0.1,0.2c1.5-0.9,3.4-1.3,5.2-1.2c2.3,0,4,0.5,5.2,1.5
		c1.1,1,1.7,2.6,1.7,4.9v4.7h0.3l-0.1-0.3c-3.6,1-9.2,2.3-14,4.6c-2.4,1.2-4.6,2.6-6.1,4.4c-1.6,1.8-2.6,4-2.6,6.6
		c0,1.8,0.4,3.3,1.1,4.6c1.1,1.9,2.8,3.2,4.8,4c2,0.8,4.4,1.1,6.8,1.1c4.8,0,8.7-1.6,11.7-5.3l-0.2-0.2L280,61
		c0.9,1.8,2.1,3.1,3.5,4c1.4,0.9,3.1,1.3,5.1,1.3c3.4,0,5.9-1.1,7.7-2.8c1.7-1.8,2.6-4.2,2.6-7V55c0-0.1,0-0.1-0.1-0.2
		c-0.1-0.1-0.1-0.1-0.2-0.1h-2.7c-0.1,0-0.3,0.1-0.3,0.2c-0.2,1.5-0.5,2.9-0.9,4c-0.2,0.5-0.5,0.9-0.8,1.2c-0.3,0.3-0.6,0.4-1,0.4
		c-0.4,0-0.8-0.1-1-0.3c-0.4-0.2-0.7-0.7-0.9-1.4c-0.2-0.7-0.3-1.7-0.3-2.9V37.6H290.5h-0.3V56c0,1.7,0.1,2.9,0.5,3.8
		c0.2,0.4,0.5,0.8,0.9,1c0.4,0.2,0.8,0.3,1.3,0.3c0.5,0,1-0.2,1.4-0.5c0.6-0.5,0.9-1.3,1.2-2.3c0.3-0.9,0.5-2.1,0.6-3.2l-0.3,0v0.3
		h2.4v1.2c0,2.6-0.8,4.9-2.5,6.6c-1.6,1.7-4,2.7-7.3,2.7c-2,0-3.5-0.4-4.8-1.2c-1.3-0.8-2.4-2.1-3.3-3.8c0-0.1-0.1-0.1-0.2-0.1
		c-0.1,0-0.2,0-0.2,0.1c-2.9,3.6-6.6,5.1-11.2,5.1c-3.1,0-6.1-0.6-8.4-2c-1.1-0.7-2.1-1.6-2.7-2.8c-0.7-1.2-1-2.6-1-4.3
		c0-2.5,0.9-4.5,2.4-6.2c2.3-2.6,5.9-4.4,9.6-5.8c3.7-1.4,7.6-2.3,10.2-3c0.1,0,0.2-0.1,0.2-0.3v-4.7c0-2.5-0.6-4.2-1.9-5.3
		c-1.3-1.1-3.1-1.6-5.5-1.6c-1.9,0-3.8,0.4-5.5,1.3c-0.1,0-0.1,0.1-0.1,0.2v0.2c0,0.1,0.1,0.3,0.2,0.3c1.2,0.2,2.2,0.7,2.9,1.5
		c0.7,0.8,1.2,2,1.2,3.4c0,2.7-2.2,5.3-5.4,5.3c-1.7,0-3.1-0.6-4.1-1.6c-1-1-1.6-2.5-1.6-4.3c0-2.3,1.3-4.6,4-6.4
		c2.7-1.8,6.8-3,12.4-3c4.7,0,8.3,0.8,10.7,2.5c2.4,1.7,3.7,4.4,3.7,8.4H290.5L290.5,37.6z M278.9,54.1h-0.3c0,2.3-0.5,4.2-1.4,5.5
		c-0.9,1.3-2.1,2-3.8,2c-1.7,0-2.8-0.7-3.5-1.7c-0.7-1-1.1-2.5-1.1-4c0-2.7,1.3-5,3.2-6.8c1.9-1.8,4.4-3.1,6.8-3.6l-0.1-0.3h-0.3v9
		H278.9h0.3v-9c0-0.1,0-0.2-0.1-0.2c-0.1-0.1-0.2-0.1-0.2-0.1c-2.5,0.6-5.1,1.9-7.1,3.8c-2,1.9-3.4,4.3-3.4,7.2
		c0,1.6,0.3,3.2,1.2,4.3c0.8,1.2,2.1,2,4,2c1.8,0,3.2-0.8,4.2-2.2c1-1.4,1.5-3.4,1.5-5.8H278.9L278.9,54.1z"/>
	<path class="st0" d="M0,0.8c1.5,0,2,0.3,2,1.3v9.5c0,1-0.5,1.3-1.9,1.3v0.8h5.3V13c-1.8,0-2.3-0.3-2.3-1.3V3.2h0.1l7.4,10.6h1.8
		V2.4c0-1,0.5-1.3,1.8-1.5V0H9.3v0.8c1.6,0.2,2,0.5,2,1.5v7.1h0h0L4.7,0H0V0.8L0,0.8z M22.8,7c0-2-1.3-2.8-3.6-2.8
		c-2.7,0-4.1,1.2-4.1,2.4c0,1,0.6,1.5,1.5,1.5c0.8,0,1.4-0.7,1.4-1.4c0-0.7-0.5-1.2-1.1-1.3v0c0.4-0.2,0.9-0.3,1.3-0.3
		c1.1,0,1.8,0.5,1.8,1.7v1.2c-1.8,0.5-5.5,1.3-5.5,3.8c0,1.8,1.5,2.3,3,2.3c1.1,0,2.1-0.4,2.8-1.3c0.4,0.9,1.1,1.3,2,1.3
		c1.6,0,2.5-1,2.5-2.4v-0.4h-0.7c-0.1,0.8-0.3,1.4-0.7,1.4c-0.5,0-0.6-0.4-0.6-1.2V7L22.8,7z M19.9,11.1c0,1.2-0.5,1.9-1.3,1.9
		c-0.9,0-1.2-0.7-1.2-1.5c0-1.4,1.3-2.4,2.5-2.7V11.1L19.9,11.1z M25.5,13.9h0.8c0.1-0.3,0.2-0.6,0.4-0.6c0.4,0,1.2,0.7,2.9,0.7
		c1.9,0,3.9-1.2,3.9-3.3c0-4.1-5.8-2.4-5.8-4.4c0-0.7,0.6-1.3,1.6-1.3c1.6,0,2.3,1.2,2.8,2.5h0.8V4.4h-0.8C32,4.7,32,4.9,31.7,4.9
		c-0.3,0-1.1-0.7-2.5-0.7c-2.1,0-3.8,1.4-3.8,3.2c0,4.2,5.8,2.2,5.8,4.6c0,0.7-0.9,1.3-1.9,1.3c-1.6,0-2.8-1.4-3.2-2.9h-0.7V13.9
		L25.5,13.9z M30.3,3.4L32.8,0h-1l-2.5,1.9L26.8,0h-1l2.5,3.4H30.3L30.3,3.4z M42.9,7c0-2-1.3-2.8-3.6-2.8c-2.7,0-4.1,1.2-4.1,2.4
		c0,1,0.6,1.5,1.5,1.5c0.8,0,1.4-0.7,1.4-1.4C38,6,37.6,5.5,37,5.4v0c0.4-0.2,0.9-0.3,1.3-0.3c1.1,0,1.8,0.5,1.8,1.7v1.2
		c-1.8,0.5-5.5,1.3-5.5,3.8c0,1.8,1.5,2.3,3,2.3c1.1,0,2.1-0.4,2.8-1.3c0.4,0.9,1.1,1.3,2,1.3c1.6,0,2.5-1,2.5-2.4v-0.4h-0.7
		c-0.1,0.8-0.3,1.4-0.7,1.4c-0.5,0-0.6-0.4-0.6-1.2V7L42.9,7z M40,11.1c0,1.2-0.5,1.9-1.3,1.9c-0.9,0-1.2-0.7-1.2-1.5
		c0-1.4,1.3-2.4,2.5-2.7V11.1L40,11.1z"/>
</g>
</svg>
