<?xml version="1.0" encoding="utf-8"?>
<!-- Generator: Adobe Illustrator 16.0.3, SVG Export Plug-In . SVG Version: 6.00 Build 0)  -->
<!DOCTYPE svg PUBLIC "-//W3C//DTD SVG 1.1//EN" "http://www.w3.org/Graphics/SVG/1.1/DTD/svg11.dtd">
<svg version="1.1" id="Vrstva_1" xmlns="http://www.w3.org/2000/svg" xmlns:xlink="http://www.w3.org/1999/xlink" x="0px" y="0px"
	 width="373.481px" height="301.484px" viewBox="0 0 373.481 301.484" enable-background="new 0 0 373.481 301.484"
	 xml:space="preserve">
<g>
	<g>
		<g>
			<defs>
				<polyline id="SVGID_1_" points="488.848,19.825 488.848,861.715 -106.427,861.715 -106.427,19.825 				"/>
			</defs>
			<clipPath id="SVGID_2_">
				<use xlink:href="#SVGID_1_"  overflow="visible"/>
			</clipPath>
			<path clip-path="url(#SVGID_2_)" fill="none" stroke="#FFFFFF" stroke-width="2" stroke-miterlimit="10" d="M82.785,72.747
				c0,0-13.988,0-13.988,13.987v139.204c0,0,0,13.988,13.988,13.988h216.85c0,0,13.988,0,13.988-13.988V86.735
				c0,0,0-13.987-13.988-13.987H82.785z"/>
		</g>
	</g>
	<g>
		<g>
			<defs>
				<path id="SVGID_3_" d="M82.785,72.747c0,0-13.988,0-13.988,13.987v139.204c0,0,0,13.988,13.988,13.988h216.852
					c0,0,13.988,0,13.988-13.988V86.735c0,0,0-13.987-13.988-13.987H82.785z"/>
			</defs>
			<clipPath id="SVGID_4_">
				<use xlink:href="#SVGID_3_"  overflow="visible"/>
			</clipPath>
			<rect x="69.611" y="67.613" clip-path="url(#SVGID_4_)" fill="none" width="263.097" height="99.964"/>
		</g>
	</g>
	<g>
		<path fill="none" stroke="#FFFFFF" stroke-width="2" d="M82.785,72.747c0,0-13.988,0-13.988,13.987v139.204
			c0,0,0,13.988,13.988,13.988h216.85c0,0,13.988,0,13.988-13.988V86.735c0,0,0-13.987-13.988-13.987H82.785z"/>
	</g>
	<g>
		<path fill:black; d="M283.112,176.666c4.875,0,8.618,2.215,11.229,6.642c2.609,4.428,3.914,11.303,3.914,20.624
			c0,9.323-1.162,16.184-3.485,20.581c-2.324,4.4-5.866,6.598-10.628,6.598h-1.828c-0.99,0-1.829-0.057-2.516-0.174
			c-0.686-0.117-1.237-0.406-1.656-0.874c-0.419-0.466-0.725-1.165-0.914-2.098c-0.189-0.931-0.286-2.242-0.286-3.932v-41.688
			c0-1.281,0.058-2.301,0.172-3.059c0.114-0.756,0.313-1.324,0.601-1.704c0.285-0.378,0.666-0.625,1.144-0.743
			c0.476-0.116,1.095-0.174,1.856-0.174H283.112z M264.941,175.967c1.104,0.349,2.037,0.598,2.802,0.742
			c0.76,0.146,1.379,0.452,1.855,0.918c0.477,0.467,0.818,1.239,1.027,2.315c0.209,1.079,0.313,2.695,0.313,4.851v38.54
			c0,1.866-0.076,3.365-0.228,4.501c-0.153,1.136-0.438,2.01-0.857,2.622c-0.42,0.611-1.01,1.005-1.771,1.18
			c-0.763,0.175-1.732,0.262-2.914,0.262v2.796h15.258c4.38,0,8.133-0.727,11.257-2.184c3.123-1.456,5.687-3.51,7.687-6.162
			c2-2.649,3.465-5.869,4.398-9.656s1.4-8.041,1.4-12.76c0-4.894-0.479-9.263-1.43-13.108s-2.344-7.107-4.172-9.788
			c-1.828-2.68-4.076-4.732-6.74-6.161c-2.668-1.427-5.717-2.142-9.145-2.142c-1.334,0-2.543,0.044-3.629,0.132
			c-1.086,0.087-2.152,0.175-3.199,0.262c-1.049,0.088-2.105,0.161-3.172,0.219c-1.066,0.059-2.21,0.087-3.428,0.087
			c-0.953,0-1.867-0.013-2.744-0.043c-0.877-0.029-1.733-0.132-2.57-0.306L264.941,175.967L264.941,175.967z M259.915,173.083
			h-23.144c-0.8,0-1.582-0.059-2.343-0.175c-0.764-0.116-1.524-0.291-2.286-0.525L231,190.823h1.828
			c0.305-1.923,0.687-3.641,1.144-5.156c0.457-1.515,0.837-2.767,1.144-3.758c0.456-1.049,1.104-1.893,1.941-2.534
			s1.725-1.136,2.656-1.486c0.934-0.349,1.849-0.581,2.744-0.699c0.895-0.115,1.629-0.175,2.199-0.175h2.742
			c0.837,0,1.678,0.06,2.516,0.175c0.838,0.118,1.693,0.292,2.57,0.524l-22.686,54.883l0.229,2.097h29.199l1.602-18.788L259,215.206
			c-0.344,1.281-0.82,2.826-1.431,4.632c-0.608,1.806-1.42,3.539-2.428,5.2c-1.011,1.66-2.259,3.088-3.743,4.281
			c-1.484,1.195-3.275,1.791-5.371,1.791h-4.629c-0.877,0-2.189-0.231-3.941-0.698l22.457-54.445V173.083z M223.514,173.17h-31.942
			v2.797c4,0,6,2.593,6,7.778v42.123c0,4.02-1.848,6.029-5.542,6.029v2.796h32.399l1.6-18.438l-1.6-0.7
			c-0.649,2.622-1.257,4.895-1.829,6.817c-0.571,1.923-1.344,3.496-2.313,4.719c-0.973,1.224-2.229,2.141-3.771,2.753
			c-1.543,0.612-3.609,0.918-6.2,0.918h-1.886c-3.238,0-4.857-1.748-4.857-5.244v-17.741c0-2.097,0.934-3.146,2.801-3.146h0.687
			c1.294,0,2.399,0.103,3.313,0.306c0.914,0.205,1.666,0.671,2.258,1.399c0.59,0.729,1.047,1.762,1.371,3.102
			c0.322,1.342,0.562,3.146,0.715,5.418H217v-24.032h-2.285c-0.153,2.272-0.449,4.078-0.887,5.419s-0.98,2.331-1.629,2.971
			c-0.648,0.642-1.408,1.049-2.285,1.224c-0.877,0.174-1.828,0.263-2.856,0.263H205c-0.953,0-1.43-0.93-1.43-2.786v-16.631
			c0-2.785,1.543-4.18,4.631-4.18h1.655c1.601,0,3.065,0.087,4.399,0.263c1.334,0.175,2.515,0.698,3.543,1.572
			c1.029,0.874,1.904,2.243,2.629,4.107c0.723,1.866,1.275,4.487,1.656,7.866l1.887-0.351L223.514,173.17z M184.944,173.17h-17.542
			v2.797c4,0,6,2.709,6,8.127v41.424c0,4.254-1.924,6.38-5.771,6.38v2.796h17.599v-2.796c-3.886,0-5.828-2.126-5.828-6.38v-41.424
			c0-5.418,1.847-8.127,5.542-8.127V173.17z M164.317,173.17h-14.571v2.797c3.694,0,5.542,1.515,5.542,4.544
			c0,0.467-0.019,0.976-0.057,1.529c-0.038,0.555-0.095,1.123-0.171,1.705l-9.486,39.938l-10.228-41.773
			c-0.305-2.155-0.457-3.554-0.457-4.195c0-1.164,0.704-1.747,2.114-1.747h2.743v-2.797h-16.4v2.797
			c2.323,0,4.095,1.981,5.314,5.942l13.886,53.484l2.057,0.699l14.628-55.232c0.762-3.263,1.829-4.894,3.2-4.894h1.886V173.17
			L164.317,173.17z M120.947,173.17h-17.6v2.797c4.038,0,6.057,2.709,6.057,8.127V200c-0.8,0.699-2.342,1.048-4.628,1.048H93.862
			c-1.677,0-3.143-0.349-4.4-1.048v-15.906c0-5.418,1.866-8.127,5.6-8.127v-2.797H77.234v2.797c4.152,0,6.228,2.709,6.228,8.127
			v41.424c0,4.254-2.076,6.38-6.228,6.38v2.796h17.828v-2.796c-3.734,0-5.6-2.126-5.6-6.38v-19.487
			c1.18-0.933,2.647-1.399,4.4-1.399h10.914c2.362,0,3.904,0.467,4.628,1.399v19.487c0,4.254-2.019,6.38-6.057,6.38v2.796h17.6
			v-2.796c-3.695,0-5.543-2.126-5.543-6.38v-41.424c0-5.418,1.848-8.127,5.543-8.127V173.17z"/>
		<path fill:black; d="M308.786,110.09h-14.011v2.795c4.411,0.895,4.954,2.125,4.024,6.373
			c-1.625,7.043-4.953,20.236-7.12,27.838l-7.044-28.062c-1.006-4.137-0.618-5.254,2.941-6.149v-2.795h-15.713v2.795
			c4.258,0.895,5.031,2.348,6.656,8.497c2.322,7.938,5.805,21.466,8.9,34.211c0.465,1.901,0.465,3.354,0.078,5.031
			c-0.311,1.453-0.93,3.801-2.399,7.714c-1.78,4.919-3.328,7.714-5.728,9.95c-1.315,1.229-2.014,2.235-2.014,4.024
			c0,2.684,2.245,5.367,4.412,5.367c1.084,0,2.09-0.559,2.477-2.684c1.084-6.037,2.787-12.409,7.973-30.297
			c5.342-18.447,7.74-27.728,9.676-33.652c2.09-6.373,2.785-7.268,6.889-8.162v-2.795H308.786z M272.95,154.922l-0.697-2.907
			c-1.082,0.783-2.862,1.901-4.799,1.901c-1.935,0-4.488-1.677-4.488-10.733v-28.731h8.281c0.93-0.783,1.162-3.243,0.465-4.361
			h-8.746V94.774l-1.084-0.224l-5.03,7.379v8.161h-3.562l-2.09,3.243l0.311,1.118h5.341v32.532c0,8.833,2.709,13.306,7.586,13.306
			c0.696,0,1.935-0.448,3.25-1.454L272.95,154.922z M240.597,149.557c-1.472,2.012-4.181,3.913-6.192,4.025
			c-2.398,0-5.496-2.795-5.496-8.609c0-4.024,1.703-6.148,4.723-8.161c1.625-1.118,5.341-3.466,6.967-4.695L240.597,149.557
			L240.597,149.557z M252.827,154.587l-0.773-2.907c-0.774,0.671-1.858,1.23-2.787,1.23c-1.314,0-2.709-1.678-2.709-6.708v-20.795
			c0-5.813-0.773-10.396-3.482-13.641c-1.703-2.012-4.023-3.018-6.347-3.018c-4.412,1.229-9.442,5.59-11.61,7.826
			c-1.471,1.564-2.477,2.795-2.477,4.472c0,2.571,2.012,4.807,3.404,4.807c1.084,0,1.936-0.781,2.244-2.57
			c0.619-3.467,1.316-5.927,2.322-7.38c0.774-1.342,1.936-2.235,3.483-2.235c3.87,0,6.502,4.584,6.502,12.633v2.013
			c-1.703,2.013-7.354,5.031-11.997,7.268c-4.258,2.124-6.271,5.59-6.271,11.067c0,7.043,3.793,13.641,9.289,13.641
			c2.321,0,6.036-4.138,9.133-7.156c0.388,1.901,0.853,3.466,1.857,5.031c0.852,1.118,2.477,2.125,3.639,2.125L252.827,154.587z
			 M206.542,120.601v-12.187c-3.715,2.348-7.121,3.689-10.914,4.584v2.46c4.412,0.894,4.801,1.341,4.801,8.72v23.143
			c0,7.38-0.542,8.05-5.342,8.721v2.907h17.803v-2.907c-5.959-0.671-6.348-1.341-6.348-8.721v-20.46
			c1.703-6.26,4.181-9.613,6.192-9.613c1.238,0,2.167,0.67,3.25,2.347c0.466,0.671,1.161,0.783,2.091,0.224
			c1.471-1.006,2.477-3.241,2.477-5.478c0-2.683-1.857-5.59-4.488-5.59c-3.715,0-7.044,6.261-9.366,11.851H206.542z M195.32,110.09
			h-13.778v2.795c4.412,0.783,4.877,2.013,3.716,7.379c-1.703,7.268-4.18,17.441-6.889,26.72
			c-2.245-8.049-5.341-19.788-7.353-27.613c-1.238-4.809-1.084-5.702,3.096-6.485v-2.795h-15.867v2.795
			c4.18,0.895,4.799,1.677,6.579,8.162c3.638,12.969,7.198,25.714,10.681,39.13h2.09c4.257-16.658,8.359-30.41,10.913-38.795
			c2.09-6.708,2.787-7.714,6.812-8.497V110.09L195.32,110.09z M143.461,103.831l9.675-19.23l-0.232-1.006
			c-0.929-0.336-5.495,0.559-6.269,1.006c-0.542,1.901-3.716,13.081-5.186,17.776L143.461,103.831z M149.034,149.557
			c-1.471,2.012-4.18,3.913-6.192,4.025c-2.399,0-5.495-2.795-5.495-8.609c0-4.024,1.702-6.148,4.721-8.161
			c1.625-1.118,5.341-3.466,6.966-4.695V149.557z M161.263,154.587l-0.774-2.907c-0.774,0.671-1.857,1.23-2.786,1.23
			c-1.316,0-2.709-1.678-2.709-6.708v-20.795c0-5.813-0.774-10.396-3.483-13.641c-1.703-2.012-4.025-3.018-6.347-3.018
			c-4.412,1.229-9.443,5.59-11.61,7.826c-1.471,1.564-2.477,2.795-2.477,4.472c0,2.571,2.013,4.807,3.406,4.807
			c1.083,0,1.935-0.781,2.244-2.57c0.62-3.467,1.316-5.927,2.322-7.38c0.774-1.342,1.935-2.235,3.483-2.235
			c3.87,0,6.502,4.584,6.502,12.633v2.013c-1.703,2.013-7.353,5.031-11.997,7.268c-4.257,2.124-6.269,5.59-6.269,11.067
			c0,7.043,3.792,13.641,9.288,13.641c2.322,0,6.037-4.138,9.133-7.156c0.387,1.901,0.851,3.466,1.857,5.031
			c0.852,1.118,2.477,2.125,3.638,2.125L161.263,154.587z M129.838,86.277h-18.266v3.131c5.34,0.447,7.198,1.9,7.585,6.932
			c0.232,3.13,0.542,8.272,0.542,18.559v27.503h-0.233L87.191,86.277H75.735v3.131c3.638,0.447,5.341,1.342,6.889,4.137
			c1.393,2.683,1.548,3.13,1.548,11.292v24.596c0,10.285-0.232,15.652-0.464,19.118c-0.387,5.478-2.322,6.931-6.812,7.267v3.131
			H95.24v-3.131c-5.263-0.447-7.043-1.789-7.43-7.49c-0.232-3.242-0.465-8.609-0.465-18.895V101.37H87.5l32.973,58.583h2.399
			v-45.056c0-10.397,0.155-15.429,0.464-18.782c0.31-4.92,2.168-6.372,6.502-6.708V86.277z"/>
		<path fill:black; d="M237.657,90.627c-1.123,0.158-1.338-1.106-1.464-2.008c-0.411-2.666,0.3-7.566,1.81-7.779
			c0.877-0.123,1.263,0.572,1.379,1.407c0.423,3.005-0.002,8.138-1.688,8.375L237.657,90.627z M237.721,94.397
			c5.199-0.729,7.631-6.622,6.847-12.197c-0.327-2.339-1.502-5.851-6.245-5.184c-5.269,0.74-8.045,6.477-7.199,12.486
			c0.31,2.204,1.715,5.582,6.563,4.899L237.721,94.397z M225.319,95.868l0.401-7.344c0.153-2.983,1.671-4.934,3.427-5.18
			c0.281-0.04,0.707-0.066,0.889-0.057l0.293-5.047c-0.256-0.032-0.507-0.031-0.822,0.014c-1.334,0.188-2.807,1.178-3.846,3.469
			l-0.142,0.02c-0.017-0.884-0.067-1.762-0.12-2.64l-4.427,0.623c-0.046,1.708-0.069,3.584-0.177,5.37l-0.676,11.502L225.319,95.868
			z M211.004,78.131l-0.185,3.021l-2.003,0.282l-0.184,3.533l1.967-0.277l-0.417,6.972c-0.052,0.653-0.056,1.642,0.058,2.442
			c0.342,2.438,1.969,3.811,4.953,3.391c0.949-0.134,2.107-0.296,2.948-0.688l0.151-3.766c-0.482,0.135-0.975,0.205-1.256,0.244
			c-0.771,0.108-1.451-0.137-1.605-1.238c-0.038-0.267-0.059-0.673-0.051-1.117l0.418-6.971l3.267-0.459l0.187-3.533l-3.232,0.455
			l0.254-4.565L211.004,78.131z M203.59,87.311c0.183,1.302-1.24,2.388-3.402,2.556c0.02-1.909,0.82-3.589,2.086-3.767
			c0.773-0.108,1.193,0.343,1.313,1.177L203.59,87.311z M206.924,93.959c-1.088,0.663-2.065,1.106-3.575,1.318
			c-1.124,0.158-1.918-0.139-2.396-0.479c-0.479-0.342-0.646-0.761-0.711-1.229c4.877-0.48,8.471-2.688,7.809-7.396
			c-0.372-2.399-2.256-4.586-5.699-4.103c-5.762,0.811-7.809,6.887-7.119,11.795c0.514,3.64,2.68,6.059,7.211,5.422
			c2.18-0.307,3.688-0.79,5.252-1.623L206.924,93.959z M185.244,82.432c0.237-0.101,0.619-0.188,1.04-0.248
			c1.37-0.191,1.935,1.022,2.066,1.957c0.281,2.003-0.572,4.337-2.54,4.613l-0.878,0.124L185.244,82.432z M179.09,102.365
			l5.059-0.712l0.47-8.885l0.562-0.079c1.195-0.168,1.834,0.561,2.155,3.103c0.299,2.376,0.697,4.703,0.888,5.289l5.198-0.73
			c-0.367-0.834-0.883-3.996-1.27-6.223c-0.398-2.328-1.09-3.422-2.363-3.822l-0.015-0.1c2.481-1.2,4.265-4.073,3.793-7.411
			c-0.216-1.536-1.034-2.783-2.187-3.575c-1.547-1.076-3.772-1.104-5.88-0.808c-1.686,0.236-3.489,0.661-5.068,1.154L179.09,102.365
			z"/>
	</g>
	<g>
		<g>
			<path fill="none" d="M518.022-9.348"/>
		</g>
		<g>
			<defs>
				<line id="SVGID_5_" x1="-135.6" y1="-9.348" x2="-135.6" y2="890.888"/>
			</defs>
			<clipPath id="SVGID_6_">
				<use xlink:href="#SVGID_5_"  overflow="visible"/>
			</clipPath>
			<path clip-path="url(#SVGID_6_)" fill="none" d="M518.022-9.348"/>
			<path clip-path="url(#SVGID_6_)" fill="none" stroke="#FFFFFF" stroke-width="1.25" stroke-miterlimit="10" d="M-106.427,875.888
				v15 M-106.427,5.652v-15 M503.022,861.715h15 M-120.6,861.715h-15 M-120.6,19.825h-15"/>
		</g>
		<g>
			<defs>
				<line id="SVGID_7_" x1="-135.6" y1="-9.348" x2="-135.6" y2="890.888"/>
			</defs>
			<clipPath id="SVGID_8_">
				<use xlink:href="#SVGID_7_"  overflow="visible"/>
			</clipPath>
			<path clip-path="url(#SVGID_8_)" fill="none" d="M518.022-9.348"/>
			<path clip-path="url(#SVGID_8_)" fill="none" stroke="#000000" stroke-width="0.25" stroke-miterlimit="10" d="M-106.427,875.888
				v15 M503.022,861.715h15 M-120.6,861.715h-15"/>
		</g>
		<g>
			<defs>
				<line id="SVGID_9_" x1="-135.6" y1="-9.348" x2="-135.6" y2="890.888"/>
			</defs>
			<clipPath id="SVGID_10_">
				<use xlink:href="#SVGID_9_"  overflow="visible"/>
			</clipPath>
			<path clip-path="url(#SVGID_10_)" fill="none" d="M518.022-9.348"/>
			<path clip-path="url(#SVGID_10_)" fill="none" stroke="#FFFFFF" stroke-width="0.4" stroke-miterlimit="10" d="M-95.155,882.914
				h0.276c0.732,0,1.152,0.27,1.152,0.888c0,0.624-0.438,0.876-0.93,0.882c-0.384,0-0.498-0.113-0.498-0.546V882.914z
				 M-95.155,882.716v-1.176c0-0.198,0.024-0.265,0.078-0.301c0.06-0.035,0.192-0.061,0.342-0.061c0.57,0,0.798,0.36,0.798,0.769
				c0,0.505-0.276,0.769-0.936,0.769H-95.155L-95.155,882.716z M-94.195,882.77c0.336-0.09,0.81-0.323,0.81-0.894
				c0-0.276-0.12-0.54-0.336-0.685c-0.186-0.133-0.45-0.204-0.9-0.204h-1.542v0.168c0.48,0.036,0.504,0.072,0.504,0.569v2.419
				c0,0.504-0.036,0.54-0.552,0.575v0.168h1.326c0.474,0,0.87-0.071,1.176-0.239c0.354-0.198,0.576-0.504,0.576-0.906
				c0-0.6-0.468-0.863-1.062-0.953V882.77z"/>
		</g>
		<g>
			<defs>
				<line id="SVGID_11_" x1="-135.6" y1="-9.348" x2="-135.6" y2="890.888"/>
			</defs>
			<clipPath id="SVGID_12_">
				<use xlink:href="#SVGID_11_"  overflow="visible"/>
			</clipPath>
			<path clip-path="url(#SVGID_12_)" fill="none" d="M518.022-9.348"/>
			<path clip-path="url(#SVGID_12_)" fill="none" stroke="#FFFFFF" stroke-width="0.4" stroke-miterlimit="10" d="M-91.543,882.416
				c0.33,0,0.534,0.288,0.528,0.6c0,0.084-0.036,0.12-0.144,0.12c-0.348,0.013-0.678,0.019-1.014,0.019
				C-92.083,882.668-91.819,882.416-91.543,882.416z M-90.625,884.252c-0.216,0.204-0.444,0.3-0.684,0.3
				c-0.42,0-0.888-0.336-0.894-1.151c0.714-0.023,1.464-0.084,1.566-0.103c0.108-0.023,0.138-0.072,0.138-0.191
				c0-0.469-0.402-0.912-0.9-0.912c-0.312,0-0.636,0.162-0.882,0.438c-0.246,0.271-0.396,0.636-0.396,1.05
				c0,0.679,0.432,1.278,1.17,1.278c0.186,0,0.6-0.108,0.978-0.582L-90.625,884.252z"/>
		</g>
		<g>
			<defs>
				<line id="SVGID_13_" x1="-135.6" y1="-9.348" x2="-135.6" y2="890.888"/>
			</defs>
			<clipPath id="SVGID_14_">
				<use xlink:href="#SVGID_13_"  overflow="visible"/>
			</clipPath>
			<path clip-path="url(#SVGID_14_)" fill="none" d="M518.022-9.348"/>
			<path clip-path="url(#SVGID_14_)" fill="none" stroke="#FFFFFF" stroke-width="0.4" stroke-miterlimit="10" d="M-88.027,884.06
				l-0.078,0.146c-0.228,0.359-0.348,0.485-0.804,0.485h-0.594c0.492-0.805,0.972-1.571,1.464-2.341l-0.036-0.084h-1.38
				c-0.222,0-0.294-0.035-0.33-0.132h-0.126c-0.048,0.258-0.138,0.643-0.204,0.87l0.15,0.054l0.084-0.161
				c0.168-0.337,0.246-0.433,0.678-0.433h0.534c-0.492,0.804-0.978,1.572-1.494,2.334l0.036,0.09h1.98
				c0.09-0.239,0.186-0.521,0.276-0.756L-88.027,884.06z"/>
		</g>
		<g>
			<defs>
				<line id="SVGID_15_" x1="-135.6" y1="-9.348" x2="-135.6" y2="890.888"/>
			</defs>
			<clipPath id="SVGID_16_">
				<use xlink:href="#SVGID_15_"  overflow="visible"/>
			</clipPath>
			<path clip-path="url(#SVGID_16_)" fill="none" d="M518.022-9.348"/>
			<path clip-path="url(#SVGID_16_)" fill="none" stroke="#FFFFFF" stroke-width="0.4" stroke-miterlimit="10" d="M-83.329,884.888
				v-0.155c-0.348-0.036-0.378-0.061-0.378-0.469v-1.158c0-0.581-0.3-0.911-0.774-0.911c-0.174,0-0.33,0.071-0.498,0.181
				c-0.15,0.102-0.282,0.191-0.402,0.281v-0.479c-0.264,0.12-0.546,0.192-0.834,0.246v0.138c0.324,0.062,0.36,0.078,0.36,0.463
				v1.241c0,0.396-0.03,0.427-0.438,0.469v0.155h1.302v-0.155c-0.354-0.036-0.39-0.061-0.39-0.469v-1.409
				c0.18-0.156,0.414-0.307,0.654-0.307c0.402,0,0.546,0.271,0.546,0.685v1.002c0,0.414-0.042,0.462-0.396,0.498v0.155
				L-83.329,884.888L-83.329,884.888z"/>
		</g>
		<g>
			<defs>
				<line id="SVGID_17_" x1="-135.6" y1="-9.348" x2="-135.6" y2="890.888"/>
			</defs>
			<clipPath id="SVGID_18_">
				<use xlink:href="#SVGID_17_"  overflow="visible"/>
			</clipPath>
			<path clip-path="url(#SVGID_18_)" fill="none" d="M518.022-9.348"/>
			<path clip-path="url(#SVGID_18_)" fill="none" stroke="#FFFFFF" stroke-width="0.4" stroke-miterlimit="10" d="M-81.967,881.93
				l0.75-1.031l-0.018-0.055c-0.072-0.018-0.426,0.03-0.486,0.055c-0.042,0.103-0.288,0.701-0.402,0.953L-81.967,881.93z
				 M-81.535,884.384c-0.114,0.107-0.324,0.21-0.48,0.216c-0.186,0-0.426-0.149-0.426-0.462c0-0.216,0.132-0.33,0.366-0.438
				c0.126-0.061,0.414-0.187,0.54-0.252V884.384z M-80.587,884.654l-0.06-0.155c-0.06,0.036-0.144,0.064-0.216,0.064
				c-0.102,0-0.21-0.09-0.21-0.358v-1.116c0-0.313-0.06-0.559-0.27-0.732c-0.132-0.106-0.312-0.161-0.492-0.161
				c-0.342,0.065-0.732,0.301-0.9,0.42c-0.114,0.084-0.192,0.149-0.192,0.239c0,0.139,0.156,0.259,0.264,0.259
				c0.084,0,0.15-0.042,0.174-0.139c0.048-0.186,0.102-0.317,0.18-0.396c0.06-0.072,0.15-0.12,0.27-0.12
				c0.3,0,0.504,0.246,0.504,0.678v0.108c-0.132,0.106-0.57,0.27-0.93,0.39c-0.33,0.114-0.486,0.3-0.486,0.594
				c0,0.378,0.294,0.732,0.72,0.732c0.18,0,0.468-0.223,0.708-0.384c0.03,0.102,0.066,0.186,0.144,0.27
				c0.066,0.061,0.192,0.114,0.282,0.114L-80.587,884.654z"/>
		</g>
		<g>
			<defs>
				<line id="SVGID_19_" x1="-135.6" y1="-9.348" x2="-135.6" y2="890.888"/>
			</defs>
			<clipPath id="SVGID_20_">
				<use xlink:href="#SVGID_19_"  overflow="visible"/>
			</clipPath>
			<path clip-path="url(#SVGID_20_)" fill="none" d="M518.022-9.348"/>
			<path clip-path="url(#SVGID_20_)" fill="none" stroke="#FFFFFF" stroke-width="0.4" stroke-miterlimit="10" d="M-78.229,884.06
				l-0.078,0.146c-0.228,0.359-0.348,0.485-0.804,0.485h-0.594c0.492-0.805,0.972-1.571,1.464-2.341l-0.036-0.084h-1.38
				c-0.222,0-0.294-0.035-0.33-0.132h-0.126c-0.048,0.258-0.138,0.643-0.204,0.87l0.15,0.054l0.084-0.161
				c0.168-0.337,0.246-0.433,0.678-0.433h0.534c-0.492,0.804-0.978,1.572-1.494,2.334l0.036,0.09h1.98
				c0.09-0.239,0.186-0.521,0.276-0.756L-78.229,884.06z"/>
		</g>
		<g>
			<defs>
				<line id="SVGID_21_" x1="-135.6" y1="-9.348" x2="-135.6" y2="890.888"/>
			</defs>
			<clipPath id="SVGID_22_">
				<use xlink:href="#SVGID_21_"  overflow="visible"/>
			</clipPath>
			<path clip-path="url(#SVGID_22_)" fill="none" d="M518.022-9.348"/>
			<path clip-path="url(#SVGID_22_)" fill="none" stroke="#FFFFFF" stroke-width="0.4" stroke-miterlimit="10" d="M-75.169,882.266
				h-1.068v0.15c0.342,0.042,0.378,0.107,0.288,0.396c-0.132,0.391-0.324,0.937-0.534,1.435c-0.174-0.433-0.414-1.063-0.57-1.482
				c-0.096-0.258-0.084-0.306,0.24-0.348v-0.15h-1.23v0.15c0.324,0.048,0.372,0.09,0.51,0.438c0.282,0.695,0.558,1.38,0.828,2.101
				h0.162c0.33-0.896,0.648-1.633,0.846-2.082c0.162-0.36,0.216-0.414,0.528-0.456V882.266z"/>
		</g>
		<g>
			<defs>
				<line id="SVGID_23_" x1="-135.6" y1="-9.348" x2="-135.6" y2="890.888"/>
			</defs>
			<clipPath id="SVGID_24_">
				<use xlink:href="#SVGID_23_"  overflow="visible"/>
			</clipPath>
			<path clip-path="url(#SVGID_24_)" fill="none" d="M518.022-9.348"/>
			<path clip-path="url(#SVGID_24_)" fill="none" stroke="#FFFFFF" stroke-width="0.4" stroke-miterlimit="10" d="M-72.145,884.594
				l-0.168-0.012c-0.228-0.013-0.276-0.055-0.276-0.354v-2.004c-0.318,0.066-0.63,0.091-0.942,0.108v0.138
				c0.432,0.061,0.468,0.084,0.468,0.426v1.398c-0.204,0.197-0.432,0.288-0.648,0.288c-0.27,0-0.528-0.146-0.528-0.679V883.1
				c0-0.407,0-0.688,0.018-0.876c-0.288,0.055-0.576,0.091-0.858,0.108v0.138c0.342,0.066,0.366,0.09,0.366,0.42v1.177
				c0,0.647,0.342,0.895,0.744,0.895c0.162,0,0.288-0.048,0.462-0.15c0.168-0.102,0.306-0.21,0.444-0.312v0.426l0.036,0.036
				c0.3-0.09,0.606-0.174,0.882-0.216V884.594z"/>
		</g>
		<g>
			<defs>
				<line id="SVGID_25_" x1="-135.6" y1="-9.348" x2="-135.6" y2="890.888"/>
			</defs>
			<clipPath id="SVGID_26_">
				<use xlink:href="#SVGID_25_"  overflow="visible"/>
			</clipPath>
			<path clip-path="url(#SVGID_26_)" fill="none" d="M518.022-9.348"/>
			<polygon clip-path="url(#SVGID_26_)" fill="none" stroke="#FFFFFF" stroke-width="0.4" stroke-miterlimit="10" points="
				-70.267,883.37 -71.641,883.37 -71.725,883.699 -70.357,883.699 			"/>
		</g>
		<g>
			<defs>
				<line id="SVGID_27_" x1="-135.6" y1="-9.348" x2="-135.6" y2="890.888"/>
			</defs>
			<clipPath id="SVGID_28_">
				<use xlink:href="#SVGID_27_"  overflow="visible"/>
			</clipPath>
			<path clip-path="url(#SVGID_28_)" fill="none" d="M518.022-9.348"/>
			<path clip-path="url(#SVGID_28_)" fill="none" stroke="#FFFFFF" stroke-width="0.4" stroke-miterlimit="10" d="M-67.627,884.888
				v-0.162c-0.546-0.042-0.582-0.09-0.582-0.521v-3.126c-0.33,0.132-0.684,0.245-1.068,0.312v0.139l0.288,0.013
				c0.264,0.012,0.288,0.042,0.288,0.354v2.311c0,0.432-0.03,0.479-0.576,0.521v0.161h1.65V884.888z"/>
		</g>
		<g>
			<defs>
				<line id="SVGID_29_" x1="-135.6" y1="-9.348" x2="-135.6" y2="890.888"/>
			</defs>
			<clipPath id="SVGID_30_">
				<use xlink:href="#SVGID_29_"  overflow="visible"/>
			</clipPath>
			<path clip-path="url(#SVGID_30_)" fill="none" d="M518.022-9.348"/>
			<path clip-path="url(#SVGID_30_)" fill="none" stroke="#FFFFFF" stroke-width="0.4" stroke-miterlimit="10" d="M-60.662,884.888
				v-0.162c-0.546-0.042-0.582-0.09-0.582-0.521v-3.126c-0.33,0.132-0.684,0.245-1.068,0.312v0.139l0.288,0.013
				c0.264,0.012,0.288,0.042,0.288,0.354v2.311c0,0.432-0.03,0.479-0.576,0.521v0.161h1.65V884.888z"/>
		</g>
	</g>
	<g>
		<g>
			<path fill="none" d="M518.022-9.348"/>
		</g>
	</g>
</g>
</svg>
