<?xml version="1.0" encoding="utf-8"?>
<!-- Generator: Adobe Illustrator 16.0.0, SVG Export Plug-In . SVG Version: 6.00 Build 0)  -->
<!DOCTYPE svg PUBLIC "-//W3C//DTD SVG 1.1//EN" "http://www.w3.org/Graphics/SVG/1.1/DTD/svg11.dtd" [
	<!ENTITY ns_flows "http://ns.adobe.com/Flows/1.0/">
	<!ENTITY ns_extend "http://ns.adobe.com/Extensibility/1.0/">
	<!ENTITY ns_ai "http://ns.adobe.com/AdobeIllustrator/10.0/">
	<!ENTITY ns_graphs "http://ns.adobe.com/Graphs/1.0/">
]>
<svg version="1.1" id="Vrstva_1" xmlns:x="&ns_extend;" xmlns:i="&ns_ai;" xmlns:graph="&ns_graphs;"
	 xmlns="http://www.w3.org/2000/svg" xmlns:xlink="http://www.w3.org/1999/xlink" xmlns:a="http://ns.adobe.com/AdobeSVGViewerExtensions/3.0/"
	 x="0px" y="0px" width="296.4px" height="124px" viewBox="0 0 296.4 124" style="enable-background:new 0 0 296.4 124;"
	 xml:space="preserve">
<style type="text/css">
<![CDATA[
	.st0{fill:black;}
]]>
</style>
<g>
	<path class="st0" d="M64.9,37.8c-5.3,0-10.3,0.6-13.7,1.4v73.5c2.7,0.4,6.9,0.9,11.2,0.9c9.5,0,16.3-2.4,21-7.2
		c6.1-5.8,9.6-16.6,9.6-31.7c0-14.6-3.1-24.5-9-30.2C79.7,40,73.6,37.8,64.9,37.8z M67,101.7c-0.7,0-1.6,0-2.4-0.2V49.8
		c0.8-0.3,1.7-0.3,2.7-0.3c8.1,0,11.8,9.3,11.8,24.7C79.1,94.8,73.5,101.7,67,101.7z"/>
	<path class="st0" d="M156.7,95.9h12.4l3,17.1h13l-13.4-74.9h-16.1l-15,74.9h13L156.7,95.9z M160.6,68.9c0.7-4.3,1.7-12,2.5-17h0.3
		c0.6,4.9,1.5,12.4,2.3,17l2.3,15.7h-9.9L160.6,68.9z"/>
	<path class="st0" d="M213.3,113l15.8-74.9h-14.8l-4.7,32c-1.2,8.4-2.4,17.4-3.3,26.3h-0.2c-0.9-8.8-2.4-17.9-3.5-26l-4.9-32.3
		h-14.9l15.4,74.9H213.3z"/>
	<path class="st0" d="M136.2,58.9c0-6.4-1.3-11.4-5.5-15.6c-4.4-4.3-11.1-5.6-18.5-5.6c-5.1,0-10.5,0.6-14.7,1.4V113H111V83.1h2.1
		c4.4,0,6.6,2.7,7.8,11.9c1,8.3,2.6,15.9,3.5,18h14.1c-1.2-2.8-3.1-12-4.4-20.3c-1.3-8.1-3.7-12.8-8.4-14.9v-0.2
		C132.5,74.1,136.2,66.9,136.2,58.9z M113.4,71.9H111V49.6c0.7-0.3,2.1-0.4,3.3-0.4c6,0.2,8.3,4.7,8.3,11.1
		C122.6,66.8,119.3,71.9,113.4,71.9z"/>
	<rect x="232.9" y="38.1" class="st0" width="13.4" height="74.9"/>
	<polygon class="st0" points="45.8,48.9 45.8,38.1 10.8,38.1 10.8,50.8 30.7,50.8 30.7,51.1 8.7,104.5 8.7,113 45.7,113 45.7,100.4 
		24.8,100.4 24.8,100 	"/>
	<polygon class="st0" points="286.4,50.8 286.4,38.1 256.3,38.1 256.3,113 287.5,113 287.5,100.4 269.7,100.4 269.7,80.1 
		285.5,80.1 285.5,68 269.7,68 269.7,50.8 	"/>
	<path class="st0" d="M144.3,7.4c0.4,0,0.6,0.3,0.6,0.8c0,0.3,0,0.4-0.3,2.1l-2,12.6l4-0.8c1.1-9,3.5-14.2,6.7-14.3
		c0.5,0,0.9,0.1,1.6,0.4l1.5-3.4c-0.7-0.2-1.1-0.3-1.7-0.3c-1.2,0.1-2.6,0.8-3.7,1.9c-0.9,1-1.4,1.8-2.7,4.3
		c0.4-3.1,0.4-3.1,0.4-3.6c-0.1-1.5-0.9-2.3-2.2-2.2c-2.1,0.1-4,1.4-6.1,4.3l0.8,0.5C142.5,8.4,143.7,7.5,144.3,7.4z"/>
	<path class="st0" d="M129.5,30.6l0.2-0.9c-0.4,0-0.8,0-0.9,0c-1.6,0-2-0.2-2.1-1.1c0-0.4,0.1-1.7,0.3-2.9l0.4-2.6
		c0.8,0.4,1.3,0.6,2,0.5c2.3-0.1,4.8-1.8,6.9-4.7c2.1-2.9,3.3-6.1,3.2-8.6c-0.2-3.1-2.4-5-5.7-4.8c-1.5,0.1-2.4,0.4-4,1.4l0.6-4.2
		l-4.1,1.5l-0.7,4.6c-1.4,0.8-1.8,1-3.8,2.2l0.5,1c1.2-0.8,2.5-1.5,3.1-1.7l-2.4,15.2c-0.7,4.3-0.9,4.6-3.5,4.7l-0.1,0.9
		c2.9-0.3,4-0.4,5.1-0.5C125.6,30.6,126.7,30.6,129.5,30.6z M129.8,8.3c1.4-0.8,2-1.1,2.8-1.1c1.7-0.1,2.7,1.2,2.8,3.8
		c0.1,2.1-0.5,5-1.6,7.3c-1,2.1-2.7,3.6-4.1,3.6c-1,0.1-1.5-0.4-1.8-1.5L129.8,8.3z"/>
	<path class="st0" d="M159.7,21.7c2.8-0.1,5-1.7,6.9-5l-0.9-0.4c-1.5,2.4-3.3,3.7-4.9,3.8c-1.8,0.1-2.9-1.1-3-3.3
		c0-0.7,0-1.3,0.2-2.5c6.1-0.4,10.2-3.3,10-7.1c-0.1-2-1.9-3.3-4.4-3.2c-2.3,0.1-4.1,1-5.9,2.9c-2.4,2.7-4,6.6-3.8,9.8
		C154.1,19.9,156.4,21.9,159.7,21.7z M159.9,8.5c1.2-2.3,2.2-3.3,3.1-3.3c0.8,0,1.3,0.6,1.3,1.5c0.1,1.4-0.4,3-1.4,4.3
		c-1,1.4-2.4,2.1-4.1,2.2c-0.1,0-0.3,0-0.6,0C158.6,11.4,159.1,10,159.9,8.5z"/>
	<path class="st0" d="M10.9,6.1c0,0.7,0,2.3-0.2,3L8.2,24c0,0.1-0.1,0.5-0.2,0.9c-0.1,0.4-0.2,0.8-0.3,1.3c-0.4,1.9-0.9,2.3-3.1,2.5
		l-0.2,0.9c2.4-0.2,3.6-0.3,4.7-0.4c1.2-0.1,1.7,0,3,0l0.2-0.9c-1.9,0-2.4-0.3-2.4-1.3c0-0.6,0-1.7,0.2-3.1l2.3-16.5l15.4,21.5
		l1.9-0.1l3.7-22.2c0.7-4.2,1-4.6,3.3-4.8L36.9,1c-2.6,0.3-3.4,0.3-4,0.4c-0.9,0-1.6,0-4,0l-0.2,0.9c2.3,0,2.9,0.3,3,1.5
		c0,0.3-0.1,1.3-0.3,3.1l-2.2,16.2l-15-21c-2.5,0.3-3.2,0.3-3.9,0.4c-0.6,0-1.3,0-3.5,0L6.8,3.4c1.8,0.1,2.2,0.1,2.7,0.3
		C10.3,4.1,10.8,4.9,10.9,6.1z"/>
	<path class="st0" d="M54.2,12.2c0.3,0,0.5,0.3,0.6,0.8c0,0.4-0.1,1.1-0.3,2l-1.2,5.7c-0.4,2.3-0.6,3.3-0.6,3.9
		c0.1,1.8,1.2,2.7,3.2,2.6c2.9-0.2,6.2-2.9,9.2-7.6c2.2-3.5,3.5-6.6,3.4-8.4c-0.1-1.4-0.9-2.1-2.3-2.1c-1.3,0.1-2.2,0.6-3.8,2.4
		l0.6,0.7c0.5-0.4,0.8-0.6,1-0.6c0.2,0,0.4,0.2,0.4,0.7c0.1,2.1-1.4,6.4-3.1,9.4c-1.4,2.3-2.8,3.6-3.8,3.7c-0.6,0-0.9-0.2-0.9-0.7
		c0-0.4,0-0.4,0.6-3.3l1.3-6.7c0.3-1.3,0.4-2.6,0.4-3.1c-0.1-1.2-0.9-1.9-2.2-1.9c-2,0.1-3.7,1.4-5.6,4.2l0.8,0.5
		C52.7,13.1,53.7,12.2,54.2,12.2z"/>
	<path class="st0" d="M34.2,22.2c0.2,3.7,2.9,6,6.6,5.8c2.9-0.2,5.4-1.5,7.4-4c1.8-2.2,2.8-5,2.6-7.4c-0.2-4.1-2.8-6.4-6.9-6.2
		C38.5,10.6,33.8,16.3,34.2,22.2z M39.9,15.6c1.1-2.8,2.3-4.1,3.9-4.2c1.6-0.1,2.6,1.3,2.8,3.9c0.1,2-0.2,4.2-0.9,6.3
		c-1.1,3.3-2.7,5.1-4.5,5.2c-1.6,0.1-2.6-1.2-2.8-3.2C38.3,21.3,38.9,18.2,39.9,15.6z"/>
	<path class="st0" d="M101,9.7c0.5,0,0.8,0.5,1.4,2.4c1.7,4.9,3.2,10.2,3.8,14c-1.7,2.3-3.4,3.5-5.1,3.6c-1.3,0.1-2.2-0.5-3.7-2.3
		l-0.8,3.8c1.1,0.8,1.9,1.1,3.1,1c4.4-0.2,7.6-3.9,13.5-15.3c2.5-5,3.3-6.9,3.2-8.4c-0.1-1-0.4-1.3-2.2-2.2l-3.7,2.6l0.4,0.8
		c0.8-0.4,1-0.5,1.3-0.6c0.4,0,0.6,0.2,0.6,0.7c0.1,1.6-2,8.1-4,12.3c-0.4-2.6-1.6-7.5-2.7-10.7c-1.1-3.3-2-4.3-3.6-4.2
		c-1.5,0.1-3,1.3-4.7,4l0.8,0.5C100,10.2,100.5,9.8,101,9.7z"/>
	<path class="st0" d="M72.4,11.2c0.3,0,0.5,0.3,0.6,0.7c0,0.4,0,0.4-0.4,2.2l-1.5,7.2c-0.3,1.5-0.4,2.5-0.4,3.1
		c0.1,1.3,0.9,2,2.2,1.9c2-0.1,3.8-1.5,6-4.6l-0.7-0.5c-1.3,1.7-2.2,2.5-2.8,2.6c-0.3,0-0.5-0.2-0.5-0.6c0-0.3,0.2-1.6,0.3-2.2
		l1.5-7.2c0.5-2.6,0.5-2.6,0.5-3.3c-0.1-1.1-0.9-1.8-2.2-1.7c-2,0.1-3.8,1.4-5.8,4.3l0.8,0.5C71,12.1,71.9,11.3,72.4,11.2z"/>
	<path class="st0" d="M75.9,4.8c1.5-0.1,2.8-1.6,2.7-3.2c-0.1-1-0.8-1.6-1.9-1.6c-1.5,0.1-2.9,1.7-2.8,3.2C74,4.3,74.8,4.9,75.9,4.8
		z"/>
	<path class="st0" d="M82.4,10.7c0.3,0,0.5,0.3,0.6,0.8c0,0.3,0,0.3-0.3,2.1l-2,12.7l3.9-0.9c0.4-3,1-5.1,2.4-7.9
		c1.7-3.6,4.2-7.2,4.9-7.2c0.2,0,0.4,0.2,0.4,0.5c0,0.4-0.1,1.4-0.3,2.6l-1.3,7.2c-0.2,0.9-0.3,2.3-0.3,2.8c0.1,1.3,0.9,2,2.2,2
		c2.1-0.1,3.8-1.5,5.8-4.6l-0.7-0.5c-1.4,1.9-2.1,2.5-2.7,2.6c-0.3,0-0.5-0.3-0.6-0.7c0-0.3,0.1-1.6,0.2-2.1l1.2-6.5
		c0.3-1.5,0.5-3,0.5-3.5c-0.1-1.4-1.2-2.3-2.9-2.2c-1.3,0.1-2,0.6-3.7,2.7c-1.4,1.7-2.1,2.9-3.7,5.8l0.5-3.1l0.2-1
		c0-0.1,0.1-0.4,0.1-0.9c0.1-0.4,0.1-0.9,0.1-1.2c-0.1-1.2-0.9-1.9-2.2-1.8c-2,0.1-3.6,1.3-5.6,4.2l0.8,0.5
		C80.9,11.6,81.9,10.7,82.4,10.7z"/>
	<path class="st0" d="M295.5,17.5c-0.5-1-1.3-2-2.4-2.8c-1.2-0.8-2.7-1.3-4.6-1.3H171.4v1.7h117.1c1.7,0,2.8,0.4,3.7,1
		c1.3,0.9,2,2.2,2.3,3.3c0.2,0.6,0.3,1.1,0.3,1.5c0,0.2,0,0.3,0,0.4l0,0.1l0,0v0V116c0,1.7-0.4,2.8-1,3.7c-0.9,1.3-2.2,2-3.3,2.3
		c-0.6,0.2-1.1,0.3-1.5,0.3c-0.2,0-0.3,0-0.4,0l-0.1,0l0,0h0H8c-1.7,0-2.8-0.4-3.7-1c-1.3-0.9-2-2.2-2.3-3.3
		c-0.2-0.6-0.3-1.1-0.3-1.5c0-0.2,0-0.3,0-0.4l0-0.1l0,0v0v-97c0-1.1,0.3-1.8,0.6-2.3c0.5-0.8,1.3-1.2,2.1-1.4
		c0.3-0.1,0.5-0.1,0.7-0.2v-1.7c-0.5,0.1-1.3,0.2-2.2,0.6c-0.7,0.3-1.4,0.9-2,1.7C0.3,16.6,0,17.7,0,19.1v97c0,0.1,0,2,1,4
		c0.5,1,1.3,2,2.4,2.8c1.2,0.8,2.7,1.3,4.6,1.3h280.4c0.1,0,2,0,4-1c1-0.5,2-1.3,2.8-2.4c0.8-1.2,1.3-2.7,1.3-4.6V21.4
		C296.4,21.4,296.5,19.5,295.5,17.5z"/>
</g>
</svg>
