<?xml version="1.0" encoding="utf-8"?>
<!-- Generator: Adobe Illustrator 16.0.0, SVG Export Plug-In . SVG Version: 6.00 Build 0)  -->
<!DOCTYPE svg PUBLIC "-//W3C//DTD SVG 1.1//EN" "http://www.w3.org/Graphics/SVG/1.1/DTD/svg11.dtd" [
	<!ENTITY ns_flows "http://ns.adobe.com/Flows/1.0/">
	<!ENTITY ns_extend "http://ns.adobe.com/Extensibility/1.0/">
	<!ENTITY ns_ai "http://ns.adobe.com/AdobeIllustrator/10.0/">
	<!ENTITY ns_graphs "http://ns.adobe.com/Graphs/1.0/">
]>
<svg version="1.1" id="Vrstva_1" xmlns:x="&ns_extend;" xmlns:i="&ns_ai;" xmlns:graph="&ns_graphs;"
	 xmlns="http://www.w3.org/2000/svg" xmlns:xlink="http://www.w3.org/1999/xlink" xmlns:a="http://ns.adobe.com/AdobeSVGViewerExtensions/3.0/"
	 x="0px" y="0px" width="297.6px" height="58.6px" viewBox="0 0 297.6 58.6" style="enable-background:new 0 0 297.6 58.6;"
	 xml:space="preserve">
<style type="text/css">
<![CDATA[
	.st0{fill:black;}
]]>
</style>
<g>
	<path class="st0" d="M264,51.7V6.9h6.4c13.3,0,19.8,7.9,19.8,22.1c0,14.3-6.5,22.7-19.8,22.7H264z M256.8,57.5h14.5
		c17.1,0,26.4-10.5,26.4-28.5c0-17.9-9.3-28-26.7-28h-14.1V57.5z M223.9,52.3c-10.2,0-16.8-9.1-16.8-23.3c0-14,6.6-22.7,16.8-22.7
		c10.1,0,16.7,8.7,16.7,22.7C240.6,43.1,233.9,52.3,223.9,52.3 M223.9,58.6C238,58.6,248,47.2,248,29c0-18-10-29-24.1-29
		c-14.2,0-24.2,10.9-24.2,29C199.7,47.2,209.7,58.6,223.9,58.6 M150.2,57.5h7.2V30.9h26.3v26.6h7.1V1h-7.1v23.7h-26.3V1h-7.2V57.5z
		 M101.6,29.3c0,18.4,10.6,29.3,24.8,29.3c7.1,0,12.7-3,17.1-8.2l-4-4.4c-3.6,4-7.6,6.3-12.9,6.3c-10.8,0-17.6-9-17.6-23.2
		c0-14,7.1-22.8,17.9-22.8c4.7,0,8.3,2.1,11.3,5.3l4-4.6c-3.4-3.7-8.7-7-15.4-7C112.4,0,101.6,11.1,101.6,29.3 M64.3,51.8V30.5h9.8
		c9.9,0,15.3,3.2,15.3,10.2c0,7.7-5.7,11.2-15.3,11.2H64.3z M64.3,25.1V6.7H73c8.7,0,13.3,2.6,13.3,8.7c0,6.3-4,9.7-13.6,9.7H64.3z
		 M57.1,57.5h18.1c12.6,0,21.4-5.4,21.4-16.5c0-7.8-4.8-12.2-13.1-13.5v-0.3c6.7-1.7,9.9-6.7,9.9-12.3c0-9.9-8-13.8-19.5-13.8H57.1
		V57.5z M24.2,52.3C14,52.3,7.4,43.1,7.4,29C7.4,15,14,6.3,24.2,6.3C34.3,6.3,40.9,15,40.9,29C40.9,43.1,34.3,52.3,24.2,52.3
		 M24.2,58.6c14.1,0,24.1-11.4,24.1-29.5c0-18-10-29-24.1-29C10,0,0,10.9,0,29C0,47.2,10,58.6,24.2,58.6"/>
</g>
</svg>
