<?xml version="1.0" encoding="utf-8"?>
<!-- Generator: Adobe Illustrator 16.0.0, SVG Export Plug-In . SVG Version: 6.00 Build 0)  -->
<!DOCTYPE svg PUBLIC "-//W3C//DTD SVG 1.1//EN" "http://www.w3.org/Graphics/SVG/1.1/DTD/svg11.dtd" [
	<!ENTITY ns_flows "http://ns.adobe.com/Flows/1.0/">
	<!ENTITY ns_extend "http://ns.adobe.com/Extensibility/1.0/">
	<!ENTITY ns_ai "http://ns.adobe.com/AdobeIllustrator/10.0/">
	<!ENTITY ns_graphs "http://ns.adobe.com/Graphs/1.0/">
]>
<svg version="1.1" id="Vrstva_1" xmlns:x="&ns_extend;" xmlns:i="&ns_ai;" xmlns:graph="&ns_graphs;"
	 xmlns="http://www.w3.org/2000/svg" xmlns:xlink="http://www.w3.org/1999/xlink" xmlns:a="http://ns.adobe.com/AdobeSVGViewerExtensions/3.0/"
	 x="0px" y="0px" width="299.5px" height="134px" viewBox="0 0 299.5 134" style="enable-background:new 0 0 299.5 134;"
	 xml:space="preserve">
<style type="text/css">
<![CDATA[
	.st0{fill:black;}
]]>
</style>
<g>
	<path class="st0" d="M41.8,41.1c0.8-4,1.6-7.6,2.3-10.9c0.9-3.9,1.7-7,2.5-9.5c0.8-2.5,1.5-4.4,2.1-5.8c0.2-0.5,0.4-0.9,0.6-1.3
		c1.8-2.7,1.8-3,0.8-3.7c-0.5-0.4-0.7-0.5-1.3-0.7c-0.1,0-0.2,0-0.2-0.1c-1.4-0.3-2.6-0.2-3.4,0.2c-1.4,0.4-2.7,1.2-4,2.6
		c-1.2,1.3-2.6,3.3-4.1,5.8c-1.5,2.5-2.9,6.1-4.1,10.7C31.5,33.3,30,38.5,28.4,44c-1.6,5.5-3.5,10.5-5.7,15.1
		c-2.1,4.6-4.5,8.3-7.2,11.3c-2.7,2.9-5.7,4.3-9.2,4.1c-1-0.1-1.7-0.2-2.4-0.4c-0.6-0.2-1.3-0.4-2-0.4c-0.5,0-1,0.1-1.4,0.5
		C0.2,74.5,0,75,0,75.9c0,0.7,0.3,1.6,1,2.6c0.7,1,1.7,1.9,3,2.8c1.3,0.9,2.8,1.6,4.6,2.3c1.8,0.6,3.7,1,5.7,1.1
		c3.5,0.2,6.5-0.6,9.1-2.3c2.6-1.7,4.9-4,6.9-7c2-3,3.6-6.4,5.1-10.2c1.4-3.9,2.7-7.8,3.7-11.9C40.1,49.2,41,45.1,41.8,41.1z"/>
	<path class="st0" d="M116.7,33.1c0.7,0,1.7-0.1,2.8-0.4c1.1-0.3,2.3-0.6,3.6-1.1c1.3-0.5,2.5-1.1,3.8-1.9c1.3-0.8,2.4-1.7,3.4-2.7
		c0.9-1,1.5-1.8,1.8-2.5c0.3-0.6,0.4-1.4,0.4-2.3c0-0.6-0.2-1.4-0.5-2.2c-0.3-0.9-0.8-1.7-1.3-2.5c-0.5-0.8-1.1-1.5-1.6-2
		c-0.5-0.5-1-0.8-1.4-0.8c-0.5,0-0.9,0.2-1.2,0.6c-0.3,0.4-0.7,1-1,1.7c-1.4,2.8-2.9,5.3-4.5,7.5c-1.6,2.2-3.1,3.8-4.5,4.9
		c-0.6,0.4-1,0.7-1.2,1c-0.2,0.3-0.3,0.7-0.3,1.1c0,0.5,0.2,0.9,0.5,1.2C115.8,32.9,116.2,33.1,116.7,33.1z"/>
	<path class="st0" d="M73.9,38.6c1.9-3.7,2.9-7.9,2.9-12.6c0-3.7-0.7-7.1-2.2-10.2c-1.5-3.1-3.5-5.9-6.2-8.2
		c-2.7-2.4-5.9-4.2-9.8-5.6c-3.8-1.3-8.1-2-12.8-2c-5,0-9.8,0.7-14.6,2c-4.7,1.3-8.9,3.2-12.5,5.6c0,0,0,0-0.1,0c0,0-0.1,0-0.1,0.1
		l0,0c-0.2,0.1-0.3,0.2-0.4,0.3c-1.3,1.2-0.8,3.7,0.8,5.3c1.6,1.6,5,1.1,6.3,0c0.1-0.1,0.1-0.1,0.2-0.2l0,0c2.3-2.1,5.2-3.7,8.6-4.8
		c3.4-1.1,7.2-1.7,11.6-1.7c6,0,10.5,1.6,13.8,4.9c3.2,3.3,4.8,7.7,4.8,13.3c0,3.8-0.6,7.3-1.8,10.5c-1.2,3.2-2.7,5.9-4.7,8.2
		c-1.9,2.3-4.1,4.1-6.5,5.3c-2.4,1.3-4.9,1.9-7.4,1.9c-0.4,0-0.7,0.2-1,0.6c-0.3,0.4-0.4,0.8-0.4,1.4c0,0.6,0.5,1.2,1.4,1.9
		c1,0.6,2.7,1,5.4,1c2.5,0,5.3-0.6,8.5-1.9c3.2-1.3,6.2-3.2,9-5.7C69.6,45.3,72,42.2,73.9,38.6z"/>
	<path class="st0" d="M298.5,87.2c-0.7-0.3-1.4-0.5-2.2-0.5c-2.1,0-4.7,0.4-7.7,1.3c0.1-0.5,0.3-1.5,0.6-2.7c0.2-1.3,0.5-2.6,0.8-4
		c0.3-1.4,0.5-2.7,0.8-4c0.2-1.3,0.4-2.1,0.6-2.6c0.6-3.5,1.3-6.9,2-10.1c0.7-3.2,1.4-6.2,2-8.9c0.6-2.7,1.1-5,1.4-6.9
		c0.4-1.9,0.6-3.3,0.6-4.1c0-0.5-0.2-1-0.7-1.8c-0.5-0.7-1.1-1.4-1.9-2.1c-0.7-0.7-1.5-1.3-2.4-1.8c-0.8-0.5-1.6-0.8-2.3-0.8
		c-0.6,0-1.2,0.2-1.7,0.6c-0.5,0.4-0.8,0.9-0.9,1.6c-0.5,2-1,4.2-1.5,6.6c-0.5,2.4-1.1,4.9-1.8,7.5c-0.7,2.6-1.4,5.1-2.1,7.6
		c-0.7,2.5-1.6,4.7-2.4,6.7c-0.4,0.9-0.9,1.9-1.5,2.8c-0.6,1-1.3,1.8-2,2.6c-0.7,0.8-1.5,1.5-2.3,1.9c-0.8,0.5-1.6,0.7-2.3,0.7
		c-0.7,0-1.2-0.3-1.6-1c-0.4-0.7-0.6-1.5-0.6-2.4c0-2.5,0.3-5.2,0.9-7.9c0.6-2.8,1.3-5.4,2.1-8c0.8-2.6,1.5-5,2.1-7.2
		c0.6-2.2,0.9-4.1,0.9-5.6c0-0.5-0.2-1-0.7-1.8c-0.5-0.7-1.1-1.4-1.9-2.1c-0.7-0.7-1.6-1.3-2.4-1.8c-0.9-0.5-1.6-0.8-2.3-0.8
		c-0.6,0-1.1,0.2-1.5,0.6c-0.4,0.4-0.8,0.9-1,1.5c-0.6,1.6-1.3,3.8-2.1,6.6c-0.8,2.8-1.6,5.8-2.4,9c-0.7,3.1-1.4,6.1-1.9,9.1
		c-0.1,0-0.2,0.1-0.3,0.1c-0.2,0.2-0.4,0.4-0.6,0.5c-0.2,0.3-0.4,0.6-0.5,0.8c-0.9,1.9-2,3.6-3.1,4.9c-0.9,1.3-2,2.4-3.2,3.4
		c-1.2,1-2.4,1.5-3.7,1.5c-0.9,0-1.7-0.4-2.2-1.2c-0.5-0.8-0.8-1.9-0.8-3.1c0-2.2,0.3-4.5,0.9-6.8c0.6-2.3,1.3-4.6,2-6.9
		c0.7-2.3,1.4-4.4,2-6.5c0.6-2.1,0.9-4,0.9-5.8c0-1-0.2-1.9-0.6-2.9c-0.4-0.9-0.8-1.8-1.4-2.5c-0.6-0.8-1.2-1.4-1.9-1.8
		c-0.7-0.5-1.4-0.7-2.1-0.7c-1,0-1.9,0.1-2.8,0.4c-0.9,0.3-1.7,0.6-2.4,0.9c-0.7,0.3-1.3,0.7-1.7,1c-0.5,0.3-0.7,0.5-0.8,0.6
		c0.2-0.2,0.9-1.4,2.2-3.4c1.3-2,2.7-4.4,4.2-7.3c1.5-2.8,2.9-5.8,4.1-8.9c1.2-3.1,1.9-5.8,1.9-8.2c0-1-0.2-2.1-0.7-3.3
		c-0.5-1.2-1.1-2.3-1.9-3.3c-0.8-1-1.7-1.9-2.7-2.5c-1-0.6-2-1-3.1-1c-2.9,0-5.7,1.4-8.3,4.2c-2.6,2.8-5,6.4-7.3,10.9
		c-2.2,4.5-4.3,9.5-6,15.1c-1.8,5.6-3.4,11.1-4.7,16.7c-1.2,5.3-2.2,10.3-2.9,15c-0.2,0-0.4,0.1-0.5,0.2c-0.2,0.2-0.4,0.4-0.6,0.5
		c-0.3,0.3-0.4,0.6-0.5,0.8c-1.1,2-2.3,3.7-3.8,5.3c-1.2,1.3-2.8,2.5-4.6,3.6c-1.8,1.1-3.8,1.7-6,1.7c-2.2,0-4.2-0.9-5.8-2.7
		c-1.6-1.8-2.4-4.5-2.4-7.9c0.5,0.2,1,0.3,1.4,0.3c0.7,0.2,1.5,0.3,2.1,0.3c2.9,0,5.4-0.6,7.3-1.9c2-1.3,3.5-2.8,4.7-4.5
		c1.1-1.8,2-3.6,2.5-5.6c0.5-1.9,0.7-3.6,0.7-5c0-1.5-0.3-3-0.8-4.5c-0.5-1.4-1.3-2.7-2.2-3.8c-0.9-1.1-2-2-3.3-2.7
		c-1.2-0.7-2.6-1-4-1c-2,0-4.2,0.7-6.6,2.1c-2.3,1.4-4.5,3.3-6.5,5.9c-2,2.6-3.6,5.6-4.9,9.2c-1.2,3.3-1.8,7-1.9,10.9
		c0,0.1-0.1,0.2-0.1,0.3c-1,1.4-2,2.7-3.2,3.9c-1,1-2.1,1.9-3.4,2.7c-1.3,0.8-2.8,1.2-4.4,1.2c-0.4,0-0.7,0-0.9-0.1
		c2.2-3.4,3.9-7.3,5-11.6c1.1-4.3,1.7-8.4,1.7-12.2c0-1.5-0.2-2.9-0.7-4.4c-0.5-1.5-1.2-2.8-2-4c-0.8-1.2-1.8-2.1-2.9-2.9
		c-1.1-0.7-2.3-1.1-3.5-1.1c-0.8,0-1.6,0.1-2.4,0.4c-0.8,0.3-1.5,0.6-2,0.9c-0.6,0.3-1.1,0.7-1.5,1c-0.4,0.3-0.7,0.5-0.7,0.6
		c0.1-0.1,0.4-0.6,1.1-1.5c0.7-1,1.5-2.2,2.5-3.7c1-1.5,2.1-3.3,3.3-5.2c1.2-1.9,2.3-3.9,3.2-6c1-2,1.8-4,2.4-6c0.7-1.9,1-3.7,1-5.3
		c0-1-0.2-2.1-0.7-3.3c-0.5-1.2-1.1-2.3-1.9-3.3c-0.8-1-1.7-1.9-2.7-2.5c-1-0.6-2-1-3-1c-2.4,0-4.7,1-6.9,2.9
		c-2.2,1.9-4.3,4.5-6.2,7.7c-1.9,3.2-3.7,6.9-5.3,11.2c-1.6,4.2-2.9,8.7-4,13.5c-1.1,4.7-2,9.5-2.6,14.4c-0.6,4.4-0.9,8.6-0.9,12.7
		c-0.1,0.1-0.2,0.2-0.3,0.3c-0.2,0.3-0.4,0.6-0.5,0.8c-0.9,1.9-2,3.6-3.1,4.9c-0.9,1.3-2,2.4-3.2,3.4c-1.2,1-2.4,1.5-3.7,1.5
		c-0.9,0-1.7-0.4-2.2-1.2c-0.5-0.8-0.8-1.9-0.8-3.1c0-2.7,0.3-5.4,0.8-8c0.5-2.6,1.1-5,1.8-7.3c0.7-2.3,1.3-4.4,1.8-6.5
		c0.6-2,0.8-3.9,0.8-5.7c0-0.5-0.2-1-0.7-1.8c-0.5-0.7-1.1-1.4-1.9-2.1c-0.7-0.7-1.6-1.3-2.4-1.8c-0.9-0.5-1.6-0.8-2.3-0.8
		c-0.6,0-1.1,0.2-1.5,0.6c-0.4,0.4-0.8,0.9-1,1.5c-0.6,1.6-1.3,3.7-2.1,6.4c-0.8,2.7-1.6,5.5-2.4,8.5c-0.7,3-1.4,5.9-2,8.8
		c-0.1,0.5-0.2,1-0.3,1.5c-0.1,0.1-0.1,0.1-0.2,0.2c-0.2,0.3-0.4,0.6-0.5,0.8c-0.9,1.9-2,3.6-3.1,4.9c-0.9,1.3-2,2.4-3.2,3.4
		c-1.2,1-2.4,1.5-3.7,1.5c-0.9,0-1.7-0.3-2.2-1c-0.6-0.7-0.8-1.7-0.8-3c0-2.3,0.4-4.6,1.1-6.9c0.7-2.3,1.5-4.6,2.4-6.7
		c0.9-2.1,1.7-4.1,2.4-5.9c0.7-1.8,1.1-3.3,1.1-4.6c0-1.5-0.4-2.8-1.1-3.9c-0.7-1.1-1.6-1.6-2.7-1.6c-0.6,0-1.1,0.1-1.6,0.2
		c-0.5,0.2-1,0.3-1.6,0.5c-0.6,0.2-1.2,0.4-1.9,0.5c-0.7,0.2-1.6,0.2-2.7,0.2c-1.1,0-2-0.2-2.8-0.6c-0.7-0.4-1.1-1-1.1-1.8
		c0-0.9,0.2-1.9,0.6-2.9c0.4-1,0.6-2.2,0.6-3.8c0-0.5-0.2-1.2-0.6-1.9c-0.4-0.7-0.8-1.4-1.4-1.9c-0.6-0.6-1.2-1.1-1.9-1.5
		c-0.7-0.4-1.3-0.6-2-0.6c-0.6,0-1.1,0.2-1.8,0.7c-0.6,0.5-1.2,1.1-1.8,1.8c-0.6,0.8-1,1.7-1.3,2.7c-0.3,1-0.5,2.1-0.5,3.3
		c0,1.5,0.2,2.7,0.5,3.8c0.3,1.1,0.7,1.9,1,2.6c0.4,0.8,1,1.5,1.6,2.1c-1.4,5.4-2.8,9.8-4.4,13.1c-1.6,3.3-2.8,5.7-3.7,7.3
		c-0.1,0.3-0.3,0.7-0.6,1.2c-0.3,0.5-0.4,1-0.4,1.5c0,0.6,0.2,1.2,0.6,1.7c0.4,0.5,0.9,0.7,1.3,0.7c0.6,0,1-0.2,1.3-0.7
		c0.3-0.5,0.6-0.8,0.7-1c1-1.8,2.3-4.4,3.9-8c1.6-3.5,3.3-8.1,5.1-13.7c1.1,0.2,2,0.3,2.8,0.6c0.7,0.2,1.3,0.5,1.9,0.8
		c0.6,0.3,0.9,0.8,0.9,1.4c0,0.9-0.3,2.1-0.9,3.5c-0.6,1.4-1.3,3-2,4.9c-0.7,1.8-1.4,3.9-2,6.1c-0.6,2.2-0.9,4.6-0.9,7.1
		c0,1.6,0.3,3.1,0.8,4.5c0.6,1.4,1.4,2.6,2.4,3.6c1.1,1,2.3,1.9,3.7,2.5c1.4,0.6,3,0.9,4.8,0.9c2.3,0,4.4-0.7,6.4-2.2
		c2-1.5,3.6-3.1,5.1-4.8c0.7-0.8,1.3-1.7,1.9-2.6c0.4,2.4,1.4,4.5,3,6.1c2.2,2.3,5,3.5,8.6,3.5c2.3,0,4.4-0.7,6.4-2.2
		c2-1.5,3.6-3.1,5.1-4.8c1.1-1.4,2.2-3,3.2-4.6c0.1,0.4,0.3,0.8,0.4,1.2c0.9,2.1,2.1,3.9,3.5,5.5c1.4,1.6,3,2.8,4.7,3.7
		c1.7,0.9,3.3,1.3,4.9,1.3c4.3,0,8-1.3,11.2-4.3c0.6,0.2,1.1,0.4,1.6,0.4h1.5c2.7,0,5.1-0.7,7.1-1.6c2-1,3.7-2.2,5.1-3.5
		c0.7-0.6,1.4-1.3,2-2c0.1,0.4,0.2,0.7,0.4,1c0.8,2.1,1.9,3.8,3.4,5.3c1.4,1.5,3.1,2.6,5.1,3.5c2,0.8,4.2,1.3,6.5,1.3
		c3.5,0,6.6-0.7,9.2-2.2c2.6-1.5,4.7-3.1,6.5-4.8c1-1,1.9-2.1,2.7-3.2c-0.1,1.4-0.1,2.8-0.1,4c0,1.1,0.3,2,0.9,2.8
		c0.6,0.8,1.4,1.5,2.3,1.9c0.9,0.5,1.9,0.9,3,1.1c1.1,0.2,2,0.3,3,0.3c0.7,0,1.1-0.2,1.3-0.6c0.2-0.4,0.3-1,0.3-1.7
		c0-5.2,0.4-9.9,1.3-14.1c0.8-4.2,1.9-7.9,3.3-10.9c1.3-3,2.8-5.3,4.5-7c1.7-1.6,3.3-2.5,4.9-2.5c1.4,0,2,1.1,2,3.3
		c0,1.1-0.2,2.4-0.7,3.9c-0.5,1.5-1.1,3.2-1.7,5c-0.6,1.8-1.2,3.8-1.7,5.8c-0.5,2-0.7,4.1-0.7,6.1c0,3.7,1.1,6.8,3.3,9.1
		c2.2,2.3,5,3.5,8.6,3.5c2.3,0,4.4-0.7,6.4-2.2c2-1.5,3.6-3.1,5.1-4.8c0.7-0.9,1.4-1.8,2.1-2.9c0.1,1.1,0.4,2.1,0.8,3.1
		c0.6,1.4,1.4,2.6,2.3,3.5c0.9,1,2,1.8,3.1,2.4c1.1,0.6,2.2,0.9,3.3,0.9c1.2,0,2.4-0.2,3.6-0.7c1.2-0.5,2.4-1.1,3.5-1.9
		c1.1-0.8,2.2-1.7,3.1-2.7c1-1,1.8-2.1,2.6-3.1c-0.1,0.6-0.3,1.5-0.5,2.8c-0.2,1.3-0.5,2.6-0.7,4c-0.3,1.4-0.6,2.8-0.8,4.2
		c-0.3,1.4-0.5,2.6-0.7,3.6c-2.5,1.3-5,2.7-7.4,4.2c-2.4,1.5-4.4,3.1-6.2,4.8c-1.8,1.6-3.2,3.3-4.3,5c-1.1,1.7-1.6,3.4-1.6,5.1
		c0,1.5,0.3,3,0.8,4.3c0.6,1.3,1.3,2.5,2.3,3.4c1,1,2.1,1.7,3.4,2.3c1.3,0.6,2.6,0.9,4,0.9c2.9,0,5.3-0.8,7.3-2.3
		c2-1.5,3.8-3.6,5.2-6.1c1.5-2.6,2.7-5.5,3.7-8.8c1-3.3,1.9-6.6,2.6-10.1c0.4-0.1,0.9-0.2,1.4-0.3c0.4-0.2,0.9-0.3,1.4-0.3
		c0.5-0.1,1.1-0.1,1.6-0.1c1.4,0,2.4,0.1,3.1,0.4c0.7,0.3,1.3,0.4,1.9,0.4c0.6,0,1.1-0.5,1.7-1.5c0.6-1,0.9-1.9,0.9-2.6
		C299.5,88,299.2,87.5,298.5,87.2z M189.3,56.4c0.6-2.1,1.4-4,2.4-5.8c1-1.8,2.1-3.4,3.3-4.7c1.2-1.3,2.5-1.9,3.8-1.9
		c1.1,0,1.7,0.8,1.7,2.3c0,1.2-0.3,2.7-0.9,4.5c-0.6,1.8-1.5,3.5-2.6,5.1c-1.1,1.6-2.4,3-3.9,4.2c-1.5,1.1-3.1,1.7-4.7,1.7
		C188.4,60.3,188.7,58.5,189.3,56.4z M151,31.6c1.2-4,2.5-7.5,3.7-10.5c1.3-3.1,2.5-5.5,3.7-7.4c1.2-1.9,2.2-2.8,3.1-2.8
		c1.2,0,1.8,0.8,1.8,2.3c0,1.8-0.5,4-1.5,6.7c-1,2.7-2.3,5.5-3.8,8.5c-1.6,2.9-3.2,5.8-5,8.6c-1.8,2.8-3.5,5.1-5,6.9
		C148.8,39.7,149.8,35.6,151,31.6z M158.6,60.3c-0.6,3.1-1.5,5.8-2.5,8.8h-0.3c-0.4,0-0.8,0-1.3,0.4c-0.5,0.3-1,0.7-1.5,1.2
		c-0.5,0.5-0.9,1.1-1.3,1.8c-0.3,0.7-0.5,1.3-0.5,1.9c0,0.7,0.2,1.3,0.7,1.9c-1.1,1.1-2.1,1.6-3.1,1.6c-1.2,0-2.2-0.8-2.9-2.4
		c-0.7-1.6-1.1-3.6-1.1-6c0-4.3,0.4-8,1.3-11.1c0.8-3.1,1.8-5.7,3-7.8c1.2-2.1,2.4-3.6,3.7-4.6c1.3-1,2.3-1.5,3.1-1.5
		c1.5,0,2.5,0.6,3,1.8c0.4,1.2,0.7,3,0.7,5.2C159.6,54.3,159.2,57.2,158.6,60.3z M234.7,36.5c-1.3,2.1-2.6,4-3.9,5.7
		c-1.3,1.8-2.5,3.2-3.5,4.2c1.5-5.1,3-9.8,4.5-14.2c1.5-4.4,3-8.1,4.4-11.3c1.4-3.2,2.7-5.6,3.9-7.4c1.2-1.8,2.2-2.7,3.1-2.7
		c1.2,0,1.8,0.8,1.8,2.3c0,1.1-0.3,2.6-0.9,4.4c-0.6,1.8-1.3,3.7-2.3,5.8c-0.9,2.1-2,4.3-3.3,6.6C237.3,32.3,236,34.5,234.7,36.5z
		 M274.4,103.2c-0.7,2.1-1.5,3.9-2.3,5.6c-0.8,1.6-1.7,2.9-2.7,3.8c-0.9,1-1.9,1.4-3,1.4c-1.1,0-1.7-0.8-1.7-2.3
		c0-1.2,0.3-2.5,0.9-3.8c0.6-1.3,1.5-2.6,2.5-3.9c1.1-1.3,2.3-2.6,3.7-3.8c1.4-1.3,2.9-2.4,4.5-3.5
		C275.7,99,275.1,101.1,274.4,103.2z"/>
	<path class="st0" d="M200.8,93.1l-8,2v6h-4v6h4v15.7c0,5,0.8,7.4,2.6,9.1c1.5,1.4,3.6,2,6,2c2.3,0,4-0.3,5.2-0.6l-0.1-6.6
		c-0.7,0.1-1.5,0.2-2.3,0.2c-1.7,0-3.3-0.9-3.3-4.6v-15.1h6v-6h-6V93.1z"/>
	<path class="st0" d="M46.8,126.3c0-1.3,1.6-3.3,2.7-5.2l7.3-13.6v-6.4h-18v7h9v0.8c-1,1.2-1.6,3.3-2.6,5.1l-7.4,14.2v4.9h20v-7h-11
		V126.3z"/>
	<path class="st0" d="M232.8,114.4c0-6.4-1.4-13.2-11-13.2c-4.4,0-8,1.4-9.8,2.4l1.6,5.7c1.9-1.2,4.1-1.8,6.6-1.8
		c3,0,4.6,1.8,4.6,4.3v0.7c-7,0.1-14.7,3.5-14.7,11.8c0,5.7,3.5,9.6,8.3,9.6c2.8,0,5.2-0.8,7-3.8h0.1l0.5,3h7.7
		c-0.4-2-0.9-4.4-0.9-6.9V114.4z M224.8,123.6c0,0.5,0,1-0.2,1.5c-0.6,1.9-2.1,2.7-3.5,2.7c-1.3,0-3.1-1.2-3.1-4.4
		c0-4.4,4.7-5.3,6.7-5.4V123.6z"/>
	<path class="st0" d="M173.5,101.2c-6.3,0-12.3,5.1-12.3,16.5c0,10.3,4.5,16.3,12.2,16.3c4.8,0,12.2-3.2,12.2-16.5
		C185.5,107.5,181,101.2,173.5,101.2z M173.6,127.5c-3.1,0-3.9-4.5-3.9-10c0-4.4,0.6-9.9,3.8-9.9c2.9,0,3.6,5.5,3.6,9.9
		C177,122.2,176.3,127.5,173.6,127.5z"/>
	<rect x="120.8" y="101.1" class="st0" width="8" height="32"/>
	<path class="st0" d="M147.5,115.7c-0.5,3-0.8,5.4-1.2,9.4h-0.1c-0.5-4-0.9-6.5-1.4-9.4l-2.4-14.6h-9l8.6,32h7.9l8.5-32H150
		L147.5,115.7z"/>
	<path class="st0" d="M125,88.7c-2.3,0-4.4,1.8-4.4,4.6c-0.1,2.7,1.9,4.6,4.2,4.6c2.6,0,4.5-1.9,4.5-4.6
		C129.4,90.4,127.5,88.7,125,88.7z"/>
	<polygon class="st0" points="115.1,89.1 109.2,89.1 106.6,94.1 106.4,94.1 103.8,89.1 98,89.1 103.5,97.1 109.5,97.1 	"/>
	<path class="st0" d="M73.2,101.2c-6.3,0-12.3,5.1-12.3,16.5c0,10.3,4.5,16.3,12.2,16.3c4.8,0,12.2-3.2,12.2-16.5
		C85.2,107.5,80.7,101.2,73.2,101.2z M73.3,127.5c-3.1,0-3.9-4.5-3.9-10c0-4.4,0.6-9.9,3.8-9.9c2.9,0,3.6,5.5,3.6,9.9
		C76.7,122.2,76,127.5,73.3,127.5z"/>
	<path class="st0" d="M104.8,126.3c0-1.3,2.6-3.3,3.7-5.2l8.3-13.6v-6.4h-21v7h10v0.8c-1,1.2-2.1,3.3-3.1,5.1l-7.9,14.2v4.9h22v-7
		h-12V126.3z"/>
</g>
</svg>
