<?xml version="1.0" encoding="utf-8"?>
<!-- Generator: Adobe Illustrator 16.0.0, SVG Export Plug-In . SVG Version: 6.00 Build 0)  -->
<!DOCTYPE svg PUBLIC "-//W3C//DTD SVG 1.1//EN" "http://www.w3.org/Graphics/SVG/1.1/DTD/svg11.dtd" [
	<!ENTITY ns_flows "http://ns.adobe.com/Flows/1.0/">
	<!ENTITY ns_extend "http://ns.adobe.com/Extensibility/1.0/">
	<!ENTITY ns_ai "http://ns.adobe.com/AdobeIllustrator/10.0/">
	<!ENTITY ns_graphs "http://ns.adobe.com/Graphs/1.0/">
]>
<svg version="1.1" id="Vrstva_1" xmlns:x="&ns_extend;" xmlns:i="&ns_ai;" xmlns:graph="&ns_graphs;"
	 xmlns="http://www.w3.org/2000/svg" xmlns:xlink="http://www.w3.org/1999/xlink" xmlns:a="http://ns.adobe.com/AdobeSVGViewerExtensions/3.0/"
	 x="0px" y="0px" width="298.3px" height="79.1px" viewBox="0 0 298.3 79.1" style="enable-background:new 0 0 298.3 79.1;"
	 xml:space="preserve">
<style type="text/css">
<![CDATA[
	.st0{fill:black;}
]]>
</style>
<g>
	<g>
		<path class="st0" d="M12.6,67.5c0.2,2.8-0.5,6-1.1,7.3c0.3,0.6,1,0.7,1.3-0.1c0.5-1,1-3,1.1-4.7c1,1.5,2.1,3.2,2.3,5.3
			c0.1,1.7-0.7,2.3-1.5,2.3c-0.7,0-1.4-0.4-1.7-0.9c-0.6,0.1-1,0.6-1,1.3c0,0.4,0.6,1.2,2,1.1c2-0.1,4.5-2.1,4.3-5.3
			c-0.2-2.9-2.7-5.6-2.8-7.3c1-1.1,1-2.1-0.1-3.2c-1.9,0.1-3,1.3-2.9,3.1C12.5,66.8,12.5,67.1,12.6,67.5L12.6,67.5 M34.5,76.1
			c1.8-0.1,3.3-1.9,3.7-3.8c0.1-0.6-0.7-0.7-1.1-0.4c-0.7,2.1-1.4,2.6-2.1,2.7c-0.9,0.1-1.9-3-0.2-10c-2.1-3.1-4.2-0.1-6.5,7.7
			l1.4-16.9c0.1-1.5-1.9-0.9-3,0c-0.1,1-0.8,17.1-0.6,20c0.1,1.3,0.5,1.7,2.4,0.8c0.8-3.6,2.1-7.4,3.1-9.1
			C31.2,72,31.8,76.3,34.5,76.1 M47.3,73.8c-1.1,0.1-1.3-4.1-0.5-9.2c0.2-1.1-1.5-1-3,0.3c-0.1,6.4-1,8.7-1.8,8.8
			c-1.2,0.1-1.8-4-0.5-9.6c0.2-0.8,0.3-1.5-2.6-0.6c-1.4,6.5-0.8,12.4,2.7,12.2c1.1-0.1,2-1.3,2.4-3.6c0.3,2,1.2,3.3,2.7,3.2
			c1.8-0.1,3.1-1.9,3.5-3.8c0.1-0.6-0.7-0.7-1.1-0.4C48.6,73.3,47.9,73.7,47.3,73.8 M63.7,74.1c1.8-0.1,3.2-1.9,3.7-3.8
			c0.1-0.6-0.7-0.7-1.1-0.4c-0.7,2.1-1.4,2.6-2.1,2.7c-1.1,0.1-1.5-2.7,0.1-9.4c-1-1.2-2.2-1.6-3.1,0.1c-1,1.9-1.6,4.1-2.8,7.8
			c-0.2-2.5,0-6.6,0.8-9.8c-2.2-2.2-3.7,0.2-6.2,10.6c0.2-3.8,0.5-7.7,0.7-9.1c0.2-1.1-1-1.2-2.6-0.2c-0.3,2-0.4,7.3-0.3,11.1
			c0,1.1,0.8,1.7,2.8,0.7c1-4.1,1.8-7.1,2.8-9.7c-0.9,8.2-0.4,10.6,2.2,9.6l2.4-7C60.5,71.1,61.7,74.2,63.7,74.1 M77.9,66.1
			c-0.6,0.5-1.2,0.8-1.9,1.1c0.1-0.8,0.2-1.8,0.1-2.7c-0.2-2.9-1.9-4.1-3.6-4c-0.9,0.1-1.6,0.7-2.1,1.7c-1.3,0.1-3.4,1.8-3,6.7
			c0.3,4.4,2.8,4.9,3.9,4.8c1.3-0.1,3.5-1.9,4.4-5.2C78.2,67.9,78.6,66.3,77.9,66.1 M72,72.2c-1.1,0.1-2.4-3.1-1.9-6.6
			c0.3,1.4,1.6,2.7,3.7,2.9C73.5,70.4,72.9,72.1,72,72.2 M71.7,63.9c-0.2-2.8,1.9-3.2,2.2,0.8c0.1,0.7,0,1.6,0,2.5
			C72.7,66.8,71.7,65.7,71.7,63.9 M85.6,72.6c1.8-0.1,3.3-1.9,3.7-3.8c0.1-0.6-0.7-0.7-1.1-0.4c-0.7,2.1-1.4,2.6-2.1,2.7
			c-0.9,0.1-1.7-2.4-0.4-8.8c0.2-0.8-0.3-1-0.7-1c-0.6,0.5-2.3,0.8-3.7,0.9c-0.1-1.1-0.3-2.2-0.5-3.4c-1.9-0.8-2.6,1.8-2.5,3
			c0.1,1.5,0.7,2.2,1.6,2.5c0,2.1-0.3,4.2-0.9,5.8c0.3,0.6,1,0.8,1.3,0c0.8-1.9,1.1-3.8,1.1-5.6c0.4,0,0.9-0.1,1.3-0.2
			C82,71.1,84.2,72.7,85.6,72.6 M99.8,64.5c-0.6,0.5-1.2,0.8-1.9,1c0.1-0.8,0.2-1.8,0.1-2.7c-0.2-2.9-1.9-4.1-3.6-4
			c-0.9,0.1-1.6,0.7-2.1,1.7c-1.3,0.1-3.4,1.8-3,6.7c0.3,4.4,2.8,4.9,3.9,4.8c1.3-0.1,3.5-1.9,4.4-5.2
			C100.2,66.3,100.6,64.8,99.8,64.5 M93.9,70.6c-1.1,0.1-2.4-3.1-1.9-6.6c0.3,1.4,1.6,2.7,3.7,2.9C95.5,68.9,94.9,70.6,93.9,70.6
			 M93.6,62.4c-0.2-2.8,1.9-3.2,2.2,0.8c0.1,0.7,0.1,1.6,0,2.5C94.6,65.2,93.7,64.1,93.6,62.4 M114.2,70.6c1.8-0.1,3.2-1.9,3.7-3.8
			c0.1-0.6-0.7-0.7-1.1-0.4c-0.7,2.1-1.4,2.6-2.1,2.7c-1.1,0.1-1.5-2.7,0.1-9.4c-1-1.2-2.2-1.6-3.1,0.1c-1,1.9-1.6,4.1-2.8,7.8
			c-0.2-2.5,0-6.6,0.8-9.8c-2.2-2.2-3.7,0.2-6.2,10.6c0.2-3.8,0.5-7.7,0.7-9.1c0.2-1.1-1-1.2-2.6-0.2c-0.3,2-0.4,7.3-0.3,11.1
			c0,1.1,0.8,1.7,2.8,0.7c1-4.1,1.8-7.1,2.8-9.7c-0.9,8.2-0.4,10.6,2.2,9.6l2.4-7C111,67.6,112.3,70.7,114.2,70.6"/>
	</g>
	<path class="st0" d="M70.6,52.5c0,0.4,0.2,0.7,0.6,0.7h7.9c0.4,0,0.6-0.3,0.6-0.7V41l5.5-7.5l9.6,19.2c0.2,0.5,0.4,0.6,0.9,0.6h9.2
		c0.4,0,0.6-0.3,0.4-0.8l-14-26.6l12.8-17.3c0.3-0.4,0.1-0.9-0.2-0.9h-9c-0.5,0-0.7,0.1-1.1,0.6L79.7,28V8.3c0-0.4-0.2-0.7-0.6-0.7
		h-7.9c-0.4,0-0.6,0.3-0.6,0.7V52.5L70.6,52.5z M116.2,53.2c0.4,0,0.6-0.3,0.6-0.7V35.5c0-4.4,1.4-6.9,4.7-7
		c1.5-0.1,2.9,0.5,4.4,1.5c0.4,0.2,0.6,0.2,0.9-0.1l3.5-6.8c0.2-0.4,0.1-0.7-0.2-0.9c-1.3-1.2-3.3-1.9-5.3-1.9
		c-3.7,0-6.4,1.5-7.9,4.2h-0.1v-2.7c0-0.4-0.2-0.7-0.6-0.7h-7.5c-0.4,0-0.6,0.3-0.6,0.7v31.1c0,0.4,0.2,0.7,0.6,0.7H116.2
		L116.2,53.2z M141,16.3c0.6,0,0.8-0.1,1.2-0.7l6.2-8.7c0.2-0.3,0.1-0.7-0.3-0.7h-7.2c-0.5,0-0.9,0.2-1.1,0.7l-4.8,8.7
		c-0.2,0.4,0,0.7,0.4,0.7H141L141,16.3z M142.1,53.2c0.4,0,0.6-0.3,0.6-0.7V21.5c0-0.4-0.2-0.7-0.6-0.7h-7.5c-0.4,0-0.6,0.3-0.6,0.7
		v31.1c0,0.4,0.2,0.7,0.6,0.7H142.1L142.1,53.2z M163.3,16.6c0.5,0,0.9-0.2,1.2-0.7l6.4-8.8c0.3-0.3,0.1-0.7-0.2-0.7h-5
		c-0.6,0-0.9,0.1-1.4,0.7l-3.2,3.6h-0.1l-3.3-3.6c-0.5-0.5-0.7-0.7-1.4-0.7h-4.9c-0.4,0-0.6,0.3-0.3,0.7l6.5,8.8
		c0.3,0.5,0.6,0.7,1.1,0.7H163.3L163.3,16.6z M172.5,53.2c0.4,0,0.6-0.3,0.6-0.7v-6.4c0-0.4-0.2-0.7-0.6-0.7h-13.8v-0.1l14.2-16.9
		c0.1-0.2,0.2-0.3,0.2-0.7v-6.4c0-0.4-0.2-0.7-0.6-0.7h-22.7c-0.4,0-0.6,0.3-0.6,0.7v6.4c0,0.4,0.2,0.7,0.6,0.7h13.1v0.1l-14.3,17.2
		c-0.1,0.2-0.2,0.4-0.2,0.7v6c0,0.4,0.2,0.7,0.6,0.7H172.5L172.5,53.2z M190.6,54c6.4,0,11.3-3.2,13.1-9.1c0.7-2.3,1-4.6,1-7.8
		s-0.3-5.5-1-7.8c-1.7-5.9-6.7-9.1-13.1-9.1c-6.4,0-11.3,3.2-13.1,9.1c-0.7,2.3-1,4.6-1,7.8s0.3,5.5,1,7.8
		C179.3,50.7,184.3,54,190.6,54L190.6,54z M190.6,46.1c-2.3,0-4-1.2-4.7-3.5c-0.4-1.5-0.6-2.8-0.6-5.6c0-2.7,0.1-4.1,0.6-5.6
		c0.7-2.3,2.4-3.5,4.7-3.5c2.3,0,4,1.2,4.7,3.5c0.4,1.5,0.6,2.8,0.6,5.6c0,2.7-0.1,4.1-0.6,5.6C194.6,44.8,192.9,46.1,190.6,46.1
		L190.6,46.1z M223.9,53.2c0.4,0,0.6-0.3,0.7-0.7l10.7-31.1c0.1-0.4-0.1-0.7-0.5-0.7h-7.7c-0.4,0-0.7,0.2-0.8,0.7l-5.6,19.2h-0.1
		l-5.9-19.2c-0.1-0.5-0.4-0.7-0.8-0.7h-7.9c-0.4,0-0.6,0.3-0.5,0.7l10.7,31.1c0.1,0.4,0.4,0.7,0.7,0.7H223.9L223.9,53.2z
		 M266.1,53.2c0.4,0,0.5-0.4,0.3-0.7l-10.5-19.6l9.2-11.5c0.2-0.3,0.1-0.7-0.3-0.7h-8c-0.5,0-0.8,0.2-1.2,0.7l-8.7,11.5V8.3
		c0-0.4-0.2-0.7-0.6-0.7H239c-0.4,0-0.6,0.3-0.6,0.7v44.2c0,0.4,0.2,0.7,0.6,0.7h7.5c0.4,0,0.6-0.3,0.6-0.7v-8.9l3.1-4.2l6.7,13.1
		c0.3,0.5,0.5,0.7,0.9,0.7H266.1L266.1,53.2z M275.4,65.3c5.4,0,8.1-2.1,10.7-9.3l12.2-34.5c0.1-0.4-0.1-0.7-0.5-0.7h-7.7
		c-0.4,0-0.6,0.3-0.7,0.7l-5.6,18.8h-0.1l-6-18.8c-0.1-0.4-0.4-0.7-0.7-0.7h-8c-0.4,0-0.6,0.3-0.5,0.7l11.2,30.2l-0.8,2.4
		c-0.7,2.4-1.9,3.3-4.1,3.3h-1.3c-0.4,0-0.6,0.3-0.6,0.7v6.6c0,0.4,0.2,0.7,0.6,0.7H275.4L275.4,65.3z"/>
	<g>
		<path class="st0" d="M64.5,0H2.6C2.6,0,0,0,0,2.6v49.3c0,0,0,2.6,2.6,2.6h61.9c0,0,2.6,0,2.6-2.6V2.6C67.1,2.6,67.1,0,64.5,0z
			 M64.3,30.2v19.4c0,1.6-1.3,2-2,2H5.1c-1.6,0-2-1.3-2-2V30.2l0,0H64.3L64.3,30.2z M64.3,3.5v26.1H3V3.5V3.2h0.3h60.6h0.3L64.3,3.5
			L64.3,3.5z"/>
		<path class="st0" d="M14.1,13.4c0-5.5-2.2-6.9-5.1-6.9H5.6v20.7H9v-5.5c0-1,0-2,0-3l0,0l1.9,8.6h3.8l-2.6-8.6
			C13.5,17.7,14.1,15.6,14.1,13.4z M9.3,16.1L9,16v-5.1c0.9-0.1,1.6,0.7,1.6,2.5C10.7,14.8,10.2,16.1,9.3,16.1z"/>
		<polygon class="st0" points="18.8,12.9 18.7,12.9 17.5,6.5 14,6.5 17.1,18.4 17.1,27.2 20.5,27.2 20.5,18.4 23.5,6.5 20,6.5 		"/>
		<polygon class="st0" points="23.7,11.5 25.6,11.5 25.6,27.2 29,27.2 29,11.5 31,11.5 31,6.5 23.7,6.5 		"/>
		<path class="st0" d="M39.3,6.5l-0.8,7.2c-0.2,1.3-0.2,2.6-0.3,3.8h0l-1-11h-4.3l-1.5,20.7H35l0.3-8.4c0-1.5,0-3,0-4.6h0l1.2,13
			h2.8l1-8.5c0.2-1.5,0.3-3,0.4-4.5h0l0.3,13h3.6L43.4,6.5H39.3z"/>
		<path class="st0" d="M50.8,19.5c0,0.5,0,1.2-0.1,1.8c-0.1,0.5-0.3,1-0.8,1c-0.5,0-0.7-0.4-0.8-1C49,20.8,49,20,49,19.5v-13h-3.4
			V20c0,2.5,0.3,7.5,4.3,7.5c4,0,4.3-5,4.3-7.5V6.5h-3.4V19.5L50.8,19.5z"/>
		<path class="st0" d="M59.8,14.5c-0.2-0.2-0.4-0.5-0.6-0.9c-0.2-0.3-0.3-0.7-0.3-1.2c0-0.8,0.5-1.3,0.9-1.3c0.8,0,1.6,1.2,2,2.2
			V7.2c-0.7-0.6-1.6-1-2.4-1c-2.9,0-3.9,4.4-3.9,6.8c0,1.5,0.3,2.7,0.7,3.6c0.4,1,1,1.8,1.7,2.6c0.2,0.2,0.4,0.5,0.6,0.8
			c0.2,0.3,0.3,0.7,0.3,1.2c0,0.9-0.5,1.4-1,1.4c-0.9,0-1.7-1.2-2.2-2.3v6.5c0.8,0.5,1.7,0.9,2.6,0.9c2.4,0,4-3.1,4-6.9
			c0-1.6-0.2-2.7-0.6-3.6C61.1,16.1,60.6,15.3,59.8,14.5z"/>
		<path class="st0" d="M14.1,49.1v-3.5h-1.7c-0.5,0-0.9,0-1.4,0l3.8-8.2H5.7V41h1.6c0.5,0,1.1,0,1.6-0.1l-3.8,8.3L14.1,49.1
			L14.1,49.1z"/>
		<polygon class="st0" points="11.9,35.8 13.5,32.5 11,32.5 10,34.4 8.9,32.5 6.4,32.5 8.2,35.8 		"/>
		<rect x="15.9" y="37.5" class="st0" width="4.2" height="11.7"/>
		<path class="st0" d="M18.1,36.3c1.4,0,2.4-1.2,2.4-2.6c0-1.4-1.1-2.5-2.5-2.5c-1.3,0-2.4,1.2-2.4,2.5
			C15.6,35.2,16.7,36.3,18.1,36.3z"/>
		<path class="st0" d="M28.7,49.1l3.3-11.7h-4.1l-0.9,4.9c-0.1,0.8-0.2,1.7-0.3,2.6h0c-0.1-0.8-0.2-1.7-0.3-2.6l-0.8-4.9h-4.2
			l3.1,11.7H28.7z"/>
		<path class="st0" d="M37.7,49.4c3.6,0,5.3-2.8,5.3-6.1c0-3.3-1.6-6.1-5.3-6.1s-5.3,2.8-5.3,6.1C32.5,46.6,34.1,49.4,37.7,49.4z
			 M37.7,40.5c1,0,1.2,1.6,1.2,2.8c0,1.2-0.2,2.8-1.2,2.8s-1.2-1.6-1.2-2.8C36.6,42.1,36.7,40.5,37.7,40.5z"/>
		<polygon class="st0" points="45.3,49.1 49.5,49.1 49.5,40.9 50.9,40.9 50.9,37.5 49.5,37.5 49.5,34 45.3,34 45.3,37.5 44.1,37.5 
			44.1,40.9 45.3,40.9 		"/>
		<path class="st0" d="M55.3,49.4c1.4,0,2.3-1,2.9-2.2l0,0L58,49.1h4.2V37.5H58l0.2,1.8l0,0c-0.5-1.2-1.4-2.1-2.7-2.1
			c-2.9,0-3.5,3.7-3.5,6C51.8,45.5,52.4,49.4,55.3,49.4z M56.3,41.9c0.1-0.6,0.4-1.2,0.9-1.2c0.5,0,0.7,0.5,0.8,0.9
			c0.1,0.5,0.1,1.1,0.1,1.4c0,0.3,0,1-0.1,1.6c-0.1,0.6-0.4,1.1-0.9,1.1c-0.4,0-0.6-0.4-0.7-0.8c-0.1-0.5-0.1-1-0.1-1.3
			C56.1,43.3,56.1,42.6,56.3,41.9z"/>
	</g>
</g>
</svg>
