<?xml version="1.0" encoding="UTF-8"?>
<svg id="layer_main" data-name="MainLayer" xmlns="http://www.w3.org/2000/svg" viewBox="0 0 261 114">
  <defs>
    <style>
      .cls-1 {
        fill:black;
      }
    </style>
  </defs>
  <g>
    <path class="cls-1" d="M40.88,20.21h-15.7v-3.44c0-1.61-.2-2.63-.6-3.07-.4-.44-1.07-.66-2.01-.66-1.02,0-1.79.3-2.31.89-.52.59-.78,1.49-.78,2.7,0,1.55.29,2.72.88,3.5.56.78,2.15,1.73,4.78,2.84,7.53,3.19,12.27,5.81,14.22,7.86,1.95,2.05,2.93,5.35,2.93,9.9,0,3.31-.54,5.75-1.63,7.31-1.08,1.57-3.18,2.88-6.29,3.94-3.11,1.06-6.72,1.59-10.84,1.59-4.52,0-8.39-.61-11.59-1.84-3.2-1.22-5.29-2.78-6.29-4.68-.99-1.89-1.49-4.58-1.49-8.06v-3.04h15.7v5.65c0,1.74.22,2.86.66,3.36.44.5,1.23.75,2.35.75s1.96-.32,2.51-.95c.55-.63.82-1.57.82-2.81,0-2.73-.52-4.52-1.57-5.36-1.07-.84-3.71-2.25-7.91-4.22-4.2-1.99-6.99-3.43-8.35-4.33-1.37-.9-2.5-2.14-3.39-3.73-.9-1.59-1.35-3.61-1.35-6.08,0-3.56.64-6.16,1.91-7.8,1.27-1.64,3.33-2.93,6.16-3.86s6.27-1.39,10.28-1.39c4.39,0,8.13.51,11.23,1.52,3.09,1.01,5.14,2.29,6.15,3.83,1,1.54,1.51,4.15,1.51,7.85v1.84Z"/>
    <path class="cls-1" d="M84.38,6.15v31.04c0,3.52-.16,5.99-.48,7.42s-1.27,2.89-2.85,4.39c-1.58,1.5-3.66,2.64-6.25,3.41-2.58.77-5.63,1.16-9.14,1.16-3.88,0-7.31-.46-10.28-1.38-2.97-.92-5.19-2.11-6.67-3.59-1.47-1.47-2.34-3.03-2.61-4.66-.27-1.63-.4-5.07-.4-10.31V6.15h16.91v34.83c0,2.03.15,3.32.46,3.89.31.56.93.85,1.87.85,1.07,0,1.76-.31,2.07-.93.31-.62.46-2.09.46-4.4V6.15h16.91Z"/>
    <path class="cls-1" d="M89.36,6.15h12.65c8.17,0,13.69.27,16.57.8,2.88.54,5.07,1.42,6.57,2.64,1.5,1.22,2.44,2.59,2.81,4.09.37,1.5.56,4.45.56,8.85v16.27c0,4.17-.27,6.96-.82,8.36-.55,1.41-1.51,2.51-2.87,3.3-1.37.79-3.05,1.35-5.06,1.66-2.01.32-5.03.47-9.08.47h-21.33V6.15ZM106.27,14.1v30.55c2.44,0,3.94-.35,4.5-1.05.56-.7.84-2.6.84-5.69v-18.04c0-2.1-.09-3.45-.28-4.04-.19-.59-.62-1.03-1.29-1.3-.67-.28-1.93-.42-3.78-.42Z"/>
    <path class="cls-1" d="M171.89,33.35c0,4.67-.15,7.97-.46,9.91-.31,1.94-1.27,3.71-2.89,5.32-1.62,1.61-3.81,2.84-6.57,3.7s-5.97,1.29-9.64,1.29-6.61-.41-9.38-1.22c-2.77-.81-5-2.03-6.69-3.66-1.69-1.62-2.69-3.39-3.01-5.31s-.48-5.26-.48-10.04v-7.95c0-4.67.15-7.97.46-9.91.31-1.94,1.27-3.71,2.89-5.32s3.81-2.84,6.57-3.7,5.97-1.29,9.64-1.29,6.61.41,9.38,1.22c2.77.81,5,2.03,6.69,3.66,1.69,1.63,2.69,3.39,3.01,5.31.32,1.91.48,5.26.48,10.04v7.95ZM154.99,18.09c0-2.16-.17-3.54-.5-4.15s-1.02-.9-2.07-.9c-.88,0-1.56.24-2.03.73-.47.49-.7,1.93-.7,4.32v21.69c0,2.7.15,4.36.46,4.99.31.63,1.02.95,2.15.95s1.89-.36,2.21-1.09.48-2.46.48-5.19v-21.34Z"/>
    <path class="cls-1" d="M216.86,6.15l-9.7,20.97,10.62,25.47h-17.47l-6.85-19.91v19.91h-16.91V6.15h16.91v18.04l7.53-18.04h15.86Z"/>
    <path class="cls-1" d="M257.56,6.15v31.04c0,3.52-.16,5.99-.48,7.42s-1.27,2.89-2.85,4.39c-1.58,1.5-3.66,2.64-6.25,3.41-2.58.77-5.63,1.16-9.14,1.16-3.88,0-7.31-.46-10.28-1.38-2.97-.92-5.2-2.11-6.67-3.59-1.47-1.47-2.34-3.03-2.61-4.66-.27-1.63-.4-5.07-.4-10.31V6.15h16.91v34.83c0,2.03.15,3.32.46,3.89.31.56.93.85,1.87.85,1.07,0,1.76-.31,2.07-.93.31-.62.46-2.09.46-4.4V6.15h16.91Z"/>
  </g>
  <g>
    <path class="cls-1" d="M55.54,63.05v44.59h-14.78l-.02-30.1-5.88,30.1h-10.48l-6.21-29.41-.02,29.41H3.37v-44.59h21.88c.65,2.68,1.32,5.84,2.01,9.48l2.4,11.34,3.89-20.82h22Z"/>
    <path class="cls-1" d="M77.67,63.05v44.59h-16.91v-44.59h16.91Z"/>
    <path class="cls-1" d="M120.57,63.05v44.59h-14.82l-8.8-20.27v20.27h-14.14v-44.59h14.14l9.48,20.08v-20.08h14.14Z"/>
    <path class="cls-1" d="M142.7,63.05v44.59h-16.91v-44.59h16.91Z"/>
  </g>
</svg>