<?xml version="1.0" encoding="utf-8"?>
<!-- Generator: Adobe Illustrator 16.0.3, SVG Export Plug-In . SVG Version: 6.00 Build 0)  -->
<!DOCTYPE svg PUBLIC "-//W3C//DTD SVG 1.1//EN" "http://www.w3.org/Graphics/SVG/1.1/DTD/svg11.dtd">
<svg version="1.1" id="Vrstva_1" xmlns="http://www.w3.org/2000/svg" xmlns:xlink="http://www.w3.org/1999/xlink" x="0px" y="0px"
	 width="300px" height="300px" viewBox="0 0 300 300" enable-background="new 0 0 300 300" xml:space="preserve">
<path fill="#000000" d="M286.228,164.802c5.26,0,8.359-2.855,8.359-7.544v-6.198c0-3.955-2.365-6.279-5.709-6.279
	c-2.119,0-3.465,0.693-4.322,1.712l0.205-4.893h8.93v-5.872H278.97l-0.529,15.902l6.238,0.531v-0.531
	c0-1.142,0.734-1.549,1.387-1.549c1.02,0,1.428,0.652,1.428,1.632v5.545c0,0.979-0.49,1.631-1.469,1.631s-1.387-0.652-1.387-1.672
	v-2.936l-6.523,0.203v3.303C278.114,162.151,281.253,164.802,286.228,164.802z M261.11,160.805v3.467h15.984v-5.749h-8.113
	c0.938-3.426,8.113-7.993,8.113-14.599v-1.183c0-5.016-2.895-7.543-7.992-7.543c-5.342,0-8.236,2.854-8.236,7.503v2.854l6.238,0.815
	v-3.71c0-1.102,0.57-1.631,1.469-1.631c0.896,0,1.385,0.57,1.385,1.672v1.793C269.958,148.938,261.11,154.24,261.11,160.805z
	 M251.325,158.849c-0.896,0-1.346-0.653-1.346-1.714v-14.271c0-1.019,0.408-1.712,1.346-1.712s1.387,0.693,1.387,1.712v14.271
	C252.712,158.195,252.222,158.849,251.325,158.849z M251.325,164.802c5.301,0,8.359-3.141,8.359-7.911v-13.741
	c0-4.812-3.059-7.952-8.359-7.952s-8.359,3.14-8.359,7.952v13.741C242.966,161.661,246.351,164.802,251.325,164.802z
	 M225.759,160.805v3.467h15.984v-5.749h-8.115c0.938-3.426,8.115-7.993,8.115-14.599v-1.183c0-5.016-2.895-7.543-7.992-7.543
	c-5.342,0-8.236,2.854-8.236,7.503v2.854l6.238,0.815v-3.71c0-1.102,0.57-1.631,1.469-1.631c0.896,0,1.385,0.57,1.385,1.672v1.793
	C234.606,148.938,225.759,154.24,225.759,160.805z M212.63,164.271h7.055v-28.544h-7.055V164.271z M190.204,164.271h5.871v-16.229
	l3.141,16.229h1.182l3.467-16.229v16.229h6.973v-28.544h-8.563l-1.715,12.355l-1.752-12.355h-8.604V164.271z M179.032,154.281
	l0.979-8.44l0.979,8.44H179.032z M171.938,164.271h5.91l0.531-4.526h3.262l0.529,4.526h7.055l-4.037-28.544h-9.256L171.938,164.271z
	 M153.302,164.271h6.689v-15.495l5.463,15.495h5.504v-28.544h-6.729v12.601l-4.199-12.601h-6.729V164.271z M138.258,158.522h-0.774
	v-17.045h0.774c1.02,0,1.916,0.408,1.916,2.039v12.966C140.174,158.113,139.277,158.522,138.258,158.522z M130.429,164.271h9.174
	c4.405,0,7.585-2.732,7.585-7.177v-14.19c0-4.444-3.18-7.177-7.3-7.177h-9.459V164.271z M114.322,164.271h14.68v-5.749h-7.625
	v-5.913h6.524v-5.587h-6.524v-5.545h7.625v-5.75h-14.68V164.271z M103.681,148.165h-0.856v-6.933h0.856
	c0.978,0,1.875,0.448,1.875,2.12v2.691C105.556,147.675,104.659,148.165,103.681,148.165z M95.77,164.271h7.055v-11.214h0.652
	c1.346,0,2.039,0.652,2.039,2.202v5.831c0,1.142,0.122,2.243,0.489,3.181h7.38c-0.693-1.06-0.855-2.732-0.855-3.956v-5.301
	c0-1.875-0.612-4.24-3.181-5.342c2.324-0.774,3.425-2.69,3.425-5.504v-1.468c0-5.057-3.425-6.974-7.502-6.974H95.77V164.271z
	 M84.679,149.266v-8.033h0.693c0.897,0,1.998,0.286,1.998,1.958v4.158c0,1.631-1.101,1.917-1.998,1.917H84.679z M77.625,164.271
	h7.054v-9.828h2.039c3.465,0,7.829-1.508,7.829-7.787v-3.14c0-6.28-4.404-7.789-7.87-7.789h-9.052V164.271z M60.5,164.271h7.013
	v-22.794h4.567v-5.75H55.933v5.75H60.5V164.271z M40.479,164.271h14.679v-5.749h-7.625v-5.913h6.524v-5.587h-6.524v-5.545h7.625
	v-5.75H40.479V164.271z M26.657,164.271h8.155l4.73-28.544H33.63l-2.325,16.84l-2.08-16.84h-7.299L26.657,164.271z M13.528,164.802
	c5.79,0,8.522-3.222,8.522-7.422v-1.264c0-4.119-2.243-5.953-4.363-7.626l-3.506-2.813c-1.142-0.855-1.631-1.549-1.631-2.731v-0.489
	c0-1.142,0.612-1.713,1.468-1.713c0.897,0,1.428,0.489,1.428,1.591v2.691l6.198-0.815v-2.121c0-4.037-2.161-6.891-7.544-6.891
	c-5.056,0-8.644,2.569-8.644,7.666v0.897c0,3.547,1.427,5.423,3.751,7.218l3.996,3.1c1.223,0.978,1.631,1.631,1.631,2.854v0.733
	c0,0.979-0.53,1.632-1.468,1.632c-1.06,0-1.467-0.734-1.467-1.753v-2.65l-6.484,0.815v2.486
	C5.413,161.907,7.982,164.802,13.528,164.802z"/>
</svg>
