<?xml version="1.0" encoding="utf-8"?>
<!-- Generator: Adobe Illustrator 16.0.0, SVG Export Plug-In . SVG Version: 6.00 Build 0)  -->
<!DOCTYPE svg PUBLIC "-//W3C//DTD SVG 1.1//EN" "http://www.w3.org/Graphics/SVG/1.1/DTD/svg11.dtd" [
	<!ENTITY ns_flows "http://ns.adobe.com/Flows/1.0/">
	<!ENTITY ns_extend "http://ns.adobe.com/Extensibility/1.0/">
	<!ENTITY ns_ai "http://ns.adobe.com/AdobeIllustrator/10.0/">
	<!ENTITY ns_graphs "http://ns.adobe.com/Graphs/1.0/">
]>
<svg version="1.1" id="Vrstva_1" xmlns:x="&ns_extend;" xmlns:i="&ns_ai;" xmlns:graph="&ns_graphs;"
	 xmlns="http://www.w3.org/2000/svg" xmlns:xlink="http://www.w3.org/1999/xlink" xmlns:a="http://ns.adobe.com/AdobeSVGViewerExtensions/3.0/"
	 x="0px" y="0px" width="296.8px" height="105px" viewBox="0 0 296.8 105" style="enable-background:new 0 0 296.8 105;"
	 xml:space="preserve">
<style type="text/css">
<![CDATA[
	.st0{fill:black;}
]]>
</style>
<g>
	<path class="st0" d="M72.1,99.6c-0.4,0-0.7,0.3-0.7,0.8c0,0.3,0.2,0.5,0.6,0.5c0.3,0,0.6-0.1,0.9-0.3l0.1-0.8
		C72.7,99.8,72.5,99.6,72.1,99.6z M72.1,99.6c-0.4,0-0.7,0.3-0.7,0.8c0,0.3,0.2,0.5,0.6,0.5c0.3,0,0.6-0.1,0.9-0.3l0.1-0.8
		C72.7,99.8,72.5,99.6,72.1,99.6z M72.1,99.6c-0.4,0-0.7,0.3-0.7,0.8c0,0.3,0.2,0.5,0.6,0.5c0.3,0,0.6-0.1,0.9-0.3l0.1-0.8
		C72.7,99.8,72.5,99.6,72.1,99.6z M85.5,97.8c-0.8,0-1.1,1.1-1.1,2c0,0.6,0.2,0.9,0.6,0.9c0.8,0,1.1-1.1,1.1-2
		C86.1,98.1,85.9,97.8,85.5,97.8z M85.5,97.8c-0.8,0-1.1,1.1-1.1,2c0,0.6,0.2,0.9,0.6,0.9c0.8,0,1.1-1.1,1.1-2
		C86.1,98.1,85.9,97.8,85.5,97.8z M72.1,99.6c-0.4,0-0.7,0.3-0.7,0.8c0,0.3,0.2,0.5,0.6,0.5c0.3,0,0.6-0.1,0.9-0.3l0.1-0.8
		C72.7,99.8,72.5,99.6,72.1,99.6z M72.1,99.6c-0.4,0-0.7,0.3-0.7,0.8c0,0.3,0.2,0.5,0.6,0.5c0.3,0,0.6-0.1,0.9-0.3l0.1-0.8
		C72.7,99.8,72.5,99.6,72.1,99.6z M85.5,97.8c-0.8,0-1.1,1.1-1.1,2c0,0.6,0.2,0.9,0.6,0.9c0.8,0,1.1-1.1,1.1-2
		C86.1,98.1,85.9,97.8,85.5,97.8z M92.4,97.8c-0.3,0-0.6,0.2-0.7,0.3l-0.4,2.3c0.2,0.2,0.4,0.3,0.7,0.3c0.5,0,0.9-0.9,0.9-2.1
		C92.8,98.1,92.7,97.8,92.4,97.8z M92.4,97.8c-0.3,0-0.6,0.2-0.7,0.3l-0.4,2.3c0.2,0.2,0.4,0.3,0.7,0.3c0.5,0,0.9-0.9,0.9-2.1
		C92.8,98.1,92.7,97.8,92.4,97.8z M85.5,97.8c-0.8,0-1.1,1.1-1.1,2c0,0.6,0.2,0.9,0.6,0.9c0.8,0,1.1-1.1,1.1-2
		C86.1,98.1,85.9,97.8,85.5,97.8z M72.1,99.6c-0.4,0-0.7,0.3-0.7,0.8c0,0.3,0.2,0.5,0.6,0.5c0.3,0,0.6-0.1,0.9-0.3l0.1-0.8
		C72.7,99.8,72.5,99.6,72.1,99.6z M72.1,99.6c-0.4,0-0.7,0.3-0.7,0.8c0,0.3,0.2,0.5,0.6,0.5c0.3,0,0.6-0.1,0.9-0.3l0.1-0.8
		C72.7,99.8,72.5,99.6,72.1,99.6z M85.5,97.8c-0.8,0-1.1,1.1-1.1,2c0,0.6,0.2,0.9,0.6,0.9c0.8,0,1.1-1.1,1.1-2
		C86.1,98.1,85.9,97.8,85.5,97.8z M92.4,97.8c-0.3,0-0.6,0.2-0.7,0.3l-0.4,2.3c0.2,0.2,0.4,0.3,0.7,0.3c0.5,0,0.9-0.9,0.9-2.1
		C92.8,98.1,92.7,97.8,92.4,97.8z M92.4,97.8c-0.3,0-0.6,0.2-0.7,0.3l-0.4,2.3c0.2,0.2,0.4,0.3,0.7,0.3c0.5,0,0.9-0.9,0.9-2.1
		C92.8,98.1,92.7,97.8,92.4,97.8z M85.5,97.8c-0.8,0-1.1,1.1-1.1,2c0,0.6,0.2,0.9,0.6,0.9c0.8,0,1.1-1.1,1.1-2
		C86.1,98.1,85.9,97.8,85.5,97.8z M72.1,99.6c-0.4,0-0.7,0.3-0.7,0.8c0,0.3,0.2,0.5,0.6,0.5c0.3,0,0.6-0.1,0.9-0.3l0.1-0.8
		C72.7,99.8,72.5,99.6,72.1,99.6z M72.1,99.6c-0.4,0-0.7,0.3-0.7,0.8c0,0.3,0.2,0.5,0.6,0.5c0.3,0,0.6-0.1,0.9-0.3l0.1-0.8
		C72.7,99.8,72.5,99.6,72.1,99.6z M85.5,97.8c-0.8,0-1.1,1.1-1.1,2c0,0.6,0.2,0.9,0.6,0.9c0.8,0,1.1-1.1,1.1-2
		C86.1,98.1,85.9,97.8,85.5,97.8z M92.4,97.8c-0.3,0-0.6,0.2-0.7,0.3l-0.4,2.3c0.2,0.2,0.4,0.3,0.7,0.3c0.5,0,0.9-0.9,0.9-2.1
		C92.8,98.1,92.7,97.8,92.4,97.8z M92.4,97.8c-0.3,0-0.6,0.2-0.7,0.3l-0.4,2.3c0.2,0.2,0.4,0.3,0.7,0.3c0.5,0,0.9-0.9,0.9-2.1
		C92.8,98.1,92.7,97.8,92.4,97.8z M85.5,97.8c-0.8,0-1.1,1.1-1.1,2c0,0.6,0.2,0.9,0.6,0.9c0.8,0,1.1-1.1,1.1-2
		C86.1,98.1,85.9,97.8,85.5,97.8z M72.1,99.6c-0.4,0-0.7,0.3-0.7,0.8c0,0.3,0.2,0.5,0.6,0.5c0.3,0,0.6-0.1,0.9-0.3l0.1-0.8
		C72.7,99.8,72.5,99.6,72.1,99.6z M72.1,99.6c-0.4,0-0.7,0.3-0.7,0.8c0,0.3,0.2,0.5,0.6,0.5c0.3,0,0.6-0.1,0.9-0.3l0.1-0.8
		C72.7,99.8,72.5,99.6,72.1,99.6z M85.5,97.8c-0.8,0-1.1,1.1-1.1,2c0,0.6,0.2,0.9,0.6,0.9c0.8,0,1.1-1.1,1.1-2
		C86.1,98.1,85.9,97.8,85.5,97.8z M92.4,97.8c-0.3,0-0.6,0.2-0.7,0.3l-0.4,2.3c0.2,0.2,0.4,0.3,0.7,0.3c0.5,0,0.9-0.9,0.9-2.1
		C92.8,98.1,92.7,97.8,92.4,97.8z M92.4,97.8c-0.3,0-0.6,0.2-0.7,0.3l-0.4,2.3c0.2,0.2,0.4,0.3,0.7,0.3c0.5,0,0.9-0.9,0.9-2.1
		C92.8,98.1,92.7,97.8,92.4,97.8z M85.5,97.8c-0.8,0-1.1,1.1-1.1,2c0,0.6,0.2,0.9,0.6,0.9c0.8,0,1.1-1.1,1.1-2
		C86.1,98.1,85.9,97.8,85.5,97.8z M72.1,99.6c-0.4,0-0.7,0.3-0.7,0.8c0,0.3,0.2,0.5,0.6,0.5c0.3,0,0.6-0.1,0.9-0.3l0.1-0.8
		C72.7,99.8,72.5,99.6,72.1,99.6z M72.1,99.6c-0.4,0-0.7,0.3-0.7,0.8c0,0.3,0.2,0.5,0.6,0.5c0.3,0,0.6-0.1,0.9-0.3l0.1-0.8
		C72.7,99.8,72.5,99.6,72.1,99.6z M85.5,97.8c-0.8,0-1.1,1.1-1.1,2c0,0.6,0.2,0.9,0.6,0.9c0.8,0,1.1-1.1,1.1-2
		C86.1,98.1,85.9,97.8,85.5,97.8z M92.4,97.8c-0.3,0-0.6,0.2-0.7,0.3l-0.4,2.3c0.2,0.2,0.4,0.3,0.7,0.3c0.5,0,0.9-0.9,0.9-2.1
		C92.8,98.1,92.7,97.8,92.4,97.8z M134.2,97.7c-0.5,0-0.7,0.3-0.9,0.9h1.7C134.9,98,134.8,97.7,134.2,97.7z M140.6,97.8
		c-0.5,0-0.9,0.9-0.9,2.1c0,0.5,0.1,0.7,0.5,0.7c0.3,0,0.6-0.2,0.7-0.3l0.4-2.3C141.1,98,140.9,97.8,140.6,97.8z M140.6,97.8
		c-0.5,0-0.9,0.9-0.9,2.1c0,0.5,0.1,0.7,0.5,0.7c0.3,0,0.6-0.2,0.7-0.3l0.4-2.3C141.1,98,140.9,97.8,140.6,97.8z M134.2,97.7
		c-0.5,0-0.7,0.3-0.9,0.9h1.7C134.9,98,134.8,97.7,134.2,97.7z M92.4,97.8c-0.3,0-0.6,0.2-0.7,0.3l-0.4,2.3c0.2,0.2,0.4,0.3,0.7,0.3
		c0.5,0,0.9-0.9,0.9-2.1C92.8,98.1,92.7,97.8,92.4,97.8z M85.5,97.8c-0.8,0-1.1,1.1-1.1,2c0,0.6,0.2,0.9,0.6,0.9
		c0.8,0,1.1-1.1,1.1-2C86.1,98.1,85.9,97.8,85.5,97.8z M72.1,99.6c-0.4,0-0.7,0.3-0.7,0.8c0,0.3,0.2,0.5,0.6,0.5
		c0.3,0,0.6-0.1,0.9-0.3l0.1-0.8C72.7,99.8,72.5,99.6,72.1,99.6z M72.1,99.6c-0.4,0-0.7,0.3-0.7,0.8c0,0.3,0.2,0.5,0.6,0.5
		c0.3,0,0.6-0.1,0.9-0.3l0.1-0.8C72.7,99.8,72.5,99.6,72.1,99.6z M85.5,97.8c-0.8,0-1.1,1.1-1.1,2c0,0.6,0.2,0.9,0.6,0.9
		c0.8,0,1.1-1.1,1.1-2C86.1,98.1,85.9,97.8,85.5,97.8z M92.4,97.8c-0.3,0-0.6,0.2-0.7,0.3l-0.4,2.3c0.2,0.2,0.4,0.3,0.7,0.3
		c0.5,0,0.9-0.9,0.9-2.1C92.8,98.1,92.7,97.8,92.4,97.8z M134.2,97.7c-0.5,0-0.7,0.3-0.9,0.9h1.7C134.9,98,134.8,97.7,134.2,97.7z
		 M140.6,97.8c-0.5,0-0.9,0.9-0.9,2.1c0,0.5,0.1,0.7,0.5,0.7c0.3,0,0.6-0.2,0.7-0.3l0.4-2.3C141.1,98,140.9,97.8,140.6,97.8z
		 M154.5,97.8c-0.8,0-1.1,1.1-1.1,2c0,0.6,0.2,0.9,0.6,0.9c0.8,0,1.1-1.1,1.1-2C155.1,98.1,154.9,97.8,154.5,97.8z M154.5,97.8
		c-0.8,0-1.1,1.1-1.1,2c0,0.6,0.2,0.9,0.6,0.9c0.8,0,1.1-1.1,1.1-2C155.1,98.1,154.9,97.8,154.5,97.8z M140.6,97.8
		c-0.5,0-0.9,0.9-0.9,2.1c0,0.5,0.1,0.7,0.5,0.7c0.3,0,0.6-0.2,0.7-0.3l0.4-2.3C141.1,98,140.9,97.8,140.6,97.8z M134.2,97.7
		c-0.5,0-0.7,0.3-0.9,0.9h1.7C134.9,98,134.8,97.7,134.2,97.7z M92.4,97.8c-0.3,0-0.6,0.2-0.7,0.3l-0.4,2.3c0.2,0.2,0.4,0.3,0.7,0.3
		c0.5,0,0.9-0.9,0.9-2.1C92.8,98.1,92.7,97.8,92.4,97.8z M85.5,97.8c-0.8,0-1.1,1.1-1.1,2c0,0.6,0.2,0.9,0.6,0.9
		c0.8,0,1.1-1.1,1.1-2C86.1,98.1,85.9,97.8,85.5,97.8z M72.1,99.6c-0.4,0-0.7,0.3-0.7,0.8c0,0.3,0.2,0.5,0.6,0.5
		c0.3,0,0.6-0.1,0.9-0.3l0.1-0.8C72.7,99.8,72.5,99.6,72.1,99.6z M0,91.9V105h279.6V91.9H0z M47.1,102.2h-2.2l1.1-6h-2.2l0.3-1.9
		h6.6l-0.3,1.9h-2.2L47.1,102.2z M54.6,98.5c-0.2-0.2-0.5-0.5-1-0.5c-0.5,0-0.7,0.2-0.9,1l-0.6,3.3h-2l1.1-6h2l-0.1,0.4
		c0.3-0.2,0.7-0.5,1.2-0.5c0.5,0,0.8,0.2,1,0.3L54.6,98.5z M57.6,102.2h-2.1l1.1-6h2L57.6,102.2z M57.8,95.7c-0.7,0-1.1-0.4-1.1-0.9
		c0-0.6,0.5-1.1,1.2-1.1c0.7,0,1.1,0.4,1.1,0.9C59.1,95.3,58.5,95.7,57.8,95.7z M66.2,100.7c0.4,0,0.7-0.3,1.1-0.7l1.2,1.1
		c-0.5,0.7-1.3,1.3-2.4,1.3c-1.4,0-2.5-0.8-2.5-2.5c0-2,1.1-3.7,3.1-3.7c1.1,0,1.9,0.4,2.3,1.5l-1.6,1c-0.2-0.6-0.4-0.8-0.8-0.8
		c-0.7,0-1,1-1,2C65.5,100.3,65.7,100.7,66.2,100.7z M67.6,95.6H66l-1.2-1.8h1.3l0.8,0.7l1.1-0.7h1.4L67.6,95.6z M75.1,98.5
		l-0.7,3.7h-1.9l0.1-0.4c-0.3,0.3-0.8,0.6-1.4,0.6c-0.9,0-1.8-0.5-1.8-1.7c0-1.3,0.8-2.3,2.3-2.3c0.5,0,1.1,0.1,1.4,0.3l0.1-0.3
		c0.1-0.5-0.2-0.7-0.9-0.7c-0.6,0-1.1,0.1-1.5,0.3l-0.3-1.3c0.4-0.2,1.1-0.4,2.2-0.4C74.3,96.2,75.4,96.7,75.1,98.5z M79.1,98.4
		c1.6,0.6,2,1.1,2,1.9c0,1.3-0.8,2.1-2.5,2.1c-1.1,0-1.9-0.3-2.7-0.7l0.8-1.5c0.7,0.4,1.5,0.6,2,0.6c0.3,0,0.5-0.1,0.5-0.3
		c0-0.2-0.1-0.2-0.4-0.4c-1.7-0.6-2.1-1.1-2.1-2c0-1.2,0.8-2.1,2.5-2.1c1,0,1.9,0.2,2.5,0.6l-0.7,1.5c-0.7-0.4-1.4-0.6-1.9-0.6
		c-0.3,0-0.4,0.1-0.4,0.3C78.6,98.1,78.6,98.2,79.1,98.4z M85,102.4c-1.5,0-2.6-1-2.6-2.5c0-2.1,1.2-3.7,3.2-3.7
		c1.5,0,2.6,1,2.6,2.5C88.1,100.7,86.9,102.4,85,102.4z M92.4,102.4c-0.6,0-1.1-0.3-1.4-0.5l-0.3,1.8l-2.2,0.8l1.4-8.2h2l-0.1,0.4
		c0.3-0.2,0.7-0.5,1.3-0.5c1.1,0,1.7,0.7,1.7,2.1C94.9,100.7,93.9,102.4,92.4,102.4z M97.7,102.2h-2.1l1.1-6h2L97.7,102.2z
		 M97.9,95.7c-0.7,0-1.1-0.4-1.1-0.9c0-0.6,0.5-1.1,1.2-1.1c0.7,0,1.1,0.4,1.1,0.9C99.2,95.3,98.6,95.7,97.9,95.7z M102.4,98.4
		c1.6,0.6,2,1.1,2,1.9c0,1.3-0.8,2.1-2.5,2.1c-1,0-1.9-0.3-2.7-0.7l0.8-1.5c0.7,0.4,1.5,0.6,2,0.6c0.3,0,0.5-0.1,0.5-0.3
		c0-0.2-0.1-0.2-0.4-0.4c-1.7-0.6-2.1-1.1-2.1-2c0-1.2,0.8-2.1,2.5-2.1c1,0,1.9,0.2,2.5,0.6l-0.7,1.5c-0.7-0.4-1.4-0.6-1.9-0.6
		c-0.3,0-0.4,0.1-0.4,0.3C101.9,98.1,102,98.2,102.4,98.4z M108.1,104.3h-2l1.1-1.9l-1.2-6.2h2.2l0.2,2.1c0,0.5,0.1,1.6,0.1,2.1
		c0.2-0.6,0.6-1.6,0.8-2.2l0.9-2.1h2.1L108.1,104.3z M120.2,102.2h-2.1l-1-6h2.2l0.1,2.2c0,0.5,0.1,1.2,0.1,1.8
		c0.2-0.6,0.4-1.3,0.7-1.8l0.9-2.2h2.2L120.2,102.2z M129.4,101.9c-0.3,1.9-1.3,2.4-3.1,2.6l-0.4-1.4c1.1-0.1,1.4-0.4,1.5-1.2l1-5.5
		h2L129.4,101.9z M129.6,95.7c-0.7,0-1.1-0.4-1.1-0.9c0-0.6,0.5-1.1,1.2-1.1c0.7,0,1.2,0.4,1.2,0.9
		C130.8,95.3,130.3,95.7,129.6,95.7z M136.5,99.8h-3.4c0,0.7,0.4,1,1,1c0.5,0,0.9-0.1,1.4-0.3l0.6,1.3c-0.7,0.4-1.4,0.6-2.2,0.6
		c-1.7,0-2.6-1-2.6-2.6c0-2.1,1.2-3.6,3.1-3.6c1.6,0,2.4,1,2.4,2.4C136.7,99.1,136.6,99.6,136.5,99.8z M142.6,102.2h-2l0.1-0.4
		c-0.3,0.2-0.7,0.5-1.3,0.5c-1.1,0-1.7-0.7-1.7-2.1c0-2.5,1-4.2,2.5-4.2c0.6,0,1.1,0.3,1.4,0.5l0.3-1.9l2.2-0.8L142.6,102.2z
		 M150.2,98.8l-0.6,3.5h-2.1l0.6-3.4c0-0.1,0-0.3,0-0.4c0-0.4-0.2-0.6-0.6-0.6c-0.4,0-0.7,0.2-0.8,1l-0.6,3.4h-2l1-6h2.1l-0.1,0.4
		c0.3-0.2,0.8-0.5,1.4-0.5c1.1,0,1.7,0.5,1.7,1.7C150.3,98.1,150.3,98.5,150.2,98.8z M153.9,102.4c-1.5,0-2.6-1-2.6-2.5
		c0-2.1,1.2-3.7,3.2-3.7c1.5,0,2.6,1,2.6,2.5C157.1,100.7,155.8,102.4,153.9,102.4z M167.2,98.7l-0.6,3.5h-2l0.6-3.4
		c0-0.2,0-0.3,0-0.4c0-0.4-0.3-0.6-0.6-0.6c-0.4,0-0.6,0.2-0.8,1l-0.6,3.4h-2.1l0.6-3.4c0-0.1,0-0.3,0-0.4c0-0.4-0.2-0.6-0.6-0.6
		c-0.4,0-0.6,0.2-0.8,1l-0.6,3.4h-2l1.1-6h2l-0.1,0.4c0.3-0.2,0.9-0.5,1.5-0.5c0.7,0,1.2,0.3,1.5,0.7c0.4-0.3,1-0.7,1.8-0.7
		c1.2,0,1.7,0.6,1.7,1.7C167.3,98.1,167.2,98.4,167.2,98.7z M154.5,97.8c-0.8,0-1.1,1.1-1.1,2c0,0.6,0.2,0.9,0.6,0.9
		c0.8,0,1.1-1.1,1.1-2C155.1,98.1,154.9,97.8,154.5,97.8z M139.7,100c0,0.5,0.1,0.7,0.5,0.7c0.3,0,0.6-0.2,0.7-0.3l0.4-2.3
		c-0.2-0.2-0.4-0.3-0.7-0.3C140.1,97.8,139.7,98.7,139.7,100z M134.2,97.7c-0.5,0-0.7,0.3-0.9,0.9h1.7
		C134.9,98,134.8,97.7,134.2,97.7z M92.4,97.8c-0.3,0-0.6,0.2-0.7,0.3l-0.4,2.3c0.2,0.2,0.4,0.3,0.7,0.3c0.5,0,0.9-0.9,0.9-2.1
		C92.8,98.1,92.7,97.8,92.4,97.8z M85.5,97.8c-0.8,0-1.1,1.1-1.1,2c0,0.6,0.2,0.9,0.6,0.9c0.8,0,1.1-1.1,1.1-2
		C86.1,98.1,85.9,97.8,85.5,97.8z M71.4,100.4c0,0.3,0.2,0.5,0.6,0.5c0.3,0,0.6-0.1,0.9-0.3l0.1-0.8c-0.2-0.1-0.5-0.2-0.9-0.2
		C71.7,99.6,71.4,99.9,71.4,100.4z M72.1,99.6c-0.4,0-0.7,0.3-0.7,0.8c0,0.3,0.2,0.5,0.6,0.5c0.3,0,0.6-0.1,0.9-0.3l0.1-0.8
		C72.7,99.8,72.5,99.6,72.1,99.6z M85.5,97.8c-0.8,0-1.1,1.1-1.1,2c0,0.6,0.2,0.9,0.6,0.9c0.8,0,1.1-1.1,1.1-2
		C86.1,98.1,85.9,97.8,85.5,97.8z M92.4,97.8c-0.3,0-0.6,0.2-0.7,0.3l-0.4,2.3c0.2,0.2,0.4,0.3,0.7,0.3c0.5,0,0.9-0.9,0.9-2.1
		C92.8,98.1,92.7,97.8,92.4,97.8z M134.2,97.7c-0.5,0-0.7,0.3-0.9,0.9h1.7C134.9,98,134.8,97.7,134.2,97.7z M140.6,97.8
		c-0.5,0-0.9,0.9-0.9,2.1c0,0.5,0.1,0.7,0.5,0.7c0.3,0,0.6-0.2,0.7-0.3l0.4-2.3C141.1,98,140.9,97.8,140.6,97.8z M140.6,97.8
		c-0.5,0-0.9,0.9-0.9,2.1c0,0.5,0.1,0.7,0.5,0.7c0.3,0,0.6-0.2,0.7-0.3l0.4-2.3C141.1,98,140.9,97.8,140.6,97.8z M134.2,97.7
		c-0.5,0-0.7,0.3-0.9,0.9h1.7C134.9,98,134.8,97.7,134.2,97.7z M92.4,97.8c-0.3,0-0.6,0.2-0.7,0.3l-0.4,2.3c0.2,0.2,0.4,0.3,0.7,0.3
		c0.5,0,0.9-0.9,0.9-2.1C92.8,98.1,92.7,97.8,92.4,97.8z M85.5,97.8c-0.8,0-1.1,1.1-1.1,2c0,0.6,0.2,0.9,0.6,0.9
		c0.8,0,1.1-1.1,1.1-2C86.1,98.1,85.9,97.8,85.5,97.8z M72.1,99.6c-0.4,0-0.7,0.3-0.7,0.8c0,0.3,0.2,0.5,0.6,0.5
		c0.3,0,0.6-0.1,0.9-0.3l0.1-0.8C72.7,99.8,72.5,99.6,72.1,99.6z M72.1,99.6c-0.4,0-0.7,0.3-0.7,0.8c0,0.3,0.2,0.5,0.6,0.5
		c0.3,0,0.6-0.1,0.9-0.3l0.1-0.8C72.7,99.8,72.5,99.6,72.1,99.6z M85.5,97.8c-0.8,0-1.1,1.1-1.1,2c0,0.6,0.2,0.9,0.6,0.9
		c0.8,0,1.1-1.1,1.1-2C86.1,98.1,85.9,97.8,85.5,97.8z M92.4,97.8c-0.3,0-0.6,0.2-0.7,0.3l-0.4,2.3c0.2,0.2,0.4,0.3,0.7,0.3
		c0.5,0,0.9-0.9,0.9-2.1C92.8,98.1,92.7,97.8,92.4,97.8z M134.2,97.7c-0.5,0-0.7,0.3-0.9,0.9h1.7C134.9,98,134.8,97.7,134.2,97.7z
		 M134.2,97.7c-0.5,0-0.7,0.3-0.9,0.9h1.7C134.9,98,134.8,97.7,134.2,97.7z M92.4,97.8c-0.3,0-0.6,0.2-0.7,0.3l-0.4,2.3
		c0.2,0.2,0.4,0.3,0.7,0.3c0.5,0,0.9-0.9,0.9-2.1C92.8,98.1,92.7,97.8,92.4,97.8z M85.5,97.8c-0.8,0-1.1,1.1-1.1,2
		c0,0.6,0.2,0.9,0.6,0.9c0.8,0,1.1-1.1,1.1-2C86.1,98.1,85.9,97.8,85.5,97.8z M72.1,99.6c-0.4,0-0.7,0.3-0.7,0.8
		c0,0.3,0.2,0.5,0.6,0.5c0.3,0,0.6-0.1,0.9-0.3l0.1-0.8C72.7,99.8,72.5,99.6,72.1,99.6z M72.1,99.6c-0.4,0-0.7,0.3-0.7,0.8
		c0,0.3,0.2,0.5,0.6,0.5c0.3,0,0.6-0.1,0.9-0.3l0.1-0.8C72.7,99.8,72.5,99.6,72.1,99.6z M85.5,97.8c-0.8,0-1.1,1.1-1.1,2
		c0,0.6,0.2,0.9,0.6,0.9c0.8,0,1.1-1.1,1.1-2C86.1,98.1,85.9,97.8,85.5,97.8z M92.4,97.8c-0.3,0-0.6,0.2-0.7,0.3l-0.4,2.3
		c0.2,0.2,0.4,0.3,0.7,0.3c0.5,0,0.9-0.9,0.9-2.1C92.8,98.1,92.7,97.8,92.4,97.8z M92.4,97.8c-0.3,0-0.6,0.2-0.7,0.3l-0.4,2.3
		c0.2,0.2,0.4,0.3,0.7,0.3c0.5,0,0.9-0.9,0.9-2.1C92.8,98.1,92.7,97.8,92.4,97.8z M85.5,97.8c-0.8,0-1.1,1.1-1.1,2
		c0,0.6,0.2,0.9,0.6,0.9c0.8,0,1.1-1.1,1.1-2C86.1,98.1,85.9,97.8,85.5,97.8z M72.1,99.6c-0.4,0-0.7,0.3-0.7,0.8
		c0,0.3,0.2,0.5,0.6,0.5c0.3,0,0.6-0.1,0.9-0.3l0.1-0.8C72.7,99.8,72.5,99.6,72.1,99.6z M72.1,99.6c-0.4,0-0.7,0.3-0.7,0.8
		c0,0.3,0.2,0.5,0.6,0.5c0.3,0,0.6-0.1,0.9-0.3l0.1-0.8C72.7,99.8,72.5,99.6,72.1,99.6z M85.5,97.8c-0.8,0-1.1,1.1-1.1,2
		c0,0.6,0.2,0.9,0.6,0.9c0.8,0,1.1-1.1,1.1-2C86.1,98.1,85.9,97.8,85.5,97.8z M92.4,97.8c-0.3,0-0.6,0.2-0.7,0.3l-0.4,2.3
		c0.2,0.2,0.4,0.3,0.7,0.3c0.5,0,0.9-0.9,0.9-2.1C92.8,98.1,92.7,97.8,92.4,97.8z M92.4,97.8c-0.3,0-0.6,0.2-0.7,0.3l-0.4,2.3
		c0.2,0.2,0.4,0.3,0.7,0.3c0.5,0,0.9-0.9,0.9-2.1C92.8,98.1,92.7,97.8,92.4,97.8z M85.5,97.8c-0.8,0-1.1,1.1-1.1,2
		c0,0.6,0.2,0.9,0.6,0.9c0.8,0,1.1-1.1,1.1-2C86.1,98.1,85.9,97.8,85.5,97.8z M72.1,99.6c-0.4,0-0.7,0.3-0.7,0.8
		c0,0.3,0.2,0.5,0.6,0.5c0.3,0,0.6-0.1,0.9-0.3l0.1-0.8C72.7,99.8,72.5,99.6,72.1,99.6z M72.1,99.6c-0.4,0-0.7,0.3-0.7,0.8
		c0,0.3,0.2,0.5,0.6,0.5c0.3,0,0.6-0.1,0.9-0.3l0.1-0.8C72.7,99.8,72.5,99.6,72.1,99.6z M85.5,97.8c-0.8,0-1.1,1.1-1.1,2
		c0,0.6,0.2,0.9,0.6,0.9c0.8,0,1.1-1.1,1.1-2C86.1,98.1,85.9,97.8,85.5,97.8z M92.4,97.8c-0.3,0-0.6,0.2-0.7,0.3l-0.4,2.3
		c0.2,0.2,0.4,0.3,0.7,0.3c0.5,0,0.9-0.9,0.9-2.1C92.8,98.1,92.7,97.8,92.4,97.8z M92.4,97.8c-0.3,0-0.6,0.2-0.7,0.3l-0.4,2.3
		c0.2,0.2,0.4,0.3,0.7,0.3c0.5,0,0.9-0.9,0.9-2.1C92.8,98.1,92.7,97.8,92.4,97.8z M85.5,97.8c-0.8,0-1.1,1.1-1.1,2
		c0,0.6,0.2,0.9,0.6,0.9c0.8,0,1.1-1.1,1.1-2C86.1,98.1,85.9,97.8,85.5,97.8z M72.1,99.6c-0.4,0-0.7,0.3-0.7,0.8
		c0,0.3,0.2,0.5,0.6,0.5c0.3,0,0.6-0.1,0.9-0.3l0.1-0.8C72.7,99.8,72.5,99.6,72.1,99.6z M72.1,99.6c-0.4,0-0.7,0.3-0.7,0.8
		c0,0.3,0.2,0.5,0.6,0.5c0.3,0,0.6-0.1,0.9-0.3l0.1-0.8C72.7,99.8,72.5,99.6,72.1,99.6z M85.5,97.8c-0.8,0-1.1,1.1-1.1,2
		c0,0.6,0.2,0.9,0.6,0.9c0.8,0,1.1-1.1,1.1-2C86.1,98.1,85.9,97.8,85.5,97.8z M92.4,97.8c-0.3,0-0.6,0.2-0.7,0.3l-0.4,2.3
		c0.2,0.2,0.4,0.3,0.7,0.3c0.5,0,0.9-0.9,0.9-2.1C92.8,98.1,92.7,97.8,92.4,97.8z M92.4,97.8c-0.3,0-0.6,0.2-0.7,0.3l-0.4,2.3
		c0.2,0.2,0.4,0.3,0.7,0.3c0.5,0,0.9-0.9,0.9-2.1C92.8,98.1,92.7,97.8,92.4,97.8z M85.5,97.8c-0.8,0-1.1,1.1-1.1,2
		c0,0.6,0.2,0.9,0.6,0.9c0.8,0,1.1-1.1,1.1-2C86.1,98.1,85.9,97.8,85.5,97.8z M72.1,99.6c-0.4,0-0.7,0.3-0.7,0.8
		c0,0.3,0.2,0.5,0.6,0.5c0.3,0,0.6-0.1,0.9-0.3l0.1-0.8C72.7,99.8,72.5,99.6,72.1,99.6z M72.1,99.6c-0.4,0-0.7,0.3-0.7,0.8
		c0,0.3,0.2,0.5,0.6,0.5c0.3,0,0.6-0.1,0.9-0.3l0.1-0.8C72.7,99.8,72.5,99.6,72.1,99.6z M72.1,99.6c-0.4,0-0.7,0.3-0.7,0.8
		c0,0.3,0.2,0.5,0.6,0.5c0.3,0,0.6-0.1,0.9-0.3l0.1-0.8C72.7,99.8,72.5,99.6,72.1,99.6z"/>
	<polygon class="st0" points="15.9,31 4.6,31 4.6,12 47.9,12 47.9,31 36.6,31 36.6,82 15.9,82 	"/>
	<polygon class="st0" points="51.5,12 91.9,12 91.9,29.5 71.6,29.5 71.6,37.4 86.7,37.4 86.7,54.6 71.6,54.6 71.6,64.5 91.9,64.5 
		91.9,82 51.5,82 	"/>
	<polygon class="st0" points="96,12 116.6,12 116.6,63 133.1,63 133.1,82 96,82 	"/>
	<polygon class="st0" points="136.8,12 177.2,12 177.2,29.5 156.9,29.5 156.9,37.4 172,37.4 172,54.6 156.9,54.6 156.9,64.5 
		177.3,64.5 177.3,82 136.8,82 	"/>
	<path class="st0" d="M189.1,12h11.8v1.7c1.6-1.5,3-2.4,5.5-2.4c4.7,0,8.5,4,8.5,15.7c0,11.9-3.8,15.9-8.8,15.9
		c-2.4,0-3.8-0.9-5.3-2.3v9l-11.8,3.9V12z M203.6,27.1c0-6-0.7-6.8-1.9-6.8c-0.4,0-0.6,0.1-0.9,0.2v13.1c0.3,0.2,0.5,0.2,0.9,0.2
		C202.9,33.9,203.6,33.1,203.6,27.1"/>
	<polygon class="st0" points="216.9,3.9 228.7,0 228.7,42.3 216.9,42.3 	"/>
	<path class="st0" d="M231.1,33.9V12h11.8v19.2c0,1.3,0.4,1.9,1.3,1.9c0.9,0,1.4-0.5,1.4-1.6V12h11.8v30.3h-11.8v-1.8
		c-1.4,1-3.3,2.4-6.9,2.4C234.3,42.9,231.1,40.4,231.1,33.9"/>
	<path class="st0" d="M258.9,39.2l3.7-7.7c2.5,1.5,5.9,3,8.3,3c0.8,0,1.1-0.3,1.1-0.8c0-0.5-0.4-1-2.4-1.7
		c-7.7-2.9-9.8-5.3-9.8-10.8c0-5.8,4.2-9.9,11.3-9.9c4.4,0,7.6,1.1,10.7,3l-4,7.8c-2.6-1.5-4.9-2.5-6.9-2.5c-0.6,0-1,0.3-1,0.8
		c0,0.6,0.4,0.9,2.3,1.6c7,2.5,9.9,4.7,9.9,10.8c0,6.5-4.3,10.1-11.4,10.1C266.1,42.9,262.8,41.7,258.9,39.2"/>
	<path class="st0" d="M294.7,17.6c-1.3,1.3-3,1.9-4.8,1.9c-1.9,0-3.6-0.7-4.9-2c-1.3-1.3-2-3-2-4.9c0-2,0.7-3.7,2.2-5
		c1.3-1.2,2.9-1.9,4.7-1.9c1.9,0,3.5,0.7,4.9,2c1.3,1.3,2,3,2,4.9C296.8,14.6,296.1,16.3,294.7,17.6 M285.9,8.7
		c-1.1,1.1-1.6,2.5-1.6,4c0,1.6,0.6,3,1.7,4.1c1.1,1.1,2.5,1.7,4,1.7c1.6,0,2.9-0.6,4-1.7c1.1-1.1,1.7-2.5,1.7-4.1
		c0-1.5-0.6-2.9-1.7-4c-1.1-1.1-2.5-1.7-4-1.7C288.3,7,287,7.5,285.9,8.7 M286.9,16.5V8.9c0.5,0,1.2,0,2.1,0c0.9,0,1.5,0,1.6,0
		c0.6,0,1.1,0.2,1.5,0.4c0.7,0.4,1,1,1,1.8c0,0.6-0.2,1.1-0.5,1.4c-0.4,0.3-0.8,0.5-1.3,0.5c0.5,0.1,0.8,0.2,1.1,0.4
		c0.4,0.4,0.7,0.9,0.7,1.7v0.7c0,0.1,0,0.1,0,0.2c0,0.1,0,0.2,0.1,0.2l0.1,0.2h-1.9c-0.1-0.2-0.1-0.6-0.1-1.1c0-0.5-0.1-0.8-0.1-0.9
		c-0.1-0.3-0.3-0.5-0.6-0.6c-0.1-0.1-0.4-0.1-0.7-0.1l-0.4,0h-0.4v2.7H286.9z M290.5,10.4c-0.3-0.1-0.7-0.2-1.2-0.2h-0.5v2.2h0.8
		c0.5,0,0.8-0.1,1.1-0.3c0.3-0.2,0.4-0.5,0.4-0.9S290.9,10.6,290.5,10.4"/>
	<path class="st0" d="M211.5,53.4l0-0.2c-0.3,0-0.5,0.1-0.6,0.1h0c-0.2,0.1-0.3,0.1-0.5,0.2l0,0l0,0c-0.1,0.1-0.3,0.3-0.4,0.4l0,0
		l0,0c-0.2,0.2-0.4,0.5-0.6,0.9l0,0c-0.2,0.3-0.4,0.7-0.7,1.1c-0.1,0.2-0.3,0.4-0.3,0.5l-0.1,0.1l0,0l0,0l0.1,0.1v-0.1
		c-0.1,0-0.1,0-0.1,0l0.1,0.1v-0.1v0.1l0.1-0.1l-0.1,0v0.1l0.1-0.1l0,0l0,0l0,0l0,0l0,0c0,0-0.1-0.1-0.1-0.2c0-0.1-0.1-0.2-0.1-0.2
		l0,0c0-0.1-0.1-0.2-0.1-0.2l0,0l-0.1-0.1l0,0h0c-0.2,0-0.4,0.1-0.5,0.2c-0.2,0.1-0.3,0.3-0.3,0.5c0,0.1,0,0.2,0.1,0.5l0,0v0
		c0.1,0.2,0.1,0.4,0.2,0.5c0,0.1,0.1,0.2,0.2,0.3l0,0l0,0c0.1,0.1,0.2,0.2,0.3,0.2c0.1,0,0.2,0.1,0.3,0.1c0.3,0,0.6-0.2,0.7-0.5l0,0
		c0-0.1,0.1-0.2,0.1-0.2c0.4-0.7,0.8-1.3,1.3-2c0.5-0.6,1-1.3,1.5-1.9l0.1-0.1l-0.1-0.2l-0.1-0.1l-0.1,0L211.5,53.4l-0.2,0.1l0,0.1
		l0.2-0.1L211.5,53.4c-0.6,0.6-1.1,1.2-1.6,1.9c-0.5,0.6-0.9,1.3-1.3,2c0,0.1-0.1,0.1-0.1,0.2l0.2,0.1l-0.2-0.1
		c-0.1,0.2-0.2,0.3-0.4,0.3c-0.1,0-0.1,0-0.2,0l-0.1-0.1l-0.2,0.1l0.2-0.1c0,0-0.1-0.1-0.1-0.2c0-0.1-0.1-0.2-0.1-0.5v0l0,0l0,0l0,0
		c-0.1-0.2-0.1-0.4-0.1-0.4c0,0,0-0.1,0.1-0.2c0.1-0.1,0.2-0.1,0.3-0.1V56l-0.1,0.2l0.1,0l0.1-0.2l-0.1,0.1l0,0l0,0l0,0l0,0l0,0
		c0,0,0,0,0.1,0.1l0.2-0.1l-0.2,0.1c0,0,0,0.1,0.1,0.2c0,0.1,0.1,0.2,0.1,0.3l0.1,0.1c0,0,0.1,0.1,0.2,0.1c0.1,0,0.1,0,0.1-0.1
		c0.1-0.1,0.1-0.1,0.2-0.2c0.1-0.1,0.2-0.3,0.3-0.5c0.3-0.4,0.5-0.8,0.7-1.1c0.3-0.4,0.5-0.7,0.6-0.9c0.1-0.2,0.3-0.3,0.4-0.4l0,0
		c0.1-0.1,0.2-0.1,0.3-0.2h0c0.1,0,0.3-0.1,0.6-0.1L211.5,53.4l-0.2,0.1L211.5,53.4z"/>
	<path class="st0" d="M211.5,53.5c-0.5,0.6-1,1.2-1.5,1.9c-0.5,0.6-0.9,1.3-1.3,2c0,0.1-0.1,0.1-0.1,0.2c-0.1,0.3-0.3,0.4-0.6,0.4
		c-0.1,0-0.2,0-0.3,0c-0.1,0-0.1-0.1-0.2-0.2c0-0.1-0.1-0.2-0.1-0.3c0-0.1-0.1-0.3-0.1-0.5l0,0c-0.1-0.2-0.1-0.4-0.1-0.4
		c0-0.1,0.1-0.2,0.2-0.3c0.1-0.1,0.3-0.1,0.4-0.1l0.1,0c0,0,0.1,0.1,0.1,0.2c0,0.1,0,0.1,0.1,0.2c0.1,0.2,0.1,0.3,0.2,0.3
		c0,0,0.2-0.2,0.5-0.7c0.3-0.4,0.5-0.8,0.7-1.1c0.3-0.4,0.5-0.7,0.6-0.9c0.1-0.2,0.3-0.3,0.4-0.4c0.1-0.1,0.2-0.1,0.4-0.2
		c0.2,0,0.4-0.1,0.6-0.1L211.5,53.5z"/>
	<path class="st0" d="M209.6,59.9v0.4c2.5,0,4.5-2,4.5-4.5c0-2.5-2-4.5-4.5-4.5c-2.5,0-4.5,2-4.5,4.5c0,2.5,2,4.5,4.5,4.5V59.9v-0.4
		c-1,0-2-0.4-2.7-1.1c-0.7-0.7-1.1-1.6-1.1-2.7s0.4-2,1.1-2.7c0.7-0.7,1.6-1.1,2.7-1.1c1,0,2,0.4,2.7,1.1c0.7,0.7,1.1,1.6,1.1,2.7
		s-0.4,2-1.1,2.7c-0.7,0.7-1.6,1.1-2.7,1.1V59.9z"/>
	<polygon class="st0" points="220.4,59 220.8,56.9 219.8,56.9 219.4,59 217,59 218.1,52.8 220.5,52.8 220.1,54.9 221.1,54.9 
		221.4,52.8 223.9,52.8 222.8,59 	"/>
	<path class="st0" d="M224,56.5c0-2,1.1-3.8,3.3-3.8c1.6,0,2.9,0.8,2.9,2.6c0,2.1-1.2,3.8-3.3,3.8C225.3,59.1,224,58.3,224,56.5
		 M227.3,54.6c-0.6,0-0.9,1.2-0.9,2c0,0.5,0.2,0.8,0.5,0.8c0.6,0,0.9-1.2,0.9-2C227.8,54.8,227.7,54.6,227.3,54.6"/>
	<path class="st0" d="M233.5,59l-0.5-1.9h0l-0.3,1.9h-2.3l1.1-6.2h3c1.2,0,2.2,0.5,2.2,1.8c0,1.2-0.6,1.8-1.3,2.1l0.8,2.3H233.5z
		 M233.7,54.5h-0.2l-0.2,1.1h0.3c0.4,0,0.6-0.2,0.6-0.6C234.2,54.7,234.1,54.5,233.7,54.5"/>
	<path class="st0" d="M236.9,56.5c0-2,1.1-3.8,3.3-3.8c1.6,0,2.9,0.8,2.9,2.6c0,2.1-1.2,3.8-3.3,3.8
		C238.2,59.1,236.9,58.3,236.9,56.5 M240.2,54.6c-0.6,0-0.9,1.2-0.9,2c0,0.5,0.2,0.8,0.5,0.8c0.6,0,0.9-1.2,0.9-2
		C240.8,54.8,240.6,54.6,240.2,54.6"/>
	<path class="st0" d="M243.1,58.3l0.9-1.7c0.9,0.5,1.8,0.7,2.2,0.7c0.2,0,0.3-0.1,0.3-0.2c0-0.1,0-0.1-0.6-0.3c-1.4-0.5-2-1.1-2-1.9
		c0-1.4,1-2.2,2.7-2.2c1.1,0,2.1,0.4,2.8,0.8l-1,1.7c-0.6-0.4-1.3-0.7-1.9-0.7c-0.2,0-0.3,0.1-0.3,0.2c0,0.1,0.1,0.2,0.6,0.3
		c1.3,0.5,2,1,2,1.9c0,1.4-0.9,2.2-2.7,2.2C245.1,59.1,244,58.8,243.1,58.3"/>
	<path class="st0" d="M252,57.3l-0.3,1.7h-2.4l1-6.2h2.4l-0.1,0.8c0,0.2-0.1,0.7-0.2,0.9c0.2-0.3,0.5-0.8,0.9-1.3l0.3-0.3h2.9
		l-2.3,2.5l1.3,3.7h-2.8l-0.5-1.9L252,57.3z"/>
	<path class="st0" d="M255.8,56.5c0-2,1.1-3.8,3.3-3.8c1.6,0,2.9,0.8,2.9,2.6c0,2.1-1.2,3.8-3.3,3.8C257,59.1,255.8,58.3,255.8,56.5
		 M259,54.6c-0.6,0-0.9,1.2-0.9,2c0,0.5,0.2,0.8,0.5,0.8c0.6,0,0.9-1.2,0.9-2C259.6,54.8,259.4,54.6,259,54.6"/>
	<path class="st0" d="M264.7,57.4l-0.3,1.6h-2.4l1.1-6.2h2.6c1.5,0,2.4,0.7,2.4,1.9c0,2-1.4,2.6-2.9,2.6H264.7z M265.4,54.6h-0.2
		l-0.2,1.1h0.3c0.3,0,0.6-0.2,0.6-0.7C265.9,54.7,265.7,54.6,265.4,54.6"/>
	<path class="st0" d="M272.1,56.9l-0.4,2.1h-2.4l0.4-2.1l-1.3-4.1h2.6l0.2,0.8c0.1,0.3,0.2,1,0.1,1.4c0.1-0.4,0.3-0.8,0.6-1.4
		l0.4-0.8h2.6L272.1,56.9z"/>
	<path class="st0" d="M217,62.2l0-0.2c-0.3,0-0.5,0.1-0.6,0.1h0c-0.2,0.1-0.3,0.1-0.5,0.2l0,0c-0.1,0.1-0.3,0.3-0.4,0.4
		c-0.2,0.2-0.4,0.5-0.6,0.9c-0.2,0.3-0.4,0.7-0.7,1.1c-0.1,0.2-0.3,0.4-0.3,0.5l-0.1,0.1l0,0l0,0l0.1,0.1v-0.1c-0.1,0-0.1,0-0.1,0
		l0.1,0.1v-0.1v0.1l0.1-0.1l-0.1,0v0.1l0.1-0.1l0,0l0,0l0,0l0,0l0,0c0,0-0.1-0.1-0.1-0.2c0-0.1-0.1-0.2-0.1-0.2v0l0,0
		c0-0.1-0.1-0.2-0.1-0.2l0,0l-0.1-0.1l0,0h0c-0.2,0-0.4,0.1-0.5,0.2l0,0c-0.2,0.1-0.3,0.3-0.3,0.5c0,0.1,0,0.2,0.1,0.5l0,0l0,0v0
		c0.1,0.2,0.1,0.4,0.2,0.5v0c0,0.1,0.1,0.2,0.2,0.3l0,0l0,0c0.1,0.1,0.2,0.2,0.3,0.2l0,0c0.1,0,0.2,0.1,0.3,0.1
		c0.3,0,0.6-0.2,0.7-0.5l0,0c0-0.1,0.1-0.1,0.1-0.2c0.4-0.7,0.8-1.3,1.3-2c0.5-0.6,1-1.3,1.5-1.9l0.1-0.1l-0.1-0.2l-0.1-0.1l-0.1,0
		L217,62.2l-0.2,0.1l0,0.1l0.2-0.1L217,62.2c-0.6,0.6-1.1,1.2-1.6,1.9c-0.5,0.6-0.9,1.3-1.3,2c0,0.1-0.1,0.1-0.1,0.2l0.2,0.1
		l-0.2-0.1c-0.1,0.2-0.2,0.3-0.4,0.3c-0.1,0-0.1,0-0.2,0h0l-0.1-0.1l-0.2,0.1l0.2-0.1c0,0-0.1-0.1-0.1-0.2v0c0-0.1-0.1-0.2-0.1-0.5
		l0,0l0,0c-0.1-0.2-0.1-0.4-0.1-0.4c0,0,0-0.1,0.1-0.2l0,0c0.1-0.1,0.2-0.1,0.3-0.1v-0.2l-0.1,0.2l0.1,0l0.1-0.2l-0.1,0.1l0,0l0,0
		l0,0l0,0l0,0c0,0,0,0,0.1,0.1l0.2-0.1l-0.2,0.1c0,0,0,0.1,0.1,0.2c0,0.1,0.1,0.2,0.1,0.3l0.1,0.1c0,0,0.1,0.1,0.2,0.1
		c0.1,0,0.1,0,0.1-0.1c0.1-0.1,0.1-0.1,0.2-0.2c0.1-0.1,0.2-0.3,0.3-0.5c0.3-0.4,0.5-0.8,0.7-1.1c0.3-0.4,0.5-0.7,0.6-0.9
		c0.1-0.2,0.3-0.3,0.4-0.4h0c0.1-0.1,0.2-0.1,0.3-0.2h0c0.1,0,0.3-0.1,0.6-0.1L217,62.2l-0.2,0.1L217,62.2z"/>
	<path class="st0" d="M217.1,62.3c-0.5,0.6-1,1.2-1.5,1.9c-0.5,0.6-0.9,1.3-1.3,2c0,0-0.1,0.1-0.1,0.2c-0.1,0.3-0.3,0.4-0.6,0.4
		c-0.1,0-0.2,0-0.3,0c-0.1,0-0.1-0.1-0.2-0.2c0-0.1-0.1-0.2-0.1-0.3c0-0.1-0.1-0.3-0.1-0.5l0,0c-0.1-0.2-0.1-0.4-0.1-0.4
		c0-0.1,0.1-0.2,0.2-0.3c0.1-0.1,0.3-0.1,0.4-0.1l0.1,0c0,0,0.1,0.1,0.1,0.2c0,0.1,0,0.1,0.1,0.2c0.1,0.2,0.1,0.3,0.2,0.3
		c0,0,0.2-0.2,0.5-0.7c0.3-0.4,0.5-0.8,0.7-1.1c0.3-0.4,0.5-0.7,0.6-0.9c0.1-0.2,0.3-0.3,0.4-0.4c0.1-0.1,0.2-0.1,0.4-0.2
		c0.2,0,0.4-0.1,0.6-0.1L217.1,62.3z"/>
	<path class="st0" d="M215.1,68.8v0.4c2.5,0,4.5-2,4.5-4.5c0-2.5-2-4.5-4.5-4.5s-4.5,2-4.5,4.5c0,2.5,2,4.5,4.5,4.5V68.8v-0.4
		c-1,0-2-0.4-2.7-1.1c-0.7-0.7-1.1-1.6-1.1-2.7s0.4-2,1.1-2.7c0.7-0.7,1.6-1.1,2.7-1.1s2,0.4,2.7,1.1c0.7,0.7,1.1,1.6,1.1,2.7
		s-0.4,2-1.1,2.7c-0.7,0.7-1.6,1.1-2.7,1.1V68.8z"/>
	<path class="st0" d="M225.3,66.2l-0.3,1.7h-2.4l1-6.2h2.4l-0.1,0.8c0,0.2-0.1,0.7-0.2,0.9c0.2-0.3,0.5-0.8,0.9-1.3l0.3-0.3h2.9
		l-2.3,2.5l1.3,3.7H226l-0.5-1.9L225.3,66.2z"/>
	<path class="st0" d="M233.4,67.9h-2.4l-0.8-6.2h2.4l0.1,1.4c0,0.3,0,1.6,0,2.4c0.2-0.6,0.4-1.4,0.8-2.3l0.6-1.5h2.4L233.4,67.9z"/>
	<path class="st0" d="M235.8,67.9l1.1-6.2h2.4l-1.1,6.2H235.8z M238.4,61.4h-1.5l1-1.7h2.4L238.4,61.4z"/>
	<path class="st0" d="M238.9,67.9l0.3-1.7l2.2-1.9c0.4-0.3,0.7-0.6,1-0.8c-0.2,0-0.5,0.1-0.8,0.1h-1.6l0.3-1.8h5.5l-0.3,1.7
		l-2.2,1.9c-0.4,0.3-0.7,0.6-0.9,0.8c0.2,0,0.5-0.1,0.8-0.1h1.8l-0.3,1.8H238.9z"/>
	<path class="st0" d="M249.8,65.8l-0.4,2.1H247l0.4-2.1l-1.3-4.1h2.6l0.2,0.8c0.1,0.3,0.2,1,0.1,1.4c0.1-0.4,0.3-0.8,0.6-1.4
		l0.4-0.8h2.6L249.8,65.8z"/>
	<path class="st0" d="M195.6,72.3l0-0.2c-0.3,0-0.5,0.1-0.6,0.1l0,0l0,0c-0.2,0.1-0.3,0.1-0.5,0.2l0,0c-0.1,0.1-0.3,0.3-0.4,0.4
		c-0.2,0.2-0.4,0.5-0.6,0.9c-0.2,0.3-0.4,0.7-0.7,1.1c-0.1,0.2-0.3,0.4-0.3,0.5l-0.1,0.1l0,0l0,0l0.1,0.1v-0.1c-0.1,0-0.1,0-0.1,0
		l0.1,0.1v-0.1v0.1l0.1-0.1l-0.1,0v0.1l0.1-0.1l0,0l0,0l0,0l0,0l0,0c0,0,0-0.1-0.1-0.2l0,0c0-0.1-0.1-0.2-0.1-0.2l0,0v0
		c0-0.1-0.1-0.2-0.1-0.2l0,0l-0.1-0.1l0,0h0c-0.2,0-0.4,0.1-0.5,0.2l0,0c-0.2,0.1-0.3,0.3-0.3,0.5c0,0.1,0,0.2,0.1,0.5l0,0
		c0.1,0.2,0.1,0.4,0.2,0.5l0.2-0.1l-0.2,0.1c0,0.1,0.1,0.2,0.2,0.3l0,0l0,0c0.1,0.1,0.2,0.2,0.3,0.2l0,0c0.1,0,0.2,0.1,0.3,0.1
		c0.3,0,0.6-0.2,0.7-0.5l0,0c0-0.1,0.1-0.2,0.1-0.2c0.4-0.7,0.8-1.3,1.3-2s1-1.3,1.5-1.9l0.1-0.1l-0.1-0.2l-0.1-0.1l-0.1,0
		L195.6,72.3l-0.2,0.1l0,0.1l0.2-0.1L195.6,72.3c-0.6,0.6-1.1,1.2-1.6,1.9c-0.5,0.6-0.9,1.3-1.3,2c0,0.1-0.1,0.1-0.1,0.2l0.2,0.1
		l-0.2-0.1c-0.1,0.2-0.2,0.3-0.4,0.3c-0.1,0-0.1,0-0.2,0h0l-0.1-0.1l-0.2,0.1l0.2-0.1c0-0.1-0.1-0.1-0.1-0.2l0,0
		c0-0.1-0.1-0.2-0.1-0.5l0,0l0,0c-0.1-0.2-0.1-0.4-0.1-0.4c0,0,0-0.1,0.1-0.2l0,0l0,0c0.1-0.1,0.2-0.1,0.3-0.1V75l-0.1,0.2l0.1,0
		L192,75l-0.1,0.1l0,0l0,0l0,0l0,0l0,0c0,0,0,0,0.1,0.1l0.2-0.1l-0.2,0.1c0,0,0,0.1,0.1,0.2v0c0,0.1,0.1,0.2,0.1,0.3l0.1,0.1
		c0,0,0.1,0.1,0.2,0.1c0.1,0,0.1,0,0.1-0.1c0.1-0.1,0.1-0.1,0.2-0.2c0.1-0.1,0.2-0.3,0.3-0.5l0,0l0,0c0.3-0.4,0.5-0.8,0.7-1.1
		c0.3-0.4,0.5-0.7,0.6-0.9s0.3-0.3,0.4-0.4l0,0c0.1-0.1,0.2-0.1,0.3-0.2h0c0.1,0,0.3-0.1,0.6-0.1L195.6,72.3l-0.2,0.1L195.6,72.3z"
		/>
	<path class="st0" d="M195.6,72.4c-0.5,0.6-1,1.2-1.5,1.9c-0.5,0.6-0.9,1.3-1.3,2c0,0-0.1,0.1-0.1,0.2c-0.1,0.3-0.3,0.4-0.6,0.4
		c-0.1,0-0.2,0-0.3,0c-0.1,0-0.1-0.1-0.2-0.2c0-0.1-0.1-0.2-0.1-0.3c0-0.1-0.1-0.3-0.1-0.5l0,0c-0.1-0.2-0.1-0.4-0.1-0.4
		c0-0.1,0.1-0.2,0.2-0.3c0.1-0.1,0.3-0.1,0.4-0.1l0.1,0c0,0,0.1,0.1,0.1,0.2c0,0.1,0,0.1,0.1,0.2c0.1,0.2,0.1,0.3,0.2,0.3
		c0,0,0.2-0.2,0.5-0.7c0.3-0.4,0.5-0.8,0.7-1.1c0.3-0.4,0.5-0.7,0.6-0.9c0.1-0.2,0.3-0.3,0.4-0.4c0.1-0.1,0.2-0.1,0.4-0.2
		c0.2,0,0.4-0.1,0.6-0.1L195.6,72.4z"/>
	<path class="st0" d="M193.7,78.9v0.4c2.5,0,4.5-2,4.5-4.5c0-2.5-2-4.5-4.5-4.5c-2.5,0-4.5,2-4.5,4.5c0,2.5,2,4.5,4.5,4.5V78.9v-0.4
		c-1,0-2-0.4-2.7-1.1c-0.7-0.7-1.1-1.6-1.1-2.7s0.4-2,1.1-2.7c0.7-0.7,1.6-1.1,2.7-1.1c1,0,2,0.4,2.7,1.1c0.7,0.7,1.1,1.6,1.1,2.7
		s-0.4,2-1.1,2.7c-0.7,0.7-1.6,1.1-2.7,1.1V78.9z"/>
	<path class="st0" d="M203.8,76.3l-0.3,1.7h-2.4l1-6.2h2.4l-0.1,0.8c0,0.2-0.1,0.7-0.2,0.9c0.2-0.3,0.5-0.8,0.9-1.3l0.3-0.3h2.9
		l-2.3,2.5l1.3,3.7h-2.8l-0.5-1.9L203.8,76.3z"/>
	<path class="st0" d="M211,78l-0.5-1.9h0l-0.3,1.9h-2.3l1.1-6.2h3c1.2,0,2.2,0.5,2.2,1.8c0,1.2-0.6,1.8-1.3,2.1l0.8,2.3H211z
		 M211.1,73.4h-0.2l-0.2,1.1h0.3c0.4,0,0.6-0.2,0.6-0.6C211.7,73.6,211.5,73.4,211.1,73.4"/>
	<path class="st0" d="M214.1,78l1.1-6.2h2.4l-1.1,6.2H214.1z M216.7,71.5h-1.5l1-1.7h2.4L216.7,71.5z"/>
	<path class="st0" d="M217.2,78l0.3-1.7l2.2-1.9c0.4-0.3,0.7-0.6,1-0.8c-0.2,0-0.5,0.1-0.8,0.1h-1.6l0.3-1.8h5.5l-0.3,1.7l-2.2,1.9
		c-0.4,0.3-0.7,0.6-0.9,0.8c0.2,0,0.5-0.1,0.8-0.1h1.8l-0.3,1.8H217.2z M221,69.8l0.4,0.5l0.6-0.5h1.5l-1.6,1.7h-1.4l-1-1.7H221z"/>
	<path class="st0" d="M223.9,75.5c0-2,1.1-3.8,3.3-3.8c1.6,0,2.9,0.8,2.9,2.6c0,2.1-1.2,3.8-3.3,3.8
		C225.2,78.1,223.9,77.3,223.9,75.5 M227.2,73.5c-0.6,0-0.9,1.2-0.9,2c0,0.5,0.2,0.8,0.5,0.8c0.6,0,0.9-1.2,0.9-2
		C227.7,73.8,227.6,73.5,227.2,73.5"/>
	<path class="st0" d="M233.7,78h-2.4l-0.8-6.2h2.4l0.1,1.4c0,0.3,0,1.6,0,2.4c0.2-0.6,0.4-1.4,0.8-2.3l0.6-1.5h2.4L233.7,78z"/>
	<path class="st0" d="M238.9,76.3l-0.3,1.7h-2.4l1-6.2h2.4l-0.1,0.8c0,0.2-0.1,0.7-0.2,0.9c0.2-0.3,0.5-0.8,0.9-1.3l0.3-0.3h2.9
		l-2.3,2.5l1.3,3.7h-2.8l-0.5-1.9L238.9,76.3z"/>
	<path class="st0" d="M247.1,75.9l-0.4,2.1h-2.4l0.4-2.1l-1.3-4.1h2.6l0.2,0.8c0.1,0.3,0.2,1,0.1,1.4c0.1-0.4,0.3-0.8,0.6-1.4
		l0.4-0.8h2.6L247.1,75.9z"/>
	<path class="st0" d="M197.6,81.8l0-0.2c-0.3,0-0.5,0.1-0.6,0.1h0c-0.2,0.1-0.3,0.1-0.5,0.2l0,0c-0.1,0.1-0.3,0.3-0.4,0.4
		c-0.2,0.2-0.4,0.5-0.6,0.9c-0.2,0.3-0.4,0.7-0.7,1.1l0,0c-0.1,0.2-0.3,0.4-0.3,0.5l-0.1,0.1l0,0l0,0l0.1,0.1V85c-0.1,0-0.1,0-0.1,0
		l0.1,0.1V85v0.1l0.1-0.1l-0.1,0v0.1l0.1-0.1l0,0l0,0l0,0l0,0l0,0c0,0-0.1-0.1-0.1-0.2c0-0.1-0.1-0.2-0.1-0.2l0,0
		c0-0.1-0.1-0.2-0.1-0.2l0,0l-0.1-0.1l0,0h0c-0.2,0-0.4,0.1-0.5,0.2h0c-0.2,0.1-0.3,0.3-0.3,0.5c0,0.1,0,0.2,0.1,0.5l0,0l0,0
		c0.1,0.2,0.1,0.4,0.2,0.5c0,0.1,0.1,0.2,0.2,0.3l0,0c0.1,0.1,0.2,0.2,0.3,0.2c0.1,0,0.2,0.1,0.3,0.1c0.3,0,0.6-0.2,0.7-0.5l0,0
		c0-0.1,0.1-0.1,0.1-0.2c0.4-0.7,0.8-1.3,1.3-2c0.5-0.6,1-1.3,1.5-1.9l0.1-0.1l-0.1-0.2l-0.1-0.1l-0.1,0L197.6,81.8l-0.2,0.1l0,0.1
		l0.2-0.1L197.6,81.8c-0.6,0.6-1.1,1.2-1.6,1.9c-0.5,0.6-0.9,1.3-1.3,2c0,0.1-0.1,0.1-0.1,0.2l0.2,0.1l-0.2-0.1
		c-0.1,0.2-0.2,0.3-0.4,0.3c-0.1,0-0.1,0-0.2,0l-0.1-0.1l-0.2,0.1l0.2-0.1c0,0-0.1-0.1-0.1-0.2l0,0l0,0c0-0.1-0.1-0.2-0.1-0.5l0,0v0
		c-0.1-0.2-0.1-0.4-0.1-0.4c0,0,0-0.1,0.1-0.2v0c0.1-0.1,0.2-0.1,0.3-0.1v-0.2l-0.1,0.2l0.1,0l0.1-0.2l-0.1,0.1l0,0l0,0l0,0l0,0l0,0
		l0,0l0,0.1l0.2-0.1l-0.2,0.1c0,0,0,0.1,0.1,0.2c0,0.1,0.1,0.2,0.1,0.3l0.1,0.1c0,0,0.1,0.1,0.2,0.1c0.1,0,0.1,0,0.1,0
		c0.1-0.1,0.1-0.1,0.2-0.2c0.1-0.1,0.2-0.3,0.3-0.5l0,0l0,0c0.3-0.4,0.5-0.8,0.7-1.1c0.3-0.4,0.5-0.7,0.6-0.9
		c0.1-0.2,0.3-0.3,0.4-0.4h0c0.1-0.1,0.2-0.1,0.3-0.2h0c0.1,0,0.3-0.1,0.6-0.1L197.6,81.8l-0.2,0.1L197.6,81.8z"/>
	<path class="st0" d="M197.6,81.9c-0.5,0.6-1,1.2-1.5,1.9c-0.5,0.6-0.9,1.3-1.3,2c0,0-0.1,0.1-0.1,0.2c-0.1,0.3-0.3,0.4-0.6,0.4
		c-0.1,0-0.2,0-0.3,0c-0.1,0-0.1-0.1-0.2-0.2c0-0.1-0.1-0.2-0.1-0.3c0-0.1-0.1-0.3-0.1-0.5l0,0c-0.1-0.2-0.1-0.4-0.1-0.4
		c0-0.1,0.1-0.2,0.2-0.3c0.1-0.1,0.3-0.1,0.4-0.1l0.1,0c0,0,0.1,0.1,0.1,0.2c0,0.1,0,0.1,0.1,0.2c0.1,0.2,0.1,0.3,0.2,0.3
		c0,0,0.2-0.2,0.5-0.7c0.3-0.4,0.5-0.8,0.7-1.1c0.3-0.4,0.5-0.7,0.6-0.9c0.1-0.2,0.3-0.3,0.4-0.4c0.1-0.1,0.2-0.1,0.4-0.2
		c0.2,0,0.4-0.1,0.6-0.1L197.6,81.9z"/>
	<path class="st0" d="M195.6,88.4v0.4c2.5,0,4.5-2,4.5-4.5c0-2.5-2-4.5-4.5-4.5c-2.5,0-4.5,2-4.5,4.5c0,2.5,2,4.5,4.5,4.5V88.4V88
		c-1,0-2-0.4-2.7-1.1c-0.7-0.7-1.1-1.6-1.1-2.7c0-1,0.4-2,1.1-2.7s1.6-1.1,2.7-1.1s2,0.4,2.7,1.1s1.1,1.6,1.1,2.7c0,1-0.4,2-1.1,2.7
		s-1.6,1.1-2.7,1.1V88.4z"/>
	<path class="st0" d="M207.1,87.5h-2.4l-0.8-6.2h2.4l0.1,1.4c0,0.3,0,1.6,0,2.4c0.2-0.6,0.4-1.4,0.8-2.3l0.6-1.5h2.4L207.1,87.5z"/>
	<polygon class="st0" points="214.1,83.2 213.4,87.5 210.9,87.5 211.6,83.2 210.1,83.2 210.5,81.3 215.9,81.3 215.5,83.2 	"/>
	<polygon class="st0" points="215.5,87.5 216.6,81.3 219,81.3 218,87.5 	"/>
	<path class="st0" d="M221.5,85.8l-0.3,1.6h-2.4l1.1-6.2h2.6c1.5,0,2.4,0.7,2.4,1.9c0,2-1.4,2.6-2.9,2.6H221.5z M222.1,83h-0.2
		l-0.2,1.1h0.3c0.3,0,0.6-0.2,0.6-0.7C222.7,83.1,222.5,83,222.1,83"/>
	<path class="st0" d="M228.8,85.3l-0.4,2.1H226l0.4-2.1l-1.3-4.1h2.6l0.2,0.8c0.1,0.3,0.2,1,0.1,1.4c0.1-0.4,0.3-0.8,0.6-1.4
		l0.4-0.8h2.6L228.8,85.3z"/>
</g>
</svg>
