<?xml version="1.0" encoding="utf-8"?>
<!-- Generator: Adobe Illustrator 16.0.3, SVG Export Plug-In . SVG Version: 6.00 Build 0)  -->
<!DOCTYPE svg PUBLIC "-//W3C//DTD SVG 1.1//EN" "http://www.w3.org/Graphics/SVG/1.1/DTD/svg11.dtd">
<svg version="1.1" id="Vrstva_1" xmlns="http://www.w3.org/2000/svg" xmlns:xlink="http://www.w3.org/1999/xlink" x="0px" y="0px"
	 width="300px" height="300px" viewBox="0 0 300 300" enable-background="new 0 0 300 300" xml:space="preserve">
<g>
	<path fill:black; d="M221.6,159.712c10.728,0,19.286-3.78,24.83-9.57c0.481-0.473,0.481-1.182-0.121-1.655l-7.954-7.325
		c-0.483-0.59-1.085-0.473-1.688,0c-3.376,3.072-7.595,5.08-13.38,5.08c-6.026,0-10.486-2.599-12.054-7.562
		c-0.361-0.945-0.603-2.009-0.722-3.189c0-0.473,0.24-0.71,0.722-0.71h35.316c0.844,0,1.326-0.472,1.326-1.181
		c0-9.69-0.724-13.824-1.929-17.605c-3.375-10.043-12.295-16.07-25.191-16.07c-12.413,0-21.695,5.908-25.07,16.188
		c-1.206,3.545-1.93,7.682-1.93,13.707c0,5.907,0.844,10.043,2.049,13.588C199.18,153.688,208.343,159.712,221.6,159.712z
		 M211.113,118.829c1.325-3.898,4.941-6.262,9.765-6.262c4.819,0,8.436,2.364,9.762,6.262c0.361,1.183,0.602,2.481,0.602,4.253
		c0,0.474-0.24,0.71-0.723,0.71h-19.285c-0.481,0-0.722-0.236-0.722-0.71C210.512,121.311,210.752,120.012,211.113,118.829z"/>
	<path fill:black; d="M182.669,159.12h6.389c0.724,0,1.205-0.473,1.205-1.18v-11.699c0-0.708-0.481-1.181-1.205-1.181h-2.531
		c-3.495,0-5.063-1.536-5.063-5.436V79.248c0-0.709-0.481-1.183-1.205-1.183h-14.465c-0.724,0-1.205,0.474-1.205,1.183v61.678
		C164.589,153.568,169.772,159.12,182.669,159.12z"/>
	<path fill:black; d="M105.167,116.111c-1.206,3.545-1.929,7.682-1.929,13.707c0,5.907,0.844,10.043,2.049,13.588
		c3.375,10.281,12.536,16.305,25.795,16.305c10.727,0,19.284-3.78,24.829-9.57c0.483-0.473,0.483-1.182-0.122-1.655l-7.954-7.325
		c-0.482-0.59-1.084-0.473-1.688,0c-3.374,3.072-7.593,5.08-13.378,5.08c-6.027,0-10.486-2.599-12.053-7.562
		c-0.362-0.945-0.604-2.009-0.724-3.189c0-0.473,0.241-0.71,0.724-0.71h35.316c0.843,0,1.325-0.472,1.325-1.181
		c0-9.69-0.724-13.824-1.929-17.605c-3.375-10.043-12.293-16.07-25.191-16.07C117.824,99.924,108.542,105.832,105.167,116.111z
		 M120.596,118.829c1.327-3.898,4.942-6.262,9.764-6.262c4.82,0,8.437,2.364,9.763,6.262c0.361,1.183,0.603,2.481,0.603,4.253
		c0,0.474-0.241,0.71-0.723,0.71h-19.285c-0.482,0-0.724-0.236-0.724-0.71C119.993,121.311,120.234,120.012,120.596,118.829z"/>
	<path fill:black; d="M48.155,93.544h20.732c0.482,0,0.723,0.236,0.723,0.708v62.979c0,0.709,0.482,1.181,1.206,1.181h15.307
		c0.724,0,1.206-0.472,1.206-1.181V94.252c0-0.473,0.241-0.708,0.724-0.708h20.731c0.723,0,1.206-0.473,1.206-1.181V79.248
		c0-0.709-0.482-1.183-1.206-1.183H48.155c-0.723,0-1.205,0.474-1.205,1.183v13.116C46.951,93.071,47.432,93.544,48.155,93.544z"/>
	<path fill:black; d="M269.93,168.455c-4.126,0-7.29,1.631-9.279,3.589h-0.066l0.595-2.217c0.104-0.394-0.093-0.655-0.492-0.655
		h-7.985c-0.4,0-0.735,0.262-0.841,0.655l-8.11,30.269c-0.104,0.393,0.091,0.652,0.491,0.652h7.984c0.399,0,0.735-0.26,0.841-0.652
		l4.86-18.136c0.927-3.458,3.4-5.741,6.595-5.741c3.328,0,4.381,2.283,3.454,5.741l-4.859,18.136
		c-0.104,0.393,0.092,0.652,0.491,0.652h7.984c0.4,0,0.735-0.26,0.841-0.652l5.331-19.897
		C279.617,173.281,277.052,168.455,269.93,168.455z"/>
	<path fill:black; d="M245.647,169.172h-7.986c-0.397,0-0.736,0.262-0.84,0.655l-8.112,30.269
		c-0.104,0.393,0.092,0.652,0.491,0.652h7.987c0.399,0,0.735-0.26,0.84-0.652l8.111-30.269
		C246.243,169.434,246.047,169.172,245.647,169.172z"/>
	<path fill:black; d="M187.41,168.455c-5.324,0-9.584,1.239-12.819,3.132c-0.385,0.196-0.538,0.521-0.444,0.912l1.614,5.154
		c0.111,0.327,0.428,0.392,0.831,0.132c1.827-1.109,4.467-2.023,7.728-2.023c5.124,0,6.224,1.372,5.437,4.305l-0.315,1.176
		c-0.07,0.261-0.237,0.391-0.504,0.391h-5.724c-7.986,0-14.234,3.196-16.104,10.178c-1.8,6.719,2.404,9.655,8.127,9.655
		c4.393,0,7.555-1.37,9.777-3.458h0.066l-0.56,2.088c-0.104,0.393,0.092,0.652,0.491,0.652h7.388c0.397,0,0.735-0.26,0.84-0.652
		l5.419-20.224C200.774,171.978,197.924,168.455,187.41,168.455z M187.604,188.093l-0.576,2.15c-0.787,2.938-3.168,4.372-7.16,4.372
		c-3.063,0-4.363-1.109-3.769-3.328c0.664-2.478,2.759-3.587,6.686-3.587h4.525C187.576,187.7,187.675,187.83,187.604,188.093z"/>
	<path fill:black; d="M239.341,164.15c-0.305,0.391-0.175,0.651,0.224,0.651h6.057c0.599,0,0.899-0.132,1.439-0.651l8.859-8.483
		c0.354-0.325,0.242-0.652-0.157-0.652h-7.652c-0.532,0-0.985,0.195-1.373,0.652L239.341,164.15z"/>
	<path fill:black; d="M225.288,193.246H210.58l0.036-0.132l19.579-16.438c0.186-0.196,0.286-0.327,0.373-0.651l1.661-6.197
		c0.104-0.394-0.091-0.655-0.491-0.655h-24.29c-0.398,0-0.734,0.262-0.841,0.655l-1.66,6.197c-0.104,0.39,0.091,0.651,0.49,0.651
		h13.975l-0.033,0.131l-19.8,16.765c-0.185,0.197-0.304,0.392-0.373,0.652l-1.574,5.872c-0.104,0.393,0.092,0.652,0.49,0.652h25.156
		c0.4,0,0.735-0.26,0.841-0.652l1.66-6.197C225.884,193.506,225.688,193.246,225.288,193.246z"/>
	<path fill:black; d="M168.184,169.172h-7.986c-0.399,0-0.734,0.262-0.84,0.655l-0.611,2.28h-0.066
		c-0.804-2.216-3.214-3.652-7.274-3.652c-5.323,0-9.816,2.608-12.826,7.632c-1.344,2.283-2.271,4.501-3.18,7.896
		c-0.91,3.391-1.153,5.545-1.05,7.895c0.317,5.021,3.412,7.632,8.736,7.632c4.06,0,7.239-1.436,9.231-3.652h0.066l-0.717,2.673
		c-1.24,4.632-3.867,6.982-8.327,6.982c-2.528,0-4.396-0.979-5.92-2.742c-0.245-0.325-0.578-0.325-0.998,0l-5.984,4.698
		c-0.42,0.325-0.508,0.652-0.328,0.979c1.595,2.74,6.11,4.761,10.902,4.761c10.582,0,17.455-5.282,20.287-15.853l7.375-27.528
		C168.779,169.434,168.583,169.172,168.184,169.172z M155.563,183.982c-0.524,1.956-1.073,3.261-1.788,4.436
		c-1.325,2.218-3.104,3.393-5.699,3.393c-2.529,0-3.679-1.175-3.883-3.393c-0.019-1.175,0.132-2.479,0.656-4.436
		c0.525-1.958,1.073-3.262,1.721-4.436c1.393-2.219,3.172-3.395,5.699-3.395c2.597,0,3.747,1.176,3.885,3.395
		C156.238,180.721,156.089,182.024,155.563,183.982z"/>
	<path fill:black; d="M91.843,168.455c-4.525,0-8.121,1.499-11.181,3.979h-0.067c-1.165-2.607-3.659-3.979-7.585-3.979
		c-4.126,0-7.292,1.631-9.281,3.589h-0.066l0.595-2.217c0.104-0.394-0.092-0.655-0.491-0.655h-7.986
		c-0.399,0-0.736,0.262-0.84,0.655l-8.111,30.269c-0.105,0.393,0.091,0.652,0.49,0.652h7.986c0.399,0,0.735-0.26,0.84-0.652
		l4.859-18.136c0.927-3.458,3.401-5.741,6.596-5.741c3.328,0,4.38,2.283,3.454,5.741l-4.86,18.136
		c-0.104,0.393,0.091,0.652,0.491,0.652h7.986c0.399,0,0.735-0.26,0.839-0.652l4.86-18.136c0.927-3.458,3.336-5.741,6.53-5.741
		c3.327,0,4.445,2.283,3.519,5.741l-4.86,18.136c-0.105,0.393,0.092,0.652,0.491,0.652h7.986c0.399,0,0.735-0.26,0.84-0.652
		l5.332-19.897C102.081,173.216,99.43,168.455,91.843,168.455z"/>
	<path fill:black; d="M121.458,168.455c-5.324,0-9.582,1.239-12.817,3.132c-0.386,0.196-0.539,0.521-0.444,0.912l1.613,5.154
		c0.112,0.327,0.427,0.392,0.831,0.132c1.828-1.109,4.469-2.023,7.729-2.023c5.124,0,6.221,1.372,5.435,4.305l-0.315,1.176
		c-0.07,0.261-0.237,0.391-0.503,0.391h-5.724c-7.986,0-14.233,3.196-16.104,10.178c-1.8,6.719,2.403,9.655,8.128,9.655
		c4.392,0,7.554-1.37,9.777-3.458h0.066l-0.559,2.088c-0.105,0.393,0.091,0.652,0.491,0.652h7.386c0.4,0,0.736-0.26,0.841-0.652
		l5.419-20.224C134.823,171.978,131.974,168.455,121.458,168.455z M121.654,188.093l-0.577,2.15
		c-0.788,2.938-3.167,4.372-7.162,4.372c-3.061,0-4.361-1.109-3.767-3.328c0.664-2.478,2.758-3.587,6.685-3.587h4.525
		C121.625,187.7,121.724,187.83,121.654,188.093z"/>
	<path fill:black; d="M157.85,228.308c0.065-0.007,0.12-0.007,0.194-0.018c0.063-0.011,0.141-0.032,0.21-0.047
		c0.09-0.02,0.177-0.033,0.275-0.061c0.058-0.016,0.123-0.039,0.183-0.059c0.124-0.037,0.248-0.072,0.382-0.122
		c0.045-0.015,0.092-0.039,0.139-0.057c0.155-0.059,0.312-0.119,0.475-0.192c0.04-0.018,0.08-0.041,0.119-0.061
		c0.172-0.08,0.344-0.162,0.518-0.26c0.03-0.018,0.063-0.039,0.095-0.056c0.181-0.105,0.363-0.211,0.54-0.333
		c0.023-0.014,0.045-0.033,0.069-0.049c0.391-0.271,0.767-0.578,1.094-0.93c0.768-0.799,1.485-2.558,1.398-4.224
		c-0.006-0.098-0.015-0.2-0.026-0.3c-0.005-0.031-0.012-0.063-0.018-0.096c-0.011-0.066-0.021-0.134-0.037-0.2
		c-0.007-0.035-0.021-0.07-0.031-0.104c-0.017-0.061-0.033-0.119-0.056-0.178c-0.015-0.035-0.034-0.064-0.051-0.1
		c-0.024-0.052-0.048-0.106-0.08-0.153c-0.021-0.033-0.047-0.059-0.071-0.09c-0.035-0.043-0.067-0.088-0.108-0.125
		c-0.03-0.028-0.066-0.048-0.097-0.071c-0.046-0.033-0.09-0.068-0.144-0.094c-0.038-0.02-0.084-0.032-0.127-0.047
		c-0.058-0.022-0.113-0.044-0.178-0.055c-0.049-0.011-0.106-0.013-0.162-0.02c-0.053-0.004-0.099-0.015-0.155-0.015
		c-0.037,0-0.074,0-0.112,0.002c-1.918,0.1-3.849,4.807-4.433,8.128c0.004,0,0.007,0,0.009,0
		C157.717,228.325,157.787,228.314,157.85,228.308z"/>
	<path fill:black; d="M209.888,225.58c0.063-0.006,0.119-0.006,0.193-0.018c0.063-0.01,0.141-0.032,0.209-0.045
		c0.092-0.02,0.178-0.034,0.278-0.063c0.06-0.015,0.126-0.041,0.188-0.061c0.124-0.037,0.244-0.07,0.376-0.119
		c0.044-0.015,0.093-0.038,0.138-0.056c0.155-0.059,0.313-0.119,0.475-0.193c0.04-0.018,0.08-0.041,0.119-0.061
		c0.172-0.079,0.344-0.163,0.519-0.26c0.029-0.015,0.059-0.037,0.088-0.052c0.397-0.226,0.792-0.487,1.155-0.791
		c0.195-0.164,0.382-0.338,0.555-0.524c0.767-0.8,1.486-2.559,1.398-4.224c-0.005-0.099-0.015-0.2-0.025-0.299
		c-0.004-0.033-0.013-0.063-0.018-0.096c-0.012-0.067-0.021-0.135-0.037-0.202c-0.007-0.034-0.021-0.068-0.031-0.104
		c-0.018-0.061-0.033-0.119-0.057-0.177c-0.014-0.035-0.033-0.066-0.049-0.1c-0.026-0.053-0.05-0.107-0.08-0.154
		c-0.021-0.032-0.049-0.06-0.072-0.089c-0.035-0.043-0.068-0.089-0.109-0.126c-0.029-0.028-0.064-0.048-0.097-0.071
		c-0.045-0.032-0.09-0.067-0.143-0.093c-0.038-0.02-0.085-0.033-0.127-0.049c-0.058-0.021-0.113-0.043-0.178-0.054
		c-0.05-0.011-0.107-0.013-0.162-0.02c-0.054-0.004-0.099-0.015-0.156-0.015c-0.037,0-0.074,0-0.111,0.002
		c-1.919,0.102-3.848,4.808-4.434,8.128c0.003,0,0.006,0,0.009,0C209.753,225.598,209.825,225.587,209.888,225.58z"/>
	<path fill:black; d="M124.691,228.028c-0.015-0.271-0.035-0.528-0.06-0.778c-0.01-0.093-0.023-0.177-0.034-0.267
		c-0.019-0.149-0.036-0.3-0.058-0.439c-0.016-0.102-0.036-0.192-0.053-0.288c-0.022-0.119-0.042-0.242-0.067-0.354
		c-0.021-0.094-0.045-0.181-0.068-0.271c-0.026-0.103-0.051-0.21-0.079-0.308c-0.025-0.087-0.054-0.167-0.082-0.249
		c-0.03-0.092-0.058-0.183-0.09-0.27c-0.029-0.078-0.062-0.149-0.093-0.225c-0.032-0.078-0.064-0.159-0.099-0.234
		c-0.032-0.069-0.067-0.13-0.102-0.195c-0.036-0.071-0.072-0.143-0.111-0.207c-0.035-0.062-0.072-0.113-0.108-0.169
		c-0.04-0.061-0.079-0.125-0.119-0.181c-0.038-0.052-0.077-0.098-0.115-0.145c-0.042-0.053-0.084-0.106-0.126-0.154
		c-0.04-0.044-0.08-0.083-0.121-0.122c-0.043-0.043-0.088-0.088-0.133-0.127c-0.041-0.035-0.082-0.067-0.123-0.098
		c-0.046-0.036-0.092-0.073-0.139-0.106c-0.042-0.027-0.083-0.052-0.125-0.075c-0.047-0.03-0.095-0.059-0.144-0.082
		c-0.042-0.021-0.083-0.039-0.125-0.059c-0.049-0.021-0.097-0.041-0.146-0.061c-0.042-0.014-0.083-0.027-0.125-0.039
		c-0.05-0.014-0.099-0.029-0.148-0.039c-0.041-0.009-0.081-0.016-0.122-0.022c-0.05-0.008-0.099-0.015-0.148-0.021
		c-0.04-0.002-0.08-0.004-0.12-0.006c-0.027,0-0.056-0.005-0.083-0.005c-0.038,0-0.076,0-0.114,0.002
		c-0.354,0.02-0.807,0.044-1.308,0.172l-5.066,17.271C119.04,239.006,125.018,234.286,124.691,228.028z"/>
	<path fill:black; d="M279.541,45.887H20.459c-0.127,0-12.728,0.145-12.728,12.727v185.07c0,0.127,0.146,12.727,12.728,12.727
		h79.405l-0.126,0.648l-0.008,0.041l-0.005,0.041c-0.055,0.469,0.054,0.859,0.323,1.163c0.183,0.203,0.518,0.448,1.079,0.448
		c0.039,0,0.079-0.002,0.121-0.004c0.153-0.008,0.364-0.029,0.679-0.061c0.858-0.09,2.457-0.257,5.925-0.438
		c3.1-0.163,4.722-0.165,5.593-0.168c0.335-0.002,0.564-0.002,0.721-0.01c1.207-0.065,1.524-0.891,1.593-1.145l0.008-0.025
		l0.006-0.028l0.101-0.464h163.668c0.126,0,12.727-0.146,12.727-12.727V58.614C292.268,58.487,292.122,45.887,279.541,45.887z
		 M114.701,256.641c-0.042,0.156-0.186,0.314-0.59,0.336c-0.554,0.028-2.077-0.043-6.316,0.18c-4.695,0.245-6.049,0.468-6.605,0.499
		c-0.021,0-0.042,0.002-0.062,0.002c-0.256,0-0.345-0.104-0.312-0.388l0.199-1.023c0.039-0.206,0.13-0.411,0.383-0.424l1.16-0.063
		c0.217-0.011,0.427-0.05,0.63-0.104c0.041-0.01,0.079-0.029,0.119-0.043c0.168-0.054,0.333-0.123,0.491-0.212
		c0.03-0.018,0.059-0.037,0.089-0.055c0.17-0.104,0.335-0.228,0.493-0.372c0.015-0.015,0.03-0.028,0.044-0.041
		c0.694-0.659,1.282-1.731,1.76-3.36l0.41-1.421l7.471-25.917c-2.34,0.729-4.7,3.03-5.449,4.183
		c-0.041,0.061-0.088,0.104-0.137,0.139c-0.014,0.009-0.03,0.016-0.044,0.021c-0.037,0.02-0.076,0.032-0.116,0.035
		c-0.017,0.002-0.034,0.002-0.051,0.002c-0.065-0.005-0.133-0.021-0.202-0.069l-0.529-0.428c-0.209-0.14-0.122-0.397-0.029-0.554
		c1.032-1.573,3.349-4.68,7.461-6.365l1.245-5.227c0.082-0.357,0.274-0.569,0.874-0.704l5.67-1.915
		c0.098-0.057,0.196-0.112,0.297-0.117c0.006,0,0.012,0,0.019,0c0.141,0,0.239,0.091,0.244,0.189
		c0.006,0.099-0.087,0.257-0.13,0.411l-1.309,3.306h0l-1.104,2.792c0.45-0.125,1.155-0.16,1.66-0.188
		c0.257-0.013,0.506-0.013,0.751-0.011c0.131,0.002,0.258,0.009,0.386,0.016c0.15,0.008,0.3,0.015,0.446,0.029
		c0.124,0.012,0.246,0.029,0.367,0.043c0.142,0.021,0.282,0.04,0.42,0.066c0.118,0.021,0.233,0.045,0.348,0.071
		c0.134,0.03,0.265,0.063,0.394,0.1c0.111,0.029,0.22,0.063,0.328,0.098c0.124,0.041,0.246,0.084,0.365,0.13
		c0.104,0.041,0.208,0.082,0.309,0.127c0.115,0.051,0.228,0.104,0.339,0.161c0.097,0.047,0.192,0.098,0.286,0.151
		c0.106,0.059,0.21,0.123,0.312,0.188c0.089,0.059,0.179,0.114,0.264,0.176c0.098,0.071,0.191,0.143,0.284,0.219
		c0.082,0.064,0.163,0.13,0.24,0.198c0.088,0.079,0.173,0.161,0.256,0.245c0.073,0.072,0.146,0.146,0.215,0.222
		c0.079,0.086,0.154,0.18,0.229,0.272c0.063,0.078,0.128,0.156,0.188,0.238c0.071,0.099,0.136,0.2,0.202,0.302
		c0.055,0.085,0.111,0.169,0.161,0.255c0.063,0.106,0.118,0.22,0.174,0.332c0.045,0.088,0.092,0.176,0.133,0.267
		c0.053,0.119,0.099,0.242,0.146,0.366c0.035,0.091,0.074,0.179,0.105,0.272c0.044,0.13,0.079,0.267,0.116,0.403
		c0.025,0.091,0.054,0.179,0.076,0.272c0.036,0.153,0.062,0.314,0.089,0.473c0.014,0.08,0.032,0.155,0.043,0.237
		c0.033,0.243,0.058,0.49,0.071,0.743c0.199,3.787-1.229,7.455-5.646,11.027c-2.476,2.004-6.438,3.679-10.502,4.347l-2.712,10.063
		c-0.613,2.271-0.372,3.171,0.861,3.331c0.051,0.008,0.111,0.01,0.166,0.014c0.093,0.006,0.176,0.02,0.279,0.02
		c0.092,0,0.188-0.002,0.288-0.007l1.413-0.073c0.044-0.002,0.078,0.008,0.112,0.018c0.018,0.004,0.04,0.004,0.056,0.012
		c0.029,0.014,0.049,0.035,0.072,0.057c0.011,0.009,0.025,0.018,0.034,0.028c0.019,0.026,0.028,0.057,0.038,0.087
		c0.004,0.015,0.012,0.026,0.015,0.039c0.009,0.048,0.008,0.098-0.001,0.147l-0.195,0.895l0,0L114.701,256.641z M290.205,243.685
		c0,10.504-10.231,10.662-10.666,10.664H115.542c-0.248-0.201-0.562-0.317-0.896-0.317h-0.031l-0.057,0.002l-1.408,0.073
		c-0.08,0.004-0.157,0.007-0.23,0.007c-0.408,0-0.526-0.07-0.527-0.072c0.014,0-0.139-0.356,0.28-1.911l0.628-2.332l137.646-7.213
		c-0.517,0.553-1.068,1.068-1.639,1.461c-0.789,0.587-1.197,0.608-1.417,0.622c-0.15,0-0.534-0.152-0.847-0.427
		c-0.589-0.586-1.291-1.118-2.431-1.118c-0.063,0-0.128,0-0.196,0.005c-0.92,0.047-1.821,0.543-2.471,1.36
		c-0.656,0.827-0.985,1.893-0.927,3.002c0.085,1.636,1.272,3.544,4.335,3.544c0.127,0,0.256-0.002,0.39-0.011
		c3.726-0.194,6.66-3.59,8.072-5.223l0.083-0.096c0.882-0.979,1.796-2.146,2.712-3.418l14.393-0.755c0,0,5.559-0.29,5.267-5.847
		l-1.101-21.006c0,0-0.292-5.557-5.848-5.267l-76.761,4.024l5.561-7.058l0.027-0.034l0.023-0.035
		c0.462-0.688,0.32-1.362-0.044-1.773l-0.287-0.386c-0.254-0.34-0.636-0.535-1.05-0.535h-0.001c-0.249,0-0.496,0.069-0.734,0.208
		l-4.602,2.951l-2.876-2.431c-0.223-0.204-0.546-0.327-0.881-0.327c-0.285,0-0.565,0.088-0.815,0.255l-0.351,0.197l-0.059,0.032
		l-0.053,0.041c-0.528,0.391-0.703,1.058-0.445,1.699l2.964,7.384l-65.857,3.451l1.124-2.84l0.021-0.052l0.015-0.054l0.026-0.063
		c0.064-0.16,0.161-0.398,0.145-0.703c-0.042-0.692-0.629-1.229-1.34-1.229h-0.031l-0.05,0.003
		c-0.287,0.013-0.524,0.119-0.684,0.205l-5.519,1.866c-0.401,0.09-1.382,0.366-1.646,1.517l-0.426,1.788l-19.934,1.047
		c0,0-5.557,0.29-5.265,5.847l1.1,21.007c0,0,0.292,5.557,5.848,5.267l8.968-0.471l-0.305,1.057
		c-0.549,1.874-1.174,2.709-1.696,3.081H20.459c-10.503,0-10.662-10.231-10.664-10.664V58.614c0-10.503,10.23-10.663,10.664-10.665
		h259.082c10.503,0,10.662,10.232,10.664,10.665V243.685z M141.277,227.766c1.117-2.842,3.82-9.209,7.504-9.401
		c0.125-0.007,0.248,0.007,0.372,0.015c0.079,0.008,0.158,0.01,0.236,0.021c0.098,0.016,0.194,0.039,0.289,0.066
		c0.077,0.02,0.155,0.036,0.23,0.061c0.094,0.032,0.184,0.075,0.274,0.116c0.069,0.033,0.143,0.061,0.211,0.1
		c0.088,0.051,0.168,0.108,0.252,0.167c0.062,0.043,0.128,0.082,0.186,0.133c0.08,0.064,0.149,0.14,0.221,0.214
		c0.053,0.053,0.108,0.102,0.156,0.158c0.068,0.085,0.124,0.178,0.182,0.269c0.037,0.059,0.083,0.114,0.115,0.178
		c0.057,0.106,0.096,0.223,0.137,0.34c0.021,0.057,0.049,0.108,0.065,0.169c0.05,0.18,0.082,0.37,0.094,0.568
		c0.092,1.768-1.191,3.354-2.1,3.4c-0.117,0.007-0.227,0.004-0.339,0.002c-0.23-0.002-0.45-0.021-0.654-0.063
		c-0.035-0.008-0.069-0.02-0.104-0.027c-0.209-0.051-0.408-0.12-0.59-0.228c-0.1-0.057-0.196-0.117-0.294-0.179
		c-0.021-0.013-0.044-0.023-0.065-0.037c-0.083-0.047-0.166-0.098-0.254-0.141c-0.041-0.02-0.088-0.032-0.133-0.049
		c-0.071-0.031-0.143-0.062-0.223-0.081c-0.055-0.013-0.119-0.015-0.177-0.023c-0.069-0.009-0.13-0.025-0.205-0.025
		c-0.031,0-0.062,0-0.093,0.002c-1.564,0.082-4.081,4.213-5.057,6.845c-0.442,1.237-0.92,2.73-1.428,4.63l-1.347,5.182
		c-0.088,0.259-0.335,0.373-0.638,0.39l-4.341,0.228c-0.058,0.002-0.104-0.008-0.154-0.015c-0.031-0.007-0.066-0.007-0.093-0.016
		c-0.039-0.013-0.068-0.032-0.099-0.052c-0.02-0.014-0.046-0.021-0.063-0.037c-0.026-0.025-0.04-0.059-0.054-0.089
		c-0.008-0.017-0.023-0.03-0.027-0.05c-0.012-0.052-0.01-0.11,0.012-0.173l1.994-8.303c0.71-2.873,2.013-7.951,1.962-8.91
		c-0.007-0.126-0.035-0.245-0.08-0.356c-0.016-0.036-0.044-0.064-0.063-0.099c-0.038-0.07-0.073-0.139-0.125-0.193
		c-0.031-0.032-0.071-0.052-0.107-0.08c-0.054-0.044-0.105-0.089-0.168-0.117c-0.043-0.02-0.095-0.02-0.142-0.03
		c-0.059-0.016-0.115-0.041-0.179-0.041c-0.015,0-0.028,0-0.043,0.002c-0.808,0.041-2.537,1.803-3.186,2.951
		c-0.056,0.093-0.114,0.157-0.172,0.208c-0.017,0.014-0.035,0.023-0.052,0.033c-0.043,0.029-0.088,0.047-0.132,0.051
		c-0.018,0.002-0.035,0.006-0.053,0.004c-0.06-0.004-0.122-0.02-0.186-0.063l-0.524-0.327c-0.156-0.093-0.165-0.245-0.032-0.606
		c0.731-1.505,3.413-5.392,7.804-5.621c0.179-0.012,0.337,0,0.497,0.008c0.093,0.005,0.187,0.009,0.274,0.02
		c0.111,0.014,0.214,0.035,0.316,0.057c0.077,0.017,0.155,0.032,0.226,0.056c0.094,0.029,0.179,0.066,0.263,0.103
		c0.061,0.026,0.126,0.052,0.181,0.082c0.078,0.043,0.145,0.092,0.211,0.141c0.047,0.035,0.1,0.067,0.142,0.104
		c0.062,0.055,0.11,0.113,0.163,0.172c0.034,0.041,0.074,0.077,0.104,0.118c0.046,0.064,0.081,0.133,0.118,0.199
		c0.022,0.043,0.05,0.083,0.07,0.126c0.034,0.076,0.055,0.154,0.079,0.231c0.011,0.037,0.027,0.076,0.037,0.113
		c0.027,0.117,0.044,0.235,0.05,0.353c0.046,0.908-0.782,3.432-1.822,6.776L141.277,227.766z M157.111,233.416
		c0.012,0.216,0.037,0.429,0.078,0.635c0.017,0.078,0.043,0.151,0.063,0.228c0.032,0.123,0.062,0.249,0.104,0.366
		c0.03,0.082,0.072,0.155,0.106,0.235c0.046,0.103,0.088,0.208,0.142,0.304c0.044,0.073,0.096,0.139,0.143,0.21
		c0.06,0.087,0.116,0.178,0.185,0.259c0.055,0.064,0.116,0.116,0.176,0.173c0.073,0.073,0.145,0.148,0.226,0.212
		c0.063,0.05,0.136,0.087,0.204,0.13c0.087,0.056,0.172,0.114,0.267,0.158c0.074,0.034,0.154,0.057,0.233,0.082
		c0.1,0.035,0.198,0.072,0.304,0.094c0.084,0.018,0.175,0.02,0.263,0.027c0.086,0.01,0.167,0.029,0.256,0.029
		c0.05,0,0.101-0.003,0.149-0.005c2.473-0.13,4.219-1.588,5.314-2.909c0.03-0.053,0.068-0.094,0.108-0.13
		c0.011-0.01,0.021-0.018,0.031-0.023c0.041-0.031,0.085-0.051,0.133-0.053c0.003,0,0.005-0.002,0.007-0.002
		c0.038,0.002,0.076,0.01,0.116,0.035l0.836,0.513c0.212,0.141,0.219,0.291,0.129,0.498c-0.814,1.865-4.431,5.295-9.377,5.555
		c-0.301,0.015-0.584-0.007-0.871-0.021c-0.181-0.011-0.362-0.02-0.535-0.041c-0.214-0.028-0.418-0.076-0.622-0.121
		c-0.164-0.039-0.331-0.072-0.487-0.122c-0.195-0.063-0.379-0.145-0.562-0.225c-0.146-0.063-0.297-0.122-0.436-0.198
		c-0.174-0.095-0.331-0.212-0.492-0.327c-0.125-0.088-0.257-0.169-0.373-0.269c-0.151-0.13-0.281-0.284-0.417-0.431
		c-0.101-0.11-0.211-0.212-0.303-0.336c-0.125-0.166-0.227-0.356-0.333-0.543c-0.072-0.131-0.158-0.247-0.222-0.384
		c-0.102-0.222-0.172-0.466-0.247-0.708c-0.04-0.129-0.095-0.245-0.126-0.38c-0.092-0.388-0.153-0.802-0.176-1.239
		c-0.196-3.733,1.139-9.17,5.434-13.19c2.36-2.25,5.267-3.818,8.242-3.975c0.246-0.014,0.467,0.002,0.688,0.013
		c0.139,0.009,0.28,0.015,0.411,0.032c0.157,0.02,0.302,0.053,0.446,0.087c0.118,0.026,0.238,0.05,0.348,0.087
		c0.136,0.043,0.259,0.099,0.381,0.155c0.096,0.043,0.196,0.085,0.285,0.137c0.115,0.065,0.215,0.144,0.315,0.222
		c0.077,0.058,0.159,0.11,0.228,0.175c0.094,0.087,0.172,0.187,0.252,0.284c0.058,0.066,0.122,0.132,0.171,0.203
		c0.074,0.108,0.132,0.228,0.192,0.348c0.038,0.072,0.084,0.143,0.115,0.22c0.057,0.135,0.095,0.28,0.135,0.423
		c0.02,0.071,0.048,0.136,0.063,0.21c0.046,0.22,0.078,0.446,0.089,0.681c0.147,2.826-1.408,4.984-4.249,6.803
		c-2.694,1.711-5.394,2.358-7.304,2.609C157.169,230.68,157.036,232.001,157.111,233.416z M192.251,222.108
		c-0.341,0.071-0.658,0.123-0.961,0.157c-0.086,0.012-0.162,0.012-0.244,0.018c-0.21,0.02-0.418,0.037-0.612,0.039
		c-0.058,0-0.11-0.006-0.167-0.009c-0.286-0.005-0.555-0.03-0.811-0.075c-0.075-0.012-0.149-0.024-0.223-0.039
		c-0.288-0.065-0.563-0.146-0.826-0.261c-0.028-0.013-0.057-0.03-0.084-0.043c-0.236-0.108-0.465-0.24-0.688-0.391
		c-0.065-0.043-0.132-0.086-0.195-0.134c-0.244-0.176-0.483-0.368-0.725-0.592c-0.268-0.24-0.573-0.532-0.895-0.82
		c-0.057-0.052-0.113-0.104-0.172-0.153c-0.06-0.053-0.12-0.103-0.181-0.152c-0.07-0.059-0.138-0.119-0.209-0.173
		c-0.061-0.048-0.121-0.089-0.182-0.135c-0.07-0.052-0.142-0.106-0.212-0.153c-0.061-0.042-0.12-0.074-0.18-0.108
		c-0.069-0.043-0.138-0.088-0.207-0.121c-0.061-0.031-0.118-0.051-0.177-0.074c-0.066-0.028-0.133-0.059-0.197-0.076
		c-0.058-0.017-0.111-0.019-0.167-0.028c-0.056-0.006-0.112-0.025-0.165-0.025c-0.016,0-0.032,0-0.048,0.002
		c-0.456,0.021-0.84,0.396-0.822,0.749c0.021,0.405,0.187,0.65,0.552,0.884c0.367,0.232,1.098,0.65,1.116,1.966
		c0.158,1.104-0.896,2.225-1.905,2.276c-0.152,0.009-0.297-0.002-0.441-0.011c-0.089-0.004-0.177-0.009-0.261-0.02
		c-0.108-0.016-0.21-0.039-0.313-0.063c-0.081-0.018-0.163-0.035-0.24-0.059c-0.098-0.033-0.188-0.074-0.278-0.115
		c-0.073-0.032-0.148-0.063-0.216-0.099c-0.086-0.051-0.164-0.109-0.243-0.168c-0.063-0.048-0.128-0.089-0.187-0.14
		c-0.073-0.068-0.137-0.146-0.203-0.224c-0.051-0.059-0.106-0.113-0.152-0.178c-0.062-0.087-0.11-0.187-0.163-0.286
		c-0.037-0.067-0.079-0.13-0.11-0.206c-0.05-0.114-0.085-0.247-0.122-0.377c-0.021-0.068-0.049-0.132-0.064-0.205
		c-0.047-0.21-0.077-0.436-0.09-0.677c-0.13-2.474,2.007-5.166,6.247-5.39c0.334-0.018,0.659-0.025,0.975-0.023
		c0.507,0,0.982,0.027,1.441,0.076c0.074,0.006,0.149,0.01,0.222,0.02c0.437,0.051,0.85,0.125,1.245,0.216
		c0.074,0.018,0.148,0.035,0.222,0.055c0.391,0.1,0.767,0.216,1.124,0.357c0.052,0.02,0.102,0.043,0.153,0.064
		c0.369,0.154,0.725,0.323,1.063,0.519c0.361,0.208,0.66,0.381,0.92,0.528c0.017,0.009,0.032,0.017,0.05,0.028
		c0.104,0.058,0.206,0.114,0.298,0.165c0.034,0.016,0.066,0.031,0.098,0.049c0.072,0.037,0.145,0.074,0.21,0.106
		c0.035,0.018,0.069,0.03,0.103,0.045c0.058,0.026,0.116,0.051,0.17,0.072c0.035,0.014,0.069,0.023,0.104,0.035
		c0.049,0.017,0.1,0.031,0.148,0.045c0.034,0.008,0.067,0.013,0.103,0.02c0.046,0.011,0.096,0.02,0.143,0.023
		c0.033,0.004,0.069,0.004,0.104,0.007c0.028,0.002,0.057,0.007,0.085,0.007c0.035,0,0.07-0.003,0.106-0.005
		c0.605-0.03,0.92-0.806,1.171-1.78c0.255-0.925,1.191-2.392,2.857-2.479c0.061-0.004,0.115,0.006,0.174,0.006
		c0.216,0.006,0.418,0.039,0.596,0.099c0.021,0.009,0.041,0.02,0.063,0.026c0.178,0.069,0.337,0.161,0.469,0.275
		c0.013,0.009,0.021,0.021,0.033,0.032c0.13,0.119,0.239,0.256,0.315,0.407c0.004,0.009,0.005,0.015,0.01,0.024
		c0.076,0.157,0.123,0.329,0.134,0.504c0.098,1.868-2.408,4.276-4.415,5.596l-9.648,9.971l0.117,0.35
		c0.4-0.038,0.76-0.058,1.097-0.063c0.02,0,0.042,0,0.063,0c0.331-0.002,0.632,0.012,0.909,0.042
		c0.059,0.005,0.105,0.017,0.162,0.023c0.206,0.028,0.401,0.061,0.58,0.102c0.084,0.02,0.159,0.046,0.236,0.07
		c0.137,0.039,0.271,0.08,0.392,0.13c0.078,0.03,0.151,0.064,0.224,0.098c0.11,0.051,0.216,0.105,0.315,0.164
		c0.066,0.039,0.132,0.078,0.195,0.119c0.097,0.063,0.188,0.13,0.279,0.197c0.055,0.043,0.112,0.084,0.166,0.127
		c0.096,0.081,0.189,0.163,0.28,0.247c0.042,0.039,0.084,0.074,0.125,0.113c0.129,0.121,0.255,0.245,0.383,0.37
		c0.343,0.334,0.652,0.642,0.946,0.934c0.124,0.122,0.251,0.249,0.369,0.364c0.074,0.074,0.142,0.139,0.214,0.208
		c0.118,0.117,0.239,0.236,0.35,0.341c0.074,0.071,0.141,0.13,0.212,0.194c0.099,0.091,0.201,0.188,0.295,0.271
		c0.07,0.061,0.134,0.111,0.202,0.165c0.085,0.071,0.173,0.146,0.254,0.208c0.066,0.05,0.127,0.087,0.189,0.128
		c0.076,0.052,0.154,0.108,0.226,0.147c0.061,0.034,0.118,0.054,0.176,0.08c0.068,0.032,0.139,0.067,0.204,0.089
		c0.058,0.018,0.109,0.018,0.165,0.027c0.054,0.008,0.11,0.027,0.163,0.027c0.016,0,0.031,0,0.048,0
		c1.062-0.057,1.781-0.805,1.744-1.511c-0.032-0.604-0.309-1.047-0.635-1.484c-0.759-0.972-0.892-1.572-0.938-2.433
		c-0.062-1.158,1.004-2.075,2.317-2.145c0.157-0.009,0.295,0.007,0.437,0.015c0.099,0.008,0.198,0.012,0.289,0.027
		c0.102,0.016,0.194,0.043,0.286,0.068c0.082,0.023,0.168,0.046,0.244,0.076c0.086,0.037,0.163,0.082,0.241,0.128
		c0.067,0.039,0.139,0.076,0.2,0.121c0.072,0.054,0.135,0.121,0.198,0.187c0.054,0.052,0.111,0.102,0.159,0.16
		c0.061,0.075,0.108,0.163,0.16,0.247c0.039,0.063,0.084,0.124,0.118,0.192c0.048,0.098,0.084,0.206,0.123,0.314
		c0.027,0.071,0.058,0.137,0.081,0.215c0.038,0.127,0.063,0.269,0.092,0.409c0.013,0.067,0.031,0.128,0.043,0.199
		c0.032,0.217,0.057,0.444,0.068,0.687c0.156,2.977-1.479,6.555-7.737,6.885c-0.423,0.021-0.813,0.03-1.181,0.027
		c-0.105,0-0.199-0.006-0.3-0.008c-0.248-0.005-0.49-0.014-0.714-0.03c-0.12-0.009-0.229-0.024-0.343-0.035
		c-0.188-0.021-0.373-0.043-0.546-0.071c-0.112-0.019-0.218-0.042-0.323-0.065c-0.159-0.032-0.313-0.068-0.459-0.11
		c-0.1-0.027-0.199-0.059-0.296-0.09c-0.14-0.049-0.273-0.098-0.405-0.152c-0.088-0.039-0.177-0.073-0.263-0.114
		c-0.13-0.064-0.257-0.131-0.381-0.202c-0.076-0.043-0.153-0.084-0.229-0.131c-0.135-0.084-0.265-0.175-0.394-0.269
		c-0.061-0.043-0.122-0.082-0.182-0.127c-0.188-0.142-0.374-0.293-0.562-0.455c-0.317-0.286-0.646-0.6-0.971-0.899
		c-0.057-0.052-0.115-0.105-0.172-0.155c-0.058-0.053-0.113-0.1-0.171-0.149c-0.069-0.061-0.139-0.121-0.208-0.18
		c-0.05-0.039-0.096-0.074-0.145-0.113c-0.072-0.058-0.146-0.118-0.218-0.169c-0.046-0.035-0.09-0.059-0.134-0.089
		c-0.071-0.047-0.141-0.096-0.208-0.135c-0.045-0.023-0.085-0.037-0.127-0.059c-0.064-0.029-0.129-0.063-0.188-0.082
		c-0.042-0.015-0.08-0.015-0.121-0.023c-0.049-0.009-0.102-0.026-0.146-0.026c-0.011,0-0.021,0-0.032,0
		c-0.606,0.033-1.337,0.579-1.624,1.856c-0.291,1.182-1.063,1.931-2.576,2.009c-0.09,0.004-0.168-0.006-0.247-0.014
		c-0.061-0.006-0.123-0.008-0.18-0.02c-0.06-0.012-0.114-0.033-0.17-0.051c-0.052-0.018-0.106-0.033-0.153-0.057
		c-0.051-0.023-0.096-0.057-0.144-0.085c-0.043-0.027-0.088-0.052-0.127-0.084c-0.044-0.035-0.079-0.074-0.119-0.113
		c-0.033-0.034-0.07-0.066-0.103-0.105c-0.034-0.042-0.063-0.089-0.092-0.134c-0.026-0.039-0.058-0.079-0.08-0.12
		c-0.026-0.05-0.047-0.102-0.07-0.154c-0.017-0.041-0.039-0.082-0.055-0.125c-0.021-0.059-0.035-0.119-0.051-0.181
		c-0.01-0.033-0.022-0.07-0.029-0.105c-0.02-0.097-0.031-0.192-0.036-0.286c-0.116-2.22,2.506-4.332,4.397-4.937l9.643-10.123
		L192.251,222.108z M186.995,205.835c-0.06-0.149-0.067-0.302,0.079-0.41l0.394-0.223c0.078-0.059,0.157-0.089,0.231-0.089
		c0.064,0,0.124,0.023,0.173,0.066l3.495,2.956l5.239-3.363c0.053-0.029,0.118-0.061,0.186-0.061c0.06,0,0.119,0.024,0.171,0.094
		l0.326,0.438c0.106,0.096,0.114,0.247-0.027,0.457l-6.406,8.13c-0.055,0.074-0.117,0.121-0.18,0.152
		c-0.021,0.01-0.043,0.01-0.063,0.018c-0.039,0.01-0.079,0.014-0.117,0.012c-0.051-0.006-0.099-0.027-0.145-0.059
		c-0.021-0.012-0.045-0.02-0.063-0.038c-0.062-0.061-0.115-0.141-0.148-0.25L186.995,205.835z M209.15,230.688
		c0.011,0.217,0.038,0.429,0.079,0.635c0.016,0.078,0.043,0.152,0.063,0.228c0.031,0.123,0.061,0.249,0.103,0.366
		c0.03,0.082,0.071,0.156,0.106,0.236c0.045,0.102,0.088,0.208,0.142,0.303c0.044,0.074,0.095,0.139,0.144,0.211
		c0.06,0.086,0.115,0.177,0.184,0.257c0.054,0.065,0.115,0.117,0.176,0.173c0.073,0.074,0.144,0.15,0.225,0.213
		c0.064,0.05,0.137,0.087,0.205,0.13c0.087,0.057,0.172,0.115,0.267,0.158c0.075,0.034,0.155,0.057,0.232,0.083
		c0.1,0.033,0.198,0.07,0.305,0.093c0.083,0.017,0.175,0.02,0.263,0.028c0.085,0.008,0.166,0.027,0.256,0.027
		c0.051,0,0.1-0.002,0.15-0.004c2.473-0.13,4.219-1.588,5.313-2.91c0.03-0.051,0.068-0.092,0.108-0.129
		c0.011-0.009,0.021-0.018,0.03-0.024c0.043-0.029,0.087-0.049,0.133-0.051c0.004,0,0.006-0.003,0.008-0.003
		c0.038,0.003,0.076,0.011,0.116,0.034l0.836,0.514c0.21,0.141,0.219,0.292,0.128,0.498c-0.813,1.865-4.43,5.294-9.376,5.555
		c-0.301,0.016-0.585-0.006-0.872-0.021c-0.18-0.011-0.362-0.02-0.535-0.041c-0.215-0.028-0.416-0.076-0.62-0.122
		c-0.165-0.039-0.331-0.07-0.488-0.121c-0.197-0.063-0.378-0.146-0.562-0.226c-0.146-0.063-0.297-0.121-0.435-0.196
		c-0.176-0.096-0.334-0.213-0.493-0.325c-0.125-0.091-0.258-0.171-0.375-0.271c-0.15-0.131-0.28-0.284-0.415-0.432
		c-0.102-0.11-0.211-0.212-0.303-0.335c-0.127-0.168-0.228-0.36-0.335-0.547c-0.071-0.127-0.157-0.244-0.22-0.38
		c-0.102-0.222-0.174-0.469-0.248-0.714c-0.039-0.127-0.095-0.24-0.127-0.374c-0.091-0.388-0.152-0.802-0.175-1.24
		c-0.195-3.734,1.14-9.169,5.434-13.189c2.362-2.252,5.266-3.82,8.243-3.977c0.246-0.012,0.466,0.003,0.688,0.014
		c0.14,0.008,0.279,0.016,0.41,0.033c0.157,0.02,0.304,0.051,0.448,0.086c0.117,0.026,0.237,0.05,0.347,0.087
		c0.136,0.043,0.258,0.1,0.381,0.156c0.097,0.043,0.196,0.084,0.285,0.136c0.114,0.064,0.215,0.143,0.315,0.222
		c0.077,0.059,0.158,0.109,0.228,0.176c0.095,0.086,0.173,0.186,0.252,0.283c0.058,0.067,0.12,0.132,0.171,0.203
		c0.074,0.111,0.133,0.229,0.192,0.349c0.038,0.074,0.083,0.142,0.116,0.22c0.056,0.136,0.094,0.28,0.134,0.427
		c0.02,0.069,0.046,0.134,0.062,0.203c0.049,0.221,0.078,0.448,0.091,0.683c0.148,2.827-1.409,4.984-4.25,6.802
		c-2.693,1.712-5.392,2.359-7.303,2.61C209.209,227.953,209.075,229.274,209.15,230.688z M231.317,222.946
		c1.397-2.301,5.238-9.182,10.235-9.445c0.173-0.009,0.329,0.015,0.489,0.03c0.116,0.014,0.238,0.018,0.349,0.039
		c0.123,0.026,0.233,0.069,0.349,0.108c0.103,0.037,0.209,0.064,0.304,0.11c0.108,0.05,0.203,0.115,0.302,0.178
		c0.086,0.055,0.178,0.102,0.257,0.162c0.092,0.071,0.172,0.157,0.256,0.236c0.068,0.067,0.145,0.131,0.208,0.201
		c0.078,0.09,0.141,0.187,0.209,0.282c0.053,0.076,0.112,0.146,0.16,0.226c0.063,0.104,0.112,0.212,0.162,0.323
		c0.036,0.072,0.08,0.145,0.109,0.22c0.051,0.124,0.083,0.249,0.119,0.375c0.018,0.061,0.044,0.121,0.057,0.182
		c0.042,0.185,0.069,0.366,0.078,0.539c0.058,1.111-0.538,3.27-2.434,9.594c-1.03,3.495-1.378,4.626-1.345,5.233
		c0.008,0.147,0.031,0.272,0.065,0.379c0.012,0.037,0.033,0.061,0.049,0.094c0.028,0.059,0.054,0.121,0.092,0.164
		c0.023,0.028,0.057,0.041,0.084,0.063c0.04,0.03,0.077,0.063,0.124,0.081c0.035,0.014,0.077,0.014,0.116,0.021
		c0.042,0.008,0.079,0.023,0.124,0.023c0.016,0,0.03,0,0.047-0.002c0.605-0.033,2.189-1.684,2.662-2.316
		c0.034-0.052,0.074-0.089,0.115-0.11c0.013-0.008,0.026-0.006,0.04-0.011c0.028-0.011,0.059-0.024,0.088-0.024
		c0.03,0,0.058,0.012,0.087,0.022c0.017,0.005,0.032,0.005,0.047,0.011c0.045,0.021,0.088,0.05,0.128,0.087l0.476,0.378
		c0.21,0.142,0.223,0.396,0.082,0.605c-0.563,0.839-3.455,4.584-8.25,4.835c-0.134,0.007-0.253-0.002-0.373-0.011
		c-0.072-0.004-0.146-0.007-0.213-0.018c-0.085-0.011-0.164-0.03-0.242-0.052c-0.061-0.016-0.123-0.028-0.18-0.047
		c-0.07-0.027-0.133-0.059-0.195-0.092c-0.051-0.025-0.104-0.048-0.148-0.078c-0.058-0.036-0.106-0.08-0.156-0.124
		c-0.04-0.031-0.082-0.064-0.118-0.102c-0.046-0.047-0.081-0.099-0.119-0.151c-0.03-0.041-0.064-0.08-0.09-0.121
		c-0.034-0.059-0.06-0.121-0.088-0.185c-0.02-0.043-0.043-0.084-0.06-0.13c-0.025-0.069-0.043-0.145-0.062-0.221
		c-0.011-0.041-0.023-0.078-0.032-0.119c-0.022-0.118-0.036-0.24-0.043-0.363c-0.048-0.908,0.854-3.993,2.186-8.517
		c0.687-2.363,1.721-5.81,1.673-6.717c-0.01-0.197-0.044-0.362-0.098-0.499c-0.018-0.048-0.048-0.073-0.069-0.114
		c-0.045-0.078-0.087-0.158-0.145-0.215c-0.037-0.034-0.086-0.052-0.129-0.077c-0.06-0.037-0.116-0.079-0.187-0.101
		c-0.054-0.018-0.116-0.02-0.177-0.028c-0.059-0.006-0.11-0.025-0.174-0.025c-0.029,0-0.061,0-0.09,0.002
		c-1.162,0.061-4.685,4.294-6.531,7.681c-1.018,1.825-1.994,3.495-2.252,4.368l-1.672,5.758c-0.09,0.206-0.187,0.314-0.741,0.343
		l-4.289,0.225c-0.06,0.003-0.107-0.011-0.157-0.021c-0.029-0.006-0.063-0.006-0.089-0.018c-0.039-0.015-0.069-0.041-0.1-0.064
		c-0.021-0.018-0.049-0.028-0.064-0.045c-0.026-0.031-0.038-0.07-0.054-0.107c-0.009-0.021-0.025-0.041-0.031-0.064
		c-0.013-0.065-0.011-0.136,0.01-0.21l2.977-9.874c0.992-3.241,1.929-6.631,1.898-7.237c-0.008-0.124-0.029-0.234-0.063-0.331
		c-0.011-0.031-0.03-0.051-0.043-0.076c-0.029-0.062-0.058-0.122-0.098-0.167c-0.022-0.025-0.054-0.039-0.079-0.061
		c-0.041-0.033-0.08-0.069-0.13-0.089c-0.033-0.014-0.074-0.016-0.111-0.021c-0.044-0.012-0.084-0.028-0.133-0.028
		c-0.014,0-0.027,0-0.042,0.002c-0.758,0.039-2.624,2.11-3.239,2.9c-0.041,0.045-0.086,0.08-0.133,0.106
		c-0.014,0.009-0.029,0.013-0.045,0.02c-0.033,0.013-0.066,0.023-0.1,0.026c-0.016,0.002-0.032,0-0.047-0.003
		c-0.061-0.004-0.122-0.021-0.178-0.071l-0.534-0.529c-0.21-0.141-0.218-0.292-0.077-0.502c0.705-1.048,3.671-5.306,8.921-5.58
		c0.129-0.007,0.242,0.006,0.357,0.018c0.074,0.006,0.148,0.008,0.217,0.021c0.088,0.015,0.167,0.041,0.246,0.067
		c0.062,0.02,0.124,0.034,0.179,0.059c0.074,0.031,0.139,0.07,0.203,0.109c0.05,0.031,0.103,0.057,0.146,0.089
		c0.06,0.046,0.11,0.096,0.161,0.146c0.039,0.036,0.083,0.07,0.117,0.111c0.046,0.052,0.084,0.11,0.123,0.167
		c0.028,0.043,0.063,0.085,0.089,0.128c0.034,0.059,0.06,0.121,0.087,0.182c0.02,0.046,0.045,0.089,0.062,0.135
		c0.026,0.067,0.04,0.134,0.058,0.201c0.012,0.039,0.026,0.08,0.035,0.121c0.021,0.107,0.035,0.211,0.04,0.308
		c0.037,0.709-0.88,3.488-2.078,6.689L231.317,222.946z M259.441,232.305c0.551-1.092,3.063-7.246,3.488-9.751
		c0.111-0.765,0.303-1.938,0.228-3.403c-0.073-1.36-1.068-2.979-1.138-4.291c-0.057-1.111,0.732-2.467,2.599-2.564
		c0.205-0.012,0.38,0.006,0.561,0.018c0.118,0.008,0.237,0.014,0.346,0.031c0.13,0.02,0.246,0.057,0.362,0.092
		c0.096,0.027,0.196,0.052,0.283,0.089c0.108,0.047,0.203,0.107,0.3,0.166c0.074,0.048,0.154,0.089,0.222,0.144
		c0.09,0.071,0.165,0.158,0.242,0.242c0.057,0.062,0.118,0.117,0.168,0.187c0.073,0.098,0.131,0.21,0.191,0.323
		c0.039,0.071,0.084,0.138,0.118,0.216c0.057,0.128,0.1,0.273,0.144,0.414c0.026,0.078,0.056,0.149,0.077,0.231
		c0.043,0.168,0.073,0.349,0.104,0.531c0.012,0.071,0.029,0.137,0.039,0.213c0.036,0.261,0.061,0.539,0.076,0.829
		c0.095,1.817-1.476,6.607-3.158,10.237c-0.231,0.494-0.493,1.029-0.768,1.582c-0.046,0.096-0.093,0.187-0.14,0.282
		c-0.276,0.549-0.571,1.123-0.883,1.715c-0.043,0.082-0.087,0.165-0.129,0.247c-0.676,1.276-1.42,2.626-2.21,3.99
		c-0.02,0.033-0.038,0.065-0.057,0.1c-0.409,0.702-0.828,1.408-1.256,2.11c-0.005,0.009-0.01,0.017-0.016,0.026
		c-1.306,2.143-2.685,4.234-4.031,6.039c-0.726,0.975-1.443,1.87-2.133,2.637c-1.24,1.432-4.052,4.768-7.384,4.943
		c-0.114,0.007-0.224,0.009-0.332,0.009c-2.102,0-3.166-1.111-3.24-2.505c-0.095-1.816,1.15-3.147,2.361-3.21
		c0.047-0.002,0.093-0.004,0.138-0.004c0.773,0,1.223,0.364,1.678,0.818c0.46,0.416,1.102,0.726,1.6,0.726
		c0.02,0,0.039,0,0.059-0.002c0.505-0.025,1.104-0.158,1.98-0.813c0.949-0.653,1.817-1.56,2.546-2.443
		c0.001-0.003,0.002-0.005,0.004-0.007c0.916-1.115,1.604-2.196,1.888-2.693c0.656-1.045,0.69-2.264,0.397-4.018
		c-0.353-1.904-2.363-15.162-2.945-17.561c-0.046-0.184-0.094-0.349-0.144-0.491c-0.017-0.046-0.038-0.075-0.056-0.116
		c-0.038-0.092-0.075-0.185-0.125-0.255c-0.025-0.037-0.063-0.057-0.091-0.086c-0.052-0.053-0.099-0.108-0.163-0.142
		c-0.04-0.02-0.096-0.021-0.142-0.031c-0.063-0.016-0.115-0.045-0.19-0.045c-0.02,0-0.04,0-0.061,0.004
		c-1.011,0.051-1.956,2.275-2.195,3.505c-0.033,0.094-0.076,0.153-0.124,0.201c-0.01,0.008-0.02,0.02-0.029,0.025
		c-0.051,0.037-0.106,0.057-0.171,0.059c-0.036,0-0.075,0-0.117-0.009l-0.766-0.112c-0.154-0.043-0.217-0.292-0.137-0.702
		c0.119-0.613,1.51-6.91,6.859-7.192c0.104-0.004,0.204-0.004,0.304-0.002c0.049,0,0.1,0.004,0.148,0.007
		c0.066,0.005,0.131,0.011,0.197,0.017c0.047,0.008,0.095,0.016,0.141,0.025c0.064,0.01,0.124,0.023,0.184,0.038
		c0.047,0.011,0.093,0.024,0.137,0.036c0.059,0.021,0.115,0.04,0.171,0.063c0.043,0.018,0.086,0.035,0.131,0.057
		c0.053,0.025,0.105,0.055,0.157,0.084c0.042,0.023,0.082,0.051,0.123,0.076c0.051,0.034,0.099,0.071,0.147,0.11
		c0.039,0.03,0.078,0.063,0.116,0.098c0.046,0.041,0.093,0.089,0.137,0.137c0.037,0.038,0.073,0.077,0.109,0.118
		c0.043,0.053,0.085,0.109,0.126,0.165c0.035,0.048,0.07,0.094,0.103,0.143c0.04,0.061,0.079,0.128,0.118,0.195
		c0.031,0.054,0.063,0.108,0.094,0.167c0.037,0.071,0.073,0.149,0.109,0.228c0.028,0.063,0.059,0.126,0.087,0.192
		c0.034,0.082,0.067,0.174,0.1,0.263c0.027,0.071,0.054,0.141,0.08,0.216c0.031,0.096,0.062,0.197,0.091,0.298
		c0.025,0.082,0.051,0.16,0.074,0.246c0.029,0.108,0.056,0.226,0.084,0.34c0.022,0.09,0.045,0.174,0.065,0.269
		c0.027,0.127,0.054,0.263,0.08,0.397c0.019,0.093,0.037,0.182,0.056,0.279c0.025,0.149,0.051,0.312,0.075,0.47
		c0.016,0.094,0.032,0.183,0.045,0.28c0.038,0.259,0.074,0.532,0.108,0.818c0.705,5.734,1.02,11.739,0.967,13.615L259.441,232.305z"
		/>
</g>
</svg>
