<?xml version="1.0" encoding="utf-8"?>
<!-- Generator: Adobe Illustrator 16.0.0, SVG Export Plug-In . SVG Version: 6.00 Build 0)  -->
<!DOCTYPE svg PUBLIC "-//W3C//DTD SVG 1.1//EN" "http://www.w3.org/Graphics/SVG/1.1/DTD/svg11.dtd" [
	<!ENTITY ns_flows "http://ns.adobe.com/Flows/1.0/">
	<!ENTITY ns_extend "http://ns.adobe.com/Extensibility/1.0/">
	<!ENTITY ns_ai "http://ns.adobe.com/AdobeIllustrator/10.0/">
	<!ENTITY ns_graphs "http://ns.adobe.com/Graphs/1.0/">
]>
<svg version="1.1" id="Vrstva_1" xmlns:x="&ns_extend;" xmlns:i="&ns_ai;" xmlns:graph="&ns_graphs;"
	 xmlns="http://www.w3.org/2000/svg" xmlns:xlink="http://www.w3.org/1999/xlink" xmlns:a="http://ns.adobe.com/AdobeSVGViewerExtensions/3.0/"
	 x="0px" y="0px" width="300px" height="300px" viewBox="0 0 300 300" style="enable-background:new 0 0 300 300;"
	 xml:space="preserve">
<style type="text/css">
<![CDATA[
	.st0{fill:black;}
]]>
</style>
<g>
	<path class="st0" d="M18.1,46.3L18.1,46.3c0.5-4.2,1.8-7.2,3.6-9c0.9-0.9,2-1.6,3.2-2.1c1.3-0.5,2.7-0.7,4.4-0.7h12.3v87.1
		c0,1.3-0.2,2.4-0.6,3.2c-0.3,0.6-1,1.4-2.6,2.2l0,0c-0.5,0.3-1.6,0.6-3.2,0.9c-1.6,0.2-3.7,0.3-6.2,0.3h-1.7V140h1.7h45.8v-11.8
		h-1.7c-2.8,0-5.1-0.1-6.9-0.4c-1.8-0.3-3-0.7-3.6-1.1l0,0c-0.6-0.4-1.1-0.9-1.5-1.7c-0.4-0.8-0.6-1.9-0.6-3.4V34.5h12.3
		c1.8,0,3.4,0.3,4.8,1c1.4,0.7,2.7,1.6,3.9,3c0.5,0.6,1.1,1.6,1.5,2.9c0.4,1.3,0.8,3,1,4.9l0,0l2.2,17l13.3-0.1l-3.3-41H5.9l-3.3,41
		l13.3,0.1L18.1,46.3z"/>
	<path class="st0" d="M115.9,125.5L115.9,125.5c4.7,5.3,10,9.4,16.1,12c6.1,2.7,12.8,4,20.2,4c7.4,0,14.1-1.3,20.2-4
		c6.1-2.6,11.5-6.6,16.1-11.9c4.7-5.3,8.2-11.7,10.5-19.2c2.3-7.5,3.4-16.1,3.4-25.7c0-9.7-1.2-18.3-3.8-25.8
		c-2.5-7.6-6.3-14.1-11.4-19.5l0,0c-4.6-4.9-9.8-8.6-15.7-11c-5.9-2.5-12.4-3.7-19.4-3.7c-7.1,0-13.6,1.2-19.4,3.7
		c-5.9,2.5-11.1,6.3-15.7,11.2c-4.7,5.1-8.3,11.5-11.1,19.2c-2.7,7.7-4.1,16.5-4.1,26.3c0,9.4,1.1,17.8,3.5,25.2
		C107.8,113.7,111.3,120.1,115.9,125.5z M140.8,36.8c3.4-1.9,7.1-2.8,11.3-2.8c4.2,0,7.9,0.9,11.3,2.8c3.4,1.9,6.5,4.7,9.3,8.5
		c2.8,3.8,4.9,8.7,6.3,14.8c1.4,6.1,2.2,13.4,2.2,21.8c0,16.8-3.4,29.1-9.9,36.9c-2.6,3.1-5.4,5.4-8.6,7c-3.1,1.5-6.5,2.3-10.3,2.3
		c-4.8,0-9-1.2-12.9-3.8l0,0c-5.3-3.4-9.3-8.7-12.1-16c-2.7-7.3-4.1-16.7-4.1-28c0-15.8,2.9-27.5,8.3-35
		C134.3,41.5,137.4,38.7,140.8,36.8z"/>
	<path class="st0" d="M216.8,34.5c1.5,0.3,2.5,0.8,3.2,1.3c0.1,0,0.3,0.4,0.5,1.2c0.2,0.8,0.3,2,0.3,3.6v81c0,1.4-0.1,2.6-0.3,3.5v0
		c-0.1,0.6-0.5,1.2-1.5,2c-0.1,0.1-0.3,0.2-0.7,0.3c-0.6,0.2-1.5,0.4-2.7,0.5c-1.2,0.1-2.7,0.2-4.5,0.2h-1.7V140h1.7h46.1v-11.8
		h-1.7c-4,0-7.1-0.1-9.4-0.4c-1.1-0.1-2.1-0.3-2.7-0.5c-0.7-0.2-1.1-0.4-1.2-0.5c-1.3-1-1.9-1.9-2-3v0c-0.2-1.4-0.4-3.4-0.4-6V95.4
		h4.6v0c0.9,0,1.7,0.1,2.6,0.1c9.7,0,17.9-1.6,24.5-4.9c6.6-3.3,11.7-8.4,15-15.1l0,0l0,0c2.5-5,3.7-10.9,3.7-17.6
		c0-6.7-1.2-12.5-3.5-17.3c-3-6.1-7.8-10.8-14.2-13.8c-6.4-3-14.4-4.5-23.9-4.5h-39.3V34h1.7C213.4,34,215.3,34.2,216.8,34.5z
		 M268.6,69.6c-1.1,3.3-2.6,6-4.7,8.2c-2.1,2.2-4.6,3.8-7.6,4.9c-3,1.1-6.6,1.7-10.7,1.7h-5.9V34h7.9c4.3,0,7.8,0.7,10.6,2l0,0l0,0
		c4.1,1.8,7,4.5,9,8c2,3.5,3,8.1,3,13.7C270.2,62.3,269.7,66.3,268.6,69.6z"/>
	<polygon class="st0" points="286.7,40.5 286.7,40.5 286.7,40.5 	"/>
	<path class="st0" d="M42,204.4c0-4.6-2.7-9-8-12.9c-0.8-0.6-1.6-1.1-2.5-1.7c-0.5-0.3-1-0.6-1.5-0.9c-1.6-1-3.3-2-5.4-3.1
		c-2-1.1-3.7-2.2-5.1-3.3c-0.5-0.4-0.9-0.7-1.3-1.1c-2-1.9-3.2-3.9-3.4-6.2c0-0.3-0.1-0.6-0.1-1c0-1.4,0.3-2.6,0.8-3.6
		c1.6-2.8,4.5-4.2,8.7-4.2c4.2,0,7,0.9,8.3,2.6c-1.6,1.1-2.4,2.6-2.4,4.5c0,0.7,0.1,1.4,0.4,2c0.9,2.1,2.5,3.1,4.9,3.1
		c1.5,0,2.8-0.5,3.8-1.7c1-1.1,1.5-2.5,1.5-4.1c0-3-1.6-5.6-4.7-7.7c-3.2-2.1-7.2-3.2-12.1-3.2c-4.9,0-9,1.4-12.4,4.1
		c-3.3,2.7-5,6.3-5,10.7c0,5.6,3.2,10.5,9.7,14.7c1.8,1.1,4.2,2.6,7.2,4.3c3.1,1.7,5.2,3.1,6.5,4.1c2.5,2.1,3.7,4.3,3.7,6.7
		c0,1.4-0.3,2.6-0.9,3.6c-1.7,3-4.7,4.5-9.2,4.5c-4.5,0-7.7-1-9.6-2.9c1.4-1.1,2.2-2.5,2.2-4c0-1.6-0.5-2.9-1.5-3.9
		c-1-1-2.3-1.6-3.8-1.6c-0.8,0-1.6,0.2-2.3,0.5c-2.3,1-3.4,2.9-3.4,5.7c0,2.8,1.7,5.3,5,7.5c0.8,0.5,1.7,1,2.7,1.4
		c2.9,1.2,6.4,1.8,10.5,1.8c5.5,0,10-1.3,13.4-3.8C40.2,212.7,42,209.1,42,204.4z"/>
	<path class="st0" d="M92.2,204.9h-5.4l-1.7,4.6c-0.3,0.6-0.6,1.3-0.9,1.9c-0.9,1.9-2.8,2.9-5.7,2.9H62.7v-21.8h7.2
		c2.7,0,4.5,0.3,5.4,0.8c0.1,0.1,0.2,0.2,0.3,0.3c0.7,0.7,1,2,1,4h4.8v0v-14.4h-4.8c0,1.3-0.1,2.3-0.4,3c-0.2,0.7-0.7,1.2-1.3,1.6
		c-0.6,0.4-2.3,0.6-5.1,0.6h-7.2v0v-21.6h14.7c2.2,0,3.7,0.5,4.6,1.4c0.5,0.5,1,1.8,1.5,3.8l1,4.2l5.4,0l-1.4-13.5H48.1v4.1
		c2.3,0,3.9,0.3,4.9,0.9c0.9,0.6,1.4,1.6,1.4,3.2v39.5v0c0,0.7-0.1,1.4-0.3,1.9c-0.2,0.5-0.6,1-1.3,1.4s-2.2,0.7-4.6,0.7v4.1h42.6
		L92.2,204.9z"/>
	<path class="st0" d="M110,191.4c1.8,1.1,4.2,2.6,7.2,4.3c3.1,1.7,5.2,3.1,6.5,4.1c2.5,2.1,3.7,4.3,3.7,6.7c0,1.4-0.3,2.6-0.9,3.6
		c-1.7,3-4.7,4.5-9.2,4.5c-4.5,0-7.7-1-9.6-2.9c1.4-1.1,2.2-2.5,2.2-4c0-1.6-0.5-2.9-1.5-3.9c-1-1-2.3-1.6-3.8-1.6
		c-0.8,0-1.6,0.2-2.3,0.5c-2.3,1-3.4,2.9-3.4,5.7c0,2.8,1.7,5.3,5,7.5c2.9,1.9,6.6,3,11.2,3.2c0.7,0,1.3,0.1,2,0.1
		c5.5,0,10-1.3,13.4-3.8c3.5-2.5,5.2-6.2,5.2-10.9c0-5.3-3.5-10.2-10.5-14.6c-1.9-1.2-4.1-2.5-6.9-4c-2.7-1.5-4.8-3-6.4-4.4
		c-2-1.9-3.2-3.9-3.4-6.2c0-0.3-0.1-0.6-0.1-1c0-1.4,0.3-2.6,0.8-3.6c1.6-2.8,4.5-4.2,8.7-4.2s7,0.9,8.3,2.6
		c-1.6,1.1-2.4,2.6-2.4,4.5c0,0.7,0.1,1.4,0.4,2c0.9,2.1,2.5,3.1,4.9,3.1c1.5,0,2.8-0.5,3.8-1.7c1-1.1,1.5-2.5,1.5-4.1
		c0-3-1.6-5.6-4.7-7.7c-3.2-2.1-7.2-3.2-12.1-3.2c-4.9,0-9,1.4-12.4,4.1c-1.2,1-2.3,2.2-3,3.4c-1.3,2.1-2,4.5-2,7.3
		C100.3,182.3,103.6,187.2,110,191.4z"/>
	<path class="st0" d="M188.4,162.6h-47.3l-1.6,18.3l5.4,0l1.1-7.5c0.4-2.7,1.4-4.6,3.2-5.6c1-0.6,2.3-0.9,3.9-0.9h7.6h0v43.3
		c0,0.7-0.1,1.4-0.4,1.9c-0.3,0.5-0.9,1-1.8,1.5c-0.9,0.5-2.8,0.7-5.6,0.7v4.1h23.9v-4.1c-3.1,0-5.2-0.3-6.2-0.9
		c-1-0.6-1.5-1.6-1.5-3.2v0v-43.3h7.6c2.2,0,4,0.7,5.4,2.2c0.8,0.8,1.3,2.3,1.6,4.3l1.1,7.5l5.4,0L188.4,162.6z"/>
	<path class="st0" d="M238.1,213.7c-1.4,0-2.5-0.9-3.3-2.8c-0.4-0.8-0.9-2.4-1.6-4.6c-0.6-2.2-1.2-4-1.8-5.5c-1.6-4.3-4.1-7-7.5-8
		c3.9-1.1,6.9-2.9,9.2-5.4c2.2-2.5,3.4-5.6,3.4-9.1c0-1.7-0.1-3.1-0.3-4.3c-1.4-7.5-8.1-11.3-20.3-11.3H193v4.1c2.6,0,4.4,0.3,5.4,1
		c0.5,0.4,0.8,1.4,0.8,3v39.4c0,0.7-0.1,1.4-0.2,1.9c-0.1,0.5-0.5,1-1.2,1.5c-0.6,0.5-2.3,0.7-4.9,0.7v4.1h0h23v-4.1
		c-3.9,0-6.2-0.3-6.9-0.9c-0.8-0.6-1.2-1.2-1.3-2c-0.1-0.8-0.2-1.8-0.2-3v-14.2h8.2c2.2,0,3.9,1.2,5.2,3.5c0.7,1.2,1.6,3.8,2.7,7.8
		c0.4,1.5,0.9,3.2,1.6,5.1c0.6,1.9,1.7,3.9,3.3,5.7c1.5,1.9,4.2,2.8,7.9,2.8c3.7,0,6.3-1.5,7.7-4.5c0.6-1.3,0.9-2.3,0.9-3.1
		c0-0.8,0-1.5,0-2.2c0-0.7-0.1-1.4-0.4-2.3H241C241,211.5,240,213.7,238.1,213.7z M215.9,190.4h-8.3v-23.7h6c5.2,0,8.8,1,10.8,3
		c1.5,1.5,2.5,3.5,2.9,6.1c0.1,0.8,0.2,1.8,0.2,2.7c0,3.9-0.9,6.8-2.6,8.8C223.1,189.4,220.1,190.4,215.9,190.4z"/>
	<path class="st0" d="M278.3,166.7c3.2,0,5.3,0.4,6.1,1.2c0.5,0.4,0.3,1.4-0.5,2.9l-11.6,22.7l-11-22.7c-0.8-1.5-0.9-2.6-0.5-3.2
		c0.4-0.5,1.5-0.8,3.3-0.9c0.3,0,0.5,0,0.8,0v-4.1h-21.5v4.1c2.3,0,4.1,0.4,5.6,1.1c0.9,0.4,1.7,1.4,2.6,2.9l15.5,28.9l0,10.5
		c0,0.7-0.1,1.4-0.4,1.9c-0.3,0.5-0.8,1-1.7,1.5c-0.9,0.5-2.8,0.7-5.6,0.7v4.1h23.3v-4.1c-3.1,0-5.2-0.3-6.2-0.9
		c-1-0.6-1.5-1.6-1.5-3.2v0v-12l14.9-27.4c0.8-1.5,1.8-2.5,3-3.1c1.2-0.6,2.7-0.9,4.5-0.9v-4.1h-19.2V166.7z"/>
	<path class="st0" d="M21.1,263.3h10.4h0v-2.4c-1.2,0-2-0.2-2.3-0.5c-0.3-0.3-0.4-0.9-0.4-1.9V250c0-6.3-2.4-9.4-7.1-9.4
		c-0.7,0-1.3,0.1-2,0.2c-2.1,0.5-3.9,1.4-5.4,2.7c0-1-0.1-1.7-0.4-2.1c-0.2-0.4-0.8-0.7-1.5-0.7c-0.4,0-0.7,0-1.1,0.1
		c-0.3,0.1-0.9,0.2-1.7,0.5c-0.8,0.2-1.9,0.3-3.2,0.3v2.4h0h1.3c0.2,0,0.4,0,0.6,0c0.5,0.1,0.8,0.2,0.9,0.5c0.2,0.3,0.3,1,0.3,2.1
		v12c0,0.4,0,0.8-0.1,1.1c-0.1,0.3-0.3,0.6-0.6,0.8c-0.2,0.2-0.7,0.3-1.5,0.4c-0.3,0-0.5,0-0.9,0v2.4h11.2v-2.4
		c-1.4,0-2.4-0.2-2.9-0.6c-0.3-0.2-0.4-0.8-0.4-1.7v-12.5c1.5-1.5,3.4-2.2,5.8-2.2c1.5,0,2.7,0.7,3.4,2.2c0.4,0.8,0.6,2.2,0.6,4.2
		v8.2c0,0.4,0,0.8-0.1,1.1c0,0.3-0.2,0.6-0.5,0.8c-0.3,0.3-1.1,0.4-2.4,0.4V263.3z"/>
	<path class="st0" d="M59,257.6L59,257.6h-2.3c0,1.2-0.2,2-0.5,2.4c-0.2,0.3-0.6,0.5-1,0.6c-0.1,0-0.3,0-0.5,0c-0.7,0-1-0.9-1-2.6v0
		v-9.9c0-1.2-0.2-2.3-0.5-3.3c-1-2.9-3.7-4.3-8.1-4.3c-2.5,0-4.6,0.5-6.3,1.6c-0.4,0.3-0.8,0.6-1.1,0.9c-1,0.9-1.5,2-1.5,3.3
		c0,0.9,0.3,1.5,0.8,2c0.5,0.5,1.2,0.7,2,0.7c0.8,0,1.5-0.3,2-0.8c0.6-0.5,0.8-1.2,0.8-2c0-0.8-0.4-1.5-1.1-2.1
		c1-0.7,2.2-1.1,3.6-1.1c1.4,0,2.5,0.3,3.3,0.9c0.8,0.6,1.3,1.3,1.3,2.2c0,0.5-0.1,0.9-0.3,1.3c-0.2,0.4-0.6,0.8-1.2,1.1
		c-0.2,0.1-0.6,0.3-1.2,0.5c-0.9,0.4-2.4,0.9-4.3,1.5c-4.2,1.4-6.6,3.4-7.1,6c-0.1,0.4-0.1,0.8-0.1,1.2c0,1.9,0.7,3.3,2,4.4
		c1.3,1,2.9,1.6,4.7,1.6c3.3,0,5.9-1.2,8.1-3.5c0.3,1.1,0.9,1.9,1.7,2.5c0.8,0.6,1.8,1,2.9,1c1.8,0,3-0.6,3.8-1.8c0.7-1,1-2.1,1-3.4
		C59,258.1,59,257.8,59,257.6z M41.2,254.7c0.6-0.9,1.6-1.6,2.9-2.1c0.3-0.1,0.9-0.4,2-0.7s2-0.8,3-1.3v3.4v0c0,2.1-0.6,3.8-1.7,5
		c-0.8,0.9-1.8,1.5-3,1.7c-0.4,0.1-0.8,0.1-1.2,0.1c-0.8,0-1.5-0.3-2.1-0.8c-0.6-0.5-0.8-1.3-0.8-2.3
		C40.2,256.5,40.5,255.6,41.2,254.7z"/>
	<path class="st0" d="M79.3,254c-1.3,0.6-2,1.7-2,3.4c0,1.7,1,3.1,2.9,4.4c2,1.3,4.6,1.9,7.8,1.9s5.9-0.8,7.9-2.3
		c2-1.5,3.1-3.7,3.1-6.4c0-3.1-2.1-6-6.2-8.7c-1.1-0.7-2.4-1.5-4.1-2.4c-1.6-0.9-2.9-1.8-3.8-2.6c-1.4-1.3-2.1-2.7-2.1-4.2
		c0-0.8,0.2-1.5,0.5-2.1c1-1.7,2.7-2.5,5.2-2.5s4.1,0.5,4.9,1.5c-0.9,0.6-1.4,1.5-1.4,2.7c0,0.4,0.1,0.8,0.2,1.2
		c0.5,1.2,1.5,1.8,2.9,1.8c0.9,0,1.7-0.3,2.3-1c0.6-0.7,0.9-1.5,0.9-2.4c0-1.8-0.9-3.3-2.8-4.5c-1.9-1.2-4.3-1.9-7.2-1.9
		c-2.9,0-5.3,0.8-7.3,2.4c-2,1.6-3,3.7-3,6.3c0,3.3,1.9,6.2,5.7,8.7c1,0.7,2.5,1.5,4.3,2.5c1.8,1,3.1,1.8,3.9,2.4
		c1.5,1.2,2.2,2.5,2.2,4c0,0.8-0.2,1.5-0.5,2.2c-1,1.8-2.8,2.7-5.4,2.7c-2.6,0-4.5-0.6-5.7-1.7c0.8-0.7,1.3-1.5,1.3-2.4
		c0-0.9-0.3-1.7-0.9-2.3c-0.6-0.6-1.4-0.9-2.3-0.9C80.1,253.7,79.7,253.8,79.3,254z"/>
	<path class="st0" d="M105.2,260.4c-0.5,0.4-1.4,0.5-2.6,0.5v2.4h0H114v-2.4c-1.4,0-2.3-0.2-2.7-0.5c-0.4-0.3-0.6-0.9-0.6-1.9v-26.9
		c0-1-0.1-1.7-0.4-2.2c-0.3-0.4-0.8-0.7-1.5-0.7c-0.4,0-0.8,0-1.1,0.1c-0.4,0.1-1,0.3-1.8,0.5c-0.8,0.2-2,0.3-3.5,0.3v2.4h1.8
		c0.8,0,1.3,0.2,1.5,0.5c0.2,0.3,0.3,1,0.3,2.1v23.8C106,259.4,105.7,260,105.2,260.4z"/>
	<path class="st0" d="M118.4,247.2c-0.5,1.5-0.8,3.1-0.8,4.9c0,3.5,0.9,6.3,2.8,8.5c1.8,2.1,4.5,3.2,8.1,3.2c3.5,0,6.2-1.1,8.1-3.3
		c1.8-2.2,2.7-5.1,2.7-8.7s-1-6.3-3-8.3c-2-1.9-4.6-2.9-7.8-2.9c-3.2,0-5.8,1-7.7,2.9C119.7,244.5,118.9,245.7,118.4,247.2z
		 M128.4,243.2c0.8,0,1.6,0.2,2.3,0.5c2.3,1.1,3.4,4,3.4,8.5c0,2.8-0.5,5-1.6,6.5c-1.1,1.6-2.4,2.3-4.1,2.3c-1.7,0-3.1-0.8-4.1-2.3
		c-1.1-1.6-1.6-3.8-1.6-6.7c0-1.5,0.1-2.8,0.4-4C123.9,244.9,125.7,243.2,128.4,243.2z"/>
	<path class="st0" d="M139.8,241v2.4c1.1,0,1.8,0.2,2.2,0.5c0.3,0.3,0.7,0.9,1.2,1.9l8.3,17.5h0h2.4l8.1-17.5
		c0.4-0.8,0.8-1.4,1.3-1.8c0.5-0.4,1.2-0.6,2.1-0.6V241h-10h0v2.4c1.7,0,2.8,0.2,3.3,0.5s0.6,1,0.2,1.8l-5.3,12l-5-12
		c-0.4-0.9-0.4-1.5,0-1.9c0.4-0.3,1.4-0.5,3-0.5V241H139.8L139.8,241z"/>
	<path class="st0" d="M187,250.3c0-1.3-0.3-2.7-0.8-4.2c-1.3-3.7-4.3-5.5-8.9-5.5c-3.5,0-6.2,1.1-8,3.3c-1.9,2.2-2.8,5.2-2.8,8.8
		c0,3.6,1.2,6.5,3.5,8.5c2,1.7,4.3,2.5,7,2.5c2.7,0,4.8-0.5,6.4-1.6c1.6-1.1,2.6-2.4,2.9-4l-3.3,0c-1,1.9-2.7,2.9-5.1,2.9
		c-1.8,0-3.2-0.7-4.4-2.1c-1.2-1.4-1.8-3.3-1.8-5.8h15.2C187,252.6,187,251.6,187,250.3z M177.3,243.2c3,0,4.6,2.2,4.6,6.7
		c0,0.3,0,0.5,0,0.8h-10.1h0c0.1-2.4,0.6-4.2,1.6-5.5C174.3,243.8,175.6,243.2,177.3,243.2z"/>
	<path class="st0" d="M208.3,259.6c0,0.3-0.2,0.6-0.5,0.8c-0.3,0.3-1.1,0.4-2.4,0.4v2.4h0h10.4v-2.4c-1.2,0-2-0.2-2.3-0.5
		c-0.3-0.3-0.4-0.9-0.4-1.9V250c0-6.3-2.4-9.4-7.1-9.4c-0.7,0-1.3,0.1-2,0.2c-2.1,0.5-3.9,1.4-5.4,2.7c0-1-0.1-1.7-0.4-2.1
		c-0.2-0.4-0.8-0.7-1.5-0.7c-0.4,0-0.7,0-1.1,0.1c-0.3,0.1-0.9,0.2-1.7,0.5c-0.8,0.2-1.9,0.3-3.2,0.3v2.4h0h1.3
		c0.8,0,1.3,0.2,1.5,0.5c0.2,0.3,0.3,1,0.3,2.1v12c0,0.4,0,0.8-0.1,1.1c-0.1,0.3-0.3,0.6-0.6,0.8c-0.3,0.3-1.1,0.4-2.4,0.4v2.4h0
		h11.1v-2.4c-1.4,0-2.4-0.2-2.9-0.6c-0.3-0.2-0.4-0.8-0.4-1.7v-12.5c1.5-1.5,3.4-2.2,5.8-2.2c1.5,0,2.7,0.7,3.4,2.2
		c0.4,0.8,0.6,2.2,0.6,4.2v8.2C208.4,259,208.4,259.3,208.3,259.6z"/>
	<path class="st0" d="M219.8,256.7c-0.5,0.6-0.8,1.2-0.8,2c0,1.5,0.8,2.7,2.5,3.6c1.7,0.9,3.9,1.4,6.5,1.4c2.6,0,4.7-0.5,6.3-1.6
		c1.6-1.1,2.4-2.6,2.4-4.7c0-2-1.5-3.9-4.6-5.5c-0.8-0.5-1.6-0.9-2.4-1.3c-0.7-0.4-1.5-0.8-2.2-1.1c-0.7-0.4-1.3-0.7-1.9-1.1
		c-0.6-0.4-1-0.8-1.4-1.2s-0.5-0.8-0.5-1.3c0-0.4,0.1-0.8,0.2-1.2c0.6-1.2,1.8-1.8,3.4-1.8c1.7,0,2.9,0.4,3.7,1.1
		c-0.4,0.5-0.6,1-0.6,1.7c0,0.7,0.3,1.3,0.8,1.8c0.5,0.5,1.3,0.8,2.3,0.8c0.6,0,1.3-0.3,2-1c0.4-0.4,0.6-1,0.6-1.8
		c0-1.4-0.8-2.6-2.4-3.4c-1.6-0.9-3.6-1.3-6-1.3c-2.4,0-4.3,0.6-5.9,1.7c-1.5,1.1-2.3,2.6-2.3,4.4c0,2.4,1.5,4.5,4.5,6.1
		c0.9,0.5,2.3,1.3,4.2,2.2c2.7,1.3,4,2.6,4,3.8c0,0.5-0.1,0.9-0.4,1.3c-0.7,0.8-1.9,1.2-3.7,1.2s-3.2-0.3-4.4-1
		c0.5-0.5,0.7-1.1,0.7-1.8c0-0.7-0.3-1.3-0.8-1.9c-0.5-0.5-1.2-0.8-2.1-0.8C221,255.8,220.3,256.1,219.8,256.7z"/>
	<path class="st0" d="M245,229c-0.4,0.1-1,0.3-1.8,0.5c-0.8,0.2-2,0.3-3.5,0.3v2.4h1.8c0.8,0,1.3,0.2,1.5,0.5s0.3,1,0.3,2.1v23.8
		c0,0.9-0.2,1.5-0.7,1.8c-0.5,0.4-1.4,0.5-2.6,0.5v2.4h0h11.3v-2.4c-1.4,0-2.3-0.2-2.7-0.5c-0.4-0.3-0.6-0.9-0.6-1.9v-6.2l0.4,0h0
		h0.3c1.5,0,2.8,0.6,3.9,1.8c0.6,0.7,1.4,2,2.4,4c0.4,0.7,0.7,1.4,1.1,2.1c1.3,2.4,3,3.6,5.1,3.6c2.1,0,3.6-0.8,4.3-2.4
		c0.3-0.7,0.5-1.3,0.5-1.7c0-0.4,0-0.8,0-1.2c0-0.4-0.1-0.8-0.2-1.2h-2.1h0c0,2.2-0.5,3.2-1.5,3.2c-0.4,0-0.7-0.2-1-0.6
		c-0.3-0.4-0.6-0.9-0.9-1.6c-0.3-0.7-0.6-1.4-1-2.2c-1.5-3.1-3.4-5.2-5.8-6.1c0.9-0.8,1.7-1.6,2.6-2.4c2.9-2.5,5.6-3.8,8.4-3.9V241
		h-12.1v2.6h3.8c-0.1,0.2-0.4,0.5-0.7,0.8c-1.8,1.9-3.9,3.8-6.3,5.5h-1.1h0v-18.3c0-1-0.1-1.7-0.4-2.2s-0.8-0.7-1.5-0.7
		C245.8,228.9,245.4,228.9,245,229z"/>
	<path class="st0" d="M270.7,241.2c-0.6,0.2-1.6,0.3-2.9,0.3v2.4h0h0.6c0.8,0,1.3,0.2,1.5,0.5c0.2,0.3,0.3,1,0.3,2.1v9.1
		c0,2.7,0.6,4.7,1.8,6.1c1.2,1.4,3,2,5.2,2c3.1,0,5.5-1.3,7.3-4c0.5,2.7,2.1,4,4.6,4c1.2,0,2.2-0.3,2.9-0.8v-2.1
		c-0.4,0.2-0.8,0.2-1.3,0.2c-0.9,0-1.5-0.3-1.8-1c-0.1-0.3-0.2-1.2-0.2-2.6v-14.1c0-1-0.1-1.7-0.4-2.2c-0.3-0.4-0.8-0.7-1.5-0.7
		c-0.4,0-0.7,0-1.1,0.1c-0.3,0.1-0.9,0.2-1.6,0.5c-0.8,0.2-1.8,0.3-3.2,0.3v2.4h0h1.2c0.8,0,1.3,0.2,1.5,0.5c0.2,0.3,0.3,1,0.3,2.1
		v10.1c-0.4,1.1-1.1,2.1-2.2,2.9c-1,0.8-2.1,1.3-3.1,1.3c-1.6,0-2.7-0.6-3.3-1.7c-0.3-0.6-0.5-1.7-0.5-3.3v-12.3
		c0-1-0.1-1.7-0.4-2.2c-0.3-0.5-0.7-0.7-1.5-0.7c-0.4,0-0.7,0-1,0.1C271.7,240.8,271.3,241,270.7,241.2z"/>
	<rect x="6.1" y="277.6" class="st0" width="285.7" height="1.6"/>
</g>
</svg>
