<?xml version="1.0" encoding="utf-8"?>
<!-- Generator: Adobe Illustrator 16.0.0, SVG Export Plug-In . SVG Version: 6.00 Build 0)  -->
<!DOCTYPE svg PUBLIC "-//W3C//DTD SVG 1.1//EN" "http://www.w3.org/Graphics/SVG/1.1/DTD/svg11.dtd" [
	<!ENTITY ns_flows "http://ns.adobe.com/Flows/1.0/">
	<!ENTITY ns_extend "http://ns.adobe.com/Extensibility/1.0/">
	<!ENTITY ns_ai "http://ns.adobe.com/AdobeIllustrator/10.0/">
	<!ENTITY ns_graphs "http://ns.adobe.com/Graphs/1.0/">
]>
<svg version="1.1" id="Vrstva_1" xmlns:x="&ns_extend;" xmlns:i="&ns_ai;" xmlns:graph="&ns_graphs;"
	 xmlns="http://www.w3.org/2000/svg" xmlns:xlink="http://www.w3.org/1999/xlink" xmlns:a="http://ns.adobe.com/AdobeSVGViewerExtensions/3.0/"
	 x="0px" y="0px" width="296.6px" height="285.4px" viewBox="0 0 296.6 285.4" style="enable-background:new 0 0 296.6 285.4;"
	 xml:space="preserve">
<style type="text/css">
<![CDATA[
	.st0{fill:black;}
]]>
</style>
<g>
	<path class="st0" d="M282.9,85.2c-4.7-7.5-10.3-14.8-16.8-21.6c-13.1-20.2-30.7-36.1-52-46.7C166.7-6.7,113.4-5.4,75.7,19.8
		c-7.1,3.1-14.1,6.7-20.7,10.8c-22.4,14-34,37.7-41,62.9c-13.4,24.1-17.2,48-11.4,71.2c0.2,25.4,8.5,48.8,24.6,68.5
		c24,29.4,64.1,48.3,107.4,50.6c6.8,0.9,13.7,1.4,20.5,1.4c7.8,0,15.6-0.6,23.2-1.9c21.9-3.7,49.3-17.4,71.6-35.8
		c13.2-10.9,23.6-22.6,30-33.8c9.1-15.9,12.7-34.9,12.8-54.1C300.2,131.6,296.9,107.7,282.9,85.2z M280.5,86.7
		c11.7,18.8,15.7,38.6,12,61.2c-1.2-19.4-5.6-38.2-11.1-53.3c-2.2-6.1-4.7-11.9-7.5-17.5C276.2,80.2,278.4,83.4,280.5,86.7z
		 M286.4,171c-7.1,20.2-17.2,45.4-32.1,61.4c-12.7,13.6-26.5,24.5-41.6,32.4c6.5-5.6,12.2-12,19.2-17.8c0.8-0.6,1.5-1.2,2.3-1.8
		c33.3-25,42.6-65.6,49.6-104.9c3.1-17.4-0.5-35.3-13.5-48c-10.1-9.9-22-14.5-29.5-27c-6-10-10.1-20.9-20.2-27.5
		c-16.4-10.8-36.4-18.6-55.7-22.1c-27.3-5-61.9-1.4-83.2,17.8C70.7,43.4,58.2,52,47,62c-8.6,7.6-17.3,17-22.4,27.5
		c-4.3,8.7-5.4,19.2-8.7,28.6c-3.9,11-7.8,22-9.8,33.5c0.2-2.1,0.5-4.2,0.8-6.2l0.5-3c2.3-15.1,4.9-31.7,9.3-47.6
		c0.9-1.6,1.8-3.2,2.8-4.8c12.2-20,31.1-47.1,51.2-62.9c2-1.6,4.1-3.1,6.2-4.5c19.7-8.5,40.8-12.8,62.1-12.8c20.4,0,40.9,4,60.3,12
		c25.1,10.4,47.6,25.7,64.5,43.7c5.9,9.2,10.9,19.3,14.9,30.3c6.4,17.8,11.4,40.9,11.3,63.8C289,163.1,287.8,167,286.4,171z
		 M41.9,222c13.3,9.8,26.2,20.1,39.4,30c14.9,11.2,33.5,14,50.9,20c11.7,4,23.1,7.1,34.6,7.8c-10.1,1.5-20.6,2-31.5,1.4
		c-0.2,0-0.3,0-0.5,0c-25.8-3.6-51.1-13.9-72.3-30c-14-10.6-26.7-24.9-36.9-41.1C30.8,214.2,36.4,218,41.9,222z M26.7,121.7
		c0-0.7,0.3-1.3,1-1.8c0.7-0.5,1.3-0.7,2-0.7c0.7,0,1.3,0.3,1.6,1l14.4,38.2l14.5-38.2c0.4-0.7,0.9-1,1.6-1c0.7,0,1.3,0.2,2,0.7
		c0.7,0.5,1,1.1,1,1.8c0,0.2,0,0.4-0.1,0.7l-15.9,41.8c-0.3,0.7-0.8,1.2-1.4,1.7c-0.6,0.5-1.2,0.7-1.7,0.7c-0.5,0-1.1-0.2-1.7-0.6
		c-0.6-0.4-1.1-1-1.5-1.7l-15.8-41.8C26.7,122.1,26.7,121.9,26.7,121.7z M68,150.8c-1.2,0-1.8-0.7-1.8-2.4c0-0.7,0.2-1.3,0.5-1.8
		s0.8-0.8,1.3-0.8h4.6l9.3-24.4c0.4-0.7,0.8-1.2,1.5-1.6c0.6-0.4,1.2-0.6,1.7-0.6c0.5,0,1,0.2,1.7,0.7s1.1,0.8,1.4,1.5l9.3,24.4h4.4
		c0.6,0,1,0.4,1.4,0.9c0.3,0.5,0.5,1,0.5,1.7c0,1.7-0.6,2.4-1.9,2.4h-2.4l4.6,12.4c0.1,0.3,0.1,0.6,0.1,0.8c0,0.7-0.3,1.3-1,1.8
		c-0.7,0.5-1.3,0.8-2,0.8c-0.7,0-1.3-0.5-1.6-1.2l-5.4-14.5h-18l-5.4,14.5c-0.4,0.7-0.9,1.1-1.6,1.1c-0.7,0-1.3-0.2-2-0.7
		c-0.7-0.5-1-1.1-1-1.7c0-0.2,0-0.6,0.1-0.8l4.6-12.3H68z M148.8,163.5c0.3,0.5,0.4,0.9,0.4,1.3c0,0.5-0.2,1-0.6,1.3
		c-0.4,0.3-1,0.5-1.6,0.5c-1.4,0-2.5-0.6-3.3-1.7l-11.1-16.5c-2.2,0.3-4.9,0.5-8,0.5c-0.9,0-2.3-0.1-4.1-0.2
		c-1.8-0.1-3.1-0.2-4.1-0.2v16.3c0,0.6-0.2,1-0.7,1.4c-0.5,0.3-1.1,0.5-1.8,0.5c-1.7,0-2.6-0.6-2.6-1.8v-43.6c0-1.3,0.9-1.9,2.5-1.9
		c1.6,0,2.4,1,2.4,2.9c4.6-2,9.1-3,13.4-3c6.1,0,10.6,1.5,13.4,4.4c2.9,2.9,4.3,6.6,4.3,11.1c0,6.3-3.2,10.5-9.7,12.6L148.8,163.5z
		 M163.5,188c0,0,0.3,0.9-0.1,2.9h7.4c0.3,0,0.5,0,0.6,0.2c0.2,0.2,0.2,0.4,0.2,0.7c0,0.7-0.3,1-0.8,1h-9.7c-0.2,0-0.4,0-0.7,0h0
		c-4,0-3-5-3-5s2.6-48,2.1-54.7c0-0.3-0.1-0.7-0.6-1.1c-4-3.1-5.5-6.8-5.5-15.7l1-16.4h0.4l1.2,20.8c0,0.5,0.2,1,0.6,1
		c0.4,0,0.6-0.5,0.6-1l1.1-20.8h0.5l1.1,20.8c0,0.5,0.2,1,0.6,1s0.6-0.5,0.6-1l1.2-20.8h0.4l1.1,20.8c0,0.5,0.2,1,0.6,1
		c0.4,0,0.6-0.5,0.6-1l1.1-20.8h0.5l1,16.4c0,8.9-1.5,12.6-5.5,15.6c-0.5,0.4-0.6,0.9-0.6,1.2C160.9,139.8,163.5,188,163.5,188z
		 M199,146.2c-1.1,1.6-2.4,2.4-4,2.4c-1.4,0-2.6-0.8-3.7-2.4l-12.1-17.8v36.3c0,0.6-0.4,1-0.9,1.4c-0.5,0.3-1,0.5-1.7,0.5
		c-1.7,0-2.4-0.6-2.4-1.9v-43.6c0-0.6,0.2-1.1,0.9-1.5c0.7-0.4,1.4-0.6,2.3-0.6c0.9,0,1.5,0.3,1.8,0.8l15.8,23.6l15.9-23.6
		c0.3-0.5,0.9-0.8,1.7-0.8c0.8,0,1.6,0.2,2.4,0.6c0.8,0.4,1.2,0.9,1.2,1.4v43.6c0,0.6-0.3,1-0.8,1.4c-0.5,0.3-1.1,0.5-1.7,0.5
		c-1.7,0-2.5-0.6-2.5-1.9v-36.3L199,146.2z M174.3,171.7c0.7,0,1,0.3,1,0.8v13.5c0,0.9,0.5,1.8,1.3,2.5c0.8,0.7,1.7,1.2,2.6,1.5
		c0.9,0.3,1.7,0.5,2.4,0.5c0.8,0,1.7-0.2,2.7-0.5c0.9-0.3,1.9-0.8,2.7-1.5s1.3-1.5,1.3-2.5v-13.5c0-0.6,0.2-0.8,1-0.8
		c0.3,0,0.5,0.1,0.7,0.2c0.2,0.1,0.3,0.4,0.3,0.6v13.8c0,1.2-0.5,2.3-1.4,3.3c-0.9,1-2,1.8-3.2,2.3c-1.3,0.5-2.5,0.8-3.8,0.8
		c-2,0-4-0.6-5.8-1.9c-1.8-1.2-2.8-2.8-2.8-4.6v-13.8c0-0.3,0.1-0.5,0.3-0.6C173.8,171.8,174,171.7,174.3,171.7z M155.3,182.2
		c0,3.2-0.8,5.8-2.4,7.7c-1.6,2-3.6,2.9-6,3c-2.3,0-4.4-1-6.1-3c-1.7-2-2.5-4.5-2.5-7.6c0-3.1,0.8-5.6,2.5-7.7
		c1.7-2,3.7-3.1,6.1-3.1c2.3,0,4.3,1,5.9,3.1C154.4,176.8,155.3,179.3,155.3,182.2z M136.1,178.6c0,2.2-0.9,3.9-2.6,4.8
		c-1.7,1-4.2,1.5-7.5,1.5c-0.4,0-1,0-1.8-0.1c-0.8-0.1-1.8-0.1-1.8-0.1v7.2c0,0.3-0.1,0.5-0.3,0.6c-0.2,0.1-0.4,0.2-0.7,0.2
		c-0.8,0-1-0.3-1-0.8v-19.4c0-0.6,0.3-0.8,1-0.8c0.7,0,1,0.4,1,1.3c2-0.9,4-1.3,5.9-1.3c2.7,0,4.7,0.7,6,2
		C135.5,175,136.1,176.6,136.1,178.6z M113,172.5c1.4,0.5,2.4,1.3,3.1,2.2c0,0,0,0.1,0,0.2c0,0.2-0.2,0.5-0.5,0.7
		c-0.3,0.3-0.6,0.4-0.9,0.4c0,0-0.2-0.1-0.4-0.2c-1.6-1.3-3.5-2-5.8-2c-1.4,0-2.7,0.3-3.7,0.8c-1.1,0.5-1.6,1.3-1.6,2.4
		c0,0.7,0.3,1.4,0.8,1.8c0.5,0.5,1.1,0.8,1.9,1c0.8,0.2,1.6,0.4,2.5,0.6c0.9,0.2,1.9,0.4,2.9,0.7c1,0.3,1.9,0.6,2.6,1
		c0.8,0.4,1.4,1,1.9,1.8c0.5,0.8,0.7,1.8,0.7,3c0,3.7-2.4,5.6-7.3,5.6c-1.6,0-3.1-0.3-4.7-0.9c-1.5-0.6-2.8-1.4-3.8-2.4
		c-0.1-0.1-0.2-0.3-0.2-0.6c0-0.3,0.1-0.6,0.3-0.9c0.2-0.3,0.5-0.5,0.8-0.5c0.1,0,0.2,0,0.2,0.1c0.7,0.7,1.7,1.4,3.1,2
		c1.4,0.6,2.7,0.9,3.9,0.9c3.6,0,5.3-1.2,5.3-3.6c0-0.8-0.2-1.5-0.7-2s-1.2-0.9-2-1.2s-1.7-0.5-2.6-0.7c-0.9-0.2-1.8-0.4-2.8-0.6
		c-0.9-0.2-1.8-0.5-2.6-0.9c-0.8-0.4-1.4-1-1.9-1.7c-0.5-0.8-0.7-1.7-0.7-2.9c0-1.7,0.7-3,2.2-3.9c1.5-0.9,3.2-1.4,5.3-1.4
		C110.1,171.7,111.6,172,113,172.5z M256.6,137.8c0.6,0,1,0.1,1.4,0.6s0.5,1.1,0.5,1.8c0,1.7-0.6,2.6-1.9,2.6h-25.3v19h31.3
		c0.6,0,1,0.1,1.4,0.6c0.3,0.5,0.5,1.2,0.5,1.8c0,1.7-0.6,2.6-1.9,2.6h-34.5c-0.8,0-1.3-0.4-1.5-1c-0.2-0.5-0.3-1.6-0.3-2.8v-40.5
		c0-2.2,0.7-3.8,1.8-3.8h34.5c0.6,0,1,0.5,1.4,1c0.3,0.5,0.5,1,0.5,1.6c0,1.7-0.6,2.4-1.9,2.4h-31.3v14H256.6z M143.9,3.2
		c24.7,0,49.2,6.3,69,16.2c15.9,7.9,29.7,18.9,41.1,32.4c-15.3-13.3-33.6-24.7-53.5-32.9C165.8,4.6,127.7,3,92.8,13.6
		C108.9,6.3,126.5,3.2,143.9,3.2z M56.5,33c2.6-1.6,5.3-3.2,8-4.6c-17.2,15-33.1,37.2-44.4,55.1C27.1,63,38,44.5,56.5,33z
		 M10.9,106.4c-2.6,12-4.5,24.1-6.3,35.4l-0.5,3c-0.4,2.4-0.7,4.8-0.9,7.2C1.7,137,4.3,121.7,10.9,106.4z M29.4,231.5
		c-11.6-14.2-19.1-30.5-22.2-48c1,3.4,2.3,6.6,3.9,9.7c2,3.7,4.5,7,7.3,10c11.1,19.9,25.9,37.5,42.5,50.1
		c13.3,10.1,28.2,18,43.8,23.4C74.1,269.3,47.2,253.4,29.4,231.5z M277.6,212.4c-6.3,10.9-16.4,22.4-29.4,33
		c-21.9,18.1-48.9,31.6-70.3,35.2c-0.4,0.1-0.7,0.1-1.1,0.2c30.2-6.4,56.8-21.9,79.5-46.5c15.2-16.4,25.5-42,32.7-62.4
		c0.2-0.5,0.3-1,0.5-1.5C288.3,185.4,284.7,200,277.6,212.4z"/>
	<path class="st0" d="M139,127c-2.2-1.9-5.6-2.8-10.2-2.8c-3.9,0-7.6,1.2-12.6,3.6v14.9c2,0.6,5.6,0.9,11.1,0.9
		c4.5,0,8.1-0.8,10.8-2.4c2.7-1.6,4.1-4,4.1-7.2C142.3,131.2,141.2,128.8,139,127z"/>
	<path class="st0" d="M146.9,173.8c-1.7,0-3.3,0.9-4.5,2.6s-1.9,3.7-1.9,5.9c0,2.3,0.6,4.2,1.9,5.9c1.3,1.6,2.8,2.5,4.5,2.5
		c1.7,0,3.2-0.8,4.4-2.5s1.8-3.6,1.8-5.9c0-2.2-0.6-4.2-1.8-5.9C150,174.7,148.6,173.8,146.9,173.8z"/>
	<path class="st0" d="M122.3,175.5v6.6c1,0.3,2.5,0.4,4.9,0.4c2,0,3.6-0.4,4.8-1.1c1.2-0.7,1.8-1.8,1.8-3.2c0-1.2-0.5-2.2-1.5-3.1
		c-1-0.8-2.5-1.2-4.5-1.2C126.1,173.9,124.3,174.5,122.3,175.5z"/>
	<polygon class="st0" points="85.1,127 78,145.8 92.2,145.8 	"/>
</g>
</svg>
