<?xml version="1.0" encoding="utf-8"?>
<!-- Generator: Adobe Illustrator 16.0.0, SVG Export Plug-In . SVG Version: 6.00 Build 0)  -->
<!DOCTYPE svg PUBLIC "-//W3C//DTD SVG 1.1//EN" "http://www.w3.org/Graphics/SVG/1.1/DTD/svg11.dtd" [
	<!ENTITY ns_flows "http://ns.adobe.com/Flows/1.0/">
	<!ENTITY ns_extend "http://ns.adobe.com/Extensibility/1.0/">
	<!ENTITY ns_ai "http://ns.adobe.com/AdobeIllustrator/10.0/">
	<!ENTITY ns_graphs "http://ns.adobe.com/Graphs/1.0/">
]>
<svg version="1.1" id="Vrstva_1" xmlns:x="&ns_extend;" xmlns:i="&ns_ai;" xmlns:graph="&ns_graphs;"
	 xmlns="http://www.w3.org/2000/svg" xmlns:xlink="http://www.w3.org/1999/xlink" xmlns:a="http://ns.adobe.com/AdobeSVGViewerExtensions/3.0/"
	 x="0px" y="0px" width="295.9px" height="123.4px" viewBox="0 0 295.9 123.4" style="enable-background:new 0 0 295.9 123.4;"
	 xml:space="preserve">
<style type="text/css">
<![CDATA[
	.st0{fill:black;}
	.st1{fill:none;}
]]>
</style>
<g>
	<path class="st1" d="M58.9,36.4H54c-4.3,0-6.2,1.2-6.2,4c0,2.5,1.7,3.7,5.1,3.7c4.4,0,6.5-1.6,6.5-4.9v-2.4
		C59.3,36.5,59.2,36.4,58.9,36.4z M58.9,36.4H54c-4.3,0-6.2,1.2-6.2,4c0,2.5,1.7,3.7,5.1,3.7c4.4,0,6.5-1.6,6.5-4.9v-2.4
		C59.3,36.5,59.2,36.4,58.9,36.4z M34.3,50.9v-0.5 M139.3,50.4v0.5h1.6 M68.3,50.9v-0.5 M58.9,36.4H54c-4.3,0-6.2,1.2-6.2,4
		c0,2.5,1.7,3.7,5.1,3.7c4.4,0,6.5-1.6,6.5-4.9v-2.4C59.3,36.5,59.2,36.4,58.9,36.4z M58.9,36.4H54c-4.3,0-6.2,1.2-6.2,4
		c0,2.5,1.7,3.7,5.1,3.7c4.4,0,6.5-1.6,6.5-4.9v-2.4C59.3,36.5,59.2,36.4,58.9,36.4z M177.8,50.9v-0.5 M56.7,10.9v-0.5 M34.3,50.9
		v-0.5 M162.3,43.6v-0.5 M177.8,50.9v-0.5 M52.8,44.6v-0.5 M58.9,36.4H54c-4.3,0-6.2,1.2-6.2,4c0,2.5,1.7,3.7,5.1,3.7
		c4.4,0,6.5-1.6,6.5-4.9v-2.4C59.3,36.5,59.2,36.4,58.9,36.4z M58.9,36.4H54c-4.3,0-6.2,1.2-6.2,4c0,2.5,1.7,3.7,5.1,3.7
		c4.4,0,6.5-1.6,6.5-4.9v-2.4C59.3,36.5,59.2,36.4,58.9,36.4z M58.9,36.4H54c-4.3,0-6.2,1.2-6.2,4c0,2.5,1.7,3.7,5.1,3.7
		c4.4,0,6.5-1.6,6.5-4.9v-2.4C59.3,36.5,59.2,36.4,58.9,36.4z"/>
	<path class="st0" d="M13.5,41.2v0.1h20.8c0.4,0,0.7,0.3,0.7,0.7v8.1c0,0.4-0.3,0.7-0.7,0.7H1.9c-0.4,0-0.7-0.3-0.7-0.7v-8
		c0-0.3,0.1-0.5,0.2-0.7l1.3-1.8l20-28.5V11h-20C2.3,11,2,10.7,2,10.3V2.2c0-0.4,0.3-0.7,0.7-0.7h31.6c0.4,0,0.7,0.3,0.7,0.7v8
		c0,0.3-0.1,0.5-0.2,0.7L13.5,41.2z"/>
	<path class="st0" d="M53.4,15c-2.9,0-5.4,0.3-7.6,1c-2.2,0.6-4,1.5-5.5,2.5c-0.4,0.2-0.4,0.6-0.2,1l3.3,5.7
		c0.1,0.2,0.3,0.3,0.5,0.3c0.1,0,0.3-0.1,0.4-0.2c1.7-1.2,4.3-2.2,7.8-2.2c5.6,0,7.2,1.5,7.2,4.8v1.3c0,0.3-0.1,0.4-0.4,0.4h-6.2
		c-8.7,0-14.6,3.6-14.6,11.3c0,7.5,5.5,10.7,11.7,10.7c4.8,0,7.8-1.5,9.6-3.9h0.1v2.3c0,0.4,0.3,0.7,0.7,0.7h8.1
		c0.4,0,0.7-0.3,0.7-0.7V27.7C69,18.9,64.9,15,53.4,15z M59.3,39.2c0,3.3-2.2,4.9-6.5,4.9c-3.3,0-5.1-1.2-5.1-3.7c0-2.8,2-4,6.2-4
		h4.9c0.3,0,0.4,0.1,0.4,0.4V39.2z"/>
	<path class="st0" d="M65.2,0.7l-0.5,0.7L58,10.2c-0.4,0.6-0.7,0.7-1.4,0.7H50c-0.4,0-0.6-0.3-0.4-0.7l5.2-8.8l0.4-0.7
		C55.5,0.2,55.9,0,56.5,0h8.3C65.3,0,65.5,0.4,65.2,0.7z"/>
	<path class="st0" d="M177.8,1.5h-8.7c-0.4,0-0.7,0.3-0.7,0.7V19h-0.1c-1.7-2.4-4.6-4.1-9.2-4.1c-5.9,0-10.1,2.8-11.9,8.4
		c-0.9,2.8-1.2,5.4-1.2,9.9c0,4.5,0.4,7.2,1.2,9.9c1.8,5.5,6,8.4,11.9,8.4c4.6,0,7.5-1.7,9.2-4.1h0.1v2.5c0,0.4,0.3,0.7,0.7,0.7h8.7
		c0.4,0,0.7-0.3,0.7-0.7V2.2C178.5,1.8,178.2,1.5,177.8,1.5z M156.9,39.3c-0.4-1.4-0.7-2.9-0.7-6c0-3.1,0.2-4.6,0.7-6
		c0.8-2.5,2.7-3.8,5.4-3.8c2.7,0,4.6,1.2,5.4,3.8c0.4,1.4,0.6,2.9,0.6,6c0,3.1-0.2,4.6-0.6,6c-0.8,2.5-2.7,3.8-5.4,3.8
		C159.6,43.1,157.7,41.8,156.9,39.3z"/>
	<path class="st0" d="M216,16.5l-14.2,37.4c-1.6,4.1-3.2,6.7-5.3,8.2c-1.9,1.4-4.1,1.9-7.1,1.9h-2.5c-0.4,0-0.7-0.3-0.7-0.7v-7.1
		c0-0.4,0.3-0.7,0.7-0.7h1.5c2.5,0,3.9-1,4.8-3.6l0.9-2.6l-13.1-32.7c-0.1-0.4,0.1-0.7,0.6-0.7h9.3c0.4,0,0.7,0.3,0.9,0.7l7,20.3
		h0.1l6.5-20.3c0.1-0.4,0.4-0.7,0.9-0.7h9C216,15.7,216.2,16,216,16.5z"/>
	<path class="st0" d="M107.2,27.6v22.1c0,0.3-0.1,0.6-0.3,0.9c-0.2,0.2-0.5,0.3-0.9,0.3h-8.7c-0.3,0-0.6-0.1-0.9-0.3
		c-0.2-0.2-0.3-0.5-0.3-0.9V29.5c0-1.9-0.4-3.3-1.3-4.3c-0.8-1-2-1.6-3.7-1.6c-1.6,0-2.9,0.6-3.7,1.6c-0.9,1-1.3,2.5-1.3,4.3v20.2
		c0,0.3-0.1,0.6-0.3,0.9c-0.2,0.2-0.5,0.3-0.9,0.3h-8.7c-0.3,0-0.6-0.1-0.9-0.3C75.1,50.3,75,50,75,49.7V1.8c0-0.3,0.1-0.6,0.3-0.9
		c0.2-0.2,0.5-0.3,0.9-0.3h8.7c0.3,0,0.6,0.1,0.9,0.3c0.2,0.2,0.3,0.5,0.3,0.9v15.5c-0.3,0.3-0.5,0.6-0.8,0.9l0.3,0.2v0.1h0.5v-1.2
		c1.8-1.9,4.7-3.3,8.7-3.3c4,0,7.1,1.4,9.3,3.8C106.1,20.2,107.2,23.6,107.2,27.6z"/>
	<path class="st0" d="M86.1,17.3v1.2h-0.5v-0.1l-0.3-0.2C85.5,17.9,85.8,17.6,86.1,17.3z"/>
	<path class="st0" d="M32.2,87v22.1c0,0.3-0.1,0.6-0.3,0.9c-0.2,0.2-0.5,0.3-0.9,0.3h-8.7c-0.3,0-0.6-0.1-0.9-0.3
		c-0.2-0.2-0.3-0.5-0.3-0.9V88.9c0-1.9-0.4-3.3-1.3-4.3c-0.8-1-2-1.6-3.7-1.6c-1.6,0-2.9,0.6-3.7,1.6c-0.9,1-1.3,2.5-1.3,4.3v20.2
		c0,0.3-0.1,0.6-0.3,0.9c-0.2,0.2-0.5,0.3-0.9,0.3H1.2c-0.3,0-0.6-0.1-0.9-0.3c-0.2-0.2-0.3-0.5-0.3-0.9V61.2c0-0.3,0.1-0.6,0.3-0.9
		C0.6,60.1,0.9,60,1.2,60h8.7c0.3,0,0.6,0.1,0.9,0.3c0.2,0.2,0.3,0.5,0.3,0.9v15.5c1.8-1.9,4.7-3.3,8.7-3.3c4,0,7.1,1.4,9.2,3.8
		C31.1,79.7,32.2,83,32.2,87z"/>
	<g>
		<path class="st0" d="M66.6,83.2c-0.5-1.6-1.3-3.1-2.3-4.4c-1-1.3-2.2-2.3-3.5-3.2c-2.7-1.7-6.1-2.6-9.9-2.6
			c-3.8,0-7.2,0.9-9.9,2.6c-2.7,1.7-4.8,4.3-5.8,7.6c-0.4,1.3-0.7,2.6-0.9,4c-0.2,1.4-0.3,2.9-0.3,4.7c0,3.5,0.4,6,1.2,8.6
			c0.5,1.6,1.3,3.1,2.3,4.4c1,1.3,2.2,2.3,3.5,3.2c2.7,1.7,6.1,2.6,9.9,2.6c3.8,0,7.2-0.9,9.9-2.6c2.7-1.7,4.8-4.3,5.8-7.6
			c0.4-1.3,0.7-2.6,0.9-4c0.2-1.4,0.3-2.9,0.3-4.7C67.8,88.4,67.4,85.8,66.6,83.2z M56.8,98.4L56.8,98.4c-0.4,1.3-1.2,2.4-2.2,3.1
			c-1,0.7-2.3,1-3.7,1c-1.4,0-2.7-0.3-3.7-1c-1-0.7-1.8-1.7-2.2-3.1v0c-0.5-1.7-0.7-3.2-0.7-6.2c0-1.5,0-2.6,0.1-3.6
			c0.1-1,0.3-1.8,0.5-2.6c0.4-1.3,1.2-2.4,2.2-3.1c1-0.7,2.3-1,3.7-1c1.4,0,2.7,0.3,3.7,1c1,0.7,1.8,1.7,2.2,3.1
			c0.5,1.7,0.7,3.2,0.7,6.2C57.5,95.3,57.3,96.8,56.8,98.4z"/>
	</g>
	<g>
		<path class="st0" d="M126,83.2c-0.5-1.6-1.3-3.1-2.3-4.4c-1-1.3-2.2-2.3-3.5-3.2c-2.7-1.7-6.1-2.6-9.9-2.6c-3.8,0-7.2,0.9-9.9,2.6
			c-2.7,1.7-4.8,4.3-5.8,7.6c-0.4,1.3-0.7,2.6-0.9,4c-0.2,1.4-0.3,2.9-0.3,4.7c0,3.5,0.4,6,1.2,8.6c0.5,1.6,1.3,3.1,2.3,4.4
			c1,1.3,2.2,2.3,3.5,3.2c2.7,1.7,6.1,2.6,9.9,2.6c3.8,0,7.2-0.9,9.9-2.6c2.7-1.7,4.8-4.3,5.8-7.6c0.4-1.3,0.7-2.6,0.9-4
			c0.2-1.4,0.3-2.9,0.3-4.7C127.1,88.4,126.8,85.8,126,83.2z M116.2,98.4L116.2,98.4c-0.4,1.3-1.2,2.4-2.2,3.1c-1,0.7-2.3,1-3.7,1
			c-1.4,0-2.7-0.3-3.7-1c-1-0.7-1.8-1.7-2.2-3.1v0c-0.5-1.7-0.7-3.2-0.7-6.2c0-1.5,0-2.6,0.1-3.6c0.1-1,0.3-1.8,0.5-2.6
			c0.4-1.3,1.2-2.4,2.2-3.1c1-0.7,2.3-1,3.7-1c1.4,0,2.7,0.3,3.7,1c1,0.7,1.8,1.7,2.2,3.1c0.5,1.7,0.7,3.2,0.7,6.2
			C116.8,95.3,116.7,96.8,116.2,98.4z"/>
	</g>
	<g>
		<path class="st0" d="M225.4,83.2c-0.5-1.6-1.3-3.1-2.3-4.4c-1-1.3-2.2-2.3-3.5-3.2c-2.7-1.7-6.1-2.6-9.9-2.6
			c-3.8,0-7.2,0.9-9.9,2.6c-2.7,1.7-4.8,4.3-5.8,7.6c-0.4,1.3-0.7,2.6-0.9,4c-0.2,1.4-0.3,2.9-0.3,4.7c0,3.5,0.4,6,1.2,8.6
			c0.5,1.6,1.3,3.1,2.3,4.4c1,1.3,2.2,2.3,3.5,3.2c2.7,1.7,6.1,2.6,9.9,2.6c3.8,0,7.2-0.9,9.9-2.6c2.7-1.7,4.8-4.3,5.8-7.6
			c0.4-1.3,0.7-2.6,0.9-4c0.2-1.4,0.3-2.9,0.3-4.7C226.6,88.4,226.2,85.8,225.4,83.2z M215.6,98.4L215.6,98.4
			c-0.4,1.3-1.2,2.4-2.2,3.1c-1,0.7-2.3,1-3.7,1c-1.4,0-2.7-0.3-3.7-1c-1-0.7-1.8-1.7-2.2-3.1v0c-0.5-1.7-0.7-3.2-0.7-6.2
			c0-1.5,0-2.6,0.1-3.6c0.1-1,0.3-1.8,0.5-2.6c0.4-1.3,1.2-2.4,2.2-3.1c1-0.7,2.3-1,3.7-1c1.4,0,2.7,0.3,3.7,1
			c1,0.7,1.8,1.7,2.2,3.1c0.5,1.7,0.7,3.2,0.7,6.2C216.3,95.3,216.1,96.8,215.6,98.4z"/>
	</g>
	<path class="st0" d="M96.6,76.1c-0.1-0.1-0.2-0.3-0.3-0.4L95.9,76l0.3-0.4c-1.6-1.4-4-2.2-6.5-2.2c-2.2,0-4.1,0.4-5.8,1.2
		c-1.2,0.6-2.2,1.4-3,2.4v-1.6c0-0.3-0.1-0.6-0.3-0.9c-0.2-0.2-0.5-0.3-0.9-0.3h-8.7c-0.3,0-0.6,0.1-0.9,0.3
		c-0.2,0.2-0.3,0.5-0.3,0.9v33.7c0,0.3,0.1,0.6,0.3,0.9c0.2,0.2,0.5,0.3,0.9,0.3h8.7c0.3,0,0.6-0.1,0.9-0.3c0.2-0.2,0.3-0.5,0.3-0.9
		V90.6c0-2.3,0.4-4.1,1.2-5.3c0.8-1.2,2-1.8,3.8-1.9c0.1,0,0.2,0,0.3,0c1.5,0,3,0.5,4.5,1.5l0,0l0,0c0.2,0.1,0.4,0.2,0.7,0.2
		c0.2,0,0.3,0,0.5-0.1c0.1-0.1,0.3-0.2,0.4-0.3l0,0l4.1-7.4v0c0.1-0.2,0.2-0.4,0.2-0.6C96.7,76.4,96.7,76.2,96.6,76.1z M91,84.6
		l0.2-0.4c0,0,0,0,0,0c0,0,0,0,0,0L91,84.6z M91.7,84.2L91.7,84.2L91.7,84.2C91.7,84.2,91.7,84.2,91.7,84.2l0.4,0.2L91.7,84.2z
		 M95.7,76.8L95.7,76.8L95.7,76.8l0.4,0.2L95.7,76.8z"/>
	<path class="st0" d="M91.3,84.2L91,84.6L91.3,84.2C91.3,84.2,91.3,84.2,91.3,84.2C91.3,84.2,91.3,84.2,91.3,84.2z"/>
	<path class="st0" d="M92.1,84.4l-0.4-0.2l0,0l0,0c0,0,0,0,0,0L92.1,84.4z"/>
	<polygon class="st0" points="96.1,77 95.7,76.8 95.7,76.8 95.7,76.8 	"/>
	<path class="st0" d="M96.2,75.7L95.9,76L96.2,75.7C96.2,75.7,96.2,75.7,96.2,75.7z"/>
	<path class="st0" d="M159.7,98.6L159.7,98.6c0,3.8-1.5,6.9-4.3,9.1c-2.8,2.2-6.8,3.4-11.9,3.4c-7.4,0-12.9-2.6-16.3-5.6l0,0l0,0
		c-0.2-0.2-0.4-0.5-0.4-0.8c0-0.3,0.1-0.6,0.3-0.8c0,0,0,0,0,0l4.7-5.3l0,0c0.2-0.2,0.5-0.4,0.8-0.3c0.3,0,0.6,0.1,0.8,0.3l0,0
		c3,2.3,6.9,3.8,10.5,3.7c1.3,0,2.4-0.2,3.2-0.5c0.8-0.3,1.3-0.7,1.5-1.2c0.2-0.3,0.3-0.7,0.3-1.1c0-0.4,0-0.7-0.2-0.9
		c-0.1-0.3-0.3-0.5-0.6-0.7c-0.6-0.4-1.8-0.8-3.8-1h0l-3.9-0.4h0c-3.8-0.4-6.7-1.5-8.8-3.4c-2-1.9-3.1-4.6-3.1-7.8
		c0-3.6,1.4-6.5,4-8.6c2.6-2,6.3-3.1,10.9-3.1c6,0,11.2,1.9,14.5,4.4l0,0l0,0c0.2,0.2,0.4,0.6,0.4,0.9c0,0.3-0.1,0.6-0.3,0.8l-4.1,5
		h0c-0.2,0.3-0.6,0.5-0.9,0.5c-0.3,0-0.5-0.1-0.7-0.2l0,0h0c-2.3-1.5-5.7-2.8-9.3-2.8c-1.4,0-2.4,0.3-3.1,0.7
		c-0.6,0.4-0.9,1-0.9,1.7c0,0.4,0,0.6,0.2,0.9c0.1,0.2,0.3,0.4,0.6,0.6c0.6,0.4,1.8,0.7,3.7,0.9h0l3.8,0.4h0
		c4.2,0.4,7.2,1.6,9.2,3.6C158.8,92.9,159.7,95.5,159.7,98.6z"/>
	<path class="st0" d="M195.2,108.9l-0.4,0.2L195.2,108.9l-12.1-21l10.5-12.1l-0.3-0.3l0.3,0.3c0.2-0.2,0.3-0.4,0.3-0.6
		c0-0.2-0.1-0.4-0.3-0.6c-0.2-0.2-0.4-0.2-0.6-0.2h-9.3c-0.3,0-0.7,0.1-1,0.2c-0.3,0.2-0.5,0.4-0.8,0.7v0l-9.3,11.4V61.2
		c0-0.3-0.1-0.6-0.3-0.9c-0.2-0.2-0.5-0.3-0.9-0.3h-8.7c-0.3,0-0.6,0.1-0.9,0.3c-0.2,0.2-0.3,0.5-0.3,0.9v47.9
		c0,0.3,0.1,0.6,0.3,0.9c0.2,0.2,0.5,0.3,0.9,0.3h8.7c0.3,0,0.6-0.1,0.9-0.3s0.3-0.5,0.3-0.9v-9.5l3.1-3.8l7.5,13.5v0
		c0.2,0.3,0.3,0.5,0.6,0.7c0.3,0.2,0.6,0.3,0.9,0.3h9.7c0.3,0,0.5-0.1,0.7-0.3c0.2-0.2,0.2-0.4,0.2-0.6
		C195.3,109.2,195.3,109,195.2,108.9z M192.9,75.1L192.9,75.1L192.9,75.1L192.9,75.1L192.9,75.1l0.1,0l0,0L192.9,75.1L192.9,75.1
		L192.9,75.1z M182.6,75.7L182.6,75.7l-0.4-0.3L182.6,75.7z M183.7,109.1l0.4-0.2v0L183.7,109.1z M194.4,109.4L194.4,109.4
		L194.4,109.4L194.4,109.4L194.4,109.4L194.4,109.4L194.4,109.4z"/>
	<polygon class="st0" points="260.4,102.2 259.9,102.1 259.9,102.1 	"/>
	<g>
		<path class="st0" d="M260.8,82.2c-0.5-1.4-1.1-2.7-1.9-3.8c-0.8-1.1-1.7-2-2.7-2.7c-2.1-1.5-4.7-2.2-7.7-2.2c-4.1,0-7,1.3-8.8,3.3
			v-1.3c0-0.3-0.1-0.6-0.3-0.9c-0.2-0.2-0.5-0.3-0.9-0.3h-8.7c-0.3,0-0.6,0.1-0.9,0.3c-0.2,0.2-0.3,0.5-0.3,0.9v46.7
			c0,0.3,0.1,0.6,0.3,0.9c0.2,0.2,0.5,0.3,0.9,0.3h8.7c0.3,0,0.6-0.1,0.9-0.3c0.2-0.2,0.3-0.5,0.3-0.9v-14.4c1.8,2,4.7,3.3,8.8,3.3
			c3,0,5.6-0.7,7.7-2.2c2.1-1.5,3.7-3.7,4.6-6.5h0v0c0.9-2.8,1.3-5.6,1.3-10.1C262.1,87.7,261.7,85,260.8,82.2z M251.1,98.4
			L251.1,98.4c-0.4,1.3-1.2,2.4-2.2,3.1c-1,0.7-2.3,1-3.7,1c-1.4,0-2.7-0.3-3.7-1c-1-0.7-1.7-1.7-2.2-3v0c-0.5-1.4-0.7-3-0.7-6.2
			c0-3.1,0.2-4.7,0.7-6.2c0.4-1.3,1.2-2.4,2.2-3.1c1-0.7,2.2-1,3.7-1c1.4,0,2.7,0.3,3.7,1c1,0.7,1.8,1.7,2.2,3.1
			c0.2,0.7,0.4,1.5,0.5,2.4c0.1,1,0.2,2.2,0.2,3.7C251.8,95.4,251.6,97,251.1,98.4z M259.9,102.1L259.9,102.1l0.4,0.1L259.9,102.1z"
			/>
	</g>
	<path class="st0" d="M295.5,74.5c-0.2-0.2-0.5-0.2-0.7-0.2h-9c-0.3,0-0.6,0.1-0.9,0.3c-0.2,0.2-0.4,0.5-0.5,0.7l0,0l-6.2,19.2
		l-6.7-19.2c-0.1-0.3-0.2-0.5-0.5-0.7c-0.2-0.2-0.5-0.3-0.8-0.3H261c-0.3,0-0.5,0.1-0.7,0.2c-0.2,0.2-0.3,0.4-0.3,0.7
		c0,0.1,0,0.2,0.1,0.4l0,0l13,32.5l-0.9,2.5c-0.4,1.3-0.9,2.1-1.6,2.6c-0.7,0.5-1.5,0.7-2.7,0.7h-1.5c-0.3,0-0.6,0.1-0.9,0.3
		c-0.2,0.2-0.3,0.5-0.3,0.9v7.1c0,0.3,0.1,0.6,0.3,0.9c0.2,0.2,0.5,0.3,0.9,0.3h2.5c3.2,0,5.7-0.6,7.7-2.2c2-1.6,3.6-4.2,5.1-8.2
		l14.2-37.4l0,0c0-0.1,0.1-0.3,0.1-0.4C295.9,74.9,295.8,74.6,295.5,74.5z M260.5,75.4l0.4-0.2l0,0L260.5,75.4z M273,110.9l-0.4-0.2
		L273,110.9L273,110.9L273,110.9z M294.9,75.2L294.9,75.2L294.9,75.2L294.9,75.2L294.9,75.2L294.9,75.2L294.9,75.2L294.9,75.2
		L294.9,75.2z M294.9,75.3L294.9,75.3l0.4,0.2L294.9,75.3z"/>
	<polygon class="st0" points="260.9,75.3 260.5,75.4 260.9,75.3 	"/>
	<polygon class="st0" points="273,110.9 273,110.9 272.6,110.7 273,110.9 	"/>
	<polygon class="st0" points="295,75.2 295,75.2 295,75.2 295,75.2 295,75.2 294.9,75.2 294.9,75.2 295,75.2 	"/>
	<polygon class="st0" points="295.4,75.4 294.9,75.3 294.9,75.3 	"/>
	<g>
		<path class="st0" d="M129.5,43.1c0,0.1-0.1,0.3-0.3,0.6l0,0l0,0c-1.6,2.7-2.9,5.2-3.8,7.6c-1,0.2-2.2,0.3-3.4,0.3
			c-0.6,0-1.1,0-1.7-0.1c-0.3,0-0.5-0.1-0.8-0.1c0.5-0.7,0.9-1.3,1.3-1.8c0.3-0.4,0.5-0.7,0.6-0.8v0c0.3-0.6,0.5-1.4,0.5-2
			c0-0.2,0-0.3,0-0.4c0,0,0,0,0,0c-0.1-0.2-0.3-0.6-0.7-0.9c-0.4-0.3-0.8-0.5-1.4-0.5h-0.1c-0.5,0-1.4,0.3-2.4,0.9
			c-1.1,0.6-2.3,1.6-3.7,2.8h0c0,0-0.1,0.1-0.1,0.1c-0.2-0.1-0.3-0.3-0.5-0.5c-0.6-0.6-1.1-1.3-1.5-2.1c1.1-0.8,2.1-1.6,3.2-2.3
			c2.1-1.4,3.9-2.2,5.3-2.7c0,0,0,0,0.1,0c0.4,1.9,2.1,2.9,5,2.9C126.9,44.1,128.4,43.7,129.5,43.1z"/>
		<path class="st0" d="M125.6,15c-2.9,0-5.4,0.3-7.6,1c-2.2,0.6-4,1.5-5.5,2.5c-0.4,0.2-0.4,0.6-0.2,1l3.3,5.7
			c0.1,0.2,0.3,0.3,0.5,0.3c0.1,0,0.3-0.1,0.4-0.2c1.7-1.2,4.3-2.2,7.8-2.2c5.6,0,7.2,1.5,7.2,4.8v1.3c0,0.3-0.1,0.4-0.4,0.4h-6.2
			c-8.7,0-14.6,3.6-14.6,11.3c0,1.8,0.3,3.3,0.9,4.6c1-0.8,2.1-1.6,3.2-2.3c0,0,0,0,0,0c2.3-1.5,4.2-2.4,5.6-2.8c0,0,0-0.1,0-0.1
			c0-2.8,2-4,6.2-4h4.9c0.3,0,0.4,0.1,0.4,0.4v2.4c0,1.5-0.5,2.7-1.5,3.5c0.1,0.1,0.1,0.3,0.1,0.4c0,0.4-0.2,0.7-0.4,1c0,0,0,0,0,0
			c-1.5,2.5-2.7,4.8-3.5,7.1c2.4-0.6,4.2-1.8,5.4-3.4h0.1v2.3c0,0.4,0.3,0.7,0.7,0.7h8.1c0.4,0,0.7-0.3,0.7-0.7V27.7
			C141.2,18.9,137.1,15,125.6,15z"/>
	</g>
	<path class="st0" d="M136.6,60.2L136.6,60.2c0-0.1,0-0.1-0.1-0.2c0,0-0.1-0.1-0.2-0.1c-0.3,0-0.8,0.2-1.4,0.7
		c-0.9,0.9-2,1.9-3.2,2.7c-1.2,0.7-2.6,1.2-4.1,1.2c-0.7,0-1.4-0.2-1.9-0.5c-0.5-0.3-0.9-0.8-1.1-1.4c-0.5-1.2-0.6-2.7-0.6-4.5
		c0-4.5,2-9.1,5.2-14.4l0,0l0,0c0.2-0.3,0.3-0.5,0.3-0.6c0-0.1,0-0.2-0.1-0.3c-0.1-0.1-0.4-0.3-0.8-0.5h0l0,0
		c-0.3-0.2-0.5-0.2-0.7-0.2c-0.2,0-0.4,0.1-0.7,0.3l-0.1,0l-0.1,0c-0.2,0.1-0.4,0.1-0.6,0.1c-0.4,0-0.8-0.2-1.1-0.5v0
		c-0.2-0.3-0.6-0.6-1-0.9c-0.4-0.3-0.9-0.5-1.3-0.5h-0.1c-0.5,0-1.5,0.1-2.9,0.5c-1.4,0.4-3.1,1.2-5.3,2.7c-2.5,1.6-5,3.7-7.2,5.9
		c-2.2,2.2-4.1,4.5-5.4,6.5l0,0c-3.3,4.6-3.9,7-3.9,8.2c0,1,0.4,1.7,1,2.2c0.6,0.5,1.4,0.9,2,1.1c0.4,0.1,0.8,0.2,1,0.2
		c1.5,0,3.4-0.7,5.8-2.3v0c1.4-0.9,3.5-2.5,5.5-4.1c2-1.6,3.8-3.2,4.5-3.9l0,0l0,0c0.1-0.1,0.3-0.2,0.4-0.3c0.1-0.1,0.3-0.1,0.4-0.1
		c0.1,0,0.2,0,0.3,0.1c0.1,0.1,0.2,0.1,0.2,0.2c0.1,0.2,0.1,0.3,0.1,0.5c0,0.8,0.1,3.1,0.3,4.7c0.2,1.5,1.1,2.8,2.2,3.8
		c1.1,1,2.5,1.5,3.6,1.5c1.5,0,3.4-0.5,5.2-1.4c1.8-0.9,3.5-2.1,4.5-3.4v0h0c1.1-1.2,1.3-2.1,1.3-2.7
		C136.7,60.4,136.6,60.3,136.6,60.2z M122,49.2L122,49.2L122,49.2c-0.1,0.2-0.3,0.5-0.6,0.9c-0.3,0.4-0.6,0.9-1,1.4
		c-0.8,1.1-1.6,2.2-2.3,2.9c-1.6,1.6-3.1,3-4.4,4.3c-1.3,1.2-2.5,2.2-3.4,2.8c-1,0.7-1.9,1.3-2.7,1.6c-0.8,0.4-1.4,0.6-1.9,0.6
		c-0.5,0-1-0.1-1.3-0.5c-0.3-0.3-0.5-0.8-0.5-1.2c0-0.4,0.1-0.9,0.3-1.3c0,0,0,0,0,0c0.5-1.4,1.5-3.4,3-5.7c1.5-2.2,3.4-4.7,6-6.8
		c1.4-1.2,2.7-2.2,3.8-2.9c1.1-0.7,2-1,2.8-1h0.1c0.8,0,1.4,0.3,1.9,0.7c0.5,0.4,0.7,0.9,0.9,1.2v0l0,0c0,0.2,0.1,0.4,0.1,0.6
		C122.6,47.7,122.3,48.5,122,49.2z"/>
	<path class="st0" d="M122.5,46.2L122.5,46.2L122.5,46.2c-0.1-0.4-0.4-0.9-0.9-1.3c-0.5-0.4-1.1-0.7-1.9-0.7h-0.1
		c-0.7,0-1.7,0.4-2.8,1c-1.1,0.7-2.4,1.6-3.8,2.9c-0.1,0-0.1,0.1-0.2,0.2c-2.4,2.1-4.4,4.5-5.8,6.7c-1.5,2.2-2.4,4.3-3,5.7
		c0,0,0,0,0,0c-0.2,0.5-0.3,0.9-0.3,1.3c0,0.5,0.1,0.9,0.5,1.2c0.3,0.3,0.8,0.5,1.3,0.5c0.5,0,1.1-0.2,1.9-0.6
		c0.8-0.4,1.7-0.9,2.7-1.6c0.9-0.6,2.1-1.6,3.4-2.8c1.3-1.2,2.9-2.7,4.4-4.3c0.6-0.6,1.5-1.8,2.2-2.8c0,0,0,0,0-0.1
		c0.4-0.5,0.7-1,1-1.4c0.3-0.4,0.5-0.7,0.6-0.8l0,0l0,0c0.3-0.7,0.6-1.5,0.6-2.3C122.6,46.7,122.6,46.4,122.5,46.2z M121.4,48.9
		L121.4,48.9c-0.1,0.2-0.3,0.5-0.6,0.8c-0.3,0.5-0.8,1.2-1.3,1.8c-0.1,0.1-0.2,0.3-0.3,0.4c-0.6,0.8-1.2,1.5-1.6,2l0,0
		c-1.6,1.6-3.1,3-4.4,4.2c-1.3,1.2-2.5,2.2-3.4,2.8c-1,0.7-1.8,1.2-2.6,1.6c-0.7,0.4-1.3,0.5-1.6,0.5c-0.4,0-0.7-0.1-0.8-0.3
		c-0.2-0.1-0.3-0.4-0.3-0.7c0-0.3,0.1-0.7,0.3-1.1l0,0v0c1-2.7,3.8-7.9,8.6-12.1c0,0,0.1-0.1,0.1-0.1h0c1.4-1.2,2.7-2.2,3.7-2.8
		c1-0.6,1.9-0.9,2.4-0.9h0.1c0.6,0,1,0.2,1.4,0.5c0.3,0.3,0.6,0.7,0.7,0.9c0,0,0,0,0,0c0,0.1,0,0.3,0,0.4
		C121.9,47.5,121.7,48.3,121.4,48.9z"/>
</g>
</svg>
