<?xml version="1.0" encoding="utf-8"?>
<!-- Generator: Adobe Illustrator 16.0.0, SVG Export Plug-In . SVG Version: 6.00 Build 0)  -->
<!DOCTYPE svg PUBLIC "-//W3C//DTD SVG 1.1//EN" "http://www.w3.org/Graphics/SVG/1.1/DTD/svg11.dtd" [
	<!ENTITY ns_flows "http://ns.adobe.com/Flows/1.0/">
	<!ENTITY ns_extend "http://ns.adobe.com/Extensibility/1.0/">
	<!ENTITY ns_ai "http://ns.adobe.com/AdobeIllustrator/10.0/">
	<!ENTITY ns_graphs "http://ns.adobe.com/Graphs/1.0/">
]>
<svg version="1.1" id="Vrstva_1" xmlns:x="&ns_extend;" xmlns:i="&ns_ai;" xmlns:graph="&ns_graphs;"
	 xmlns="http://www.w3.org/2000/svg" xmlns:xlink="http://www.w3.org/1999/xlink" xmlns:a="http://ns.adobe.com/AdobeSVGViewerExtensions/3.0/"
	 x="0px" y="0px" width="299.3px" height="38.8px" viewBox="0 0 299.3 38.8" style="enable-background:new 0 0 299.3 38.8;"
	 xml:space="preserve">
<style type="text/css">
<![CDATA[
	.st0{fill:black;}
]]>
</style>
<g>
	<path class="st0" d="M289.6,30.3c-0.2,0.7-0.4,1.2-0.5,1.7c-0.1,0.4-0.3,0.8-0.4,1.1c-0.1,0.3-0.2,0.5-0.3,0.7
		c-0.1,0.2-0.2,0.4-0.4,0.6h-3.8l-0.5,1c0.1,0.6,0.3,1.1,0.5,1.7c0.2,0.6,0.4,1.2,0.7,1.7c0.6-0.1,1.2-0.3,1.8-0.6
		c0.5-0.3,1.1-0.7,1.6-1.3c0.5-0.6,1.1-1.4,1.6-2.5c0.5-1,1.1-2.4,1.7-4.1l5.7-17.8c0.9-0.3,1.6-0.6,2.1-0.9v-1h-6.3v1
		c0.6,0.5,1.3,0.8,2,0.9l-3.5,11.7l-0.6,2.5H291l-0.7-2.4l-4.6-11.7c0.9-0.3,1.6-0.6,2.1-1v-1H280v1c0.3,0.2,0.6,0.4,0.9,0.6
		c0.3,0.2,0.6,0.3,1,0.4L289.6,30.3z M282,29.3c-0.6-0.4-1.4-0.8-2.4-0.9v-10c0-1.6-0.1-3-0.4-4c-0.3-1.1-0.7-1.9-1.2-2.5
		c-0.5-0.6-1.2-1.1-1.9-1.3c-0.8-0.3-1.6-0.4-2.6-0.4c-1.4,0-2.5,0.4-3.5,1.3c-1,0.9-1.7,1.9-2.2,3.1h0v-4.4h-0.9
		c-0.9,0.2-1.8,0.4-2.6,0.6c-0.8,0.2-1.6,0.5-2.2,0.8v1l2.4,0.3v15.5c-1,0.3-1.8,0.6-2.4,0.9v1h7.9v-1c-0.7-0.5-1.4-0.8-2.2-0.9
		V16.8c0.2-0.6,0.4-1.1,0.7-1.6s0.6-1,1-1.4c0.4-0.4,0.9-0.7,1.4-1c0.5-0.2,1.1-0.4,1.7-0.4c1.4,0,2.4,0.6,2.9,1.7
		c0.5,1.2,0.8,2.7,0.8,4.7v9.4c-0.8,0.3-1.5,0.6-2.2,0.9v1h7.9V29.3z M255.1,5.5c0.4,0.4,1,0.6,1.7,0.6c0.7,0,1.3-0.2,1.7-0.6
		c0.4-0.4,0.6-1,0.6-1.7c0-0.7-0.2-1.3-0.6-1.7c-0.4-0.4-1-0.6-1.7-0.6c-0.7,0-1.3,0.2-1.7,0.6c-0.4,0.4-0.6,1-0.6,1.7
		C254.5,4.6,254.7,5.1,255.1,5.5z M260.9,29.3c-0.3-0.2-0.7-0.4-1.1-0.5c-0.4-0.1-0.8-0.3-1.3-0.4V10.1h-0.9
		c-0.8,0.2-1.7,0.4-2.5,0.6c-0.8,0.2-1.6,0.5-2.3,0.8v1l2.4,0.3v15.5c-0.5,0.1-0.9,0.3-1.3,0.4s-0.8,0.3-1.1,0.5v1h8.2V29.3z
		 M243.7,30.3l6.5-17.8c0.4-0.1,0.8-0.3,1.2-0.4c0.4-0.2,0.7-0.3,0.9-0.5v-1h-6.2v1c0.3,0.2,0.6,0.4,0.9,0.6
		c0.3,0.2,0.7,0.3,1.1,0.4l-3.9,11.9l-0.5,2.5h-0.1l-0.7-2.4l-4.2-11.9c0.4-0.1,0.8-0.3,1.1-0.5c0.3-0.2,0.7-0.3,1-0.5v-1H233v1
		c0.6,0.4,1.2,0.7,1.9,0.9l7.1,18.3L243.7,30.3z M221.6,13.9c0.9-1.4,2-2.1,3.5-2.1c1,0,1.8,0.2,2.5,0.7c0.7,0.4,1.2,1.1,1.7,1.8
		c0.4,0.8,0.8,1.7,1,2.7c0.2,1,0.3,2.2,0.3,3.4c0,3-0.4,5.1-1.3,6.5c-0.8,1.4-1.9,2.1-3.2,2.1c-1,0-1.9-0.2-2.6-0.7
		c-0.7-0.4-1.3-1.1-1.8-1.8c-0.5-0.8-0.8-1.7-1-2.8c-0.2-1.1-0.3-2.2-0.3-3.4C220.3,17.5,220.7,15.3,221.6,13.9z M217.2,24.7
		c0.4,1.3,0.9,2.4,1.6,3.3c0.7,0.9,1.6,1.6,2.7,2.1c1.1,0.5,2.4,0.7,3.8,0.7c2.6,0,4.8-0.9,6.3-2.7c1.6-1.8,2.4-4.3,2.4-7.7
		c0-1.6-0.2-3-0.5-4.2c-0.3-1.3-0.8-2.4-1.5-3.3c-0.7-0.9-1.6-1.6-2.7-2.1c-1.1-0.5-2.4-0.8-3.9-0.8c-1.3,0-2.5,0.2-3.5,0.7
		c-1.1,0.5-2,1.1-2.7,2s-1.3,2-1.7,3.2c-0.4,1.3-0.6,2.7-0.6,4.4C216.7,22,216.9,23.4,217.2,24.7z M216.8,29.3
		c-0.6-0.4-1.4-0.8-2.4-0.9v-10c0-1.6-0.1-3-0.4-4c-0.3-1.1-0.7-1.9-1.2-2.5c-0.5-0.6-1.2-1.1-1.9-1.3c-0.8-0.3-1.6-0.4-2.6-0.4
		c-1.4,0-2.5,0.4-3.5,1.3c-1,0.9-1.7,1.9-2.2,3.1h0v-4.4h-0.9c-0.9,0.2-1.8,0.4-2.6,0.6c-0.8,0.2-1.6,0.5-2.2,0.8v1l2.4,0.3v15.5
		c-1,0.3-1.8,0.6-2.4,0.9v1h7.9v-1c-0.7-0.5-1.4-0.8-2.2-0.9V16.8c0.2-0.6,0.4-1.1,0.7-1.6c0.3-0.5,0.6-1,1-1.4
		c0.4-0.4,0.9-0.7,1.4-1c0.5-0.2,1.1-0.4,1.7-0.4c1.4,0,2.4,0.6,2.9,1.7c0.5,1.2,0.8,2.7,0.8,4.7v9.4c-0.8,0.3-1.5,0.6-2.2,0.9v1
		h7.9V29.3z M187.2,13.3c0.6,1,0.9,2.4,0.9,4c0,0.2,0,0.4,0,0.7c0,0.2,0,0.5-0.1,0.7H180c0.1-2.6,0.6-4.4,1.3-5.4
		c0.7-1,1.8-1.5,3.2-1.5C185.7,11.8,186.6,12.3,187.2,13.3z M190.6,26.9c-0.4,0.4-1.1,0.8-2,1c-0.9,0.3-1.7,0.4-2.6,0.4
		c-1.1,0-2-0.2-2.7-0.6c-0.8-0.4-1.4-1-1.9-1.7c-0.5-0.7-0.9-1.5-1.2-2.5c-0.3-1-0.4-2-0.4-3.1h11.4c0.1-0.5,0.2-1,0.2-1.5
		c0-0.5,0.1-0.9,0.1-1.4c0-1.4-0.2-2.6-0.6-3.6c-0.4-1-0.9-1.7-1.6-2.3c-0.6-0.6-1.4-1-2.2-1.2c-0.8-0.3-1.7-0.4-2.5-0.4
		c-2.6,0-4.7,0.9-6.1,2.6c-1.4,1.8-2.2,4.3-2.2,7.7c0,1.6,0.2,3,0.6,4.3c0.4,1.3,0.9,2.4,1.7,3.3c0.7,0.9,1.7,1.6,2.8,2.1
		c1.1,0.5,2.4,0.7,3.8,0.7c0.7,0,1.3-0.1,1.9-0.3s1.2-0.4,1.8-0.7c0.5-0.3,1-0.6,1.4-1c0.4-0.4,0.7-0.8,0.9-1.3L190.6,26.9z
		 M169.4,11.6c0.6,0.4,1.2,0.8,1.8,0.9c-0.4,0.6-0.8,1.1-1.2,1.7c-0.4,0.6-0.9,1.2-1.4,1.8c-0.5,0.6-0.9,1.2-1.4,1.8
		c-0.5,0.6-0.9,1.1-1.3,1.6H165V0.6h-0.9c-0.9,0.2-1.8,0.4-2.7,0.6c-1,0.2-1.8,0.5-2.5,0.8v1l2.8,0.3v25c-0.8,0.2-1.6,0.5-2.4,0.9v1
		h8.1v-1c-0.8-0.5-1.6-0.8-2.4-0.9v-7.9l1.2,0.4c0.7,1.2,1.5,2.5,2.4,3.8c0.9,1.4,1.9,2.9,3.2,4.6l1,0.9h4.5v-1l-2.1-0.9
		c-0.6-0.8-1.3-1.6-1.9-2.4c-0.6-0.9-1.3-1.7-1.9-2.6c-0.6-0.8-1.2-1.6-1.7-2.4c-0.5-0.8-1-1.4-1.3-1.9c0.3-0.3,0.7-0.8,1.2-1.3
		c0.5-0.5,0.9-1.1,1.4-1.7c0.5-0.6,1-1.2,1.4-1.8c0.5-0.6,0.9-1.2,1.3-1.7c0.5-0.1,1-0.2,1.4-0.4c0.5-0.2,0.9-0.3,1.4-0.6v-1h-7.1
		V11.6z M158.3,27c-0.4,0.4-1,0.7-1.6,0.9c-0.6,0.3-1.4,0.4-2.2,0.4c-1.1,0-2-0.2-2.8-0.7c-0.8-0.4-1.5-1-2-1.8
		c-0.5-0.8-0.9-1.6-1.2-2.6s-0.4-1.9-0.4-2.9c0-3.1,0.5-5.3,1.4-6.6c0.9-1.3,2.2-2,3.9-2c0.5,0,0.9,0,1.1,0.1
		c0.2,0.1,0.4,0.2,0.6,0.3l1.6,4.7h1c0.3-0.7,0.5-1.6,0.7-2.7c0.2-1.1,0.3-2.1,0.4-2.9c-0.7-0.4-1.5-0.7-2.4-0.9
		c-0.9-0.2-2-0.3-3.2-0.3c-2.6,0-4.7,0.9-6.2,2.7s-2.3,4.3-2.3,7.7c0,1.6,0.2,3,0.5,4.2c0.4,1.3,0.9,2.4,1.6,3.3
		c0.7,0.9,1.6,1.6,2.7,2.1c1.1,0.5,2.3,0.7,3.8,0.7c1.3,0,2.5-0.3,3.5-0.9s1.7-1.4,2.2-2.3L158.3,27z M137.7,6.9l0.8,0.7l6.9-6V0.9
		c-0.1-0.1-0.4-0.3-0.7-0.4c-0.3-0.1-0.6-0.2-1-0.3c-0.3-0.1-0.7-0.1-1-0.2c-0.3,0-0.6,0-0.8,0L137.7,6.9z M144.3,29.3
		c-0.3-0.2-0.7-0.4-1.1-0.5c-0.4-0.1-0.8-0.3-1.3-0.4V10.1H141c-0.8,0.2-1.7,0.4-2.5,0.6s-1.6,0.5-2.3,0.8v1l2.4,0.3v15.5
		c-0.5,0.1-0.9,0.3-1.3,0.4s-0.8,0.3-1.1,0.5v1h8.2V29.3z M135.3,29.3c-0.6-0.4-1.4-0.8-2.4-0.9v-10c0-1.6-0.1-3-0.4-4
		c-0.3-1.1-0.7-1.9-1.2-2.5c-0.5-0.6-1.2-1.1-1.9-1.3c-0.8-0.3-1.6-0.4-2.6-0.4c-1.4,0-2.5,0.4-3.5,1.3c-1,0.9-1.7,1.9-2.2,3.1h0
		v-4.4H120c-0.9,0.2-1.8,0.4-2.6,0.6s-1.6,0.5-2.2,0.8v1l2.4,0.3v15.5c-1,0.3-1.8,0.6-2.4,0.9v1h7.9v-1c-0.7-0.5-1.4-0.8-2.2-0.9
		V16.8c0.2-0.6,0.4-1.1,0.7-1.6c0.3-0.5,0.6-1,1-1.4c0.4-0.4,0.9-0.7,1.4-1c0.5-0.2,1.1-0.4,1.7-0.4c1.4,0,2.4,0.6,2.9,1.7
		c0.5,1.2,0.8,2.7,0.8,4.7v9.4c-0.8,0.3-1.5,0.6-2.2,0.9v1h7.9V29.3z M102.2,12.6h2.9v12.5c0,2,0.4,3.4,1.2,4.3
		c0.8,0.9,1.9,1.3,3.4,1.3c0.6,0,1.1-0.1,1.7-0.2c0.5-0.2,1-0.4,1.5-0.6c0.5-0.2,0.9-0.5,1.2-0.7c0.4-0.3,0.6-0.5,0.8-0.8l-0.3-0.6
		c-0.5,0.2-1,0.3-1.7,0.4c-0.7,0.1-1.2,0.1-1.6,0.1c-0.9,0-1.6-0.3-2.1-1c-0.5-0.7-0.7-1.8-0.7-3.3V12.6h5.5v-2.1h-5.5V5.4h-0.9
		c-0.4,0.2-0.8,0.4-1.3,0.7c-0.4,0.2-0.8,0.5-1.1,0.8v3.4c-1,0.3-2,0.7-2.9,1.4V12.6z M89.9,13.9c0.9-1.4,2-2.1,3.5-2.1
		c1,0,1.8,0.2,2.5,0.7s1.2,1.1,1.7,1.8c0.4,0.8,0.8,1.7,1,2.7s0.3,2.2,0.3,3.4c0,3-0.4,5.1-1.3,6.5c-0.8,1.4-1.9,2.1-3.2,2.1
		c-1,0-1.9-0.2-2.6-0.7c-0.7-0.4-1.3-1.1-1.8-1.8c-0.5-0.8-0.8-1.7-1-2.8c-0.2-1.1-0.3-2.2-0.3-3.4C88.5,17.5,89,15.3,89.9,13.9z
		 M85.5,24.7c0.4,1.3,0.9,2.4,1.6,3.3c0.7,0.9,1.6,1.6,2.7,2.1c1.1,0.5,2.4,0.7,3.8,0.7c2.6,0,4.8-0.9,6.3-2.7
		c1.6-1.8,2.4-4.3,2.4-7.7c0-1.6-0.2-3-0.5-4.2c-0.3-1.3-0.8-2.4-1.5-3.3c-0.7-0.9-1.6-1.6-2.7-2.1c-1.1-0.5-2.4-0.8-3.9-0.8
		c-1.3,0-2.5,0.2-3.5,0.7c-1.1,0.5-2,1.1-2.7,2c-0.8,0.9-1.3,2-1.7,3.2c-0.4,1.3-0.6,2.7-0.6,4.4C85,22,85.2,23.4,85.5,24.7z
		 M77.5,30.3L84,12.5c0.4-0.1,0.8-0.3,1.2-0.4c0.4-0.2,0.7-0.3,0.9-0.5v-1h-6.2v1c0.3,0.2,0.6,0.4,0.9,0.6c0.3,0.2,0.7,0.3,1.1,0.4
		L78,24.4l-0.5,2.5h-0.1l-0.7-2.4l-4.2-11.9c0.4-0.1,0.8-0.3,1.1-0.5c0.3-0.2,0.7-0.3,1-0.5v-1h-7.7v1c0.6,0.4,1.2,0.7,1.9,0.9
		l7.2,18.3L77.5,30.3z M56.6,27.4c-0.5-0.6-0.8-1.5-0.8-2.6c0-0.7,0.1-1.3,0.3-1.8c0.2-0.5,0.5-0.9,1.1-1.3c0.5-0.3,1.2-0.6,2.1-0.8
		c0.9-0.2,2.1-0.2,3.5-0.2v4.2c-0.1,0.3-0.2,0.6-0.4,1c-0.2,0.4-0.5,0.8-0.8,1.1c-0.3,0.4-0.7,0.7-1.2,0.9c-0.5,0.3-1,0.4-1.6,0.4
		C57.9,28.3,57.2,28,56.6,27.4z M66,20.9c0.1-1.5,0.1-3,0.1-4.6c0-0.7-0.1-1.5-0.2-2.2c-0.1-0.7-0.4-1.4-0.8-2
		c-0.4-0.6-1-1.1-1.7-1.5c-0.7-0.4-1.7-0.6-3-0.6c-1.4,0-2.7,0.2-3.8,0.5c-1.1,0.3-2.2,0.8-3.1,1.4c0,0.8,0.2,1.6,0.4,2.5
		c0.2,0.8,0.4,1.7,0.6,2.4h1l1.7-4.7c0.4-0.2,0.8-0.3,1.3-0.3c0.4,0,0.8-0.1,1.2-0.1c0.7,0,1.3,0.2,1.8,0.5c0.5,0.4,0.8,0.9,1,1.5
		s0.4,1.4,0.4,2.3c0,0.9,0,1.9-0.1,3.1c-1.7,0.1-3.2,0.3-4.5,0.5s-2.4,0.5-3.3,1c-0.9,0.4-1.5,1.1-2,1.8c-0.5,0.8-0.7,1.8-0.7,3
		c0,1.6,0.5,2.9,1.4,3.8c0.9,1,2.2,1.5,3.7,1.5c0.8,0,1.5-0.1,2.1-0.4c0.6-0.3,1.1-0.6,1.6-1c0.5-0.4,0.8-0.9,1.1-1.4
		c0.3-0.5,0.5-1.1,0.6-1.6h0.2c0,0.9,0.1,1.7,0.1,2.4c0,0.7,0.2,1.4,0.4,2h0.9c0.7-0.1,1.4-0.3,2.1-0.6c0.7-0.3,1.4-0.6,2-0.9v-0.8
		L66,28c0-0.5,0-0.9-0.1-1.3s0-0.9,0-1.5C65.9,23.8,65.9,22.4,66,20.9z M52.3,13.5v-1c-0.1-0.4-0.2-0.9-0.4-1.3
		c-0.1-0.4-0.3-0.8-0.5-1.1c-0.7-0.1-1.3,0-1.9,0.2c-0.6,0.2-1.2,0.5-1.7,1c-0.5,0.4-1,0.9-1.4,1.4c-0.4,0.5-0.7,1.1-0.9,1.6h-0.1
		v-4.2h-0.9c-0.8,0.1-1.6,0.3-2.4,0.5c-0.8,0.2-1.6,0.5-2.4,0.9v1l2.4,0.3v15.5c-0.4,0.1-0.8,0.2-1.2,0.4c-0.4,0.1-0.8,0.3-1.2,0.6
		v1h8.7v-1c-0.5-0.3-1-0.5-1.5-0.7c-0.5-0.1-1-0.2-1.5-0.3V16.7c0.3-0.9,0.7-1.7,1.1-2.2c0.4-0.5,0.7-0.8,1-1H52.3z M26.7,27.7
		c-0.6-0.4-1-1-1.4-1.7c-0.4-0.7-0.6-1.5-0.8-2.5c-0.2-0.9-0.3-1.9-0.3-3c0-2.6,0.4-4.7,1.3-6.3c0.9-1.6,2.2-2.4,3.8-2.4
		c0.9,0,1.6,0.1,2.2,0.2c0.6,0.1,1.1,0.3,1.5,0.6v11.1c-0.3,1.4-0.8,2.5-1.5,3.3c-0.7,0.8-1.7,1.2-2.9,1.2
		C27.9,28.3,27.2,28.1,26.7,27.7z M33.1,26.4l0.3,4.3h0.9c0.7-0.1,1.5-0.3,2.2-0.5c0.8-0.3,1.5-0.6,2.2-0.9v-0.8l-2.4-0.3V0.6h-0.9
		c-0.9,0.2-1.8,0.4-2.7,0.6C31.8,1.4,31,1.7,30.2,2v1L33,3.4v7.5c-0.6-0.2-1.2-0.4-1.7-0.5c-0.5-0.1-1.2-0.1-2.1-0.1
		c-2.6,0-4.7,0.9-6.2,2.6c-1.5,1.8-2.3,4.3-2.3,7.7c0,3.5,0.6,6.1,1.8,7.7c1.2,1.7,3,2.5,5.4,2.5c0.6,0,1.2-0.1,1.8-0.4
		c0.6-0.2,1-0.6,1.5-1c0.4-0.4,0.8-0.9,1.1-1.4c0.3-0.5,0.5-1.1,0.6-1.7H33.1z M15.9,28.3h-12L19.1,4.7V2.7H0.4c0,0.5,0,1.1,0,1.8
		c0,0.6,0,1.3,0.1,2c0,0.7,0.1,1.4,0.1,2c0.1,0.7,0.1,1.3,0.2,1.8h0.9L4,4.7h11.3L0,28.3v2h19.5c0-0.5,0-1.1,0-1.8
		c0-0.7,0-1.3-0.1-2c0-0.7-0.1-1.4-0.1-2c-0.1-0.7-0.1-1.2-0.2-1.8h-1L15.9,28.3z"/>
</g>
</svg>
